<svg width="45" height="16" viewBox="0 0 45 16" fill="none" xmlns="http://www.w3.org/2000/svg">
<path d="M1.84 15C1.58667 15 1.37333 14.9133 1.2 14.74C1.02667 14.5667 0.94 14.3533 0.94 14.1V1.96C0.94 1.70667 1.02667 1.49333 1.2 1.32C1.37333 1.13333 1.58667 1.04 1.84 1.04H9.86C10.1 1.04 10.3 1.12667 10.46 1.3C10.6333 1.46 10.72 1.66 10.72 1.9C10.72 2.14 10.6333 2.34 10.46 2.5C10.3 2.66 10.1 2.74 9.86 2.74H2.76V7.16H9.14C9.38 7.16 9.58 7.24667 9.74 7.42C9.91333 7.58 10 7.78 10 8.02C10 8.26 9.91333 8.46 9.74 8.62C9.58 8.78 9.38 8.86 9.14 8.86H2.76V13.3H9.86C10.1 13.3 10.3 13.3867 10.46 13.56C10.6333 13.72 10.72 13.92 10.72 14.16C10.72 14.4 10.6333 14.6 10.46 14.76C10.3 14.92 10.1 15 9.86 15H1.84ZM20.9372 15.2C19.5372 15.2 18.3105 14.8933 17.2572 14.28C16.2039 13.6667 15.3905 12.82 14.8172 11.74C14.2439 10.66 13.9439 9.42 13.9172 8.02C13.9439 6.62 14.2439 5.38 14.8172 4.3C15.3905 3.22 16.2039 2.37333 17.2572 1.76C18.3105 1.14667 19.5372 0.84 20.9372 0.84C22.3372 0.84 23.5572 1.14667 24.5972 1.76C25.6505 2.37333 26.4639 3.22667 27.0372 4.32C27.6239 5.4 27.9305 6.63333 27.9572 8.02C27.9305 9.40667 27.6239 10.6467 27.0372 11.74C26.4639 12.82 25.6505 13.6667 24.5972 14.28C23.5572 14.8933 22.3372 15.2 20.9372 15.2ZM20.9372 13.5C22.0039 13.5 22.9305 13.26 23.7172 12.78C24.5039 12.3 25.1039 11.6467 25.5172 10.82C25.9305 9.99333 26.1372 9.06 26.1372 8.02C26.1372 6.98 25.9305 6.04667 25.5172 5.22C25.1039 4.39333 24.5039 3.74 23.7172 3.26C22.9305 2.78 22.0039 2.54 20.9372 2.54C19.8572 2.54 18.9239 2.78 18.1372 3.26C17.3639 3.74 16.7705 4.39333 16.3572 5.22C15.9439 6.04667 15.7372 6.98 15.7372 8.02C15.7372 9.06 15.9439 9.99333 16.3572 10.82C16.7705 11.6467 17.3639 12.3 18.1372 12.78C18.9239 13.26 19.8572 13.5 20.9372 13.5ZM33.0877 15.1C32.8343 15.1 32.621 15.0133 32.4477 14.84C32.2743 14.6667 32.1877 14.4533 32.1877 14.2V2.26C32.1877 1.9 32.3143 1.59333 32.5677 1.34C32.821 1.07333 33.1277 0.94 33.4877 0.94H33.7477C34.1743 0.94 34.541 1.14 34.8477 1.54L42.5477 12.66V1.86C42.5477 1.60667 42.6343 1.39333 42.8077 1.22C42.981 1.03333 43.1943 0.94 43.4477 0.94C43.701 0.94 43.9143 1.03333 44.0877 1.22C44.2743 1.39333 44.3677 1.60667 44.3677 1.86V13.8C44.3677 14.16 44.2343 14.4667 43.9677 14.72C43.7143 14.9733 43.4077 15.1 43.0477 15.1H42.8077C42.5943 15.1 42.3943 15.0533 42.2077 14.96C42.021 14.8533 41.8677 14.72 41.7477 14.56L34.0077 3.38V14.2C34.0077 14.4533 33.9143 14.6667 33.7277 14.84C33.5543 15.0133 33.341 15.1 33.0877 15.1Z" fill="black"/>
<path d="M1.2 14.74L1.55355 14.3864L1.55355 14.3864L1.2 14.74ZM1.2 1.32L1.55355 1.67355L1.5601 1.66701L1.5664 1.66023L1.2 1.32ZM10.46 1.3L10.0926 1.63914L10.1062 1.65383L10.1209 1.6674L10.46 1.3ZM10.46 2.5L10.1209 2.1326L10.1135 2.13938L10.1064 2.14645L10.46 2.5ZM2.76 2.74V2.24H2.26V2.74H2.76ZM2.76 7.16H2.26V7.66H2.76V7.16ZM9.74 7.42L9.3726 7.75914L9.38616 7.77384L9.40086 7.7874L9.74 7.42ZM9.74 8.62L9.40086 8.2526L9.39351 8.25938L9.38645 8.26645L9.74 8.62ZM2.76 8.86V8.36H2.26V8.86H2.76ZM2.76 13.3H2.26V13.8H2.76V13.3ZM10.46 13.56L10.0926 13.8991L10.1062 13.9138L10.1209 13.9274L10.46 13.56ZM10.46 14.76L10.1209 14.3926L10.1135 14.3994L10.1064 14.4064L10.46 14.76ZM1.84 14.5C1.71432 14.5 1.62967 14.4626 1.55355 14.3864L0.846447 15.0936C1.117 15.3641 1.45902 15.5 1.84 15.5V14.5ZM1.55355 14.3864C1.47744 14.3103 1.44 14.2257 1.44 14.1H0.44C0.44 14.481 0.575896 14.823 0.846447 15.0936L1.55355 14.3864ZM1.44 14.1V1.96H0.44V14.1H1.44ZM1.44 1.96C1.44 1.83432 1.47744 1.74967 1.55355 1.67355L0.846447 0.966446C0.575896 1.237 0.44 1.57902 0.44 1.96H1.44ZM1.5664 1.66023C1.64572 1.5748 1.72657 1.54 1.84 1.54V0.54C1.44676 0.54 1.10095 0.691865 0.833603 0.979774L1.5664 1.66023ZM1.84 1.54H9.86V0.54H1.84V1.54ZM9.86 1.54C9.96322 1.54 10.0291 1.57036 10.0926 1.63914L10.8274 0.960859C10.5709 0.682971 10.2368 0.54 9.86 0.54V1.54ZM10.1209 1.6674C10.1896 1.73089 10.22 1.79679 10.22 1.9H11.22C11.22 1.52321 11.077 1.18911 10.7991 0.932597L10.1209 1.6674ZM10.22 1.9C10.22 2.00321 10.1896 2.06911 10.1209 2.1326L10.7991 2.8674C11.077 2.61089 11.22 2.27679 11.22 1.9H10.22ZM10.1064 2.14645C10.0463 2.20655 9.97632 2.24 9.86 2.24V3.24C10.2237 3.24 10.5537 3.11345 10.8136 2.85355L10.1064 2.14645ZM9.86 2.24H2.76V3.24H9.86V2.24ZM2.26 2.74V7.16H3.26V2.74H2.26ZM2.76 7.66H9.14V6.66H2.76V7.66ZM9.14 7.66C9.24321 7.66 9.30911 7.69036 9.3726 7.75914L10.1074 7.08086C9.85089 6.80297 9.51679 6.66 9.14 6.66V7.66ZM9.40086 7.7874C9.46964 7.85089 9.5 7.91679 9.5 8.02H10.5C10.5 7.64321 10.357 7.30911 10.0791 7.0526L9.40086 7.7874ZM9.5 8.02C9.5 8.12321 9.46964 8.18911 9.40086 8.2526L10.0791 8.9874C10.357 8.73089 10.5 8.39679 10.5 8.02H9.5ZM9.38645 8.26645C9.32634 8.32655 9.25632 8.36 9.14 8.36V9.36C9.50368 9.36 9.83366 9.23345 10.0936 8.97355L9.38645 8.26645ZM9.14 8.36H2.76V9.36H9.14V8.36ZM2.26 8.86V13.3H3.26V8.86H2.26ZM2.76 13.8H9.86V12.8H2.76V13.8ZM9.86 13.8C9.96322 13.8 10.0291 13.8304 10.0926 13.8991L10.8274 13.2209C10.5709 12.943 10.2368 12.8 9.86 12.8V13.8ZM10.1209 13.9274C10.1896 13.9909 10.22 14.0568 10.22 14.16H11.22C11.22 13.7832 11.077 13.4491 10.7991 13.1926L10.1209 13.9274ZM10.22 14.16C10.22 14.2632 10.1896 14.3291 10.1209 14.3926L10.7991 15.1274C11.077 14.8709 11.22 14.5368 11.22 14.16H10.22ZM10.1064 14.4064C10.0463 14.4665 9.97632 14.5 9.86 14.5V15.5C10.2237 15.5 10.5537 15.3735 10.8136 15.1136L10.1064 14.4064ZM9.86 14.5H1.84V15.5H9.86V14.5ZM17.2572 14.28L17.5088 13.8479L17.5088 13.8479L17.2572 14.28ZM14.8172 11.74L14.3756 11.9744L14.3756 11.9744L14.8172 11.74ZM13.9172 8.02L13.4173 8.01048L13.4171 8.02L13.4173 8.02952L13.9172 8.02ZM14.8172 4.3L15.2588 4.53444L15.2588 4.53444L14.8172 4.3ZM17.2572 1.76L17.0056 1.32791L17.0056 1.32791L17.2572 1.76ZM24.5972 1.76L24.3432 2.19069L24.3456 2.19209L24.5972 1.76ZM27.0372 4.32L26.5943 4.55223L26.5978 4.55866L27.0372 4.32ZM27.9572 8.02L28.4571 8.02961L28.4573 8.02L28.4571 8.01039L27.9572 8.02ZM27.0372 11.74L26.5966 11.5036L26.5956 11.5056L27.0372 11.74ZM24.5972 14.28L24.3456 13.8479L24.3432 13.8493L24.5972 14.28ZM23.7172 12.78L23.4568 12.3532L23.4568 12.3532L23.7172 12.78ZM25.5172 10.82L25.9644 11.0436L25.9644 11.0436L25.5172 10.82ZM25.5172 5.22L25.9644 4.99639L25.9644 4.99639L25.5172 5.22ZM23.7172 3.26L23.4568 3.68682L23.4568 3.68682L23.7172 3.26ZM18.1372 3.26L17.8767 2.83317L17.8735 2.83518L18.1372 3.26ZM16.3572 5.22L15.91 4.99639L15.91 4.99639L16.3572 5.22ZM16.3572 10.82L15.91 11.0436L15.91 11.0436L16.3572 10.82ZM18.1372 12.78L17.8735 13.2048L17.8768 13.2068L18.1372 12.78ZM20.9372 14.7C19.6122 14.7 18.475 14.4105 17.5088 13.8479L17.0056 14.7121C18.1461 15.3762 19.4621 15.7 20.9372 15.7V14.7ZM17.5088 13.8479C16.5362 13.2816 15.7886 12.5035 15.2588 11.5056L14.3756 11.9744C14.9924 13.1365 15.8715 14.0517 17.0056 14.7121L17.5088 13.8479ZM15.2588 11.5056C14.7273 10.5044 14.4425 9.34342 14.4171 8.01048L13.4173 8.02952C13.4452 9.49658 13.7604 10.8156 14.3756 11.9744L15.2588 11.5056ZM14.4171 8.02952C14.4425 6.69658 14.7273 5.53563 15.2588 4.53444L14.3756 4.06555C13.7604 5.22437 13.4452 6.54342 13.4173 8.01048L14.4171 8.02952ZM15.2588 4.53444C15.7886 3.53647 16.5362 2.75838 17.5088 2.19209L17.0056 1.32791C15.8715 1.98829 14.9924 2.90353 14.3756 4.06555L15.2588 4.53444ZM17.5088 2.19209C18.475 1.62949 19.6122 1.34 20.9372 1.34V0.34C19.4621 0.34 18.1461 0.663839 17.0056 1.32791L17.5088 2.19209ZM20.9372 1.34C22.2623 1.34 23.3917 1.62955 24.3432 2.19068L24.8512 1.32932C23.7227 0.663787 22.4121 0.34 20.9372 0.34V1.34ZM24.3456 2.19209C25.3166 2.75746 26.0641 3.54102 26.5944 4.5522L27.48 4.08779C26.8636 2.91231 25.9845 1.9892 24.8488 1.32791L24.3456 2.19209ZM26.5978 4.55866C27.1416 5.55966 27.432 6.71265 27.4573 8.02961L28.4571 8.01039C28.4291 6.55402 28.1061 5.24034 27.4765 4.08133L26.5978 4.55866ZM27.4573 8.01039C27.432 9.32727 27.1416 10.488 26.5966 11.5036L27.4778 11.9764C28.1061 10.8054 28.4291 9.48606 28.4571 8.02961L27.4573 8.01039ZM26.5956 11.5056C26.0658 12.5035 25.3181 13.2816 24.3456 13.8479L24.8488 14.7121C25.9829 14.0517 26.8619 13.1365 27.4788 11.9744L26.5956 11.5056ZM24.3432 13.8493C23.3917 14.4105 22.2623 14.7 20.9372 14.7V15.7C22.4121 15.7 23.7227 15.3762 24.8512 14.7107L24.3432 13.8493ZM20.9372 14C22.081 14 23.1008 13.7418 23.9776 13.2068L23.4568 12.3532C22.7602 12.7782 21.9267 13 20.9372 13V14ZM23.9776 13.2068C24.8446 12.6778 25.5092 11.9539 25.9644 11.0436L25.07 10.5964C24.6985 11.3394 24.1631 11.9222 23.4568 12.3532L23.9776 13.2068ZM25.9644 11.0436C26.4166 10.1392 26.6372 9.12781 26.6372 8.02H25.6372C25.6372 8.99219 25.4445 9.84743 25.07 10.5964L25.9644 11.0436ZM26.6372 8.02C26.6372 6.91219 26.4166 5.90076 25.9644 4.99639L25.07 5.44361C25.4445 6.19257 25.6372 7.04781 25.6372 8.02H26.6372ZM25.9644 4.99639C25.5092 4.08607 24.8446 3.3622 23.9776 2.83318L23.4568 3.68682C24.1631 4.1178 24.6985 4.7006 25.07 5.44361L25.9644 4.99639ZM23.9776 2.83318C23.1008 2.29819 22.081 2.04 20.9372 2.04V3.04C21.9267 3.04 22.7602 3.26181 23.4568 3.68682L23.9776 2.83318ZM20.9372 2.04C19.7813 2.04 18.7545 2.29762 17.8768 2.83318L18.3976 3.68682C19.0932 3.26238 19.9331 3.04 20.9372 3.04V2.04ZM17.8735 2.83518C17.0203 3.36477 16.364 4.08831 15.91 4.99639L16.8044 5.44361C17.177 4.69835 17.7074 4.11523 18.4009 3.68482L17.8735 2.83518ZM15.91 4.99639C15.4578 5.90076 15.2372 6.91219 15.2372 8.02H16.2372C16.2372 7.04781 16.4299 6.19257 16.8044 5.44361L15.91 4.99639ZM15.2372 8.02C15.2372 9.12781 15.4578 10.1392 15.91 11.0436L16.8044 10.5964C16.4299 9.84743 16.2372 8.99219 16.2372 8.02H15.2372ZM15.91 11.0436C16.364 11.9517 17.0203 12.6752 17.8735 13.2048L18.4009 12.3552C17.7074 11.9248 17.177 11.3416 16.8044 10.5964L15.91 11.0436ZM17.8768 13.2068C18.7545 13.7424 19.7813 14 20.9372 14V13C19.9331 13 19.0932 12.7776 18.3976 12.3532L17.8768 13.2068ZM32.4477 14.84L32.8012 14.4864L32.8012 14.4864L32.4477 14.84ZM32.5677 1.34L32.9213 1.69367L32.9302 1.68437L32.5677 1.34ZM34.8477 1.54L35.2587 1.25536L35.2518 1.2454L35.2445 1.23578L34.8477 1.54ZM42.5477 12.66L42.1366 12.9446L43.0477 14.2604V12.66H42.5477ZM42.8077 1.22L43.1612 1.57355L43.1678 1.56701L43.1741 1.56023L42.8077 1.22ZM44.0877 1.22L43.7213 1.56023L43.7339 1.5738L43.7474 1.5864L44.0877 1.22ZM43.9677 14.72L43.6232 14.3574L43.6141 14.3664L43.9677 14.72ZM42.2077 14.96L41.9596 15.3941L41.9716 15.401L41.9841 15.4072L42.2077 14.96ZM41.7477 14.56L41.3366 14.8446L41.342 14.8524L41.3477 14.86L41.7477 14.56ZM34.0077 3.38L34.4188 3.09539L33.5077 1.77937V3.38H34.0077ZM33.7277 14.84L33.3874 14.4736L33.3806 14.4799L33.3741 14.4864L33.7277 14.84ZM33.0877 14.6C32.962 14.6 32.8773 14.5626 32.8012 14.4864L32.0941 15.1936C32.3647 15.4641 32.7067 15.6 33.0877 15.6V14.6ZM32.8012 14.4864C32.7251 14.4103 32.6877 14.3257 32.6877 14.2H31.6877C31.6877 14.581 31.8236 14.923 32.0941 15.1936L32.8012 14.4864ZM32.6877 14.2V2.26H31.6877V14.2H32.6877ZM32.6877 2.26C32.6877 2.03189 32.7622 1.85261 32.9212 1.69355L32.2141 0.986446C31.8665 1.33406 31.6877 1.76811 31.6877 2.26H32.6877ZM32.9302 1.68437C33.0914 1.51463 33.268 1.44 33.4877 1.44V0.44C32.9873 0.44 32.5506 0.632031 32.2052 0.995625L32.9302 1.68437ZM33.4877 1.44H33.7477V0.44H33.4877V1.44ZM33.7477 1.44C33.9896 1.44 34.2195 1.54246 34.4509 1.84422L35.2445 1.23578C34.8625 0.737544 34.359 0.44 33.7477 0.44V1.44ZM34.4366 1.82464L42.1366 12.9446L42.9587 12.3754L35.2587 1.25536L34.4366 1.82464ZM43.0477 12.66V1.86H42.0477V12.66H43.0477ZM43.0477 1.86C43.0477 1.73431 43.0851 1.64967 43.1612 1.57355L42.4541 0.866446C42.1836 1.137 42.0477 1.47902 42.0477 1.86H43.0477ZM43.1741 1.56023C43.2534 1.4748 43.3342 1.44 43.4477 1.44V0.44C43.0544 0.44 42.7086 0.591865 42.4413 0.879774L43.1741 1.56023ZM43.4477 1.44C43.5611 1.44 43.6419 1.4748 43.7213 1.56023L44.4541 0.879774C44.1867 0.591865 43.8409 0.44 43.4477 0.44V1.44ZM43.7474 1.5864C43.8329 1.66572 43.8677 1.74657 43.8677 1.86H44.8677C44.8677 1.46676 44.7158 1.12095 44.4279 0.853602L43.7474 1.5864ZM43.8677 1.86V13.8H44.8677V1.86H43.8677ZM43.8677 13.8C43.8677 14.0196 43.793 14.1962 43.6233 14.3575L44.312 15.0825C44.6756 14.7371 44.8677 14.3004 44.8677 13.8H43.8677ZM43.6141 14.3664C43.455 14.5255 43.2758 14.6 43.0477 14.6V15.6C43.5395 15.6 43.9736 15.4212 44.3212 15.0736L43.6141 14.3664ZM43.0477 14.6H42.8077V15.6H43.0477V14.6ZM42.8077 14.6C42.6702 14.6 42.5469 14.5706 42.4313 14.5128L41.9841 15.4072C42.2417 15.5361 42.5185 15.6 42.8077 15.6V14.6ZM42.4557 14.5259C42.3238 14.4505 42.2237 14.3614 42.1477 14.26L41.3477 14.86C41.5116 15.0786 41.7182 15.2562 41.9596 15.3941L42.4557 14.5259ZM42.1588 14.2754L34.4188 3.09539L33.5966 3.6646L41.3366 14.8446L42.1588 14.2754ZM33.5077 3.38V14.2H34.5077V3.38H33.5077ZM33.5077 14.2C33.5077 14.3134 33.4729 14.3943 33.3874 14.4736L34.0679 15.2064C34.3558 14.9391 34.5077 14.5932 34.5077 14.2H33.5077ZM33.3741 14.4864C33.298 14.5626 33.2133 14.6 33.0877 14.6V15.6C33.4686 15.6 33.8107 15.4641 34.0812 15.1936L33.3741 14.4864Z" fill="black"/>
</svg>
