<?xml version="1.0" encoding="UTF-8"?>
<svg width="119px" height="119px" viewBox="0 0 119 119" version="1.1" xmlns="http://www.w3.org/2000/svg" xmlns:xlink="http://www.w3.org/1999/xlink">
    <!-- Generator: Sketch 61.2 (89653) - https://sketch.com -->
    <title>Logo</title>
    <desc>Created with Sketch.</desc>
    <defs>
        <rect id="path-1" x="10" y="0" width="35" height="57" rx="4"></rect>
        <filter x="-24.3%" y="-11.4%" width="148.6%" height="129.8%" filterUnits="objectBoundingBox" id="filter-2">
            <feMorphology radius="1.5" operator="dilate" in="SourceAlpha" result="shadowSpreadOuter1"></feMorphology>
            <feOffset dx="0" dy="2" in="shadowSpreadOuter1" result="shadowOffsetOuter1"></feOffset>
            <feGaussianBlur stdDeviation="2" in="shadowOffsetOuter1" result="shadowBlurOuter1"></feGaussianBlur>
            <feComposite in="shadowBlurOuter1" in2="SourceAlpha" operator="out" result="shadowBlurOuter1"></feComposite>
            <feColorMatrix values="0 0 0 0 0   0 0 0 0 0   0 0 0 0 0  0 0 0 0.0957440997 0" type="matrix" in="shadowBlurOuter1"></feColorMatrix>
        </filter>
    </defs>
    <g id="Logo" stroke="none" stroke-width="1" fill="none" fill-rule="evenodd">
        <g id="Group-2" transform="translate(32.000000, 31.000000)">
            <ellipse id="Oval" fill="#FFDD5F" cx="27" cy="28.5" rx="27" ry="26.5"></ellipse>
            <g id="Rectangle">
                <use fill="black" fill-opacity="1" filter="url(#filter-2)" xlink:href="#path-1"></use>
                <use stroke="#FFFFFF" stroke-width="3" fill="#425182" fill-rule="evenodd" xlink:href="#path-1"></use>
            </g>
            <g id="Group" transform="translate(14.000000, 32.000000)" fill="#FFFFFF">
                <rect id="Rectangle" x="0" y="0" width="26" height="2.08695652" rx="1.04347826"></rect>
                <rect id="Rectangle" x="0" y="6.95652174" width="26" height="2.08695652" rx="1.04347826"></rect>
                <rect id="Rectangle" x="0" y="13.9130435" width="26" height="2.08695652" rx="1.04347826"></rect>
            </g>
            <path d="M22.3754247,21 L23.7273499,19.8317972 L22.0144394,18.5184332 C22.5665345,18.0990783 22.9983012,17.5426267 23.3097395,16.8490783 C23.6211778,16.15553 23.7768969,15.3387097 23.7768969,14.3986175 L23.7768969,14.3986175 L23.7768969,13.9493088 C23.7768969,12.9631336 23.5940449,12.093318 23.2283409,11.3398618 C22.8626368,10.5864055 22.3459324,10.0080645 21.6782276,9.60483871 C21.0105228,9.2016129 20.2472631,9 19.3884485,9 C18.5296338,9 17.7663741,9.2016129 17.0986693,9.60483871 C16.4309645,10.0080645 15.9142601,10.5864055 15.5485561,11.3398618 C15.182852,12.093318 15,12.9654378 15,13.9562212 L15,13.9562212 L15,14.4539171 C15.0047188,15.421659 15.1911099,16.2776498 15.5591733,17.0218894 C15.9272367,17.766129 16.4463005,18.3387097 17.1163647,18.7396313 C17.7864288,19.140553 18.5485089,19.3410138 19.4026048,19.3410138 C19.6715742,19.3410138 19.9311061,19.3202765 20.1812005,19.2788018 L20.1812005,19.2788018 L22.3754247,21 Z M19.4026048,17.640553 C18.6759154,17.640553 18.1191015,17.3571429 17.7321631,16.7903226 C17.3452246,16.2235023 17.1517554,15.4262673 17.1517554,14.3986175 L17.1517554,14.3986175 L17.1517554,13.9078341 C17.1564741,12.8617512 17.3523028,12.0679724 17.7392412,11.5264977 C18.1261797,10.985023 18.6759154,10.7142857 19.3884485,10.7142857 C20.1057003,10.7142857 20.6577954,10.9884793 21.0447339,11.5368664 C21.4316723,12.0852535 21.6251416,12.8870968 21.6251416,13.9423963 L21.6251416,13.9423963 L21.6251416,14.4331797 C21.6204228,15.4792627 21.4269536,16.2753456 21.0447339,16.8214286 C20.6625142,17.3675115 20.1151378,17.640553 19.4026048,17.640553 Z M31.7044168,14.0460829 L31.7044168,12.4147465 L25.3765572,12.4147465 L25.3765572,14.0460829 L31.7044168,14.0460829 Z M31.7044168,17.0391705 L31.7044168,15.4078341 L25.3765572,15.4078341 L25.3765572,17.0391705 L31.7044168,17.0391705 Z M40,14.0460829 L40,12.4147465 L33.6721404,12.4147465 L33.6721404,14.0460829 L40,14.0460829 Z M40,17.0391705 L40,15.4078341 L33.6721404,15.4078341 L33.6721404,17.0391705 L40,17.0391705 Z" id="Q==" fill="#FFFFFF" fill-rule="nonzero"></path>
        </g>
    </g>
</svg>