<svg xmlns="http://www.w3.org/2000/svg" viewBox="0 0 48 48" width="50" height="50" fill="#666"><path d="M44,24c0,11.045-8.955,20-20,20S4,35.045,4,24S12.955,4,24,4S44,12.955,44,24z" fill="#9c27b0"/><path d="M33.5,28.102c-0.602,6.398-5.602,8.098-9.301,8.098c-3.098,0-9.598-1.598-9.598-11.199v-1.5	c0-8.699,5.5-11.199,9.699-11.199c8.5,0,9.199,7,9.301,8.199h-4.801c-0.301-3.602-2.199-4.301-4.5-4.301	c-1.602,0-4.801,0.5-4.801,7.199V25c-0.102,7.5,3.801,7.199,4.699,7.199c4.301,0,4.301-2.898,4.602-4.098H33.5z" fill="#e1bee7"/></svg>