<svg xmlns="http://www.w3.org/2000/svg" viewBox="0 0 48 48" width="50" height="50" fill="#666"><path d="M 24.171875 42.828125 C 23.417969 42.074219 23 41.070313 23 40.003906 L 23 4 L 25 4 L 25 40.003906 C 25 41.105469 25.898438 42 27 42.003906 C 28.101563 42.003906 29 41.101563 29 40.003906 L 31 40.003906 C 31 42.207031 29.207031 44 27 44 C 25.933594 44 24.929688 43.585938 24.171875 42.828125 Z" fill="#b0bec5"/><path d="M 43 27 C 43 16.507813 34.492188 8 24 8 C 13.507813 8 5 16.507813 5 27 C 5 27 7.835938 24.285156 11.335938 24.285156 C 14.832031 24.285156 17 27 17 27 C 17 27 20.503906 24.285156 24 24.285156 C 27.496094 24.285156 31 27 31 27 C 31 27 33.167969 24.285156 36.664063 24.285156 C 40.164063 24.285156 43 27 43 27 Z" fill="#2196f3"/><path d="M 24 8 L 24 24.285156 C 27.496094 24.285156 31 27 31 27 C 31 27 33.167969 24.285156 36.664063 24.285156 C 40.164063 24.285156 43 27 43 27 C 43 16.507813 34.492188 8 24 8 Z" fill="#0d47a1"/><path d="M 24 8 C 24 8 17 12.523438 17 27 C 17 27 20.503906 24.285156 24 24.285156 C 27.496094 24.285156 31 27 31 27 C 31 13.429688 24 8 24 8 Z" fill="#1565c0"/></svg>