<svg xmlns="http://www.w3.org/2000/svg" viewBox="0 0 48 48" width="50" height="50" fill="#666"><path d="M 40.398438 19 C 35.101563 19 32.199219 24 32 24 C 31.800781 24 28.398438 19 23 19 C 17.601563 19 16.398438 24.101563 16.199219 24.101563 C 16 24.101563 14.5 20 9.898438 20 C 6.101563 20 5.300781 21.601563 5.300781 21.601563 C 5.300781 21.601563 5.699219 20.300781 6.300781 17 L 15 17 L 15 13 L 3 13 L 0.5 25 L 4.800781 25 C 4.800781 25 5.699219 23.300781 8.199219 23.300781 C 10.699219 23.300781 12 25.199219 12 27.300781 C 12 29.398438 10.5 31.800781 8.199219 31.800781 C 5.898438 31.800781 4.5 29.398438 4.5 28 C 2.601563 28 0 28 0 28 C 0 29.199219 1 35 8.199219 35 C 14.101563 35 16.199219 30.898438 16.199219 30.398438 C 16.199219 30.800781 18.199219 35 23 35 C 28.601563 35 31.699219 30.398438 32 30.398438 C 32.300781 30.398438 35.300781 35 40.398438 35 C 45.5 35 48 30.699219 48 27 C 48 23.300781 45.699219 19 40.398438 19 Z M 44 27 C 44 27.898438 43.601563 30.699219 40.398438 30.699219 C 37.5 30.699219 34.5 27.101563 34.5 27 C 34.5 27 37.5 23.398438 40.398438 23.398438 C 43.5 23.398438 44 26.101563 44 27 Z M 20 27 C 20 26.101563 20.300781 23.398438 23.601563 23.398438 C 26.5 23.398438 29.5 27 29.601563 27 C 29.601563 27 26.5 30.699219 23.601563 30.699219 C 20.398438 30.699219 20 27.898438 20 27 Z" fill="#455a64"/></svg>