<svg xmlns="http://www.w3.org/2000/svg" viewBox="0 0 48 48" width="50" height="50" fill="#666"><path d="M 12 15 L 9 15 C 9 21 14 32 14 32 C 15 32 17 27 17 27 C 15 24 12 17 12 17 C 12 15.773438 12 15 12 15 Z" fill="#00838f"/><path d="M 12 16 C 12 16.554688 11.554688 17 11 17 L 8 17 C 7.445313 17 7 16.554688 7 16 L 7 15 C 7 14.445313 7.445313 14 8 14 L 11 14 C 11.554688 14 12 14.445313 12 15 Z" fill="#00838f"/><path d="M 29 25.003906 C 29 25.003906 29 29 30 31 L 18 31 C 18 31 19 29.003906 19 25.003906 Z" fill="#00838f"/><path d="M 19 29 L 22 30 L 29 30 C 29 30 34 30 36.125 39.5 C 36.125 39.5 37 43 37 45 L 17 45 L 16 41.941406 Z" fill="#00acc1"/><path d="M 6.023438 9.480469 C 6.128906 10.765625 7.089844 11.785156 8.339844 12 L 10.59375 12 C 11.128906 11.628906 13.878906 9.402344 10 5 C 11.125 8.371094 9.34375 8.453125 9.375 7.4375 C 9.375 5.1875 9.125 4.125 8 3 C 8 5.898438 6.136719 6.007813 6.011719 9.132813 C 6.007813 9.171875 6 9.214844 6 9.253906 C 6 9.269531 6.003906 9.289063 6.003906 9.308594 C 6.003906 9.359375 6 9.402344 6 9.457031 Z" fill="#ffc107"/><path d="M 14.058594 37.988281 C 14.191406 39.207031 14.621094 41.269531 16 41.941406 C 18 42.917969 19 31.210938 19 29.257813 C 19 29.1875 18.992188 29.132813 18.980469 29.09375 C 18.765625 30.015625 16.851563 37.875 14.058594 37.988281 Z" fill="#0097a7"/><path d="M 30 45 L 36 45 C 36 44.988281 36.050781 42.191406 36.074219 39.300781 C 35.703125 37.710938 35.257813 36.390625 34.761719 35.296875 L 32 40.429688 C 32 40.429688 31.875 38.179688 30.6875 36.207031 C 31.386719 39.148438 30.183594 42.929688 30.019531 43.429688 Z" fill="#0097a7"/><path d="M 39 45 L 42 39 L 41 38 L 37.460938 45 Z" fill="#0097a7"/><path d="M 24 18 C 24.386719 18 24.75 18.03125 25.09375 18.085938 L 24 13 L 22.90625 18.074219 C 23.25 18.027344 23.613281 18 24 18 Z" fill="#0097a7"/><path d="M 20.039063 19.535156 C 20.492188 18.984375 21.070313 18.566406 21.816406 18.316406 L 18.277344 15 Z" fill="#0097a7"/><path d="M 34 24.003906 L 29 23.011719 C 29 23.007813 29 23.003906 29 23 C 29 23.597656 28.636719 24.542969 27.925781 25.214844 Z" fill="#0097a7"/><path d="M 28.335938 20.199219 C 28.667969 20.785156 28.863281 21.476563 28.945313 22.246094 L 32.980469 18.605469 L 28.335938 20.199219 C 28.339844 20.199219 28.335938 20.199219 28.335938 20.199219 Z" fill="#0097a7"/><path d="M 27.933594 19.625 C 27.929688 19.621094 27.929688 19.621094 27.925781 19.617188 L 29.722656 15 L 26.148438 18.351563 C 26.894531 18.625 27.476563 19.066406 27.933594 19.625 Z" fill="#0097a7"/><path d="M 19.609375 20.179688 L 15.019531 18.605469 L 19.050781 22.242188 C 19.121094 21.441406 19.308594 20.753906 19.609375 20.179688 Z" fill="#0097a7"/><path d="M 19.003906 23.019531 L 15.167969 23.773438 C 15.257813 23.945313 15.347656 24.121094 15.4375 24.292969 L 20.101563 25.230469 C 19.492188 24.734375 19.007813 23.996094 19.003906 23.019531 Z" fill="#0097a7"/><path d="M 22 26 C 21 26 19 25.003906 19 23 C 19 19.6875 20.6875 18 24 18 C 27.3125 18 29 20 29 23 C 29 24 28 26 26 26 Z" fill="#0097a7"/><path d="M 21 26.003906 C 19 24.003906 20 19 24 19 C 28 19 29 24.003906 27 26 Z" fill="#006064"/><path d="M 26 27.40625 L 22 27.40625 L 22 30.074219 C 22 30.074219 22.113281 32 23.996094 32 C 25.882813 32 26 30.074219 26 30.074219 Z" fill="#006064"/><path d="M 13 13.003906 C 13 13.554688 12.554688 14.003906 12 14.003906 L 7 14.003906 C 6.445313 14.003906 6 13.554688 6 13.003906 L 6 12 L 13 12 Z" fill="#00bcd4"/><path d="M 17 26 C 16.753906 25.878906 16.507813 25.816406 16.265625 25.800781 C 16.519531 26.242188 16.765625 26.648438 17 27 C 17 27 15 32 14 32 C 14 32 13.429688 30.742188 12.675781 28.851563 C 12.105469 30.363281 11 33.511719 11 35 C 11 35 12 38 14 38 C 17 38 19 29 19 29 C 19 29 19 27 17 26 Z" fill="#00bcd4"/><path d="M 8.429688 17 L 9 21 L 10 21 L 10.570313 17 Z" fill="#00bcd4"/><path d="M 27 24 C 27 21.792969 25.65625 21 24 21 C 22.34375 21 21 21.792969 21 24 C 21 24.171875 21 24.828125 21 25 C 21 27.203125 22.34375 29 24 29 C 25.65625 29 27 27.203125 27 25 C 27 24.828125 27 24.171875 27 24 Z" fill="#00bcd4"/><path d="M 24 18 C 20.6875 18 19 19.6875 19 23 C 19 24.28125 19.816406 25.144531 20.671875 25.605469 C 19.132813 23.414063 20.242188 19 24 19 C 27.8125 19 28.894531 23.539063 27.253906 25.695313 C 28.414063 25.101563 29 23.761719 29 23 C 29 20 27.3125 18 24 18 Z" fill="#00bcd4"/><path d="M 41 38 L 36 36 L 32 43.289063 L 32 45 L 37.460938 45 Z" fill="#4dd0e1"/></svg>