<svg xmlns="http://www.w3.org/2000/svg" viewBox="0 0 48 48" width="50" height="50" fill="#666"><path d="M32,19.5c0,4.51-3.13,8.28-7.35,9.25C23.96,28.92,23.24,29,22.5,29c-3.99,0-7.41-2.46-8.81-5.95 c-0.21-0.51-2.12-5.13-4.09-9.92c-0.05-0.11-0.43-1.05-0.83-2.02c1.69-1.78,3.76-3.29,6.12-4.46C18.21,5,22.09,4.04,26.24,4 c0.79,1.76,1.61,3.58,1.72,3.81c1.67,3.78,3.24,7.49,3.7,9.15C31.88,17.77,32,18.62,32,19.5z" fill="#e69329"/><circle cx="31.5" cy="31.5" r="12.5" fill="#90a4ae"/><circle cx="31.5" cy="31.5" r="10.5" fill="#546e7a"/><path d="M27.488,31.518L28.227,25h7.188v2.123h-5.1l-0.317,2.757c0.604-0.323,1.247-0.485,1.929-0.485 c1.221,0,2.179,0.379,2.871,1.136c0.693,0.758,1.04,1.818,1.04,3.18c0,0.828-0.175,1.569-0.524,2.224 c-0.35,0.655-0.85,1.163-1.502,1.524C33.16,37.819,32.391,38,31.505,38c-0.775,0-1.494-0.157-2.158-0.471 c-0.664-0.315-1.187-0.757-1.572-1.326s-0.59-1.218-0.612-1.947h2.519c0.052,0.534,0.239,0.949,0.56,1.247 c0.32,0.296,0.738,0.444,1.254,0.444c0.576,0,1.018-0.207,1.33-0.621c0.312-0.415,0.467-1,0.467-1.758 c0-0.728-0.18-1.286-0.537-1.673c-0.357-0.387-0.867-0.581-1.523-0.581c-0.604,0-1.095,0.158-1.471,0.476l-0.247,0.229 L27.488,31.518z" fill="#90a4ae"/><path d="M24.65,28.75c-0.13,0.16-0.28,0.32-0.43,0.47c-3.71,3.71-9.73,3.71-13.44,0 c-1.32-1.32-3.94-4-6.77-6.9c0.04-4.23,1.81-8.12,4.76-11.21c1.69-1.78,3.76-3.29,6.12-4.46l2.57,2.51c0,0,6.23,6.09,6.76,6.62 C27.78,19.34,27.92,25.02,24.65,28.75z" fill="#ffb74d"/><path d="M21.392,18.609c-0.302-0.302-1.47-1.447-3.374-3.31c-0.297-0.291-0.75-0.379-1.124-0.197 c-0.767,0.371-2.16,1.201-3.878,2.919c-1.718,1.718-2.549,3.111-2.921,3.879c-0.182,0.375-0.097,0.825,0.195,1.123 c0.431,0.44,0.841,0.859,1.224,1.248c0.856,0.872,1.577,1.602,2.096,2.12c2.148,2.147,5.64,2.145,7.784,0.001 c0.062-0.062,0.115-0.116,0.161-0.173l0.09-0.105C23.542,23.945,23.433,20.649,21.392,18.609z" fill="#ffe0b2"/></svg>