<svg xmlns="http://www.w3.org/2000/svg" viewBox="0 0 48 48" width="50" height="50" fill="#666"><path d="M 28 38 C 28 40.210938 26.210938 42 24 42 C 21.789063 42 20 40.210938 20 38 C 20 35.792969 21.789063 34 24 34 C 26.210938 34 28 35.792969 28 38 Z" fill="#db8509"/><path d="M 26 11 C 26 12.105469 25.105469 13 24 13 C 22.894531 13 22 12.105469 22 11 L 22 7 C 22 5.894531 22.894531 5 24 5 C 25.105469 5 26 5.894531 26 7 Z" fill="#db8509"/><path d="M 27.886719 38.910156 C 27.953125 38.617188 28 38.3125 28 38 C 28 37.617188 27.929688 37.253906 27.828125 36.902344 C 26.609375 36.964844 25.332031 37 24 37 C 22.667969 37 21.390625 36.964844 20.171875 36.902344 C 20.070313 37.253906 20 37.617188 20 38 C 20 38.3125 20.046875 38.617188 20.113281 38.910156 C 21.585938 38.980469 22.925781 39 24 39 C 25.074219 39 26.414063 38.980469 27.886719 38.910156 Z" fill="#bc6f0a"/><path d="M 33 33 L 33 16.800781 C 33 11.832031 28.972656 7.800781 24 7.800781 C 19.027344 7.800781 15 11.832031 15 16.800781 L 15 33 Z" fill="#ffc107"/><path d="M 41 33 C 41 35.210938 33.941406 37 24 37 C 14.058594 37 7 35.210938 7 33 C 7 30.789063 14.058594 29 24 29 C 33.941406 29 41 30.789063 41 33 Z" fill="#ffc107"/><path d="M 7 33 C 7 31 15 24 15 21 C 15 18 33 18 33 21 C 33 24 41 31 41 33 C 41 35 7 35 7 33 Z" fill="#ffc107"/><path d="M 9.273438 29.425781 C 8.785156 30.015625 8.347656 30.570313 7.980469 31.074219 C 9.601563 31.730469 16.128906 34.136719 24.542969 34.136719 C 29.289063 34.136719 34.632813 33.355469 40.019531 31.070313 C 39.65625 30.574219 39.222656 30.027344 38.738281 29.441406 C 25.699219 34.722656 12.699219 30.679688 9.273438 29.425781 Z" fill="#ffe082"/></svg>