<svg xmlns="http://www.w3.org/2000/svg" viewBox="0 0 48 48" width="50" height="50" fill="#666"><path d="M 45 35 C 45 37.207031 43.210938 39 41 39 L 7 39 C 4.789063 39 3 37.207031 3 35 L 3 13 C 3 10.789063 4.789063 9 7 9 L 41 9 C 43.210938 9 45 10.789063 45 13 Z" fill="#3f51b5"/><path d="M 16 21 C 16 21.554688 15.554688 22 15 22 L 10 22 C 9.445313 22 9 21.554688 9 21 L 9 17 C 9 16.445313 9.445313 16 10 16 L 15 16 C 15.554688 16 16 16.445313 16 17 Z M 15 26 L 9 26 L 9 28 L 15 28 Z M 23 31 L 9 31 L 9 33 L 23 33 Z M 23 26 L 17 26 L 17 28 L 23 28 Z M 31 26 L 25 26 L 25 28 L 31 28 Z M 39 26 L 33 26 L 33 28 L 39 28 Z" fill="#ffc107"/><path d="M 20 16 L 39 16 L 39 20 L 20 20 Z" fill="#9fa8da"/></svg>