<svg xmlns="http://www.w3.org/2000/svg" viewBox="0 0 48 48" width="50" height="50" fill="#666"><path d="M 19 18.300781 L 16.199219 21.101563 L 34.601563 39.5 C 35.398438 40.300781 36.601563 40.300781 37.398438 39.5 C 38.199219 38.699219 38.199219 37.5 37.398438 36.699219 Z" fill="#0288d1"/><path d="M 15.898438 26.5 L 21.601563 20.800781 L 7.699219 7 L 7.101563 7.5 C 4.300781 10.300781 4.300781 14.898438 7.101563 17.699219 Z" fill="#0288d1"/><path d="M 31.101563 21.699219 L 28.300781 18.898438 L 10.398438 36.699219 C 9.601563 37.5 9.601563 38.699219 10.398438 39.5 C 11.199219 40.300781 12.398438 40.300781 13.199219 39.5 Z" fill="#03a9f4"/><path d="M 39.539063 21.710938 C 43.445313 17.808594 44.078125 12.109375 40.953125 8.984375 C 37.828125 5.859375 32.128906 6.492188 28.226563 10.398438 C 24.320313 14.304688 23.6875 20.003906 26.8125 23.125 C 29.933594 26.25 35.632813 25.617188 39.539063 21.710938 Z" fill="#03a9f4"/></svg>