<svg xmlns="http://www.w3.org/2000/svg" viewBox="0 0 48 48" width="50" height="50" fill="#666"><path d="M 8 41 L 8 7 C 8 4.800781 9.800781 3 12 3 L 36 3 C 38.199219 3 40 4.800781 40 7 L 40 41 C 40 43.199219 38.199219 45 36 45 L 12 45 C 9.800781 45 8 43.199219 8 41 Z" fill="#37474f"/><path d="M 36 6 L 12 6 C 11.398438 6 11 6.398438 11 7 L 11 38 C 11 38.601563 11.398438 39 12 39 L 36 39 C 36.601563 39 37 38.601563 37 38 L 37 7 C 37 6.398438 36.601563 6 36 6 Z" fill="#bbdefb"/><path d="M 21 41 L 27 41 L 27 43 L 21 43 Z" fill="#78909c"/></svg>