<svg xmlns="http://www.w3.org/2000/svg" viewBox="0 0 48 48" width="50" height="50" fill="#666"><path d="M 30.800781 18.199219 C 28.398438 18.898438 27.199219 21.601563 28.699219 23.601563 C 27.800781 24.101563 26.601563 25.199219 25.5 26.898438 C 25.398438 22.5 25.800781 18.199219 26.800781 15.101563 C 28.199219 16.5 29.898438 16.300781 31.398438 15 C 34.101563 12.601563 31.699219 6.898438 32.898438 5.101563 C 31.5 5.101563 26 5.601563 23.699219 8.398438 C 22.199219 10.300781 22.800781 13 25.300781 13.5 C 23.898438 16.898438 23.398438 21.800781 23.398438 26.601563 C 22.601563 25.398438 21.5 24.199219 20.101563 23.300781 C 22.898438 21.101563 22.101563 17.601563 19.199219 16.101563 C 14.898438 13.699219 7.800781 16.300781 6 17 C 8.601563 18.601563 8.398438 27 13.199219 28.601563 C 16.300781 29.601563 18.699219 28.601563 19.300781 24.898438 C 23.300781 27.800781 24 33 24.101563 33.101563 C 24.199219 33.601563 24.601563 34 25.101563 34 C 25.101563 34 25.199219 34 25.199219 34 C 25.699219 33.898438 26.101563 33.5 26.101563 33 C 26.101563 29.101563 27.898438 26.898438 29.199219 25.898438 C 29.300781 28.398438 31 29.398438 33.398438 29.199219 C 37.300781 28.699219 38.800781 22.101563 41.101563 21.199219 C 39.800781 20.199219 34.601563 17.199219 30.800781 18.199219 Z" fill="#8bc34a"/><path d="M 13.199219 28.601563 C 8.398438 27 8.601563 18.601563 6 17 C 8.300781 17.199219 11.800781 19.101563 19.398438 23.800781 C 19.101563 28.398438 16.601563 29.699219 13.199219 28.601563 Z M 33.300781 29 C 37.199219 28.5 38.699219 21.898438 41 21 C 39.199219 20.800781 35.800781 21.699219 29.199219 24.101563 C 28.601563 27.800781 30.5 29.300781 33.300781 29 Z M 31.5 14.898438 C 34.601563 11.898438 31.800781 6.800781 33 5 C 31.5 5.800781 29.398438 8.199219 25.800781 13.5 C 27.300781 16.5 29.5 16.601563 31.5 14.898438 Z" fill="#689f38"/><path d="M 9 42 L 40.601563 42 C 41.398438 41.300781 42 40.199219 42 39 C 42 36.800781 40.199219 35 38 35 C 37.601563 35 37.199219 35.101563 36.800781 35.199219 C 36.199219 33.300781 34.5 32 32.5 32 C 31.199219 32 30 32.601563 29.199219 33.398438 C 28.101563 32.5 26.601563 32 25 32 C 22.898438 32 21 32.898438 19.699219 34.398438 C 19.199219 34.199219 18.601563 34 18 34 C 16.898438 34 16 34.398438 15.300781 35.101563 C 14.699219 34.398438 13.898438 34 13 34 C 11.601563 34 10.5 34.898438 10.101563 36.199219 C 9.800781 36.101563 9.398438 36 9 36 C 7.300781 36 6 37.300781 6 39 C 6 40.699219 7.300781 42 9 42 Z" fill="#795548"/><path d="M 38 40 C 38 38.300781 36.699219 37 35 37 C 33.5 37 32.300781 38.101563 32.101563 39.398438 C 31.300781 38.601563 30.199219 38 29 38 C 27.699219 38 26.5 38.699219 25.800781 39.699219 C 25.300781 38.101563 23.800781 37 22 37 C 20.898438 37 20 37.398438 19.300781 38.101563 C 18.699219 37.398438 17.898438 37 17 37 C 15.601563 37 14.5 37.898438 14.101563 39.199219 C 13.800781 39.101563 13.398438 39 13 39 C 11.101563 39 9.601563 40.300781 9.101563 42 L 40 42 C 39.800781 41 39 40.199219 38 40 Z" fill="#8d6e63"/></svg>