<svg xmlns="http://www.w3.org/2000/svg" viewBox="0 0 48 48" width="50" height="50" fill="#666"><path d="M42,14c0,0.553-0.447,1-1,1L7,15.001c-0.552,0-1-0.447-1-1v-7c0-0.553,0.448-1,1-1L41,6 c0.553,0,1,0.447,1,1V14z" fill="#3f51b5"/><path fill="#bbdefb" d="M6 12.001H42V42H6z"/><g fill="#eee"><circle cx="9" cy="9" r="1"/><circle cx="13" cy="9" r="1"/></g><path d="M37,33c0,0.552-0.448,1-1,1H12c-0.552,0-1-0.448-1-1v-4c0-0.552,0.448-1,1-1h24c0.552,0,1,0.448,1,1 V33z" fill="#455a64"/><path d="M34,24c0,2.73-1.09,5.2-2.86,7H16.86C15.09,29.2,14,26.73,14,24c0-5.52,4.48-10,10-10 C29.52,14,34,18.48,34,24z" fill="#ffc107"/><path d="M20.3,24l0.7-6h6.6v2h-4.7l-0.3,2.5c0.6-0.3,1.2-0.4,1.8-0.4c1.1,0,2,0.4,2.7,1c0.6,0.7,1,1.7,1,2.9 c0,0.8-0.2,1.4-0.5,2.1c-0.3,0.6-0.8,1.1-1.4,1.4C25.5,29.8,24.8,30,24,30c-0.7,0-1.4-0.1-2-0.4s-1.1-0.7-1.5-1.2s-0.5-1.1-0.6-1.8 h2.3c0,0.5,0.2,0.9,0.5,1.2c0.3,0.3,0.7,0.4,1.2,0.4s0.9-0.2,1.2-0.6c0.3-0.4,0.4-0.9,0.4-1.6s-0.2-1.2-0.5-1.5 c-0.3-0.4-0.8-0.5-1.4-0.5s-1,0.1-1.4,0.4L22,24.6L20.3,24z" fill="#fff8e1"/></svg>