<svg xmlns="http://www.w3.org/2000/svg" viewBox="0 0 48 48" width="50" height="50" fill="#666"><path d="M 17.398438 33 L 15 33 L 15 29 L 19 29 L 19.398438 30.5 C 19.699219 31.800781 18.699219 33 17.398438 33 Z" fill="#90caf9"/><path d="M 37 36 C 37 36 25.199219 29 19 29 L 19 15 C 24.800781 15 37 8 37 8 Z" fill="#90caf9"/><path d="M 14 22 C 14 24.761719 11.761719 27 9 27 C 6.238281 27 4 24.761719 4 22 C 4 19.238281 6.238281 17 9 17 C 11.761719 17 14 19.238281 14 22 Z" fill="#283593"/><path d="M 40 19 L 37 19 L 37 25 L 40 25 C 41.699219 25 43 23.699219 43 22 C 43 20.300781 41.699219 19 40 19 Z" fill="#283593"/><path d="M 18.601563 41.199219 C 17.699219 41.800781 16.101563 42.398438 14 42.601563 C 13.398438 42.699219 12.800781 42.300781 12.601563 41.601563 L 8.199219 27.898438 C 8.199219 27.898438 17 21.699219 17 29 C 17 34.5 18.5 37.398438 19.199219 38.5 C 19.699219 39.199219 19.699219 40.101563 19.199219 40.800781 C 19 41 18.800781 41.101563 18.601563 41.199219 Z" fill="#283593"/><path d="M 9 29 L 19 29 L 19 15 L 9 15 C 7.898438 15 7 15.898438 7 17 L 7 27 C 7 28.101563 7.898438 29 9 29 Z" fill="#3f51b5"/><path d="M 38 38 C 36.898438 38 36 37.101563 36 36 L 36 8 C 36 6.898438 36.898438 6 38 6 C 39.101563 6 40 6.898438 40 8 L 40 36 C 40 37.101563 39.101563 38 38 38 Z" fill="#42a5f5"/></svg>