<svg xmlns="http://www.w3.org/2000/svg" viewBox="0 0 48 48" width="50" height="50" fill="#666"><path d="M29,15c8.284,0,15,6.044,15,13.5c0,3.538-1.525,6.748-3.999,9.156C40.005,37.977,40,41,44,43 c0,0-1,1-3.5,1C35,44,33,41.5,33,41.5l0.001,0C31.725,41.817,30.388,42,29,42c-8.284,0-15-6.044-15-13.5C14,21.044,20.716,15,29,15 z" fill="#2196f3"/><path fill="#bbdefb" d="M21 23H37V24.999H21z"/><path fill="#bbdefb" d="M21 28H37V29.999H21z"/><path fill="#bbdefb" d="M23 33H33V35H23z"/><path d="M34.874,23C35.59,21.288,36,19.439,36,17.5c0-0.324-0.032-0.64-0.053-0.959 C33.869,15.562,31.509,15,29,15c-8.284,0-15,6.044-15,13.5c0,1.633,0.338,3.19,0.928,4.639c0.241-0.152,0.465-0.307,0.663-0.463 C16.73,32.891,17.873,33,19,33c3.748,0,7.209-1.119,10.021-3H29v-2h2.476c0.919-0.908,1.728-1.912,2.391-3H33v-2H34.874z" fill="#1e88e5"/><path d="M21,24.999h12.867c0.389-0.639,0.718-1.309,1.007-1.999H21V24.999z" fill="#64b5f6"/><path d="M21,29.999h8.011c0.889-0.594,1.711-1.263,2.458-1.999H21V29.999z" fill="#64b5f6"/><g><path d="M19,4C10.716,4,4,10.044,4,17.5c0,3.538,1.525,6.748,3.999,9.156C7.995,26.977,8,30,4,32 c0,0,1,1,3.5,1c5.5,0,7.5-2.5,7.5-2.5l-0.001,0C16.275,30.817,17.612,31,19,31c8.284,0,15-6.044,15-13.5C34,10.044,27.284,4,19,4z" fill="#ffb300"/><path fill="#ffecb3" d="M11 12.001H27V14H11z"/><path fill="#ffecb3" d="M11 17H27V19H11z"/><path fill="#ffecb3" d="M11 22H23V24H11z"/></g></svg>