<svg xmlns="http://www.w3.org/2000/svg" viewBox="0 0 48 48" width="50" height="50" fill="#666"><path d="M 40 45 L 8 45 L 8 3 L 30 3 L 40 13 Z" fill="#4db6ac"/><path d="M 38.5 14 L 29 14 L 29 4.5 Z" fill="#e0f2f1"/><path d="M 20.046875 29.683594 C 19.996094 30.820313 19.675781 31.679688 19.089844 32.261719 C 18.5 32.84375 17.671875 33.136719 16.601563 33.136719 C 15.476563 33.136719 14.613281 32.765625 14.011719 32.027344 C 13.414063 31.285156 13.113281 30.230469 13.113281 28.859375 L 13.113281 27.183594 C 13.113281 25.816406 13.425781 24.761719 14.042969 24.019531 C 14.664063 23.28125 15.523438 22.910156 16.628906 22.910156 C 17.710938 22.910156 18.535156 23.214844 19.097656 23.820313 C 19.660156 24.425781 19.980469 25.296875 20.058594 26.429688 L 18.042969 26.429688 C 18.023438 25.730469 17.914063 25.246094 17.71875 24.976563 C 17.519531 24.710938 17.15625 24.578125 16.628906 24.578125 C 16.089844 24.578125 15.710938 24.765625 15.484375 25.140625 C 15.261719 25.519531 15.144531 26.136719 15.128906 26.996094 L 15.128906 28.878906 C 15.128906 29.867188 15.238281 30.546875 15.460938 30.914063 C 15.683594 31.285156 16.0625 31.46875 16.601563 31.46875 C 17.128906 31.46875 17.492188 31.339844 17.695313 31.082031 C 17.894531 30.824219 18.007813 30.359375 18.035156 29.683594 Z" fill="#00695c"/><path d="M 25.484375 30.390625 C 25.484375 29.984375 25.382813 29.675781 25.175781 29.46875 C 24.96875 29.261719 24.589844 29.046875 24.042969 28.824219 C 23.046875 28.445313 22.328125 28.003906 21.890625 27.492188 C 21.453125 26.984375 21.234375 26.386719 21.234375 25.691406 C 21.234375 24.855469 21.53125 24.179688 22.125 23.671875 C 22.722656 23.164063 23.476563 22.910156 24.390625 22.910156 C 25.003906 22.910156 25.546875 23.039063 26.027344 23.296875 C 26.503906 23.554688 26.871094 23.917969 27.128906 24.386719 C 27.386719 24.855469 27.515625 25.390625 27.515625 25.988281 L 25.511719 25.988281 C 25.511719 25.523438 25.414063 25.167969 25.214844 24.925781 C 25.015625 24.679688 24.730469 24.558594 24.359375 24.558594 C 24.007813 24.558594 23.734375 24.664063 23.539063 24.871094 C 23.34375 25.078125 23.242188 25.355469 23.242188 25.707031 C 23.242188 25.980469 23.351563 26.230469 23.570313 26.449219 C 23.789063 26.671875 24.179688 26.898438 24.734375 27.136719 C 25.703125 27.488281 26.410156 27.917969 26.847656 28.429688 C 27.289063 28.941406 27.507813 29.589844 27.507813 30.378906 C 27.507813 31.242188 27.234375 31.921875 26.683594 32.40625 C 26.128906 32.894531 25.378906 33.136719 24.433594 33.136719 C 23.789063 33.136719 23.203125 33.007813 22.675781 32.742188 C 22.148438 32.476563 21.734375 32.097656 21.433594 31.605469 C 21.136719 31.113281 20.988281 30.535156 20.988281 29.863281 L 23.003906 29.863281 C 23.003906 30.4375 23.117188 30.855469 23.339844 31.113281 C 23.5625 31.375 23.925781 31.503906 24.433594 31.503906 C 25.136719 31.503906 25.484375 31.132813 25.484375 30.390625 Z" fill="#00695c"/><path d="M 32.082031 30.265625 L 33.757813 23.046875 L 36 23.046875 L 33.128906 33 L 31.035156 33 L 28.1875 23.046875 L 30.414063 23.046875 Z" fill="#00695c"/></svg>