<svg xmlns="http://www.w3.org/2000/svg" viewBox="0 0 48 48" width="50" height="50" fill="#666"><path d="M 26 12 L 18 12 L 14.898438 15.101563 C 13 17 12 19.5 12 22.199219 L 12 42 C 12 43.101563 12.898438 44 14 44 L 30 44 C 31.101563 44 32 43.101563 32 42 L 32 22.101563 C 32 19.398438 30.898438 16.898438 29.101563 15 Z" fill="#f44336"/><path d="M 18 6 C 11.300781 6 6 11.300781 6 18 L 10 18 C 10 13.5 13.5 10 18 10 L 26 10 L 26 6 Z" fill="#607d8b"/><path d="M 26 10 L 34 12 L 34 4 L 26 6 Z" fill="#607d8b"/><path d="M 25 36 L 19 36 C 18.398438 36 18 35.601563 18 35 L 18 25 C 18 24.398438 18.398438 24 19 24 L 25 24 C 25.601563 24 26 24.398438 26 25 L 26 35 C 26 35.601563 25.601563 36 25 36 Z" fill="#fff"/><path d="M 18 4 L 26 4 L 26 12 L 18 12 Z" fill="#d32f2f"/></svg>