<svg xmlns="http://www.w3.org/2000/svg" viewBox="0 0 48 48" width="50" height="50" fill="#666"><path d="M 2 10 L 46 10 L 46 38 L 2 38 Z" fill="#3f51b5"/><path d="M 2 14.214844 L 22.808594 26.933594 L 25.9375 21.816406 L 6.609375 10 L 2 10 Z" fill="#fff"/><path d="M 46 10 L 42.390625 10 L 23.0625 21.8125 L 26.1875 26.933594 L 46 14.824219 Z" fill="#fff"/><path d="M 26.1875 20.269531 L 23.0625 25.390625 L 43.691406 38 L 46 38 L 46 32.378906 Z" fill="#fff"/><path d="M 2 32.992188 L 2 38 L 5.308594 38 L 25.9375 25.390625 L 22.8125 20.269531 Z" fill="#fff"/><path d="M 2 20 L 46 20 L 46 28 L 2 28 Z" fill="#fff"/><path d="M 20 10 L 28 10 L 28 38 L 20 38 Z" fill="#fff"/><path d="M 17.21875 20 L 2 10.699219 L 2 13.042969 L 13.382813 20 Z" fill="#e53935"/><path d="M 44.308594 10 L 27.945313 20 L 31.78125 20 L 46 11.3125 L 46 10 Z" fill="#e53935"/><path d="M 33.082031 28 L 46 35.894531 L 46 33.550781 L 36.917969 28 Z" fill="#e53935"/><path d="M 15.917969 28 L 2 36.507813 L 2 38 L 3.390625 38 L 19.753906 28 Z" fill="#e53935"/><path d="M 2 22 L 46 22 L 46 26 L 2 26 Z" fill="#e53935"/><path d="M 22 10 L 26 10 L 26 38 L 22 38 Z" fill="#e53935"/></svg>