<svg xmlns="http://www.w3.org/2000/svg" viewBox="0 0 48 48" width="50" height="50" fill="#666"><path d="M 7 8 L 41 8 C 43.210938 8 45 9.789063 45 12 L 45 36 C 45 38.210938 43.210938 40 41 40 L 7 40 C 4.789063 40 3 38.210938 3 36 L 3 12 C 3 9.789063 4.789063 8 7 8" fill="#2196f3"/><path d="M 17.039063 28.726563 L 12.746094 28.726563 L 11.910156 32 L 8.582031 32 L 13.449219 16 L 16.332031 16 L 21.234375 32 L 17.871094 32 Z M 13.429688 26.03125 L 16.34375 26.03125 L 14.886719 20.328125 Z M 26 26.375 L 26 32 L 23 32 L 23 16 L 28 16 C 29.542969 16 30.769531 16.492188 31.6875 17.472656 C 32.605469 18.453125 33 19.730469 33 21.296875 C 33 22.863281 32.609375 24.101563 31.703125 25.011719 C 30.796875 25.917969 29.542969 26.375 27.9375 26.375 Z M 26 23.679688 L 28.117188 23.679688 C 28.714844 23.679688 29.179688 23.480469 29.507813 23.078125 C 29.835938 22.675781 30 22.089844 30 21.320313 C 30 20.519531 29.832031 19.886719 29.496094 19.410156 C 29.160156 18.941406 28.710938 18.699219 28.148438 18.691406 L 26 18.691406 Z M 38 32 L 35 32 L 35 16 L 38 16 Z" fill="#fff"/></svg>