<svg xmlns="http://www.w3.org/2000/svg" viewBox="0 0 48 48" width="50" height="50" fill="#666"><path d="M 40 45 L 8 45 L 8 3 L 30 3 L 40 13 Z" fill="#ba68c8"/><path d="M 38.5 14 L 29 14 L 29 4.5 Z" fill="#f3e5f5"/><path d="M 28 28.898438 C 28 30.199219 27.699219 31.300781 27.101563 32 C 26.5 32.699219 25.601563 33.101563 24.5 33.101563 C 23.398438 33.101563 22.5 32.699219 21.898438 32 C 21.300781 31.300781 20.898438 30.199219 20.898438 28.898438 L 20.898438 27.199219 C 20.898438 25.800781 21.199219 24.800781 21.898438 24 C 22.5 23.199219 23.398438 22.800781 24.5 22.800781 C 25.601563 22.800781 26.5 23.199219 27.101563 23.898438 C 27.699219 24.699219 28.101563 25.699219 28.101563 27.101563 L 28.101563 28.898438 Z M 26 27.300781 C 26 26.398438 25.898438 25.699219 25.601563 25.300781 C 25.300781 24.898438 24.898438 24.601563 24.398438 24.601563 C 23.898438 24.601563 23.5 24.800781 23.199219 25.199219 C 22.898438 25.601563 22.800781 26.300781 22.800781 27.101563 L 22.800781 28.898438 C 22.800781 29.800781 22.898438 30.398438 23.199219 30.800781 C 23.5 31.199219 23.898438 31.398438 24.398438 31.398438 C 24.898438 31.398438 25.300781 31.199219 25.601563 30.800781 C 25.898438 30.398438 26 29.800781 26 28.898438 Z M 13 33 L 13 23 L 15.601563 23 C 16.800781 23 17.699219 23.398438 18.398438 24.101563 C 19.101563 24.800781 19.398438 25.898438 19.5 27.101563 L 19.5 28.699219 C 19.5 30 19.199219 31 18.5 31.800781 C 17.800781 32.5 16.898438 32.898438 15.601563 32.898438 L 13 32.898438 Z M 15 24.699219 L 15 31.300781 L 15.601563 31.300781 C 16.300781 31.300781 16.699219 31.101563 17 30.800781 C 17.300781 30.398438 17.398438 29.800781 17.398438 29 L 17.398438 27.300781 C 17.398438 26.398438 17.300781 25.699219 17 25.398438 C 16.699219 25 16.300781 24.800781 15.699219 24.800781 L 15 24.800781 Z M 35.898438 29.800781 C 35.800781 30.898438 35.5 31.800781 34.898438 32.398438 C 34.300781 33 33.5 33.300781 32.398438 33.300781 C 31.300781 33.300781 30.398438 32.898438 29.800781 32.199219 C 29.199219 31.5 28.898438 30.398438 28.898438 29 L 28.898438 27.300781 C 28.898438 25.898438 29.199219 24.898438 29.800781 24.101563 C 30.398438 23.398438 31.300781 23 32.398438 23 C 33.5 23 34.300781 23.300781 34.898438 23.898438 C 35.5 24.5 35.800781 25.398438 35.898438 26.5 L 33.898438 26.5 C 33.898438 25.800781 33.800781 25.300781 33.601563 25 C 33.398438 24.699219 33 24.601563 32.5 24.601563 C 32 24.601563 31.601563 24.800781 31.398438 25.199219 C 31.199219 25.601563 31.101563 26.199219 31 27.101563 L 31 29 C 31 30 31.101563 30.699219 31.300781 31 C 31.5 31.398438 31.898438 31.601563 32.398438 31.601563 C 32.898438 31.601563 33.300781 31.5 33.5 31.199219 C 33.699219 30.898438 33.800781 30.5 33.800781 29.800781 Z" fill="#4a148c"/></svg>