<svg xmlns="http://www.w3.org/2000/svg" viewBox="0 0 48 48" width="50" height="50" fill="#666"><path d="M 32 44 L 26 42 L 26.601563 34 L 32 40 Z" fill="#2196f3"/><path d="M 42 34 L 27 26.601563 L 26.800781 19.601563 L 26.601563 15 L 42 30.199219 Z" fill="#2196f3"/><path d="M 16 44 L 22 42 L 21.398438 34 L 16 40 Z" fill="#2196f3"/><path d="M 6 34 L 21 26.601563 L 21.199219 19.601563 L 21.398438 15 L 6 30.199219 Z" fill="#2196f3"/><path d="M 24 4 C 21.800781 4 20 5.800781 20 8 L 20 41 C 20 42.101563 20.898438 43 22 43 L 26 43 C 27.101563 43 28 42.101563 28 41 L 28 8 C 28 5.800781 26.199219 4 24 4 Z" fill="#64b5f6"/><path d="M 23 34 L 25 34 L 25 43 L 23 43 Z" fill="#2196f3"/></svg>