<svg xmlns="http://www.w3.org/2000/svg" viewBox="0 0 48 48" width="50" height="50" fill="#666"><path d="M 39.988281 12 C 39.988281 12 40.988281 35 24.171875 44 C 7.011719 35 8.011719 12 8.011719 12 C 16.007813 12 24 4 24 4 C 24 4 30.996094 12 39.988281 12 Z" fill="#ffc107"/><path d="M 22 32.140625 C 22 31.871094 22.046875 31.628906 22.144531 31.394531 C 22.238281 31.167969 22.371094 30.96875 22.546875 30.804688 C 22.71875 30.636719 22.929688 30.503906 23.171875 30.410156 C 23.414063 30.320313 23.6875 30.269531 23.992188 30.269531 C 24.300781 30.269531 24.574219 30.320313 24.820313 30.410156 C 25.070313 30.503906 25.28125 30.636719 25.453125 30.804688 C 25.628906 30.96875 25.765625 31.167969 25.855469 31.394531 C 25.953125 31.628906 26 31.871094 26 32.140625 C 26 32.410156 25.953125 32.65625 25.855469 32.882813 C 25.761719 33.105469 25.628906 33.300781 25.453125 33.46875 C 25.28125 33.636719 25.070313 33.765625 24.820313 33.863281 C 24.574219 33.953125 24.300781 34 23.992188 34 C 23.6875 34 23.414063 33.953125 23.171875 33.859375 C 22.929688 33.765625 22.71875 33.636719 22.546875 33.46875 C 22.371094 33.300781 22.234375 33.105469 22.144531 32.882813 C 22.046875 32.65625 22 32.410156 22 32.140625 M 25.480469 28 L 22.507813 28 L 22.085938 16 L 25.898438 16 Z" fill="#5d4037"/></svg>