<svg xmlns="http://www.w3.org/2000/svg" viewBox="0 0 48 48" width="50" height="50" fill="#666"><g fill="#2196f3"><path d="M 27 40 C 27 41.65625 25.65625 43 24 43 C 22.34375 43 21 41.65625 21 40 C 21 38.34375 22.34375 37 24 37 C 25.65625 37 27 38.34375 27 40 Z"/><path d="M 2 18.898438 L 5.550781 22.449219 C 15.828125 12.539063 32.171875 12.539063 42.449219 22.449219 L 46 18.898438 C 33.761719 7.03125 14.238281 7.03125 2 18.898438 Z"/><path d="M 8.390625 25.289063 L 11.949219 28.851563 C 18.703125 22.46875 29.300781 22.46875 36.054688 28.851563 L 39.613281 25.289063 C 30.894531 16.949219 17.105469 16.949219 8.390625 25.289063 Z"/><path d="M 14.789063 31.691406 L 18.339844 35.242188 C 21.558594 32.375 26.441406 32.378906 29.664063 35.242188 L 33.210938 31.691406 C 28.023438 26.871094 19.972656 26.875 14.789063 31.691406 Z"/></g></svg>