<svg xmlns="http://www.w3.org/2000/svg" viewBox="0 0 48 48" width="50" height="50" fill="#666"><path d="M 42 12 C 42 16.417969 38.417969 20 34 20 C 29.582031 20 26 16.417969 26 12 C 26 7.582031 29.582031 4 34 4 C 38.417969 4 42 7.582031 42 12 Z" fill="#ffeb3b"/><path d="M 33 5 L 35 5 L 35 19 L 33 19 Z" fill="#fffde7"/><path d="M 27 11 L 41 11 L 41 13 L 27 13 Z" fill="#fffde7"/><path d="M 28.34375 7.757813 L 29.757813 6.34375 L 39.65625 16.242188 L 38.242188 17.65625 Z" fill="#fffde7"/><path d="M 29.757813 17.65625 L 28.34375 16.242188 L 38.242188 6.34375 L 39.65625 7.757813 Z" fill="#fffde7"/><path d="M 34 5.5 C 37.585938 5.5 40.5 8.414063 40.5 12 C 40.5 15.585938 37.585938 18.5 34 18.5 C 30.414063 18.5 27.5 15.585938 27.5 12 C 27.5 8.414063 30.414063 5.5 34 5.5 M 34 4 C 29.582031 4 26 7.582031 26 12 C 26 16.417969 29.582031 20 34 20 C 38.417969 20 42 16.417969 42 12 C 42 7.582031 38.417969 4 34 4 Z" fill="#ffc107"/><path d="M 29.851563 17 L 31.316406 17 L 35 12 L 27.5 12 C 27.5 14.007813 28.414063 15.808594 29.851563 17 Z" fill="#ffb300"/><path d="M 20 28.53125 L 22 28.53125 L 22 42 L 20 42 Z" fill="#90caf9"/><path d="M 29 43 C 29 43 22 42 22 39 C 22 36 20 36 20 39 C 20 42 13 43 13 43 C 12.445313 43 12 43.445313 12 44 L 30 44 C 30 43.445313 29.554688 43 29 43 Z" fill="#90caf9"/><path d="M 7 12 L 10.683594 17 L 27.761719 17 C 26.660156 15.628906 26 13.894531 26 12 Z" fill="#90caf9"/><path d="M 27.5 12 L 26 12 C 26 13.894531 26.660156 15.628906 27.761719 17 L 29.851563 17 C 28.414063 15.808594 27.5 14.007813 27.5 12 Z" fill="#fb8c00"/><path d="M 9.945313 16 L 19.566406 29.054688 C 19.566406 29.054688 20.890625 31.128906 22.460938 29.019531 C 24.03125 26.90625 32.054688 16 32.054688 16 Z" fill="#f50057"/></svg>