<svg xmlns="http://www.w3.org/2000/svg" viewBox="0 0 48 48" width="50" height="50" fill="#666"><path d="M 45 14.300781 C 44.800781 18.398438 42 23.898438 36.398438 30.898438 C 30.699219 38.300781 25.898438 41.898438 21.898438 41.898438 C 19.5 41.898438 17.398438 39.699219 15.699219 35.199219 C 14.601563 31.101563 13.398438 27 12.300781 22.898438 C 11 18.398438 9.699219 16.199219 8.300781 16.199219 C 8 16.199219 6.898438 16.699219 5 18 L 3 15.699219 C 5.101563 13.898438 7 12.601563 9 10.800781 C 11.800781 8.398438 13.800781 7.199219 15.199219 7.101563 C 18.5 6.800781 20.5 9 21.199219 13.699219 C 22 18.800781 22.699219 21.5 23 22.699219 C 23.898438 26.898438 25 29.101563 26.101563 29.101563 C 27 29.101563 28.300781 27.699219 30.101563 25 C 31.898438 22.199219 32.800781 20.199219 32.898438 18.699219 C 33.199219 16.300781 32.199219 15.101563 30.101563 15.101563 C 29.101563 15.101563 28 15.601563 26.898438 16 C 29 9.300781 33 5.800781 38.800781 6 C 43.199219 6.101563 45.199219 8.898438 45 14.300781 Z" fill="#29b6f6"/></svg>