<svg xmlns="http://www.w3.org/2000/svg" viewBox="0 0 48 48" width="50" height="50" fill="#666"><path d="M 33 17 L 43 17 L 24 42 Z" fill="#0d47a1"/><path d="M 5 17 L 15 5 L 15 17 Z" fill="#84ffff"/><path d="M 33 5 L 33 17 L 43 17 Z" fill="#1976d2"/><path d="M 15 17 L 23.996094 42.148438 L 33 17 Z" fill="#0091ea"/><path d="M 15 5 L 24 5 L 15 17 Z" fill="#0091ea"/><path d="M 24 5 L 33 17 L 33 5 Z" fill="#0091ea"/><path d="M 33 17 L 15 17 L 24 5 Z" fill="#00b0ff"/><path d="M 33 17 L 38 15 L 43 17 L 38 19 Z" fill="#00b0ff"/><path d="M 15 17 L 5 17 L 23.996094 42.148438 Z" fill="#00e5ff"/><path d="M 15 17 L 24 15 L 33 17 L 24 19 Z" fill="#00e5ff"/><path d="M 5 17 L 10 15 L 15 17 L 10 19 Z" fill="#e0f7fa"/></svg>