<svg xmlns="http://www.w3.org/2000/svg" viewBox="0 0 48 48" width="50" height="50" fill="#666"><path d="M 42 31 L 42 23 C 42 13.609375 34.390625 7 25 7 L 23 7 C 13.609375 7 6 13.609375 6 23 L 6 31 C 6 31 13 27 24 27 C 35 27 42 31 42 31 Z" fill="#388e3c"/><path d="M 12.820313 28.4375 C 15.761719 27.65625 19.546875 27 24 27 C 28.402344 27 32.152344 27.644531 35.082031 28.410156 C 35.167969 25.875 35.117188 11.933594 24 7 C 24 7 12.972656 10.335938 12.820313 28.4375 Z" fill="#1b5e20"/><path d="M 24 27 C 13.320313 27 6.429688 30.761719 6.039063 30.980469 C 6.664063 33.195313 8.152344 38.652344 9.347656 40.648438 C 10.332031 42.296875 11.289063 43 12.539063 43 C 13.390625 43 14.269531 42.667969 15.378906 42.242188 C 17.265625 41.523438 19.84375 40.539063 24 40.539063 C 28.152344 40.539063 30.695313 41.523438 32.546875 42.238281 C 33.648438 42.664063 34.515625 43 35.371094 43 C 36.617188 43 37.59375 42.304688 38.640625 40.671875 C 39.589844 39.183594 41.261719 33.363281 41.953125 30.972656 C 41.460938 30.699219 34.597656 27 24 27 Z" fill="#ffc107"/><path d="M 27 7 C 27 5.894531 25.65625 5 24 5 C 22.34375 5 21 5.894531 21 7 C 21 8.105469 22.34375 9 24 9 C 25.65625 9 27 8.105469 27 7 Z" fill="#ffc107"/><path d="M 22.632813 21.078125 C 22.882813 21.734375 23.40625 22.148438 24.3125 22.148438 C 25.019531 22.148438 25.414063 21.921875 25.828125 21.4375 C 26.15625 21.039063 26.484375 20.894531 26.894531 20.894531 C 27.507813 20.894531 28 21.277344 28 21.835938 C 28 22.0625 27.917969 22.261719 27.785156 22.460938 C 27.226563 23.332031 25.992188 24 24.3125 24 C 22.351563 24 20.90625 23.203125 20.3125 21.621094 C 20.082031 20.980469 20 20.480469 20 19 C 20 17.519531 20.082031 17.019531 20.3125 16.378906 C 20.90625 14.800781 22.355469 14 24.3125 14 C 25.992188 14 27.226563 14.667969 27.785156 15.539063 C 27.917969 15.738281 28 15.9375 28 16.164063 C 28 16.71875 27.507813 17.105469 26.894531 17.105469 C 26.484375 17.105469 26.15625 16.960938 25.828125 16.5625 C 25.414063 16.078125 25.019531 15.851563 24.3125 15.851563 C 23.40625 15.851563 22.878906 16.261719 22.632813 16.921875 C 22.503906 17.273438 22.453125 17.617188 22.453125 19 C 22.453125 20.382813 22.503906 20.726563 22.632813 21.078125 Z" fill="#ffc107"/><path d="M 37.230469 41.878906 C 36.742188 41.878906 35.992188 41.589844 35.128906 41.253906 C 33.238281 40.523438 28.53125 38.539063 24 38.539063 C 19.46875 38.539063 14.761719 40.519531 12.875 41.253906 C 12.007813 41.589844 11.257813 41.878906 10.773438 41.878906 C 10.605469 41.878906 10.304688 41.878906 9.785156 41.285156 C 10.679688 42.476563 11.554688 43 12.628906 43 C 13.484375 43 14.351563 42.664063 15.453125 42.238281 C 17.308594 41.523438 19.847656 40.539063 24 40.539063 C 28.148438 40.539063 30.691406 41.523438 32.546875 42.238281 C 33.648438 42.664063 34.515625 43 35.371094 43 C 36.445313 43 37.320313 42.476563 38.214844 41.285156 C 37.695313 41.878906 37.394531 41.878906 37.230469 41.878906 Z" fill="#ffa000"/></svg>