<svg xmlns="http://www.w3.org/2000/svg" viewBox="0 0 48 48" width="50" height="50" fill="#666"><path d="M 27 7 L 21 7 C 19.300781 7 18 8.300781 18 10 L 18 13 L 20 13 L 20 10 C 20 9.398438 20.398438 9 21 9 L 27 9 C 27.601563 9 28 9.398438 28 10 L 28 13 L 30 13 L 30 10 C 30 8.300781 28.699219 7 27 7 Z" fill="#424242"/><path d="M 40 43 L 8 43 C 5.800781 43 4 41.199219 4 39 L 4 15 C 4 12.800781 5.800781 11 8 11 L 40 11 C 42.199219 11 44 12.800781 44 15 L 44 39 C 44 41.199219 42.199219 43 40 43 Z" fill="#e65100"/><path d="M 40 28 L 8 28 C 5.800781 28 4 26.199219 4 24 L 4 15 C 4 12.800781 5.800781 11 8 11 L 40 11 C 42.199219 11 44 12.800781 44 15 L 44 24 C 44 26.199219 42.199219 28 40 28 Z" fill="#ff6e40"/><path d="M 26 26 L 22 26 C 21.398438 26 21 25.601563 21 25 L 21 23 C 21 22.398438 21.398438 22 22 22 L 26 22 C 26.601563 22 27 22.398438 27 23 L 27 25 C 27 25.601563 26.601563 26 26 26 Z" fill="#fff3e0"/></svg>