<svg xmlns="http://www.w3.org/2000/svg" viewBox="0 0 48 48" width="50" height="50" fill="#666"><path d="M 40 45 L 8 45 L 8 3 L 30 3 L 40 13 Z" fill="#f44336"/><path d="M 38.5 14 L 29 14 L 29 4.5 Z" fill="#ffebee"/><path d="M 19.550781 30.964844 L 16.808594 30.964844 L 16.277344 33 L 14.148438 33 L 17.261719 23.046875 L 19.101563 23.046875 L 22.230469 33 L 20.085938 33 Z M 17.246094 29.289063 L 19.105469 29.289063 L 18.175781 25.738281 Z" fill="#ffebee"/><path d="M 25.875 30.265625 L 27.550781 23.046875 L 29.789063 23.046875 L 26.921875 33 L 24.828125 33 L 21.976563 23.046875 L 24.207031 23.046875 Z" fill="#ffebee"/><path d="M 32.824219 33 L 30.816406 33 L 30.816406 23.046875 L 32.824219 23.046875 Z" fill="#ffebee"/></svg>