<svg xmlns="http://www.w3.org/2000/svg" viewBox="0 0 48 48" width="50" height="50" fill="#666"><path d="M 10.699219 32.699219 C 10.199219 32.699219 9.800781 32.398438 9.5 31.898438 C 9.300781 31.5 9.199219 30.898438 9.101563 30.199219 C 8.898438 28 9.101563 24.699219 9.800781 23.699219 C 10.101563 23.199219 10.601563 23 11 23 C 11.300781 23 11.601563 23.101563 18.101563 25.800781 C 18.101563 25.800781 20 26.601563 20 26.601563 C 20.699219 26.898438 21.101563 27.601563 21.101563 28.398438 C 21.101563 29.199219 20.601563 29.800781 19.898438 30 C 19.898438 30 17.199219 30.898438 17.199219 30.898438 C 11.199219 32.699219 11 32.699219 10.699219 32.699219 Z M 24 36.300781 C 24 42.601563 24 42.800781 23.898438 43.101563 C 23.699219 43.601563 23.300781 43.898438 22.800781 44 C 21.199219 44.300781 16.199219 42.398438 15.101563 41.199219 C 14.898438 40.898438 14.800781 40.699219 14.699219 40.398438 C 14.699219 40.199219 14.699219 40 14.800781 39.800781 C 14.898438 39.5 15.101563 39.199219 19.601563 33.898438 C 19.601563 33.898438 20.898438 32.300781 20.898438 32.300781 C 21.300781 31.699219 22.199219 31.601563 22.898438 31.800781 C 23.601563 32.101563 24.101563 32.699219 24 33.398438 C 24 33.5 24 36.300781 24 36.300781 Z M 22.800781 22.898438 C 22.5 23 21.5 23.300781 20.300781 21.300781 C 20.300781 21.300781 12.199219 8.398438 12 8 C 11.898438 7.601563 12 7 12.398438 6.601563 C 13.601563 5.300781 20.101563 3.5 21.800781 3.898438 C 22.398438 4 22.699219 4.398438 22.898438 4.898438 C 23 5.5 23.800781 17.398438 23.898438 20.101563 C 24.101563 22.5 23.101563 22.800781 22.800781 22.898438 Z M 27.199219 25.898438 C 26.800781 25.300781 26.800781 24.5 27.199219 24 C 27.199219 24 28.898438 21.699219 28.898438 21.699219 C 32.5 16.699219 32.699219 16.398438 33 16.300781 C 33.398438 16 33.898438 16 34.398438 16.199219 C 35.800781 16.898438 38.800781 21.300781 39 22.898438 C 39 22.898438 39 22.898438 39 23 C 39 23.601563 38.800781 24 38.398438 24.300781 C 38.101563 24.5 37.898438 24.601563 31 26.199219 C 29.898438 26.5 29.300781 26.601563 29 26.699219 C 29 26.699219 29 26.601563 29 26.601563 C 28.398438 26.898438 27.601563 26.5 27.199219 25.898438 Z M 38.898438 34.398438 C 38.699219 36 35.398438 40.199219 33.800781 40.800781 C 33.300781 41 32.800781 41 32.398438 40.601563 C 32.101563 40.398438 31.898438 40 28.300781 34.199219 L 27.199219 32.5 C 26.800781 31.898438 26.898438 31.101563 27.398438 30.398438 C 27.898438 29.800781 28.601563 29.601563 29.300781 29.800781 C 29.300781 29.800781 32 30.699219 32 30.699219 C 38 32.699219 38.199219 32.699219 38.398438 32.898438 C 38.800781 33.398438 39 33.898438 38.898438 34.398438 Z" fill="#dd2c00"/></svg>