<svg xmlns="http://www.w3.org/2000/svg" viewBox="0 0 48 48" width="50" height="50" fill="#666"><path d="M29.4,21L29.4,21c0,0-6.7-13.7-9.7-14.9c-1.9-0.7-3.5,6.2-0.8,10.4c2.2,3.6,9.1,5.8,9.1,5.8l0,0 c0.1,0,0.1,0.1,0.2,0.1c0.5,0.2,1.1-0.1,1.3-0.6C29.6,21.6,29.6,21.3,29.4,21z" fill="#42a5f5"/><path d="M29.5,31.9C29.5,31.9,29.5,31.9,29.5,31.9c0.1-0.2,0.2-0.4,0.2-0.6c0,0,0,0,0,0 c0.2-0.6,0.3-1.2,0.3-1.8c0-2.7-1.7-5-4-6c-3.6-2.2-6.4-0.2-8,2.5c-0.2,0.3-0.4,0.6-0.5,1C13.6,35.4,19.2,41.1,20,42 c1.4-5.1,6.9-4.3,9.3-9.8C29.4,32.1,29.5,32,29.5,31.9L29.5,31.9z" fill="#5d4037"/><path d="M35,14c-0.2,0-0.3,0-0.4-0.1c-0.5-0.2-0.7-0.8-0.4-1.3l1.2-2.4L40.8,9c0.5-0.1,1.1,0.2,1.2,0.8 c0.1,0.5-0.2,1.1-0.8,1.2l-4.5,0.9l-0.8,1.6C35.7,13.8,35.4,14,35,14z" fill="#5d4037"/><path d="M33,13c-0.4,0-0.8-0.3-0.9-0.7l-1.3-3.9l6.9-2.3c0.5-0.2,1.1,0.1,1.3,0.6c0.2,0.5-0.1,1.1-0.6,1.3 l-5.1,1.7l0.7,2.1c0.2,0.5-0.1,1.1-0.6,1.3C33.2,13,33.1,13,33,13z" fill="#5d4037"/><path d="M26.8,35.6c0.2-0.2,0.4-0.3,0.6-0.5c-2.1,0.5-4.3,0.5-6.3,0.2c-1.1-0.2-2.2-0.5-3.3-0.8 c-0.5-0.2-1.1-0.4-1.6-0.6c0.1,1.3,0.4,2.5,0.8,3.6c0.1,0,0.1,0,0.2,0c1.3,0.1,2.6,0,3.8-0.1C23,37,25,36.4,26.8,35.6z" fill="#ffc107"/><path d="M18.7,24.9c0.4,0.5,0.9,1,1.4,1.5c1.1,1.1,2.3,2,3.6,2.7c1.3,0.8,2.7,1.3,4.1,1.6 c0.7,0.1,1.4,0.2,2,0.3c0-0.2,0.1-0.3,0.1-0.5c-1.9-0.6-3.7-1.6-5.1-3c-0.9-0.9-1.7-1.9-2.4-3c-0.3-0.5-0.6-1.1-0.9-1.7 c0,0,0,0,0-0.1C20.4,23.1,19.5,23.9,18.7,24.9z" fill="#ffc107"/><path d="M22.8,31.3c-1.2-0.6-2.4-1.4-3.5-2.2c-0.7-0.5-1.4-1.1-2-1.7c-0.5,1.2-0.9,2.4-1,3.5 c0.5,0.3,1,0.5,1.5,0.7c1.4,0.6,2.9,1.1,4.3,1.5c2.1,0.5,4.4,0.7,6.5,0.4c0.1-0.2,0.2-0.3,0.3-0.5C26.8,32.9,24.7,32.2,22.8,31.3z" fill="#ffc107"/><path d="M32.8,25.8c-2.1,2.1-4.7,1.3-6.8-0.8c-2.1-2.1-2.8-4.7-0.8-6.8c2.1-2.1,4.7-1.3,6.8,0.8 C34.1,21.1,34.8,23.7,32.8,25.8z" fill="#795548"/><path d="M37.8,18.9c-0.9,2-4.8,1.1-7.4-0.1c-2-0.9-2.9-3.3-2-5.4c0.9-2.1,3.1-2.6,5.2-2.1 C36.1,12,38.7,16.8,37.8,18.9z" fill="#8d6e63"/><path d="M32.6,19.6c-0.8-0.2-1.5-0.5-2.2-0.8c-0.8-0.4-1.4-1-1.8-1.7c-0.7-0.1-2.2,0-2.9,0.9 c0.6,1.4,0.8,3.5,2.3,4.1c2.9,1.1,4.8,0.7,5.9,0C33.6,21.2,33.2,20.4,32.6,19.6z" fill="#4e342e"/><path d="M35.4,17.3c-0.5,0.7-2,0.5-3.5-0.6s-2.3-2.6-1.8-3.3c0.5-0.7,2-0.5,3.5,0.6 C35.1,15.1,35.9,16.6,35.4,17.3z" fill="#3e2723"/><path d="M28.6,20.2L28.6,20.2C28.6,20.2,12.2,6,9,6c-2,0-1,7,3,10c3.4,2.5,15.8,6,15.8,6l0,0 c0.1,0,0.2,0.1,0.2,0.1c0.6,0,1-0.4,1-1C29,20.7,28.8,20.4,28.6,20.2z" fill="#90caf9"/></svg>