<svg xmlns="http://www.w3.org/2000/svg" viewBox="0 0 48 48" width="50" height="50" fill="#666"><path d="M 40 45 L 8 45 L 8 3 L 30 3 L 40 13 Z" fill="#f44336"/><path d="M 38.5 14 L 29 14 L 29 4.5 Z" fill="#ffebee"/><path d="M 14.425781 23.046875 L 16.304688 30.246094 L 18.179688 23.046875 L 20.804688 23.046875 L 20.804688 33 L 18.785156 33 L 18.785156 30.308594 L 18.972656 26.15625 L 16.980469 33 L 15.613281 33 L 13.625 26.15625 L 13.808594 30.304688 L 13.808594 33 L 11.800781 33 L 11.800781 23.046875 Z" fill="#ffebee"/><path d="M 24.425781 29.5 L 24.425781 33 L 22.414063 33 L 22.414063 23.046875 L 25.808594 23.046875 C 26.789063 23.046875 27.578125 23.351563 28.160156 23.964844 C 28.746094 24.574219 29.039063 25.367188 29.039063 26.34375 C 29.039063 27.316406 28.75 28.085938 28.171875 28.652344 C 27.59375 29.21875 26.789063 29.5 25.765625 29.5 Z M 24.425781 27.824219 L 25.808594 27.824219 C 26.191406 27.824219 26.488281 27.699219 26.695313 27.449219 C 26.90625 27.199219 27.011719 26.835938 27.011719 26.355469 C 27.011719 25.859375 26.902344 25.464844 26.6875 25.167969 C 26.476563 24.875 26.1875 24.726563 25.828125 24.722656 L 24.425781 24.722656 Z" fill="#ffebee"/><path d="M 37.148438 31.871094 C 36.757813 32.289063 36.285156 32.605469 35.722656 32.820313 C 35.160156 33.03125 34.542969 33.136719 33.871094 33.136719 C 32.726563 33.136719 31.839844 32.78125 31.207031 32.074219 C 30.574219 31.363281 30.246094 30.335938 30.226563 28.980469 L 30.226563 27.1875 C 30.226563 25.816406 30.527344 24.761719 31.128906 24.019531 C 31.726563 23.28125 32.601563 22.910156 33.746094 22.910156 C 34.828125 22.910156 35.644531 23.175781 36.191406 23.710938 C 36.742188 24.242188 37.058594 25.078125 37.144531 26.21875 L 35.191406 26.21875 C 35.136719 25.585938 35.003906 25.152344 34.792969 24.921875 C 34.585938 24.695313 34.257813 24.578125 33.808594 24.578125 C 33.269531 24.578125 32.871094 24.777344 32.628906 25.171875 C 32.382813 25.570313 32.253906 26.199219 32.242188 27.066406 L 32.242188 28.871094 C 32.242188 29.777344 32.378906 30.4375 32.648438 30.851563 C 32.921875 31.261719 33.367188 31.46875 33.988281 31.46875 C 34.382813 31.46875 34.703125 31.390625 34.949219 31.230469 L 35.128906 31.105469 L 35.128906 29.28125 L 33.722656 29.28125 L 33.722656 27.765625 L 37.144531 27.765625 L 37.144531 31.871094 Z" fill="#ffebee"/></svg>