<svg xmlns="http://www.w3.org/2000/svg" viewBox="0 0 48 48" width="50" height="50" fill="#666"><path d="M 0 34 C 0 34 7.011719 9 24 9 C 41 9 48 31 48 31 L 31 39 Z" fill="#ffc107"/><path d="M 0 34 L 1.949219 34.3125 L 1.960938 34.28125 C 2.027344 34.046875 8.925781 11 24 11 C 39.085938 11 45.984375 31.113281 46.050781 31.316406 L 46.226563 31.835938 L 48 31 C 48 31 40.917969 9.003906 24.09375 9.003906 C 7.082031 9.003906 0 34 0 34 Z" fill="#ffa000"/><path d="M 23.707031 9.292969 L 22.292969 10.707031 C 27.742188 16.15625 31 29.371094 31 39 L 32.980469 38.066406 C 32.789063 28.253906 29.558594 15.144531 23.707031 9.292969 Z" fill="#ffa000"/><path d="M 46.113281 26.425781 L 30.871094 33.710938 L 1.71875 29.203125 C 0.550781 32.03125 0 34 0 34 L 31 39 L 48 31 C 48 31 47.4375 29.019531 46.113281 26.425781 Z" fill="#607d8b"/><path d="M 22.996094 37.710938 C 22.96875 32.316406 22.894531 21 16.953125 21 C 11.695313 21 9.265625 30.574219 8.375 35.351563 Z" fill="#37474f"/><path d="M 1.960938 34.28125 C 1.980469 34.214844 2.566406 32.261719 3.742188 29.515625 L 1.722656 29.203125 C 1.710938 29.226563 1.703125 29.25 1.691406 29.273438 C 0.96875 30.84375 0 34 0 34 L 1.949219 34.3125 Z" fill="#455a64"/><path d="M 44.324219 27.277344 C 45.46875 29.609375 46.03125 31.257813 46.050781 31.316406 L 46.226563 31.835938 L 48 31 C 48 31 47.394531 29.105469 46.113281 26.425781 Z" fill="#455a64"/><path d="M 32.632813 32.882813 L 30.871094 33.710938 L 30.699219 33.683594 C 30.894531 35.523438 31 37.316406 31 39 L 32.980469 38.066406 C 32.949219 36.410156 32.835938 34.671875 32.632813 32.882813 Z" fill="#455a64"/></svg>