<svg xmlns="http://www.w3.org/2000/svg" viewBox="0 0 48 48" width="50" height="50" fill="#666"><path d="M 21 10 C 21 13.3125 18.3125 16 15 16 C 11.6875 16 9 13.3125 9 10 C 9 6.6875 11.6875 4 15 4 C 18.3125 4 21 6.6875 21 10 Z" fill="#ffecb3"/><path d="M 28 8.5 C 28 11.539063 25.539063 14 22.5 14 C 19.460938 14 17 11.539063 17 8.5 C 17 5.460938 19.460938 3 22.5 3 C 25.539063 3 28 5.460938 28 8.5 Z" fill="#ffecb3"/><path d="M 33 9.5 C 33 11.433594 31.433594 13 29.5 13 C 27.566406 13 26 11.433594 26 9.5 C 26 7.566406 27.566406 6 29.5 6 C 31.433594 6 33 7.566406 33 9.5 Z" fill="#ffecb3"/><path d="M 30 13.5 C 30 15.433594 28.433594 17 26.5 17 C 24.566406 17 23 15.433594 23 13.5 C 23 11.566406 24.566406 10 26.5 10 C 28.433594 10 30 11.566406 30 13.5 Z" fill="#ffecb3"/><path d="M 11 10.5 C 11 11.878906 9.878906 13 8.5 13 C 7.121094 13 6 11.878906 6 10.5 C 6 9.121094 7.121094 8 8.5 8 C 9.878906 8 11 9.121094 11 10.5 Z" fill="#ffecb3"/><path d="M 35 10.5 C 35 11.878906 33.878906 13 32.5 13 C 31.121094 13 30 11.878906 30 10.5 C 30 9.121094 31.121094 8 32.5 8 C 33.878906 8 35 9.121094 35 10.5 Z" fill="#ffecb3"/><path d="M 32.511719 39 C 29.476563 39 27.011719 36.53125 27.011719 33.5 L 27.011719 22.5 C 27.011719 22.210938 27.007813 21.980469 27.003906 21.804688 C 26.992188 21.171875 26.984375 20.625 27.46875 20.132813 L 27.910156 19.683594 L 28.570313 19.671875 C 28.984375 19.671875 29.28125 19.828125 29.4375 19.914063 C 29.445313 19.921875 29.453125 19.921875 29.460938 19.925781 C 30.863281 19.09375 34.675781 17 37.511719 17 C 42.011719 17 42.011719 20.441406 42.011719 22.5 C 41.953125 23.5 41.488281 31.609375 40.972656 33.835938 C 40.222656 37.070313 38.183594 39 35.511719 39 Z M 30.011719 23 L 30.011719 33.5 C 30.011719 34.878906 31.132813 36 32.511719 36 L 35.507813 36 C 37.148438 36 37.804688 34.222656 38.050781 33.160156 C 38.4375 31.484375 38.875 24.835938 39.011719 22.414063 C 39.011719 20 38.894531 20 37.511719 20 C 35.414063 20 31.699219 22.050781 30.5625 22.769531 L 30.191406 23 Z" fill="#bbdefb"/><path d="M 8 40 L 8 42 C 8 43.105469 8.894531 44 10 44 L 31 44 C 32.105469 44 33 43.105469 33 42 L 33 40 Z" fill="#bbdefb"/><path d="M 8 12 L 33 12 L 33 40 L 8 40 Z" fill="#ffb300"/><path d="M 8 12 L 33 12 L 33 20 L 8 20 Z" fill="#ffd54f"/><path d="M 26 27.5 C 26 28.328125 25.328125 29 24.5 29 C 23.671875 29 23 28.328125 23 27.5 C 23 26.671875 23.671875 26 24.5 26 C 25.328125 26 26 26.671875 26 27.5 Z" fill="#ffecb3"/><path d="M 28 33.5 C 28 34.328125 27.328125 35 26.5 35 C 25.671875 35 25 34.328125 25 33.5 C 25 32.671875 25.671875 32 26.5 32 C 27.328125 32 28 32.671875 28 33.5 Z" fill="#ffe082"/><path d="M 30 25 C 30 25.550781 29.550781 26 29 26 C 28.449219 26 28 25.550781 28 25 C 28 24.449219 28.449219 24 29 24 C 29.550781 24 30 24.449219 30 25 Z" fill="#fff8e1"/><path d="M 14.394531 19.542969 C 14.953125 16.648438 14.953125 13.496094 12.332031 12 C 14 10 19 10 20.6875 12 C 17.78125 13.660156 18.097656 17.363281 18.824219 20.488281 C 19.410156 22.117188 19.773438 23.582031 19.917969 24.515625 C 19.921875 24.527344 19.921875 24.539063 19.925781 24.550781 C 19.964844 24.820313 19.992188 25.0625 19.992188 25.226563 C 19.992188 27.148438 18.433594 28.707031 16.511719 28.707031 C 14.589844 28.707031 13.03125 27.148438 13.03125 25.226563 C 13.03125 25.078125 13.054688 24.867188 13.089844 24.628906 C 13.226563 23.5 13.722656 21.800781 14.394531 19.542969 Z" fill="#fffdf0"/><path d="M 21.898438 12 C 21.4375 9.71875 19.417969 8 17 8 C 14.582031 8 12.5625 9.71875 12.101563 12 Z" fill="#fffdf0"/><path d="M 25.949219 12 C 25.980469 11.839844 26 11.671875 26 11.5 C 26 10.117188 24.882813 9 23.5 9 C 22.117188 9 21 10.117188 21 11.5 C 21 11.671875 21.019531 11.839844 21.050781 12 Z" fill="#fffdf0"/></svg>