<svg xmlns="http://www.w3.org/2000/svg" viewBox="0 0 48 48" width="50" height="50" fill="#666"><path d="M 44 24 C 44 35.046875 35.046875 44 24 44 C 12.953125 44 4 35.046875 4 24 C 4 12.953125 12.953125 4 24 4 C 35.046875 4 44 12.953125 44 24 Z" fill="#455a64"/><path d="M 32.398438 22 L 15.601563 22 C 14.699219 22 14 22.699219 14 23.601563 L 14 32.398438 C 14 33.300781 14.699219 34 15.601563 34 L 32.398438 34 C 33.300781 34 34 33.300781 34 32.398438 L 34 23.601563 C 34 22.699219 33.300781 22 32.398438 22 Z M 17 32 C 17 32.5 16.5 33 16 33 C 15.5 33 15 32.5 15 32 L 15 24 C 15 23.5 15.5 23 16 23 C 16.5 23 17 23.5 17 24 Z M 25 27.699219 L 25 32 L 23 32 L 23 27.699219 C 22.398438 27.398438 22 26.699219 22 26 C 22 24.898438 22.898438 24 24 24 C 25.101563 24 26 24.898438 26 26 C 26 26.699219 25.601563 27.398438 25 27.699219 Z M 30 20 L 28 20 L 28 17 C 28 14.800781 26.199219 13 24 13 C 21.800781 13 20 14.800781 20 17 L 20 20 L 18 20 L 18 17 C 18 13.699219 20.699219 11 24 11 C 27.300781 11 30 13.699219 30 17 Z" fill="#fff"/></svg>