<svg xmlns="http://www.w3.org/2000/svg" viewBox="0 0 48 48" width="50" height="50" fill="#666"><path d="M 24 37 L 19 31 L 19 25 L 29 25 L 29 31 Z" fill="#ff9800"/><path d="M 35 19 C 35 20.105469 34.105469 21 33 21 C 31.894531 21 31 20.105469 31 19 C 31 17.894531 31.894531 17 33 17 C 34.105469 17 35 17.894531 35 19 Z" fill="#ffa726"/><path d="M 17 19 C 17 20.105469 16.105469 21 15 21 C 13.894531 21 13 20.105469 13 19 C 13 17.894531 13.894531 17 15 17 C 16.105469 17 17 17.894531 17 19 Z" fill="#ffa726"/><path d="M 33 13 C 33 5.398438 15 8 15 13 C 15 14.101563 15 18.898438 15 20 C 15 25 19 29 24 29 C 29 29 33 25 33 20 C 33 18.898438 33 14.101563 33 13 Z" fill="#ffb74d"/><path d="M 24 4 C 17.898438 4 14 8.898438 14 15 C 14 15.800781 14 17.300781 14 17.300781 L 16 19 L 16 14 L 28 10 L 32 14 L 32 19 L 34 17.300781 C 34 17.300781 34 15.800781 34 15 C 34 11 33 7 28 6 L 27 4 Z" fill="#ff5722"/><path d="M 29 19 C 29 19.550781 28.550781 20 28 20 C 27.449219 20 27 19.550781 27 19 C 27 18.449219 27.449219 18 28 18 C 28.550781 18 29 18.449219 29 19 Z" fill="#784719"/><path d="M 21 19 C 21 19.550781 20.550781 20 20 20 C 19.449219 20 19 19.550781 19 19 C 19 18.449219 19.449219 18 20 18 C 20.550781 18 21 18.449219 21 19 Z" fill="#784719"/><path d="M 29 31 L 24 32 L 19 31 C 19 31 8 33 8 44 L 40 44 C 40 33 29 31 29 31 Z" fill="#cfd8dc"/><path d="M 23 35 L 22 44 L 26 44 L 25 35 L 26 34 L 24 32 L 22 34 Z" fill="#3f51b5"/></svg>