<svg xmlns="http://www.w3.org/2000/svg" viewBox="0 0 48 48" width="50" height="50" fill="#666"><path d="M33.2,16.1c0.1-0.4,0.1-0.8,0.1-1.1s0-0.8-0.1-1.1l2.3-1.7c0.2-0.2,0.3-0.5,0.2-0.7l-2.3-3.9 c-0.1-0.2-0.4-0.3-0.7-0.2l-2.6,1.2c-0.6-0.5-1.3-0.9-2-1.2l-0.3-2.9c0-0.3-0.3-0.5-0.5-0.5h-4.6c-0.2,0-0.5,0.2-0.5,0.5l-0.3,2.9 c-0.7,0.2-1.4,0.6-2,1.1l-2.6-1.2c-0.3-0.1-0.6,0-0.7,0.2l-2.3,4c-0.1,0.2,0,0.5,0.2,0.7l2.3,1.7c-0.1,0.4-0.1,0.8-0.1,1.1 s0,0.8,0.1,1.1l-2.3,1.7c-0.2,0.2-0.3,0.5-0.2,0.7l2.3,3.9c0.1,0.2,0.4,0.3,0.7,0.2l2.6-1.2c0.6,0.5,1.3,0.9,2,1.2l0.3,2.9 c0,0.3,0.3,0.5,0.5,0.5h4.5c0.3,0,0.5-0.2,0.5-0.5l0.3-2.9c0.7-0.3,1.4-0.7,2-1.2l2.6,1.2c0.3,0.1,0.6,0,0.7-0.2l2.3-3.9 c0.1-0.2,0.1-0.6-0.2-0.7L33.2,16.1z M25,20.2c-2.9,0-5.2-2.3-5.2-5.2s2.3-5.2,5.2-5.2s5.2,2.3,5.2,5.2S27.9,20.2,25,20.2" fill="#546e7a"/><path d="M25,9c-3.3,0-6,2.7-6,6s2.7,6,6,6s6-2.7,6-6S28.3,9,25,9 M25,18c-1.7,0-3-1.3-3-3s1.3-3,3-3 c1.7,0,3,1.3,3,3S26.7,18,25,18" fill="#455a64"/><path d="M39.54,32.5c-0.412-0.953-1.348-1.511-2.322-1.499c-0.325,0.004-0.653,0.072-0.968,0.209l-1.14,0.5 c-0.02-0.07-0.04-0.13-0.06-0.2c-0.412-0.953-1.342-1.517-2.318-1.512C32.408,30,32.078,30.065,31.76,30.2l-3.34,1.44l-7.93,3.42 l-5.55-1.79c-0.18,0.076-3.243,1.24-5.246,2.03l16.792,7.064L39,37l-0.75-1.21C39.52,35.24,40.09,33.76,39.54,32.5z" fill="#e89531"/><path d="M43.79,33.5c-0.41-0.95-1.35-1.51-2.32-1.5c-0.33,0-0.66,0.07-0.97,0.21l-8.51,3.72 c0.04,0.63-0.07,1.26-0.31,1.86c-0.17,0.43-0.4,0.82-0.68,1.17c-0.84,1.04-2.11,1.67-3.5,1.67c-0.09,0-0.19,0-0.28-0.01 c-0.47-0.03-0.94-0.13-1.38-0.31l-0.2-0.08c-0.291-0.116-5.427-2.143-9.022-3.562c-0.492-0.214-0.734-0.776-0.536-1.278 c0.203-0.514,0.784-0.767,1.297-0.564l1.784,0.702c0.016,0.005,0.029,0.003,0.045,0.009c2.746,1.076,6.089,2.403,7.074,2.794 l0.094,0.037c0,0,0.001,0.001,0.001,0.001c0.122,0.048,0.191,0.076,0.198,0.079c0.303,0.121,0.616,0.178,0.923,0.178 c0.994,0,1.934-0.597,2.324-1.577c0.511-1.283-0.116-2.736-1.399-3.247c-0.322-0.128-7.912-3.147-10.541-4.141 C17.076,29.356,15.705,29,14.5,29c-3.523,0-8.342,1.836-10.5,2.75L7.375,40l3.77-1.55l13.425,5.37c0.3,0.12,0.62,0.18,0.93,0.18 c0.34,0,0.68-0.07,1-0.21l16-7C43.77,36.24,44.34,34.76,43.79,33.5z" fill="#ffb74d"/></svg>