<svg xmlns="http://www.w3.org/2000/svg" viewBox="0 0 48 48" width="50" height="50" fill="#666"><path d="M5,26.9c0,0-0.3,3.8,3.6,4.9c3.9,1.1,3.3-7.7,3.3-7.7L5,26.9z" fill="#3f51b5"/><path d="M32.9,24.9l-1.8-3.6l4.9-2.5V11h4v9.1c0,0.8-0.4,1.4-1.1,1.8L32.9,24.9z" fill="#607d8b"/><path d="M31,8v1c0,1.1,0.9,2,2,2h10c1.1,0,2-0.9,2-2V8H31z" fill="#455a64"/><path d="M35.8,29.6l-20.1,9.3L9.6,25.4l20.1-9.3L35.8,29.6z" fill="#c5cae9"/><path d="M37,20.9c1.7,3.7,1.1,7.6-1.3,8.7c-2.4,1.1-5.6-1.1-7.3-4.8s-1.1-7.6,1.3-8.7 C32.1,15,35.3,17.2,37,20.9z" fill="#c5cae9"/><path d="M17,30.3c1.7,3.7,1.3,7.5-0.9,8.5s-5.3-1.3-6.9-5c-1.7-3.7-1.3-7.5,0.9-8.5 C12.2,24.3,15.3,26.5,17,30.3z" fill="#42257a"/><path d="M15.1,31.2c-1.1-2.4-2.8-3.9-3.9-3.5c-1.1,0.5-1.1,2.8,0,5.2c1.1,2.4,2.8,3.9,3.9,3.5 C16.1,35.9,16.1,33.6,15.1,31.2z" fill="#b388ff"/><path d="M13.8,32.7c-0.4,0-0.7-0.2-0.9-0.6c-0.3-0.7-0.6-1.1-0.8-1.3c-0.4,0-0.7-0.2-0.9-0.6 c-0.2-0.5,0-1.1,0.5-1.3c1-0.4,2.1,0.4,3,2.4c0.2,0.5,0,1.1-0.5,1.3C14.1,32.7,14,32.7,13.8,32.7z" fill="#ceb8ff"/><path d="M29.7,16.1C29.7,16.1,29.7,16.1,29.7,16.1L29.7,16.1L5,26.8c0,0,5.2-1.4,12.2,3.7 c6.2-2.7,20-9.2,20-9.2c-0.1-0.1-0.1-0.3-0.2-0.4C35.3,17.2,32.1,15,29.7,16.1z" fill="#7986cb"/></svg>