<svg xmlns="http://www.w3.org/2000/svg" viewBox="0 0 48 48" width="50" height="50" fill="#666"><path d="M 32.398438 28.101563 L 19.199219 35.898438 L 22.300781 39.898438 L 35 32.300781 C 36.101563 31.601563 36.5 30.101563 35.800781 29 C 35.101563 27.800781 33.601563 27.398438 32.398438 28.101563 Z" fill="#e39d36"/><path d="M 36 28.5 L 22.800781 36.300781 L 25.898438 40.300781 L 38.5 32.699219 C 39.601563 32 40 30.5 39.300781 29.398438 C 38.601563 28.300781 37.101563 27.898438 36 28.5 Z" fill="#eda740"/><path d="M 38.898438 29.398438 L 26.5 36.699219 L 20.601563 33.300781 L 23.5 34.898438 C 24.800781 35.601563 26.398438 35.398438 27.398438 34.300781 C 28.699219 32.800781 28.300781 30.5 26.601563 29.601563 L 14.199219 22.800781 C 13.101563 22.199219 11.699219 22.199219 10.5 22.800781 L 5 26.101563 C 5 26.101563 5 26.101563 5 26.199219 L 5 36.898438 L 9 34.398438 L 24.101563 42.601563 C 25.300781 43.199219 26.699219 43.199219 27.898438 42.5 L 41.699219 34.199219 C 43 33.398438 43.398438 31.800781 42.601563 30.5 C 41.898438 29.101563 40.199219 28.699219 38.898438 29.398438 Z" fill="#ffb74d"/><path d="M 26.5 36.800781 L 25.199219 35.898438 L 14.5 29.898438 L 22.5 36.5 C 23.699219 37.398438 25.199219 37.5 26.5 36.800781 Z" fill="#eda740"/><path d="M 24.398438 34.199219 C 23.5 33.699219 23.800781 32.898438 24.300781 32 C 24.800781 31.101563 25.199219 30.398438 26.101563 30.898438 C 27 31.398438 27.398438 32.5 26.898438 33.398438 C 26.5 34.300781 25.398438 34.601563 24.398438 34.199219 Z" fill="#ffcc80"/><path d="M 36.5 15.101563 C 37.398438 14 38 12.601563 38 11.101563 C 38 7.800781 35.199219 5 31.699219 5 C 29.199219 5 27 6.398438 26 8.601563 C 25 6.398438 22.800781 5 20.300781 5 C 16.800781 5 14 7.800781 14 11.199219 C 14 12.800781 14.601563 14.199219 15.601563 15.300781 C 20.898438 21.398438 26 25 26 25 C 26 25 31.300781 21.5 36.5 15.101563 Z" fill="#ff3d00"/></svg>