<svg xmlns="http://www.w3.org/2000/svg" viewBox="0 0 48 48" width="50" height="50" fill="#666"><path d="M 42.5 12 L 38.898438 8.5 C 37.300781 7.601563 35.5 7 33.5 7 C 29.300781 7 25.699219 9.5 24 13 C 22.300781 9.398438 18.699219 7 14.5 7 C 8.699219 7 4 11.699219 4 17.5 C 4 20.5 5.199219 23.101563 7.199219 25 L 24 42 L 41.101563 24.699219 C 42.898438 22.898438 44 20.300781 44 17.5 C 44 15.5 43.398438 13.601563 42.5 12 Z" fill="#ff3d00"/><path d="M 38.898438 8.5 L 24 23.5 L 16.800781 16.300781 C 15.800781 15.300781 14.199219 15.300781 13.300781 16.300781 C 12.300781 17.300781 12.300781 18.898438 13.300781 19.800781 L 24 30.5 L 42.5 12 C 41.601563 10.601563 40.398438 9.398438 38.898438 8.5 Z" fill="#fff"/></svg>