<svg xmlns="http://www.w3.org/2000/svg" viewBox="0 0 48 48" width="50" height="50" fill="#666"><path d="M 8 3 L 40 3 L 40 45 L 8 45 Z" fill="#90caf9"/><path d="M 22 21 L 26 21 L 26 23 L 22 23 Z" fill="#1976d2"/><path d="M 22 15 L 26 15 L 26 17 L 22 17 Z" fill="#1976d2"/><path d="M 22 18 L 26 18 L 26 20 L 22 20 Z" fill="#1976d2"/><path d="M 22 24 L 26 24 L 26 26 L 22 26 Z" fill="#1976d2"/><path d="M 22 9 L 26 9 L 26 11 L 22 11 Z" fill="#1976d2"/><path d="M 22 3 L 26 3 L 26 5 L 22 5 Z" fill="#1976d2"/><path d="M 22 6 L 26 6 L 26 8 L 22 8 Z" fill="#1976d2"/><path d="M 22 12 L 26 12 L 26 14 L 22 14 Z" fill="#1976d2"/><path d="M 26 27 L 22 27 C 22 30 20 33 20 35 C 20 37.210938 21.789063 39 24 39 C 26.210938 39 28 37.210938 28 35 C 28 33 26 30 26 27 Z M 24 37 C 22.894531 37 22 36.105469 22 35 C 22 33.894531 22.894531 33 24 33 C 25.105469 33 26 33.894531 26 35 C 26 36.105469 25.105469 37 24 37 Z" fill="#3f51b5"/></svg>