<svg xmlns="http://www.w3.org/2000/svg" viewBox="0 0 48 48" width="50" height="50" fill="#666"><path d="M 40 17 L 8 17.003906 L 8 43 C 8 44.65625 9.34375 46 11 46 L 37 46 C 38.65625 46 40 44.65625 40 43 L 40 17" fill="#cfd8dc"/><path d="M 11.8125 17 L 11.8125 17.011719 C 13.183594 17.066406 14.378906 17.707031 15.097656 19.035156 C 15.976563 20.652344 16.070313 22.765625 17.785156 23.753906 C 20.179688 25.132813 21.359375 23.3125 23.378906 22.625 C 25.730469 21.824219 27.183594 23.957031 27.867188 25.761719 C 28.527344 27.507813 28.824219 29.609375 29 31.625 C 29.171875 33.589844 29.527344 36.464844 30.628906 38.097656 C 31.824219 39.867188 34.335938 40.402344 35.5 38.382813 C 36.578125 36.511719 35.75 21.417969 40 17 C 36.417969 17 11.8125 17 11.8125 17 Z" fill="#e91e63"/><path d="M 42 18.832031 C 42 9.550781 33.925781 2 24 2 C 14.074219 2 6 9.550781 6 18.832031 C 6 18.859375 6 26 6 26 L 8 26 C 8 26 8 18.859375 8 18.832031 C 8 10.652344 15.179688 4 24 4 C 32.820313 4 40 10.652344 40 18.832031 C 40 18.859375 40 26 40 26 L 42 26 C 42 26 42 18.859375 42 18.832031 Z" fill="#546e7a"/></svg>