<svg xmlns="http://www.w3.org/2000/svg" viewBox="0 0 48 48" width="50" height="50" fill="#666"><path d="M 11.144531 15 L 13 28 L 35 28 L 36.855469 15 Z" fill="#ffc107"/><path d="M 39 15 L 39 12.5 C 39 11.671875 38.328125 11 37.5 11 L 10.5 11 C 9.671875 11 9 11.671875 9 12.5 L 9 15 Z" fill="#795548"/><path d="M 13.144531 29 L 15 42 L 33 42 L 34.855469 29 Z" fill="#77574f"/><path d="M 29 28 C 29 30.761719 26.761719 33 24 33 C 21.238281 33 19 30.761719 19 28 C 19 25.238281 21.238281 23 24 23 C 26.761719 23 29 25.238281 29 28 Z" fill="#77574f"/><path d="M 20 28 C 20 27.269531 20.210938 26.589844 20.554688 26 L 12.714844 26 L 13.429688 31 L 21.378906 31 C 20.539063 30.265625 20 29.199219 20 28 Z" fill="#4e342e"/><path d="M 27.445313 26 C 27.789063 26.589844 28 27.269531 28 28 C 28 29.199219 27.460938 30.265625 26.621094 31 L 34.570313 31 L 35.285156 26 Z" fill="#4e342e"/><path d="M 36 6 L 12 6 L 11 11 L 37 11 Z" fill="#4e342e"/><path d="M 24 21 C 27.867188 21 31 24.132813 31 28 C 31 31.867188 27.867188 35 24 35 C 20.132813 35 17 31.867188 17 28 C 17 24.132813 20.132813 21 24 21 M 24 20 C 19.589844 20 16 23.589844 16 28 C 16 32.410156 19.589844 36 24 36 C 28.410156 36 32 32.410156 32 28 C 32 23.589844 28.410156 20 24 20 Z" fill="#5d4037"/><path d="M 24 21 C 20.132813 21 17 24.132813 17 28 C 17 31.867188 20.132813 35 24 35 C 27.867188 35 31 31.867188 31 28 C 31 24.132813 27.867188 21 24 21 Z M 24 32 C 21.789063 32 20 30.210938 20 28 C 20 25.789063 21.789063 24 24 24 C 26.210938 24 28 25.789063 28 28 C 28 30.210938 26.210938 32 24 32 Z" fill="#fff3e0"/></svg>