<svg xmlns="http://www.w3.org/2000/svg" viewBox="0 0 48 48" width="50" height="50" fill="#666"><path d="M 36.664063 36.503906 L 31 33 L 31 29.554688 L 34.257813 30.859375 C 34.496094 30.953125 34.75 31 35 31 C 35.53125 31 36.054688 30.785156 36.441406 30.386719 C 37.003906 29.800781 37.15625 28.933594 36.828125 28.1875 L 32.828125 19.1875 C 32.675781 18.84375 32.425781 18.546875 32.109375 18.335938 C 31.96875 18.238281 28.554688 16 24 16 C 19.445313 16 16.03125 18.238281 15.890625 18.335938 C 15.574219 18.546875 15.328125 18.84375 15.171875 19.1875 L 11.171875 28.1875 C 10.84375 28.933594 10.996094 29.800781 11.558594 30.386719 C 12.125 30.972656 12.988281 31.15625 13.742188 30.859375 L 17 29.554688 L 17 33 L 11.335938 36.503906 C 10.234375 37.238281 9.746094 38.605469 10.128906 39.867188 C 10.511719 41.136719 11.679688 42 13 42 L 35 42 C 36.320313 42 37.488281 41.136719 37.871094 39.867188 C 38.253906 38.605469 37.765625 37.238281 36.664063 36.503906 Z" fill="#ff754c"/><path d="M 21.5 37 L 31 37 C 31 37 24.144531 35 21.5 35 C 18.855469 35 17 37.019531 17 39.5 C 17 40.425781 17.28125 41.285156 17.761719 42 L 21.5 42 C 20.125 42 19 40.875 19 39.5 C 19 38.125 20.125 37 21.5 37 Z" fill="#e64a19"/><path d="M 31 33 L 31 29.554688 L 24.257813 26.859375 C 24.167969 26.820313 24.082031 26.78125 24 26.734375 C 23.917969 26.78125 23.832031 26.820313 23.742188 26.859375 L 17 29.554688 L 17 33 L 24 28.90625 Z" fill="#e64a19"/><path d="M 25.742188 23.144531 L 31 25 L 29.835938 22.378906 L 26.480469 21.28125 C 26.003906 21.09375 25.507813 21 25 21 C 24.660156 21 24.324219 21.042969 24 21.125 C 23.675781 21.042969 23.339844 21 23 21 C 22.492188 21 21.992188 21.097656 21.515625 21.285156 L 18.164063 22.378906 L 17 25 L 22.257813 23.144531 C 22.394531 23.089844 22.535156 23.054688 22.675781 23.03125 C 22.71875 23.023438 22.761719 23.023438 22.804688 23.019531 C 22.867188 23.011719 22.933594 23 23 23 C 23.023438 23 23.046875 23.007813 23.070313 23.007813 C 23.183594 23.011719 23.289063 23.03125 23.398438 23.054688 C 23.449219 23.0625 23.503906 23.066406 23.550781 23.082031 C 23.707031 23.128906 23.859375 23.1875 24 23.269531 C 24.300781 23.09375 24.648438 23 25 23 C 25.246094 23 25.5 23.046875 25.742188 23.144531 Z" fill="#e64a19"/><path d="M 24 7 C 26.210938 7 28 8.789063 28 11 C 28 13.210938 26.210938 15 24 15 C 21.789063 15 20 13.210938 20 11 C 20 8.789063 21.789063 7 24 7 M 29 37 L 21.5 37 C 20.125 37 19 38.125 19 39.5 C 19 40.875 20.125 42 21.5 42 L 29 42 Z M 25.742188 23.144531 C 25.5 23.046875 25.246094 23 25 23 C 24.648438 23 24.300781 23.09375 24 23.269531 C 23.859375 23.1875 23.707031 23.128906 23.550781 23.082031 C 23.503906 23.066406 23.449219 23.0625 23.402344 23.054688 C 23.292969 23.03125 23.183594 23.011719 23.070313 23.007813 C 23.046875 23.007813 23.023438 23 23 23 C 22.933594 23 22.867188 23.011719 22.804688 23.019531 C 22.761719 23.023438 22.71875 23.023438 22.675781 23.03125 C 22.535156 23.054688 22.394531 23.089844 22.257813 23.144531 L 17 25 L 17 29.554688 L 23.742188 26.859375 C 23.832031 26.820313 23.917969 26.78125 24 26.734375 C 24.082031 26.78125 24.167969 26.820313 24.257813 26.859375 L 31 29.554688 L 31 25 Z" fill="#ffb74d"/></svg>