<svg xmlns="http://www.w3.org/2000/svg" viewBox="0 0 48 48" width="50" height="50" fill="#666"><path d="M31,38H6V5h25v8V38z" fill="#42a5f5"/><path d="M11,18h16v2H11V18z" fill="#1565c0"/><path d="M11,22h12v2H11V22z" fill="#1565c0"/><path d="M11,26h16v2H11V26z" fill="#1565c0"/><path d="M11,30h12v2H11V30z" fill="#1565c0"/><path d="M11,14h12v2H11V14z" fill="#1565c0"/><path d="M42,43H17V10h25V43z" fill="#90caf9"/><path d="M22,23h15v2H22V23z" fill="#1976d2"/><path d="M22,27h11v2H22V27z" fill="#1976d2"/><path d="M22,31h15v2H22V31z" fill="#1976d2"/><path d="M22,35h11v2H22V35z" fill="#1976d2"/><path d="M22,19h13v2H22V19z" fill="#1976d2"/></svg>