<svg xmlns="http://www.w3.org/2000/svg" viewBox="0 0 48 48" width="50" height="50" fill="#666"><linearGradient id="a" gradientUnits="userSpaceOnUse" x1="24" y1="658" x2="24" y2="618.146" gradientTransform="matrix(1 0 0 -1 0 662)"><stop offset="0" stop-color="#42bce8"/><stop offset="1" stop-color="#23a7dc"/></linearGradient><circle cx="24" cy="24" r="20" fill="url(#a)"/><path d="M34.176,14.811l-3.817,19.492c0,0-0.534,1.352-2.002,0.703l-8.809-6.84l-3.203-1.568l-5.392-1.838	c0,0-0.828-0.297-0.908-0.946c-0.08-0.649,0.934-1,0.934-1l21.436-8.516C32.414,14.297,34.176,13.513,34.176,14.811z" fill="#fff"/><path d="M18.87,34.083c0,0-0.257-0.024-0.578-1.052c-0.32-1.027-1.949-6.434-1.949-6.434L29.29,18.27	c0,0,0.747-0.46,0.721,0c0,0,0.133,0.081-0.267,0.46s-10.171,9.273-10.171,9.273" fill="#d2e5f1"/><path d="M22.925,30.788l-3.484,3.217c0,0-0.272,0.209-0.57,0.078l0.667-5.976" fill="#b5cfe4"/></svg>