<svg xmlns="http://www.w3.org/2000/svg" viewBox="0 0 48 48" width="50" height="50" fill="#666"><path d="M 7 7 L 7 41 L 41 41 L 41 7 Z M 39 15 L 33 15 L 33 9 L 39 9 Z M 25 15 L 25 9 L 31 9 L 31 15 Z M 31 17 L 31 23 L 25 23 L 25 17 Z M 23 15 L 17 15 L 17 9 L 23 9 Z M 23 17 L 23 23 L 17 23 L 17 17 Z M 15 23 L 9 23 L 9 17 L 15 17 Z M 15 25 L 15 31 L 9 31 L 9 25 Z M 17 25 L 23 25 L 23 31 L 17 31 Z M 23 33 L 23 39 L 17 39 L 17 33 Z M 25 33 L 31 33 L 31 39 L 25 39 Z M 25 31 L 25 25 L 31 25 L 31 31 Z M 33 25 L 39 25 L 39 31 L 33 31 Z M 33 23 L 33 17 L 39 17 L 39 23 Z M 15 9 L 15 15 L 9 15 L 9 9 Z M 9 33 L 15 33 L 15 39 L 9 39 Z M 33 39 L 33 33 L 39 33 L 39 39 Z" fill="#90caf9"/></svg>