<svg xmlns="http://www.w3.org/2000/svg" viewBox="0 0 48 48" width="50" height="50" fill="#666"><path d="M 42 37 C 42 39.761719 39.761719 42 37 42 L 11 42 C 8.238281 42 6 39.761719 6 37 L 6 11 C 6 8.238281 8.238281 6 11 6 L 37 6 C 39.761719 6 42 8.238281 42 11 Z" fill="#ff4081"/><path d="M 33.0625 26.273438 C 32.359375 26.050781 31.597656 26.449219 31.375 27.167969 C 30.550781 29.824219 29.058594 32.585938 28.382813 32.738281 C 27.875 32.738281 27.144531 32.308594 26.425781 31.296875 C 28.097656 27.703125 28.976563 23.191406 28.976563 20.179688 C 28.976563 11.765625 26.851563 10 25.066406 10 C 21.308594 10 21.265625 19.910156 21.265625 20.011719 C 21.265625 21.179688 21.308594 22.261719 21.386719 23.269531 C 20.871094 23.078125 20.273438 22.949219 19.617188 22.949219 C 15.757813 22.949219 14 26.757813 14 30.296875 C 14 33.628906 15.871094 37 20.046875 37 C 22.019531 37 23.679688 35.710938 25.019531 33.777344 C 26.210938 35.015625 27.453125 35.476563 28.382813 35.476563 C 31.304688 35.476563 33.238281 30.242188 33.9375 27.988281 C 34.160156 27.269531 33.765625 26.503906 33.0625 26.273438 Z M 20.046875 34.265625 C 17.015625 34.265625 16.6875 31.488281 16.6875 30.296875 C 16.6875 30.105469 16.722656 25.683594 19.621094 25.683594 C 20.765625 25.683594 21.640625 26.570313 21.640625 26.570313 C 21.707031 26.640625 21.777344 26.699219 21.855469 26.753906 C 22.230469 28.65625 22.757813 30.179688 23.371094 31.386719 C 22.367188 33.121094 21.203125 34.265625 20.046875 34.265625 Z M 24.902344 27.925781 C 24.34375 25.996094 23.953125 23.40625 23.953125 20.011719 C 23.953125 16.886719 24.621094 13.945313 25.175781 12.9375 C 25.597656 13.582031 26.289063 15.589844 26.289063 20.179688 C 26.289063 22.617188 25.75 25.445313 24.902344 27.925781 Z" fill="#fff"/></svg>