<svg xmlns="http://www.w3.org/2000/svg" viewBox="0 0 48 48" width="50" height="50" fill="#666"><path d="M 14.925781 31.996094 L 17.960938 19.503906 C 17.960938 19.503906 16.921875 18.996094 14.925781 18.996094 C 12.933594 18.996094 11.949219 19.503906 11.949219 19.503906 Z" fill="#e3f2fd"/><path d="M 16.9375 16.246094 L 12.917969 16.246094 L 12.917969 19.246094 L 14.925781 19.5 L 16.9375 19.246094 Z" fill="#ff9800"/><path d="M 34 12 C 30.132813 12 27 15.132813 27 19 L 41 19 C 41 15.132813 37.867188 12 34 12 Z" fill="#9fa8da"/><path d="M 26 18 L 26 19 C 26 19.554688 26.445313 20 27 20 L 41 20 C 41.554688 20 42 19.554688 42 19 L 42 18 Z" fill="#5c6bc0"/><path d="M 35 11 C 35 11.550781 34.550781 12 34 12 C 33.449219 12 33 11.550781 33 11 C 33 10.449219 33.449219 10 34 10 C 34.550781 10 35 10.449219 35 11 Z" fill="#5c6bc0"/><path d="M 36 20 L 34 22 L 31 22 L 28 27 L 28 22 C 28 20 30 20 30 20 Z" fill="#ffb74d"/><path d="M 10 42 L 7 40 L 7 36 L 10 36 Z" fill="#ffb74d"/><path d="M 14.925781 18 C 12.15625 18 9.90625 15.757813 9.90625 13 C 9.90625 10.242188 12.15625 8 14.925781 8 C 17.695313 8 19.949219 10.242188 19.949219 13 C 19.949219 15.757813 17.695313 18 14.925781 18" fill="#ffb74d"/><path d="M 14.707031 6 C 12.257813 6.21875 9.902344 7.929688 9.902344 11.574219 L 9.902344 13 L 10.910156 14 L 10.910156 11 L 17.246094 8.800781 L 18.945313 11 L 18.945313 14 L 19.949219 13 L 19.949219 11.800781 C 19.949219 9.382813 19.8125 7.59375 16.933594 7 L 16.445313 6 Z" fill="#424242"/><path d="M 28 21 L 25 26 C 25 26 21.640625 21.625 20.996094 21.144531 C 20.296875 20.617188 19.246094 19.964844 17.957031 19.519531 L 14.925781 31.996094 L 11.953125 19.519531 C 8.808594 20.660156 7 23.574219 7 27 L 7 37 L 10 39 L 10 42 L 21 42 L 21 27.09375 L 24 30 L 27 30 L 31 23 Z" fill="#455a64"/><path d="M 12.976563 17.996094 L 14.925781 19.5 L 12.976563 21.003906 C 12.976563 21.003906 12.414063 20.691406 12.414063 19.542969 C 12.414063 18.394531 12.976563 17.996094 12.976563 17.996094 Z" fill="#455a64"/><path d="M 16.9375 21.003906 L 14.925781 19.5 L 16.9375 17.996094 C 16.9375 17.996094 17.5 18.308594 17.5 19.457031 C 17.5 20.605469 16.9375 21.003906 16.9375 21.003906 Z" fill="#455a64"/></svg>