<svg xmlns="http://www.w3.org/2000/svg" viewBox="0 0 48 48" width="50" height="50" fill="#666"><path d="M43,24c0,10.5-8.5,19-19,19S5,34.5,5,24S13.5,5,24,5S43,13.5,43,24z" fill="#bbdefb"/><path d="M24,4l-0.164,0.008C12.911,4.098,4,13.055,4,24c0,11,9,20,20,20c2.463,0,4.816-0.473,7-1.297v-2.129 c-0.368,0.157-0.75,0.284-1.129,0.417c0.393-0.443,0.773-0.915,1.129-1.442v-4.365c-1.461,3.631-3.6,6.146-6,6.699V34h6v-2h-6v-7 h6.339c0.337-0.71,0.912-1.293,1.644-1.646c0.041-0.02,0.078-0.045,0.12-0.063c0.467-0.205,0.964-0.299,1.456-0.291 c0.015,0,0.03,0,0.044,0c0.124,0.004,0.248,0.019,0.371,0.036c0.7,0.096,1.371,0.398,1.912,0.902L38.023,25h3.926 c-0.062,1.103-0.22,2.179-0.473,3.222l1.662,1.551C43.694,27.943,44,26.006,44,24C44,13,35,4,24,4z M18.129,7.009 c-1.535,1.73-2.798,4.132-3.687,6.991H9.086C11.248,10.789,14.411,8.304,18.129,7.009z M7.93,15.988C7.955,15.989,7.974,16,8,16 h5.899c-0.502,2.153-0.807,4.508-0.872,7H6.051C6.191,20.491,6.859,18.122,7.93,15.988z M7.91,32.001 C6.842,29.868,6.19,27.502,6.051,25h6.976c0.065,2.488,0.357,4.848,0.859,7H12H8C7.996,32,7.962,32,7.91,32.001z M9.057,34h5.377 c0.891,2.865,2.16,5.26,3.696,6.991C14.406,39.695,11.223,37.22,9.057,34z M23,41.879c-2.655-0.611-4.993-3.612-6.445-7.879H23 V41.879z M23,32h-6h-1.026c-0.544-2.138-0.877-4.507-0.948-7H23V32z M23,23h-7.974c0.072-2.495,0.414-4.86,0.957-7H23V23z M23,14 h-6.425C18.024,9.739,20.349,6.737,23,6.125V14z M25,6.125c2.651,0.611,4.976,3.614,6.425,7.875H25V6.125z M25,23v-7h7.017 c0.543,2.14,0.885,4.505,0.957,7H25z M29.871,7.009c3.718,1.295,6.882,3.781,9.044,6.991h-5.356 C32.669,11.141,31.405,8.738,29.871,7.009z M34.973,23c-0.065-2.492-0.37-4.847-0.872-7H40c0.026,0,0.045-0.011,0.07-0.012 c1.071,2.135,1.739,4.503,1.879,7.012H34.973z" fill="#42a5f5"/><path d="M31.339,25C31.121,25.46,31,25.97,31,26.5V32h1.026c0.544-2.138,0.877-4.507,0.948-7H31.339z" fill="#c5e3fc"/><path d="M34.973,25c-0.065,2.488-0.357,4.848-0.859,7H35v-4.351L39.661,32H40 c0.031,0,0.054,0.013,0.084,0.015c0.601-1.196,1.069-2.465,1.392-3.792L38.023,25H34.973z" fill="#c5e3fc"/><path d="M33.566,34c-0.663,2.132-1.53,4.015-2.566,5.549v1.025c1.442-0.614,2.778-1.424,4-2.374V34H33.566z" fill="#c5e3fc"/><path d="M31,34v1.184c0.155-0.385,0.306-0.775,0.445-1.184H31z" fill="#c5e3fc"/><path d="M41.476,28.222c-0.323,1.327-0.791,2.596-1.392,3.792c-0.043,0.087-0.082,0.176-0.127,0.262 l1.005,0.938l0.508,0.474c0.688-1.232,1.25-2.542,1.668-3.915L41.476,28.222z" fill="#90caf9"/><path d="M35,38.2c-1.222,0.95-2.558,1.76-4,2.374v2.129c1.414-0.533,2.758-1.208,4-2.032V38.2z" fill="#90caf9"/><path d="M38.023,25l-1.137-1.062c-0.541-0.504-1.212-0.806-1.912-0.902 c-0.123-0.017-0.247-0.033-0.371-0.036h-0.044c-0.492-0.008-0.988,0.085-1.456,0.291c-0.042,0.018-0.079,0.043-0.12,0.063 c-0.732,0.353-1.307,0.937-1.644,1.646h1.635c-0.072,2.493-0.404,4.862-0.948,7H31v2h0.445c-0.139,0.409-0.29,0.799-0.445,1.184 v4.365c1.036-1.534,1.903-3.417,2.566-5.549H35v-2h-0.886c0.502-2.152,0.795-4.512,0.859-7H38.023z" fill="#90caf9"/><g><path d="M41.85,47c-0.061,0-0.122-0.011-0.18-0.034c-0.126-0.048-0.226-0.145-0.28-0.268l-2.918-6.746 l-3.631,3.412c-0.146,0.137-0.358,0.173-0.541,0.095C34.119,43.38,34,43.199,34,43v-16.5c0-0.199,0.118-0.379,0.301-0.459 c0.182-0.08,0.395-0.043,0.541,0.093l12,11.2c0.144,0.135,0.196,0.343,0.132,0.529c-0.065,0.187-0.233,0.318-0.43,0.335 l-5.093,0.439l3.054,6.655c0.055,0.121,0.061,0.259,0.014,0.384c-0.047,0.125-0.14,0.226-0.261,0.281l-2.2,1 C41.991,46.985,41.921,47,41.85,47z" fill="#fafafa"/><path d="M47.524,36.604l-12-11.201c-0.438-0.408-1.075-0.518-1.622-0.278C33.354,25.363,33,25.903,33,26.5 V43c0,0.599,0.355,1.139,0.907,1.378c0.548,0.236,1.184,0.124,1.62-0.285l2.306-2.167l2.422,5.478C40.42,47.778,40.787,48,41.17,48 c0.108,0,0.215-0.032,0.322-0.068c0.027-0.009,3.801-1.677,3.834-1.696c0.194-0.114,0.355-0.277,0.437-0.489 c0.096-0.248,0.089-0.523-0.018-0.766l-2.433-5.501l3.319-0.286c0.589-0.051,1.095-0.446,1.288-1.004 C48.111,37.631,47.957,37.008,47.524,36.604z M40.35,37.728l3.161,7.146l-1.83,0.808l-3.161-7.146L35,41.844V27.65l10.338,9.648 L40.35,37.728z" fill="#455a64"/></g></svg>