<svg xmlns="http://www.w3.org/2000/svg" viewBox="0 0 48 48" width="50" height="50" fill="#666"><path d="M 40 45 L 8 45 L 8 3 L 30 3 L 40 13 Z" fill="#ff80ab"/><path d="M 38.5 14 L 29 14 L 29 4.5 Z" fill="#fce4ec"/><path d="M 11.707031 33 L 11.707031 23.046875 L 14.339844 23.046875 C 15.5 23.046875 16.425781 23.414063 17.117188 24.152344 C 17.808594 24.890625 18.160156 25.902344 18.175781 27.1875 L 18.175781 28.800781 C 18.175781 30.109375 17.828125 31.136719 17.136719 31.882813 C 16.449219 32.628906 15.496094 33 14.285156 33 Z M 13.71875 24.722656 L 13.71875 31.332031 L 14.320313 31.332031 C 14.988281 31.332031 15.460938 31.15625 15.734375 30.800781 C 16.007813 30.449219 16.152344 29.839844 16.164063 28.972656 L 16.164063 27.246094 C 16.164063 26.316406 16.035156 25.667969 15.773438 25.300781 C 15.515625 24.933594 15.074219 24.742188 14.449219 24.722656 Z" fill="#e91e63"/><path d="M 22.242188 23.046875 L 24.121094 30.246094 L 25.992188 23.046875 L 28.617188 23.046875 L 28.617188 33 L 26.601563 33 L 26.601563 30.308594 L 26.785156 26.15625 L 24.796875 33 L 23.429688 33 L 21.441406 26.15625 L 21.628906 30.304688 L 21.628906 33 L 19.617188 33 L 19.617188 23.046875 Z" fill="#e91e63"/><path d="M 37 31.871094 C 36.613281 32.289063 36.136719 32.605469 35.574219 32.820313 C 35.011719 33.03125 34.394531 33.136719 33.726563 33.136719 C 32.582031 33.136719 31.691406 32.78125 31.058594 32.074219 C 30.425781 31.363281 30.097656 30.335938 30.082031 28.980469 L 30.082031 27.1875 C 30.082031 25.816406 30.382813 24.761719 30.980469 24.019531 C 31.578125 23.28125 32.453125 22.910156 33.601563 22.910156 C 34.679688 22.910156 35.496094 23.175781 36.046875 23.710938 C 36.59375 24.242188 36.910156 25.078125 36.996094 26.21875 L 35.042969 26.21875 C 34.988281 25.585938 34.855469 25.152344 34.648438 24.921875 C 34.4375 24.695313 34.109375 24.578125 33.664063 24.578125 C 33.121094 24.578125 32.726563 24.777344 32.480469 25.171875 C 32.234375 25.570313 32.105469 26.199219 32.097656 27.066406 L 32.097656 28.871094 C 32.097656 29.777344 32.234375 30.4375 32.503906 30.851563 C 32.773438 31.261719 33.222656 31.46875 33.839844 31.46875 C 34.234375 31.46875 34.558594 31.390625 34.804688 31.230469 L 34.980469 31.105469 L 34.980469 29.28125 L 33.574219 29.28125 L 33.574219 27.765625 L 37 27.765625 Z" fill="#e91e63"/></svg>