<svg xmlns="http://www.w3.org/2000/svg" viewBox="0 0 48 48" width="50" height="50" fill="#666"><path d="M 33 34.25 C 33 29.277344 24 21.875 24 21.875 C 24 21.875 15 29.277344 15 34.25 C 15 39.222656 19.027344 42.125 24 42.125 C 28.972656 42.125 33 39.222656 33 34.25 Z" fill="#bbdefb"/><path d="M 33 13.75 C 33 18.722656 24 26.125 24 26.125 C 24 26.125 15 18.722656 15 13.75 C 15 8.777344 19.027344 5.875 24 5.875 C 28.972656 5.875 33 8.777344 33 13.75 Z" fill="#bbdefb"/><path d="M 17.699219 16 C 18.933594 18.371094 21.605469 21.3125 24 23.480469 C 26.394531 21.3125 29.066406 18.371094 30.300781 16 Z" fill="#ff9800"/><path d="M 25 26 C 25 26.554688 24.550781 27 24 27 C 23.449219 27 23 26.554688 23 26 C 23 25.449219 23.449219 25 24 25 C 24.550781 25 25 25.449219 25 26 Z" fill="#ff9800"/><path d="M 25 29 C 25 29.554688 24.550781 30 24 30 C 23.449219 30 23 29.554688 23 29 C 23 28.449219 23.449219 28 24 28 C 24.550781 28 25 28.449219 25 29 Z" fill="#ff9800"/><path d="M 24 40.125 C 26.308594 40.125 28.886719 39.332031 30.171875 37.300781 C 27.53125 33.90625 24 31 24 31 C 24 31 20.46875 33.90625 17.828125 37.300781 C 19.113281 39.332031 21.691406 40.125 24 40.125 Z" fill="#ff9800"/><path d="M 33 39 C 33 38.445313 32.554688 38 32 38 L 16 38 C 15.449219 38 15 38.445313 15 39 L 15 43 C 15 43.554688 15.449219 44 16 44 L 32 44 C 32.554688 44 33 43.554688 33 43 Z" fill="#6d4c41"/><path d="M 33 9 C 33 9.554688 32.554688 10 32 10 L 16 10 C 15.449219 10 15 9.554688 15 9 L 15 5 C 15 4.445313 15.449219 4 16 4 L 32 4 C 32.554688 4 33 4.445313 33 5 Z" fill="#6d4c41"/><path d="M 36 42 C 36 41.445313 35.554688 41 35 41 L 13 41 C 12.449219 41 12 41.445313 12 42 L 12 43 C 12 43.554688 12.449219 44 13 44 L 35 44 C 35.554688 44 36 43.554688 36 43 Z" fill="#8d6e63"/><path d="M 36 6 C 36 6.554688 35.554688 7 35 7 L 13 7 C 12.449219 7 12 6.554688 12 6 L 12 5 C 12 4.445313 12.449219 4 13 4 L 35 4 C 35.554688 4 36 4.445313 36 5 Z" fill="#8d6e63"/></svg>