<svg xmlns="http://www.w3.org/2000/svg" viewBox="0 0 48 48" width="50" height="50" fill="#666"><path d="M 11 44 L 9 44 C 8.398438 44 8 43.601563 8 43 L 8 41 L 12 41 L 12 43 C 12 43.601563 11.601563 44 11 44 Z" fill="#263238"/><path d="M 39 44 L 37 44 C 36.398438 44 36 43.601563 36 43 L 36 41 L 40 41 L 40 43 C 40 43.601563 39.601563 44 39 44 Z" fill="#263238"/><path d="M 27 7 L 21 7 C 19.300781 7 18 8.300781 18 10 L 18 13 L 20 13 L 20 10 C 20 9.398438 20.398438 9 21 9 L 27 9 C 27.601563 9 28 9.398438 28 10 L 28 13 L 30 13 L 30 10 C 30 8.300781 28.699219 7 27 7 Z" fill="#37474f"/><path d="M 40 43 L 8 43 C 5.800781 43 4 41.199219 4 39 L 4 15 C 4 12.800781 5.800781 11 8 11 L 40 11 C 42.199219 11 44 12.800781 44 15 L 44 39 C 44 41.199219 42.199219 43 40 43 Z" fill="#78909c"/></svg>