<svg xmlns="http://www.w3.org/2000/svg" viewBox="0 0 48 48" width="50" height="50" fill="#666"><path d="M 24 44 L 6 44 L 11 10 L 19 10 Z" fill="#cfd8dc"/><path d="M 10.410156 14 L 9.234375 22 L 20.765625 22 L 19.589844 14 Z" fill="#ff3d00"/><path d="M 22.972656 37 L 21.792969 29 L 8.207031 29 L 7.027344 37 Z" fill="#ff3d00"/><path d="M 12 6 L 18 6 L 18 12 L 12 12 Z" fill="#ff3d00"/><path d="M 42 14 L 18 10 L 18 8 L 42 5 Z" fill="#ffc107"/><path d="M 12 6 L 18 6 L 15 4 Z" fill="#d32f2f"/><path d="M 10.167969 16 L 19.832031 16 L 19.554688 14 L 10.445313 14 Z" fill="#d32f2f"/><path d="M 9 10 L 21 10 L 21 14 L 9 14 Z" fill="#455a64"/><path d="M 17 28 L 17 25 C 17 23.894531 16.105469 23 15 23 C 13.894531 23 13 23.894531 13 25 L 13 28 Z" fill="#455a64"/></svg>