<svg xmlns="http://www.w3.org/2000/svg" viewBox="0 0 48 48" width="50" height="50" fill="#666"><path d="M 28 7.128906 L 28 9.148438 C 35.328125 10.132813 41 16.40625 41 24 C 41 31.59375 35.328125 37.867188 28 38.851563 L 28 40.871094 C 36.433594 39.878906 43 32.695313 43 24 C 43 15.304688 36.433594 8.121094 28 7.128906" fill="#81d4fa"/><path d="M 14 32 L 7 32 C 5.894531 32 5 31.105469 5 30 L 5 18 C 5 16.894531 5.894531 16 7 16 L 14 16 Z" fill="#546e7a"/><path d="M 26 42 L 14 32 L 14 16 L 26 6 Z" fill="#78909c"/><path d="M 28 17.296875 L 28 19.425781 C 29.761719 20.199219 31 21.953125 31 24 C 31 26.046875 29.761719 27.804688 28 28.574219 L 28 30.703125 C 30.886719 29.84375 33 27.164063 33 24 C 33 20.835938 30.886719 18.15625 28 17.296875" fill="#03a9f4"/><path d="M 28 12.179688 L 28 14.203125 C 32.558594 15.132813 36 19.171875 36 24 C 36 28.832031 32.558594 32.871094 28 33.800781 L 28 35.820313 C 33.664063 34.863281 38 29.933594 38 24 C 38 18.066406 33.664063 13.136719 28 12.179688" fill="#4fc3f7"/></svg>