<svg xmlns="http://www.w3.org/2000/svg" viewBox="0 0 48 48" width="50" height="50" fill="#666"><path d="M34,34c-9.2,9.2-22.1,11.2-26.7,6.7C2.7,36.2,4.8,23.2,14,14S36.2,2.8,40.7,7.3S43.2,24.8,34,34z" fill="#d84315"/><path d="M34,34c-9.2,9.2-22.1,11.2-26.7,6.7c7,0,16.2-9.8,19.9-13.5S40.7,13.7,40.7,7.3 C45.2,11.8,43.2,24.8,34,34z" fill="#bf360c"/><path d="M17.5,32c-0.4,0-0.8-0.1-1.1-0.4c-0.6-0.6-0.6-1.5,0-2.1l13-13c0.6-0.6,1.5-0.6,2.1,0 c0.6,0.6,0.6,1.5,0,2.1l-13,13C18.3,31.9,17.9,32,17.5,32z" fill="#ff8a65"/><path d="M29,27c0,1.1-0.9,2-2,2s-2-0.9-2-2s0.9-2,2-2S29,25.9,29,27z" fill="#872f14"/><path d="M23,21c0,1.1-0.9,2-2,2s-2-0.9-2-2s0.9-2,2-2S23,19.9,23,21z" fill="#872f14"/><path d="M27,28c-0.3,0-0.5-0.1-0.7-0.3l-6-6c-0.4-0.4-0.4-1,0-1.4s1-0.4,1.4,0l6,6c0.4,0.4,0.4,1,0,1.4 C27.5,27.9,27.3,28,27,28z" fill="#ffab91"/><path d="M33,23c0,1.1-0.9,2-2,2s-2-0.9-2-2s0.9-2,2-2S33,21.9,33,23z" fill="#872f14"/><path d="M27,17c0,1.1-0.9,2-2,2s-2-0.9-2-2s0.9-2,2-2S27,15.9,27,17z" fill="#872f14"/><path d="M31,24c-0.3,0-0.5-0.1-0.7-0.3l-6-6c-0.4-0.4-0.4-1,0-1.4s1-0.4,1.4,0l6,6c0.4,0.4,0.4,1,0,1.4 C31.5,23.9,31.3,24,31,24z" fill="#ffab91"/><path d="M25,31c0,1.1-0.9,2-2,2s-2-0.9-2-2s0.9-2,2-2S25,29.9,25,31z" fill="#872f14"/><path d="M19,25c0,1.1-0.9,2-2,2s-2-0.9-2-2s0.9-2,2-2S19,23.9,19,25z" fill="#872f14"/><path d="M23,32c-0.3,0-0.5-0.1-0.7-0.3l-6-6c-0.4-0.4-0.4-1,0-1.4s1-0.4,1.4,0l6,6c0.4,0.4,0.4,1,0,1.4 C23.5,31.9,23.3,32,23,32z" fill="#ffab91"/></svg>