<svg xmlns="http://www.w3.org/2000/svg" viewBox="0 0 48 48" width="50" height="50" fill="#666"><path d="M 36 4 C 36 13.300781 30 17.199219 23.199219 21.800781 C 16.101563 26.5 8 31.800781 8 44 L 12 44 C 12 33.898438 18.5 29.601563 25.398438 25.101563 C 32.199219 20.601563 40 15.398438 40 4 Z" fill="#ad1457"/><path d="M 38 41 L 11 41 C 10.398438 41 10 40.601563 10 40 C 10 39.398438 10.398438 39 11 39 L 38 39 C 38.601563 39 39 39.398438 39 40 C 39 40.601563 38.601563 41 38 41 Z" fill="#ad1457"/><path d="M 36 37 L 12 37 C 11.398438 37 11 36.601563 11 36 C 11 35.398438 11.398438 35 12 35 L 36 35 C 36.601563 35 37 35.398438 37 36 C 37 36.601563 36.601563 37 36 37 Z" fill="#ad1457"/><path d="M 34 33 L 14 33 C 13.398438 33 13 32.601563 13 32 C 13 31.398438 13.398438 31 14 31 L 34 31 C 34.601563 31 35 31.398438 35 32 C 35 32.601563 34.601563 33 34 33 Z" fill="#ad1457"/><path d="M 29 29 L 19 29 C 18.398438 29 18 28.601563 18 28 C 18 27.398438 18.398438 27 19 27 L 29 27 C 29.601563 27 30 27.398438 30 28 C 30 28.601563 29.601563 29 29 29 Z" fill="#ad1457"/><path d="M 37 9 L 10 9 C 9.398438 9 9 8.601563 9 8 C 9 7.398438 9.398438 7 10 7 L 37 7 C 37.601563 7 38 7.398438 38 8 C 38 8.601563 37.601563 9 37 9 Z" fill="#e91e63"/><path d="M 36 13 L 12 13 C 11.398438 13 11 12.601563 11 12 C 11 11.398438 11.398438 11 12 11 L 36 11 C 36.601563 11 37 11.398438 37 12 C 37 12.601563 36.601563 13 36 13 Z" fill="#e91e63"/><path d="M 34 17 L 14 17 C 13.398438 17 13 16.601563 13 16 C 13 15.398438 13.398438 15 14 15 L 34 15 C 34.601563 15 35 15.398438 35 16 C 35 16.601563 34.601563 17 34 17 Z" fill="#e91e63"/><path d="M 29 21 L 19 21 C 18.398438 21 18 20.601563 18 20 C 18 19.398438 18.398438 19 19 19 L 29 19 C 29.601563 19 30 19.398438 30 20 C 30 20.601563 29.601563 21 29 21 Z" fill="#e91e63"/><path d="M 40 44 L 36 44 C 36 33.898438 29.5 29.601563 22.601563 25.101563 C 15.800781 20.601563 8 15.398438 8 4 L 12 4 C 12 13.300781 18 17.199219 24.800781 21.800781 C 31.898438 26.5 40 31.800781 40 44 Z" fill="#e91e63"/></svg>