<svg xmlns="http://www.w3.org/2000/svg" viewBox="0 0 48 48" width="50" height="50" fill="#666"><path d="M 40 45 L 8 45 L 8 3 L 30 3 L 40 13 Z" fill="#ff6d00"/><path d="M 38.5 14 L 29 14 L 29 4.5 Z" fill="#fff3e0"/><path d="M 23.398438 29.5 L 23.398438 33 L 21.398438 33 L 21.398438 23 L 24.800781 23 C 25.800781 23 26.601563 23.300781 27.199219 23.898438 C 27.800781 24.5 28.101563 25.300781 28.101563 26.300781 C 28.101563 27.300781 27.800781 28 27.199219 28.601563 C 26.601563 29.199219 25.800781 29.398438 24.800781 29.398438 L 23.398438 29.398438 Z M 23.398438 27.800781 L 24.800781 27.800781 C 25.199219 27.800781 25.5 27.699219 25.699219 27.398438 C 25.898438 27.101563 26 26.800781 26 26.300781 C 26 25.800781 25.898438 25.398438 25.699219 25.101563 C 25.5 24.800781 25.199219 24.699219 24.800781 24.699219 L 23.398438 24.699219 Z M 15 29.5 L 15 33 L 13 33 L 13 23 L 16.398438 23 C 17.398438 23 18.199219 23.300781 18.800781 23.898438 C 19.398438 24.5 19.699219 25.300781 19.699219 26.300781 C 19.699219 27.300781 19.398438 28 18.800781 28.601563 C 18.199219 29.199219 17.398438 29.398438 16.398438 29.398438 L 15 29.398438 Z M 15 27.800781 L 16.398438 27.800781 C 16.800781 27.800781 17.101563 27.699219 17.300781 27.398438 C 17.5 27.101563 17.601563 26.800781 17.601563 26.300781 C 17.601563 25.800781 17.5 25.398438 17.300781 25.101563 C 17.101563 24.800781 16.800781 24.699219 16.398438 24.699219 L 15 24.699219 Z M 36 24.699219 L 33.5 24.699219 L 33.5 33 L 31.5 33 L 31.5 24.699219 L 29.101563 24.699219 L 29.101563 23 L 36 23 Z" fill="#fff"/></svg>