<svg xmlns="http://www.w3.org/2000/svg" viewBox="0 0 48 48" width="50" height="50" fill="#666"><path d="M 12.191406 19.554688 C 10.253906 17.8125 7.402344 17.828125 5.828125 19.585938 C 4.253906 21.339844 4.527344 24.605469 6.753906 26.214844 Z" fill="#fff"/><path d="M 35.808594 19.554688 C 37.746094 17.8125 40.597656 17.828125 42.171875 19.585938 C 43.746094 21.339844 43.472656 24.605469 41.246094 26.214844 Z" fill="#fff"/><path d="M 41.820313 10.476563 C 41.820313 12.40625 40.253906 13.976563 38.320313 13.976563 C 36.386719 13.976563 34.820313 12.40625 34.820313 10.476563 C 34.820313 8.542969 36.386719 6.976563 38.320313 6.976563 C 40.253906 6.976563 41.820313 8.542969 41.820313 10.476563 Z" fill="#fff"/><path d="M 42.171875 28.609375 C 42.171875 21.460938 34.074219 15.664063 24.085938 15.664063 C 14.097656 15.664063 6 21.460938 6 28.609375 C 6 35.761719 14.097656 41.558594 24.085938 41.558594 C 34.074219 41.558594 42.171875 35.761719 42.171875 28.609375 Z" fill="#fff"/><path d="M 33.25 26.390625 C 33.25 27.984375 31.957031 29.273438 30.363281 29.273438 C 28.773438 29.273438 27.480469 27.984375 27.480469 26.390625 C 27.480469 24.796875 28.773438 23.507813 30.363281 23.507813 C 31.957031 23.507813 33.25 24.796875 33.25 26.390625 Z" fill="#d84315"/><path d="M 20.519531 26.390625 C 20.519531 27.984375 19.226563 29.273438 17.636719 29.273438 C 16.042969 29.273438 14.75 27.984375 14.75 26.390625 C 14.75 24.796875 16.042969 23.507813 17.636719 23.507813 C 19.226563 23.507813 20.519531 24.796875 20.519531 26.390625 Z" fill="#d84315"/><path d="M 24.003906 34.902344 C 20.75 34.902344 17.863281 34.15625 16 33 C 17.023438 35.042969 20.195313 37 24.003906 37 C 27.804688 37 30.976563 35.042969 32 33 C 30.144531 34.15625 27.253906 34.902344 24.003906 34.902344 Z" fill="#37474f"/><path d="M 41.828125 27.027344 L 40.660156 25.40625 C 41.492188 24.804688 42.03125 23.847656 42.148438 22.78125 C 42.253906 21.800781 41.992188 20.878906 41.425781 20.25 C 40.855469 19.613281 40.035156 19.261719 39.121094 19.257813 C 38.191406 19.269531 37.226563 19.621094 36.472656 20.296875 L 35.136719 18.808594 C 36.261719 17.800781 37.683594 17.285156 39.128906 17.257813 C 40.617188 17.265625 41.960938 17.851563 42.914063 18.914063 C 43.855469 19.964844 44.300781 21.453125 44.136719 22.996094 C 43.960938 24.625 43.121094 26.097656 41.828125 27.027344 Z" fill="#37474f"/><path d="M 6.167969 27.027344 C 4.878906 26.09375 4.039063 24.625 3.863281 22.996094 C 3.695313 21.453125 4.140625 19.964844 5.085938 18.914063 C 6.035156 17.855469 7.382813 17.265625 8.867188 17.257813 C 8.878906 17.257813 8.886719 17.257813 8.894531 17.257813 C 10.335938 17.257813 11.746094 17.808594 12.859375 18.8125 L 11.523438 20.300781 C 10.773438 19.621094 9.835938 19.292969 8.878906 19.257813 C 7.964844 19.261719 7.144531 19.613281 6.574219 20.253906 C 6.011719 20.878906 5.746094 21.800781 5.851563 22.78125 C 5.96875 23.847656 6.507813 24.804688 7.339844 25.40625 Z" fill="#37474f"/><path d="M 25 16.839844 L 23 16.839844 C 23 13.953125 23 6.292969 27.980469 6.292969 C 30.132813 6.292969 31.171875 7.503906 31.929688 8.386719 C 32.558594 9.121094 32.890625 9.472656 33.546875 9.472656 L 34.917969 9.472656 L 34.917969 11.472656 L 33.546875 11.472656 C 31.941406 11.472656 31.09375 10.484375 30.410156 9.6875 C 29.742188 8.90625 29.214844 8.289063 27.976563 8.289063 C 25.976563 8.292969 25 11.089844 25 16.839844 Z" fill="#37474f"/><path d="M 24.085938 16.949219 C 33.507813 16.949219 41.171875 22.179688 41.171875 28.609375 C 41.171875 35.042969 33.507813 40.273438 24.085938 40.273438 C 14.664063 40.273438 7 35.042969 7 28.609375 C 7 22.179688 14.664063 16.949219 24.085938 16.949219 M 24.085938 14.949219 C 13.542969 14.949219 5 21.066406 5 28.609375 C 5 36.15625 13.546875 42.273438 24.085938 42.273438 C 34.625 42.273438 43.171875 36.15625 43.171875 28.609375 C 43.171875 21.066406 34.625 14.949219 24.085938 14.949219 Z" fill="#37474f"/><path d="M 38.320313 7.976563 C 39.699219 7.976563 40.820313 9.097656 40.820313 10.476563 C 40.820313 11.851563 39.699219 12.976563 38.320313 12.976563 C 36.941406 12.976563 35.820313 11.851563 35.820313 10.476563 C 35.820313 9.097656 36.941406 7.976563 38.320313 7.976563 M 38.320313 5.976563 C 35.835938 5.976563 33.820313 7.988281 33.820313 10.476563 C 33.820313 12.960938 35.835938 14.976563 38.320313 14.976563 C 40.804688 14.976563 42.820313 12.960938 42.820313 10.476563 C 42.820313 7.988281 40.808594 5.976563 38.320313 5.976563 Z" fill="#37474f"/></svg>