<svg xmlns="http://www.w3.org/2000/svg" viewBox="0 0 48 48" width="50" height="50" fill="#666"><path d="M 44 42 L 4 42 L 7 27 L 41 27 Z" fill="#cfd8dc"/><path d="M 36 36 L 12 36 C 10.898438 36 10 35.101563 10 34 C 10 32.898438 10.898438 32 12 32 L 36 32 C 37.101563 32 38 32.898438 38 34 C 38 35.101563 37.101563 36 36 36 Z" fill="#455a64"/><path d="M 23 6 L 30.757813 15.050781 C 31 15.535156 31 16.269531 31 17 L 27.316406 25.195313 C 27.074219 26.414063 26.222656 27.511719 25 28 C 24.292969 28.265625 25.140625 27.34375 23.054688 28 C 23.082031 26.328125 22.460938 24.644531 21.183594 23.371094 C 20.960938 23.144531 20.722656 22.949219 20.476563 22.769531 L 23.683594 21.71875 L 23.4375 17 L 18 13 C 18 13 10 22 9 6 Z" fill="#ffa726"/><path d="M 15 17 L 33 17 L 33 35 L 15 35 Z" fill="#64b5f6"/><path d="M 22.21875 27.78125 C 20.863281 28.878906 19.113281 28.363281 18.074219 27.222656 L 10 18 C 9.480469 17.429688 9 14.707031 9 14.085938 C 9 11.085938 9 6 9 6 L 19 13 L 19 18 L 22.382813 23.039063 C 23.800781 24.878906 23.582031 26.644531 22.21875 27.78125" fill="#ffa726"/><path d="M 19.125 26.699219 C 19.839844 27.398438 20.980469 27.390625 21.683594 26.679688 C 22.382813 25.964844 22.371094 24.820313 21.660156 24.117188 C 20.945313 23.417969 18.410156 26 19.125 26.699219" fill="#ffcdd2"/><path d="M 15 34 L 33 34 L 33 36 L 15 36 Z" fill="#1e88e5"/><path d="M 23.4375 17 L 19 13.734375 L 19 17 Z" fill="#d68022"/></svg>