<svg xmlns="http://www.w3.org/2000/svg" viewBox="0 0 48 48" width="50" height="50" fill="#666"><path d="M 40 45 L 8 45 L 8 3 L 30 3 L 40 13 Z" fill="#90caf9"/><path d="M 38.5 14 L 29 14 L 29 4.5 Z" fill="#e1f5fe"/><path d="M 37.523438 39.519531 L 39.519531 37.523438 L 48 46 L 46 48 Z" fill="#616161"/><path d="M 42 31 C 42 37.074219 37.074219 42 31 42 C 24.925781 42 20 37.074219 20 31 C 20 24.925781 24.925781 20 31 20 C 37.074219 20 42 24.925781 42 31" fill="#616161"/><path d="M 40 31 C 40 35.972656 35.972656 40 31 40 C 26.027344 40 22 35.972656 22 31 C 22 26.027344 26.027344 22 31 22 C 35.972656 22 40 26.027344 40 31" fill="#90caf9"/><path d="M 39.863281 41.859375 L 41.859375 39.859375 L 48.003906 46 L 46.007813 48 Z" fill="#37474f"/></svg>