<svg xmlns="http://www.w3.org/2000/svg" viewBox="0 0 48 48" width="50" height="50" fill="#666"><path d="M 18 36 C 18 36 15.785156 32 10 32 C 4.214844 32 2 36 2 36 L 2 39 L 18 39 Z" fill="#455a64"/><path d="M 46 36 C 46 36 43.785156 32 38 32 C 32.214844 32 30 36 30 36 L 30 39 L 46 39 Z" fill="#455a64"/><path d="M 28 28 C 28 28 28 32 24 32 C 20 32 20 28 20 28" fill="#ff9800"/><path d="M 36 34.9375 C 36 34.9375 32.679688 27 24 27 C 15.320313 27 12 34.9375 12 34.9375 L 12 39 L 36 39 Z" fill="#607d8b"/><path d="M 32 19.5 C 32 20.328125 31.328125 21 30.5 21 C 29.671875 21 29 20.328125 29 19.5 C 29 18.671875 29.671875 18 30.5 18 C 31.328125 18 32 18.671875 32 19.5" fill="#ffa726"/><path d="M 19 19.5 C 19 20.328125 18.328125 21 17.5 21 C 16.671875 21 16 20.328125 16 19.5 C 16 18.671875 16.671875 18 17.5 18 C 18.328125 18 19 18.671875 19 19.5" fill="#ffa726"/><path d="M 12 29 L 8 29 L 8 32 C 8 32 7.878906 34 9.960938 34 C 12.042969 34 12 32 12 32 Z" fill="#ff9800"/><path d="M 40 29 L 36 29 L 36 32 C 36 32 35.878906 34 37.960938 34 C 40.042969 34 40 32 40 32 Z" fill="#ff9800"/><path d="M 24 32 C 20 32 20 28 20 28 L 20 24 L 28 24 L 28 28 C 28 28 28 32 24 32 Z" fill="#ff9800"/><path d="M 10 31 C 7.242188 31 5 28.757813 5 26 C 5 23.242188 7.242188 21 10 21 C 12.757813 21 15 23.242188 15 26 C 15 28.757813 12.757813 31 10 31" fill="#ffb74d"/><path d="M 38 31 C 35.242188 31 33 28.757813 33 26 C 33 23.242188 35.242188 21 38 21 C 40.757813 21 43 23.242188 43 26 C 43 28.757813 40.757813 31 38 31" fill="#ffb74d"/><path d="M 31 15.679688 C 31 9.800781 17 11.851563 17 15.679688 L 17 20.070313 C 17 23.894531 20.132813 27 24 27 C 27.867188 27 31 23.894531 31 20.070313 Z" fill="#ffb74d"/><path d="M 9.78125 19 C 7.34375 19.21875 5 20.929688 5 24.574219 L 5 26 L 6 27 L 6 24 L 12.308594 21.800781 L 14 24 L 14 27 L 15 26 L 15 24.796875 C 15 22.382813 14.863281 20.59375 12 20 L 11.515625 19 Z" fill="#424242"/><path d="M 37.78125 19 C 35.34375 19.21875 33 20.929688 33 24.574219 L 33 26 L 34 27 L 34 24 L 40.308594 21.800781 L 42 24 L 42 27 L 43 26 L 43 24.796875 C 43 22.382813 42.863281 20.59375 40 20 L 39.515625 19 Z" fill="#424242"/><path d="M 24 8 C 19.140625 8 16 12.3125 16 16.171875 L 16 18 L 18 20 L 18 16 L 27.199219 13 L 30 16 L 30 20 L 32 18 L 32 17.191406 C 32 13.972656 31.171875 10.386719 27.199219 9.597656 L 26.398438 8 Z" fill="#424242"/><path d="M 26 19 C 26 19.550781 26.449219 20 27 20 C 27.550781 20 28 19.550781 28 19 C 28 18.449219 27.550781 18 27 18 C 26.449219 18 26 18.449219 26 19" fill="#784719"/><path d="M 20 19 C 20 19.550781 20.449219 20 21 20 C 21.550781 20 22 19.550781 22 19 C 22 18.449219 21.550781 18 21 18 C 20.449219 18 20 18.449219 20 19" fill="#784719"/></svg>