<svg xmlns="http://www.w3.org/2000/svg" viewBox="0 0 48 48" width="50" height="50" fill="#666"><path d="M 20 6 L 6 42 L 42 28 Z" fill="#ffd54f"/><path d="M 15 32 C 12.238281 32 10 34.238281 10 37 C 10 38.144531 10.402344 39.191406 11.054688 40.035156 L 19.957031 36.570313 C 19.738281 34.015625 17.613281 32 15 32 Z" fill="#ff3d00"/><path d="M 25 18.5 C 25 20.984375 22.984375 23 20.5 23 C 18.015625 23 16 20.984375 16 18.5 C 16 16.015625 18.015625 14 20.5 14 C 22.984375 14 25 16.015625 25 18.5 Z" fill="#ff3d00"/><path d="M 28 20 C 26.34375 20 25 21.34375 25 23.003906 C 25 24.65625 26.34375 26 28 26 C 29.65625 26 31 24.65625 31 23.003906 C 31 21.34375 29.65625 20 28 20 Z M 28 24.5 C 27.171875 24.5 26.5 23.828125 26.5 23 C 26.5 22.171875 27.171875 21.5 28 21.5 C 28.828125 21.5 29.5 22.171875 29.5 23 C 29.5 23.828125 28.828125 24.5 28 24.5 Z" fill="#3e2723"/><path d="M 16 25 C 14.34375 25 13 26.34375 13 28.003906 C 13 29.65625 14.34375 31 16 31 C 17.65625 31 19 29.65625 19 28.003906 C 19 26.34375 17.65625 25 16 25 Z M 16 29.5 C 15.171875 29.5 14.5 28.828125 14.5 28 C 14.5 27.171875 15.171875 26.5 16 26.5 C 16.828125 26.5 17.5 27.171875 17.5 28 C 17.5 28.828125 16.828125 29.5 16 29.5 Z" fill="#3e2723"/><path d="M 29.871094 32.523438 C 29.484375 31.488281 28.332031 30.964844 27.296875 31.351563 C 26.261719 31.738281 21.058594 34.648438 21.445313 35.683594 C 21.476563 35.773438 21.570313 35.84375 21.683594 35.902344 L 29.917969 32.699219 C 29.902344 32.640625 29.894531 32.578125 29.871094 32.523438 Z" fill="#8d6e63"/><path d="M 25.1875 34.277344 C 24.703125 32.757813 24.882813 31.386719 24.882813 31.386719 C 24.914063 31.34375 24.914063 31.289063 24.910156 31.238281 C 24.960938 31.050781 24.972656 30.847656 24.894531 30.648438 C 24.703125 30.128906 24.125 29.867188 23.609375 30.0625 C 23.476563 30.113281 23.363281 30.1875 23.265625 30.28125 C 21.496094 31.394531 20.679688 33.644531 21.445313 35.683594 C 21.480469 35.773438 21.53125 35.855469 21.570313 35.941406 L 25.273438 34.503906 C 25.246094 34.429688 25.214844 34.355469 25.1875 34.277344 Z" fill="#8d6e63"/><path d="M 26 28.59375 C 26 28.59375 25.464844 23.222656 20 25.152344 C 20.589844 30.742188 26 28.59375 26 28.59375 Z" fill="#689f38"/><path d="M 33.59375 25 C 33.59375 25 28.222656 25.535156 30.152344 31 C 35.742188 30.410156 33.59375 25 33.59375 25 Z" fill="#689f38"/><path d="M 41.859375 27.1875 C 40.929688 25.007813 38.78125 18.648438 34.070313 13.9375 C 29.492188 9.355469 23.429688 6.835938 20.742188 6.105469 C 19.902344 5.878906 19.714844 5.832031 19.386719 6.667969 C 19.117188 7.34375 18.355469 9.65625 17.980469 10.738281 C 17.917969 10.921875 17.882813 11.070313 17.859375 11.207031 C 26.554688 14.558594 33.46875 21.480469 36.8125 30.183594 C 36.835938 30.175781 36.859375 30.179688 36.886719 30.171875 C 37.578125 29.949219 40.355469 28.980469 41.09375 28.734375 C 41.828125 28.484375 42.230469 28.0625 41.859375 27.1875 Z" fill="#ff9800"/></svg>