<svg xmlns="http://www.w3.org/2000/svg" viewBox="0 0 48 48" width="50" height="50" fill="#666"><path d="M40,45H8V3h22l10,10V45z" fill="#90caf9"/><path d="M38.5,14H29V4.5L38.5,14z" fill="#e1f5fe"/><path d="M14,20h20v2H14V20z" fill="#1976d2"/><path d="M14,16h20v2H14V16z" fill="#1976d2"/><path d="M14,10h13v4H14V10z" fill="#1976d2"/><path d="M14,24h20v2H14V24z" fill="#1976d2"/><path d="M17.6,40.6l-0.9-0.8c0,0,0.5-0.5,1.1-1.3c-0.8-0.9-1.3-2.2-1.3-3.2c0-3.6,2.2-5.8,3.7-5.8 c1.2,0,1.8,0.9,1.8,2.6c0,2.1-1.3,4.4-2.5,6.1c0,0,0.1,0,0.1,0c1,0,1.9-0.6,2.7-1.3c-0.1-0.4-0.1-0.8-0.1-1.2 c0-1.9,0.8-3.3,2.1-3.3c0.7,0,1.2,0.5,1.2,1.3c0,0.9-0.7,2.4-1.8,3.6c0.1,0.2,0.2,0.2,0.3,0.2c0.4,0,0.9-0.8,1.3-1.4 c0.5-0.8,1-1.5,1.7-1.5c0.3,0,0.5,0.1,0.7,0.3c0.4,0.4,0.4,0.9,0.4,1.4c0,0.1,0,0.2,0,0.3c0.1-0.1,0.2-0.3,0.3-0.4 c0.5-0.6,1.2-1.6,2.6-1.6v1.2c-0.7,0-1.1,0.4-1.6,1.1c-0.4,0.5-0.8,1.1-1.5,1.1c-0.3,0-0.5-0.1-0.7-0.3c-0.3-0.3-0.3-0.9-0.3-1.4 c0-0.1,0-0.2,0-0.4c-0.1,0.2-0.4,0.5-0.5,0.8c-0.6,0.9-1.3,1.9-2.3,1.9c-0.5,0-0.9-0.2-1.1-0.6c-0.9,0.8-2,1.3-3.1,1.3 c-0.3,0-0.6-0.1-0.9-0.2C18.2,40,17.6,40.5,17.6,40.6z M20.3,30.6c-0.7,0-2.5,1.4-2.5,4.6c0,0.7,0.3,1.7,0.8,2.3 c1.1-1.5,2.3-3.6,2.3-5.5C20.9,30.6,20.5,30.6,20.3,30.6z M24.4,33.4c-0.4,0.1-0.8,0.9-0.8,2.1c0,0,0.1-0.1,0.1-0.1 C24.4,34.3,24.4,33.6,24.4,33.4z" fill="#1565c0"/></svg>