<svg xmlns="http://www.w3.org/2000/svg" viewBox="0 0 48 48" width="50" height="50" fill="#666"><path d="M 23 9 L 25 9 L 25 39 L 23 39 Z" fill="#cfd8dc"/><path d="M 9 23 L 39 23 L 39 25 L 9 25 Z" fill="#cfd8dc"/><path d="M 33.898438 12.6875 L 35.3125 14.101563 L 14.101563 35.3125 L 12.6875 33.898438 Z" fill="#cfd8dc"/><path d="M 35.3125 33.898438 L 33.898438 35.3125 L 12.6875 14.101563 L 14.101563 12.6875 Z" fill="#cfd8dc"/><path d="M 25 23 L 23 23 L 17 43 L 19 43 L 24 27 L 29 43 L 31.300781 43 Z" fill="#607d8b"/><path d="M 26 24 C 26 25.105469 25.105469 26 24 26 C 22.894531 26 22 25.105469 22 24 C 22 22.894531 22.894531 22 24 22 C 25.105469 22 26 22.894531 26 24 Z" fill="#607d8b"/><path d="M 33 43 L 29 43 L 29 41 L 31 41 C 32.101563 41 33 41.898438 33 43 Z" fill="#607d8b"/><path d="M 19 43 L 15 43 C 15 41.898438 15.898438 41 17 41 L 19 41 Z" fill="#607d8b"/><path d="M 24 8 C 15.199219 8 8 15.199219 8 24 C 8 32.800781 15.199219 40 24 40 C 32.800781 40 40 32.800781 40 24 C 40 15.199219 32.800781 8 24 8 Z M 24 38 C 16.300781 38 10 31.699219 10 24 C 10 16.300781 16.300781 10 24 10 C 31.699219 10 38 16.300781 38 24 C 38 31.699219 31.699219 38 24 38 Z" fill="#2196f3"/><path d="M 27 9 C 27 10.65625 25.65625 12 24 12 C 22.34375 12 21 10.65625 21 9 C 21 7.34375 22.34375 6 24 6 C 25.65625 6 27 7.34375 27 9 Z" fill="#ff5722"/><path d="M 27 39 C 27 40.65625 25.65625 42 24 42 C 22.34375 42 21 40.65625 21 39 C 21 37.34375 22.34375 36 24 36 C 25.65625 36 27 37.34375 27 39 Z" fill="#ff5722"/><path d="M 42 24 C 42 25.65625 40.65625 27 39 27 C 37.34375 27 36 25.65625 36 24 C 36 22.34375 37.34375 21 39 21 C 40.65625 21 42 22.34375 42 24 Z" fill="#ff5722"/><path d="M 12 24 C 12 25.65625 10.65625 27 9 27 C 7.34375 27 6 25.65625 6 24 C 6 22.34375 7.34375 21 9 21 C 10.65625 21 12 22.34375 12 24 Z" fill="#ff5722"/><path d="M 38 14 C 38 15.65625 36.65625 17 35 17 C 33.34375 17 32 15.65625 32 14 C 32 12.34375 33.34375 11 35 11 C 36.65625 11 38 12.34375 38 14 Z" fill="#ff5722"/><path d="M 16 14 C 16 15.65625 14.65625 17 13 17 C 11.34375 17 10 15.65625 10 14 C 10 12.34375 11.34375 11 13 11 C 14.65625 11 16 12.34375 16 14 Z" fill="#ff5722"/><path d="M 38 34 C 38 35.65625 36.65625 37 35 37 C 33.34375 37 32 35.65625 32 34 C 32 32.34375 33.34375 31 35 31 C 36.65625 31 38 32.34375 38 34 Z" fill="#ff5722"/><path d="M 16 34 C 16 35.65625 14.65625 37 13 37 C 11.34375 37 10 35.65625 10 34 C 10 32.34375 11.34375 31 13 31 C 14.65625 31 16 32.34375 16 34 Z" fill="#ff5722"/><path d="M 24 7.5 C 23.199219 7.5 22.5 8.199219 22.5 9 L 25.5 9 C 25.5 8.199219 24.800781 7.5 24 7.5 Z" fill="#3f51b5"/><path d="M 24 37.5 C 23.199219 37.5 22.5 38.199219 22.5 39 L 25.5 39 C 25.5 38.199219 24.800781 37.5 24 37.5 Z" fill="#3f51b5"/><path d="M 39 22.5 C 38.199219 22.5 37.5 23.199219 37.5 24 L 40.5 24 C 40.5 23.199219 39.800781 22.5 39 22.5 Z" fill="#3f51b5"/><path d="M 9 22.699219 C 8.199219 22.699219 7.5 23.398438 7.5 24.199219 L 10.5 24.199219 C 10.5 23.300781 9.800781 22.699219 9 22.699219 Z" fill="#3f51b5"/><path d="M 35 12.5 C 34.199219 12.5 33.5 13.199219 33.5 14 L 36.5 14 C 36.5 13.199219 35.800781 12.5 35 12.5 Z" fill="#3f51b5"/><path d="M 13 12.699219 C 12.199219 12.699219 11.5 13.398438 11.5 14.199219 L 14.5 14.199219 C 14.5 13.300781 13.800781 12.699219 13 12.699219 Z" fill="#3f51b5"/><path d="M 35 32.5 C 34.199219 32.5 33.5 33.199219 33.5 34 L 36.5 34 C 36.5 33.199219 35.800781 32.5 35 32.5 Z" fill="#3f51b5"/><path d="M 13 32.5 C 12.199219 32.5 11.5 33.199219 11.5 34 L 14.5 34 C 14.5 33.199219 13.800781 32.5 13 32.5 Z" fill="#3f51b5"/></svg>