<svg xmlns="http://www.w3.org/2000/svg" viewBox="0 0 48 48" width="50" height="50" fill="#666"><path d="M 5 7 L 43 7 L 43 33 L 5 33 Z" fill="#546e7a"/><path d="M 7 9 L 41 9 L 41 30 L 7 30 Z" fill="#bbdefb"/><path d="M 19 22.5 C 19 23.300781 18.300781 24 17.5 24 C 16.699219 24 16 23.300781 16 22.5 C 16 21.699219 16.699219 21 17.5 21 C 18.300781 21 19 21.699219 19 22.5 M 32 22.5 C 32 21.699219 31.300781 21 30.5 21 C 29.699219 21 29 21.699219 29 22.5 C 29 23.300781 29.699219 24 30.5 24 C 31.300781 24 32 23.300781 32 22.5" fill="#ffa726"/><path d="M 27.800781 31 L 24 31.800781 L 20.300781 31 C 20.300781 31 12 32.5 12 41 L 36 41 C 36 32.601563 27.800781 31 27.800781 31" fill="#8bc34a"/><path d="M 24 33 C 20.898438 33 20 31 20 31 L 20 27 L 28 27 L 28 31 C 28 31 27.101563 33 24 33 Z" fill="#ff9800"/><path d="M 24 35 C 27.101563 35 29 34 29.898438 31.699219 C 29 31.300781 28.300781 31.101563 27.898438 31 C 27.199219 32 26.101563 32.898438 23.898438 32.898438 C 21.699219 32.898438 20.800781 32.101563 19.898438 31 C 19.5 31.101563 18.800781 31.300781 17.898438 31.699219 C 18.898438 33.898438 20.898438 35 24 35 Z" fill="#33691e"/><path d="M 27.199219 12.601563 L 26.398438 11 L 24 11 C 19.101563 11 16 15.300781 16 19.199219 L 16 21 L 17 22 C 17 25.800781 20 29 20 29 L 28 29 C 28 29 31 25.800781 31 22 L 32 21 L 32 20.199219 C 32 17 31.199219 13.398438 27.199219 12.601563 Z" fill="#424242"/></svg>