<svg xmlns="http://www.w3.org/2000/svg" viewBox="0 0 48 48" width="50" height="50" fill="#666"><path d="M24,16c-3.3,0-6-2.7-6-6c0-3.3,2.7-6,6-6c3.3,0,6,2.7,6,6C30,13.3,27.3,16,24,16" fill="#ffb74d"/><path d="M35,28c-0.5,0-1-0.2-1.4-0.6l-5.7-5.7c-0.5-0.2-2-0.7-3.9-0.7c-1.9,0-3.3,0.5-3.9,0.7l-5.7,5.7 c-0.8,0.8-2,0.8-2.8,0c-0.8-0.8-0.8-2,0-2.8l6-6c0.2-0.2,0.3-0.3,0.5-0.4c0.2-0.1,2.5-1.2,5.9-1.2c3.4,0,5.6,1.1,5.9,1.2 c0.2,0.1,0.4,0.2,0.5,0.4l6,6c0.8,0.8,0.8,2,0,2.8C36,27.8,35.5,28,35,28z" fill="#ffb74d"/><path d="M18,20h12v12H18V20z" fill="#ffb74d"/><path d="M19.5,43.1c-0.7,0-1.5-0.3-2-0.9l-4-4.1c-0.7-0.9-0.7-2.3,0-3.2c0,0,0.4-1.9,3.4-3.9 c1.9-1.2,4-3.3,5.1-2.4c1.1,0.9,1.8,3.4,0.9,4.4l-4.3,3.5l2.7,2.5c0.9,1.1,0.7,2.6-0.4,3.5C20.6,42.9,20.1,43.1,19.5,43.1z" fill="#ffb74d"/><path d="M28.5,43c0.7,0,1.5-0.3,2-0.9l4-4c0.7-0.9,0.7-2.3,0-3.2c0,0-0.4-1.9-3.4-3.9s-4-3.3-5.1-2.4 c-1.1,0.9-1.8,3.4-0.9,4.4l4.3,3.5l-2.7,2.4c-0.9,1.1-0.7,2.7,0.4,3.5C27.4,42.8,27.9,43,28.5,43z" fill="#ffb74d"/><path d="M30,27H18c0,0-1,2-1,4c2,0,4,3,4,3s0,1,3,1s3-1,3-1s2-3,4-3C31,29,30,27,30,27z" fill="#2196f3"/><path d="M30.4,28H28c-0.6,0-1,0.4-1,1s0.4,1,1,1h2.9C30.8,29.2,30.6,28.5,30.4,28z" fill="#1565c0"/><path d="M17.6,28H20c0.6,0,1,0.4,1,1s-0.4,1-1,1h-2.9C17.2,29.2,17.4,28.5,17.6,28z" fill="#1565c0"/></svg>