<svg xmlns="http://www.w3.org/2000/svg" viewBox="0 0 48 48" width="50" height="50" fill="#666"><path d="M 40 45 L 8 45 L 8 3 L 30 3 L 40 13 Z" fill="#90caf9"/><path d="M 38.5 14 L 29 14 L 29 4.5 Z" fill="#e1f5fe"/><path d="M 14 9 L 25 9 L 25 14 L 14 14 Z" fill="#1565c0"/><path d="M 34 26 L 18 26 L 18 24 L 34 24 Z M 34 20 L 18 20 L 18 22 L 34 22 Z M 34 32 L 18 32 L 18 34 L 34 34 Z M 34 36 L 18 36 L 18 38 L 34 38 Z M 34 28 L 18 28 L 18 30 L 34 30 Z M 14 22 L 16 22 L 16 20 L 14 20 Z M 14 26 L 16 26 L 16 24 L 14 24 Z M 14 38 L 16 38 L 16 36 L 14 36 Z M 14 30 L 16 30 L 16 28 L 14 28 Z M 14 34 L 16 34 L 16 32 L 14 32 Z" fill="#1565c0"/></svg>