<svg xmlns="http://www.w3.org/2000/svg" viewBox="0 0 48 48" width="50" height="50" fill="#666"><path fill="#90CAF9" d="M14.3,3c0,0-1.3,6.5-1.3,11s6.5,11,11,11c4.5,0,11-5.5,11-11S33.7,3,33.7,3H14.3z"/><path fill="#90CAF9" d="M32,45H16v-1c0,0,7-2,7-4s2-2,2,0s7,4,7,4V45z"/><path fill="#90CAF9" d="M23,20h2v20h-2V20z"/><path fill="#E53935" d="M13.1,11c-0.1,1-0.1,2.1-0.1,3c0,4.5,4,11,11,11c7,0,11-5.5,11-11c0-1,0-2-0.1-3H13.1z"/><path fill="#FAFAFA" d="M18,11c0.2-2.2,0.5-4.5,0.8-6h-2.4c-0.3,1.5-0.6,3.8-0.8,6H18z"/><path fill="#FF8A80" d="M18,11h-2.4c-0.1,1-0.2,2.1-0.2,3c0,2.5,2,6.2,4.6,8c-1.6-2.2-2.1-5.8-2.1-8C17.9,13.1,18,12,18,11z"/></svg>