<svg xmlns="http://www.w3.org/2000/svg" viewBox="0 0 48 48" width="50" height="50" fill="#666"><path fill="#dd2c00" d="M39 43L32.21 43 28.32 47.85 21.92 33 34.39 33z"/><path fill="#ff3d00" d="M27.18 33L20.68 47.85 16.79 43 10 43 14.61 33z"/><path d="M40.325,22.596c-0.547-0.993-0.547-2.198,0-3.191l0.262-0.476c0.855-1.555,0.333-3.509-1.187-4.428 l-0.465-0.282c-0.97-0.588-1.572-1.63-1.596-2.763l-0.012-0.544c-0.036-1.775-1.466-3.205-3.241-3.241l-0.544-0.012 c-1.134-0.023-2.177-0.626-2.763-1.596l-0.282-0.465c-0.919-1.519-2.873-2.042-4.428-1.187l-0.476,0.262 c-0.993,0.547-2.198,0.547-3.191,0l-0.475-0.261C20.372,3.557,18.419,4.08,17.5,5.599l-0.282,0.465 c-0.588,0.97-1.63,1.572-2.763,1.596l-0.544,0.012c-1.775,0.036-3.205,1.466-3.241,3.241l-0.012,0.544 c-0.023,1.134-0.626,2.177-1.596,2.763l-0.465,0.282c-1.518,0.919-2.042,2.873-1.187,4.428l0.262,0.476 c0.547,0.993,0.547,2.198,0,3.191l-0.261,0.475c-0.855,1.555-0.333,3.509,1.187,4.428l0.465,0.282 c0.97,0.588,1.572,1.63,1.596,2.763l0.012,0.544c0.036,1.775,1.466,3.205,3.241,3.241l0.544,0.012 c1.134,0.023,2.177,0.626,2.763,1.596l0.282,0.465c0.919,1.518,2.873,2.042,4.428,1.187l0.476-0.262 c0.993-0.547,2.198-0.547,3.191,0l0.476,0.262c1.555,0.855,3.509,0.333,4.428-1.187l0.282-0.465c0.588-0.97,1.63-1.572,2.763-1.596 l0.544-0.012c1.775-0.036,3.205-1.466,3.241-3.241l0.012-0.544c0.023-1.134,0.626-2.177,1.596-2.763l0.465-0.282 c1.518-0.919,2.042-2.873,1.187-4.428L40.325,22.596z" fill="#ffa000"/><circle cx="23.999" cy="21" r="12" fill="#ffb300"/><path d="M24,34.001c-7.168,0-13-5.832-13-13S16.831,8,24,8s13,5.832,13,13S31.168,34.001,24,34.001z M24,10 c-6.066,0-11,4.935-11,11s4.935,11,11,11s11-4.935,11-11S30.065,10,24,10z" fill="#ffca28"/><path fill="#ffecb3" d="M22.768 27.006L18.057 22.47 19.443 21.03 22.676 24.142 30.032 16.095 31.508 17.445z"/></svg>