<svg xmlns="http://www.w3.org/2000/svg" viewBox="0 0 48 48" width="50" height="50" fill="#666"><path d="M 6 10 C 6 7.789063 7.789063 6 10 6 L 38 6 C 40.210938 6 42 7.789063 42 10 L 42 38 C 42 40.210938 40.210938 42 38 42 L 10 42 C 7.789063 42 6 40.210938 6 38 Z" fill="#03a9f4"/><path d="M 20.015625 19.175781 L 18.015625 19.175781 L 18.015625 23.609375 L 19.988281 23.609375 C 20.535156 23.609375 20.957031 23.429688 21.257813 23.070313 C 21.558594 22.714844 21.707031 22.191406 21.707031 21.507813 C 21.707031 20.796875 21.554688 20.234375 21.246094 19.8125 C 20.941406 19.394531 20.53125 19.179688 20.015625 19.175781 Z" fill="#020f16"/><path d="M 9 9 L 9 39 L 39 39 L 39 9 Z M 23.363281 24.789063 C 22.539063 25.597656 21.394531 26 19.929688 26 L 18.015625 26 L 18.015625 31 L 15.144531 31 L 15.144531 16.78125 L 19.988281 16.78125 C 21.394531 16.78125 22.515625 17.21875 23.351563 18.089844 C 24.1875 18.960938 24.605469 20.09375 24.605469 21.488281 C 24.605469 22.882813 24.191406 23.980469 23.363281 24.789063 Z M 32.683594 30.335938 C 31.972656 30.910156 31.039063 31.195313 29.890625 31.195313 C 29.113281 31.195313 28.429688 31.042969 27.839844 30.742188 C 27.246094 30.4375 26.78125 30.015625 26.445313 29.476563 C 26.109375 28.9375 25.941406 28.351563 25.941406 27.726563 L 28.570313 27.726563 C 28.585938 28.210938 28.695313 28.570313 28.90625 28.8125 C 29.117188 29.054688 29.464844 29.171875 29.945313 29.171875 C 30.6875 29.171875 31.058594 28.839844 31.058594 28.167969 C 31.058594 27.933594 30.949219 27.714844 30.722656 27.519531 C 30.496094 27.320313 30 27.050781 29.226563 26.714844 C 28.085938 26.25 27.304688 25.773438 26.875 25.277344 C 26.449219 24.78125 26.234375 24.167969 26.234375 23.429688 C 26.234375 22.507813 26.570313 21.742188 27.238281 21.140625 C 27.902344 20.539063 28.789063 20.238281 29.886719 20.238281 C 31.046875 20.238281 31.972656 20.539063 32.671875 21.136719 C 33.367188 21.734375 33.714844 22.539063 33.714844 23.546875 L 30.953125 23.546875 C 30.953125 22.6875 30.59375 22.257813 29.878906 22.257813 C 29.585938 22.257813 29.34375 22.351563 29.15625 22.53125 C 28.964844 22.714844 28.871094 22.96875 28.871094 23.292969 C 28.871094 23.527344 28.976563 23.734375 29.183594 23.914063 C 29.394531 24.09375 29.882813 24.347656 30.660156 24.679688 C 31.785156 25.097656 32.582031 25.5625 33.046875 26.074219 C 33.515625 26.585938 33.746094 27.246094 33.746094 28.058594 C 33.746094 29.003906 33.390625 29.761719 32.683594 30.335938 Z" fill="#020f16"/></svg>