<svg xmlns="http://www.w3.org/2000/svg" viewBox="0 0 48 48" width="50" height="50" fill="#666"><path d="M 40 45 L 8 45 L 8 3 L 30 3 L 40 13 Z" fill="#ffa000"/><path d="M 38.5 14 L 29 14 L 29 4.5 Z" fill="#fff3e0"/><path d="M 18.8125 29.589844 L 18.8125 33.089844 L 16.800781 33.089844 L 16.800781 23.136719 L 20.191406 23.136719 C 21.175781 23.136719 21.960938 23.441406 22.546875 24.054688 C 23.132813 24.664063 23.425781 25.457031 23.425781 26.433594 C 23.425781 27.40625 23.136719 28.175781 22.558594 28.742188 C 21.980469 29.308594 21.175781 29.589844 20.152344 29.589844 Z M 18.8125 27.914063 L 20.191406 27.914063 C 20.574219 27.914063 20.871094 27.789063 21.082031 27.539063 C 21.289063 27.289063 21.394531 26.925781 21.394531 26.445313 C 21.394531 25.949219 21.289063 25.550781 21.074219 25.261719 C 20.859375 24.964844 20.570313 24.816406 20.214844 24.8125 L 18.8125 24.8125 Z" fill="#fff"/><path d="M 28.96875 30.480469 C 28.96875 30.074219 28.867188 29.765625 28.660156 29.558594 C 28.453125 29.351563 28.074219 29.136719 27.527344 28.914063 C 26.53125 28.535156 25.8125 28.09375 25.375 27.585938 C 24.9375 27.074219 24.71875 26.476563 24.71875 25.78125 C 24.71875 24.945313 25.015625 24.269531 25.609375 23.761719 C 26.203125 23.253906 26.960938 23 27.875 23 C 28.484375 23 29.03125 23.128906 29.511719 23.386719 C 29.988281 23.644531 30.355469 24.007813 30.613281 24.476563 C 30.871094 24.945313 31 25.480469 31 26.078125 L 28.996094 26.078125 C 28.996094 25.613281 28.898438 25.257813 28.699219 25.015625 C 28.503906 24.769531 28.214844 24.648438 27.84375 24.648438 C 27.492188 24.648438 27.21875 24.75 27.023438 24.960938 C 26.828125 25.167969 26.730469 25.445313 26.730469 25.796875 C 26.730469 26.070313 26.839844 26.316406 27.058594 26.539063 C 27.277344 26.757813 27.660156 26.988281 28.21875 27.226563 C 29.191406 27.574219 29.894531 28.007813 30.335938 28.515625 C 30.773438 29.027344 30.992188 29.675781 30.992188 30.464844 C 30.992188 31.332031 30.71875 32.007813 30.167969 32.496094 C 29.613281 32.984375 28.863281 33.226563 27.917969 33.226563 C 27.273438 33.226563 26.6875 33.09375 26.160156 32.832031 C 25.632813 32.566406 25.21875 32.1875 24.921875 31.695313 C 24.621094 31.203125 24.472656 30.621094 24.472656 29.953125 L 26.488281 29.953125 C 26.488281 30.527344 26.601563 30.945313 26.824219 31.203125 C 27.046875 31.464844 27.414063 31.597656 27.917969 31.597656 C 28.617188 31.59375 28.96875 31.222656 28.96875 30.480469 Z" fill="#fff"/></svg>