<svg xmlns="http://www.w3.org/2000/svg" viewBox="0 0 48 48" width="50" height="50" fill="#666"><path d="M 36.5 44 L 11.5 44 C 10.398438 44 9.699219 42.800781 10.199219 41.800781 L 13 37 L 35 37 L 37.699219 41.800781 C 38.300781 42.800781 37.601563 44 36.5 44 Z" fill="#455a64"/><path d="M 42 23 C 42 32.941406 33.941406 41 24 41 C 14.058594 41 6 32.941406 6 23 C 6 13.058594 14.058594 5 24 5 C 33.941406 5 42 13.058594 42 23 Z" fill="#78909c"/><path d="M 24 35 C 17.398438 35 12 29.601563 12 23 C 12 16.398438 17.398438 11 24 11 C 30.601563 11 36 16.398438 36 23 C 36 29.601563 30.601563 35 24 35 Z" fill="#455a64"/><path d="M 33 23 C 33 27.96875 28.96875 32 24 32 C 19.03125 32 15 27.96875 15 23 C 15 18.03125 19.03125 14 24 14 C 28.96875 14 33 18.03125 33 23 Z" fill="#42a5f5"/><path d="M 28.800781 20 C 27.601563 18.601563 25.800781 17.800781 24 17.800781 C 22.199219 17.800781 20.398438 18.601563 19.199219 20 C 18.699219 20.5 18.800781 21.300781 19.300781 21.800781 C 19.800781 22.300781 20.601563 22.199219 21.101563 21.699219 C 22.601563 20 25.398438 20 26.898438 21.699219 C 27.199219 22 27.5 22.101563 27.898438 22.101563 C 28.199219 22.101563 28.5 22 28.800781 21.800781 C 29.199219 21.398438 29.300781 20.5 28.800781 20 Z" fill="#90caf9"/></svg>