<svg xmlns="http://www.w3.org/2000/svg" viewBox="0 0 48 48" width="50" height="50" fill="#666"><path d="M 31.398438 40 L 28.699219 40 L 28.199219 42 L 26 42 L 29.101563 32 L 30.898438 32 L 34 42 L 31.898438 42 Z M 29.101563 38.300781 L 31 38.300781 L 30 34.699219 Z M 37 40.300781 L 41 40.300781 L 41 42 L 35 42 L 35 32 L 37 32 Z M 14 33.699219 L 11.5 33.699219 L 11.5 42 L 9.5 42 L 9.5 33.699219 L 7 33.699219 L 7 32 L 14 32 Z M 25 42 L 23 42 L 23 32 L 25 32 Z M 18 38.398438 L 17 38.398438 L 17 42 L 15 42 L 15 32 L 18.199219 32 C 19.199219 32 20 32.300781 20.5 32.800781 C 21 33.300781 21.300781 34.101563 21.300781 35 C 21.300781 36.300781 20.800781 37.199219 19.898438 37.800781 L 21.601563 41.898438 L 21.601563 42 L 19.398438 42 Z M 17 36.699219 L 18.101563 36.699219 C 18.5 36.699219 18.800781 36.601563 19 36.300781 C 19.199219 36 19.300781 35.699219 19.300781 35.199219 C 19.300781 34.199219 18.898438 33.699219 18.101563 33.699219 L 17 33.699219 Z" fill="#ff6d00"/><path d="M 41.101563 29 L 6.898438 29 C 5.898438 29 5 28.199219 5 27.101563 L 5 7.898438 C 5 6.800781 5.800781 6 6.898438 6 L 41.199219 6 C 42.199219 6 43.101563 6.800781 43.101563 7.898438 L 43.101563 27.199219 C 43 28.199219 42.199219 29 41.101563 29 Z" fill="#ffc107"/><path d="M 27 18 L 27 6 L 21 6 L 21 18 L 16 18 L 24 26 L 32 18 Z" fill="#fff"/></svg>