<svg xmlns="http://www.w3.org/2000/svg" viewBox="0 0 48 48" width="50" height="50" fill="#666"><path d="M 36 44 L 8 44 L 8 8 L 28 8 L 36 16 Z" fill="#42a5f5"/><path d="M 40 40 L 12 40 L 12 4 L 32 4 L 40 12 Z" fill="#90caf9"/><path d="M 38.5 13 L 31 13 L 31 5.5 Z" fill="#e1f5fe"/><path d="M 23.398438 29.898438 C 23.398438 29.699219 23.398438 29.5 23.5 29.300781 C 23.601563 29.101563 23.699219 29 23.800781 28.800781 C 23.898438 28.601563 24.101563 28.601563 24.300781 28.5 C 24.5 28.398438 24.699219 28.398438 24.898438 28.398438 C 25.101563 28.398438 25.398438 28.398438 25.601563 28.5 C 25.800781 28.601563 26 28.699219 26.101563 28.800781 C 26.199219 28.898438 26.300781 29.101563 26.398438 29.300781 C 26.5 29.5 26.5 29.699219 26.5 29.898438 C 26.5 30.101563 26.5 30.300781 26.398438 30.5 C 26.300781 30.699219 26.199219 30.800781 26.101563 31 C 26 31.199219 25.800781 31.199219 25.601563 31.300781 C 25.398438 31.398438 25.199219 31.398438 24.898438 31.398438 C 24.601563 31.398438 24.398438 31.398438 24.300781 31.300781 C 24.199219 31.199219 23.898438 31.101563 23.800781 31 C 23.699219 30.898438 23.601563 30.699219 23.5 30.5 C 23.398438 30.300781 23.398438 30.101563 23.398438 29.898438 Z M 26.101563 26.800781 L 23.800781 26.800781 L 23.398438 17 L 26.398438 17 Z" fill="#1976d2"/></svg>