<svg xmlns="http://www.w3.org/2000/svg" viewBox="0 0 48 48" width="50" height="50" fill="#666"><path d="M25,21h-2c0-7.4,4.1-7.7,7.4-7.9C33.6,12.8,36,12.6,36,7h2c0,7.5-4.1,7.8-7.4,8 C27.3,15.3,25,15.5,25,21z" fill="#546e7a"/><path d="M2,21h44v20H2V21z" fill="#8cbcd6"/><path d="M4,23h4v4H4V23z" fill="#e1f5fe"/><path d="M10,23h4v4h-4V23z" fill="#e1f5fe"/><path d="M16,23h4v4h-4V23z" fill="#e1f5fe"/><path d="M22,23h4v4h-4V23z" fill="#e1f5fe"/><path d="M28,23h4v4h-4V23z" fill="#e1f5fe"/><path d="M34,23h4v4h-4V23z" fill="#e1f5fe"/><path d="M40,23h4v4h-4V23z" fill="#e1f5fe"/><path d="M4,35h4v4H4V35z" fill="#e1f5fe"/><path d="M10,35h4v4h-4V35z" fill="#e1f5fe"/><path d="M16,35h16v4H16V35z" fill="#e1f5fe"/><path d="M34,35h4v4h-4V35z" fill="#e1f5fe"/><path d="M40,35h4v4h-4V35z" fill="#e1f5fe"/><path d="M4,29h7v4H4V29z" fill="#e1f5fe"/><path d="M13,29h4v4h-4V29z" fill="#e1f5fe"/><path d="M19,29h4v4h-4V29z" fill="#e1f5fe"/><path d="M25,29h4v4h-4V29z" fill="#e1f5fe"/><path d="M31,29h4v4h-4V29z" fill="#e1f5fe"/><path d="M37,29h7v4h-7V29z" fill="#e1f5fe"/></svg>