<svg xmlns="http://www.w3.org/2000/svg" viewBox="0 0 48 48" width="50" height="50" fill="#666"><g fill="#4caf50"><path d="M 19.5 13.398438 L 21.800781 9.300781 C 22.199219 8.5 23 8 24 8 C 25 8 25.800781 8.5 26.300781 9.300781 L 33.601563 22.300781 L 37.101563 20.300781 L 29.800781 7.300781 C 28.601563 5.300781 26.398438 4 24 4 C 21.601563 4 19.398438 5.300781 18.199219 7.398438 L 15.898438 11.398438 Z"/><path d="M 41 27.300781 L 37.5 29.300781 L 39.699219 33.199219 C 40.199219 34 39.800781 34.800781 39.699219 35 C 39.5 35.300781 39.101563 35.898438 38.101563 35.898438 L 23 35.898438 L 23 39.898438 L 38.101563 39.898438 C 40.199219 39.898438 42.101563 38.800781 43.101563 37 C 44.101563 35.199219 44.199219 33 43.101563 31.199219 Z"/><path d="M 15 36 L 9.898438 36 C 9 36 8.5 35.398438 8.300781 35.101563 C 8.101563 34.800781 7.800781 34.101563 8.300781 33.300781 L 15.601563 20.398438 L 12.101563 18.398438 L 4.800781 31.398438 C 3.800781 33.199219 3.800781 35.398438 4.800781 37.199219 C 5.800781 39 7.699219 40.101563 9.800781 40.101563 L 15 40.101563 Z"/><path d="M 26 43 L 26 33 L 19 38 Z"/><path d="M 7.800781 19.800781 L 16.398438 24.800781 L 15.601563 16.300781 Z"/><path d="M 37.398438 24.800781 L 38.199219 16.300781 L 29.601563 21.300781 Z"/></g></svg>