<svg xmlns="http://www.w3.org/2000/svg" viewBox="0 0 48 48" width="50" height="50" fill="#666"><path d="M 1 38 L 47 38 L 47 40 L 1 40 Z" fill="#ff9800"/><path d="M 25 18 L 29 18 L 29 34 L 25 34 Z" fill="#ff9800"/><path d="M 31 18 L 35 18 L 35 34 L 31 34 Z" fill="#ff9800"/><path d="M 37 18 L 41 18 L 41 34 L 37 34 Z" fill="#ff9800"/><path d="M 19 18 L 23 18 L 23 34 L 19 34 Z" fill="#ff9800"/><path d="M 13 18 L 17 18 L 17 34 L 13 34 Z" fill="#ff9800"/><path d="M 7 18 L 11 18 L 11 34 L 7 34 Z" fill="#ff9800"/><path d="M 43 16 L 5 16 L 5 13 L 24 4 L 43 13 Z" fill="#ff9800"/><path d="M 5 34 L 43 34 L 43 36 L 5 36 Z" fill="#ff9800"/><path d="M 25 16 L 29 16 L 29 18 L 25 18 Z" fill="#ef6c00"/><path d="M 31 16 L 35 16 L 35 18 L 31 18 Z" fill="#ef6c00"/><path d="M 37 16 L 41 16 L 41 18 L 37 18 Z" fill="#ef6c00"/><path d="M 19 16 L 23 16 L 23 18 L 19 18 Z" fill="#ef6c00"/><path d="M 13 16 L 17 16 L 17 18 L 13 18 Z" fill="#ef6c00"/><path d="M 7 16 L 11 16 L 11 18 L 7 18 Z" fill="#ef6c00"/><path d="M 3 36 L 45 36 L 45 38 L 3 38 Z" fill="#ef6c00"/><path d="M 26 11 C 26 12.105469 25.105469 13 24 13 C 22.894531 13 22 12.105469 22 11 C 22 9.894531 22.894531 9 24 9 C 25.105469 9 26 9.894531 26 11 Z" fill="#ef6c00"/></svg>