<svg xmlns="http://www.w3.org/2000/svg" viewBox="0 0 48 48" width="50" height="50" fill="#666"><path d="M 38 17 C 38 9.199219 31.800781 3 24 3 C 16.199219 3 10 9.199219 10 17 C 10 25.199219 18 27.800781 18 33.601563 L 18 35 L 30 35 L 30 33.601563 C 30 27.800781 38 25.199219 38 17 Z" fill="#cddc39"/><path d="M 19.300781 8.898438 C 19.300781 8.898438 15.898438 16.601563 17.398438 21.699219 C 18.5 25.300781 22.300781 26.199219 24 24.898438 C 24.199219 26.398438 23.601563 27.699219 23.101563 29 L 26.101563 30.101563 C 28 24.5 24.800781 18.101563 22.898438 15.101563 C 27.398438 18.300781 28.699219 23.699219 28.699219 23.699219 C 29.101563 23.5 29.300781 23.101563 29.800781 22.601563 C 32.601563 19.199219 31.101563 11.300781 19.300781 8.898438 Z" fill="#388e3c"/><path d="M 18 34 L 18 39 C 18 40.898438 19.398438 42.5 21.199219 42.898438 C 21.601563 44.101563 22.699219 45 24 45 C 25.300781 45 26.5 44.101563 26.800781 42.898438 C 28.601563 42.5 30 40.898438 30 39 L 30 34 Z" fill="#388e3c"/><path d="M 30 39 L 18.398438 40.601563 C 18.699219 41.300781 19.300781 42 20 42.398438 L 29.398438 41.101563 C 29.800781 40.5 30 39.800781 30 39 Z" fill="#4caf50"/><path d="M 18 36.699219 L 18 38.699219 L 30 37 L 30 35 Z" fill="#4caf50"/></svg>