<svg xmlns="http://www.w3.org/2000/svg" viewBox="0 0 48 48" width="50" height="50" fill="#666"><path d="M36,4H26c0,1.1-0.9,2-2,2s-2-0.9-2-2H12C9.8,4,8,5.8,8,8v32c0,2.2,1.8,4,4,4h24c2.2,0,4-1.8,4-4V8 C40,5.8,38.2,4,36,4z" fill="#455a64"/><path d="M36,41H12c-0.6,0-1-0.4-1-1V8c0-0.6,0.4-1,1-1h24c0.6,0,1,0.4,1,1v32C37,40.6,36.6,41,36,41z" fill="#fff"/><path d="M26,4c0,1.1-0.9,2-2,2s-2-0.9-2-2h-7v4c0,1.1,0.9,2,2,2h14c1.1,0,2-0.9,2-2V4H26z" fill="#90a4ae"/><path d="M24,0c-2.2,0-4,1.8-4,4s1.8,4,4,4s4-1.8,4-4S26.2,0,24,0z M24,6c-1.1,0-2-0.9-2-2s0.9-2,2-2 s2,0.9,2,2S25.1,6,24,6z" fill="#90a4ae"/><path transform="rotate(-45.001 22.815 26.16)" fill="#ff9800" d="M16.944 23.059H28.686999999999998V29.259H16.944z"/><path fill="#ffc107" d="M16.472 28.119L15.741 31.041 17.947 33.247 20.856 32.503z"/><path fill="#37474f" d="M15.741 31.041L15 34 17.947 33.247z"/><path d="M32.7,19.1l-2.8-2.8c-0.4-0.4-1.1-0.4-1.6,0L27,17.6l4.4,4.4l1.3-1.3C33.1,20.3,33.1,19.6,32.7,19.1" fill="#e57373"/><path fill="#b0bec5" d="M24.776 19.816L27 17.6 31.4 22 29.16 24.2z"/></svg>