<svg xmlns="http://www.w3.org/2000/svg" viewBox="0 0 48 48" width="50" height="50" fill="#666"><path d="M25,14c-2.2,0-4-1.8-4-4s1.8-4,4-4s4,1.8,4,4S27.2,14,25,14" fill="#ffb74d"/><path d="M20,42c-1,0-1.9-0.7-2-1.8l-0.9-7.4L13,29c-0.7-0.9-0.1-2.9,0.8-3.6s2.1-0.6,2.8,0.3l4.4,5.4 l1.1,8.6c0.1,1.1-0.6,2.1-1.7,2.2C20.2,42,20.1,42,20,42z" fill="#2196f3"/><path d="M26,30c-0.8,0-1.6-0.5-1.9-1.4l-3.4-10.5c-0.3-1,0.2-2.2,1.3-2.5c1.1-0.3,2.2,0.2,2.5,1.3l3.4,10.5 c0.3,1-0.2,2.2-1.3,2.5C26.4,30,26.2,30,26,30z" fill="#2196f3"/><path d="M23.3,15.3l-2.4-1.8c-1.1-0.8-2.7-0.6-3.5,0.5l-6.9,9c-0.4,0.4-0.5,0.8-0.6,1L6.1,39.4 c-0.3,1.1,0.3,2.2,1.4,2.5C7.6,42,7.8,42,8,42c0.9,0,1.7-0.6,1.9-1.4l3.8-12.3l-0.2,0c1.1,0.8,2.7,0.6,3.5-0.5l6.9-9 C24.7,17.6,24.4,16.1,23.3,15.3z" fill="#2196f3"/><path d="M8,22c-0.4,0-0.9-0.1-1.2-0.4c-0.9-0.7-1-1.9-0.3-2.8L11,13h8c1.1,0,2,0.9,2,2s-0.9,2-2,2h-6 l-3.4,4.2C9.2,21.7,8.6,22,8,22z" fill="#2196f3"/><path d="M33.4,32.3L10.2,20.4l-0.7,0.8c-0.1,0.2-0.3,0.3-0.5,0.4l23.5,12.1c0.1,0.1,0.2,0.1,0.4,0.1 c0.3,0,0.6-0.2,0.7-0.4C33.9,33,33.8,32.5,33.4,32.3z" fill="#795548"/><path d="M24,42h18c0,0-5-10.6-5.5-11.8c-0.6-1.3-1.3-2.1-1.9-2.1c-0.7,0-1.1,0.4-3.2,3.8 c-0.9,1.5-1.7,2.5-2.6,2.5c-0.8,0-1.4,0.2-1.7,0.8C26.8,36.2,24,42,24,42z" fill="#455a64"/></svg>