<svg xmlns="http://www.w3.org/2000/svg" viewBox="0 0 48 48" width="50" height="50" fill="#666"><path d="M33,24c0,3.3-2.7,6-6,6h-6c-3.3,0-6-2.7-6-6V10c0-3.3,2.7-6,6-6h6c3.3,0,6,2.7,6,6V24z" fill="#9fa8da"/><path fill="#3f51b5" d="M22 34H26V44H22z"/><path d="M35,43c0,0-6-2-11-2s-11,2-11,2v2h22V43z" fill="#303f9f"/><path fill="#5c6bc0" d="M15 10H23V12H15z"/><path fill="#5c6bc0" d="M25 10H33V12H25z"/><path fill="#5c6bc0" d="M25 14H33V16H25z"/><path fill="#5c6bc0" d="M15 14H23V16H15z"/><path fill="#5c6bc0" d="M25 18H33V20H25z"/><path fill="#5c6bc0" d="M15 18H23V20H15z"/><path fill="#5c6bc0" d="M15 22H23V24H15z"/><path fill="#5c6bc0" d="M25 22H33V24H25z"/><path d="M26,35h-4c-3.1,0-9-1.7-9-8v-9h2v9c0,5.9,6.7,6,7,6h4c0.3,0,7-0.1,7-6v-9h2v9C35,33.3,29.1,35,26,35z" fill="#3f51b5"/></svg>