<svg xmlns="http://www.w3.org/2000/svg" viewBox="0 0 48 48" width="50" height="50" fill="#666"><path d="M 37.8125 15.8125 C 35 18.625 30.078125 17.921875 30.078125 17.921875 C 30.078125 17.921875 29.375 12.996094 32.1875 10.1875 C 35 7.375 39.921875 8.078125 39.921875 8.078125 C 39.921875 8.078125 40.625 12.996094 37.8125 15.8125 Z" fill="#689f38"/><path d="M 30.527344 19.222656 C 36.894531 19.929688 43.964844 27 43.964844 27 C 43.964844 27 44.671875 22.050781 39.722656 18.515625 C 34.773438 14.980469 30.527344 19.222656 30.527344 19.222656 Z" fill="#8bc34a"/><path d="M 28.886719 17.472656 C 28.179688 11.105469 21.109375 4.035156 21.109375 4.035156 C 21.109375 4.035156 26.058594 3.328125 29.59375 8.277344 C 33.128906 13.226563 28.886719 17.472656 28.886719 17.472656 Z" fill="#8bc34a"/><path d="M 35.203125 35.398438 C 29.835938 40.769531 14.523438 46.40625 8.558594 40.441406 C 2.589844 34.476563 8.226563 19.164063 13.597656 13.796875 C 18.96875 8.425781 25.636719 11.429688 31.601563 17.398438 C 37.566406 23.363281 40.574219 30.03125 35.203125 35.398438 Z" fill="#ff1744"/><path d="M 16.230469 15.230469 C 17.210938 14.253906 18.789063 14.253906 19.765625 15.230469 C 20.742188 16.210938 20.742188 17.789063 19.765625 18.765625 C 18.789063 19.742188 16.976563 19.976563 16 19 C 15.023438 18.023438 15.257813 16.210938 16.230469 15.230469 Z" fill="#d50000"/><path d="M 24.460938 21.046875 C 25.4375 20.066406 27.019531 20.066406 27.996094 21.046875 C 28.972656 22.023438 28.972656 23.605469 27.996094 24.578125 C 27.019531 25.554688 25.207031 25.789063 24.230469 24.8125 C 23.253906 23.835938 23.484375 22.019531 24.460938 21.046875 Z" fill="#d50000"/><path d="M 11.445313 34.019531 C 12.421875 33.042969 14.003906 33.042969 14.980469 34.019531 C 15.957031 34.996094 15.957031 36.578125 14.980469 37.554688 C 14.003906 38.53125 12.191406 38.761719 11.214844 37.785156 C 10.234375 36.808594 10.46875 34.996094 11.445313 34.019531 Z" fill="#d50000"/><path d="M 30.296875 29.167969 C 31.273438 28.191406 32.855469 28.191406 33.832031 29.167969 C 34.808594 30.144531 34.808594 31.726563 33.832031 32.703125 C 32.855469 33.679688 31.039063 33.914063 30.0625 32.9375 C 29.085938 31.960938 29.320313 30.144531 30.296875 29.167969 Z" fill="#d50000"/><path d="M 13.449219 24.015625 C 14.425781 23.039063 16.007813 23.039063 16.984375 24.015625 C 17.960938 24.992188 17.960938 26.574219 16.984375 27.550781 C 16.007813 28.527344 14.191406 28.761719 13.214844 27.78125 C 12.238281 26.804688 12.472656 24.992188 13.449219 24.015625 Z" fill="#d50000"/><path d="M 20.296875 32.167969 C 21.273438 31.191406 22.855469 31.191406 23.832031 32.167969 C 24.808594 33.144531 24.808594 34.726563 23.832031 35.703125 C 22.855469 36.679688 21.039063 36.914063 20.0625 35.9375 C 19.085938 34.960938 19.320313 33.144531 20.296875 32.167969 Z" fill="#d50000"/><path d="M 18.707031 17.707031 C 18.316406 18.097656 16.390625 19.390625 16 19 C 15.609375 18.609375 16.902344 16.683594 17.292969 16.292969 C 17.683594 15.902344 18.316406 15.902344 18.707031 16.292969 C 19.097656 16.683594 19.097656 17.316406 18.707031 17.707031 Z" fill="#ffc107"/><path d="M 26.9375 23.519531 C 26.546875 23.910156 24.621094 25.203125 24.230469 24.8125 C 23.839844 24.421875 25.132813 22.496094 25.523438 22.105469 C 25.914063 21.714844 26.546875 21.714844 26.9375 22.105469 C 27.328125 22.496094 27.328125 23.128906 26.9375 23.519531 Z" fill="#ffc107"/><path d="M 13.921875 36.492188 C 13.53125 36.882813 11.605469 38.175781 11.214844 37.785156 C 10.824219 37.394531 12.117188 35.46875 12.507813 35.078125 C 12.898438 34.6875 13.53125 34.6875 13.921875 35.078125 C 14.3125 35.46875 14.3125 36.101563 13.921875 36.492188 Z" fill="#ffc107"/><path d="M 32.769531 31.644531 C 32.378906 32.035156 30.453125 33.328125 30.0625 32.9375 C 29.671875 32.546875 30.964844 30.621094 31.355469 30.230469 C 31.746094 29.839844 32.378906 29.839844 32.769531 30.230469 C 33.160156 30.621094 33.160156 31.253906 32.769531 31.644531 Z" fill="#ffc107"/><path d="M 15.925781 26.488281 C 15.53125 26.882813 13.609375 28.175781 13.21875 27.78125 C 12.824219 27.390625 14.117188 25.46875 14.511719 25.074219 C 14.902344 24.683594 15.53125 24.683594 15.925781 25.074219 C 16.316406 25.46875 16.3125 26.101563 15.925781 26.488281 Z" fill="#ffc107"/><path d="M 22.769531 34.644531 C 22.378906 35.035156 20.453125 36.328125 20.0625 35.9375 C 19.671875 35.546875 20.964844 33.621094 21.355469 33.230469 C 21.746094 32.839844 22.378906 32.839844 22.769531 33.230469 C 23.160156 33.621094 23.160156 34.253906 22.769531 34.644531 Z" fill="#ffc107"/></svg>