<svg xmlns="http://www.w3.org/2000/svg" viewBox="0 0 48 48" width="50" height="50" fill="#666"><path d="M44,24c0,11.135-9.07,20-20,20C13.074,44,4,35.135,4,24S12.865,4,24,4S44,12.865,44,24" fill="#2196f3"/><path d="M23.182,32.598c-1.229-0.411-2.454-0.411-3.477-1.434c-0.206-0.407-0.206-0.818-0.407-1.225	c-0.411-0.411-1.434-0.613-2.047-0.818h-4.09c-0.616-0.205-1.023-1.023-1.434-1.636c0-0.205,0-0.616-0.407-0.616	c-0.411-0.202-0.818,0.205-1.229,0c-0.202-0.202-0.202-0.407-0.202-0.613c0-0.613,0.407-1.229,0.818-1.636	c0.613-0.411,1.225,0.205,1.838,0.205c0.205,0,0.495-0.323,0.7-0.122c0.613,0.205,0.818,1.023,0.818,1.64v0.407	c0,0.205,0.42,0.208,0.625,0.208c0.202-1.023,0.304-2.032,0.407-3.067c0.122-1.223,0.725-2.137,1.745-2.544	c0.411-0.205,0.616,0.205,1.023,0c1.229-0.411,4.687-1.993,4.074-3.629c-0.411-1.434-1.676-2.837-3.312-2.635	c-0.411,0.205-3.216,2.585-3.829,2.585c-1.023-0.205-1.023-1.636-0.818-2.252c0.205-0.818,2.043-3.477,3.272-3.067	C17.456,12.555,19.387,13,20,13c0.205,0,0.411,0,0.613-0.205c0.205-0.206,0.205-0.206,0.205-0.411c0-0.613-2.205-1.932-2.818-2.134	c-2.043-0.616-5.456,0.052-7.092,1.487c-0.136,0.119-0.287,0.241-0.446,0.364c-2.758,3.142-4.437,7.259-4.458,11.813	c0.085,0.29,0.212,0.588,0.407,0.911c0.613,1.229,1.838,2.454,3.067,3.272c0.818,0.613,2.454,0.613,3.272,1.636	c0.613,0.822,0.411,1.841,0.411,2.865c0,1.225,0.818,2.249,1.225,3.272c0.205,0.613,0.411,1.431,0.616,2.047	c0,0.202,0.202,1.431,0.202,1.636c0.019,0.059,0.039,0.11,0.059,0.167c1.048,0.584,2.156,1.07,3.315,1.438	c0.101-0.05,0.203-0.102,0.309-0.158c0.205,0,1.023-1.04,1.023-1.242c0.613-0.616,1.023-1.434,1.636-1.841	c0.407-0.205,0.818-0.411,1.225-0.822c0.411-0.407,0.616-1.225,0.818-1.838c0.205-0.411,0.411-1.229,0.205-1.841	C23.795,33.005,23.589,32.803,23.182,32.598z" fill="#cddc39"/><path d="M23.87,6.006c-0.238,0.002-0.469,0.024-0.705,0.035c-0.491,0.083-0.981,0.301-1.133,0.739	c-0.204,0.976,0.609,0.78,1.421,0.976c0,0,0.204,1.561,0.204,1.757c0.204,0.976-0.408,1.561-0.408,2.534	c0,0.588,0,1.564,0.408,1.953h0.204c0.204,0,0.404-0.196,0.813-0.388c0.609-0.392,1.221-0.976,1.83-1.368	c0.609-0.388,1.217-0.976,1.625-1.365c0.609-0.392,1.017-1.172,1.221-1.757c0.2-0.392,0.813-1.172,0.609-1.757	c-0.204-0.392-1.221-0.584-1.625-0.78c-1.177-0.283-2.247-0.458-3.362-0.536c-0.142-0.007-0.284-0.017-0.427-0.021	C24.323,6.017,24.098,6.009,23.87,6.006z" fill="#cddc39"/><path d="M42,24c0-5.692-2.579-10.721-6.64-14.007c-0.138,0.034-0.274,0.077-0.407,0.136	c-0.613,0.205-2.212,3.159-2.622,3.771c-0.205,0.205-0.407,0.613-0.205,0.818c0,0.205,0.205,0.205,0.411,0.205	c0.407,0.205,0.462,0.29,0.873,0.492c0.205,0,0.407,0.205,0.205,0.411c0,0,0,0.205-0.205,0.205	c-1.023,1.023-2.047,1.841-3.067,2.861C30.137,19.099,30,19.51,30,19.711c0,0.205,0.137,0.205,0.137,0.411s-0.205,0.205-0.411,0.407	c-0.407,0.205-0.818,0.411-1.023,0.616c-0.202,0.407,0,1.023-0.202,1.431c-0.206,1.023-0.822,1.841-1.229,2.865	c-0.411,0.613-0.778,1.225-1.189,1.841c0,0.818-0.205,1.431,0.205,2.043c1.023,1.434,3.072,0.062,4.503,0.674	c0.407,0.205,0.757,0.243,1.023,0.613c0.508,0.705,0.57,2.191,0.776,2.807c0.202,0.818,0.407,1.636,0.818,2.454	c0.205,1.023,0.613,2.047,0.818,2.861c0.01,0.013,0.021,0.021,0.032,0.034C38.914,35.53,42,30.155,42,24z" fill="#cddc39"/></svg>