<svg xmlns="http://www.w3.org/2000/svg" viewBox="0 0 48 48" width="50" height="50" fill="#666"><path d="M 7 8 L 41 8 C 43.199219 8 45 9.800781 45 12 L 45 36 C 45 38.199219 43.199219 40 41 40 L 7 40 C 4.800781 40 3 38.199219 3 36 L 3 12 C 3 9.800781 4.800781 8 7 8" fill="#ff6e40"/><path d="M 23 32 L 19.199219 32 L 14 22 L 14 32 L 10 32 L 10 16 L 13.898438 16 L 19 26 L 19 16 L 23 16 Z M 35.101563 29 L 30 29 L 29 32 L 25 32 L 30.699219 16 L 34.199219 16 L 40 32 L 36 32 Z M 30.800781 26 L 34.101563 26 L 32.398438 20.5 Z" fill="#ffccbc"/></svg>