<svg xmlns="http://www.w3.org/2000/svg" viewBox="0 0 48 48" width="50" height="50" fill="#666"><path d="M 40 7 L 8 7 C 5.800781 7 4 8.800781 4 11 L 4 37 C 4 39.199219 5.800781 41 8 41 L 13 41 L 13 39.699219 C 12.398438 39.398438 12 38.699219 12 38 C 12 36.898438 12.898438 36 14 36 C 15.101563 36 16 36.898438 16 38 C 16 38.699219 15.601563 39.398438 15 39.699219 L 15 41 L 33 41 L 33 39.699219 C 32.398438 39.398438 32 38.699219 32 38 C 32 36.898438 32.898438 36 34 36 C 35.101563 36 36 36.898438 36 38 C 36 38.699219 35.601563 39.398438 35 39.699219 L 35 41 L 40 41 C 42.199219 41 44 39.199219 44 37 L 44 11 C 44 8.800781 42.199219 7 40 7 Z" fill="#673ab7"/><path d="M 28 18 C 28 20.210938 26.210938 22 24 22 C 21.789063 22 20 20.210938 20 18 C 20 15.789063 21.789063 14 24 14 C 26.210938 14 28 15.789063 28 18 Z" fill="#d1c4e9"/><path d="M 31 28 C 31 28 29.101563 24 24 24 C 18.898438 24 17 28 17 28 L 17 30 L 31 30 Z" fill="#d1c4e9"/></svg>