<svg xmlns="http://www.w3.org/2000/svg" viewBox="0 0 48 48" width="50" height="50" fill="#666"><path d="M 22 42 L 22 6 L 26 6 L 26 42 Z M 40 42 L 40 6 L 36 6 L 36 42 Z M 12 42 L 12 6 L 8 6 L 8 42 Z" fill="#cfd8dc"/><path d="M 36 42 L 36 18 L 40 18 L 40 42 Z M 12 42 L 12 14 L 8 14 L 8 42 Z M 26 42 L 26 31 L 22 31 L 22 42 Z" fill="#ff6d00"/><path d="M 34 20 L 34 17 C 34 16.5 34.5 16 35 16 L 41 16 C 41.5 16 42 16.5 42 17 L 42 20 C 42 20.5 41.5 21 41 21 L 35 21 C 34.5 21 34 20.5 34 20 Z M 7 17 L 13 17 C 13.601563 17 14 16.5 14 16 L 14 13 C 14 12.398438 13.601563 12 13 12 L 7 12 C 6.398438 12 6 12.398438 6 13 L 6 16 C 6 16.5 6.398438 17 7 17 Z M 21 34 L 27 34 C 27.5 34 28 33.5 28 33 L 28 30 C 28 29.5 27.5 29 27 29 L 21 29 C 20.5 29 20 29.5 20 30 L 20 33 C 20 33.5 20.5 34 21 34 Z" fill="#bf360c"/></svg>