<svg xmlns="http://www.w3.org/2000/svg" viewBox="0 0 48 48" width="50" height="50" fill="#666"><path d="M 10 10 L 29 10 L 29 16 L 10 16 Z" fill="#455a64"/><path d="M 9 43 L 39 43 L 39 41 C 39 39.898438 38.101563 39 37 39 L 11 39 C 9.898438 39 9 39.898438 9 41 Z" fill="#455a64"/><path d="M 34.800781 16.398438 L 29.800781 13 L 34.800781 9.601563 L 39 12.199219 L 41 9 L 34.699219 5 L 23.101563 13 L 34.699219 21 L 41 17 L 39 13.800781 Z" fill="#455a64"/><path d="M 16 11 L 9 11 L 18 39 L 25 39 Z" fill="#455a64"/><path d="M 22.601563 30.898438 C 22.199219 30.300781 21.601563 30 20.898438 30 L 19 30 C 18.300781 30 17.699219 30.300781 17.300781 30.898438 L 12 39 L 28 39 Z M 20 36 C 18.898438 36 18 35.101563 18 34 C 18 32.898438 18.898438 32 20 32 C 21.101563 32 22 32.898438 22 34 C 22 35.101563 21.101563 36 20 36 Z" fill="#ffc107"/><path d="M 13 7 C 9.699219 7 7 9.699219 7 13 C 7 16.300781 9.699219 19 13 19 C 16.300781 19 19 16.300781 19 13 C 19 9.699219 16.300781 7 13 7 Z M 13 15 C 11.898438 15 11 14.101563 11 13 C 11 11.898438 11.898438 11 13 11 C 14.101563 11 15 11.898438 15 13 C 15 14.101563 14.101563 15 13 15 Z" fill="#ffc107"/><path d="M 30 18 L 27 18 C 25.898438 18 25 17.101563 25 16 L 25 10 C 25 8.898438 25.898438 8 27 8 L 30 8 Z" fill="#ffc107"/></svg>