<svg xmlns="http://www.w3.org/2000/svg" viewBox="0 0 48 48" width="50" height="50" fill="#666"><path d="M 25 22 L 38 22 L 44 28 L 44 11 C 44 8.800781 42.199219 7 40 7 L 25 7 C 22.800781 7 21 8.800781 21 11 L 21 18 C 21 20.199219 22.800781 22 25 22 Z" fill="#1565c0"/><path d="M 23 19 L 10 19 L 4 25 L 4 8 C 4 5.800781 5.800781 4 8 4 L 23 4 C 25.199219 4 27 5.800781 27 8 L 27 15 C 27 17.199219 25.199219 19 23 19 Z" fill="#2196f3"/><path d="M 17 31 C 17 33.761719 14.761719 36 12 36 C 9.238281 36 7 33.761719 7 31 C 7 28.238281 9.238281 26 12 26 C 14.761719 26 17 28.238281 17 31 Z" fill="#ffa726"/><path d="M 41 31 C 41 33.761719 38.761719 36 36 36 C 33.238281 36 31 33.761719 31 31 C 31 28.238281 33.238281 26 36 26 C 38.761719 26 41 28.238281 41 31 Z" fill="#ffa726"/><path d="M 20 42 C 20 42 17.800781 38 12 38 C 6.199219 38 4 42 4 42 L 4 44 L 20 44 Z" fill="#607d8b"/><path d="M 44 42 C 44 42 41.800781 38 36 38 C 30.199219 38 28 42 28 42 L 28 44 L 44 44 Z" fill="#607d8b"/></svg>