<svg xmlns="http://www.w3.org/2000/svg" viewBox="0 0 48 48" width="50" height="50" fill="#666"><path d="M42,34c0,8-8.1,8-18,8S6,42,6,34s8.1-18,18-18S42,26,42,34z" fill="#3f51b5"/><path d="M30,7.6c-1.9,2.1-1-4.4-5,0c-1.9,2.1-1-4.4-5,0c-1.7,1.9-1.2-3.1-3.9-1.1L19,17h10l3-11 C31.5,6.2,30.9,6.6,30,7.6z" fill="#3f51b5"/><path d="M14,39c-0.5,0-0.9-0.3-1-0.8c-0.5-2.3-0.5-4.7-0.2-7.1c0.6-4.8,2.2-9.4,4.6-12.9 c0.1-0.1,0.1-0.2,0.2-0.3c0.3-0.5,0.6-1,1.1-1.3c0.6-0.4,1.1-0.3,1.5-0.2l0.1,0c0.8,0.2,1.5,0.3,2.2,0.4c2.2,0.3,4.4,0,6.2-0.7 c0.5-0.2,1.1,0,1.3,0.6c0.2,0.5,0,1.1-0.6,1.3c-2.2,0.9-4.6,1.1-7.2,0.8c-0.7-0.1-1.5-0.2-2.4-0.5l-0.1,0c-0.1,0.2-0.3,0.4-0.4,0.6 c-0.1,0.2-0.2,0.3-0.3,0.4c-2.2,3.2-3.7,7.5-4.3,12c-0.3,2.2-0.2,4.3,0.2,6.4c0.1,0.5-0.2,1.1-0.8,1.2C14.1,39,14.1,39,14,39z" fill="#fdd835"/><path d="M11,29c-0.6,0-1-0.4-1-1c0-3.4,4.1-11,8.8-12c0.5-0.1,1.1,0.2,1.2,0.8c0.1,0.5-0.2,1.1-0.8,1.2 c-3.6,0.7-7.2,7.3-7.2,10C12,28.6,11.6,29,11,29z" fill="#fdd835"/><path d="M23,31v2c0,0.9-0.1,1.5-0.6,2H29l0,2H19v-2h1.2c0.3-0.1,0.5-0.2,0.6-0.5c0.1-0.3,0.2-0.8,0.2-1.4V31 h-2v-2h2v-1.9c0-1.3,0.3-2.3,1.1-3c0.8-0.7,1.5-1.1,2.8-1.1c1.3,0,2.2,0.3,2.9,1c0.8,0.7,1.1,1.8,1.1,3h-2c0-0.6-0.2-1.2-0.5-1.6 c-0.3-0.3-1-0.5-1.6-0.5c-0.6,0-1,0.2-1.4,0.6C23.2,26,23,26.5,23,27.1V29h3v2H23z" fill="#e8eaf6"/></svg>