<svg xmlns="http://www.w3.org/2000/svg" viewBox="0 0 48 48" width="50" height="50" fill="#666"><path d="M44,24c0,11.044-8.956,20-20,20S4,35.044,4,24S12.956,4,24,4S44,12.956,44,24z" fill="#2196f3"/><path d="M23.758,31.145c-0.727,0-1.328,0.234-1.797,0.711c-0.469,0.473-0.703,1.074-0.703,1.805 c0,0.719,0.23,1.313,0.688,1.781c0.461,0.469,1.063,0.703,1.816,0.703c0.75,0,1.352-0.234,1.813-0.703 c0.457-0.469,0.688-1.063,0.688-1.781c0-0.73-0.234-1.332-0.703-1.805C25.094,31.387,24.48,31.145,23.758,31.145z" fill="#e3f2fd"/><path d="M29.184,14.586C27.969,13.527,26.266,13,24.07,13c-2.176,0-3.895,0.559-5.152,1.672 c-1.191,1.055-1.824,2.504-1.902,4.328H17v1h4.5l0.008-0.703c0.02-0.824,0.262-1.473,0.723-1.941 c0.457-0.473,1.074-0.707,1.84-0.707c1.617,0,2.422,0.871,2.422,2.617c0,0.578-0.152,1.129-0.465,1.648 c-0.309,0.52-0.934,1.195-1.871,2.027c-0.938,0.828-1.582,1.672-1.934,2.527c-0.355,0.855-0.531,2.086-0.531,3.531h3.98 l0.063-1.023c0.113-1.012,0.563-1.891,1.352-2.645l1.262-1.191c0.98-0.949,1.672-1.813,2.063-2.59 c0.395-0.781,0.594-1.609,0.594-2.484C31,17.137,30.395,15.645,29.184,14.586z" fill="#e3f2fd"/></svg>