<svg xmlns="http://www.w3.org/2000/svg" viewBox="0 0 48 48" width="50" height="50" fill="#666"><path d="M 3 40 L 45 40 L 45 42 L 3 42 Z" fill="#90a4ae"/><path d="M 44 20 C 40.199219 20 38 23.101563 36.5 25.199219 C 36.199219 25.601563 35.898438 26.101563 35.601563 26.5 C 35.601563 26 35.5 25.398438 35.5 25 C 35.398438 22.398438 35.300781 20.101563 33.601563 20.101563 C 32.398438 20.101563 31.398438 21.398438 29.800781 23.601563 C 28 25.898438 25.601563 29.101563 23.601563 29.101563 C 23.398438 29.101563 23.199219 29 23 29 C 26.699219 25.199219 28.898438 20.199219 28.898438 17 C 28.898438 15.898438 28.601563 15 28.101563 14.300781 C 27.800781 13.601563 27 13 25.699219 13 C 22.101563 13 19 17.699219 19 23.398438 C 19 25.398438 19.398438 27.300781 20.300781 28.800781 C 18.300781 30.5 15.601563 32.101563 12.398438 32.101563 C 11.199219 32.101563 10.199219 31.699219 9.199219 31 C 13 25.601563 18 17.398438 18 10.300781 C 18 5.898438 15.5 5 13.398438 5 C 10.300781 5 3 9.699219 3 21.398438 C 3 24.5 4.300781 28.398438 6.5 31 C 4.699219 33.398438 3.300781 35 3.199219 35 C 2.800781 35.398438 2.898438 36 3.300781 36.398438 C 3.5 36.601563 3.699219 36.699219 4 36.699219 C 4.300781 36.699219 4.5 36.601563 4.699219 36.398438 C 4.898438 36.199219 6.199219 34.699219 8 32.398438 C 9.300781 33.398438 10.699219 34 12.398438 34 C 15.800781 34 19 32.5 21.601563 30.300781 C 22.199219 30.800781 22.898438 31 23.699219 31 C 26.699219 31 29.300781 27.5 31.5 24.699219 C 32.101563 23.898438 32.898438 22.898438 33.398438 22.398438 C 33.5 23.101563 33.601563 24.300781 33.601563 25.101563 C 33.699219 27.5 33.699219 29.101563 35.101563 29.101563 C 36.300781 29.101563 37.101563 27.898438 38.199219 26.5 C 39.601563 24.5 41.300781 22.101563 44.101563 22.101563 C 44.699219 22.101563 45.101563 21.699219 45.101563 21.101563 C 45.101563 20.5 44.601563 20 44 20 Z M 7.699219 29.398438 C 6 27.199219 5 24 5 21.398438 C 5 11.398438 11.101563 7 13.398438 7 C 15.601563 7 16 8.300781 16 10.300781 C 16 16.699219 11.398438 24.300781 7.699219 29.398438 Z M 21.800781 27.300781 C 21.300781 26.199219 21 24.800781 21 23.398438 C 21 18.699219 23.5 15 25.699219 15 C 26.300781 15 26.5 15.199219 26.601563 15.398438 C 26.800781 15.699219 26.898438 16.199219 26.898438 16.800781 C 26.898438 19.300781 25.101563 23.199219 22.601563 26.199219 C 22.398438 26.601563 22.101563 26.898438 21.800781 27.300781 Z" fill="#1565c0"/></svg>