<svg xmlns="http://www.w3.org/2000/svg" viewBox="0 0 48 48" width="50" height="50" fill="#666"><path d="M 43 36 L 29 36 L 29 14 L 39.558594 14 C 40.417969 14 41.183594 14.550781 41.457031 15.367188 L 45 26 L 45 34 C 45 35.105469 44.105469 36 43 36" fill="#ffc107"/><path d="M 29 36 L 5 36 C 3.894531 36 3 35.105469 3 34 L 3 9 C 3 7.894531 3.894531 7 5 7 L 27 7 C 28.105469 7 29 7.894531 29 9 Z" fill="#009688"/><path d="M 42 36 C 42 38.761719 39.761719 41 37 41 C 34.238281 41 32 38.761719 32 36 C 32 33.238281 34.238281 31 37 31 C 39.761719 31 42 33.238281 42 36" fill="#5d4037"/><path d="M 18 36 C 18 38.761719 15.761719 41 13 41 C 10.238281 41 8 38.761719 8 36 C 8 33.238281 10.238281 31 13 31 C 15.761719 31 18 33.238281 18 36" fill="#5d4037"/><path d="M 39 36 C 39 37.105469 38.105469 38 37 38 C 35.894531 38 35 37.105469 35 36 C 35 34.894531 35.894531 34 37 34 C 38.105469 34 39 34.894531 39 36" fill="#bcaaa4"/><path d="M 15 36 C 15 37.105469 14.105469 38 13 38 C 11.894531 38 11 37.105469 11 36 C 11 34.894531 11.894531 34 13 34 C 14.105469 34 15 34.894531 15 36" fill="#bcaaa4"/><path d="M 41 25 L 34 25 C 33.449219 25 33 24.550781 33 24 L 33 17 C 33 16.449219 33.449219 16 34 16 L 39 16 C 39.433594 16 39.8125 16.273438 39.949219 16.683594 L 41.949219 22.683594 C 41.980469 22.785156 42 22.894531 42 23 L 42 24 C 42 24.550781 41.550781 25 41 25" fill="#795548"/><path d="M 3 17 L 29 17 L 29 25 L 3 25 Z" fill="#4db6ac"/></svg>