<svg xmlns="http://www.w3.org/2000/svg" viewBox="0 0 48 48" width="50" height="50" fill="#666"><path d="M 24.300781 22.699219 C 23.199219 21.601563 21.300781 21.601563 20.101563 22.800781 C 18.898438 24 18.898438 25.800781 20 27 L 26.398438 33.398438 C 27.5 34.5 29.398438 34.5 30.601563 33.300781 C 31.800781 32.101563 31.800781 30.300781 30.699219 29.101563 Z" fill="#ffcc80"/><path d="M 20.199219 35.601563 L 28.699219 27.101563 L 29.800781 28.199219 C 30.601563 29 32.699219 29.5 34.101563 28.101563 C 35.5 26.699219 34.699219 24.699219 34 23.898438 C 33.300781 23.199219 30.800781 20.699219 30.800781 20.699219 C 30.800781 20.699219 32.199219 16.5 31.898438 14.300781 C 31.800781 12.398438 30.699219 11.101563 28.398438 10.800781 L 23.398438 10 C 19.199219 10 15.601563 10.5 12.601563 13.5 L 7.699219 18.398438 C 4.199219 22 4 27.898438 7.601563 31.5 C 7.601563 31.5 11 34.898438 15.300781 39.199219 Z" fill="#ffcc80"/><path d="M 20 26.898438 C 18.898438 25.800781 17 25.800781 15.800781 27 C 14.601563 28.199219 14.601563 30 15.699219 31.199219 L 20.800781 36.300781 C 21.898438 37.398438 23.800781 37.398438 25 36.199219 C 26.199219 35 26.199219 33.199219 25.101563 32 Z" fill="#ffcc80"/><path d="M 14.5 29.898438 C 13.398438 28.800781 11.5 28.800781 10.300781 30 C 9.101563 31.199219 9.101563 33 10.199219 34.199219 L 15.300781 39.300781 C 16.398438 40.398438 18.300781 40.398438 19.5 39.199219 C 20.699219 38 20.699219 36.199219 19.601563 35 Z" fill="#ffcc80"/><path d="M 9.699219 33.5 C 7.699219 35.398438 6.199219 36.601563 6.199219 36.601563 C 4.699219 38.199219 4.601563 40.601563 6 42 C 7.398438 43.398438 9.800781 43.398438 11.300781 41.898438 C 11.398438 41.800781 12.699219 40.601563 14.601563 38.601563 Z M 9 40.5 C 8.199219 40.5 7.5 39.800781 7.5 39 C 7.5 38.199219 8.199219 37.5 9 37.5 C 9.800781 37.5 10.5 38.199219 10.5 39 C 10.5 39.800781 9.800781 40.5 9 40.5 Z" fill="#607d8b"/><path d="M 42.5 10.5 L 38 15 C 38 15 36.300781 15 34.601563 13.398438 C 33 11.699219 33 10 33 10 L 37.601563 5.398438 C 34.300781 4.398438 31.101563 5.199219 28.800781 7.5 C 25.300781 11 28.398438 15.398438 27.5 16.300781 C 27.300781 16.5 27.199219 16.601563 27 16.800781 L 31.199219 21 C 31.398438 20.800781 31.601563 20.601563 31.800781 20.398438 C 32.699219 19.5 37 22.800781 40.601563 19.199219 C 42.699219 16.898438 43.601563 14.101563 42.5 10.5 Z" fill="#607d8b"/><path d="M 30 28.300781 L 27 25.300781 C 26.601563 24.898438 26 24.898438 25.601563 25.300781 C 25.199219 25.699219 25.199219 26.300781 25.601563 26.699219 Z" fill="#f2a25a"/><path d="M 25.699219 32.5 L 22.5 29.398438 C 22.101563 29 21.5 29 21.101563 29.398438 C 20.699219 29.800781 20.699219 30.398438 21.101563 30.800781 Z" fill="#f2a25a"/><path d="M 20.199219 35.5 L 17.800781 33 C 17.398438 32.601563 16.800781 32.601563 16.398438 33 C 16 33.398438 16 34 16.398438 34.398438 Z" fill="#f2a25a"/><path d="M 27.398438 16.398438 C 27.601563 16.199219 27.601563 16 27.601563 15.699219 L 24.5 14.5 L 27 17 C 27.101563 16.699219 27.300781 16.5 27.398438 16.398438 Z" fill="#f2a25a"/></svg>