<svg xmlns="http://www.w3.org/2000/svg" viewBox="0 0 48 48" width="50" height="50" fill="#666"><path d="M 32 14.5 C 32 15.328125 31.328125 16 30.5 16 C 29.671875 16 29 15.328125 29 14.5 C 29 13.671875 29.671875 13 30.5 13 C 31.328125 13 32 13.671875 32 14.5" fill="#ffa726"/><path d="M 19 14.5 C 19 15.328125 18.328125 16 17.5 16 C 16.671875 16 16 15.328125 16 14.5 C 16 13.671875 16.671875 13 17.5 13 C 18.328125 13 19 13.671875 19 14.5" fill="#ffa726"/><path d="M 36 29 C 36 29 32.679688 22 24 22 C 15.320313 22 12 29 12 29 C 10 32 8 39.34375 8 41 C 8 42.65625 9.34375 44 11 44 L 36 44 C 37.65625 44 39 42.65625 39 41 C 39 39.34375 38 34 36 29 Z" fill="#558b2f"/><path d="M 27.949219 22.53125 L 27.121094 24.605469 L 10.113281 43.851563 C 10.394531 43.9375 10.6875 44 11 44 L 28 44 L 30.265625 23.433594 C 29.234375 22.859375 27.949219 22.53125 27.949219 22.53125 Z" fill="#bbdefb"/><path d="M 8 41 C 8 42.65625 9.34375 44 11 44 L 28 44 L 20.023438 22.351563 C 10.113281 24.34375 8 39.28125 8 41 Z" fill="#bbdefb"/><path d="M 27.921875 38 L 24.203125 27.910156 L 22.699219 29.609375 L 28 44 L 25.789063 38 Z" fill="#64b5f6"/><path d="M 24 26 C 20 26 20 22 20 22 L 20 18 L 28 18 L 28 22 C 28 22 28 26 24 26 Z" fill="#ff9800"/><path d="M 29 38 L 25.789063 38 L 28 44 L 29 44 C 30.65625 44 32 42.65625 32 41 C 32 39.34375 30.65625 38 29 38 Z" fill="#ffb74d"/><path d="M 31 10.679688 C 31 4.800781 17 6.851563 17 10.679688 L 17 15.070313 C 17 18.894531 20.132813 22 24 22 C 27.867188 22 31 18.894531 31 15.070313 Z" fill="#ffb74d"/><path d="M 24 3 C 19.140625 3 16 7.3125 16 11.171875 L 16 13 L 18 15 L 18 11 L 27.199219 8 L 30 11 L 30 15 L 32 13 L 32 12.191406 C 32 8.972656 31.171875 5.386719 27.199219 4.597656 L 26.398438 3 Z" fill="#424242"/><path d="M 26 14 C 26 14.550781 26.449219 15 27 15 C 27.550781 15 28 14.550781 28 14 C 28 13.449219 27.550781 13 27 13 C 26.449219 13 26 13.449219 26 14" fill="#784719"/><path d="M 20 14 C 20 14.550781 20.449219 15 21 15 C 21.550781 15 22 14.550781 22 14 C 22 13.449219 21.550781 13 21 13 C 20.449219 13 20 13.449219 20 14" fill="#784719"/></svg>