<svg xmlns="http://www.w3.org/2000/svg" viewBox="0 0 48 48" width="50" height="50" fill="#666"><path d="M 42.535156 23.789063 C 44.144531 27.375 41.167969 30.921875 39.769531 30.949219 L 36.285156 30.949219 L 31.050781 21.660156 L 38.769531 17.195313 L 42.472656 23.605469 Z" fill="#2e7d32"/><path d="M 24.097656 8.277344 L 22.152344 6.015625 L 20.058594 6.015625 C 18.371094 5.988281 16.3125 6.585938 15.097656 8.320313 L 15.003906 8.472656 L 11.300781 14.882813 L 19.019531 19.351563 L 24.617188 10.199219 Z" fill="#2e7d32"/><path d="M 15.402344 39.902344 C 11.484375 39.507813 9.769531 35.496094 10.4375 34.25 L 12.015625 31 L 23.578125 31 L 23 39.933594 L 15.585938 39.933594 Z" fill="#2e7d32"/><path d="M 39.46875 30.894531 C 40.53125 30.863281 41.253906 30.230469 42.15625 28.925781 L 36.273438 38.824219 C 35.851563 39.765625 35.273438 39.921875 34.664063 39.859375 L 29.46875 39.859375 L 29.4375 43.019531 L 25.0625 35.421875 L 29.46875 27.738281 L 29.46875 30.894531 Z" fill="#4caf50"/><path d="M 22.664063 7.195313 C 21.847656 5.886719 20.671875 6.015625 20.300781 6.015625 L 31.113281 6.015625 C 32.144531 5.917969 32.570313 6.316406 32.84375 6.894531 L 35.425781 11.390625 L 38.15625 9.8125 L 33.78125 17.4375 L 24.945313 17.46875 L 27.648438 15.890625 Z" fill="#4caf50"/><path d="M 10.660156 33.78125 C 10.148438 34.695313 10.296875 35.566406 10.925781 36.828125 L 5.375 27.039063 C 4.796875 26.183594 4.949219 25.640625 5.28125 25.121094 L 7.894531 20.628906 L 5.164063 19.015625 L 13.945313 19.015625 L 18.410156 26.671875 L 15.675781 25.097656 Z" fill="#4caf50"/></svg>