<svg xmlns="http://www.w3.org/2000/svg" viewBox="0 0 48 48" width="50" height="50" fill="#666"><path d="M38.568,7.703C36.173,5.28,32.755,4,28.685,4c-1.741,0-3.302,0.22-4.646,0.656 C22.693,4.22,21.132,4,19.392,4C11.382,4,6,9.174,6,16.875C6,18.009,6.175,19.037,6.452,20H18v-4h12v4h11.548 c0.276-0.96,0.451-1.985,0.451-3.114C42.039,13.188,40.854,10.013,38.568,7.703z" fill="#ffca28"/><path d="M27.144,4.069c-1.129,0.093-2.172,0.285-3.106,0.587c-0.006-0.002-0.013-0.003-0.02-0.005 c2.165,0.87,4.106,2.538,5.616,4.892c0.191,0.298,0.513,0.46,0.843,0.46c0.185,0,0.372-0.051,0.539-0.158 c0.465-0.298,0.601-0.917,0.302-1.381C30.141,6.629,28.723,5.154,27.144,4.069z" fill="#efb430"/><path d="M41.789,18.999L31,18.988V16c0-0.552-0.447-1-1-1H18c-0.552,0-1,0.448-1,1v2.988L6.211,18.999 c0.137,0.701,0.334,1.364,0.573,1.999l11.217-0.011c0.552,0,0.999-0.448,0.999-1V17h10v2.987c0,0.552,0.447,1,0.999,1l11.216,0.011 C41.455,20.363,41.652,19.7,41.789,18.999z" fill="#64b5f6"/><path d="M29.999,20.987c-0.552,0-0.999-0.448-0.999-1V17H19v2.987c0,0.552-0.447,1-0.999,1l-11.217,0.01 c0.505,1.341,1.187,2.562,1.862,3.76c0.918,1.629,1.868,3.313,2.42,5.355c0.323,1.223,0.61,2.531,0.888,3.796 C13.092,39.098,14.167,44,17.842,44c2.566,0,4.098-1.82,4.098-4.869c0-3.69,0.787-8.588,1.375-11.926 c0.122-0.597,0.603-0.619,0.728-0.633c0.162,0.003,0.548,0.067,0.637,0.611c0.915,5.093,1.379,9.113,1.379,11.948 c0,3.049,1.532,4.869,4.098,4.869c3.66,0,4.734-4.882,5.873-10.051c0.282-1.282,0.574-2.607,0.901-3.831 c0.555-2.049,1.504-3.733,2.422-5.361c0.675-1.198,1.358-2.419,1.863-3.76L29.999,20.987z" fill="#bbdefb"/></svg>