<svg xmlns="http://www.w3.org/2000/svg" viewBox="0 0 48 48" width="50" height="50" fill="#666"><path d="M 43.90625 20.023438 C 47.628906 21.136719 46.324219 27.648438 40 25.417969 C 37.023438 24.488281 35.535156 21.136719 34.046875 19.28125 C 32.742188 17.601563 30.886719 16.113281 27.722656 16.113281 C 24.742188 16.113281 22.140625 18.535156 22.140625 21.882813 C 22.140625 28.207031 30.324219 30.816406 37.210938 30.816406 C 46.140625 30.816406 48 27.464844 48 24.488281 C 48 22.253906 46.511719 19.835938 43.90625 20.023438 Z" fill="#795548"/><path d="M 4.09375 20.023438 C 0.371094 21.136719 1.675781 27.648438 8 25.417969 C 10.976563 24.488281 12.464844 21.136719 13.953125 19.28125 C 15.253906 17.601563 17.113281 16.113281 20.277344 16.113281 C 23.253906 16.113281 25.859375 18.535156 25.859375 21.882813 C 25.859375 28.207031 17.675781 30.816406 10.789063 30.816406 C 1.859375 30.816406 0 27.464844 0 24.488281 C 0 22.253906 1.488281 19.835938 4.09375 20.023438 Z" fill="#795548"/><path d="M 44.1875 20.011719 C 44.09375 20.011719 44.003906 20.015625 43.90625 20.023438 C 45.609375 20.535156 46.25 22.171875 45.851563 23.585938 C 46.246094 24.796875 45.996094 26.441406 43.832031 27.742188 C 42.542969 28.363281 40.484375 28.816406 37.210938 28.816406 C 33.191406 28.816406 27.601563 27.605469 25.191406 24.757813 C 24.449219 23.886719 24 22.863281 24 21.667969 C 24 22.863281 23.550781 23.886719 22.808594 24.757813 C 20.398438 27.605469 14.808594 28.816406 10.789063 28.816406 C 7.511719 28.816406 5.457031 28.363281 4.167969 27.742188 C 2.003906 26.441406 1.753906 24.796875 2.148438 23.585938 C 1.75 22.171875 2.390625 20.535156 4.09375 20.023438 C 3.996094 20.015625 3.902344 20.011719 3.8125 20.011719 C 1.382813 20.011719 0 22.335938 0 24.488281 C 0 27.464844 1.859375 30.816406 10.789063 30.816406 C 15.671875 30.816406 21.191406 29.496094 24 26.476563 C 26.808594 29.496094 32.328125 30.816406 37.210938 30.816406 C 46.140625 30.816406 48 27.464844 48 24.488281 C 48 22.335938 46.617188 20.011719 44.1875 20.011719 Z" fill="#4e342e"/></svg>