<svg xmlns="http://www.w3.org/2000/svg" viewBox="0 0 48 48" width="50" height="50" fill="#666"><path d="M 40.4375 42 L 6.4375 42 L 6.4375 13 L 40.4375 13 Z" fill="#e8eaf6"/><path d="M 6.4375 37 L 40.4375 37 L 40.4375 42 L 6.4375 42 Z" fill="#c5cae9"/><path d="M 27.4375 42 L 27.4375 31.917969 C 27.4375 29.753906 25.621094 28 23.425781 28 C 21.230469 28 19.449219 29.753906 19.449219 31.917969 L 19.449219 42 Z" fill="#d84315"/><path d="M 31.4375 27 L 36.4375 27 L 36.4375 35 L 31.4375 35 Z" fill="#01579b"/><path d="M 10.4375 27 L 15.4375 27 L 15.4375 35 L 10.4375 35 Z" fill="#01579b"/><path d="M 42.4375 25 L 29.644531 25 L 23.4375 15.480469 L 17.230469 25 L 4.4375 25 L 4.4375 6 L 42.4375 6 Z" fill="#d32f2f"/><path d="M 24.9375 34 C 24.664063 34 24.4375 34.226563 24.4375 34.5 L 24.4375 36.5 C 24.4375 36.773438 24.664063 37 24.9375 37 C 25.214844 37 25.4375 36.773438 25.4375 36.5 L 25.4375 34.5 C 25.4375 34.226563 25.214844 34 24.9375 34" fill="#ff8a65"/><path d="M 13.808594 25 L 17.230469 25 L 23.4375 15.480469 L 29.644531 25 L 33.4375 25 L 23.621094 10 Z" fill="#b71c1c"/></svg>