<svg xmlns="http://www.w3.org/2000/svg" viewBox="0 0 48 48" width="50" height="50" fill="#666"><path d="M42,9c0,2-6,20-6,20l-3-2c0,0,0-14,2-18c1.7-3.4,5-3,5-3S42,6,42,9z" fill="#ff3d00"/><path d="M36,29c0,0,0,2-2,2s-16,0-16,0c-4,0-4-5-4-5c0-1.1,1-2,2-2c9,0,19,2,19,2c1,0.2,1,2,1,2V29z" fill="#ff3d00"/><path d="M15,39H7.5C6.7,39,6,38.3,6,37.5S6.7,36,7.5,36H14c0.8,0,1,0.2,1,1V39z" fill="#ff3d00"/><path d="M25,31h4v9h-4V31z" fill="#9fa8da"/><path d="M17,42h20c0,0-2-3-10-3S17,42,17,42z" fill="#c5cae9"/><path d="M27,38c-0.3,0-0.6-0.1-0.8-0.4c-0.3-0.4-0.2-1.1,0.2-1.4c0.7-0.5,4.4-3.2,6.6-3.2h1c0.6,0,1,0.4,1,1 s-0.4,1-1,1h-1c-1.1,0-3.8,1.6-5.4,2.8C27.4,37.9,27.2,38,27,38z" fill="#5c6bc0"/><path d="M38,19c0,1.1-0.9,2-2,2s-2-0.9-2-2s0.9-2,2-2S38,17.9,38,19z" fill="#37474f"/><path d="M19,22v9c0,0.2-0.1,5.2-4,5.9v2c4.7-0.6,6-5.3,6-7.9v-9H19z" fill="#37474f"/><path d="M37,19c0,0.6-0.4,1-1,1s-1-0.4-1-1s0.4-1,1-1S37,18.4,37,19z" fill="#dd2c00"/><path d="M21,22h-2c0-2.9,2.4-4,4-4h13v2H23C22.5,20,21,20.2,21,22z" fill="#dd2c00"/></svg>