<svg xmlns="http://www.w3.org/2000/svg" viewBox="0 0 48 48" width="50" height="50" fill="#666"><path d="M 23 44 L 25 44 L 28 41 L 20 41" fill="#263238"/><path d="M 26 42 L 22 42 C 19.800781 42 18 40.199219 18 38 L 18 34 L 30 34 L 30 38 C 30 40.199219 28.199219 42 26 42 Z" fill="#9fa8da"/><path d="M 30 38 L 18.398438 39.601563 C 18.699219 40.300781 19.300781 41 20 41.398438 L 29.398438 40.101563 C 29.800781 39.5 30 38.800781 30 38 Z" fill="#5c6bc0"/><path d="M 18 35.699219 L 18 37.699219 L 30 36 L 30 34 Z" fill="#5c6bc0"/><path d="M 18 34 C 15 32.101563 9 26 9 19 C 9 10.699219 15.699219 4 24 4 C 32.300781 4 39 10.699219 39 19 C 39 26 33 32.101563 30 34 Z" fill="#ffc107"/><path d="M 30.601563 17.199219 L 27.601563 15.199219 C 27.300781 15 26.800781 15 26.5 15.199219 L 24 16.800781 L 21.601563 15.199219 C 21.300781 15 20.800781 15 20.5 15.199219 L 17.5 17.199219 C 17.300781 17.398438 17.101563 17.601563 17.101563 17.898438 C 17.101563 18.199219 17.101563 18.5 17.300781 18.699219 L 21.101563 23.398438 L 21.101563 34 L 23.101563 34 L 23.101563 23 C 23.101563 22.800781 23 22.601563 22.898438 22.398438 L 19.601563 18.300781 L 21.101563 17.300781 L 23.5 18.898438 C 23.800781 19.101563 24.300781 19.101563 24.601563 18.898438 L 27 17.300781 L 28.5 18.300781 L 25.199219 22.398438 C 25.101563 22.601563 25 22.800781 25 23 L 25 34 L 27 34 L 27 23.398438 L 30.800781 18.699219 C 31 18.5 31.101563 18.199219 31 17.898438 C 30.898438 17.601563 30.800781 17.300781 30.601563 17.199219 Z" fill="#fff176"/></svg>