<svg xmlns="http://www.w3.org/2000/svg" viewBox="0 0 48 48" width="50" height="50" fill="#666"><path d="M 41.765625 38 L 6.234375 38 C 4.4375 38 3 36.628906 3 34.847656 L 3 12.226563 C 3 10.445313 4.4375 9 6.234375 9 L 41.765625 9 C 43.558594 9 45 10.445313 45 12.226563 L 45 34.847656 C 45 36.628906 43.558594 38 41.765625 38 Z" fill="#03a9f4"/><path d="M 36.847656 23.277344 C 36.914063 22.175781 37.199219 21.664063 37.773438 21.664063 C 38.320313 21.664063 38.621094 22.191406 38.660156 23.277344 Z M 40.953125 23.933594 C 40.953125 22.703125 40.683594 21.730469 40.171875 21.050781 C 39.632813 20.351563 38.824219 20 37.8125 20 C 35.726563 20 34.417969 21.546875 34.417969 24.023438 C 34.417969 25.40625 34.761719 26.449219 35.453125 27.105469 C 36.070313 27.703125 36.957031 28 38.085938 28 C 39.132813 28 40.101563 27.75 40.71875 27.34375 L 40.449219 25.65625 C 39.84375 25.988281 39.140625 26.167969 38.355469 26.167969 C 37.882813 26.167969 37.546875 26.066406 37.308594 25.859375 C 37.046875 25.640625 36.902344 25.289063 36.851563 24.785156 L 40.917969 24.785156 C 40.945313 24.667969 40.953125 24.105469 40.953125 23.933594 Z M 31.058594 25.53125 C 30.835938 25.910156 30.527344 26.113281 30.167969 26.113281 C 29.925781 26.113281 29.695313 26.058594 29.496094 25.964844 L 29.496094 22.246094 C 29.925781 21.808594 30.3125 21.757813 30.441406 21.757813 C 31.070313 21.757813 31.382813 22.4375 31.382813 23.773438 C 31.382813 24.535156 31.269531 25.125 31.058594 25.53125 Z M 33.113281 20.710938 C 32.675781 20.136719 32.054688 19.855469 31.269531 19.855469 C 30.554688 19.855469 29.925781 20.15625 29.335938 20.792969 L 29.191406 20.007813 L 27 20.007813 L 27 31 L 29.480469 30.585938 L 29.496094 27.785156 C 29.886719 27.90625 30.277344 27.96875 30.628906 27.96875 C 31.257813 27.96875 32.160156 27.8125 32.863281 27.042969 C 33.53125 26.3125 33.859375 25.183594 33.859375 23.683594 C 33.859375 22.359375 33.613281 21.351563 33.113281 20.710938 Z M 23.527344 20.007813 L 26 20.007813 L 26 28 L 23.527344 28 Z M 24.785156 19.234375 C 25.503906 19.234375 26.085938 18.640625 26.085938 17.921875 C 26.085938 17.1875 25.5 16.601563 24.785156 16.601563 C 24.046875 16.601563 23.460938 17.1875 23.460938 17.921875 C 23.460938 18.640625 24.046875 19.234375 24.785156 19.234375 Z M 22.464844 19.898438 C 21.757813 19.898438 21.183594 20.273438 20.972656 20.929688 L 20.820313 20.011719 L 18.652344 20.011719 L 18.652344 28 L 21.132813 28 L 21.132813 22.75 C 21.445313 22.367188 21.882813 22.230469 22.496094 22.230469 C 22.621094 22.230469 22.753906 22.230469 22.933594 22.257813 L 22.933594 19.960938 C 22.75 19.921875 22.601563 19.898438 22.464844 19.898438 Z M 17.679688 21.855469 L 17.988281 20.007813 L 16.386719 20.007813 L 16.386719 17.761719 L 14.257813 18.117188 L 13.949219 20.007813 L 13.199219 20.128906 L 12.921875 21.855469 L 13.945313 21.855469 L 13.945313 25.476563 C 13.945313 26.417969 14.183594 27.078125 14.667969 27.476563 C 15.089844 27.8125 15.679688 27.96875 16.511719 27.96875 C 17.164063 27.96875 17.554688 27.855469 17.808594 27.785156 L 17.808594 25.824219 C 17.675781 25.867188 17.328125 25.941406 17.089844 25.941406 C 16.609375 25.941406 16.386719 25.691406 16.386719 25.117188 L 16.386719 21.851563 L 17.679688 21.851563 Z M 10.53125 23.050781 C 9.824219 22.785156 9.414063 22.578125 9.414063 22.246094 C 9.414063 21.972656 9.640625 21.8125 10.058594 21.8125 C 10.796875 21.8125 11.566406 22.09375 12.082031 22.355469 L 12.382813 20.527344 C 11.964844 20.324219 11.113281 20 9.941406 20 C 9.101563 20 8.40625 20.21875 7.925781 20.621094 C 7.394531 21.050781 7.125 21.664063 7.125 22.40625 C 7.125 23.753906 7.949219 24.324219 9.289063 24.808594 C 10.148438 25.117188 10.445313 25.335938 10.445313 25.675781 C 10.445313 26 10.171875 26.191406 9.648438 26.191406 C 9.023438 26.191406 8.007813 25.882813 7.320313 25.488281 L 7.039063 27.339844 C 7.617188 27.664063 8.675781 28 9.789063 28 C 10.675781 28 11.410156 27.789063 11.890625 27.394531 C 12.457031 26.960938 12.734375 26.316406 12.734375 25.488281 C 12.734375 24.105469 11.890625 23.53125 10.53125 23.050781 Z" fill="#fff"/></svg>