<svg xmlns="http://www.w3.org/2000/svg" viewBox="0 0 48 48" width="50" height="50" fill="#666"><path d="M20.7,39c-0.4,0-0.8-0.1-1.2-0.2L13.8,37c-1-0.3-1.9-1-2.4-2s-0.6-2-0.3-3l2.1-6.7 c0.3-1,1-1.9,2-2.4c0.9-0.5,2-0.6,3-0.3l5.7,1.8c1,0.3,1.9,1,2.4,2s0.6,2,0.3,3l-2.1,6.7C24,37.9,22.4,39,20.7,39z M17.1,24.5 c-0.3,0-0.6,0.1-0.9,0.2c-0.5,0.2-0.8,0.7-1,1.2l-2.1,6.7c-0.2,0.5-0.1,1,0.1,1.5c0.2,0.5,0.7,0.8,1.2,1l5.7,1.8 c1.1,0.3,2.2-0.3,2.5-1.3l0,0l2.1-6.7c0.2-0.5,0.1-1-0.1-1.5c-0.2-0.5-0.7-0.8-1.2-1l-5.7-1.8C17.5,24.6,17.3,24.5,17.1,24.5z" fill="#b0bec5"/><path d="M3,19h3v10H3V19z" fill="#b0bec5"/><path d="M42,8h3v32h-3V8z" fill="#b0bec5"/><path d="M6,19.7v8.6l36,10.4V9.3L6,19.7z" fill="#f44336"/><path d="M8,21.3v2.2l32-5.1V12L8,21.3z" fill="#ff8a80"/></svg>