<svg xmlns="http://www.w3.org/2000/svg" viewBox="0 0 48 48" width="50" height="50" fill="#666"><path d="M 40 45 L 8 45 L 8 3 L 30 3 L 40 13 Z" fill="#4db6ac"/><path d="M 38.5 14 L 29 14 L 29 4.5 Z" fill="#e0f2f1"/><path d="M 16 33.953125 L 14 33.953125 L 14 29.695313 L 11 29.695313 L 11 33.953125 L 9.019531 33.953125 L 9.019531 24 L 11 24 L 11 28.027344 L 14 28.027344 L 14 24 L 16 24 Z M 23 24 L 17 24 L 17 25.675781 L 19 25.675781 L 19 33.953125 L 21 33.953125 L 21 25.675781 L 23 25.675781 Z M 24.035156 24 L 24.035156 33.953125 L 26 33.953125 L 26 27.109375 L 27.851563 33.953125 L 29.21875 33.953125 L 31 27.109375 L 31 33.953125 L 33 33.953125 L 33 24 L 30.414063 24 L 28.539063 31.199219 L 26.660156 24 Z M 36 24 L 34 24 L 34 33.953125 L 39 33.953125 L 39 32.285156 L 36 32.285156 Z" fill="#00695c"/></svg>