<svg xmlns="http://www.w3.org/2000/svg" viewBox="0 0 48 48" width="50" height="50" fill="#666"><path d="M 32.699219 8.300781 L 31.300781 9.699219 L 36 14.398438 L 36 19 C 36 19.601563 36.398438 20 37 20 L 39 20 C 39.601563 20 40 19.601563 40 19 L 40 16.398438 C 40 15.898438 39.800781 15.398438 39.398438 15 Z" fill="#42a5f5"/><path d="M 33 43 L 9 43 L 9 9 C 9 6.800781 10.800781 5 13 5 L 29 5 C 31.199219 5 33 6.800781 33 9 Z" fill="#ffc107"/><path d="M 41.101563 27 C 40.101563 25.199219 39 23.398438 39 20 L 37 20 C 37 24 38.199219 26.101563 39.398438 28 C 40.300781 29.5 41 30.898438 41 33 C 41 34.101563 40.101563 35 39 35 C 37.898438 35 37 34.101563 37 33 L 37 28 C 37 26.898438 36.101563 26 35 26 L 33 26 L 33 28 L 35 28 L 35 33 C 35 35.199219 36.800781 37 39 37 C 41.199219 37 43 35.199219 43 33 C 43 30.398438 42 28.699219 41.101563 27 Z" fill="#607d8b"/><path d="M 5 39 L 43 39 L 43 43 L 5 43 Z" fill="#607d8b"/><path d="M 29 8 L 13 8 C 12.398438 8 12 8.398438 12 9 L 12 19 C 12 19.601563 12.398438 20 13 20 L 29 20 C 29.601563 20 30 19.601563 30 19 L 30 9 C 30 8.398438 29.601563 8 29 8 Z" fill="#b2ebf2"/><path d="M 29 8 L 13 8 C 12.398438 8 12 8.398438 12 9 L 12 19 C 12 19.601563 12.398438 20 13 20 L 29 20 C 29.601563 20 30 19.601563 30 19 L 30 9 C 30 8.398438 29.601563 8 29 8 Z" fill="#b2ebf2"/><path d="M 22 20 L 26.699219 14.300781 L 19.699219 20 Z" fill="#f44336"/><path d="M 14 13.800781 L 12.601563 12.398438 C 12.898438 12.101563 13.101563 11.898438 13.398438 11.699219 L 14.699219 13.300781 C 14.398438 13.398438 14.199219 13.601563 14 13.800781 Z M 28 13.800781 C 27.800781 13.601563 27.601563 13.398438 27.300781 13.199219 L 28.5 11.601563 C 28.800781 11.800781 29.101563 12.101563 29.300781 12.300781 Z M 17 11.800781 L 16.199219 10 C 16.5 9.898438 16.898438 9.699219 17.199219 9.601563 L 17.800781 11.5 C 17.5 11.601563 17.300781 11.699219 17 11.800781 Z M 24.898438 11.800781 C 24.601563 11.699219 24.300781 11.601563 24 11.5 L 24.601563 9.601563 C 24.898438 9.699219 25.300781 9.800781 25.601563 10 Z M 20.5 11 L 20.398438 9 C 20.800781 9 21.101563 9 21.5 9 L 21.398438 11 C 21.101563 11 20.800781 11 20.5 11 Z" fill="#455a64"/><path d="M 23 20 L 19 20 C 19 18.898438 19.898438 18 21 18 C 22.101563 18 23 18.898438 23 20 Z" fill="#455a64"/></svg>