<svg xmlns="http://www.w3.org/2000/svg" viewBox="0 0 48 48" width="50" height="50" fill="#666"><path d="M 24 4 C 18.5 4 14 8.5 14 14 L 14 18 L 18 18 L 18 14 C 18 10.699219 20.699219 8 24 8 C 27.300781 8 30 10.699219 30 14 L 30 18 L 34 18 L 34 14 C 34 8.5 29.5 4 24 4 Z" fill="#424242"/><path d="M 36 44 L 12 44 C 9.800781 44 8 42.199219 8 40 L 8 22 C 8 19.800781 9.800781 18 12 18 L 36 18 C 38.199219 18 40 19.800781 40 22 L 40 40 C 40 42.199219 38.199219 44 36 44 Z" fill="#fb8c00"/><path d="M 30 31 C 30 34.3125 27.3125 37 24 37 C 20.6875 37 18 34.3125 18 31 C 18 27.6875 20.6875 25 24 25 C 27.3125 25 30 27.6875 30 31 Z" fill="#efebe9"/><path d="M 27 31 C 27 32.65625 25.65625 34 24 34 C 22.34375 34 21 32.65625 21 31 C 21 29.34375 22.34375 28 24 28 C 25.65625 28 27 29.34375 27 31 Z" fill="#1e88e5"/><path d="M 27 29 C 27 29.550781 26.550781 30 26 30 C 25.449219 30 25 29.550781 25 29 C 25 28.449219 25.449219 28 26 28 C 26.550781 28 27 28.449219 27 29 Z" fill="#fff"/></svg>