<svg xmlns="http://www.w3.org/2000/svg" viewBox="0 0 48 48" width="50" height="50" fill="#666"><path d="M 38 17 C 38 16.800781 38 16.699219 38 16.5 C 38 12.898438 35.101563 10 31.5 10 C 29.800781 10 28.300781 10.699219 27.101563 11.699219 C 25.699219 8.898438 22.800781 7 19.5 7 C 14.800781 7 11 10.800781 11 15.5 C 11 16 11.101563 16.5 11.101563 17 C 7.699219 17.398438 5 20.300781 5 23.898438 C 5 27.800781 8.101563 30.898438 12 30.898438 C 12 30.898438 12.101563 30.898438 12.101563 30.898438 C 12.398438 31 12.699219 31 13 31 L 38 31 C 41.898438 31 45 27.898438 45 24 C 45 20.101563 41.898438 17 38 17 Z" fill="#bbdefb"/><path d="M 33.101563 27 L 25.101563 18 L 17.101563 27 L 22 27 L 22 41 L 28 41 L 28 27 Z" fill="#3f51b5"/></svg>