<svg xmlns="http://www.w3.org/2000/svg" viewBox="0 0 48 48" width="50" height="50" fill="#666"><path d="M 20.398438 39 C 18.601563 39 17 37.601563 16.898438 35.699219 C 16.199219 25 7.898438 20.699219 7.898438 20.601563 C 6.199219 19.699219 5.5 17.601563 6.398438 15.898438 C 7.300781 14.199219 9.398438 13.5 11.101563 14.398438 C 11.601563 14.699219 23 20.699219 23.898438 35.300781 C 24 37.199219 22.5 38.898438 20.601563 39 C 20.601563 39 20.5 39 20.398438 39 Z" fill="#1976d2"/><path d="M 20.398438 39 C 19.800781 39 19.101563 38.800781 18.5 38.398438 C 16.898438 37.398438 16.398438 35.199219 17.5 33.601563 C 23.398438 24.5 17.699219 14.699219 17.398438 14.300781 C 16.398438 12.601563 16.898438 10.5 18.601563 9.5 C 20.300781 8.5 22.398438 9 23.398438 10.699219 C 23.699219 11.300781 31.601563 24.5 23.398438 37.398438 C 22.699219 38.398438 21.601563 39 20.398438 39 Z" fill="#ff1744"/><path d="M 34.398438 43 C 32.398438 43 30.898438 41.398438 30.898438 39.398438 C 31.199219 23.699219 19 15.699219 18.5 15.398438 C 16.898438 14.398438 16.398438 12.199219 17.398438 10.601563 C 18.398438 9 20.601563 8.5 22.199219 9.5 C 22.898438 9.898438 38.199219 19.800781 37.800781 39.5 C 37.898438 41.5 36.398438 43 34.398438 43 Z" fill="#ffc107"/><path d="M 34.398438 43 C 33.800781 43 33.199219 42.800781 32.601563 42.5 C 30.898438 41.5 30.398438 39.398438 31.398438 37.699219 C 39.199219 24.398438 31.398438 10.300781 31.398438 10.199219 C 30.5 8.5 31 6.398438 32.699219 5.398438 C 34.398438 4.398438 36.5 5 37.5 6.699219 C 37.898438 7.398438 47.300781 24.5 37.5 41.199219 C 36.800781 42.398438 35.601563 43 34.398438 43 Z" fill="#4caf50"/></svg>