<svg xmlns="http://www.w3.org/2000/svg" viewBox="0 0 48 48" width="50" height="50" fill="#666"><path d="M 36 4 L 26 4 C 26 5.101563 25.101563 6 24 6 C 22.898438 6 22 5.101563 22 4 L 12 4 C 9.800781 4 8 5.800781 8 8 L 8 40 C 8 42.199219 9.800781 44 12 44 L 36 44 C 38.199219 44 40 42.199219 40 40 L 40 8 C 40 5.800781 38.199219 4 36 4 Z" fill="#455a64"/><path d="M 36 41 L 12 41 C 11.398438 41 11 40.601563 11 40 L 11 8 C 11 7.398438 11.398438 7 12 7 L 36 7 C 36.601563 7 37 7.398438 37 8 L 37 40 C 37 40.601563 36.601563 41 36 41 Z" fill="#fff"/><path d="M 26 4 C 26 5.101563 25.101563 6 24 6 C 22.898438 6 22 5.101563 22 4 L 15 4 L 15 8 C 15 9.101563 15.898438 10 17 10 L 31 10 C 32.101563 10 33 9.101563 33 8 L 33 4 Z" fill="#90a4ae"/><path d="M 24 0 C 21.800781 0 20 1.800781 20 4 C 20 6.199219 21.800781 8 24 8 C 26.199219 8 28 6.199219 28 4 C 28 1.800781 26.199219 0 24 0 Z M 24 6 C 22.898438 6 22 5.101563 22 4 C 22 2.898438 22.898438 2 24 2 C 25.101563 2 26 2.898438 26 4 C 26 5.101563 25.101563 6 24 6 Z" fill="#90a4ae"/><path d="M 21 20 L 33 20 L 33 22 L 21 22 Z" fill="#cfd8dc"/><path d="M 15 19 L 19 19 L 19 23 L 15 23 Z" fill="#cfd8dc"/><path d="M 21 29 L 33 29 L 33 31 L 21 31 Z" fill="#03a9f4"/><path d="M 15 28 L 19 28 L 19 32 L 15 32 Z" fill="#03a9f4"/></svg>