<svg xmlns="http://www.w3.org/2000/svg" viewBox="0 0 48 48" width="50" height="50" fill="#666"><path d="M 9 40 L 39 40 L 39 43 L 9 43 Z" fill="#b39ddb"/><path d="M 27 29 L 27 25 L 21 25 L 21 29 L 9 32 L 9 33 L 39 33 L 39 32 Z" fill="#37474f"/><path d="M 41 41 L 7 41 L 7 34 C 7 32.894531 7.894531 32 9 32 L 39 32 C 40.105469 32 41 32.894531 41 34 Z" fill="#546e7a"/><path d="M 21 26 C 21 26 16 15.75 16 11 C 16 6.25 18.601563 5 23 5 L 25 5 C 29.398438 5 32 6.582031 32 11 C 32 15.417969 27 26 27 26 Z" fill="#f4511e"/></svg>