<svg xmlns="http://www.w3.org/2000/svg" viewBox="0 0 48 48" width="50" height="50" fill="#666"><path d="M24.3,46.1L23,44.6c0,0,1-0.9,1-2.6c0-0.5-0.4-1-0.8-1.5c-0.5-0.7-1.2-1.7-1.2-2.9 c0-0.8,0.2-1.5,0.5-2.2c0.3-0.7,0.5-1.4,0.5-2.4h2c0,1.4-0.4,2.4-0.6,3.1c-0.2,0.5-0.4,1-0.4,1.5c0,0.6,0.4,1.1,0.8,1.7 C25.4,40,26,40.9,26,42C26,44.6,24.4,46,24.3,46.1z" fill="#b0bec5"/><path d="M26,34h-1l-1,1l-1-1h-1l1-4h2L26,34z" fill="#c51162"/><path d="M30.1,2c-2.3,0-4.4,0.8-6.1,2.1C22.3,2.8,20.2,2,17.9,2C12.4,2,8,6.5,8,12C8,20,19,29,24,31 c4.9-2,16-10.9,16-19C40,6.5,35.6,2,30.1,2z" fill="#ff4081"/><path d="M17.9,6c1.3,0,2.6,0.4,3.6,1.3l2.5,2l2.5-2C27.5,6.4,29.7,6,31,6c3.6,0,3.5,0.3,5.7,1.6 C35.3,5.4,32.8,4,30.1,4c-1.8,0-3.4,0.6-4.9,1.7l-1.2,1l-1.2-1C21.4,4.6,19.7,4,17.9,4C13.5,4,10,7.6,10,12c0,3.1,2.1,6.5,4.8,9.5 C13.1,19.1,12,16,12,12C12,8.7,14.6,6,17.9,6z" fill="#fce4ec"/></svg>