<svg xmlns="http://www.w3.org/2000/svg" viewBox="0 0 48 48" width="50" height="50" fill="#666"><path d="M 7.898438 42 C 7.898438 42 1.398438 35.699219 7.898438 28 C 12.601563 33.800781 7.898438 42 7.898438 42 Z" fill="#263238"/><path d="M 3 39 C 3 39 2.199219 29.601563 8 26 C 10.398438 36.101563 3 39 3 39 Z" fill="#37474f"/><path d="M 24 3 C 15.199219 3 8 10.199219 8 19 L 8 27 C 8 35.800781 15.199219 45 24 45 C 32.800781 45 40 35.800781 40 27 L 40 19 C 40 10.199219 32.800781 3 24 3 Z" fill="#455a64"/><path d="M 39.898438 28.601563 C 39.699219 31 38.898438 33.300781 37.800781 35.5 C 37.398438 35.699219 37.101563 36 36.699219 36.199219 C 36.398438 36.398438 36.101563 36.601563 35.800781 36.699219 L 34.800781 37.101563 C 34.199219 37.398438 33.5 37.601563 32.800781 37.898438 C 32.199219 38.101563 31.5 38.300781 30.898438 38.398438 C 30.300781 38.601563 29.601563 38.601563 29.101563 38.699219 C 28.5 38.800781 28 38.800781 27.398438 38.898438 C 26.898438 38.898438 26.398438 39 26 38.898438 C 25.601563 38.898438 25.199219 38.898438 24.898438 38.898438 C 24.300781 38.898438 24 38.898438 24 38.898438 C 24 38.898438 24.300781 38.898438 24.898438 38.800781 C 25.199219 38.800781 25.5 38.699219 25.898438 38.601563 C 26.300781 38.601563 26.699219 38.398438 27.199219 38.300781 C 27.699219 38.199219 28.199219 38.101563 28.699219 37.898438 C 29.199219 37.699219 29.800781 37.5 30.398438 37.300781 C 31 37 31.5 36.800781 32.101563 36.5 C 32.601563 36.199219 33.199219 35.898438 33.699219 35.5 L 34.5 34.898438 C 34.800781 34.699219 35 34.5 35.199219 34.300781 C 35.699219 33.898438 36.101563 33.5 36.5 33.101563 C 37.300781 32.199219 38 31.398438 38.601563 30.601563 C 39.300781 29.800781 39.699219 29.101563 39.898438 28.601563 Z M 8.101563 20.300781 C 8.300781 19.800781 8.699219 19.199219 9.300781 18.398438 C 9.800781 17.601563 10.5 16.800781 11.398438 15.898438 C 11.800781 15.5 12.300781 15 12.699219 14.699219 C 12.898438 14.5 13.199219 14.300781 13.398438 14.101563 L 14.199219 13.5 C 14.699219 13.101563 15.300781 12.800781 15.800781 12.5 C 16.300781 12.199219 16.898438 11.898438 17.5 11.699219 C 18.101563 11.398438 18.601563 11.300781 19.199219 11.101563 C 19.699219 10.898438 20.300781 10.800781 20.699219 10.699219 C 21.199219 10.601563 21.601563 10.398438 22 10.398438 C 22.398438 10.300781 22.800781 10.300781 23 10.199219 C 23.699219 10 24 10 24 10 C 24 10 23.699219 10 23.101563 10 C 22.800781 10 22.398438 10 22 10 C 21.601563 10 21.101563 10 20.601563 10 C 20.101563 10 19.5 10 18.898438 10.199219 C 18.300781 10.300781 17.699219 10.398438 17.101563 10.5 C 16.5 10.699219 15.800781 10.800781 15.199219 11 C 14.601563 11.199219 13.898438 11.398438 13.199219 11.800781 L 12.199219 12.199219 C 11.898438 12.398438 11.601563 12.5 11.300781 12.699219 C 10.699219 13 10.101563 13.398438 9.5 13.800781 C 9.199219 14 9 14.199219 8.699219 14.5 C 8.199219 15.898438 8 17.398438 8 19 L 8 20.398438 C 8 20.398438 8 20.300781 8.101563 20.300781 Z" fill="#263238"/><path d="M 32 28 C 33.898438 28 37 27.898438 37 24 C 37 16.800781 27.5 17 24 17 C 20.5 17 11 16.800781 11 24 C 11 27.898438 14.101563 28 16 28 C 17.300781 28 21.199219 26 24 26 C 26.800781 26 30.699219 28 32 28 Z" fill="#ffb74d"/><path d="M 33 20.101563 L 33 22.398438 C 33 23.800781 31.800781 25 30.398438 25 C 29.300781 25 28.300781 24.300781 28 23.300781 Z M 15 20.101563 L 15 22.398438 C 15 23.800781 16.199219 25 17.601563 25 C 18.699219 25 19.699219 24.300781 20 23.300781 Z" fill="#784719"/></svg>