<svg xmlns="http://www.w3.org/2000/svg" viewBox="0 0 48 48" width="50" height="50" fill="#666"><path d="M 14 27 C 14 29.207031 12.210938 31 10 31 C 7.789063 31 6 29.207031 6 27 C 6 24.789063 7.789063 23 10 23 C 12.210938 23 14 24.789063 14 27 M 42 27 C 42 24.789063 40.210938 23 38 23 C 35.789063 23 34 24.789063 34 27 C 34 29.207031 35.789063 31 38 31 C 40.210938 31 42 29.207031 42 27" fill="#ffa726"/><path d="M 9 20 C 9 7.273438 39 11.714844 39 20 L 39 30 C 39 38.285156 32.285156 45 24 45 C 15.714844 45 9 38.285156 9 30 Z" fill="#ffb74d"/><path d="M 40.890625 19.339844 C 40.417969 13.363281 38.128906 7.949219 30.800781 6.46875 L 29.101563 3 L 24 3 C 14.769531 3 7 10.480469 7 21 L 7 24.398438 L 10 28 L 10 22 L 31 15 L 38 21 L 38 28 L 41 24.398438 L 41 21 C 41 20.433594 40.957031 19.882813 40.890625 19.339844" fill="#424242"/><path d="M 30 38.804688 C 30 42.027344 27.3125 40.75 24 40.75 C 20.683594 40.75 18 42.027344 18 38.804688 L 18 37.832031 C 18 34.609375 20.8125 33 24 33 C 27.183594 33 30 34.609375 30 37.832031 Z" fill="#c62828"/><path d="M 18.753906 35 L 29.246094 35 C 28.207031 33.207031 26.21875 33 24 33 C 21.78125 33 19.792969 33.207031 18.753906 35" fill="#eceff1"/><path d="M 33 25 L 33 27.335938 C 33 28.761719 31.84375 29.917969 30.417969 29.917969 C 29.300781 29.917969 28.359375 29.210938 28 28.21875 Z M 15 25 L 15 27.335938 C 15 28.761719 16.15625 29.917969 17.582031 29.917969 C 18.699219 29.917969 19.636719 29.210938 20 28.21875 Z" fill="#784719"/></svg>