<svg xmlns="http://www.w3.org/2000/svg" viewBox="0 0 48 48" width="50" height="50" fill="#666"><path d="M 12 9 L 14 9 L 14 39 L 12 39 Z" fill="#cfd8dc"/><path d="M 14 37 L 12 37 L 12 29.601563 C 12 27.101563 14 25 16.601563 25 L 31.5 25 C 32.898438 25 34.101563 23.898438 34.101563 22.398438 L 34.101563 16 L 36.101563 16 L 36.101563 22.398438 C 36.101563 24.898438 34.101563 27 31.5 27 L 16.601563 27 C 15.199219 27 14 28.101563 14 29.601563 Z" fill="#cfd8dc"/><path d="M 9 8 C 9 5.800781 10.800781 4 13 4 C 15.199219 4 17 5.800781 17 8 C 17 10.199219 15.199219 12 13 12 C 10.800781 12 9 10.199219 9 8 Z M 35 18 C 37.199219 18 39 16.199219 39 14 C 39 11.800781 37.199219 10 35 10 C 32.800781 10 31 11.800781 31 14 C 31 16.199219 32.800781 18 35 18 Z" fill="#00bcd4"/><path d="M 17 40 C 17 42.210938 15.210938 44 13 44 C 10.789063 44 9 42.210938 9 40 C 9 37.789063 10.789063 36 13 36 C 15.210938 36 17 37.789063 17 40 Z" fill="#0097a7"/></svg>