<svg xmlns="http://www.w3.org/2000/svg" viewBox="0 0 48 48" width="50" height="50" fill="#666"><path d="M44,24c0,11-9,20-20,20S4,35,4,24S13,4,24,4S44,13,44,24z" fill="#f44336"/><path d="M29,21h-2v-2c0-0.5-0.2-3-3-3c-2.8,0-3,2.5-3,3v2h-2v-2c0-1.7,1-5,5-5s5,3.3,5,5V21z" fill="#fff"/><path d="M30.2,32H17.8c-1,0-1.8-0.8-1.8-1.8v-8.4c0-1,0.8-1.8,1.8-1.8h12.4c1,0,1.8,0.8,1.8,1.8v8.4 C32,31.2,31.2,32,30.2,32" fill="#ffcdd2"/><path d="M26,26c0,1.1-0.9,2-2,2s-2-0.9-2-2s0.9-2,2-2S26,24.9,26,26" fill="#c62828"/></svg>