<svg xmlns="http://www.w3.org/2000/svg" viewBox="0 0 48 48" width="50" height="50" fill="#666"><path d="M24,2l4.506,5.029L35,5l1.465,6.535L43,13l-2,6.494L46,24l-5,4.506L43,35l-6.535,1.465L35,43	l-6.494-2.029L24,46l-4.506-5.029L13,43l-1.465-6.535L5,35l2-6.494L2,24l5-4.506L5,13l6.535-1.465L13,5l6.494,2.029L24,2z" fill="#a0f"/><path d="M17.801,29h-2l-3-6.602V29h-2V19h2l3,6.602V19h2V29z" fill="#fff"/><path d="M25.301,24.699h-3.102v2.699h3.699V29h-5.699V19h5.699v1.699h-3.699V23h3.102V24.699z" fill="#fff"/><path d="M34.199,25.301L35.102,19h2l-1.801,10h-2l-1.199-5.898l-1,5.898h-2l-1.801-10h2l0.898,6.301	L31.398,19h1.703L34.199,25.301z" fill="#fff"/></svg>