<svg xmlns="http://www.w3.org/2000/svg" viewBox="0 0 48 48" width="50" height="50" fill="#666"><path d="M 37 45 L 11 45 C 9.34375 45 8 43.65625 8 42 L 8 6 C 8 4.34375 9.34375 3 11 3 L 30 3 L 40 13 L 40 42 C 40 43.65625 38.65625 45 37 45 Z" fill="#2196f3"/><path d="M 40 13 L 30 13 L 30 3 Z" fill="#bbdefb"/><path d="M 30 13 L 40 23 L 40 13 Z" fill="#1565c0"/><path d="M 15 23 L 33 23 L 33 25 L 15 25 Z" fill="#e3f2fd"/><path d="M 15 27 L 33 27 L 33 29 L 15 29 Z" fill="#e3f2fd"/><path d="M 15 31 L 33 31 L 33 33 L 15 33 Z" fill="#e3f2fd"/><path d="M 15 35 L 25 35 L 25 37 L 15 37 Z" fill="#e3f2fd"/></svg>