<svg xmlns="http://www.w3.org/2000/svg" viewBox="0 0 48 48" width="50" height="50" fill="#666"><path d="M 37.25 45 L 34.625 45 L 34.625 43.125 L 38 43.125 Z" fill="#ff9800"/><path d="M 22 37 L 17 31 L 17 25 L 27 25 L 27 31 Z" fill="#ff9800"/><path d="M 33 19 C 33 20.105469 32.105469 21 31 21 C 29.894531 21 29 20.105469 29 19 C 29 17.894531 29.894531 17 31 17 C 32.105469 17 33 17.894531 33 19 M 15 19 C 15 17.894531 14.105469 17 13 17 C 11.894531 17 11 17.894531 11 19 C 11 20.105469 11.894531 21 13 21 C 14.105469 21 15 20.105469 15 19" fill="#f9a825"/><path d="M 31 13 C 31 5.363281 13 8.027344 13 13 L 13 20 C 13 24.972656 17.027344 29 22 29 C 26.972656 29 31 24.972656 31 20 Z" fill="#ffb74d"/><path d="M 22 4 C 15.925781 4 12 8.925781 12 15 L 12 17.285156 L 14 19 L 14 14 L 26 10 L 30 14 L 30 19 L 32 17.257813 L 32 15 C 32 10.976563 30.960938 6.984375 26 6 L 25 4 Z" fill="#424242"/><path d="M 25 19 C 25 18.449219 25.449219 18 26 18 C 26.550781 18 27 18.449219 27 19 C 27 19.550781 26.550781 20 26 20 C 25.449219 20 25 19.550781 25 19 M 17 19 C 17 19.550781 17.449219 20 18 20 C 18.550781 20 19 19.550781 19 19 C 19 18.449219 18.550781 18 18 18 C 17.449219 18 17 18.449219 17 19" fill="#784719"/><path d="M 22 43 L 17 31 L 22 32 L 27 31 Z" fill="#fff"/><path d="M 21 35 L 20.332031 39.464844 L 22 43.464844 L 23.667969 39.464844 L 23 35 L 24 34 L 22 32 L 20 34 Z" fill="#212121"/><path d="M 35 35.578125 C 31.742188 31.871094 27 31 27 31 L 22 43 L 17 31 C 17 31 6 32.984375 6 44 L 35 44 Z" fill="#90a4ae"/><path d="M 22 26 C 20 26 20 24 20 24 L 24 24 C 24 24 24 26 22 26 Z" fill="#fff"/><path d="M 40 27 L 28.234375 37.925781 L 34.722656 43.988281 L 46 33.0625 Z" fill="#1b5e20"/><path d="M 35.9375 23 L 26 40.691406 L 35.0625 46 L 45 28.308594 Z" fill="#388e3c"/><path d="M 36.683594 25.753906 L 42.296875 29.042969 L 34.316406 43.246094 L 28.707031 39.957031 L 36.683594 25.753906" fill="#a5d6a7"/><path d="M 40.253906 26.207031 C 39.539063 25.789063 38.621094 26.027344 38.203125 26.742188 C 37.785156 27.457031 38.027344 28.378906 38.742188 28.796875 C 39.457031 29.214844 40.375 28.972656 40.792969 28.257813 C 41.210938 27.542969 40.972656 26.625 40.253906 26.207031 Z" fill="#388e3c"/><path d="M 32.253906 40.207031 C 31.539063 39.785156 30.621094 40.027344 30.203125 40.742188 C 29.785156 41.457031 30.027344 42.375 30.742188 42.792969 C 31.457031 43.214844 32.375 42.972656 32.792969 42.257813 C 33.210938 41.542969 32.96875 40.625 32.253906 40.207031 Z" fill="#388e3c"/><path d="M 37.265625 31.480469 C 35.597656 30.503906 33.453125 31.066406 32.476563 32.734375 C 31.503906 34.402344 32.0625 36.546875 33.730469 37.519531 C 35.398438 38.496094 37.542969 37.933594 38.519531 36.265625 C 39.496094 34.597656 38.933594 32.457031 37.265625 31.480469 Z" fill="#388e3c"/><path d="M 40.332031 38.28125 L 38.339844 37.160156 C 37.609375 36.730469 36.558594 37.195313 35.992188 38.199219 L 34.351563 41.105469 C 33.785156 42.109375 33.917969 43.273438 34.648438 43.707031 L 36.683594 44.851563 C 37.414063 45.261719 38.449219 44.792969 39.007813 43.800781 L 40.648438 40.894531 C 41.222656 39.878906 41.078125 38.699219 40.332031 38.28125 Z" fill="#ffb74d"/></svg>