<svg xmlns="http://www.w3.org/2000/svg" viewBox="0 0 48 48" width="50" height="50" fill="#666"><path d="M21,31c0,3.3-2.8,6-7.5,6h-0.9C7.9,37,6,34.3,6,31s0.4-6,7-6h1C20.6,25,21,27.7,21,31z" fill="#bbdefb"/><path d="M42,31c0,3.3-2.8,6-7.5,6h-0.9c-4.7,0-6.6-2.7-6.6-6s0.4-6,7-6h1C41.6,25,42,27.7,42,31z" fill="#bbdefb"/><path d="M43.8,27.7L33.2,12.9c0,0,0,0,0,0c0,0-0.8-1-1.7-0.9c-0.8,0.1-1.8,1.1-2.6,2.7l-0.4,0.9l-1.8-0.9 l0.4-0.9c1.2-2.4,2.6-3.7,4.2-3.8c2.1-0.2,3.4,1.6,3.5,1.7l10.6,14.8L43.8,27.7z" fill="#00838f"/><path d="M4.2,27.7l-1.6-1.2l10.6-14.8c0.1-0.1,1.4-1.9,3.5-1.7c1.6,0.1,3,1.4,4.2,3.8l0.4,0.9l-1.8,0.9 l-0.4-0.9c-0.8-1.7-1.8-2.7-2.6-2.7c-0.9-0.1-1.7,0.9-1.7,0.9L4.2,27.7z" fill="#00838f"/><path d="M13.5,38h-0.9C7.8,38,5,35.4,5,31c0-3.5,0.6-7,8-7h1c7.4,0,8,3.5,8,7C22,35.1,18.5,38,13.5,38z M13,26c-6,0-6,2.2-6,5c0,2.3,1,5,5.6,5h0.9c3.8,0,6.5-2.1,6.5-5c0-2.8,0-5-6-5H13z" fill="#0097a7"/><path d="M34.5,38h-0.9c-4.7,0-7.6-2.6-7.6-7c0-3.5,0.6-7,8-7h1c7.4,0,8,3.5,8,7C43,35.1,39.5,38,34.5,38z M34,26c-6,0-6,2.2-6,5c0,2.3,1,5,5.6,5h0.9c3.8,0,6.5-2.1,6.5-5c0-2.8,0-5-6-5H34z" fill="#0097a7"/><path d="M4,28.4L2.6,27L3,26c0.2-0.2,2.8-2,10-2c6,0,7.3,0.6,9.3,1.6l0.2,0.1c1.4,0.7,3.2,0,3.2,0l0.9-0.4 l0.8,1.9l-0.9,0.4c-0.1,0-2.7,1-4.8,0l-0.2-0.1C19.6,26.5,18.6,26,13,26c-6.3,0-8.3,1.7-8.3,1.7L4,28.4z" fill="#0097a7"/><path d="M44,28.4l-0.7-0.7C43.2,27.6,41.2,26,35,26c-4.7,0-6.6,0.5-8.6,1.5c-2.2,1.1-4.7,0.1-4.8,0l-0.9-0.4 l0.8-1.9l0.9,0.4c0,0,1.8,0.7,3.2,0c2.2-1.1,4.4-1.7,9.4-1.7c7.2,0,9.8,1.8,10,2l0.4,1L44,28.4z" fill="#0097a7"/><path d="M21.6,29.7l-0.9-1.8l0.9-0.4c2.2-1.1,4.7-0.1,4.8,0l0.9,0.4l-0.8,1.9l-0.9-0.4c0,0-1.8-0.7-3.2,0 L21.6,29.7z" fill="#0097a7"/><path d="M26.4,29.7l-0.9-0.4c-1.3-0.7-3.2,0-3.2,0l-0.9,0.4l-0.8-1.9l0.9-0.4c0.1,0,2.7-1.1,4.8,0l0.9,0.4 L26.4,29.7z" fill="#0097a7"/><path d="M42,27c0-0.6,0.4-1,1-1h2c0.6,0,1,0.4,1,1v1c0,0.6-0.4,1-1,1c0,0-2,0-2,1s-1-1.4-1-2V27z" fill="#0097a7"/><path d="M6,27c0-0.6-0.4-1-1-1H3c-0.6,0-1,0.4-1,1v1c0,0.6,0.4,1,1,1c0,0,2,0,2,1s1-1.4,1-2V27z" fill="#0097a7"/><path d="M10,32C10,32,10,32,10,32c-0.6,0-1-0.4-1-1c0-1,0.8-3,4-3c0.6,0,1,0.4,1,1s-0.4,1-1,1 c-1.8,0-2,0.9-2,1C11,31.6,10.5,32,10,32z" fill="#fff"/><path d="M31,32C31,32,31,32,31,32c-0.6,0-1-0.4-1-1c0-1,0.8-3,4-3c0.6,0,1,0.4,1,1s-0.4,1-1,1 c-1.8,0-2,0.9-2,1C32,31.6,31.5,32,31,32z" fill="#fff"/></svg>