<svg xmlns="http://www.w3.org/2000/svg" viewBox="0 0 48 48" width="50" height="50" fill="#666"><path d="M42.92,36.32L42,43h-4l-2-3H12l-2,3H6l-0.92-6.68c-0.19-1.53-0.03-3.08,0.48-4.53l3.61-10.25 L12.88,11h22.24l3.71,10.54l3.61,10.25C42.95,33.24,43.11,34.79,42.92,36.32z" fill="#d84315"/><path d="M35.12,11c0,0-3.12-1-11.12-1s-11.12,1-11.12,1L9.17,21.54l0.88-0.23c1.51-0.39,2.77-1.48,3.37-2.93 l2-4.82C18.76,13.06,21.87,13,24,13s5.24,0.06,8.58,0.56l2,4.82c0.6,1.45,1.86,2.54,3.37,2.93l0.88,0.23L35.12,11z" fill="#bf360c"/><path d="M45.381,9.288C38.121,5.49,29.853,5,24,5S9.879,5.49,2.619,9.288C1.625,9.807,1,10.838,1,11.959v7.04 C1,20.137,1.932,21.002,3,21c0.189,0,0.382-0.028,0.575-0.086l5.976-1.541c0.912-0.235,1.661-0.886,2.022-1.756L14,11.764 C17.616,11.127,21.127,11,24,11s6.384,0.127,10,0.764l2.427,5.853c0.361,0.87,1.11,1.521,2.022,1.756l5.976,1.541 C44.618,20.972,44.811,21,45,21c1.068,0.002,2-0.863,2-2.001v-7.04C47,10.838,46.375,9.807,45.381,9.288z" fill="#f4511e"/><path fill="#ff8a65" d="M28 21H32V23H28z"/><path fill="#ff8a65" d="M28 25H32V27H28z"/><path fill="#ff8a65" d="M28 29H32V31H28z"/><path fill="#ff8a65" d="M22 21H26V23H22z"/><path fill="#ff8a65" d="M22 25H26V27H22z"/><path fill="#ff8a65" d="M22 29H26V31H22z"/><path fill="#ff8a65" d="M16 21H20V23H16z"/><path fill="#ff8a65" d="M16 25H20V27H16z"/><path fill="#ff8a65" d="M16 29H20V31H16z"/></svg>