<svg xmlns="http://www.w3.org/2000/svg" viewBox="0 0 48 48" width="50" height="50" fill="#666"><path d="M 44 21.777344 L 35.179688 19.367188 L 39.714844 11.429688 L 36.570313 8.285156 L 28.976563 12.621094 L 26.222656 4 L 21.777344 4 L 19.136719 12.265625 L 11.429688 8.285156 L 8.285156 11.429688 L 12.265625 19.140625 L 4 21.777344 L 4 26.222656 L 12.261719 28.859375 L 8.285156 36.570313 L 11.429688 39.714844 L 19.136719 35.734375 L 21.777344 44 L 26.222656 44 L 28.859375 35.734375 L 36.570313 39.714844 L 39.710938 36.570313 L 35.5625 28.527344 L 44 26.222656 Z M 24 32.890625 C 19.089844 32.890625 15.109375 28.910156 15.109375 24 C 15.109375 19.089844 19.089844 15.109375 24 15.109375 C 28.910156 15.109375 32.890625 19.089844 32.890625 24 C 32.890625 28.910156 28.910156 32.890625 24 32.890625 Z" fill="#455a64"/><path d="M 24 9 C 15.714844 9 9 15.714844 9 24 C 9 32.285156 15.714844 39 24 39 C 32.285156 39 39 32.285156 39 24 C 39 15.714844 32.285156 9 24 9 Z" fill="#78909c"/><path d="M 19.320313 26.953125 L 16.578125 26.953125 L 16.046875 29 L 13.921875 29 L 17.03125 19 L 18.867188 19 L 22 29 L 19.855469 29 Z M 17.015625 25.273438 L 18.875 25.273438 L 17.945313 21.707031 Z M 33 29 L 31 29 L 31 19 L 33 19 Z M 25.011719 25.484375 L 25.011719 29 L 23 29 L 23 19 L 26.390625 19 C 27.375 19 28.160156 19.304688 28.746094 19.921875 C 29.332031 20.535156 29.625 21.332031 29.625 22.308594 C 29.625 23.289063 29.335938 24.0625 28.757813 24.632813 C 28.175781 25.199219 27.375 25.484375 26.351563 25.484375 Z M 25.011719 23.800781 L 26.390625 23.800781 C 26.773438 23.800781 27.070313 23.675781 27.28125 23.421875 C 27.488281 23.171875 27.59375 22.804688 27.59375 22.324219 C 27.59375 21.824219 27.484375 21.429688 27.273438 21.132813 C 27.058594 20.835938 26.769531 20.6875 26.410156 20.683594 L 25.011719 20.683594 Z" fill="#fff"/></svg>