<svg xmlns="http://www.w3.org/2000/svg" viewBox="0 0 48 48" width="50" height="50" fill="#666"><path d="M 38 19 L 35 13 L 32 19 Z" fill="#8e24aa"/><path d="M 16 19 L 13 13 L 10 19 Z" fill="#8e24aa"/><path d="M 18 15 L 30 15 L 30 24 L 18 24 Z" fill="#ce93d8"/><path d="M 32 19 L 38 19 L 38 24 L 32 24 Z" fill="#ce93d8"/><path d="M 10 19 L 16 19 L 16 24 L 10 24 Z" fill="#ce93d8"/><path d="M 37 18 L 37 24 L 11 24 L 11 18 L 5 18 L 5 43 L 43 43 L 43 18 Z" fill="#e1bee7"/><path d="M 33 43 L 15 43 C 15 34 24 31 24 31 C 24 31 33 34 33 43 Z" fill="#9c27b0"/><path d="M 43 18 L 40 12 L 37 18 Z" fill="#9c27b0"/><path d="M 30 15 L 24 5 L 18 15 Z" fill="#9c27b0"/><path d="M 11 18 L 8 12 L 5 18 Z" fill="#9c27b0"/><path d="M 37 29 L 35.5 28 L 34 29 L 34 34 L 37 34 Z" fill="#8e24aa"/><path d="M 14 29 L 12.5 28 L 11 29 L 11 34 L 14 34 Z" fill="#8e24aa"/><path d="M 27 20 L 24 18 L 21 20 L 21 24 L 27 24 Z" fill="#8e24aa"/></svg>