<svg xmlns="http://www.w3.org/2000/svg" viewBox="0 0 48 48" width="50" height="50" fill="#666"><path d="M 5 19 L 43 19 L 43 38 L 5 38 Z" fill="#cfd8dc"/><path d="M 5 38 L 43 38 L 43 42 L 5 42 Z" fill="#b0bec5"/><path d="M 12 24 L 36 24 L 36 42 L 12 42 Z" fill="#e3f2fd"/><path d="M 13 25 L 35 25 L 35 42 L 13 42 Z" fill="#2196f3"/><path d="M 35 42 L 13 42 L 13 35 L 35 25 Z" fill="#64b5f6"/><path d="M 27 19 C 27 20.65625 25.65625 22 24 22 C 22.34375 22 21 20.65625 21 19 C 21 17.34375 22.34375 16 24 16 C 25.65625 16 27 17.34375 27 19" fill="#d84315"/><path d="M 39 19 C 39 20.65625 37.65625 22 36 22 C 34.34375 22 33 20.65625 33 19 C 33 17.34375 34.34375 16 36 16 C 37.65625 16 39 17.34375 39 19" fill="#d84315"/><path d="M 9 19 C 9 20.65625 10.34375 22 12 22 C 13.65625 22 15 20.65625 15 19 C 15 17.34375 13.65625 16 12 16 C 10.34375 16 9 17.34375 9 19" fill="#d84315"/><path d="M 40 6 L 8 6 C 6.894531 6 6 6.894531 6 8 L 6 11 L 42 11 L 42 8 C 42 6.894531 41.105469 6 40 6" fill="#ff5722"/><path d="M 21 11 L 27 11 L 27 19 L 21 19 Z" fill="#ff5722"/><path d="M 37 11 L 32 11 L 33 19 L 39 19 Z" fill="#ff5722"/><path d="M 11 11 L 16 11 L 15 19 L 9 19 Z" fill="#ff5722"/><path d="M 33 19 C 33 20.65625 31.65625 22 30 22 C 28.34375 22 27 20.65625 27 19 C 27 17.34375 28.34375 16 30 16 C 31.65625 16 33 17.34375 33 19" fill="#ffa000"/><path d="M 45 19 C 45 20.65625 43.65625 22 42 22 C 40.34375 22 39 20.65625 39 19 C 39 17.34375 40.34375 16 42 16 Z" fill="#ffa000"/><path d="M 15 19 C 15 20.65625 16.34375 22 18 22 C 19.65625 22 21 20.65625 21 19 C 21 17.34375 19.65625 16 18 16 C 16.34375 16 15 17.34375 15 19" fill="#ffa000"/><path d="M 3 19 C 3 20.65625 4.34375 22 6 22 C 7.65625 22 9 20.65625 9 19 C 9 17.34375 7.65625 16 6 16 Z" fill="#ffa000"/><path d="M 32 11 L 27 11 L 27 19 L 33 19 Z" fill="#ffc107"/><path d="M 42 11 L 37 11 L 39 19 L 45 19 Z" fill="#ffc107"/><path d="M 16 11 L 21 11 L 21 19 L 15 19 Z" fill="#ffc107"/><path d="M 6 11 L 11 11 L 9 19 L 3 19 Z" fill="#ffc107"/><path d="M 23 25 L 25 25 L 25 42 L 23 42 Z" fill="#1976d2"/><path d="M 23 30.453125 L 23 42 L 25 42 L 25 29.546875 Z" fill="#1e88e5"/><path d="M 29 34 C 29 34.550781 28.550781 35 28 35 C 27.449219 35 27 34.550781 27 34 C 27 33.449219 27.449219 33 28 33 C 28.550781 33 29 33.449219 29 34 Z" fill="#1e88e5"/><path d="M 21 34 C 21 34.550781 20.550781 35 20 35 C 19.449219 35 19 34.550781 19 34 C 19 33.449219 19.449219 33 20 33 C 20.550781 33 21 33.449219 21 34 Z" fill="#1e88e5"/></svg>