<svg xmlns="http://www.w3.org/2000/svg" viewBox="0 0 48 48" width="50" height="50" fill="#666"><path d="M 2 9 L 46 9 L 46 39 L 2 39 Z" fill="#3f51b5"/><path d="M 24 12 L 24.546875 13.117188 L 25.769531 13.292969 L 24.886719 14.160156 L 25.09375 15.390625 L 24 14.808594 L 22.90625 15.390625 L 23.117188 14.160156 L 22.230469 13.292969 L 23.453125 13.117188 Z M 18.746094 13.582031 L 19.292969 14.699219 L 20.515625 14.878906 L 19.632813 15.746094 L 19.839844 16.972656 L 18.746094 16.394531 L 17.652344 16.972656 L 17.863281 15.746094 L 16.976563 14.878906 L 18.199219 14.699219 Z M 15.011719 17.050781 L 15.558594 18.164063 L 16.78125 18.34375 L 15.898438 19.210938 L 16.105469 20.4375 L 15.015625 19.859375 L 13.921875 20.4375 L 14.128906 19.210938 L 13.246094 18.34375 L 14.46875 18.164063 Z M 29.253906 13.582031 L 28.707031 14.699219 L 27.484375 14.878906 L 28.367188 15.746094 L 28.160156 16.972656 L 29.253906 16.394531 L 30.347656 16.972656 L 30.136719 15.746094 L 31.023438 14.878906 L 29.800781 14.699219 Z M 18.746094 30.445313 L 19.292969 31.5625 L 20.515625 31.738281 L 19.632813 32.609375 L 19.839844 33.835938 L 18.746094 33.257813 L 17.652344 33.835938 L 17.863281 32.609375 L 16.976563 31.738281 L 18.199219 31.5625 Z M 29.253906 30.445313 L 28.707031 31.5625 L 27.484375 31.738281 L 28.367188 32.609375 L 28.160156 33.835938 L 29.253906 33.257813 L 30.347656 33.835938 L 30.136719 32.609375 L 31.023438 31.738281 L 29.800781 31.5625 Z M 32.988281 17.050781 L 32.441406 18.164063 L 31.21875 18.34375 L 32.101563 19.210938 L 31.894531 20.4375 L 32.984375 19.859375 L 34.078125 20.4375 L 33.871094 19.210938 L 34.753906 18.34375 L 33.53125 18.164063 Z M 15.011719 26.929688 L 15.558594 28.042969 L 16.78125 28.222656 L 15.898438 29.089844 L 16.105469 30.316406 L 15.015625 29.738281 L 13.921875 30.316406 L 14.128906 29.089844 L 13.246094 28.222656 L 14.46875 28.042969 Z M 32.988281 26.929688 L 32.441406 28.042969 L 31.21875 28.222656 L 32.101563 29.089844 L 31.894531 30.316406 L 32.984375 29.738281 L 34.078125 30.316406 L 33.871094 29.089844 L 34.753906 28.222656 L 33.53125 28.042969 Z M 34.230469 22.304688 L 34.777344 23.421875 L 36 23.601563 L 35.117188 24.46875 L 35.324219 25.695313 L 34.230469 25.117188 L 33.140625 25.695313 L 33.347656 24.46875 L 32.460938 23.601563 L 33.683594 23.421875 Z M 13.769531 22.304688 L 14.316406 23.421875 L 15.539063 23.601563 L 14.652344 24.46875 L 14.863281 25.695313 L 13.769531 25.117188 L 12.675781 25.695313 L 12.886719 24.46875 L 12 23.601563 L 13.222656 23.421875 Z M 24 32.609375 L 24.546875 33.726563 L 25.769531 33.90625 L 24.886719 34.773438 L 25.09375 36 L 24 35.421875 L 22.90625 36 L 23.117188 34.773438 L 22.230469 33.90625 L 23.453125 33.726563 Z" fill="#ffeb3b"/></svg>