<svg xmlns="http://www.w3.org/2000/svg" viewBox="0 0 48 48" width="50" height="50" fill="#666"><path d="M24,27l10-10l10,10L34,37L24,27z" fill="#ff9800"/><path d="M27,20h14v14H27V20z" fill="#ff9800"/><path d="M29,27c0,2.762,2.238,5,5,5s5-2.238,5-5c0-2.766-2.238-5-5-5S29,24.234,29,27" fill="#ffeb3b"/><path fill="#795548" d="M16 24H19V31H16z"/><path d="M21,13.5c0,1.38-1.12,2.5-2.5,2.5S16,14.88,16,13.5s1.12-2.5,2.5-2.5S21,12.12,21,13.5z" fill="#689f38"/><path d="M24,22c0,1.657-1.343,3-3,3s-3-1.343-3-3s1.343-3,3-3S24,20.343,24,22z" fill="#689f38"/><path d="M25,19c0,1.105-0.895,2-2,2s-2-0.895-2-2s0.895-2,2-2S25,17.895,25,19z" fill="#689f38"/><path d="M24,15.5c0,1.382-1.118,2.5-2.5,2.5S19,16.882,19,15.5s1.118-2.5,2.5-2.5S24,14.118,24,15.5z" fill="#689f38"/><path d="M20,23.5c0,1.38-1.12,2.5-2.5,2.5S15,24.88,15,23.5s1.12-2.5,2.5-2.5S20,22.12,20,23.5z" fill="#689f38"/><path d="M22,18.286C22,15.92,19.984,14,17.5,14S13,15.92,13,18.286c0,2.366,2.016,4.286,4.5,4.286 S22,20.652,22,18.286z" fill="#689f38"/><path d="M18,22c0,1.656-1.344,3-3,3s-3-1.344-3-3s1.344-3,3-3S18,20.344,18,22z" fill="#689f38"/><g><path fill="#795548" d="M10 22H13V30H10z"/><path d="M14,9c0,1.656-1.344,3-3,3s-3-1.344-3-3s1.344-3,3-3S14,7.344,14,9z" fill="#8bc34a"/><path d="M10,11c0,1.656-1.344,3-3,3s-3-1.344-3-3s1.344-3,3-3S10,9.344,10,11z" fill="#8bc34a"/><path d="M18,11c0,1.656-1.344,3-3,3s-3-1.344-3-3s1.344-3,3-3S18,9.344,18,11z" fill="#8bc34a"/><path d="M9,16c0,1.656-1.344,3-3,3s-3-1.344-3-3s1.344-3,3-3S9,14.344,9,16z" fill="#8bc34a"/><path d="M20,15c0,1.656-1.344,3-3,3s-3-1.344-3-3s1.344-3,3-3S20,13.344,20,15z" fill="#8bc34a"/><path d="M10,20c0,1.656-1.344,3-3,3s-3-1.344-3-3s1.344-3,3-3S10,18.344,10,20z" fill="#8bc34a"/><path d="M19,19.5c0,1.935-1.565,3.5-3.5,3.5S12,21.435,12,19.5s1.565-3.5,3.5-3.5S19,17.565,19,19.5z" fill="#8bc34a"/><path d="M14,22c0,1.658-1.342,3-3,3s-3-1.342-3-3s1.342-3,3-3S14,20.342,14,22z" fill="#8bc34a"/><path d="M17,15.5c0,3.593-2.236,6.5-5,6.5s-5-2.907-5-6.5S9.236,9,12,9S17,11.907,17,15.5z" fill="#8bc34a"/></g><path d="M45,39v-7.7c-2.854-2.097-7.333-3.3-12.385-3.3C23.991,28,17,31.94,17,36.8 c0,0.761,0.19,1.496,0.512,2.2H45z" fill="#689f38"/><path d="M3,33h42v6H3V33z" fill="#80d8ff"/><path d="M45,37c0,0-3,0-10,0c-8,0-12-8-21-8c-6,0-8.906,2.125-11,4v9h42V37z" fill="#7cb342"/><path d="M45,42V31.524C37.208,34.945,31.668,39.906,25.139,42H45z" fill="#9ccc65"/></svg>