<svg xmlns="http://www.w3.org/2000/svg" viewBox="0 0 48 48" width="50" height="50" fill="#666"><path d="M 6 28 L 6 38 C 6 40.210938 7.789063 42 10 42 L 38 42 C 40.210938 42 42 40.210938 42 38 L 42 28 Z" fill="#78909c"/><path d="M 42 28 C 42 30.210938 40.210938 32 38 32 L 10 32 C 7.789063 32 6 30.210938 6 28 L 9 10 C 9.21875 7.90625 10.789063 6 13 6 L 35 6 C 37.210938 6 38.6875 7.75 39 10 Z" fill="#455a64"/><path d="M 37 37 C 37 38.105469 36.105469 39 35 39 C 33.894531 39 33 38.105469 33 37 C 33 35.894531 33.894531 35 35 35 C 36.105469 35 37 35.894531 37 37 Z" fill="#64dd17"/><path d="M 24 11 C 17.371094 11 12 14.132813 12 18 C 12 21.863281 17.371094 25 24 25 C 30.628906 25 36 21.863281 36 18 C 36 14.132813 30.628906 11 24 11 Z M 24 19.554688 C 22.527344 19.554688 21.332031 18.859375 21.332031 18 C 21.332031 17.140625 22.527344 16.445313 24 16.445313 C 25.472656 16.445313 26.664063 17.140625 26.664063 18 C 26.664063 18.859375 25.472656 19.554688 24 19.554688 Z" fill="#bbdefb"/></svg>