<svg xmlns="http://www.w3.org/2000/svg" viewBox="0 0 48 48" width="50" height="50" fill="#666"><path d="M24,2l4.506,5.029L35,5l1.465,6.535L43,13l-2,6.494L46,24l-5,4.506L43,35l-6.535,1.465L35,43	l-6.494-2.029L24,46l-4.506-5.029L13,43l-1.465-6.535L5,35l2-6.494L2,24l5-4.506L5,13l6.535-1.465L13,5l6.494,2.029L24,2z" fill="#f44336"/><path d="M22.199,26.398H20L19.602,28h-1.703l2.5-8h1.5l2.5,8h-1.699L22.199,26.398z M20.301,25h1.5	l-0.699-2.801L20.301,25z" fill="#fff"/><path d="M27.199,26.602H30V28h-4.398v-8h1.598V26.602z" fill="#fff"/><path d="M35.602,24.5h-2.5v2.102h3V28H31.5v-8h4.602v1.301h-3v1.898h2.5V24.5z" fill="#fff"/><path d="M15.102,25.898c0-1.699-3.402-1.098-3.402-3.797c0-0.801,0.5-2.203,2.5-2.203	c2.199,0,2.5,1.902,2.5,2.5h-1.598c0-0.598-0.301-1.098-0.902-1.098c-0.898,0-0.898,0.801-0.898,0.898	c0,1.5,3.398,0.902,3.398,3.699c0,1.203-0.801,2.203-2.5,2.203c-1.398,0-2.801-0.902-2.801-2.602H13c0,0.5,0.102,1.301,1.102,1.301	C14.602,26.801,15.102,26.699,15.102,25.898z" fill="#fff"/></svg>