<svg xmlns="http://www.w3.org/2000/svg" viewBox="0 0 48 48" width="50" height="50" fill="#666"><path fill="#90a4ae" d="M14 24H34V26H14z"/><circle cx="24" cy="10" r="3" fill="#ffb74d"/><circle cx="7" cy="13" r="3" fill="#ffb74d"/><path d="M10,37H7c-3.859,0-7-3.14-7-7v-8h2v8c0,2.757,2.243,5,5,5h3V37z" fill="#90a4ae"/><path d="M29,24H19v-4c0-2.761,2.239-5,5-5l0,0c2.761,0,5,2.239,5,5V24z" fill="#2196f3"/><path d="M14,28h-4c0,0,0-6.802,0-7c0-1.657-1.343-3-3-3s-3,1.343-3,3c0,0.248,0.01,9.249,0.01,9.249 C4.14,31.804,5.44,33,7,33h6l1,8h3V31C17,29.346,15.654,28,14,28z" fill="#4fc3f7"/><circle cx="41" cy="13" r="3" fill="#ffb74d"/><path d="M38,37h3c3.859,0,7-3.14,7-7v-8h-2v8c0,2.757-2.243,5-5,5h-3V37z" fill="#90a4ae"/><path d="M34,28h4c0,0,0-6.802,0-7c0-1.657,1.343-3,3-3s3,1.343,3,3c0,0.248-0.01,9.249-0.01,9.249 C43.86,31.804,42.56,33,41,33h-6l-1,8h-3V31C31,29.346,32.346,28,34,28z" fill="#4fc3f7"/></svg>