<svg xmlns="http://www.w3.org/2000/svg" viewBox="0 0 48 48" width="50" height="50" fill="#666"><path d="M 44.125 39 L 3.875 39 C 1.738281 39 0 37.296875 0 35.199219 L 0 12.800781 C 0 10.703125 1.738281 9 3.875 9 L 44.125 9 C 46.261719 9 48 10.703125 48 12.800781 L 48 35.199219 C 48 37.296875 46.261719 39 44.125 39 Z" fill="#455a64"/><path d="M 20.957031 16 L 16 22.71875 L 10.957031 16 L 7 16 L 7 32 L 10.957031 32 L 10.957031 21.332031 L 16 28 L 21 21.332031 L 21 32 L 24.957031 32 L 24.957031 16 Z M 37.957031 24 L 37.957031 16 L 34 16 L 34 24 L 28.957031 24 L 36 32 L 42.957031 24 Z" fill="#fff"/></svg>