<svg xmlns="http://www.w3.org/2000/svg" viewBox="0 0 48 48" width="50" height="50" fill="#666"><path d="M 40 12 L 22 12 L 18 8 L 8 8 C 5.800781 8 4 9.800781 4 12 L 4 20 L 44 20 L 44 16 C 44 13.800781 42.199219 12 40 12 Z" fill="#ffa000"/><path d="M 40 12 L 8 12 C 5.800781 12 4 13.800781 4 16 L 4 36 C 4 38.199219 5.800781 40 8 40 L 40 40 C 42.199219 40 44 38.199219 44 36 L 44 16 C 44 13.800781 42.199219 12 40 12 Z" fill="#ffca28"/><path d="M 24 17.5 C 18.800781 17.5 14.5 21.800781 14.5 27 C 14.5 32.199219 18.800781 36.5 24 36.5 C 29.199219 36.5 33.5 32.199219 33.5 27 C 33.5 21.800781 29.199219 17.5 24 17.5 Z" fill="#7cb342"/><path d="M 34 27 C 34 32.601563 29.5 37 24 37 C 18.5 37 14 32.601563 14 27 C 14 21.398438 18.398438 17 24 17 C 29.601563 17 34 21.398438 34 27 Z M 23.898438 31.601563 C 23.898438 31.398438 23.800781 31.300781 23.601563 31.199219 C 23 31 22.398438 31 21.898438 30.5 C 21.800781 30.300781 21.800781 30.101563 21.699219 29.898438 C 21.5 29.699219 21 29.601563 20.699219 29.5 C 20.300781 29.5 19.898438 29.5 19.398438 29.5 C 19.199219 29.5 18.898438 29.5 18.699219 29.5 C 18.398438 29.398438 18.199219 29 18 28.699219 C 18 28.601563 18 28.398438 17.800781 28.398438 C 17.601563 28.300781 17.398438 28.5 17.199219 28.398438 C 17.101563 28.300781 17.101563 28.199219 17.101563 28.101563 C 17.101563 27.800781 17.300781 27.5 17.5 27.300781 C 17.800781 27.101563 18.101563 27.398438 18.398438 27.398438 C 18.5 27.398438 18.5 27.398438 18.601563 27.5 C 18.898438 27.601563 19 28 19 28.300781 C 19 28.398438 19 28.5 19 28.5 C 19 28.601563 19.101563 28.601563 19.199219 28.601563 C 19.300781 28.101563 19.300781 27.601563 19.398438 27.101563 C 19.398438 26.5 20 25.898438 20.5 25.699219 C 20.699219 25.601563 20.800781 25.800781 21 25.699219 C 21.601563 25.5 23.101563 24.898438 22.800781 24.101563 C 22.601563 23.398438 22 22.699219 21.199219 22.800781 C 21 22.898438 20.898438 23 20.699219 23.101563 C 20.398438 23.300781 19.800781 23.898438 19.5 23.898438 C 19 23.800781 19 23.101563 19.101563 22.800781 C 19.199219 22.398438 20.101563 21.101563 20.699219 21.300781 C 20.800781 21.398438 21 21.601563 21.101563 21.699219 C 21.300781 21.800781 21.601563 21.800781 21.898438 21.800781 C 22 21.800781 22.101563 21.800781 22.199219 21.699219 C 22.300781 21.601563 22.300781 21.601563 22.300781 21.5 C 22.300781 21.199219 22 20.898438 21.800781 20.699219 C 21.601563 20.5 21.300781 20.300781 21 20.199219 C 20 19.898438 18.398438 20.300781 17.601563 21 C 16.800781 21.699219 16.199219 22.898438 15.800781 23.898438 C 15.601563 24.5 15.398438 25.300781 15.300781 26 C 15.199219 26.5 15.101563 26.898438 15.398438 27.398438 C 15.699219 28 16.300781 28.601563 16.898438 29 C 17.300781 29.300781 18.101563 29.300781 18.5 29.800781 C 18.800781 30.199219 18.699219 30.699219 18.699219 31.199219 C 18.699219 31.800781 19.101563 32.300781 19.300781 32.800781 C 19.398438 33.101563 19.5 33.5 19.601563 33.800781 C 19.601563 33.898438 19.699219 34.5 19.699219 34.601563 C 20.300781 34.898438 20.800781 35.199219 21.5 35.398438 C 21.601563 35.398438 22 34.800781 22 34.699219 C 22.300781 34.398438 22.5 34 22.800781 33.800781 C 23 33.699219 23.199219 33.601563 23.398438 33.398438 C 23.601563 33.199219 23.699219 32.800781 23.800781 32.5 C 23.898438 32.300781 24 31.898438 23.898438 31.601563 Z M 24.101563 22.398438 C 24.199219 22.398438 24.300781 22.300781 24.5 22.199219 C 24.800781 22 25.101563 21.699219 25.398438 21.5 C 25.699219 21.300781 26 21 26.199219 20.800781 C 26.5 20.601563 26.699219 20.199219 26.800781 19.898438 C 26.898438 19.699219 27.199219 19.300781 27.101563 19 C 27 18.800781 26.5 18.699219 26.300781 18.601563 C 25.5 18.398438 24.800781 18.300781 24 18.300781 C 23.699219 18.300781 23.300781 18.398438 23.199219 18.699219 C 23.101563 19.199219 23.5 19.101563 23.898438 19.199219 C 23.898438 19.199219 24 20 24 20.101563 C 24.101563 20.601563 23.800781 20.898438 23.800781 21.398438 C 23.800781 21.699219 23.800781 22.199219 24 22.398438 Z M 32.5 29.398438 C 32.601563 29.199219 32.601563 28.898438 32.699219 28.699219 C 32.800781 28.199219 32.800781 27.699219 32.800781 27.199219 C 32.800781 26.199219 32.699219 25.199219 32.398438 24.300781 C 32.199219 24 32.101563 23.699219 32 23.398438 C 31.800781 22.898438 31.5 22.398438 31.101563 22 C 30.699219 21.5 30.199219 20.101563 29.300781 20.5 C 29 20.601563 28.800781 21 28.601563 21.199219 C 28.398438 21.5 28.199219 21.800781 28 22.101563 C 27.898438 22.199219 27.800781 22.398438 27.898438 22.5 C 27.898438 22.601563 28 22.601563 28.101563 22.601563 C 28.300781 22.699219 28.398438 22.699219 28.601563 22.800781 C 28.699219 22.800781 28.800781 22.898438 28.699219 23 C 28.699219 23 28.699219 23.101563 28.601563 23.101563 C 28.101563 23.601563 27.601563 24 27.101563 24.5 C 27 24.601563 26.898438 24.800781 26.898438 24.898438 C 26.898438 25 27 25 27 25.101563 C 27 25.199219 26.898438 25.199219 26.800781 25.300781 C 26.601563 25.398438 26.398438 25.5 26.300781 25.601563 C 26.199219 25.800781 26.300781 26.101563 26.199219 26.300781 C 26.101563 26.800781 25.800781 27.199219 25.601563 27.699219 C 25.398438 28 25.300781 28.300781 25.101563 28.601563 C 25.101563 29 25 29.300781 25.199219 29.601563 C 25.699219 30.300781 26.601563 29.898438 27.300781 30.199219 C 27.5 30.300781 27.699219 30.300781 27.800781 30.5 C 28.101563 30.800781 28.101563 31.300781 28.199219 31.601563 C 28.300781 32 28.398438 32.398438 28.601563 32.800781 C 28.699219 33.300781 28.898438 33.800781 29 34.199219 C 29.898438 33.5 30.699219 32.699219 31.300781 31.699219 C 31.898438 31 32.199219 30.199219 32.5 29.398438 Z" fill="#0277bd"/></svg>