<svg xmlns="http://www.w3.org/2000/svg" viewBox="0 0 48 48" width="50" height="50" fill="#666"><path d="M 40 37 C 40 38.105469 39.105469 39 38 39 L 18 39 C 16.894531 39 16 38.105469 16 37 L 16 12 C 16 10.894531 16.894531 10 18 10 L 38 10 C 39.105469 10 40 10.894531 40 12 Z" fill="#5c6bc0"/><path d="M 23 14 L 36 14 L 36 19 L 23 19 Z" fill="#cddc39"/><path d="M 23 22 L 26 22 L 26 25 L 23 25 Z" fill="#bbdefb"/><path d="M 28 22 L 31 22 L 31 25 L 28 25 Z" fill="#bbdefb"/><path d="M 33 22 L 36 22 L 36 25 L 33 25 Z" fill="#bbdefb"/><path d="M 23 27 L 26 27 L 26 30 L 23 30 Z" fill="#bbdefb"/><path d="M 28 27 L 31 27 L 31 30 L 28 30 Z" fill="#bbdefb"/><path d="M 33 27 L 36 27 L 36 30 L 33 30 Z" fill="#bbdefb"/><path d="M 23 32 L 26 32 L 26 35 L 23 35 Z" fill="#bbdefb"/><path d="M 28 32 L 31 32 L 31 35 L 28 35 Z" fill="#bbdefb"/><path d="M 33 32 L 36 32 L 36 35 L 33 35 Z" fill="#bbdefb"/><path d="M 13.5 6 C 8 6 8 8 8 9 C 8 10 8 38 8 39 C 8 40 7.9375 42 13.5 42 C 19.0625 42 19 40 19 39 C 19 38 19 10 19 9 C 19 8 19 6 13.5 6 Z" fill="#283593"/></svg>