<svg xmlns="http://www.w3.org/2000/svg" viewBox="0 0 48 48" width="50" height="50" fill="#666"><path d="M 12 40 L 12 8 C 12 5.800781 13.800781 4 16 4 L 32 4 C 34.199219 4 36 5.800781 36 8 L 36 40 C 36 42.199219 34.199219 44 32 44 L 16 44 C 13.800781 44 12 42.199219 12 40 Z" fill="#37474f"/><path d="M 32 7 L 16 7 C 15.398438 7 15 7.398438 15 8 L 15 37 C 15 37.601563 15.398438 38 16 38 L 32 38 C 32.601563 38 33 37.601563 33 37 L 33 8 C 33 7.398438 32.601563 7 32 7 Z" fill="#bbdefb"/><path d="M 21 40 L 27 40 L 27 42 L 21 42 Z" fill="#78909c"/></svg>