<svg xmlns="http://www.w3.org/2000/svg" viewBox="0 0 48 48" width="50" height="50" fill="#666"><path d="M 40 45 L 8 45 L 8 3 L 30 3 L 40 13 Z" fill="#90caf9"/><path d="M 38.5 14 L 29 14 L 29 4.5 Z" fill="#e1f5fe"/><path d="M 47.679688 29.140625 L 44.859375 26.324219 C 44.429688 25.894531 43.730469 25.894531 43.304688 26.324219 L 41.976563 27.652344 L 46.351563 32.027344 L 47.679688 30.699219 C 48.105469 30.269531 48.105469 29.570313 47.679688 29.140625" fill="#e57373"/><path d="M 27.472656 42.152344 L 39.789063 29.839844 L 44.164063 34.214844 L 31.847656 46.53125 Z" fill="#ff9800"/><path d="M 46.351563 32.023438 L 44.164063 34.214844 L 39.785156 29.835938 L 41.972656 27.648438 Z" fill="#b0bec5"/><path d="M 27.472656 42.152344 L 26 48 L 31.847656 46.527344 Z" fill="#ffc107"/><path d="M 26.742188 45.042969 L 26 48 L 28.957031 47.257813 Z" fill="#37474f"/></svg>