<svg xmlns="http://www.w3.org/2000/svg" viewBox="0 0 48 48" width="50" height="50" fill="#666"><path fill="#90caf9" d="M35 41L13 41 13 5 35 5z"/><path fill="#42a5f5" d="M37 41L11 41 11 8 37 8z"/><path fill="#90caf9" d="M39 41L9 41 9 11 39 11z"/><path fill="#1976d2" d="M12 16H20V18H12z"/><path fill="#1976d2" d="M22 16H29V18H22z"/><path fill="#1976d2" d="M12 20H24V22H12z"/><path d="M28,29v2c0,2.209-1.791,4-4,4s-4-1.791-4-4v-2H9v12h30V29H28z" fill="#64b5f6"/><path d="M24,37c-3.313,0-6-2.687-6-6H7c-0.552,0-1,0.448-1,1v8c0,1.657,1.343,3,3,3h30c1.657,0,3-1.343,3-3 v-8c0-0.552-0.448-1-1-1H30C30,34.313,27.313,37,24,37z" fill="#ffc107"/></svg>