<svg xmlns="http://www.w3.org/2000/svg" viewBox="0 0 48 48" width="50" height="50" fill="#666"><path fill="#546E7A" d="M4 45.414L8.95 40.464 7.536 39.05 4 42.586z"/><path transform="rotate(-45.001 39.25 8.75)" fill="#64B5F6" d="M34.654 5.214H43.846000000000004V12.285H34.654z"/><path transform="rotate(-45.001 8.78 39.22)" fill="#64B5F6" d="M6.263 37.805H11.299V40.633H6.263z"/><path transform="rotate(-45.001 10.25 37.75)" fill="#90CAF9" d="M8.482 34.214H12.017999999999999V41.285H8.482z"/><path transform="rotate(134.999 24 24)" fill="#1565C0" d="M6.322 19.05H41.677V28.948999999999998H6.322z"/><path transform="rotate(-45.001 40.5 7.5)" fill="#90CAF9" d="M37.672 2.55H43.32899999999999V12.448999999999998H37.672z"/><path transform="rotate(134.999 19 29)" fill="#FFF" d="M11.222 26.172H26.778V31.829H11.222z"/><path fill="#0D47A1" d="M34.379,16.621l-4.758,4.758c-0.828,0.828-2.17,0.828-2.998,0l-0.002-0.002c-0.828-0.828-0.828-2.17,0-2.998 l4.758-4.758c0.828-0.828,2.17-0.828,2.998,0l0.002,0.002C35.207,14.451,35.207,15.793,34.379,16.621z"/><path transform="rotate(134.999 18.25 28.25)" fill="#546E7A" d="M17.366 26.482H19.134V30.018H17.366z"/><path transform="rotate(134.999 15.25 31.25)" fill="#546E7A" d="M14.366 29.482H16.134V33.018H14.366z"/><path transform="rotate(134.999 21.25 25.25)" fill="#546E7A" d="M20.366 23.482H22.134V27.018H20.366z"/></svg>