<svg xmlns="http://www.w3.org/2000/svg" viewBox="0 0 48 48" width="50" height="50" fill="#666"><path d="M 20 32 L 28 32 L 28 40 L 20 40 Z" fill="#607d8b"/><path d="M 4 9 L 44 9 L 44 36 L 4 36 Z" fill="#90a4ae"/><path d="M 6 11 L 42 11 L 42 34 L 6 34 Z" fill="#bbdefb"/><path d="M 15 39 L 33 39 L 33 41 L 15 41 Z" fill="#90a4ae"/><path d="M 17 31 L 31 31 L 31 30.988281 C 31 27.679688 28.320313 25 25.011719 25 L 22.988281 25 C 19.679688 25 17 27.679688 17 30.988281 Z" fill="#64b5f6"/><path d="M 26 23 L 22 23 L 22 26 C 22 26 22.328125 27 23.960938 27 C 25.589844 27 26 26 26 26 Z" fill="#ff9800"/><path d="M 29 20.5 C 29 21.328125 28.328125 22 27.5 22 C 26.671875 22 26 21.328125 26 20.5 C 26 19.671875 26.671875 19 27.5 19 C 28.328125 19 29 19.671875 29 20.5 Z" fill="#ff9800"/><path d="M 22 20.5 C 22 21.328125 21.328125 22 20.5 22 C 19.671875 22 19 21.328125 19 20.5 C 19 19.671875 19.671875 19 20.5 19 C 21.328125 19 22 19.671875 22 20.5 Z" fill="#ff9800"/><path d="M 28 17.214844 C 28 15.011719 26.207031 15 24 15 C 21.792969 15 20 15.011719 20 17.214844 C 20 17.5625 20 20.652344 20 21 C 20 23.207031 21.792969 25 24 25 C 26.207031 25 28 23.207031 28 21 C 28 20.652344 28 17.5625 28 17.214844 Z" fill="#ffb74d"/><path d="M 23.78125 13 C 21.34375 13.21875 19 14.929688 19 18.574219 L 19 20 L 20 21 L 20 18 L 26.308594 15.800781 L 28 18 L 28 21 L 29 20 L 29 18.796875 C 29 16.382813 28.863281 14.59375 26 14 L 25.515625 13 Z" fill="#424242"/><path d="M 17 29 L 23 29 L 23 33 L 17 33 Z" fill="#3f51b5"/><path d="M 25 29 L 31 29 L 31 33 L 25 33 Z" fill="#3f51b5"/><path d="M 9 29 L 15 29 L 15 33 L 9 33 Z" fill="#3f51b5"/><path d="M 33 29 L 39 29 L 39 33 L 33 33 Z" fill="#3f51b5"/></svg>