<svg xmlns="http://www.w3.org/2000/svg" viewBox="0 0 48 48" width="50" height="50" fill="#666"><path d="M 14 41 C 14 41.554688 14.449219 42 15 42 L 42 42 L 42 7 C 42 6.445313 41.554688 6 41 6 L 15 6 C 14.449219 6 14 6.445313 14 7 Z" fill="#bbdefb"/><path d="M 20 6 L 7 6 C 6.445313 6 6 6.445313 6 7 L 6 42 L 20 42 Z" fill="#3f51b5"/><path d="M 12 10 C 12 11.105469 11.105469 12 10 12 C 8.894531 12 8 11.105469 8 10 C 8 8.894531 8.894531 8 10 8 C 11.105469 8 12 8.894531 12 10 Z" fill="#ffeb3b"/><path d="M 18 10 C 18 11.105469 17.105469 12 16 12 C 14.894531 12 14 11.105469 14 10 C 14 8.894531 14.894531 8 16 8 C 17.105469 8 18 8.894531 18 10 Z" fill="#8bc34a"/><path d="M 18 15 C 18 14.445313 17.554688 14 17 14 L 9 14 C 8.445313 14 8 14.445313 8 15 C 8 15.554688 8.445313 16 9 16 L 17 16 C 17.554688 16 18 15.554688 18 15 Z" fill="#fafafa"/></svg>