<svg xmlns="http://www.w3.org/2000/svg" viewBox="0 0 48 48" width="50" height="50" fill="#666"><path d="M 41.101563 28 L 6.898438 28 C 5.898438 28 5 27.199219 5 26.101563 L 5 6.898438 C 5 5.800781 5.800781 5 6.898438 5 L 41.199219 5 C 42.199219 5 43.101563 5.800781 43.101563 6.898438 L 43.101563 26.199219 C 43 27.199219 42.199219 28 41.101563 28 Z" fill="#4caf50"/><path d="M 27 17 L 27 5 L 21 5 L 21 17 L 16 17 L 24 25 L 32 17 Z" fill="#fff"/><path d="M 27 39.300781 L 31 39.300781 L 31 41 L 25 41 L 25 31 L 27 31 Z M 34 39.300781 L 38 39.300781 L 38 41 L 32 41 L 32 31 L 34 31 Z M 15.101563 36.898438 L 12 36.898438 L 12 41 L 10 41 L 10 31 L 15.5 31 L 15.5 32.699219 L 12 32.699219 L 12 35.300781 L 15.101563 35.300781 Z M 21 31 L 21 38 C 21 38.898438 20.601563 39.398438 20 39.398438 C 19.398438 39.398438 19 38.898438 19 38 L 19 31 L 17 31 L 17 38 C 17 38.898438 17.300781 39.699219 17.800781 40.199219 C 18.300781 40.699219 19.101563 41 20 41 C 20.898438 41 21.699219 40.699219 22.199219 40.199219 C 22.699219 39.699219 23 38.898438 23 38 L 23 31 Z" fill="#2e7d32"/></svg>