<svg xmlns="http://www.w3.org/2000/svg" viewBox="0 0 48 48" width="50" height="50" fill="#666"><path d="M 42 35 C 42 37.210938 40.210938 38 38 38 L 10 38 C 7.789063 38 6 37.210938 6 35 L 9 23 C 9.21875 20.90625 10.789063 19 13 19 L 35 19 C 37.210938 19 38.6875 20.75 39 23 Z" fill="#455a64"/><path d="M 42 27 C 42 29.210938 40.210938 30 38 30 L 10 30 C 7.789063 30 6 29.210938 6 27 L 9 15 C 9.21875 12.90625 10.789063 11 13 11 L 35 11 C 37.210938 11 38.6875 12.75 39 15 Z" fill="#455a64"/><path d="M 42 19 C 42 21.210938 40.210938 22 38 22 L 10 22 C 7.789063 22 6 21.210938 6 19 L 9 7 C 9.609375 5.339844 10.789063 4 13 4 L 35 4 C 37.210938 4 38.199219 5.085938 39 7 Z" fill="#455a64"/><path d="M 38 22 L 10 22 C 7.789063 22 6 21.210938 6 19 L 6 25 C 6 27.210938 7.789063 28 10 28 L 38 28 C 40.210938 28 42 27.210938 42 25 L 42 19 C 42 21.210938 40.210938 22 38 22 Z" fill="#78909c"/><path d="M 38 30 L 10 30 C 7.789063 30 6 29.210938 6 27 L 6 33 C 6 35.210938 7.789063 36 10 36 L 38 36 C 40.210938 36 42 35.210938 42 33 L 42 27 C 42 29.210938 40.210938 30 38 30 Z" fill="#78909c"/><path d="M 38 38 L 10 38 C 7.789063 38 6 37.210938 6 35 L 6 41 C 6 43.210938 7.789063 44 10 44 L 38 44 C 40.210938 44 42 43.210938 42 41 L 42 35 C 42 37.210938 40.210938 38 38 38 Z" fill="#78909c"/><path d="M 37 41 C 37 42.105469 36.105469 43 35 43 C 33.894531 43 33 42.105469 33 41 C 33 39.894531 33.894531 39 35 39 C 36.105469 39 37 39.894531 37 41 Z" fill="#64dd17"/><path d="M 37 33 C 37 34.105469 36.105469 35 35 35 C 33.894531 35 33 34.105469 33 33 C 33 31.894531 33.894531 31 35 31 C 36.105469 31 37 31.894531 37 33 Z" fill="#64dd17"/><path d="M 37 25 C 37 26.105469 36.105469 27 35 27 C 33.894531 27 33 26.105469 33 25 C 33 23.894531 33.894531 23 35 23 C 36.105469 23 37 23.894531 37 25 Z" fill="#64dd17"/></svg>