<svg xmlns="http://www.w3.org/2000/svg" viewBox="0 0 48 48" width="50" height="50" fill="#666"><path d="M34.4,44.8l-3-2c-0.2-0.2-0.4-0.4-0.4-0.7l-0.9-6.6l-3.7-2.8l1.2-1.6l4,3c0.2,0.2,0.4,0.4,0.4,0.7 l0.9,6.6l2.6,1.8L34.4,44.8z" fill="#455a64"/><path d="M35.3,33.7l-2-2c-0.1-0.1-0.2-0.3-0.3-0.5l-0.8-3.4L27.8,27l0.4-2l5,1c0.4,0.1,0.7,0.4,0.8,0.7 l0.9,3.7l1.8,1.8L35.3,33.7z" fill="#455a64"/><path d="M29.4,22.9l-0.7-1.9l3.9-1.6l-2.4-4c-0.2-0.3-0.2-0.7,0-1.1l2-3l1.7,1.1L32.2,15l2.7,4.5 c0.2,0.3,0.2,0.6,0.1,0.8c-0.1,0.3-0.3,0.5-0.6,0.6L29.4,22.9z" fill="#455a64"/><path d="M13.6,44.8l-1.1-1.7l2.6-1.8l0.9-6.6c0-0.3,0.2-0.5,0.4-0.7l4-3l1.2,1.6l-3.7,2.8L17,42.1 c0,0.3-0.2,0.5-0.4,0.7L13.6,44.8z" fill="#455a64"/><path d="M12.7,33.7l-1.4-1.4l1.8-1.8l0.9-3.7c0.1-0.4,0.4-0.7,0.8-0.7l5-1l0.4,2l-4.4,0.9L15,31.2 c0,0.2-0.1,0.3-0.3,0.5L12.7,33.7z" fill="#455a64"/><path d="M18.6,22.9l-5-2c-0.3-0.1-0.5-0.3-0.6-0.6C13,20,13,19.7,13.1,19.5l2.7-4.5l-1.6-2.5l1.7-1.1l2,3 c0.2,0.3,0.2,0.7,0,1.1l-2.4,4l3.9,1.6L18.6,22.9z" fill="#455a64"/><path d="M26,14h-2C24,4.2,38.3,3,38.9,3l0.1,2C38.9,5,26,6,26,14z" fill="#4db6ac"/><path d="M24,14h-2C22,6,9.1,5,8.9,5l0.1-2C9.7,3,24,4.2,24,14z" fill="#4db6ac"/><path d="M27,20.8c0,1.7-1.4,3-3,3s-3-1.4-3-3V15c0-1.7,1.4-3,3-3s3,1.4,3,3V20.8z" fill="#00695c"/><path d="M24,42c-6,0-7-22-7-22c0-1.1,4-2,7-2s7,0.9,7,2C31,20,30,42,24,42z" fill="#26a69a"/><path d="M23,41.8c0.3,0.1,0.6,0.2,1,0.2s0.7-0.1,1-0.2V18c-0.3,0-0.7,0-1,0s-0.7,0-1,0V41.8z" fill="#00897b"/></svg>