<svg xmlns="http://www.w3.org/2000/svg" viewBox="0 0 48 48" width="50" height="50" fill="#666"><path d="M35,18c0,1.106-0.896,2-2,2c-1.105,0-2-0.894-2-2c0-1.105,0.895-2,2-2C34.104,16,35,16.895,35,18 M17,18c0-1.105-0.896-2-2-2c-1.106,0-2,0.895-2,2c0,1.106,0.894,2,2,2C16.104,20,17,19.106,17,18" fill="#ffa726"/><path d="M33,12c0-3.248-3-5-7-5c-7,0-11,2.144-11,5v7c0,4.971,4.028,9,9,9c4.971,0,9-4.029,9-9V12z" fill="#ffb74d"/><path d="M24,3c-6.075,0-10,4.926-10,11v2.286L16,18v-5l12-4l4,4v5l2-1.742V14c0-4.025-1.038-8.016-6-9l-1-2 H24z" fill="#424242"/><path d="M27,18c0-0.551,0.448-1,1-1s1,0.449,1,1s-0.448,1-1,1S27,18.551,27,18 M19,18c0,0.551,0.448,1,1,1 s1-0.449,1-1s-0.448-1-1-1S19,17.449,19,18" fill="#784719"/><path d="M41,45H7c-0.552,0-1-0.448-1-1V22c0-0.552,0.448-1,1-1h34c0.552,0,1,0.448,1,1v22 C42,44.552,41.552,45,41,45z" fill="#546e7a"/><circle cx="24" cy="33" r="3" fill="#b0bec5"/></svg>