<svg xmlns="http://www.w3.org/2000/svg" viewBox="0 0 48 48" width="50" height="50" fill="#666"><path d="M 39.988281 12 C 39.988281 12 40.988281 35 24.171875 44 C 7.011719 35 8.011719 12 8.011719 12 C 16.007813 12 24 4 24 4 C 24 4 30.996094 12 39.988281 12 Z" fill="#ab47bc"/><path d="M 22.6875 27.460938 C 22.6875 26.328125 22.824219 25.429688 23.101563 24.761719 C 23.378906 24.089844 23.886719 23.429688 24.621094 22.78125 C 25.359375 22.132813 25.851563 21.601563 26.09375 21.195313 C 26.339844 20.785156 26.460938 20.355469 26.460938 19.902344 C 26.460938 18.539063 25.824219 17.855469 24.554688 17.855469 C 23.953125 17.855469 23.472656 18.039063 23.109375 18.40625 C 22.746094 18.773438 22.558594 19.28125 22.542969 19.929688 L 19 19.929688 C 19.015625 18.386719 19.519531 17.179688 20.507813 16.308594 C 21.496094 15.4375 22.847656 15 24.554688 15 C 26.28125 15 27.617188 15.414063 28.574219 16.242188 C 29.523438 17.070313 30 18.234375 30 19.746094 C 30 20.433594 29.847656 21.078125 29.535156 21.6875 C 29.226563 22.300781 28.683594 22.976563 27.910156 23.71875 L 26.925781 24.648438 C 26.304688 25.238281 25.949219 25.929688 25.859375 26.722656 L 25.8125 27.460938 Z M 22.332031 31.167969 C 22.332031 30.628906 22.519531 30.1875 22.890625 29.835938 C 23.257813 29.484375 23.734375 29.308594 24.3125 29.308594 C 24.890625 29.308594 25.363281 29.484375 25.734375 29.835938 C 26.105469 30.1875 26.289063 30.628906 26.289063 31.167969 C 26.289063 31.695313 26.109375 32.136719 25.746094 32.480469 C 25.382813 32.824219 24.902344 33 24.3125 33 C 23.71875 33 23.238281 32.824219 22.875 32.480469 C 22.515625 32.136719 22.332031 31.695313 22.332031 31.167969 Z" fill="#f3e5f5"/></svg>