<svg xmlns="http://www.w3.org/2000/svg" viewBox="0 0 48 48" width="50" height="50" fill="#666"><path d="M 42 39 L 17 39 L 17 7 C 17 4.800781 18.800781 3 21 3 L 38 3 C 40.199219 3 42 4.800781 42 7 Z" fill="#90caf9"/><path d="M 17 39 L 42 39 L 42 41 L 17 41 Z" fill="#64b5f6"/><path d="M 31 32 L 37 32 L 37 41 L 31 41 Z" fill="#bf360c"/><path d="M 37 29 L 31 29 L 31 24 L 37 24 Z M 28 24 L 22 24 L 22 29 L 28 29 Z M 28 32 L 22 32 L 22 37 L 28 37 Z M 37 16 L 31 16 L 31 21 L 37 21 Z M 28 16 L 22 16 L 22 21 L 28 21 Z M 37 8 L 31 8 L 31 13 L 37 13 Z M 28 8 L 22 8 L 22 13 L 28 13 Z" fill="#1565c0"/><path d="M 26 26.5 C 26 27.300781 25.300781 28 24.5 28 C 23.699219 28 23 27.300781 23 26.5 C 23 25.699219 23.699219 25 24.5 25 C 25.300781 25 26 25.699219 26 26.5 M 13 26.5 C 13 25.699219 12.300781 25 11.5 25 C 10.699219 25 10 25.699219 10 26.5 C 10 27.300781 10.699219 28 11.5 28 C 12.300781 28 13 27.300781 13 26.5" fill="#ffa726"/><path d="M 18 39 C 14 39 14 35 14 35 L 14 31 L 22 31 L 22 35 C 22 35 22 39 18 39 Z" fill="#ff9800"/><path d="M 25 22.699219 C 25 16.800781 11 18.898438 11 22.699219 L 11 27.101563 C 11 30.898438 14.101563 34 18 34 C 21.898438 34 25 30.898438 25 27.101563 Z" fill="#ffb74d"/><path d="M 18 15 C 13.101563 15 10 19.300781 10 23.199219 L 10 25 L 12 27 L 12 23 L 21.199219 20 L 24 23 L 24 27 L 26 25 L 26 24.199219 C 26 21 25.199219 17.398438 21.199219 16.601563 L 20.398438 15 Z" fill="#424242"/><path d="M 20 26 C 20 25.398438 20.398438 25 21 25 C 21.601563 25 22 25.398438 22 26 C 22 26.601563 21.601563 27 21 27 C 20.398438 27 20 26.601563 20 26 M 14 26 C 14 26.601563 14.398438 27 15 27 C 15.601563 27 16 26.601563 16 26 C 16 25.398438 15.601563 25 15 25 C 14.398438 25 14 25.398438 14 26" fill="#784719"/><path d="M 22 35 L 18 37 L 14 35 C 14 35 6 36.5 6 45 L 30 45 C 30 36.601563 21.699219 35 21.699219 35" fill="#455a64"/><path d="M 18 44 L 22 35 L 18 36 L 14 35 Z" fill="#fff"/><path d="M 17 39 L 16.699219 41.101563 L 18 44 L 19.300781 41.101563 L 19 39 L 20 38 L 18 36 L 16 38 Z" fill="#d32f2f"/></svg>