<svg xmlns="http://www.w3.org/2000/svg" viewBox="0 0 48 48" width="50" height="50" fill="#666"><path d="M 40 45 L 8 45 L 8 3 L 30 3 L 40 13 Z" fill="#ffc107"/><path d="M 38.5 14 L 29 14 L 29 4.5 Z" fill="#fff3e0"/><path d="M 16.515625 29.300781 L 17.460938 23.046875 L 19.449219 23.046875 L 17.679688 33 L 15.660156 33 L 14.5 27.136719 L 13.351563 33 L 11.328125 33 L 9.550781 23.046875 L 11.554688 23.046875 L 12.492188 29.296875 L 13.660156 23.046875 L 15.347656 23.046875 Z" fill="#c47205"/><path d="M 23.160156 23.046875 L 25.039063 30.246094 L 26.914063 23.046875 L 29.539063 23.046875 L 29.539063 33 L 27.523438 33 L 27.523438 30.308594 L 27.707031 26.15625 L 25.71875 33 L 24.351563 33 L 22.363281 26.15625 L 22.546875 30.304688 L 22.546875 33 L 20.535156 33 L 20.535156 23.046875 Z" fill="#c47205"/><path d="M 36.027344 30.964844 L 33.285156 30.964844 L 32.753906 33 L 30.625 33 L 33.734375 23.046875 L 35.574219 23.046875 L 38.707031 33 L 36.558594 33 Z M 33.722656 29.289063 L 35.582031 29.289063 L 34.652344 25.738281 Z" fill="#c47205"/></svg>