<svg xmlns="http://www.w3.org/2000/svg" viewBox="0 0 48 48" width="50" height="50" fill="#666"><path d="M 42 37 C 42 38.105469 41.105469 39 40 39 L 8 39 C 6.894531 39 6 38.105469 6 37 L 6 15 C 6 13.894531 6.894531 13 8 13 L 40 13 C 41.105469 13 42 13.894531 42 15 Z" fill="#03a9f4"/><path d="M 33 16 C 33 17.105469 32.105469 18 31 18 L 17 18 C 15.894531 18 15 17.105469 15 16 L 15 11 C 15 9.894531 15.894531 9 17 9 L 31 9 C 32.105469 9 33 9.894531 33 11 Z" fill="#03a9f4"/><path d="M 39 18 C 39 19.105469 38.105469 20 37 20 C 35.894531 20 35 19.105469 35 18 C 35 16.894531 35.894531 16 37 16 C 38.105469 16 39 16.894531 39 18 Z" fill="#fff"/><path d="M 34 26 C 34 31.523438 29.523438 36 24 36 C 18.476563 36 14 31.523438 14 26 C 14 20.476563 18.476563 16 24 16 C 29.523438 16 34 20.476563 34 26 Z" fill="#b3e5fc"/><path d="M 32 26 C 32 30.417969 28.417969 34 24 34 C 19.582031 34 16 30.417969 16 26 C 16 21.582031 19.582031 18 24 18 C 28.417969 18 32 21.582031 32 26 Z" fill="#01579b"/><path d="M 20 30 C 20 31.171875 20.257813 32.285156 20.710938 33.285156 C 21.714844 33.742188 22.828125 34 24 34 C 28.417969 34 32 30.417969 32 26 C 32 24.828125 31.742188 23.714844 31.285156 22.714844 C 30.28125 22.257813 29.175781 22 28 22 C 23.582031 22 20 25.582031 20 30 Z" fill="#0277bd"/></svg>