<svg xmlns="http://www.w3.org/2000/svg" viewBox="0 0 48 48" width="50" height="50" fill="#666"><path d="M 15 40 L 38 40 L 44 46 L 44 25 C 44 22.800781 42.199219 21 40 21 L 15 21 C 12.800781 21 11 22.800781 11 25 L 11 36 C 11 38.199219 12.800781 40 15 40 Z" fill="#558b2f"/><path d="M 28.800781 32.800781 L 25.199219 32.800781 L 24.5 34.898438 L 22.300781 34.898438 L 26 24.898438 L 27.898438 24.898438 L 31.601563 34.898438 L 29.398438 34.898438 Z M 25.699219 31.199219 L 28.199219 31.199219 L 27 27.398438 Z" fill="#1b5e20"/><path d="M 33 25 L 10 25 L 4 31 L 4 8 C 4 5.800781 5.800781 4 8 4 L 33 4 C 35.199219 4 37 5.800781 37 8 L 37 21 C 37 23.199219 35.199219 25 33 25 Z" fill="#8bc34a"/><path d="M 25.398438 14.199219 C 25.398438 15.199219 25.199219 16 24.898438 16.699219 C 24.601563 17.398438 24.199219 18 23.601563 18.398438 L 25.300781 19.699219 L 24 20.898438 L 21.800781 19.199219 C 21.601563 19.199219 21.300781 19.300781 21 19.300781 C 20.398438 19.300781 19.800781 19.199219 19.199219 19 C 18.699219 18.800781 18.199219 18.398438 17.800781 18 C 17.398438 17.601563 17.101563 17 16.898438 16.398438 C 16.699219 15.800781 16.601563 15.101563 16.601563 14.300781 L 16.601563 13.898438 C 16.601563 13.101563 16.699219 12.398438 16.898438 11.800781 C 17.101563 11.199219 17.398438 10.601563 17.800781 10.199219 C 18.199219 9.800781 18.601563 9.398438 19.199219 9.199219 C 19.699219 9 20.300781 8.898438 21 8.898438 C 21.601563 8.898438 22.199219 9 22.800781 9.199219 C 23.300781 9.398438 23.800781 9.800781 24.199219 10.199219 C 24.601563 10.601563 24.898438 11.199219 25.101563 11.800781 C 25.300781 12.398438 25.398438 13.101563 25.398438 13.898438 Z M 23.199219 13.699219 C 23.199219 12.601563 23 11.800781 22.601563 11.300781 C 22.199219 10.699219 21.699219 10.5 21 10.5 C 20.300781 10.5 19.699219 10.800781 19.398438 11.300781 C 19 11.898438 18.800781 12.699219 18.800781 13.699219 L 18.800781 14.199219 C 18.800781 14.699219 18.898438 15.199219 19 15.601563 C 19.101563 16 19.199219 16.398438 19.398438 16.601563 C 19.601563 16.898438 19.800781 17.101563 20.101563 17.199219 C 20.398438 17.300781 20.699219 17.398438 21 17.398438 C 21.699219 17.398438 22.300781 17.101563 22.601563 16.601563 C 23 16 23.199219 15.199219 23.199219 14.101563 Z" fill="#fff"/></svg>