<svg xmlns="http://www.w3.org/2000/svg" viewBox="0 0 48 48" width="50" height="50" fill="#666"><path d="M 37 17 C 37 16.800781 37 16.699219 37 16.5 C 37 12.898438 34.101563 10 30.5 10 C 28.800781 10 27.300781 10.699219 26.101563 11.699219 C 24.699219 8.898438 21.800781 7 18.5 7 C 13.800781 7 10 10.800781 10 15.5 C 10 16 10.101563 16.5 10.101563 17 C 6.699219 17.398438 4 20.300781 4 23.898438 C 4 27.800781 7.101563 30.898438 11 30.898438 C 11 30.898438 11.101563 30.898438 11.101563 30.898438 C 11.398438 31 11.699219 31 12 31 L 37 31 C 40.898438 31 44 27.898438 44 24 C 44 20.101563 40.898438 17 37 17 Z" fill="#bbdefb"/><path d="M 27 33 L 27 19 L 21 19 L 21 33 L 16 33 L 24 42 L 32 33 Z" fill="#3f51b5"/></svg>