<svg xmlns="http://www.w3.org/2000/svg" viewBox="0 0 48 48" width="50" height="50" fill="#666"><path d="M 40.976563 22.890625 C 40.828125 26.363281 39.96875 29.117188 38.402344 31.15625 C 36.839844 33.199219 34.734375 34.21875 32.089844 34.21875 C 30.925781 34.21875 29.917969 33.964844 29.070313 33.464844 C 28.222656 32.964844 27.585938 32.246094 27.148438 31.3125 C 25.792969 33.207031 24.023438 34.15625 21.84375 34.15625 C 19.863281 34.15625 18.332031 33.324219 17.246094 31.65625 C 16.164063 29.988281 15.757813 27.785156 16.027344 25.050781 C 16.269531 22.8125 16.839844 20.820313 17.726563 19.078125 C 18.613281 17.339844 19.734375 16 21.089844 15.066406 C 22.445313 14.128906 23.910156 13.660156 25.480469 13.660156 C 27.421875 13.660156 29.074219 14.109375 30.441406 15.007813 L 31.722656 15.878906 L 30.6875 27.628906 C 30.550781 28.699219 30.671875 29.519531 31.042969 30.089844 C 31.414063 30.660156 32.007813 30.941406 32.820313 30.941406 C 34.070313 30.941406 35.113281 30.214844 35.953125 28.757813 C 36.792969 27.300781 37.253906 25.394531 37.335938 23.03125 C 37.566406 18.300781 36.613281 14.664063 34.480469 12.125 C 32.34375 9.585938 29.183594 8.3125 24.996094 8.3125 C 22.378906 8.3125 20.046875 8.976563 18.003906 10.304688 C 15.953125 11.636719 14.339844 13.523438 13.164063 15.96875 C 11.984375 18.414063 11.316406 21.21875 11.167969 24.375 C 10.953125 29.175781 11.914063 32.886719 14.058594 35.507813 C 16.199219 38.128906 19.402344 39.441406 23.675781 39.441406 C 24.800781 39.441406 25.976563 39.316406 27.210938 39.066406 C 28.445313 38.8125 29.511719 38.476563 30.402344 38.058594 L 31.175781 41.1875 C 30.347656 41.730469 29.234375 42.171875 27.828125 42.503906 C 26.429688 42.835938 25.015625 43 23.59375 43 C 20.011719 43 16.964844 42.277344 14.441406 40.835938 C 11.921875 39.390625 10.039063 37.265625 8.800781 34.449219 C 7.5625 31.636719 7.023438 28.277344 7.183594 24.378906 C 7.347656 20.632813 8.199219 17.28125 9.746094 14.3125 C 11.289063 11.34375 13.394531 9.050781 16.058594 7.433594 C 18.722656 5.8125 21.726563 5 25.074219 5 C 28.476563 5 31.40625 5.730469 33.859375 7.1875 C 36.3125 8.640625 38.148438 10.726563 39.367188 13.4375 C 40.589844 16.148438 41.125 19.300781 40.976563 22.890625 Z M 20.542969 25.046875 C 20.390625 26.835938 20.550781 28.195313 21.011719 29.121094 C 21.46875 30.050781 22.214844 30.519531 23.246094 30.519531 C 23.910156 30.519531 24.539063 30.226563 25.136719 29.640625 C 25.734375 29.058594 26.230469 28.21875 26.621094 27.121094 L 27.476563 17.503906 C 26.949219 17.328125 26.402344 17.238281 25.847656 17.238281 C 24.289063 17.238281 23.078125 17.902344 22.21875 19.230469 C 21.359375 20.558594 20.800781 22.5 20.542969 25.046875 Z" fill="#2196f3"/></svg>