<svg xmlns="http://www.w3.org/2000/svg" viewBox="0 0 48 48" width="50" height="50" fill="#666"><circle cx="24" cy="24" r="20" fill="#03a9f4"/><circle cx="33.5" cy="33.5" r="11.5" fill="#03a9f4"/><circle cx="14.5" cy="14.5" r="11.5" fill="#03a9f4"/><path d="M24.602,36C18,36,15,32.699,15,30.199C15,28.898,15.898,28,17.199,28	c2.801,0,2.102,4.102,7.402,4.102c2.699,0,4.199-1.5,4.199-3c0-0.902-0.402-1.902-2.199-2.402l-5.902-1.5	C16,24,15.102,21.398,15.102,18.898c0-5.098,4.699-6.898,9.098-6.898C28.301,12,33,14.199,33,17.199c0,1.301-1,2.102-2.301,2.102	c-2.398,0-2-3.402-6.801-3.402c-2.398,0-3.797,1.102-3.797,2.703c0,1.598,1.898,2.098,3.598,2.5l4.402,1	C32.898,23.199,34,26,34,28.699C33.898,32.898,30.898,36,24.602,36z" fill="#fff"/></svg>