<svg xmlns="http://www.w3.org/2000/svg" viewBox="0 0 48 48" width="50" height="50" fill="#666"><path d="M 42 37 C 42 39.761719 39.761719 42 37 42 L 11 42 C 8.238281 42 6 39.761719 6 37 L 6 11 C 6 8.238281 8.238281 6 11 6 L 37 6 C 39.761719 6 42 8.238281 42 11 Z" fill="#01579b"/><path d="M 32 34.890625 C 32 34.984375 31.964844 35.074219 31.890625 35.136719 C 31.804688 35.214844 29.722656 37 24.945313 37 C 19.222656 37 19.054688 30.589844 19.054688 29.859375 L 19 22 L 16.328125 22 C 16.144531 22 16 21.851563 16 21.671875 L 16 18.570313 C 16 18.433594 16.082031 18.3125 16.207031 18.261719 C 16.261719 18.242188 21.378906 16.179688 21.378906 11.328125 C 21.378906 11.144531 21.523438 11 21.707031 11 L 24.671875 11 C 24.855469 11 25 11.144531 25 11.328125 L 25 18 L 30.671875 18 C 30.851563 18 31 18.144531 31 18.328125 L 31 21.671875 C 31 21.855469 30.851563 22 30.671875 22 L 25 22 L 25 29.710938 C 25 29.8125 25.316406 32.230469 27.761719 32.230469 C 29.78125 32.230469 31.480469 31.1875 31.5 31.175781 C 31.601563 31.109375 31.726563 31.109375 31.832031 31.164063 C 31.9375 31.222656 32 31.335938 32 31.453125 Z" fill="#fff"/></svg>