<svg xmlns="http://www.w3.org/2000/svg" viewBox="0 0 48 48" width="50" height="50" fill="#666"><path d="M44,24c0,11-9,20-20,20S4,35,4,24S13,4,24,4S44,13,44,24z" fill="#ffca28"/><path d="M21,23c0,2.2-1.8,4-4,4s-4-1.8-4-4s1.8-4,4-4S21,20.8,21,23z" fill="#6d4c41"/><path d="M17,21.5c0,0.8-0.7,1.5-1.5,1.5S14,22.3,14,21.5s0.7-1.5,1.5-1.5C16.3,20,17,20.7,17,21.5z" fill="#fff"/><path d="M35,23c0,2.2-1.8,4-4,4s-4-1.8-4-4s1.8-4,4-4S35,20.8,35,23z" fill="#6d4c41"/><path d="M31,21.5c0,0.8-0.7,1.5-1.5,1.5S28,22.3,28,21.5s0.7-1.5,1.5-1.5S31,20.7,31,21.5z" fill="#fff"/><path d="M24,37c-2.8,0-5-2.2-5-5h2c0,1.7,1.3,3,3,3s3-1.3,3-3h2C29,34.8,26.8,37,24,37z" fill="#b76c09"/></svg>