<svg xmlns="http://www.w3.org/2000/svg" viewBox="0 0 48 48" width="50" height="50" fill="#666"><path d="M 40 45 L 8 45 L 8 3 L 30 3 L 40 13 Z" fill="#3f51b5"/><path d="M 38.5 14 L 29 14 L 29 4.5 Z" fill="#e8eaf6"/><path d="M 22.566406 31.871094 C 22.179688 32.289063 21.703125 32.605469 21.140625 32.820313 C 20.578125 33.03125 19.964844 33.136719 19.292969 33.136719 C 18.148438 33.136719 17.261719 32.78125 16.628906 32.074219 C 15.992188 31.363281 15.667969 30.335938 15.648438 28.980469 L 15.648438 27.1875 C 15.648438 25.816406 15.949219 24.761719 16.546875 24.019531 C 17.148438 23.28125 18.019531 22.910156 19.171875 22.910156 C 20.25 22.910156 21.066406 23.175781 21.613281 23.710938 C 22.164063 24.242188 22.480469 25.078125 22.566406 26.21875 L 20.613281 26.21875 C 20.558594 25.585938 20.425781 25.152344 20.21875 24.921875 C 20.007813 24.695313 19.679688 24.578125 19.234375 24.578125 C 18.691406 24.578125 18.296875 24.777344 18.050781 25.171875 C 17.804688 25.570313 17.675781 26.199219 17.667969 27.066406 L 17.667969 28.871094 C 17.667969 29.777344 17.804688 30.4375 18.074219 30.851563 C 18.34375 31.261719 18.789063 31.46875 19.410156 31.46875 C 19.804688 31.46875 20.128906 31.390625 20.375 31.230469 L 20.550781 31.105469 L 20.550781 29.28125 L 19.144531 29.28125 L 19.144531 27.765625 L 22.570313 27.765625 L 22.570313 31.871094 Z" fill="#e8eaf6"/><path d="M 26.089844 33 L 24.078125 33 L 24.078125 23.046875 L 26.089844 23.046875 Z" fill="#e8eaf6"/><path d="M 32.910156 28.9375 L 29.785156 28.9375 L 29.785156 33 L 27.773438 33 L 27.773438 23.046875 L 33.285156 23.046875 L 33.285156 24.722656 L 29.785156 24.722656 L 29.785156 27.273438 L 32.910156 27.273438 Z" fill="#e8eaf6"/></svg>