<svg xmlns="http://www.w3.org/2000/svg" viewBox="0 0 48 48" width="50" height="50" fill="#666"><path d="M 29.398438 8.398438 C 30.5 7.699219 34.699219 5.101563 38.199219 5.101563 C 44.800781 5.101563 41.699219 12.800781 41.699219 12.800781 L 41.898438 13 C 45.699219 3.300781 38.398438 4 38.398438 4 C 34.300781 4 29.101563 7.398438 28 8.199219 C 27 8.101563 26 8 24.898438 8 C 9.699219 8 7.398438 19.601563 7.101563 23 C 7 23.5 7 23.800781 7 23.800781 C 7 23.898438 7 24 7 24 C 7 23.898438 7 23.800781 7 23.699219 C 13.101563 15 21.5 11.5 21.5 11.5 L 21.5 12.101563 C 9 20.601563 6 33.199219 5.300781 35.699219 C 4.5 38.300781 5 44 10.300781 44 C 15.601563 44 20.699219 39.800781 20.699219 39.800781 C 20.699219 39.800781 21.898438 40 25 40 C 38.199219 40 41.699219 28 41.699219 28 L 30 28 C 30 28 28.800781 32 24.601563 32 C 18.800781 32 19 26 19 26 L 42 26 C 42.398438 20.5 40.898438 16.699219 38.699219 14.101563 C 36.898438 11.5 34 9.300781 29.398438 8.398438 Z M 20 39.601563 C 20 39.601563 12.199219 44.5 8.601563 41.101563 C 6.699219 37.699219 9.800781 32.898438 9.800781 32.898438 C 9.800781 32.898438 12.199219 37.800781 20 39.601563 Z M 18.800781 10.300781 C 18.800781 10.300781 18.699219 10.300781 18.800781 10.300781 Z M 19 21 C 19 21 18.898438 16 24.5 16 C 29.898438 16 30 21 30 21 Z" fill="#29b6f6"/></svg>