<svg xmlns="http://www.w3.org/2000/svg" viewBox="0 0 48 48" width="50" height="50" fill="#666"><path d="M 5 10 C 5 7.789063 6.789063 6 9 6 L 37 6 C 39.210938 6 41 7.789063 41 10 L 41 38 C 41 40.210938 39.210938 42 37 42 L 9 42 C 6.789063 42 5 40.210938 5 38 Z" fill="#e91e63"/><path d="M 26.28125 22.554688 C 25.773438 22.554688 25.402344 22.757813 25.171875 23.167969 C 24.9375 23.578125 24.816406 24.308594 24.816406 25.355469 L 24.816406 26.089844 C 24.816406 27.128906 24.929688 27.859375 25.148438 28.269531 C 25.371094 28.683594 25.746094 28.890625 26.273438 28.890625 C 26.820313 28.890625 27.234375 28.648438 27.511719 28.160156 L 27.511719 23.335938 C 27.238281 22.8125 26.828125 22.554688 26.28125 22.554688 Z" fill="#16020b"/><path d="M 8 9 L 8 39 L 38 39 L 38 9 Z M 20.140625 31 L 17.269531 31 L 17.269531 16.78125 L 20.140625 16.78125 Z M 30.296875 31 L 27.785156 31 L 27.660156 29.925781 C 27.09375 30.773438 26.363281 31.195313 25.472656 31.195313 C 24.363281 31.195313 23.519531 30.773438 22.9375 29.925781 C 22.355469 29.078125 22.058594 27.835938 22.042969 26.195313 L 22.042969 25.394531 C 22.042969 23.664063 22.335938 22.371094 22.921875 21.519531 C 23.507813 20.664063 24.363281 20.238281 25.480469 20.238281 C 26.296875 20.238281 26.972656 20.589844 27.511719 21.292969 L 27.511719 16 L 30.296875 16 Z" fill="#16020b"/></svg>