<svg xmlns="http://www.w3.org/2000/svg" viewBox="0 0 48 48" width="50" height="50" fill="#666"><path fill="#ff3d00" d="M25 6L34 10 25 14z"/><path fill="#5d4037" d="M23 4H25V19H23z"/><path fill="#90a4ae" d="M48 44L24 44 31.61 30.682 34 32 40 32 41.35 32.365z"/><path d="M41.35,32.365L41,35.792l-4-3.078l-3,3.078l-2.39-5.11l3.527-6.175c0.386-0.676,1.339-0.676,1.726,0 L41.35,32.365z" fill="#b3e5fc"/><path fill="#90a4ae" d="M0 44L24 44 16.39 30.682 14 32 8 32 6.65 32.365z"/><path d="M6.65,32.365L7,35.792l4-3.078l3,3.078l2.39-5.11l-3.527-6.175c-0.386-0.676-1.339-0.676-1.726,0 L6.65,32.365z" fill="#b3e5fc"/><path fill="#546e7a" d="M40 44L8 44 14.84 32.15 18 30 30 30 33.16 32.15z"/><path fill="#dd2c00" d="M23 6H25V14H23z"/><path d="M33.16,32.15L31,34l-3.5-3L24,34l-3.5-3L17,34l-2.16-1.85l0.11-0.2l7.32-12.71 c0.95-1.65,2.51-1.65,3.46,0l7.32,12.71L33.16,32.15z" fill="#81d4fa"/></svg>