<svg xmlns="http://www.w3.org/2000/svg" viewBox="0 0 48 48" width="50" height="50" fill="#666"><path d="M6,37h26V7c0-1.1-0.9-2-2-2H8C6.9,5,6,5.9,6,7V37z" fill="#90caf9"/><path d="M32,37H6v2h26V37z" fill="#64b5f6"/><path d="M21,31h-4v4h4V31z" fill="#1565c0"/><path d="M14,31h-4v4h4V31z" fill="#1565c0"/><path d="M21,17h-4v4h4V17z" fill="#1565c0"/><path d="M14,17h-4v4h4V17z" fill="#1565c0"/><path d="M21,24h-4v4h4V24z" fill="#1565c0"/><path d="M14,24h-4v4h4V24z" fill="#1565c0"/><path d="M21,10h-4v4h4V10z" fill="#1565c0"/><path d="M28,10h-4v4h4V10z" fill="#1565c0"/><path d="M14,10h-4v4h4V10z" fill="#1565c0"/><path d="M40,17H25c-1.1,0-2,0.9-2,2v22h19V19C42,17.9,41.1,17,40,17z" fill="#1e88e5"/><path fill="#1976d2" d="M23 41H42V43H23z"/><path d="M31,21h-4v4h4V21z" fill="#0d47a1"/><path d="M31,28h-4v4h4V28z" fill="#0d47a1"/><path d="M31,35h-4v4h4V35z" fill="#0d47a1"/><path d="M34,28h4v4h-4V28z" fill="#0d47a1"/><path d="M34,35h4v4h-4V35z" fill="#0d47a1"/><path d="M38,21h-4v4h4V21z" fill="#0d47a1"/></svg>