<svg xmlns="http://www.w3.org/2000/svg" viewBox="0 0 48 48" width="50" height="50" fill="#666"><path d="M11,12H6c-0.6,0-1-0.4-1-1s0.4-1,1-1h4V6c0-0.6,0.4-1,1-1s1,0.4,1,1v5C12,11.6,11.6,12,11,12z" fill="#1565c0"/><path d="M14,15H9c-0.6,0-1-0.4-1-1s0.4-1,1-1h4V9c0-0.6,0.4-1,1-1s1,0.4,1,1v5C15,14.6,14.6,15,14,15z" fill="#1565c0"/><path d="M41,42h-5c-0.6,0-1-0.4-1-1s0.4-1,1-1h4v-4c0-0.6,0.4-1,1-1s1,0.4,1,1v5C42,41.6,41.6,42,41,42z" fill="#1565c0"/><path d="M27,40c0,0-14-7-14-17c0-2,2-8,7-8s7,4,7,4s2-4,7-4s7,6,7,8C41,33,27,40,27,40z" fill="#ff80ab"/><path d="M27,41.1l-0.7-0.3c-0.5-0.3-0.7-0.9-0.4-1.4c0.2-0.4,0.7-0.6,1.1-0.5c0.4-0.1,0.9,0.1,1.1,0.5 c0.3,0.5,0.1,1.1-0.4,1.4L27,41.1z" fill="#ff4081"/><path d="M24.6,39.6c-0.2,0-0.4,0-0.5-0.2l-0.4-0.3c-0.5-0.3-0.6-0.9-0.3-1.4c0.3-0.5,0.9-0.6,1.4-0.3 l0.4,0.3c0.5,0.3,0.6,0.9,0.3,1.4C25.2,39.4,24.9,39.6,24.6,39.6z M22,37.9c-0.2,0-0.4-0.1-0.6-0.2L21,37.3c-0.4-0.3-0.5-1-0.2-1.4 c0.3-0.4,1-0.5,1.4-0.2l0.4,0.3c0.4,0.3,0.5,1,0.2,1.4C22.6,37.7,22.3,37.9,22,37.9z M19.6,35.9c-0.2,0-0.5-0.1-0.7-0.3l-0.4-0.4 c-0.4-0.4-0.4-1-0.1-1.4c0.4-0.4,1-0.4,1.4-0.1l0.4,0.3c0.4,0.4,0.5,1,0.1,1.4C20.2,35.8,19.9,35.9,19.6,35.9z M17.4,33.8 c-0.3,0-0.5-0.1-0.7-0.3c-0.1-0.1-0.2-0.3-0.4-0.4C16,32.6,16,32,16.4,31.6c0.4-0.4,1.1-0.3,1.4,0.1l0.3,0.4c0.4,0.4,0.3,1-0.1,1.4 C17.9,33.7,17.7,33.8,17.4,33.8z M15.5,31.4c-0.3,0-0.6-0.2-0.8-0.4c-0.1-0.1-0.2-0.3-0.3-0.5c-0.3-0.5-0.2-1.1,0.3-1.4 c0.5-0.3,1.1-0.2,1.4,0.3c0.1,0.1,0.2,0.3,0.3,0.4c0.3,0.5,0.2,1.1-0.3,1.4C15.9,31.3,15.7,31.4,15.5,31.4z M14,28.7 c-0.4,0-0.8-0.2-0.9-0.6c-0.1-0.2-0.1-0.3-0.2-0.5c-0.2-0.5,0.1-1.1,0.6-1.3c0.5-0.2,1.1,0.1,1.3,0.6c0.1,0.1,0.1,0.3,0.2,0.4 c0.2,0.5,0,1.1-0.5,1.3C14.3,28.6,14.1,28.7,14,28.7z M13.1,25.7c-0.5,0-0.9-0.4-1-0.8c0-0.2-0.1-0.4-0.1-0.6 c-0.1-0.6,0.3-1,0.9-1.1c0.5-0.1,1,0.3,1.1,0.9c0,0.2,0,0.3,0.1,0.5c0.1,0.5-0.3,1.1-0.8,1.1C13.2,25.7,13.2,25.7,13.1,25.7z M13.2,22.7c-0.1,0-0.2,0-0.2,0c-0.5-0.1-0.9-0.7-0.8-1.2c0-0.2,0.1-0.4,0.1-0.6c0.2-0.5,0.7-0.8,1.2-0.7c0.5,0.2,0.8,0.7,0.7,1.2 c0,0.2-0.1,0.3-0.1,0.4C14.1,22.4,13.6,22.7,13.2,22.7z M14.3,19.8c-0.2,0-0.3,0-0.5-0.1c-0.5-0.3-0.7-0.9-0.4-1.4 c0.1-0.2,0.2-0.3,0.3-0.5c0.3-0.5,0.9-0.6,1.4-0.3s0.6,0.9,0.3,1.4c-0.1,0.1-0.2,0.3-0.2,0.4C15,19.6,14.6,19.8,14.3,19.8z M25.2,17.8c-0.2,0-0.4-0.1-0.6-0.2c-0.1-0.1-0.2-0.2-0.4-0.3c-0.4-0.3-0.5-0.9-0.2-1.4c0.3-0.4,0.9-0.5,1.4-0.2 c0.2,0.1,0.3,0.2,0.5,0.4c0.4,0.4,0.5,1,0.1,1.4C25.8,17.7,25.5,17.8,25.2,17.8z M16.2,17.4c-0.3,0-0.6-0.1-0.8-0.4 c-0.4-0.4-0.3-1.1,0.1-1.4c0.2-0.1,0.3-0.2,0.5-0.4c0.4-0.3,1.1-0.2,1.4,0.2c0.3,0.4,0.2,1.1-0.2,1.4c-0.1,0.1-0.2,0.2-0.3,0.3 C16.7,17.3,16.4,17.4,16.2,17.4z M22.5,16.4c-0.1,0-0.2,0-0.3,0c-0.1,0-0.3-0.1-0.4-0.1c-0.5-0.1-0.9-0.7-0.7-1.2 c0.1-0.5,0.7-0.9,1.2-0.7c0.2,0,0.4,0.1,0.6,0.2c0.5,0.2,0.8,0.7,0.7,1.3C23.3,16.1,22.9,16.4,22.5,16.4z M18.9,16.1 c-0.5,0-0.9-0.3-1-0.8c-0.1-0.5,0.3-1.1,0.8-1.2c0.2,0,0.4-0.1,0.6-0.1c0.6,0,1,0.4,1.1,0.9c0.1,0.5-0.4,1-0.9,1.1 c-0.1,0-0.3,0-0.4,0.1C19.1,16.1,19,16.1,18.9,16.1z" fill="#ff4081"/><path d="M27,21.2l-0.9-1.8c0,0,0-0.1-0.1-0.1c-0.3-0.5-0.1-1.1,0.3-1.4c0.2-0.1,0.4-0.2,0.6-0.1 c0.2,0,0.4,0,0.6,0.1c0.5,0.3,0.6,0.9,0.3,1.4c0,0.1-0.1,0.1-0.1,0.1L27,21.2z" fill="#ff4081"/><path d="M29.5,39.6c-0.3,0-0.7-0.2-0.8-0.5c-0.3-0.5-0.2-1.1,0.3-1.4l0.4-0.3c0.5-0.3,1.1-0.2,1.4,0.3 c0.3,0.5,0.2,1.1-0.3,1.4L30,39.4C29.8,39.5,29.6,39.6,29.5,39.6z M32,37.8c-0.3,0-0.6-0.1-0.8-0.4C30.9,37,31,36.4,31.4,36 l0.4-0.3c0.4-0.3,1.1-0.3,1.4,0.2s0.3,1.1-0.2,1.4l-0.4,0.3C32.4,37.8,32.2,37.8,32,37.8z M34.4,35.9c-0.3,0-0.6-0.1-0.8-0.3 c-0.4-0.4-0.3-1,0.1-1.4l0.4-0.3c0.4-0.4,1-0.3,1.4,0.1c0.4,0.4,0.3,1-0.1,1.4l-0.4,0.4C34.9,35.8,34.6,35.9,34.4,35.9z M36.6,33.7 c-0.2,0-0.5-0.1-0.7-0.3c-0.4-0.4-0.4-1-0.1-1.4c0.1-0.1,0.2-0.2,0.3-0.4c0.4-0.4,1-0.5,1.4-0.1c0.4,0.4,0.5,1,0.1,1.4 c-0.1,0.1-0.2,0.3-0.4,0.4C37.1,33.6,36.9,33.7,36.6,33.7z M38.5,31.3c-0.2,0-0.4-0.1-0.6-0.2c-0.5-0.3-0.6-0.9-0.3-1.4 c0.1-0.1,0.2-0.3,0.3-0.4c0.3-0.5,0.9-0.6,1.4-0.3c0.5,0.3,0.6,0.9,0.3,1.4c-0.1,0.1-0.2,0.3-0.3,0.4 C39.1,31.2,38.8,31.3,38.5,31.3z M40,28.6c-0.1,0-0.3,0-0.4-0.1c-0.5-0.2-0.7-0.8-0.5-1.3c0.1-0.1,0.1-0.3,0.2-0.4 c0.2-0.5,0.8-0.8,1.3-0.6c0.5,0.2,0.8,0.8,0.6,1.3c-0.1,0.2-0.1,0.3-0.2,0.5C40.8,28.4,40.4,28.6,40,28.6z M40.9,25.7 c-0.1,0-0.1,0-0.2,0c-0.5-0.1-0.9-0.6-0.8-1.1c0-0.2,0-0.3,0.1-0.5c0.1-0.6,0.5-0.9,1.1-0.9c0.6,0.1,0.9,0.6,0.9,1.1 c0,0.2,0,0.4-0.1,0.6C41.8,25.4,41.4,25.7,40.9,25.7z M40.8,22.6c-0.5,0-0.9-0.3-1-0.8c0-0.1-0.1-0.3-0.1-0.4 c-0.2-0.5,0.1-1.1,0.7-1.2c0.5-0.2,1.1,0.1,1.2,0.7c0.1,0.2,0.1,0.4,0.1,0.6c0.1,0.5-0.2,1.1-0.7,1.2C41,22.6,40.9,22.6,40.8,22.6z M39.7,19.8c-0.3,0-0.7-0.2-0.9-0.5c-0.1-0.1-0.2-0.3-0.2-0.4c-0.3-0.5-0.2-1.1,0.3-1.4c0.5-0.3,1.1-0.2,1.4,0.3 c0.1,0.2,0.2,0.3,0.3,0.5c0.3,0.5,0.1,1.1-0.4,1.4C40,19.7,39.9,19.8,39.7,19.8z M28.8,17.9c-0.3,0-0.6-0.1-0.8-0.4 c-0.4-0.4-0.3-1.1,0.1-1.4c0.1-0.1,0.3-0.2,0.5-0.4c0.4-0.3,1.1-0.2,1.4,0.2c0.3,0.4,0.2,1.1-0.2,1.4c-0.1,0.1-0.2,0.2-0.4,0.3 C29.3,17.8,29,17.9,28.8,17.9z M37.8,17.4c-0.2,0-0.5-0.1-0.6-0.2c-0.1-0.1-0.2-0.2-0.3-0.3c-0.4-0.3-0.6-0.9-0.2-1.4 c0.3-0.4,0.9-0.6,1.4-0.2c0.2,0.1,0.3,0.2,0.5,0.4c0.4,0.4,0.5,1,0.1,1.4C38.3,17.3,38.1,17.4,37.8,17.4z M31.5,16.4 c-0.4,0-0.8-0.3-1-0.7c-0.2-0.5,0.1-1.1,0.7-1.3c0.2-0.1,0.4-0.1,0.6-0.2c0.5-0.1,1.1,0.2,1.2,0.7c0.1,0.5-0.2,1.1-0.7,1.2 c-0.1,0-0.3,0.1-0.4,0.1C31.7,16.4,31.6,16.4,31.5,16.4z M35,16.1c-0.1,0-0.1,0-0.2,0c-0.1,0-0.3,0-0.4-0.1c-0.6,0-1-0.5-0.9-1.1 c0-0.5,0.5-1,1.1-0.9c0.2,0,0.4,0,0.6,0.1c0.5,0.1,0.9,0.6,0.8,1.2C35.9,15.7,35.5,16.1,35,16.1z" fill="#ff4081"/><path d="M15.6,15.6c0.2-0.1,0.3-0.2,0.5-0.4c0.2-0.1,0.3-0.2,0.5-0.2L12,10.5c-0.4-0.4-1-0.4-1.4,0 s-0.4,1,0,1.4l4.7,4.7C15.2,16.3,15.3,15.9,15.6,15.6z" fill="#1a237e"/><path d="M40,40v-1.4L29.1,27.7c-0.4-0.4-1-0.4-1.4,0c-0.4,0.4-0.4,1,0,1.4L38.6,40H40z" fill="#1a237e"/></svg>