<svg xmlns="http://www.w3.org/2000/svg" viewBox="0 0 48 48" width="50" height="50" fill="#666"><path d="M 44 22 C 44 33.046875 35.046875 42 24 42 C 12.953125 42 4 33.046875 4 22 C 4 10.953125 12.953125 2 24 2 C 35.046875 2 44 10.953125 44 22 Z" fill="#fff59d"/><path d="M 37 22 C 37 14.300781 30.398438 8.199219 22.5 9.101563 C 16.5 9.800781 11.699219 14.601563 11.101563 20.601563 C 10.601563 25.199219 12.5 29.300781 15.699219 31.898438 C 17.101563 33.101563 18 34.800781 18 36.699219 L 18 37 L 30 37 L 30 36.898438 C 30 35.101563 30.800781 33.300781 32.199219 32.101563 C 35.101563 29.699219 37 26.101563 37 22 Z" fill="#fbc02d"/><path d="M 30.601563 20.199219 L 27.601563 18.199219 C 27.300781 18 26.800781 18 26.5 18.199219 L 24 19.800781 L 21.601563 18.199219 C 21.300781 18 20.800781 18 20.5 18.199219 L 17.5 20.199219 C 17.300781 20.398438 17.101563 20.601563 17.101563 20.898438 C 17.101563 21.199219 17.101563 21.5 17.300781 21.699219 L 21.101563 26.398438 L 21.101563 37 L 23.101563 37 L 23.101563 26 C 23.101563 25.800781 23 25.601563 22.898438 25.398438 L 19.601563 21.300781 L 21.101563 20.300781 L 23.5 21.898438 C 23.800781 22.101563 24.300781 22.101563 24.601563 21.898438 L 27 20.300781 L 28.5 21.300781 L 25.199219 25.398438 C 25.101563 25.601563 25 25.800781 25 26 L 25 37 L 27 37 L 27 26.398438 L 30.800781 21.699219 C 31 21.5 31.101563 21.199219 31 20.898438 C 30.898438 20.601563 30.800781 20.300781 30.601563 20.199219 Z" fill="#fff59d"/><path d="M 27 44 C 27 45.65625 25.65625 47 24 47 C 22.34375 47 21 45.65625 21 44 C 21 42.34375 22.34375 41 24 41 C 25.65625 41 27 42.34375 27 44 Z" fill="#5c6bc0"/><path d="M 26 45 L 22 45 C 19.800781 45 18 43.199219 18 41 L 18 36 L 30 36 L 30 41 C 30 43.199219 28.199219 45 26 45 Z" fill="#9fa8da"/><path d="M 30 41 L 18.398438 42.601563 C 18.699219 43.300781 19.300781 44 20 44.398438 L 29.398438 43.101563 C 29.800781 42.5 30 41.800781 30 41 Z" fill="#5c6bc0"/><path d="M 18 38.699219 L 18 40.699219 L 30 39 L 30 37 Z" fill="#5c6bc0"/></svg>