<svg xmlns="http://www.w3.org/2000/svg" viewBox="0 0 48 48" width="50" height="50" fill="#666"><path d="M 2 10 L 46 10 L 46 38 L 2 38 Z" fill="#283593"/><path d="M 13 28 L 13.59375 29.890625 L 15.40625 29.1875 L 14.332031 30.84375 L 16 31.859375 L 14.070313 32.03125 L 14.335938 34 L 13 32.558594 L 11.664063 34 L 11.929688 32.03125 L 10 31.859375 L 11.667969 30.84375 L 10.59375 29.1875 L 12.40625 29.894531 Z M 34.5 31 L 34.796875 31.945313 L 35.703125 31.59375 L 35.167969 32.421875 L 36 32.929688 L 35.035156 33.015625 L 35.167969 34 L 34.5 33.28125 L 33.832031 34 L 33.964844 33.015625 L 33 32.929688 L 33.832031 32.421875 L 33.296875 31.59375 L 34.203125 31.945313 Z M 29.464844 21.984375 L 29.761719 22.929688 L 30.667969 22.578125 L 30.132813 23.40625 L 30.964844 23.914063 L 30 24 L 30.132813 24.984375 L 29.464844 24.265625 L 28.796875 24.984375 L 28.929688 24 L 27.964844 23.914063 L 28.800781 23.40625 L 28.261719 22.578125 L 29.167969 22.929688 Z M 34.5 16 L 34.796875 16.945313 L 35.703125 16.59375 L 35.167969 17.421875 L 36 17.929688 L 35.035156 18.015625 L 35.167969 19 L 34.5 18.28125 L 33.832031 19 L 33.964844 18.015625 L 33 17.929688 L 33.832031 17.421875 L 33.296875 16.59375 L 34.203125 16.945313 Z M 40.5 21 L 40.796875 21.945313 L 41.703125 21.59375 L 41.167969 22.421875 L 42 22.929688 L 41.035156 23.015625 L 41.167969 24 L 40.5 23.28125 L 39.832031 24 L 39.964844 23.015625 L 39 22.929688 L 39.832031 22.421875 L 39.296875 21.59375 L 40.203125 21.945313 Z M 37 25 L 37.273438 25.707031 L 38 25.765625 L 37.445313 26.257813 L 37.617188 27 L 37 26.597656 L 36.382813 27 L 36.554688 26.257813 L 36 25.765625 L 36.726563 25.707031 Z M 2 11.957031 L 11.460938 17.863281 L 12.882813 15.484375 L 4.09375 10 L 2 10 Z M 24 10 L 22.359375 10 L 13.574219 15.484375 L 14.996094 17.863281 L 24 12.238281 Z M 14.996094 15.769531 L 13.574219 18.144531 L 22.949219 24 L 24 24 L 24 21.390625 Z M 2 21.675781 L 2 24 L 3.503906 24 L 12.882813 18.144531 L 11.460938 15.769531 Z M 24 15 L 2 15 L 2 19 L 24 19 Z M 11 10 L 11 24 L 15 24 L 15 10 Z" fill="#fff"/><path d="M 8.898438 19 L 10.640625 19 L 2.632813 24 L 2 24 L 2 23.304688 Z M 9.488281 15 L 2 10.324219 L 2 11.414063 L 7.746094 15 Z M 17.558594 19 L 24 23.019531 L 24 21.933594 L 19.300781 19 Z M 23.230469 10 L 15.222656 15 L 16.96875 15 L 24 10.609375 L 24 10 Z M 14 10 L 12 10 L 12 16 L 2 16 L 2 18 L 12 18 L 12 24 L 14 24 L 14 18 L 24 18 L 24 16 L 14 16 Z" fill="#e53935"/></svg>