<svg xmlns="http://www.w3.org/2000/svg" viewBox="0 0 48 48" width="50" height="50" fill="#666"><path d="M33,40.333c0,0-2.491-5.333-9-5.333s-9,5.333-9,5.333V43h18V40.333z" fill="#33691e"/><circle cx="24" cy="27" r="6" fill="#ffa726"/><path d="M31.316,23.776l8.199-4.919l-1.029-1.715l-8.202,4.922C30.695,22.587,31.044,23.161,31.316,23.776z" fill="#c5e1a5"/><path d="M30.283,31.936l8.202,4.922l1.029-1.715l-8.199-4.919C31.044,30.839,30.695,31.413,30.283,31.936z" fill="#c5e1a5"/><path d="M16.684,30.224l-8.199,4.919l1.029,1.715l8.202-4.922C17.305,31.413,16.956,30.839,16.684,30.224z" fill="#c5e1a5"/><path d="M24,19c0.339,0,0.672,0.028,1,0.069V9h-2v10.069C23.328,19.028,23.661,19,24,19z" fill="#c5e1a5"/><path d="M17.717,22.064l-8.202-4.922l-1.029,1.715l8.199,4.919C16.956,23.161,17.305,22.587,17.717,22.064z" fill="#c5e1a5"/><circle cx="39" cy="18" r="4" fill="#7cb342"/><circle cx="39" cy="36" r="4" fill="#7cb342"/><circle cx="9" cy="18" r="4" fill="#7cb342"/><circle cx="9" cy="36" r="4" fill="#7cb342"/><circle cx="24" cy="9" r="4" fill="#7cb342"/></svg>