<svg xmlns="http://www.w3.org/2000/svg" viewBox="0 0 48 48" width="50" height="50" fill="#666"><g fill="#3f51b5"><path d="M 10 10 L 14 10 L 14 14 L 10 14 Z"/><path d="M 10 32 L 14 32 L 14 36 L 10 36 Z"/><path d="M 32 10 L 36 10 L 36 14 L 32 14 Z"/><path d="M 20 20 L 24 20 L 24 24 L 20 24 Z"/><path d="M 24 20 L 28 20 L 28 24 L 24 24 Z"/><path d="M 24 28 L 28 28 L 28 32 L 24 32 Z"/><path d="M 38 24 L 42 24 L 42 28 L 38 28 Z"/><path d="M 8 24 L 12 24 L 12 28 L 8 28 Z"/><path d="M 16 24 L 20 24 L 20 28 L 16 28 Z"/><path d="M 12 20 L 16 20 L 16 24 L 12 24 Z"/><path d="M 20 24 L 24 24 L 24 28 L 20 28 Z"/><path d="M 24 32 L 28 32 L 28 38 L 24 38 Z"/><path d="M 30 30 L 34 30 L 34 34 L 30 34 Z"/><path d="M 20 31 L 24 31 L 24 35 L 20 35 Z"/><path d="M 20 38 L 24 38 L 24 42 L 20 42 Z"/><path d="M 30 24 L 34 24 L 34 28 L 30 28 Z"/><path d="M 26 24 L 30 24 L 30 28 L 26 28 Z"/><path d="M 30 38 L 34 38 L 34 42 L 30 42 Z"/><path d="M 26 24 L 30 24 L 30 28 L 26 28 Z"/><path d="M 38 30 L 42 30 L 42 34 L 38 34 Z"/><path d="M 38 38 L 42 38 L 42 42 L 38 42 Z"/><path d="M 34 34 L 38 34 L 38 38 L 34 38 Z"/><path d="M 22 24 L 26 24 L 26 28 L 22 28 Z"/><path d="M 34 20 L 38 20 L 38 24 L 34 24 Z"/><path d="M 26 4 L 26 20 L 42 20 L 42 4 Z M 38 16 L 30 16 L 30 8 L 38 8 Z"/><path d="M 4 20 L 20 20 L 20 4 L 4 4 Z M 8 8 L 16 8 L 16 16 L 8 16 Z"/><path d="M 4 42 L 20 42 L 20 26 L 4 26 Z M 8 30 L 16 30 L 16 38 L 8 38 Z"/></g></svg>