<svg xmlns="http://www.w3.org/2000/svg" viewBox="0 0 48 48" width="50" height="50" fill="#666"><path d="M 6 10 C 6 7.789063 7.789063 6 10 6 L 38 6 C 40.210938 6 42 7.789063 42 10 L 42 38 C 42 40.210938 40.210938 42 38 42 L 10 42 C 7.789063 42 6 40.210938 6 38 Z" fill="#2196f3"/><path d="M 27 17 L 34 17 L 34 19 L 27 19 Z" fill="#fff"/><path d="M 21.511719 23.429688 C 22.097656 23.144531 23.414063 22.492188 23.414063 20.570313 C 23.414063 16.953125 19.464844 17 18.730469 17 L 12 17 L 12 31 L 19.023438 31 C 19.609375 31 24 30.835938 24 27 C 24 24.523438 22.390625 23.714844 21.511719 23.429688 Z M 15 19.429688 L 17.929688 19.429688 C 18.21875 19.429688 20.121094 19.53125 20.121094 21 C 20.121094 22.46875 18.660156 22.714844 18.222656 22.714844 L 15 22.714844 Z M 18.335938 28.570313 L 14.96875 28.570313 L 14.96875 24.714844 L 18.335938 24.714844 C 19.066406 24.714844 20.675781 24.953125 20.675781 26.714844 C 20.675781 28.476563 18.628906 28.570313 18.335938 28.570313 Z" fill="#fff"/><path d="M 32.4375 28.394531 C 31.972656 28.683594 31.507813 28.832031 30.890625 28.832031 C 28.5625 28.832031 28.101563 26.871094 28.101563 26 L 36 26 C 36 25.132813 36 24.488281 35.84375 23.765625 C 35.6875 23.039063 34.628906 20 30.734375 20 C 25.289063 20 25 24.777344 25 25.5 C 25 26.222656 25.15625 27.09375 25.46875 27.671875 C 25.777344 28.394531 26.085938 28.976563 26.550781 29.40625 C 27.015625 29.84375 27.632813 30.273438 28.253906 30.5625 C 29.027344 30.855469 29.804688 31 30.578125 31 C 31.816406 31 32.902344 30.710938 33.832031 30.132813 C 34.761719 29.554688 35.382813 28.683594 35.84375 27.527344 L 33.210938 27.527344 C 33.058594 27.816406 32.902344 28.105469 32.4375 28.394531 Z M 30.734375 22.027344 C 32.253906 22.027344 32.902344 23.617188 33.054688 24.339844 L 28.101563 24.339844 C 28.101563 24.199219 28.472656 22.027344 30.734375 22.027344 Z" fill="#fff"/></svg>