<svg xmlns="http://www.w3.org/2000/svg" viewBox="0 0 48 48" width="50" height="50" fill="#666"><path d="M 20 5 C 20 5 21 5 24 5 C 27 5 28 5 28 5 L 28 10 L 20 10 Z" fill="#0d47a1"/><path d="M 41.980469 37.019531 C 41.785156 18.230469 39.210938 11.542969 37.449219 9.78125 L 36.988281 9.320313 L 29 6 L 24 9 L 19 6 L 10.992188 9.320313 L 10.535156 9.777344 C 8.777344 11.539063 6.195313 18.230469 6 37.019531 C 5.992188 37.671875 6 39 6 39 L 12 39 C 12 39 11.992188 37.671875 12 37.023438 C 12.117188 26.34375 13.15625 19.933594 14 17.015625 L 14 43 L 34 43 L 34 17.03125 C 34.851563 19.964844 35.863281 26.371094 35.980469 37.019531 C 35.988281 37.667969 36 39 36 39 L 42 39 C 42 39 41.988281 37.671875 41.980469 37.019531 Z" fill="#90caf9"/><path d="M 24 9 L 20 13 L 16.890625 6.875 L 20 5 Z M 24 9 L 28 13 L 31.0625 6.875 L 28 5 Z" fill="#2196f3"/><path d="M 24 9 L 22 11 L 22 43 L 26 43 L 26 11 Z" fill="#2196f3"/><path d="M 6 39 L 12 39 L 12 43 L 6 43 Z" fill="#2196f3"/><path d="M 36 39 L 42 39 L 42 43 L 36 43 Z" fill="#2196f3"/><path d="M 22 13.828125 L 24 11.828125 L 26 13.828125 L 26 11 L 24 9 L 22 11 Z" fill="#1976d2"/><path d="M 25 12 C 25 12.550781 24.550781 13 24 13 C 23.449219 13 23 12.550781 23 12 C 23 11.449219 23.449219 11 24 11 C 24.550781 11 25 11.449219 25 12 Z" fill="#bbdefb"/><path d="M 25 18 C 25 18.550781 24.550781 19 24 19 C 23.449219 19 23 18.550781 23 18 C 23 17.449219 23.449219 17 24 17 C 24.550781 17 25 17.449219 25 18 Z" fill="#e3f2fd"/><path d="M 25 30 C 25 30.550781 24.550781 31 24 31 C 23.449219 31 23 30.550781 23 30 C 23 29.449219 23.449219 29 24 29 C 24.550781 29 25 29.449219 25 30 Z" fill="#e3f2fd"/><path d="M 25 18 C 25 18.550781 24.550781 19 24 19 C 23.449219 19 23 18.550781 23 18 C 23 17.449219 23.449219 17 24 17 C 24.550781 17 25 17.449219 25 18 Z" fill="#e3f2fd"/><path d="M 9 41 C 9 41.550781 8.550781 42 8 42 C 7.449219 42 7 41.550781 7 41 C 7 40.449219 7.449219 40 8 40 C 8.550781 40 9 40.449219 9 41 Z" fill="#e3f2fd"/><path d="M 41 41 C 41 41.550781 40.550781 42 40 42 C 39.449219 42 39 41.550781 39 41 C 39 40.449219 39.449219 40 40 40 C 40.550781 40 41 40.449219 41 41 Z" fill="#e3f2fd"/><path d="M 25 24 C 25 24.550781 24.550781 25 24 25 C 23.449219 25 23 24.550781 23 24 C 23 23.449219 23.449219 23 24 23 C 24.550781 23 25 23.449219 25 24 Z" fill="#e3f2fd"/><path d="M 25 36 C 25 36.550781 24.550781 37 24 37 C 23.449219 37 23 36.550781 23 36 C 23 35.449219 23.449219 35 24 35 C 24.550781 35 25 35.449219 25 36 Z" fill="#e3f2fd"/></svg>