<svg xmlns="http://www.w3.org/2000/svg" viewBox="0 0 48 48" width="50" height="50" fill="#666"><path d="M0,25v12.007C0,37.555,0.448,38,1,38h46c0.552,0,1-0.445,1-0.993V25H0z" fill="#78909c"/><circle cx="5" cy="30" r="1" fill="#64dd17"/><circle cx="9" cy="30" r="1" fill="#64dd17"/><circle cx="5" cy="34" r="1" fill="#64dd17"/><circle cx="9" cy="34" r="1" fill="#64dd17"/><path fill="#37474f" d="M19 31L19 30 18 30 18 29 16 29 16 30 15 30 15 31 14 31 14 35 20 35 20 31z"/><path fill="#37474f" d="M27 31L27 30 26 30 26 29 24 29 24 30 23 30 23 31 22 31 22 35 28 35 28 31z"/><path fill="#37474f" d="M35 31L35 30 34 30 34 29 32 29 32 30 31 30 31 31 30 31 30 35 36 35 36 31z"/><path fill="#37474f" d="M43 31L43 30 42 30 42 29 40 29 40 30 39 30 39 31 38 31 38 35 44 35 44 31z"/><path d="M0.083,24.599l6.007-14C6.246,10.235,6.599,10,6.989,10h34.023c0.39,0,0.742,0.235,0.898,0.599 l6.007,14C48.2,25.26,47.725,26,47.018,26H0.982C0.275,26-0.2,25.26,0.083,24.599z" fill="#b0bec5"/></svg>