<svg xmlns="http://www.w3.org/2000/svg" viewBox="0 0 48 48" width="50" height="50" fill="#666"><path d="M14,32H7c-1.1,0-2-0.9-2-2V18c0-1.1,0.9-2,2-2h7V32z" fill="#546e7a"/><path fill="#78909c" d="M26 42L14 32 14 16 26 6z"/><path d="M33,24c0,2.48-1.26,4.59-3.17,5.83L28.4,28.4c1.58-0.86,2.6-2.46,2.6-4.4s-1.02-3.54-2.6-4.4 l1.43-1.43C31.74,19.41,33,21.52,33,24z" fill="#03a9f4"/><path d="M38,24c0,3.81-1.8,7.21-4.61,9.39L32,32c2.44-1.82,4-4.75,4-8s-1.56-6.18-4-8l1.42-1.42 C36.22,16.77,38,20.2,38,24z" fill="#29b6f6"/><path d="M43,24c0,5.19-2.35,9.84-6.03,12.97l-1.42-1.42C38.87,32.8,41,28.64,41,24s-2.13-8.8-5.45-11.55 l1.42-1.42C40.65,14.16,43,18.81,43,24z" fill="#4fc3f7"/></svg>