<svg xmlns="http://www.w3.org/2000/svg" viewBox="0 0 48 48" width="50" height="50" fill="#666"><path d="M 40 12 L 22 12 L 18 8 L 8 8 C 5.800781 8 4 9.800781 4 12 L 4 20 L 44 20 L 44 16 C 44 13.800781 42.199219 12 40 12 Z" fill="#ffa000"/><path d="M 40 12 L 8 12 C 5.800781 12 4 13.800781 4 16 L 4 36 C 4 38.199219 5.800781 40 8 40 L 40 40 C 42.199219 40 44 38.199219 44 36 L 44 16 C 44 13.800781 42.199219 12 40 12 Z" fill="#ffca28"/><path d="M 15 15 L 33 15 L 33 37 L 15 37 Z" fill="#ffe082"/><path d="M 24 33 C 21.601563 33 21.5 29.5 21.5 29.5 L 21.5 26.5 L 26.5 26.5 L 26.5 29.5 C 26.5 29.5 26.398438 33 24 33 Z" fill="#ff9800"/><path d="M 29.5 23.5 C 29.5 24.050781 29.050781 24.5 28.5 24.5 C 27.949219 24.5 27.5 24.050781 27.5 23.5 C 27.5 22.949219 27.949219 22.5 28.5 22.5 C 29.050781 22.5 29.5 22.949219 29.5 23.5 Z" fill="#ffa726"/><path d="M 20.5 23.5 C 20.5 24.050781 20.050781 24.5 19.5 24.5 C 18.949219 24.5 18.5 24.050781 18.5 23.5 C 18.5 22.949219 18.949219 22.5 19.5 22.5 C 20.050781 22.5 20.5 22.949219 20.5 23.5 Z" fill="#ffa726"/><path d="M 28.5 20.5 C 28.5 16.699219 19.5 18 19.5 20.5 C 19.5 21 19.5 23.5 19.5 24 C 19.5 26.5 21.5 28.5 24 28.5 C 26.5 28.5 28.5 26.5 28.5 24 C 28.5 23.5 28.5 21 28.5 20.5 Z" fill="#ffb74d"/><path d="M 24 16 C 21 16 19 18.5 19 21.5 C 19 21.898438 19 22.601563 19 22.601563 L 20 23.5 L 20 21 L 26 19 L 28 21 L 28 23.5 L 29 22.601563 C 29 22.601563 29 21.898438 29 21.5 C 29 19.5 28.5 17.5 26 17 L 25.5 16 Z" fill="#424242"/><path d="M 26.5 23.5 C 26.5 23.777344 26.277344 24 26 24 C 25.722656 24 25.5 23.777344 25.5 23.5 C 25.5 23.222656 25.722656 23 26 23 C 26.277344 23 26.5 23.222656 26.5 23.5 Z" fill="#784719"/><path d="M 22.5 23.5 C 22.5 23.777344 22.277344 24 22 24 C 21.722656 24 21.5 23.777344 21.5 23.5 C 21.5 23.222656 21.722656 23 22 23 C 22.277344 23 22.5 23.222656 22.5 23.5 Z" fill="#784719"/><path d="M 26.5 29.5 C 26.5 29.5 25.601563 30.5 24 30.5 C 22.398438 30.5 21.5 29.5 21.5 29.5 C 21.5 29.5 16 30.5 16 36 L 32 36 C 32 30.5 26.5 29.5 26.5 29.5 Z" fill="#009688"/></svg>