<svg xmlns="http://www.w3.org/2000/svg" viewBox="0 0 48 48" width="50" height="50" fill="#666"><path d="M29.3,16.5c-0.1-0.2-1.2-1.9-1.2-3.5c0-1,0.4-1.6,0.7-2c0.2-0.4,0.3-0.6,0.3-1 c0-0.9-0.6-2.1-0.8-2.5L28,7.1L29.7,6L30,6.5c0.1,0.2,1.1,1.9,1.1,3.5c0,1-0.4,1.6-0.6,2c-0.2,0.4-0.4,0.6-0.4,1 c0,0.9,0.6,2.1,0.9,2.5L29.3,16.5z" fill="#bcaaa4"/><path d="M24.3,16.5c-0.1-0.2-1.2-1.9-1.2-3.5c0-1,0.4-1.6,0.7-2c0.2-0.4,0.3-0.6,0.3-1 c0-0.9-0.6-2.1-0.8-2.5L23,7.1L24.7,6L25,6.5c0.1,0.2,1.1,1.9,1.1,3.5c0,1-0.4,1.6-0.6,2c-0.2,0.4-0.4,0.6-0.4,1 c0,0.9,0.6,2.1,0.9,2.5L24.3,16.5z" fill="#bcaaa4"/><path d="M19.3,16.5c-0.1-0.2-1.2-1.9-1.2-3.5c0-1,0.4-1.6,0.7-2c0.2-0.4,0.3-0.6,0.3-1 c0-0.9-0.6-2.1-0.9-2.5L18,7.1L19.7,6L20,6.5c0.1,0.2,1.1,1.9,1.1,3.5c0,1-0.4,1.6-0.6,2c-0.2,0.4-0.4,0.6-0.4,1 c0,0.9,0.6,2.1,0.9,2.5L19.3,16.5z" fill="#bcaaa4"/><path d="M30,34c-0.3,0-0.7-0.2-0.9-0.5c-0.3-0.5-0.1-1.1,0.3-1.4c0.1,0,7.7-4.7,10.3-7.2 c2.1-2,2.3-3.1,2.2-3.6c-0.1-0.7-0.9-1.1-1.3-1.3c-1.3-0.5-3.3,1.2-4.9,2.6c-0.4,0.4-0.8,0.7-1.2,1c-0.4,0.3-1.1,0.3-1.4-0.1 c-0.3-0.4-0.3-1.1,0.1-1.4c0.4-0.3,0.7-0.6,1.1-1c2-1.8,4.5-4,7-3c1.4,0.6,2.3,1.6,2.5,2.7c0.3,1.6-0.6,3.4-2.8,5.4 c-2.8,2.6-10.3,7.2-10.7,7.4C30.4,34,30.2,34,30,34z" fill="#f50057"/><path d="M17.8,37h12.4c7-4.6,7.8-22,7.8-22H10C10,15,11.6,32.4,17.8,37z" fill="#f50057"/><path d="M4.3,36c1.6,2.8,9.8,6,19.7,6s18.1-3.2,19.7-6H4.3z" fill="#ad1457"/></svg>