<svg xmlns="http://www.w3.org/2000/svg" viewBox="0 0 48 48" width="50" height="50" fill="#666"><path d="M 40 45 L 8 45 L 8 3 L 30 3 L 40 13 Z" fill="#4db6ac"/><path d="M 38.5 14 L 29 14 L 29 4.5 Z" fill="#e0f2f1"/><path d="M 14 33 L 14 23.046875 L 16.632813 23.046875 C 17.792969 23.046875 18.71875 23.414063 19.410156 24.152344 C 20.101563 24.890625 20.453125 25.902344 20.46875 27.1875 L 20.46875 28.800781 C 20.46875 30.109375 20.121094 31.136719 19.429688 31.882813 C 18.742188 32.628906 17.789063 33 16.578125 33 Z M 16.011719 24.722656 L 16.011719 31.332031 L 16.613281 31.332031 C 17.28125 31.332031 17.753906 31.15625 18.027344 30.800781 C 18.300781 30.449219 18.445313 29.839844 18.457031 28.972656 L 18.457031 27.246094 C 18.457031 26.316406 18.328125 25.667969 18.066406 25.300781 C 17.808594 24.933594 17.367188 24.742188 16.742188 24.722656 Z" fill="#00695c"/><path d="M 23.917969 31.332031 L 27.445313 31.332031 L 27.445313 33 L 21.910156 33 L 21.910156 23.046875 L 23.917969 23.046875 Z" fill="#00695c"/><path d="M 30.617188 31.332031 L 34.144531 31.332031 L 34.144531 33 L 28.609375 33 L 28.609375 23.046875 L 30.617188 23.046875 Z" fill="#00695c"/></svg>