<svg xmlns="http://www.w3.org/2000/svg" viewBox="0 0 48 48" width="50" height="50" fill="#666"><path d="M 40 45 L 8 45 L 8 3 L 30 3 L 40 13 Z" fill="#4db6ac"/><path d="M 38.5 14 L 29 14 L 29 4.5 Z" fill="#e0f2f1"/><path d="M 19.933594 29.683594 C 19.882813 30.820313 19.5625 31.679688 18.976563 32.261719 C 18.386719 32.84375 17.558594 33.136719 16.488281 33.136719 C 15.363281 33.136719 14.5 32.765625 13.898438 32.027344 C 13.300781 31.285156 13 30.230469 13 28.855469 L 13 27.183594 C 13 25.816406 13.308594 24.761719 13.929688 24.019531 C 14.550781 23.28125 15.410156 22.910156 16.515625 22.910156 C 17.597656 22.910156 18.421875 23.214844 18.984375 23.820313 C 19.546875 24.425781 19.867188 25.296875 19.945313 26.429688 L 17.929688 26.429688 C 17.910156 25.726563 17.800781 25.242188 17.601563 24.976563 C 17.40625 24.710938 17.039063 24.578125 16.511719 24.578125 C 15.976563 24.578125 15.59375 24.765625 15.371094 25.140625 C 15.148438 25.519531 15.027344 26.136719 15.015625 26.996094 L 15.015625 28.878906 C 15.015625 29.867188 15.125 30.546875 15.347656 30.914063 C 15.570313 31.28125 15.949219 31.46875 16.484375 31.46875 C 17.015625 31.46875 17.378906 31.339844 17.578125 31.082031 C 17.78125 30.824219 17.894531 30.359375 17.921875 29.683594 Z" fill="#00695c"/><path d="M 25.371094 30.390625 C 25.371094 29.984375 25.269531 29.675781 25.0625 29.46875 C 24.855469 29.261719 24.476563 29.046875 23.929688 28.824219 C 22.933594 28.445313 22.214844 28.003906 21.777344 27.492188 C 21.339844 26.984375 21.121094 26.386719 21.121094 25.691406 C 21.121094 24.855469 21.417969 24.179688 22.011719 23.671875 C 22.609375 23.164063 23.363281 22.910156 24.277344 22.910156 C 24.890625 22.910156 25.433594 23.039063 25.914063 23.296875 C 26.390625 23.554688 26.761719 23.917969 27.015625 24.386719 C 27.273438 24.855469 27.402344 25.390625 27.402344 25.988281 L 25.398438 25.988281 C 25.398438 25.523438 25.300781 25.167969 25.101563 24.925781 C 24.902344 24.679688 24.617188 24.558594 24.246094 24.558594 C 23.894531 24.558594 23.621094 24.664063 23.425781 24.871094 C 23.230469 25.078125 23.132813 25.355469 23.132813 25.707031 C 23.132813 25.980469 23.238281 26.230469 23.460938 26.449219 C 23.679688 26.671875 24.066406 26.898438 24.621094 27.136719 C 25.59375 27.488281 26.296875 27.917969 26.734375 28.429688 C 27.175781 28.941406 27.394531 29.589844 27.394531 30.378906 C 27.394531 31.242188 27.121094 31.921875 26.570313 32.40625 C 26.015625 32.894531 25.265625 33.136719 24.320313 33.136719 C 23.675781 33.136719 23.09375 33.007813 22.5625 32.742188 C 22.035156 32.476563 21.621094 32.097656 21.320313 31.605469 C 21.023438 31.113281 20.875 30.535156 20.875 29.863281 L 22.890625 29.863281 C 22.890625 30.4375 23.003906 30.855469 23.226563 31.113281 C 23.449219 31.375 23.8125 31.503906 24.320313 31.503906 C 25.019531 31.503906 25.371094 31.132813 25.371094 30.390625 Z" fill="#00695c"/><path d="M 32.933594 30.390625 C 32.933594 29.984375 32.828125 29.675781 32.621094 29.46875 C 32.414063 29.261719 32.039063 29.046875 31.492188 28.824219 C 30.492188 28.445313 29.773438 28.003906 29.339844 27.492188 C 28.898438 26.984375 28.683594 26.386719 28.683594 25.691406 C 28.683594 24.855469 28.980469 24.179688 29.574219 23.671875 C 30.167969 23.164063 30.925781 22.910156 31.839844 22.910156 C 32.453125 22.910156 32.996094 23.039063 33.476563 23.296875 C 33.953125 23.554688 34.320313 23.917969 34.578125 24.386719 C 34.835938 24.855469 34.964844 25.390625 34.964844 25.988281 L 32.960938 25.988281 C 32.960938 25.523438 32.863281 25.167969 32.664063 24.925781 C 32.464844 24.679688 32.179688 24.558594 31.808594 24.558594 C 31.457031 24.558594 31.183594 24.664063 30.988281 24.871094 C 30.789063 25.078125 30.691406 25.355469 30.691406 25.707031 C 30.691406 25.980469 30.800781 26.230469 31.019531 26.449219 C 31.238281 26.671875 31.625 26.898438 32.183594 27.136719 C 33.152344 27.488281 33.859375 27.917969 34.296875 28.429688 C 34.738281 28.941406 34.957031 29.589844 34.957031 30.378906 C 34.957031 31.242188 34.683594 31.921875 34.132813 32.40625 C 33.578125 32.894531 32.828125 33.136719 31.882813 33.136719 C 31.238281 33.136719 30.652344 33.007813 30.125 32.742188 C 29.597656 32.476563 29.183594 32.097656 28.882813 31.605469 C 28.585938 31.113281 28.4375 30.535156 28.4375 29.863281 L 30.453125 29.863281 C 30.453125 30.4375 30.566406 30.855469 30.789063 31.113281 C 31.011719 31.375 31.378906 31.503906 31.882813 31.503906 C 32.582031 31.503906 32.933594 31.132813 32.933594 30.390625 Z" fill="#00695c"/></svg>