<svg xmlns="http://www.w3.org/2000/svg" viewBox="0 0 48 48" width="50" height="50" fill="#666"><path d="M 35 44 C 35 44 29 42 24 42 C 19 42 13 44 13 44 L 13 32 L 35 32 Z" fill="#bf360c"/><path d="M 14 28 C 14 30.210938 12.210938 32 10 32 C 7.789063 32 6 30.210938 6 28 C 6 25.789063 7.789063 24 10 24 C 12.210938 24 14 25.789063 14 28" fill="#ffa726"/><path d="M 42 28 C 42 30.210938 40.210938 32 38 32 C 35.789063 32 34 30.210938 34 28 C 34 25.789063 35.789063 24 38 24 C 40.210938 24 42 25.789063 42 28" fill="#ffa726"/><path d="M 38 18 C 38 5.273438 10 9.714844 10 18 L 10 27 C 10 35.285156 16.269531 42 24 42 C 31.730469 42 38 35.285156 38 27 Z" fill="#ffb74d"/><path d="M 32 26 C 32 27.105469 31.105469 28 30 28 C 28.894531 28 28 27.105469 28 26 C 28 24.894531 28.894531 24 30 24 C 31.105469 24 32 24.894531 32 26" fill="#784719"/><path d="M 20 26 C 20 27.105469 19.105469 28 18 28 C 16.894531 28 16 27.105469 16 26 C 16 24.894531 16.894531 24 18 24 C 19.105469 24 20 24.894531 20 26" fill="#784719"/><path d="M 24 4 C 15.496094 4 3 9 2.875 36 L 13 44 L 13 24 L 29.75 15 L 34.875 22 L 35 44 L 45 36 C 45 24 44.457031 7 30 7 L 28 4 Z" fill="#ff5722"/><path d="M 19 35 L 29 35 C 29 35 27 38 24 38 C 21 38 19 35 19 35 Z" fill="#fb8c00"/></svg>