<svg xmlns="http://www.w3.org/2000/svg" viewBox="0 0 48 48" width="50" height="50" fill="#666"><path d="M 42 41 C 42 41.554688 41.554688 42 41 42 L 7 42 C 6.445313 42 6 41.554688 6 41 L 6 29 C 6 28.445313 6.445313 28 7 28 L 41 28 C 41.554688 28 42 28.445313 42 29 Z" fill="#455a64"/><path d="M 27 41 C 27 41.554688 26.554688 42 26 42 L 15 42 C 14.445313 42 14 41.554688 14 41 L 14 37 C 14 36.445313 14.445313 36 15 36 L 26 36 C 26.554688 36 27 36.445313 27 37 Z" fill="#b0bec5"/><path d="M 42 41 C 42 41.554688 41.554688 42 41 42 L 30 42 C 29.445313 42 29 41.554688 29 41 L 29 37 C 29 36.445313 29.445313 36 30 36 L 41 36 C 41.554688 36 42 36.445313 42 37 Z" fill="#b0bec5"/><path d="M 34 33 C 34 33.554688 33.554688 34 33 34 L 22 34 C 21.445313 34 21 33.554688 21 33 L 21 29 C 21 28.445313 21.445313 28 22 28 L 33 28 C 33.554688 28 34 28.445313 34 29 Z" fill="#b0bec5"/><path d="M 6 33 C 6 33.554688 6.445313 34 7 34 L 18 34 C 18.554688 34 19 33.554688 19 33 L 19 29 C 19 28.445313 18.554688 28 18 28 L 7 28 C 6.445313 28 6 28.445313 6 29 Z" fill="#b0bec5"/><path d="M 42 28 L 37 28 C 36.445313 28 36 28.445313 36 29 L 36 33 C 36 33.554688 36.445313 34 37 34 L 42 34 Z" fill="#b0bec5"/><path d="M 11 36 L 6 36 L 6 42 L 11 42 C 11.554688 42 12 41.554688 12 41 L 12 37 C 12 36.445313 11.554688 36 11 36 Z" fill="#b0bec5"/><path d="M 14 25 C 13.945313 26.019531 14.21875 27.0625 14.5625 28 L 20 28 C 19.988281 27.882813 19.980469 27.765625 19.980469 27.644531 C 19.980469 22.933594 24.949219 22.566406 24 18 C 25.609375 20.035156 26.074219 20.640625 23.964844 24.769531 C 23.492188 25.703125 23.9375 27 26 27 C 27.472656 27 27.554688 25.71875 27 24 C 29.394531 25.480469 29.128906 26.757813 29 28 L 35 28 C 34.804688 24.292969 32.476563 22.25 32.53125 19.90625 C 32.601563 17.121094 33.617188 13.589844 30 11 C 30.355469 13.363281 30 16 28 16 C 26 16 27.914063 12.644531 26 9.59375 C 25 8 23 6 19.964844 6.050781 C 24.03125 8.4375 22.285156 16.03125 21 17 C 18.976563 18.523438 19 14 16 14 C 17.203125 14.5625 16.617188 18.546875 15.914063 20.03125 C 15.34375 21.25 14.125 22.5625 14 25 Z" fill="#ff3d00"/><path d="M 20 28 C 19.988281 27.882813 19.980469 27.765625 19.980469 27.644531 C 19.980469 22.933594 24.949219 22.566406 24 18 C 25.609375 20.035156 26.074219 20.640625 23.964844 24.769531 C 23.492188 25.703125 23.9375 27 26 27 C 27.472656 27 27.554688 25.71875 27 24 C 29.394531 25.480469 29.128906 26.757813 29 28 Z" fill="#fdd835"/></svg>