<svg xmlns="http://www.w3.org/2000/svg" viewBox="0 0 48 48" width="50" height="50" fill="#666"><path d="M 11.699219 21.601563 L 16.800781 31.5 L 26.300781 27.601563 L 30.699219 14.898438 L 15.898438 15.699219 Z" fill="#e69329"/><path d="M 22.800781 36 C 22.800781 40.308594 19.308594 43.800781 15 43.800781 C 10.691406 43.800781 7.199219 40.308594 7.199219 36 C 7.199219 31.691406 10.691406 28.199219 15 28.199219 C 19.308594 28.199219 22.800781 31.691406 22.800781 36 Z" fill="#546e7a"/><path d="M 15 27 C 10 27 6 31 6 36 C 6 41 10 45 15 45 C 20 45 24 41 24 36 C 24 31 20 27 15 27 Z M 15 43 C 11.101563 43 8 39.898438 8 36 C 8 32.101563 11.101563 29 15 29 C 18.898438 29 22 32.101563 22 36 C 22 39.898438 18.898438 43 15 43 Z" fill="#90a4ae"/><path d="M 14 33 L 16 33 L 16 41 L 14 41 Z" fill="#90a4ae"/><path d="M 12.898438 36 C 13.898438 37.898438 16.101563 38.699219 18 37.699219 L 34.5 29.199219 C 35.5 28.699219 36.199219 28 36.699219 27.300781 C 38.398438 24.101563 42.300781 16.601563 44.898438 10.101563 L 26.699219 18.800781 L 21.898438 26 L 15.101563 29.601563 C 12.5 30.898438 11.699219 33.800781 12.898438 36 Z" fill="#ffb74d"/><path d="M 30.199219 3 L 13.699219 9.300781 C 13 9.5 12.199219 10.300781 11.5 11 L 5.898438 18.5 C 4.898438 20 4.699219 21.898438 5.398438 23.601563 C 5.800781 24.601563 7.101563 27 8.5 29.699219 C 10.101563 28 12.398438 27 15 27 C 15.398438 27 15.898438 27 16.300781 27.101563 L 14.199219 22.898438 L 18.800781 18.800781 L 26.800781 18.800781 C 26.800781 18.800781 42.300781 16.601563 45 10.101563 Z" fill="#ffb74d"/><path d="M 18.199219 36 C 16.898438 36.601563 15.398438 36 14.898438 34.699219 C 14.300781 33.398438 14.898438 31.898438 16.199219 31.398438 C 17.398438 30.800781 19.398438 35.398438 18.199219 36 Z" fill="#ffcdd2"/></svg>