<svg xmlns="http://www.w3.org/2000/svg" viewBox="0 0 48 48" width="50" height="50" fill="#666"><path d="M 11 34 L 37 34 L 37 43 L 11 43 Z" fill="#c5cae9"/><path d="M 15 24 L 33 24 L 33 33 L 15 33 Z" fill="#c5cae9"/><path d="M 33 22 L 15 22 C 15 18 19.03125 14 24 14 C 28.96875 14 33 18 33 22 Z" fill="#c5cae9"/><path d="M 22 9 L 26 9 L 26 14 L 22 14 Z" fill="#c5cae9"/><path d="M 13 35 L 15 35 L 15 42 L 13 42 Z" fill="#5c6bc0"/><path d="M 17 35 L 19 35 L 19 42 L 17 42 Z" fill="#5c6bc0"/><path d="M 21 35 L 23 35 L 23 42 L 21 42 Z" fill="#5c6bc0"/><path d="M 25 35 L 27 35 L 27 42 L 25 42 Z" fill="#5c6bc0"/><path d="M 29 35 L 31 35 L 31 42 L 29 42 Z" fill="#5c6bc0"/><path d="M 17 25 L 19 25 L 19 32 L 17 32 Z" fill="#5c6bc0"/><path d="M 21 25 L 23 25 L 23 32 L 21 32 Z" fill="#5c6bc0"/><path d="M 25 25 L 27 25 L 27 32 L 25 32 Z" fill="#5c6bc0"/><path d="M 29 25 L 31 25 L 31 32 L 29 32 Z" fill="#5c6bc0"/><path d="M 33 35 L 35 35 L 35 42 L 33 42 Z" fill="#5c6bc0"/><path d="M 38 33.5 C 38 34.328125 37.328125 35 36.5 35 L 11.5 35 C 10.671875 35 10 34.328125 10 33.5 C 10 32.671875 10.671875 32 11.5 32 L 36.5 32 C 37.328125 32 38 32.671875 38 33.5 Z" fill="#9fa8da"/><path d="M 38 43.5 C 38 44.328125 37.328125 45 36.5 45 L 11.5 45 C 10.671875 45 10 44.328125 10 43.5 C 10 42.671875 10.671875 42 11.5 42 L 36.5 42 C 37.328125 42 38 42.671875 38 43.5 Z" fill="#9fa8da"/><path d="M 35 23.5 C 35 24.328125 34.328125 25 33.5 25 L 14.5 25 C 13.671875 25 13 24.328125 13 23.5 C 13 22.671875 13.671875 22 14.5 22 L 33.5 22 C 34.328125 22 35 22.671875 35 23.5 Z" fill="#9fa8da"/><path d="M 27 14 C 27 14.550781 26.554688 15 26 15 L 22 15 C 21.445313 15 21 14.550781 21 14 C 21 13.449219 21.445313 13 22 13 L 26 13 C 26.554688 13 27 13.449219 27 14 Z" fill="#9fa8da"/><path d="M 26 9 L 22 9 C 22 7.898438 22.894531 7 24 7 C 25.105469 7 26 7.894531 26 9 Z" fill="#455a64"/><path d="M 25 8 C 25 8.550781 24.554688 9 24 9 C 23.445313 9 23 8.550781 23 8 L 23 4 C 23 3.449219 23.445313 3 24 3 C 24.554688 3 25 3.449219 25 4 Z" fill="#455a64"/></svg>