<svg xmlns="http://www.w3.org/2000/svg" viewBox="0 0 48 48" width="50" height="50" fill="#666"><path d="M 40 12 L 22 12 L 18 8 L 8 8 C 5.800781 8 4 9.800781 4 12 L 4 20 L 44 20 L 44 16 C 44 13.800781 42.199219 12 40 12 Z" fill="#ffa000"/><path d="M 40 12 L 8 12 C 5.800781 12 4 13.800781 4 16 L 4 36 C 4 38.199219 5.800781 40 8 40 L 40 40 C 42.199219 40 44 38.199219 44 36 L 44 16 C 44 13.800781 42.199219 12 40 12 Z" fill="#ffca28"/><path d="M 24 32.601563 L 18.5 26 L 29.5 26 Z" fill="#1565c0"/><path d="M 22 16 L 26 16 L 26 18 L 22 18 Z" fill="#1565c0"/><path d="M 22 19 L 26 19 L 26 21 L 22 21 Z" fill="#1565c0"/><path d="M 22 22 L 26 22 L 26 27.5 L 22 27.5 Z" fill="#1565c0"/><path d="M 15 34 L 33 34 L 33 36 L 15 36 Z" fill="#1565c0"/></svg>