<svg xmlns="http://www.w3.org/2000/svg" viewBox="0 0 48 48" width="50" height="50" fill="#666"><path d="M 24 4 C 16.300781 4 10 10.300781 10 18 C 10 25.699219 24 44 24 44 C 24 44 38 25.699219 38 18 C 38 10.300781 31.699219 4 24 4 Z" fill="#9c27b0"/><path d="M 21 18 C 21 16.300781 22.300781 15 24 15 C 25.699219 15 27 16.300781 27 18 C 27 19.699219 25.699219 21 24 21 C 22.300781 21 21 19.699219 21 18 Z M 28.898438 13.101563 C 31.601563 15.800781 31.601563 20.300781 28.898438 23 C 28.699219 23.199219 28.5 23.398438 28.300781 23.5 L 30.199219 25.800781 C 30.5 25.601563 30.800781 25.300781 31 25.101563 C 34.898438 21.199219 34.898438 14.898438 31 11 C 30.699219 10.699219 30.5 10.5 30.199219 10.300781 L 28.300781 12.601563 C 28.601563 12.699219 28.800781 12.898438 28.898438 13.101563 Z M 19.101563 22.898438 C 17.699219 21.601563 17 19.898438 17 18 C 17 16.101563 17.699219 14.398438 19.101563 13.101563 C 19.300781 12.898438 19.5 12.699219 19.699219 12.601563 L 17.800781 10.300781 C 17.5 10.5 17.199219 10.800781 17 11 C 13.101563 14.898438 13.101563 21.199219 17 25.101563 C 17.300781 25.398438 17.5 25.601563 17.800781 25.800781 L 19.699219 23.5 C 19.398438 23.300781 19.199219 23.101563 19.101563 22.898438 Z" fill="#f3e5f5"/></svg>