<svg xmlns="http://www.w3.org/2000/svg" viewBox="0 0 48 48" width="50" height="50" fill="#666"><path d="M 42 22.5 C 42 23.328125 41.328125 24 40.5 24 L 34.011719 24 C 33.410156 24 32.867188 23.644531 32.632813 23.089844 L 30.097656 18.144531 L 26.003906 25.40625 L 31.222656 31.414063 C 32.003906 32.019531 32.230469 33.105469 31.746094 33.972656 L 26.746094 42.972656 C 26.382813 43.628906 25.699219 44 24.996094 44 C 24.671875 44 24.335938 43.917969 24.027344 43.746094 C 23.0625 43.210938 22.714844 41.996094 23.253906 41.027344 L 27.414063 33.535156 L 21.746094 28.457031 L 17.707031 33.039063 C 17.347656 33.636719 16.699219 34 16 34 L 7 34 C 5.894531 34 5 33.105469 5 32 C 5 30.894531 5.894531 30 7 30 L 14.875 30 L 20.042969 21.835938 L 20 21.808594 L 24.292969 14.195313 L 20.285156 13 L 15.332031 16.746094 C 14.640625 17.207031 13.710938 17.023438 13.253906 16.332031 C 12.792969 15.644531 12.980469 14.710938 13.667969 14.253906 L 19 10.253906 C 19.246094 10.089844 19.535156 10 19.832031 10 L 26.21875 10.785156 L 26.230469 10.785156 C 26.5 10.785156 26.769531 10.859375 27 11 L 31.769531 13.714844 C 31.886719 13.78125 31.984375 13.867188 32.070313 13.964844 C 32.195313 14.097656 32.308594 14.242188 32.378906 14.410156 L 35 21 L 40.5 21 C 41.328125 21 42 21.671875 42 22.5 Z M 33 4 C 30.789063 4 29 5.789063 29 8 C 29 10.207031 30.789063 12 33 12 C 35.210938 12 37 10.207031 37 8 C 37 5.789063 35.210938 4 33 4" fill="#ffba57"/><path d="M 20.042969 21.835938 L 14.875 30 L 17.707031 33.039063 L 24.972656 24.796875 Z" fill="#2d4c5c"/><path d="M 31.769531 13.714844 L 27 11 C 26.769531 10.859375 26.5 10.785156 26.230469 10.785156 L 26.21875 10.785156 L 20 21.808594 L 26 25.410156 L 32.285156 14.265625 C 32.160156 14.042969 31.992188 13.847656 31.769531 13.714844 Z" fill="#00acc1"/><path d="M 26 25.414063 L 20 21.808594 L 21.011719 20.015625 L 19.496094 22.699219 C 18.523438 24.320313 19.023438 26.398438 20.589844 27.421875 L 27.414063 33.535156 L 31.21875 31.414063 L 26.003906 25.40625 Z" fill="#546e7a"/></svg>