<svg xmlns="http://www.w3.org/2000/svg" viewBox="0 0 48 48" width="50" height="50" fill="#666"><path d="M39,39c0,1.1-0.9,2-2,2H11c-1.1,0-2-0.9-2-2V20h30V39z" fill="#ff3d00"/><path d="M22,22h4v19h-4V22z" fill="#4caf50"/><path d="M31.5,16H19.7l2.3-2c0.5-0.7,3.8-7,8.5-7C35,7,36,10.2,36,11.5C36,13.3,34.8,16,31.5,16z M25.6,13 h5.9c1.4,0,1.5-1.1,1.5-1.5c0-0.4-0.3-1.5-2.5-1.5C28.9,10,27,11.5,25.6,13z" fill="#4caf50"/><path d="M28.3,16H16.5c-3.3,0-4.5-2.7-4.5-4.5c0-1.3,1-4.5,5.5-4.5c4.7,0,8,6.3,8.5,7L28.3,16z M17.5,10 c-2.4,0-2.5,1.3-2.5,1.5c0,0.7,0.3,1.5,1.5,1.5h5.9C21,11.5,19.1,10,17.5,10z" fill="#4caf50"/><path d="M26,14c0,1.1-0.9,2-2,2s-2-0.9-2-2s0.9-2,2-2S26,12.9,26,14z" fill="#2e7d32"/><path d="M41,22H7v-4c0-1.1,0.9-2,2-2h30c1.1,0,2,0.9,2,2V22z" fill="#dd2c00"/><path d="M31,31c0,3.9-3.1,7-7,7s-7-3.1-7-7s3.1-7,7-7S31,27.1,31,31z" fill="#dd2c00"/><path d="M22,16h4v6h-4V16z" fill="#388e3c"/><path fill="#fff" d="M23 27H25V35H23z"/><path transform="rotate(-60.066 23.964 31)" fill="#fff" d="M23 27H25V35H23z"/><path transform="rotate(-29.195 23.96 30.998)" fill="#fff" d="M20 30H28V32H20z"/></svg>