<svg xmlns="http://www.w3.org/2000/svg" viewBox="0 0 48 48" width="50" height="50" fill="#666"><path d="M44,23.211c0,11.044-8.956,20-20,20s-20-8.956-20-20s8.956-20,20-20S44,12.167,44,23.211z" fill="#7cb342"/><path d="M27.531,25.602c0.109,0.527-0.23,1.055-0.762,1.164l-3.852,0.801 c-0.527,0.113-1.051-0.227-1.164-0.762l-1.805-8.668c-0.109-0.527,0.234-1.051,0.762-1.16l3.852-0.805 c0.531-0.109,1.055,0.23,1.164,0.762L27.531,25.602z" fill="#dcedc8"/><path d="M25.043,12.348c0,1.734-1.402,3.141-3.137,3.141s-3.137-1.406-3.137-3.141 c0-1.73,1.402-3.137,3.137-3.137S25.043,10.617,25.043,12.348z" fill="#dcedc8"/><path d="M32.668,25.211c-0.422,0-0.832-0.199-1.094-0.57l-2.867-4.09l-4.18-1.605 c-0.688-0.262-1.035-1.031-0.77-1.723c0.262-0.688,0.805-1.195,1.492-0.934l4.789,1.914c0.25,0.094,0.465,0.266,0.617,0.48 l3.102,4.43c0.422,0.602,0.277,1.434-0.328,1.855C33.199,25.133,32.934,25.211,32.668,25.211z" fill="#dcedc8"/><path d="M15.375,27.84c-0.379,0-0.754-0.16-1.02-0.473c-0.477-0.563-0.406-1.402,0.156-1.879l3.32-2.813 l1.574-4.566c0.438-1.086,1.43-1.262,2.125-1.023c0.695,0.242,0.633,1.195,0.395,1.895l-1.691,4.91 c-0.078,0.227-0.215,0.43-0.398,0.582l-3.602,3.055C15.984,27.734,15.68,27.84,15.375,27.84z" fill="#dcedc8"/><path d="M31.285,37.211c-0.406,0-0.805-0.184-1.066-0.531l-2.961-3.938 c-0.082-0.105-0.145-0.227-0.191-0.355l-2.012-5.73c-0.242-0.695,0.121-1.457,0.816-1.699c0.691-0.246,1.453,0.121,1.699,0.816 l1.941,5.535l2.836,3.77c0.441,0.59,0.324,1.422-0.262,1.863C31.848,37.125,31.562,37.211,31.285,37.211z" fill="#dcedc8"/><path d="M19.961,37.211c-0.035,0-0.066,0-0.102-0.004c-0.734-0.055-1.285-0.695-1.23-1.43l0.43-5.754 c0.02-0.258,0.113-0.5,0.266-0.707l2.762-3.641c0.445-0.586,1.281-0.699,1.867-0.258c0.586,0.445,0.703,1.281,0.258,1.871 l-2.523,3.324l-0.398,5.363C21.234,36.68,20.648,37.211,19.961,37.211z" fill="#dcedc8"/></svg>