<svg xmlns="http://www.w3.org/2000/svg" viewBox="0 0 48 48" width="50" height="50" fill="#666"><path d="M44,24c0,11.045-8.955,20-20,20S4,35.045,4,24S12.955,4,24,4S44,12.955,44,24z" fill="#9c27b0"/><path d="M25,26.801h-4.5v9h-4V12.5h8.199c1.301,0,2.5,0.199,3.602,0.5c1,0.301,1.898,0.801,2.598,1.301	c0.703,0.598,1.301,1.301,1.602,2.199c0.301,0.898,0.602,1.898,0.602,3c0,1.602-0.402,2.898-1.102,3.898	c-0.801,1-1.801,1.902-3.102,2.402l5.203,9.699v0.199h-4.301L25,26.801z M20.5,23.602h4.199c0.699,0,1.402-0.102,1.902-0.301	s1-0.5,1.398-0.801s0.602-0.699,0.801-1.199s0.301-1,0.301-1.602c0-0.598-0.102-1.098-0.301-1.598S28.398,17.199,28,16.898	c-0.398-0.297-0.801-0.598-1.398-0.797c-0.5-0.203-1.203-0.301-2-0.301H20.5V23.602z" fill="#e1bee7"/></svg>