<svg xmlns="http://www.w3.org/2000/svg" viewBox="0 0 48 48" width="50" height="50" fill="#666"><path d="M37.7,16.4c-1.7,0-3.5-1.1-5.4-3.2c-0.8-0.9-1.5-1.8-2.2-2.7C27.4,7.3,25.5,5,22,5c-4,0-4,3.8-4,4 h-2c0-2.1,1.3-6,6-6c4.5,0,6.8,2.9,9.6,6.2c0.7,0.8,1.4,1.7,2.2,2.6c1.3,1.4,3.1,3,4.7,2.4C40,13.7,41,11,41,10h2 c0,1.4-1.1,5.1-3.9,6.1C38.7,16.3,38.2,16.4,37.7,16.4z" fill="#546e7a"/><path d="M5,30V20C5,8,16,8,16,8h2c0,0,10.8,0,11,12v10H5z" fill="#cfd8dc"/><path d="M5,24v10c0,12,11,12,11,12h2c0,0,10.8,0,11-12V24H5z" fill="#00838f"/><path d="M19,19c0,1.1-0.9,2-2,2s-2-0.9-2-2v-5c0-1.1,0.9-2,2-2s2,0.9,2,2V19z" fill="#37474f"/></svg>