<svg xmlns="http://www.w3.org/2000/svg" viewBox="0 0 48 48" width="50" height="50" fill="#666"><path d="M 41 45 L 9 45 L 9 3 L 31 3 L 41 13 Z" fill="#ba68c8"/><path d="M 39.5 14 L 30 14 L 30 4.5 Z" fill="#f3e5f5"/><path d="M 21.246094 24.722656 L 18.785156 24.722656 L 18.785156 33 L 16.769531 33 L 16.769531 24.722656 L 14.347656 24.722656 L 14.347656 23.046875 L 21.246094 23.046875 Z" fill="#4a148c"/><path d="M 25.519531 26.464844 L 26.859375 23.046875 L 29.164063 23.046875 L 26.824219 27.984375 L 29.21875 33 L 26.886719 33 L 25.519531 29.519531 L 24.15625 33 L 21.828125 33 L 24.21875 27.980469 L 21.875 23.046875 L 24.179688 23.046875 Z" fill="#4a148c"/><path d="M 36.683594 24.722656 L 34.222656 24.722656 L 34.222656 33 L 32.203125 33 L 32.203125 24.722656 L 29.785156 24.722656 L 29.785156 23.046875 L 36.679688 23.046875 L 36.679688 24.722656 Z" fill="#4a148c"/></svg>