<svg xmlns="http://www.w3.org/2000/svg" viewBox="0 0 48 48" width="50" height="50" fill="#666"><path d="M44,24c0,11.047-8.953,20-20,20S4,35.047,4,24S12.953,4,24,4S44,12.953,44,24" fill="#7cb342"/><path d="M9.924,9.793C13.54,6.214,18.512,4,24,4v20L9.924,9.793z" fill="#dcedc8"/><path d="M40,24c0,8.836-7.164,16-16,16S8,32.836,8,24S15.164,8,24,8S40,15.164,40,24" fill="#fff"/><path d="M22.08,24.562c0.312,1.057,1.424,1.666,2.481,1.354c1.057-0.312,1.666-1.42,1.354-2.478	c-0.312-1.061-1.42-1.666-2.478-1.358C22.377,22.393,21.772,23.501,22.08,24.562"/><path d="M9.924,9.793l15.236,12.582l-2.749,2.838L9.924,9.793z"/><path d="M23,23.996c0,0.555,0.449,1,1,1s1-0.445,1-1c0-0.551-0.449-1-1-1S23,23.445,23,23.996" fill="#8bc34a"/><path d="M19.214,4.6C19.079,5.044,19,5.511,19,6c0,2.76,2.24,5,5,5s5-2.24,5-5c0-0.489-0.079-0.956-0.214-1.4	C27.25,4.222,25.653,4,24,4S20.75,4.222,19.214,4.6z" fill="#dcedc8"/><path d="M27,6c0,1.656-1.344,3-3,3s-3-1.344-3-3s1.344-3,3-3S27,4.344,27,6z" fill="#33691e"/></svg>