<svg xmlns="http://www.w3.org/2000/svg" viewBox="0 0 48 48" width="50" height="50" fill="#666"><path d="M24,24c-0.1,0-0.2,0-0.3-0.1C19.9,22.7,21,17,21,16.8c0.1-0.5,0.6-0.9,1.2-0.8 c0.5,0.1,0.9,0.6,0.8,1.2c0,0-0.8,4.2,1.3,4.9c0.5,0.2,0.8,0.7,0.6,1.3C24.8,23.7,24.4,24,24,24z" fill="#37474f"/><path d="M42,10l-1-1h-2v1H42z" fill="#455a64"/><path d="M12,10l-1-1H9v1H12z" fill="#455a64"/><path d="M20,10h7v3h-7V10z" fill="#455a64"/><path d="M41,19H11.1v-5H42v4C42,18.6,41.6,19,41,19" fill="#455a64"/><path d="M28,24.6c0.2-1.4,1.1-4.1,1.7-5.6c1.9,0,3.3,0,3.3,0v-5H6v4c1.3,0,3,2,3,4s-5,8-5,15c0,0,0,2,3,2 c2.6,0,5,0,5,0c2,0,2.8-0.7,3.2-2.1l2.2-8.7c0.2-0.7,0.8-1.3,1.6-1.3h9c0.4,0,0.8-0.2,0.9-0.6c0.2-0.4,0.1-0.8-0.2-1.1L28,24.6z M21,25c0,0-2,0-2-2v-1c0,0,0-3,3-3c0.7,0,1.3,0,3,0c1.5,0,1.9,1.1,2,1.7c-0.5,1.5-1,3.2-1,4.3H21z" fill="#455a64"/><path d="M27,10v2c0,0,0,1-1,1c0,0-4,0-5,0c-1,0-1-1-1-1v-2c0,0-12,0-13,0s-1,1-1,1v5h36v2l1,0 c0.6,0,1-0.4,1-1v-7H27z" fill="#90a4ae"/><path d="M18,25c0,0.6-0.4,1-1,1s-1-0.4-1-1s0.4-1,1-1S18,24.4,18,25z" fill="#90a4ae"/><path d="M6,14h36v2H6V14z" fill="#78909c"/><path d="M15,25c0-1.1,0.9-2,2-2v-1c0-1.3,0.5-2.9,1.9-4H9.6c0.9,1.1,1.4,2.5,1.4,4c0,1.2-0.7,2.4-1.7,4.1 C7.9,28.6,6,33,6,36c0,0,0,1,1,1h5c0.9,0,0.9-0.7,1-1l2.5-8.3c0.1-0.4,0.3-0.7,0.5-1C15.4,26.3,15,25.7,15,25z" fill="#263238"/></svg>