<svg xmlns="http://www.w3.org/2000/svg" viewBox="0 0 48 48" width="50" height="50" fill="#666"><g fill="#2196f3"><path d="M 42 13 L 33 5 L 33 21 Z"/><path d="M 34 16 C 34 16 16 15.996094 15 16 C 14 16 14 16.996094 14 16.996094 L 14 21 L 8 21 L 8 16 C 8 12.691406 10.691406 10 14 10 L 34 10 Z"/><path d="M 6 35 L 15 43 L 15 27 Z"/><path d="M 14 32.003906 C 14 32.003906 32 32.003906 33 32.003906 C 34 32 34 31.003906 34 31.003906 L 34 27 L 40 27 L 40 32.003906 C 40 35.308594 37.308594 38 34 38 L 14 38 Z"/></g></svg>