<svg xmlns="http://www.w3.org/2000/svg" viewBox="0 0 48 48" width="50" height="50" fill="#666"><path d="M32.2,18.3c-0.1-1.7-1.8-7.5-7.3-10.8c-1.1-0.7-2.4-1-3.6-1.3c1.5,2,2.2,3.8,2.1,5.6 c0,0.9-0.6,1.9-1,2.5C22,15,19.6,16,19.6,19.4c0,2.7,2.4,4.7,5.1,4.6c0.7,0,1.3-0.2,1.8-0.5c0.1,0,0.4,0.5,0.5,0.5 C30,23.9,32.4,21.2,32.2,18.3z" fill="#5d4037"/><path d="M29.4,33c-11.2,0-15.8-5.5-16.3-6.1l7.9-6.2c0,0,0-0.1-0.1-0.2c0.1,0.1,2.9,3,10.8,2.4 c2.7-0.2,5.2,1.8,5.4,4.6c0.2,2.8-1.8,5.2-4.6,5.4C31.4,33,30.3,33,29.4,33z" fill="#795548"/><path d="M25.1,41.7c-10.6,0-17-5.6-17.4-6c-2.1-1.8-2.2-5-0.4-7.1c1.8-2,5-2.2,7-0.4 c0.4,0.3,8.1,6.7,20.7,1.2c2.5-1.1,5.5,0,6.6,2.6c1.1,2.5,0,5.5-2.6,6.6C33.8,40.9,29.1,41.7,25.1,41.7z" fill="#8d6e63"/></svg>