<svg xmlns="http://www.w3.org/2000/svg" viewBox="0 0 48 48" width="50" height="50" fill="#666"><path d="M 45 34 L 45 18 C 45 13.582031 41.417969 10 37 10 L 16 10 C 11.582031 10 8 13.582031 8 18 L 8 34 Z" fill="#2196f3"/><path d="M 38 17 L 42 17 L 42 23 L 38 23 Z" fill="#ff3d00"/><path d="M 30 17 L 40 17 L 40 19 L 30 19 Z" fill="#ff3d00"/><path d="M 31 18 C 31 19.105469 30.105469 20 29 20 C 27.894531 20 27 19.105469 27 18 C 27 16.894531 27.894531 16 29 16 C 30.105469 16 31 16.894531 31 18 Z" fill="#ff3d00"/><path d="M 30 18 C 30 18.550781 29.550781 19 29 19 C 28.449219 19 28 18.550781 28 18 C 28 17.449219 28.449219 17 29 17 C 29.550781 17 30 17.449219 30 18 Z" fill="#dd2c00"/><path d="M 25 34 L 30 34 L 30 44 L 25 44 Z" fill="#ffcc80"/><path d="M 25 34 L 30 34 L 30 36 L 25 36 Z" fill="#ffa726"/><path d="M 16 10 C 11.589844 10 8 13.589844 8 18 L 8 34 L 24 34 L 24 18 C 24 13.589844 20.410156 10 16 10 Z" fill="#1976d2"/><path d="M 16 12 C 12.691406 12 10 14.691406 10 18 L 10 32 L 22 32 L 22 18 C 22 14.691406 19.308594 12 16 12 Z" fill="#64b5f6"/><path d="M 20 20 C 20 20.550781 19.550781 21 19 21 L 13 21 C 12.449219 21 12 20.550781 12 20 C 12 19.449219 12.449219 19 13 19 L 19 19 C 19.550781 19 20 19.449219 20 20 Z" fill="#0d47a1"/></svg>