<svg xmlns="http://www.w3.org/2000/svg" viewBox="0 0 48 48" width="50" height="50" fill="#666"><path d="M39.996,7l-4.011,31.875l-0.008,0.062V39v2c0,0.551-0.449,1-1,1H13c-0.551,0-1-0.449-1-1v-2v-0.062 l-0.008-0.061L8.032,7.005h31.958L39.996,7" fill="#e3f2fd"/><path d="M38.862,8.005L34.993,38.75l-0.016,0.124V39v2H13v-2v-0.124l-0.015-0.123L9.16,8.005H38.862 M39.991,6.005H8.032c-0.618,0-1.09,0.53-0.998,1.12L11,39v2c0,1.105,0.895,2,2,2h21.977c1.105,0,2-0.895,2-2v-2l4.011-31.875 C41.081,6.536,40.608,6.005,39.991,6.005L39.991,6.005z" fill="#bbdefb"/><path d="M41.837,7.15l0.152-1C42.08,5.545,41.612,5,41,5H7C6.388,5,5.92,5.545,6.011,6.15l0.152,1 C6.237,7.639,6.657,8,7.152,8h33.697C41.343,8,41.763,7.639,41.837,7.15z" fill="#78909c"/><path d="M34.977,43H13c-1.105,0-2-0.895-2-2v-2h25.977v2C36.977,42.105,36.082,43,34.977,43z" fill="#78909c"/><path fill="#1e88e5" d="M24.74 29L26.49 32 26.49 26z"/><path d="M30.238,29.381l1.555-3.151c0.312-0.633,0.268-1.384-0.117-1.975L30.354,22L27,24.18L30.238,29.381z" fill="#1565c0"/><path d="M26.24,31l2.564-0.018c0.389,0.019,0.754-0.189,0.936-0.535l2.015-4.137c0,0-0.547,0.697-2.118,0.697 L26.115,27L26.24,31z" fill="#1e88e5"/><path fill="#1e88e5" d="M20 22.5L16.375 22.5 21.5 25.75z"/><path d="M16.75,27l1.788,3.002c0.36,0.607,1.006,0.997,1.712,0.998H23v-4H16.75z" fill="#1565c0"/><path d="M17.45,22.745l-1.26,2.158c-0.229,0.316-0.253,0.735-0.063,1.076l2.365,3.947 c0,0-0.285-0.839,0.573-2.155l1.804-2.946L17.45,22.745z" fill="#1e88e5"/><path fill="#1e88e5" d="M28 21.736L29.25 18.736 24 21.736z"/><path d="M25.313,17H21.8c-0.706,0-1.359,0.388-1.719,0.995l-1.395,2.354l3.441,2.04L25.313,17z" fill="#1565c0"/><path d="M27.394,17.588C27.219,17.24,26.89,17.009,26.5,17h-4.625c0,0,0.929,0.078,1.625,1.486l1.484,2.931 l3.53-1.885C28.515,19.532,27.646,18.089,27.394,17.588z" fill="#1e88e5"/></svg>