<svg xmlns="http://www.w3.org/2000/svg" viewBox="0 0 48 48" width="50" height="50" fill="#666"><path d="M 44 18.101563 L 44 14.101563 L 34 14.101563 L 34 4.101563 L 30 4.101563 L 30 14.101563 L 26 14.101563 L 26 4.101563 L 22 4.101563 L 22 14.101563 L 18 14.101563 L 18 4.101563 L 14 4.101563 L 14 14.101563 L 4 14.101563 L 4 18.101563 L 14 18.101563 L 14 22.101563 L 4 22.101563 L 4 26.101563 L 14 26.101563 L 14 30.101563 L 4 30.101563 L 4 34.101563 L 14 34.101563 L 14 44.101563 L 18 44.101563 L 18 34.101563 L 22 34.101563 L 22 44.101563 L 26 44.101563 L 26 34.101563 L 30 34.101563 L 30 44.101563 L 34 44.101563 L 34 34.101563 L 44 34.101563 L 44 30.101563 L 34 30.101563 L 34 26.101563 L 44 26.101563 L 44 22.101563 L 34 22.101563 L 34 18.101563 Z" fill="#ff9800"/><path d="M 8 12.101563 L 8 36.101563 C 8 38.300781 9.800781 40.101563 12 40.101563 L 36 40.101563 C 38.199219 40.101563 40 38.300781 40 36.101563 L 40 12.101563 C 40 9.898438 38.199219 8.101563 36 8.101563 L 12 8.101563 C 9.800781 8.101563 8 9.898438 8 12.101563 Z" fill="#607d8b"/><path d="M 17 15.101563 C 17 16.203125 16.105469 17.101563 15 17.101563 C 13.894531 17.101563 13 16.203125 13 15.101563 C 13 13.996094 13.894531 13.101563 15 13.101563 C 16.105469 13.101563 17 13.996094 17 15.101563 Z" fill="#455a64"/><path d="M 35 33.101563 C 35 34.203125 34.105469 35.101563 33 35.101563 C 31.894531 35.101563 31 34.203125 31 33.101563 C 31 31.996094 31.894531 31.101563 33 31.101563 C 34.105469 31.101563 35 31.996094 35 33.101563 Z" fill="#455a64"/></svg>