<svg xmlns="http://www.w3.org/2000/svg" viewBox="0 0 48 48" width="50" height="50" fill="#666"><path d="M 34 44 L 14 44 C 12.898438 44 12 43.101563 12 42 L 12 8 C 12 6.898438 12.898438 6 14 6 L 34 6 C 35.101563 6 36 6.898438 36 8 L 36 42 C 36 43.101563 35.101563 44 34 44 Z" fill="#8bc34a"/><path d="M 28 13 L 20 13 C 19.398438 13 19 12.601563 19 12 L 19 5 C 19 4.398438 19.398438 4 20 4 L 28 4 C 28.601563 4 29 4.398438 29 5 L 29 12 C 29 12.601563 28.601563 13 28 13 Z" fill="#8bc34a"/><path d="M 30 24 L 24.5 24 L 26.699219 13 L 18 26 L 23.5 26 L 21.300781 37 Z" fill="#ffeb3b"/></svg>