<svg xmlns="http://www.w3.org/2000/svg" viewBox="0 0 48 48" width="50" height="50" fill="#666"><path d="M 17.800781 18.101563 L 10.398438 25.398438 L 6.199219 21.300781 L 4 23.5 L 10.398438 29.898438 L 20 20.300781 Z" fill="#3f51b5"/><path d="M 17.800781 5.101563 L 10.398438 12.398438 L 6.199219 8.300781 L 4 10.5 L 10.398438 16.898438 L 20 7.300781 Z" fill="#3f51b5"/><path d="M 17.800781 31.101563 L 10.398438 38.398438 L 6.199219 34.300781 L 4 36.5 L 10.398438 42.898438 L 20 33.300781 Z" fill="#3f51b5"/><path d="M 24 22 L 44 22 L 44 26 L 24 26 Z" fill="#90caf9"/><path d="M 24 9 L 44 9 L 44 13 L 24 13 Z" fill="#90caf9"/><path d="M 24 35 L 44 35 L 44 39 L 24 39 Z" fill="#90caf9"/></svg>