<svg xmlns="http://www.w3.org/2000/svg" viewBox="0 0 48 48" width="50" height="50" fill="#666"><path d="M11,17c2.2,0,4,1.8,4,4s-1.8,4-4,4s-4-1.8-4-4S8.8,17,11,17" fill="#ffb74d"/><path d="M24.5,44c-0.3,0-0.5,0-0.8-0.1c-1.3-0.4-2-1.8-1.6-3.1l5.5-18.5c0.4-1.3,1.8-2,3.1-1.6 c1.3,0.4,2,1.8,1.6,3.1l-5.5,18.5C26.6,43.3,25.6,44,24.5,44z" fill="#f8a72a"/><path d="M15,39c-0.2,0-0.3,0-0.5-0.1c-1.1-0.3-1.7-1.4-1.4-2.4L18,17.7V6c0-1.1,0.9-2,2-2s2,0.9,2,2v12 c0,0.2,0,0.3-0.1,0.5l-5,19C16.7,38.4,15.9,39,15,39z" fill="#ffb74d"/><path d="M37.5,44c-1.1,0-2.1-0.8-2.4-1.9l-5.5-19.5c-0.3-1.3,0-4.6,1.4-4.6c1.8,0,3.7,2.7,4,4L40,40.9 c0.3,1.3-0.5,2.7-1.8,3C37.9,44,37.7,44,37.5,44z" fill="#ffb74d"/><path d="M31,18H18l-1.6,6.1L20,26h10.6c0-3.8,1.6-4,4.4-4C35,19.8,33.2,18,31,18z" fill="#ff66a1"/><path d="M30.8,24H20.5L20,26h10.5l0.1-0.1C30.6,25.1,30.7,24.5,30.8,24z" fill="#ec407a"/></svg>