<svg xmlns="http://www.w3.org/2000/svg" viewBox="0 0 50 50" width="50" height="50" fill="#666"><path d="M 22 3.59375 L 20.40625 4.8125 L 1.40625 19.1875 L 0.34375 20 L 1.40625 20.8125 L 20.40625 35.1875 L 22 36.40625 L 22 26.09375 C 34.339844 26.347656 40.796875 30.738281 44.1875 35.125 C 47.679688 39.644531 48 44.0625 48 44.0625 L 50 44.03125 C 50 44.03125 50 43.9375 50 43.9375 C 50 43.9375 50 43.90625 50 43.90625 C 50.007813 43.710938 50.226563 36.460938 46.78125 29.0625 C 43.375 21.742188 36.136719 14.414063 22 14.0625 Z M 20 7.625 L 20 16 L 21 16 C 35.167969 16 41.710938 22.9375 44.96875 29.9375 C 45.914063 31.96875 46.519531 33.917969 46.96875 35.78125 C 46.582031 35.144531 46.28125 34.519531 45.78125 33.875 C 41.929688 28.894531 34.550781 24 21 24 L 20 24 L 20 32.375 L 3.65625 20 Z"/></svg>