<svg xmlns="http://www.w3.org/2000/svg" viewBox="0 0 50 50" width="50" height="50" fill="#666"><path d="M 3 5 C 1.355469 5 0 6.355469 0 8 L 0 37 C 0 38.644531 1.355469 40 3 40 L 20.40625 40 L 19.875 43.375 C 19.726563 44.3125 18.949219 45 18 45 L 17 45 C 16.96875 45 16.9375 45 16.90625 45 C 16.355469 45.027344 15.925781 45.496094 15.953125 46.046875 C 15.980469 46.597656 16.449219 47.027344 17 47 L 33 47 C 33.359375 47.003906 33.695313 46.816406 33.878906 46.503906 C 34.058594 46.191406 34.058594 45.808594 33.878906 45.496094 C 33.695313 45.183594 33.359375 44.996094 33 45 L 32 45 C 31.050781 45 30.273438 44.3125 30.125 43.375 L 29.59375 40 L 47 40 C 48.644531 40 50 38.644531 50 37 L 50 8 C 50 6.355469 48.644531 5 47 5 Z M 3 7 L 47 7 C 47.566406 7 48 7.433594 48 8 L 48 32 L 2 32 L 2 8 C 2 7.433594 2.433594 7 3 7 Z M 2 34 L 48 34 L 48 37 C 48 37.566406 47.566406 38 47 38 L 3 38 C 2.433594 38 2 37.566406 2 37 Z M 25 34.90625 C 24.398438 34.90625 23.90625 35.398438 23.90625 36 C 23.90625 36.601563 24.398438 37.09375 25 37.09375 C 25.601563 37.09375 26.09375 36.601563 26.09375 36 C 26.09375 35.398438 25.601563 34.90625 25 34.90625 Z M 22.46875 40 L 27.53125 40 L 28.125 43.6875 C 28.199219 44.160156 28.367188 44.601563 28.59375 45 L 21.40625 45 C 21.632813 44.601563 21.800781 44.160156 21.875 43.6875 Z"/></svg>