<svg xmlns="http://www.w3.org/2000/svg" viewBox="0 0 50 50" width="50" height="50" fill="#666"><path d="M 7 2 L 7 48 L 43 48 L 43 15.410156 L 29.183594 2 Z M 9 4 L 28 4 L 28 17 L 41 17 L 41 46 L 9 46 Z M 30 5.578125 L 39.707031 15 L 30 15 Z M 20.234375 23.710938 C 18.265625 23.710938 16.152344 25.195313 16.152344 29.003906 C 16.152344 31.871094 17.382813 34 19.964844 34 C 20.652344 34 21.207031 33.894531 21.492188 33.761719 L 21.296875 32.109375 C 21.058594 32.183594 20.679688 32.261719 20.351563 32.261719 C 19.152344 32.261719 18.234375 31.316406 18.234375 28.902344 C 18.234375 26.394531 19.242188 25.4375 20.351563 25.4375 C 20.785156 25.4375 21.042969 25.527344 21.265625 25.628906 L 21.597656 23.980469 C 21.402344 23.84375 20.921875 23.710938 20.234375 23.710938 Z M 25.375 23.710938 C 23.261719 23.710938 22.183594 25.058594 22.183594 26.679688 C 22.183594 27.59375 22.707031 28.660156 24.085938 29.5 C 24.941406 30.054688 25.390625 30.414063 25.390625 31.152344 C 25.390625 31.808594 24.941406 32.289063 24.011719 32.289063 C 23.441406 32.289063 22.75 32.125 22.347656 31.902344 L 22.0625 33.59375 C 22.394531 33.789063 23.1875 34 23.996094 34 C 25.976563 34 27.34375 32.785156 27.34375 30.9375 C 27.34375 29.875 26.847656 28.855469 25.515625 28.046875 C 24.417969 27.386719 24.117188 27.070313 24.117188 26.46875 C 24.117188 25.929688 24.519531 25.421875 25.359375 25.421875 C 25.929688 25.421875 26.367188 25.585938 26.652344 25.765625 L 26.96875 24.070313 C 26.667969 23.890625 26.035156 23.710938 25.375 23.710938 Z M 27.628906 23.800781 L 29.890625 33.90625 L 32.09375 33.90625 L 34.40625 23.800781 L 32.246094 23.800781 L 31.558594 28.121094 C 31.375 29.257813 31.210938 30.476563 31.078125 31.675781 L 31.046875 31.675781 C 30.914063 30.492188 30.703125 29.242188 30.523438 28.164063 L 29.800781 23.800781 Z"/></svg>