<svg xmlns="http://www.w3.org/2000/svg" viewBox="0 0 50 50" width="50" height="50" fill="#666"><path d="M 7 2 L 7 48 L 43 48 L 43 15.410156 L 29.183594 2 Z M 9 4 L 28 4 L 28 17 L 41 17 L 41 46 L 9 46 Z M 30 5.578125 L 39.707031 15 L 30 15 Z M 26.40625 23.253906 C 24.289063 23.253906 23.25 25.445313 23.25 27.984375 C 23.25 30.539063 24.105469 32.769531 26.277344 32.769531 C 28.09375 32.769531 29.375 31.351563 29.375 27.847656 C 29.375 25.722656 28.722656 23.253906 26.40625 23.253906 Z M 15.011719 23.363281 L 14.3125 32.660156 L 15.921875 32.660156 L 16.078125 29.433594 C 16.132813 28.507813 16.191406 27.335938 16.21875 26.328125 L 16.261719 26.328125 C 16.402344 27.335938 16.660156 28.492188 16.84375 29.238281 L 17.640625 32.507813 L 18.957031 32.507813 L 19.78125 29.183594 C 19.96875 28.464844 20.222656 27.320313 20.394531 26.328125 L 20.4375 26.328125 C 20.40625 27.320313 20.480469 28.519531 20.519531 29.40625 L 20.691406 32.660156 L 22.355469 32.660156 L 21.769531 23.363281 L 19.8125 23.363281 L 19.058594 26.730469 C 18.800781 27.902344 18.589844 28.949219 18.449219 29.984375 L 18.421875 29.984375 C 18.25 28.933594 18.007813 27.902344 17.738281 26.730469 L 16.96875 23.363281 Z M 29.746094 23.363281 L 31.890625 32.660156 L 33.980469 32.660156 L 36.167969 23.363281 L 34.121094 23.363281 L 33.46875 27.339844 C 33.296875 28.386719 33.140625 29.5 33.015625 30.605469 L 32.984375 30.605469 C 32.855469 29.515625 32.660156 28.371094 32.488281 27.378906 L 31.808594 23.363281 Z M 26.335938 24.824219 C 27.175781 24.824219 27.429688 26.300781 27.429688 27.929688 C 27.429688 29.820313 27.128906 31.199219 26.347656 31.199219 C 25.597656 31.199219 25.183594 30.121094 25.183594 28.011719 C 25.183594 26.011719 25.597656 24.824219 26.335938 24.824219 Z"/></svg>