<svg xmlns="http://www.w3.org/2000/svg" viewBox="0 0 50 50" width="50" height="50" fill="#666"><path style="line-height:normal;text-indent:0;text-align:start;text-decoration-line:none;text-decoration-style:solid;text-decoration-color:#000;text-transform:none;block-progression:tb;isolation:auto;mix-blend-mode:normal" d="M 9 4 C 6.2545455 4 4 6.2545455 4 9 L 4 41 C 4 43.745455 6.2545455 46 9 46 L 41 46 C 43.745455 46 46 43.745455 46 41 L 46 9 C 46 6.2545455 43.745455 4 41 4 L 9 4 z M 9 6 L 41 6 C 42.654545 6 44 7.3454545 44 9 L 44 41 C 44 42.654545 42.654545 44 41 44 L 9 44 C 7.3454545 44 6 42.654545 6 41 L 6 9 C 6 7.3454545 7.3454545 6 9 6 z M 24 13 L 24 24 L 13 24 L 13 26 L 24 26 L 24 37 L 26 37 L 26 26 L 37 26 L 37 24 L 26 24 L 26 13 L 24 13 z"/></svg>