<svg xmlns="http://www.w3.org/2000/svg" viewBox="0 0 50 50" width="50" height="50" fill="#666"><path d="M 33 0 C 31.90625 0 31 0.90625 31 2 L 31 5 C 31 5.945313 31.671875 6.769531 32.5625 6.96875 C 32.027344 7.828125 31.507813 8.902344 31 10.125 C 29.886719 12.800781 28.863281 16.078125 28.34375 18.75 C 28.238281 19.292969 28.597656 19.816406 29.140625 19.921875 C 29.683594 20.027344 30.207031 19.667969 30.3125 19.125 C 30.796875 16.632813 31.792969 13.40625 32.84375 10.875 C 33.371094 9.609375 33.902344 8.527344 34.375 7.8125 C 34.609375 7.453125 34.828125 7.1875 34.96875 7.0625 C 35.023438 7.015625 35.019531 7.003906 35.03125 7 L 42.84375 7 C 42.871094 7.015625 42.953125 7.066406 43.0625 7.1875 C 43.28125 7.429688 43.566406 7.882813 43.875 8.4375 C 44.492188 9.546875 45.164063 11.105469 45.78125 12.8125 C 47.015625 16.226563 48 20.269531 48 21.8125 L 48 44 C 48 45.667969 46.667969 47 45 47 L 33 47 C 32.246094 47 31.558594 46.734375 31.03125 46.28125 C 30.777344 45.976563 30.363281 45.851563 29.984375 45.964844 C 29.601563 46.074219 29.324219 46.402344 29.273438 46.796875 C 29.222656 47.191406 29.410156 47.578125 29.75 47.78125 C 30.625 48.535156 31.757813 49 33 49 L 45 49 C 47.75 49 50 46.75 50 44 L 50 21.8125 C 50 19.558594 48.941406 15.703125 47.65625 12.15625 C 47.015625 10.382813 46.328125 8.703125 45.625 7.4375 C 45.53125 7.269531 45.4375 7.125 45.34375 6.96875 C 46.277344 6.804688 47 5.976563 47 5 L 47 2 C 47 0.90625 46.09375 0 45 0 Z M 33 2 L 45 2 L 45 5 L 33 5 Z M 19.21875 14.96875 C 18.683594 14.957031 18.21875 15.03125 18.21875 15.03125 C 18.21875 15.03125 16.808594 17.328125 16.65625 20 C 14.101563 16.109375 10.886719 19.464844 9.6875 16.375 C 9.6875 21.304688 13.59375 20.378906 15.03125 21 C 10.644531 21 12.191406 24.773438 8.6875 24.875 C 11.804688 26.253906 14.597656 25.972656 16.65625 21.96875 C 15.703125 24.753906 15.011719 27.003906 18.90625 29.34375 C 19.933594 27.507813 19.4375 24.171875 18.40625 21.5 C 20.273438 24.589844 22.855469 26.710938 26.25 24.5625 C 23.527344 23.851563 24.746094 21.855469 19.9375 21.09375 C 23.027344 21.515625 25.136719 21.953125 26 18.6875 C 23.511719 19.632813 22.519531 15.890625 18.4375 20.125 C 18.421875 20.132813 18.460938 17.445313 20.71875 15.4375 C 20.375 15.101563 19.753906 14.980469 19.21875 14.96875 Z M 8.375 20.5625 C 8.289063 20.582031 8.203125 20.613281 8.125 20.65625 C 2.3125 22.824219 0 28.105469 0 33.84375 C 0 42.367188 7.613281 50 17 50 C 21.136719 50 25.363281 48.597656 28.59375 45.65625 C 31.824219 42.714844 34 38.222656 34 32.25 C 34 29.941406 33.605469 27.601563 32.5625 25.59375 C 31.519531 23.585938 29.785156 21.917969 27.28125 21.0625 C 26.753906 20.882813 26.179688 21.160156 26 21.6875 C 25.820313 22.214844 26.097656 22.789063 26.625 22.96875 C 28.660156 23.664063 29.9375 24.90625 30.78125 26.53125 C 31.625 28.15625 32 30.167969 32 32.25 C 32 37.746094 30.0625 41.621094 27.25 44.1875 C 24.4375 46.753906 20.6875 48 17 48 C 8.707031 48 2 41.164063 2 33.84375 C 2 28.609375 3.8125 24.363281 8.8125 22.5 C 9.289063 22.332031 9.566406 21.832031 9.453125 21.335938 C 9.34375 20.84375 8.878906 20.511719 8.375 20.5625 Z"/></svg>