<svg xmlns="http://www.w3.org/2000/svg" viewBox="0 0 50 50" width="50" height="50" fill="#666"><path d="M 46 4 L 4 4 C 4 4 3.898438 4 3.898438 4 C 3.898438 4 3.800781 4 3.800781 4 C 3.300781 4.101563 3 4.5 3 5 L 3 45 C 3 45.601563 3.398438 46 4 46 L 46 46 C 46.601563 46 47 45.601563 47 45 L 47 5 C 47 4.398438 46.601563 4 46 4 Z M 5 26 L 17 26 L 17 34 L 5 34 Z M 24 24 L 12 24 L 12 16 L 24 16 Z M 19 26 L 31 26 L 31 34 L 19 34 Z M 26 24 L 26 16 L 38 16 L 38 24 Z M 45 24 L 40 24 L 40 16 L 45 16 Z M 33 6 L 45 6 L 45 14 L 33 14 Z M 19 6 L 31 6 L 31 14 L 19 14 Z M 5 6 L 17 6 L 17 14 L 5 14 Z M 5 16 L 10 16 L 10 24 L 5 24 Z M 10 44 L 5 44 L 5 36 L 10 36 Z M 24 44 L 12 44 L 12 36 L 24 36 Z M 38 44 L 26 44 L 26 36 L 38 36 Z M 45 44 L 40 44 L 40 36 L 45 36 Z M 45 34 L 33 34 L 33 26 L 45 26 Z"/></svg>