<svg xmlns="http://www.w3.org/2000/svg" viewBox="0 0 50 50" width="50" height="50" fill="#666"><path d="M 3 6 C 1.355469 6 0 7.355469 0 9 L 0 41 C 0 42.644531 1.355469 44 3 44 L 45 44 C 46.644531 44 48 42.644531 48 41 L 48 24 C 48.003906 23.640625 47.816406 23.304688 47.503906 23.121094 C 47.191406 22.941406 46.808594 22.941406 46.496094 23.121094 C 46.183594 23.304688 45.996094 23.640625 46 24 L 46 41 C 46 41.566406 45.566406 42 45 42 L 3 42 C 2.433594 42 2 41.566406 2 41 L 2 9 C 2 8.433594 2.433594 8 3 8 L 14.1875 8 C 14.453125 8 14.6875 8.09375 14.875 8.28125 L 17.28125 10.71875 C 17.472656 10.90625 17.734375 11.007813 18 11 L 33 11 C 33.359375 11.003906 33.695313 10.816406 33.878906 10.503906 C 34.058594 10.191406 34.058594 9.808594 33.878906 9.496094 C 33.695313 9.183594 33.359375 8.996094 33 9 L 18.4375 9 L 16.28125 6.875 C 15.71875 6.3125 14.984375 6 14.1875 6 Z M 36.90625 6.96875 C 36.863281 6.976563 36.820313 6.988281 36.78125 7 C 36.316406 7.105469 35.988281 7.523438 36 8 C 36 15.167969 41.832031 21 49 21 C 49.359375 21.003906 49.695313 20.816406 49.878906 20.503906 C 50.058594 20.191406 50.058594 19.808594 49.878906 19.496094 C 49.695313 19.183594 49.359375 18.996094 49 19 C 42.914063 19 38 14.085938 38 8 C 38.011719 7.710938 37.894531 7.433594 37.6875 7.238281 C 37.476563 7.039063 37.191406 6.941406 36.90625 6.96875 Z M 40.90625 6.96875 C 40.863281 6.976563 40.820313 6.988281 40.78125 7 C 40.316406 7.105469 39.988281 7.523438 40 8 C 40 12.957031 44.042969 17 49 17 C 49.359375 17.003906 49.695313 16.816406 49.878906 16.503906 C 50.058594 16.191406 50.058594 15.808594 49.878906 15.496094 C 49.695313 15.183594 49.359375 14.996094 49 15 C 45.121094 15 42 11.878906 42 8 C 42.011719 7.710938 41.894531 7.433594 41.6875 7.238281 C 41.476563 7.039063 41.191406 6.941406 40.90625 6.96875 Z M 44.90625 6.96875 C 44.863281 6.976563 44.820313 6.988281 44.78125 7 C 44.316406 7.105469 43.988281 7.523438 44 8 C 44 10.75 46.25 13 49 13 C 49.359375 13.003906 49.695313 12.816406 49.878906 12.503906 C 50.058594 12.191406 50.058594 11.808594 49.878906 11.496094 C 49.695313 11.183594 49.359375 10.996094 49 11 C 47.332031 11 46 9.667969 46 8 C 46.011719 7.710938 45.894531 7.433594 45.6875 7.238281 C 45.476563 7.039063 45.191406 6.941406 44.90625 6.96875 Z M 49 7 C 48.449219 7 48 7.449219 48 8 C 48 8.550781 48.449219 9 49 9 C 49.550781 9 50 8.550781 50 8 C 50 7.449219 49.550781 7 49 7 Z"/></svg>