<svg xmlns="http://www.w3.org/2000/svg" viewBox="0 0 50 50" width="50" height="50" fill="#666"><path style="line-height:normal;text-indent:0;text-align:start;text-decoration-line:none;text-decoration-style:solid;text-decoration-color:#000;text-transform:none;block-progression:tb;isolation:auto;mix-blend-mode:normal" d="M 6 4 C 4.9069372 4 4 4.9069372 4 6 L 4 44 C 4 45.093063 4.9069372 46 6 46 L 44 46 C 45.093063 46 46 45.093063 46 44 L 46 6 C 46 4.9069372 45.093063 4 44 4 L 6 4 z M 6 6 L 44 6 L 44 44 L 6 44 L 6 6 z M 16 14 L 16 36 L 25 36 L 25 33.5 L 18.5 33.5 L 18.5 14 L 16 14 z M 33.488281 19.75 C 32.051281 19.75 31.130141 20.402 30.619141 21.875 L 30.494141 22.25 L 30.494141 20 L 28 20 C 28.031 21.152 28 36 28 36 L 30.494141 36 L 30.523438 26.75 C 30.523437 26.206 30.555141 25.757797 30.619141 25.341797 C 30.874141 23.549797 31.924281 22.09375 33.488281 22.09375 C 33.681281 22.09375 33.84 22.093 34 22.125 L 34 19.78125 C 33.84 19.74925 33.680281 19.75 33.488281 19.75 z"/></svg>