<svg xmlns="http://www.w3.org/2000/svg" viewBox="0 0 50 50" width="50" height="50" fill="#666"><path d="M 11 4 C 7.144531 4 4 7.144531 4 11 L 4 39 C 4 42.855469 7.144531 46 11 46 L 39 46 C 42.855469 46 46 42.855469 46 39 L 46 11 C 46 7.144531 42.855469 4 39 4 Z M 11 6 L 39 6 C 41.773438 6 44 8.226563 44 11 L 44 39 C 44 41.773438 41.773438 44 39 44 L 11 44 C 8.226563 44 6 41.773438 6 39 L 6 11 C 6 8.226563 8.226563 6 11 6 Z M 36.234375 15.832031 L 22.914063 31.554688 L 14.78125 23.96875 L 13.417969 25.433594 L 23.082031 34.449219 L 37.765625 17.125 Z"/></svg>