<svg xmlns="http://www.w3.org/2000/svg" viewBox="0 0 50 50" width="50" height="50" fill="#666"><path d="M 0.8125 13 C 0.335938 13.089844 -0.0078125 13.511719 0 14 L 0 17 C 0 17.550781 0.449219 18 1 18 L 7.59375 18 L 7.59375 37.6875 C 7.59375 38.238281 8.042969 38.6875 8.59375 38.6875 L 11.90625 38.6875 C 12.457031 38.6875 12.90625 38.238281 12.90625 37.6875 L 12.90625 18 L 19.5 18 C 20.050781 18 20.5 17.550781 20.5 17 L 20.5 14 C 20.5 13.449219 20.050781 13 19.5 13 L 1 13 C 0.96875 13 0.9375 13 0.90625 13 C 0.875 13 0.84375 13 0.8125 13 Z M 24.1875 13 C 23.683594 13.0625 23.308594 13.492188 23.3125 14 L 23.3125 37.6875 C 23.3125 38.238281 23.761719 38.6875 24.3125 38.6875 L 27.5 38.6875 C 28.050781 38.6875 28.5 38.238281 28.5 37.6875 L 28.5 23 L 34.6875 38.09375 C 34.847656 38.453125 35.203125 38.683594 35.59375 38.6875 L 37.6875 38.6875 C 38.089844 38.695313 38.460938 38.460938 38.625 38.09375 L 44.8125 23 L 44.8125 37.6875 C 44.8125 38.238281 45.261719 38.6875 45.8125 38.6875 L 49 38.6875 C 49.550781 38.6875 50 38.238281 50 37.6875 L 50 14 C 50 13.449219 49.550781 13 49 13 L 44.1875 13 C 43.789063 13.007813 43.429688 13.253906 43.28125 13.625 L 36.65625 29.40625 L 30.03125 13.625 C 29.878906 13.242188 29.503906 12.996094 29.09375 13 L 24.3125 13 C 24.269531 12.996094 24.230469 12.996094 24.1875 13 Z M 2 15 L 18.5 15 L 18.5 16 L 11.90625 16 C 11.355469 16 10.90625 16.449219 10.90625 17 L 10.90625 36.6875 L 9.59375 36.6875 L 9.59375 17 C 9.59375 16.449219 9.144531 16 8.59375 16 L 2 16 Z M 25.3125 15 L 28.4375 15 L 35.6875 32.28125 C 35.835938 32.652344 36.195313 32.898438 36.59375 32.90625 L 36.6875 32.90625 C 37.097656 32.910156 37.472656 32.664063 37.625 32.28125 L 44.875 15 L 48 15 L 48 36.6875 L 46.8125 36.6875 L 46.8125 18.1875 C 46.8125 17.636719 46.363281 17.1875 45.8125 17.1875 L 45.6875 17.1875 C 45.289063 17.195313 44.929688 17.441406 44.78125 17.8125 L 37.03125 36.6875 L 36.28125 36.6875 L 28.53125 17.8125 C 28.378906 17.429688 28.003906 17.183594 27.59375 17.1875 L 27.5 17.1875 C 26.949219 17.1875 26.5 17.636719 26.5 18.1875 L 26.5 36.6875 L 25.3125 36.6875 Z"/></svg>