<svg xmlns="http://www.w3.org/2000/svg" viewBox="0 0 50 50" width="50" height="50" fill="#666"><path style="line-height:normal;text-indent:0;text-align:start;text-decoration-line:none;text-decoration-style:solid;text-decoration-color:#000;text-transform:none;block-progression:tb;isolation:auto;mix-blend-mode:normal" d="M 25 2 C 12.309295 2 2 12.309295 2 25 C 2 37.690705 12.309295 48 25 48 C 37.690705 48 48 37.690705 48 25 C 48 12.309295 37.690705 2 25 2 z M 25 4 C 36.609824 4 46 13.390176 46 25 C 46 36.609824 36.609824 46 25 46 C 13.390176 46 4 36.609824 4 25 C 4 13.390176 13.390176 4 25 4 z M 17.958984 13.037109 A 1.0001 1.0001 0 0 0 16.958984 14.041016 L 16.958984 14.064453 A 1.0001 1.0001 0 0 0 16.958984 14.070312 L 17.042969 36.037109 A 1.0001 1.0001 0 0 0 18.546875 36.898438 L 37.503906 25.828125 A 1.0001 1.0001 0 0 0 37.498047 24.095703 L 18.457031 13.169922 L 18.457031 13.171875 A 1.0001 1.0001 0 0 0 17.958984 13.037109 z M 18.964844 15.769531 L 35.001953 24.972656 L 19.037109 34.294922 L 18.964844 15.769531 z"/></svg>