<svg xmlns="http://www.w3.org/2000/svg" viewBox="0 0 50 50" width="50" height="50" fill="#666"><path d="M 41.9375 5.0625 C 41.625 5.070313 41.300781 5.152344 41 5.28125 C 40.988281 5.28125 40.980469 5.28125 40.96875 5.28125 L 9.375 20.28125 C 9.351563 20.300781 9.332031 20.320313 9.3125 20.34375 C 8.160156 21.003906 7.671875 22.386719 8.1875 23.59375 C 8.1875 23.605469 8.1875 23.613281 8.1875 23.625 L 8.78125 24.84375 L 1.84375 24.59375 C 1.832031 24.59375 1.824219 24.59375 1.8125 24.59375 C 1.230469 24.59375 0.726563 24.871094 0.40625 25.28125 C 0.0859375 25.691406 -0.0742188 26.351563 0.21875 26.9375 L 0.1875 26.9375 L 6.3125 39.71875 C 6.3125 39.730469 6.3125 39.738281 6.3125 39.75 C 6.589844 40.308594 7.191406 40.59375 7.71875 40.59375 C 8.246094 40.59375 8.75 40.363281 9.09375 39.90625 C 9.105469 39.894531 9.113281 39.886719 9.125 39.875 L 13.125 34.03125 L 13.59375 35 C 13.601563 35.015625 13.617188 35.015625 13.625 35.03125 C 14.183594 36.265625 15.621094 36.707031 16.84375 36.25 C 16.875 36.242188 16.90625 36.230469 16.9375 36.21875 L 32.46875 28.84375 C 32.980469 29.832031 33.898438 30.589844 35 30.875 L 35 38 C 35 39.644531 36.355469 41 38 41 L 50 41 L 50 39 L 38 39 C 37.445313 39 37 38.554688 37 38 L 37 30.84375 C 38.722656 30.398438 40 28.863281 40 27 C 40 26.460938 39.914063 25.914063 39.71875 25.40625 L 48.53125 21.21875 C 48.554688 21.199219 48.574219 21.179688 48.59375 21.15625 C 49.746094 20.496094 50.234375 19.113281 49.71875 17.90625 C 49.71875 17.894531 49.71875 17.886719 49.71875 17.875 L 44.3125 6.46875 C 44.304688 6.449219 44.292969 6.425781 44.28125 6.40625 C 43.953125 5.828125 43.425781 5.417969 42.84375 5.21875 C 42.550781 5.117188 42.25 5.054688 41.9375 5.0625 Z M 41.96875 7.09375 C 42.175781 7.105469 42.425781 7.222656 42.53125 7.40625 L 47.875 18.6875 C 47.957031 18.878906 47.839844 19.296875 47.59375 19.4375 L 16.15625 34.375 C 16.140625 34.378906 16.140625 34.371094 16.125 34.375 C 15.78125 34.484375 15.460938 34.34375 15.40625 34.21875 C 15.40625 34.207031 15.40625 34.199219 15.40625 34.1875 L 10.03125 22.8125 C 9.949219 22.621094 10.035156 22.203125 10.28125 22.0625 L 41.78125 7.125 C 41.828125 7.105469 41.898438 7.089844 41.96875 7.09375 Z M 37.90625 26.28125 C 37.972656 26.503906 38 26.746094 38 27 C 38 28.191406 37.191406 29 36 29 C 35.28125 29 34.628906 28.582031 34.28125 28 Z M 2.25 26.625 L 9.75 26.875 L 12.125 31.9375 L 7.8125 38.25 Z"/></svg>