<svg xmlns="http://www.w3.org/2000/svg" viewBox="0 0 50 50" width="50" height="50" fill="#666"><path d="M 11 3 C 8.25 3 6 5.25 6 8 L 6 17.6875 C 5.941406 17.882813 5.941406 18.085938 6 18.28125 L 6 32.6875 C 5.941406 32.882813 5.941406 33.085938 6 33.28125 L 6 43 C 6 45.75 8.25 48 11 48 L 39 48 C 41.75 48 44 45.75 44 43 L 44 33.1875 C 44.027344 33.054688 44.027344 32.914063 44 32.78125 L 44 18.1875 C 44.027344 18.054688 44.027344 17.914063 44 17.78125 L 44 8 C 44 5.25 41.75 3 39 3 Z M 11 5 L 39 5 C 40.667969 5 42 6.332031 42 8 L 42 17 L 8 17 L 8 8 C 8 6.332031 9.332031 5 11 5 Z M 19.90625 8.96875 C 19.863281 8.976563 19.820313 8.988281 19.78125 9 C 19.316406 9.105469 18.988281 9.523438 19 10 C 19 10.667969 19.148438 11.390625 19.65625 12 C 20.164063 12.609375 21.027344 13 22 13 L 28 13 C 28.964844 13 29.804688 12.636719 30.3125 12.03125 C 30.820313 11.425781 31 10.671875 31 10 C 31.003906 9.640625 30.816406 9.304688 30.503906 9.121094 C 30.191406 8.941406 29.808594 8.941406 29.496094 9.121094 C 29.183594 9.304688 28.996094 9.640625 29 10 C 29 10.328125 28.902344 10.574219 28.78125 10.71875 C 28.660156 10.863281 28.515625 11 28 11 L 22 11 C 21.472656 11 21.335938 10.890625 21.21875 10.75 C 21.101563 10.609375 21 10.332031 21 10 C 21.011719 9.710938 20.894531 9.433594 20.6875 9.238281 C 20.476563 9.039063 20.191406 8.941406 19.90625 8.96875 Z M 8 19 L 42 19 L 42 32 L 8 32 Z M 19.90625 24.96875 C 19.863281 24.976563 19.820313 24.988281 19.78125 25 C 19.316406 25.105469 18.988281 25.523438 19 26 C 19 26.667969 19.148438 27.390625 19.65625 28 C 20.164063 28.609375 21.027344 29 22 29 L 28 29 C 28.964844 29 29.804688 28.636719 30.3125 28.03125 C 30.820313 27.425781 31 26.671875 31 26 C 31.003906 25.640625 30.816406 25.304688 30.503906 25.121094 C 30.191406 24.941406 29.808594 24.941406 29.496094 25.121094 C 29.183594 25.304688 28.996094 25.640625 29 26 C 29 26.328125 28.902344 26.574219 28.78125 26.71875 C 28.660156 26.863281 28.515625 27 28 27 L 22 27 C 21.472656 27 21.335938 26.890625 21.21875 26.75 C 21.101563 26.609375 21 26.332031 21 26 C 21.011719 25.710938 20.894531 25.433594 20.6875 25.238281 C 20.476563 25.039063 20.191406 24.941406 19.90625 24.96875 Z M 8 34 L 42 34 L 42 43 C 42 44.667969 40.667969 46 39 46 L 11 46 C 9.332031 46 8 44.667969 8 43 Z M 19.90625 38.96875 C 19.863281 38.976563 19.820313 38.988281 19.78125 39 C 19.316406 39.105469 18.988281 39.523438 19 40 C 19 40.667969 19.148438 41.390625 19.65625 42 C 20.164063 42.609375 21.027344 43 22 43 L 28 43 C 28.964844 43 29.804688 42.636719 30.3125 42.03125 C 30.820313 41.425781 31 40.671875 31 40 C 31.003906 39.640625 30.816406 39.304688 30.503906 39.121094 C 30.191406 38.941406 29.808594 38.941406 29.496094 39.121094 C 29.183594 39.304688 28.996094 39.640625 29 40 C 29 40.328125 28.902344 40.574219 28.78125 40.71875 C 28.660156 40.863281 28.515625 41 28 41 L 22 41 C 21.472656 41 21.335938 40.890625 21.21875 40.75 C 21.101563 40.609375 21 40.332031 21 40 C 21.011719 39.710938 20.894531 39.433594 20.6875 39.238281 C 20.476563 39.039063 20.191406 38.941406 19.90625 38.96875 Z"/></svg>