<svg xmlns="http://www.w3.org/2000/svg" viewBox="0 0 50 50" width="50" height="50" fill="#666"><path d="M 6 0 L 6 48 L 34 48 C 35.671875 49.257813 37.753906 50 40 50 C 45.511719 50 50 45.511719 50 40 C 50 35.914063 47.519531 32.394531 44 30.84375 L 44 14.59375 L 43.71875 14.28125 L 29.71875 0.28125 L 29.40625 0 Z M 8 2 L 28 2 L 28 16 L 42 16 L 42 30.21875 C 41.351563 30.085938 40.6875 30 40 30 C 34.488281 30 30 34.488281 30 40 C 30 42.253906 30.765625 44.324219 32.03125 46 L 8 46 Z M 30 3.4375 L 40.5625 14 L 30 14 Z M 40 32 C 44.429688 32 48 35.570313 48 40 C 48 44.429688 44.429688 48 40 48 C 35.570313 48 32 44.429688 32 40 C 32 35.570313 35.570313 32 40 32 Z M 39 35 L 39 39 L 35 39 L 35 41 L 39 41 L 39 45 L 41 45 L 41 41 L 45 41 L 45 39 L 41 39 L 41 35 Z"/></svg>