<svg xmlns="http://www.w3.org/2000/svg" viewBox="0 0 50 50" width="50" height="50" fill="#666"><path d="M 25 2 C 20.042969 2 16 6.042969 16 11 C 16 11.683594 16.148438 12.394531 16.375 13.125 C 15.75 12.683594 15.125 12.339844 14.46875 12.125 C 13.289063 11.742188 12.070313 11.617188 10.90625 11.71875 C 7.414063 12.023438 4.273438 14.371094 3.125 17.90625 C 1.59375 22.621094 4.191406 27.6875 8.90625 29.21875 C 9.566406 29.433594 10.289063 29.519531 11.0625 29.53125 C 10.449219 29.988281 9.90625 30.472656 9.5 31.03125 C 6.585938 35.042969 7.457031 40.679688 11.46875 43.59375 C 15.480469 46.507813 21.148438 45.636719 24.0625 41.625 C 24.464844 41.074219 24.761719 40.410156 25 39.6875 C 25.238281 40.410156 25.535156 41.074219 25.9375 41.625 C 28.851563 45.636719 34.519531 46.507813 38.53125 43.59375 C 42.542969 40.679688 43.414063 35.042969 40.5 31.03125 C 40.09375 30.472656 39.550781 29.988281 38.9375 29.53125 C 39.710938 29.519531 40.433594 29.433594 41.09375 29.21875 C 45.808594 27.6875 48.40625 22.621094 46.875 17.90625 C 45.726563 14.371094 42.585938 12.023438 39.09375 11.71875 C 37.929688 11.617188 36.710938 11.742188 35.53125 12.125 C 34.875 12.339844 34.25 12.683594 33.625 13.125 C 33.851563 12.394531 34 11.683594 34 11 C 34 6.042969 29.957031 2 25 2 Z M 25 4 C 28.878906 4 32 7.121094 32 11 C 32 11.800781 31.5625 13.140625 30.84375 14.59375 C 30.359375 15.574219 29.761719 16.605469 29.125 17.625 C 28.765625 18.0625 28.398438 18.503906 28.0625 18.9375 C 26.679688 20.714844 25.691406 22.152344 25 23.1875 C 24.308594 22.152344 23.320313 20.714844 21.9375 18.9375 C 21.601563 18.503906 21.234375 18.0625 20.875 17.625 C 20.238281 16.605469 19.640625 15.574219 19.15625 14.59375 C 18.4375 13.140625 18 11.800781 18 11 C 18 7.121094 21.121094 4 25 4 Z M 11.78125 13.65625 C 12.464844 13.671875 13.152344 13.804688 13.84375 14.03125 C 14.605469 14.28125 15.777344 15.085938 16.9375 16.21875 C 17.722656 16.984375 18.511719 17.886719 19.28125 18.8125 C 19.585938 19.289063 19.878906 19.765625 20.1875 20.21875 C 21.4375 22.0625 22.484375 23.453125 23.25 24.4375 C 22.050781 24.773438 20.390625 25.269531 18.28125 26.03125 C 17.75 26.222656 17.199219 26.441406 16.65625 26.65625 C 15.519531 26.941406 14.371094 27.191406 13.3125 27.34375 C 11.707031 27.578125 10.292969 27.59375 9.53125 27.34375 C 5.84375 26.144531 3.832031 22.1875 5.03125 18.5 C 5.929688 15.734375 8.375 13.917969 11.09375 13.6875 C 11.320313 13.667969 11.554688 13.652344 11.78125 13.65625 Z M 38.21875 13.65625 C 38.445313 13.652344 38.679688 13.667969 38.90625 13.6875 C 41.625 13.917969 44.070313 15.734375 44.96875 18.5 C 46.167969 22.1875 44.15625 26.144531 40.46875 27.34375 C 39.707031 27.59375 38.292969 27.578125 36.6875 27.34375 C 35.628906 27.191406 34.480469 26.941406 33.34375 26.65625 C 32.800781 26.441406 32.25 26.222656 31.71875 26.03125 C 29.609375 25.269531 27.949219 24.773438 26.75 24.4375 C 27.515625 23.453125 28.5625 22.0625 29.8125 20.21875 C 30.121094 19.765625 30.414063 19.289063 30.71875 18.8125 C 31.488281 17.886719 32.277344 16.984375 33.0625 16.21875 C 34.222656 15.085938 35.394531 14.28125 36.15625 14.03125 C 36.847656 13.804688 37.535156 13.671875 38.21875 13.65625 Z M 25 13.6875 C 23.617188 13.6875 22.5 14.804688 22.5 16.1875 C 22.5 17.570313 25 23 25 23 C 25 23 27.5 17.570313 27.5 16.1875 C 27.5 14.808594 26.382813 13.6875 25 13.6875 Z M 16.40625 19.78125 C 15.4375 19.863281 14.570313 20.515625 14.25 21.5 C 13.824219 22.8125 14.53125 24.230469 15.84375 24.65625 C 17.15625 25.082031 23.09375 24.375 23.09375 24.375 C 23.09375 24.375 18.71875 20.332031 17.40625 19.90625 C 17.078125 19.800781 16.730469 19.753906 16.40625 19.78125 Z M 33.09375 19.78125 C 32.929688 19.800781 32.757813 19.851563 32.59375 19.90625 C 31.28125 20.332031 26.90625 24.375 26.90625 24.375 C 26.90625 24.375 32.84375 25.082031 34.15625 24.65625 C 35.46875 24.230469 36.175781 22.8125 35.75 21.5 C 35.378906 20.351563 34.25 19.652344 33.09375 19.78125 Z M 23.9375 26.46875 C 23.886719 27.714844 23.832031 29.464844 23.90625 31.71875 C 23.921875 32.242188 23.96875 32.777344 24 33.3125 C 23.921875 34.53125 23.8125 35.742188 23.625 36.84375 C 23.351563 38.441406 22.910156 39.789063 22.4375 40.4375 C 20.15625 43.574219 15.792969 44.277344 12.65625 42 C 9.519531 39.722656 8.816406 35.355469 11.09375 32.21875 C 11.566406 31.570313 12.71875 30.722656 14.15625 29.96875 C 15.117188 29.464844 16.203125 29.007813 17.3125 28.5625 C 17.871094 28.421875 18.433594 28.28125 18.96875 28.125 C 21.136719 27.496094 22.773438 26.902344 23.9375 26.46875 Z M 26.0625 26.46875 C 27.226563 26.902344 28.863281 27.496094 31.03125 28.125 C 31.566406 28.28125 32.128906 28.421875 32.6875 28.5625 C 33.796875 29.007813 34.882813 29.464844 35.84375 29.96875 C 37.28125 30.722656 38.433594 31.570313 38.90625 32.21875 C 41.183594 35.355469 40.480469 39.71875 37.34375 42 C 34.207031 44.277344 29.84375 43.574219 27.5625 40.4375 C 27.089844 39.789063 26.648438 38.441406 26.375 36.84375 C 26.1875 35.742188 26.078125 34.53125 26 33.3125 C 26.03125 32.777344 26.078125 32.242188 26.09375 31.71875 C 26.167969 29.464844 26.113281 27.714844 26.0625 26.46875 Z M 23.8125 26.625 C 23.8125 26.625 18.625 29.539063 17.8125 30.65625 C 17 31.773438 17.226563 33.34375 18.34375 34.15625 C 19.460938 34.96875 21.03125 34.710938 21.84375 33.59375 C 22.65625 32.476563 23.8125 26.625 23.8125 26.625 Z M 26.1875 26.625 C 26.1875 26.625 27.34375 32.476563 28.15625 33.59375 C 28.96875 34.710938 30.539063 34.96875 31.65625 34.15625 C 32.773438 33.34375 33 31.773438 32.1875 30.65625 C 31.375 29.539063 26.1875 26.625 26.1875 26.625 Z"/></svg>