<svg xmlns="http://www.w3.org/2000/svg" viewBox="0 0 50 50" width="50" height="50" fill="#666"><path d="M 3 4 C 1.355469 4 0 5.355469 0 7 C 0 8.292969 0.84375 9.394531 2 9.8125 L 2 45 L 4 45 L 4 9.8125 C 5.15625 9.394531 6 8.292969 6 7 C 6 5.355469 4.644531 4 3 4 Z M 9.65625 5.90625 C 9.105469 5.921875 8.527344 5.957031 7.9375 6 L 7 6.0625 L 7 24.65625 L 8.46875 23.875 C 14.136719 20.925781 19.199219 22.425781 25.625 23.25 C 32.050781 24.074219 39.6875 24.089844 49.53125 17.84375 L 50.1875 17.4375 L 47.9375 10.6875 L 47.65625 9.78125 L 46.71875 10.03125 C 35.414063 13.191406 30.726563 11.921875 26.25 10 C 22.054688 8.199219 17.945313 5.667969 9.65625 5.90625 Z M 3 6 C 3.5625 6 4 6.4375 4 7 C 4 7.5625 3.5625 8 3 8 C 2.4375 8 2 7.5625 2 7 C 2 6.4375 2.4375 6 3 6 Z M 11 7.96875 C 12.5 7.980469 13.847656 8.105469 15.0625 8.28125 C 15.1875 8.6875 15.550781 9 16 9 C 16.210938 9 16.402344 8.925781 16.5625 8.8125 L 16.09375 13.03125 C 16.058594 13.027344 16.035156 13 16 13 C 15.449219 13 15 13.449219 15 14 C 15 14.507813 15.386719 14.902344 15.875 14.96875 L 15.40625 19.21875 C 15.164063 19.402344 15 19.675781 15 20 C 15 20.09375 15.039063 20.164063 15.0625 20.25 C 13.070313 20.355469 11.058594 20.75 9 21.59375 L 9 8 C 9 8.550781 9.449219 9 10 9 C 10.550781 9 11 8.550781 11 8 C 11 7.988281 11 7.980469 11 7.96875 Z M 9 14 C 9 14.550781 9.449219 15 10 15 C 10.550781 15 11 14.550781 11 14 C 11 13.449219 10.550781 13 10 13 C 9.449219 13 9 13.449219 9 14 Z M 9 20 C 9 20.550781 9.449219 21 10 21 C 10.550781 21 11 20.550781 11 20 C 11 19.449219 10.550781 19 10 19 C 9.449219 19 9 19.449219 9 20 Z M 18.5625 9.0625 C 21.117188 9.828125 23.203125 10.871094 25.46875 11.84375 C 25.511719 11.863281 25.550781 11.886719 25.59375 11.90625 L 23.8125 20.96875 C 21.621094 20.65625 19.464844 20.328125 17.3125 20.25 Z M 13 10 C 12.449219 10 12 10.449219 12 11 C 12 11.550781 12.449219 12 13 12 C 13.550781 12 14 11.550781 14 11 C 14 10.449219 13.550781 10 13 10 Z M 46.34375 12.15625 L 46.71875 13.28125 C 46.539063 13.101563 46.277344 13 46 13 C 45.449219 13 45 13.449219 45 14 C 45 14.550781 45.449219 15 46 15 C 46.515625 15 46.917969 14.597656 46.96875 14.09375 L 47.78125 16.5 C 46.441406 17.316406 45.148438 18.003906 43.90625 18.59375 L 43.625 17.78125 C 43.851563 17.597656 44 17.316406 44 17 C 44 16.449219 43.550781 16 43 16 C 42.988281 16 42.980469 16 42.96875 16 L 41.96875 13.15625 C 43.324219 12.902344 44.777344 12.570313 46.34375 12.15625 Z M 27.46875 12.625 C 29.085938 13.179688 30.875 13.609375 33 13.78125 L 33 13.96875 C 33 13.980469 33 13.988281 33 14 C 33 14.023438 33.03125 14.039063 33.03125 14.0625 L 33.34375 19.25 C 33.132813 19.433594 33 19.699219 33 20 C 33 20.339844 33.179688 20.632813 33.4375 20.8125 L 33.46875 21.53125 C 30.78125 21.75 28.296875 21.558594 25.90625 21.25 C 25.875 21.246094 25.84375 21.253906 25.8125 21.25 L 27.125 14.4375 C 27.289063 14.761719 27.609375 15 28 15 C 28.550781 15 29 14.550781 29 14 C 29 13.449219 28.550781 13 28 13 C 27.75 13 27.519531 13.097656 27.34375 13.25 Z M 39.9375 13.46875 L 42.0625 19.40625 C 39.710938 20.367188 37.53125 20.960938 35.46875 21.28125 L 35 13.84375 C 36.476563 13.847656 38.113281 13.726563 39.9375 13.46875 Z M 13 16 C 12.449219 16 12 16.449219 12 17 C 12 17.550781 12.449219 18 13 18 C 13.550781 18 14 17.550781 14 17 C 14 16.449219 13.550781 16 13 16 Z M 31 16 C 30.449219 16 30 16.449219 30 17 C 30 17.550781 30.449219 18 31 18 C 31.550781 18 32 17.550781 32 17 C 32 16.449219 31.550781 16 31 16 Z M 28 19 C 27.449219 19 27 19.449219 27 20 C 27 20.550781 27.449219 21 28 21 C 28.550781 21 29 20.550781 29 20 C 29 19.449219 28.550781 19 28 19 Z"/></svg>