<svg xmlns="http://www.w3.org/2000/svg" viewBox="0 0 50 50" width="50" height="50" fill="#666"><path style="line-height:normal;text-indent:0;text-align:start;text-decoration-line:none;text-decoration-style:solid;text-decoration-color:#000;text-transform:none;block-progression:tb;isolation:auto;mix-blend-mode:normal" d="M 14.130859 4 C 6.3388594 4 0 10.367359 0 18.193359 C 0 19.519359 0.12751563 20.785 0.35351562 22 L 2.4003906 22 C 2.1443906 20.787 2 19.521359 2 18.193359 C 2 11.470359 7.4408594 6 14.130859 6 C 17.820859 6 20.949687 7.5625781 23.429688 10.642578 C 23.621688 10.882578 24.189453 11.613281 24.189453 11.613281 C 24.568453 12.101281 25.390531 12.101281 25.769531 11.613281 C 25.769531 11.612281 26.334297 10.885531 26.529297 10.644531 C 28.973297 7.6055313 32.203141 6 35.869141 6 C 42.559141 6 48 11.470359 48 18.193359 C 48 29.792359 37.458719 36.881641 29.761719 42.056641 C 27.955719 43.270641 26.322094 44.595219 24.996094 45.699219 C 23.937094 44.829219 21.801328 43.106687 20.236328 42.054688 C 14.996328 38.530687 8.4401094 34.118 4.7871094 28 L 2.46875 28 C 6.18775 35.011 13.400094 39.868797 19.121094 43.716797 C 21.145094 45.076797 24.325422 47.738625 24.357422 47.765625 C 24.529422 47.910625 24.750609 47.978516 24.974609 47.978516 C 25.233609 47.978516 25.496266 47.887703 25.697266 47.720703 C 27.030266 46.604703 28.856953 45.074797 30.876953 43.716797 C 38.947953 38.288797 50 30.857359 50 18.193359 C 50 10.367359 43.661141 4 35.869141 4 C 31.580141 4 27.814516 5.8608594 24.978516 9.3808594 C 22.143516 5.8608594 18.391859 4 14.130859 4 z M 17.490234 11 A 1.0001 1.0001 0 0 0 16.521484 11.798828 L 13.720703 25.40625 L 11.935547 20.648438 A 1.0001 1.0001 0 0 0 10.105469 20.552734 L 8.3828125 24 L 2 24 A 1.0001 1.0001 0 1 0 2 26 L 9 26 A 1.0001 1.0001 0 0 0 9.8945312 25.447266 L 10.869141 23.498047 L 13.064453 29.351562 A 1.0001 1.0001 0 0 0 14.978516 29.201172 L 17.4375 17.253906 L 20.515625 34.179688 A 1.0001 1.0001 0 0 0 22.433594 34.359375 L 26.488281 23.816406 L 28.564453 29.351562 A 1.0001 1.0001 0 0 0 30.347656 29.529297 L 32.554688 26 L 37.271484 26 A 2 2 0 0 0 39 27 A 2 2 0 0 0 41 25 A 2 2 0 0 0 39 23 A 2 2 0 0 0 37.269531 24 L 32 24 A 1.0001 1.0001 0 0 0 31.152344 24.470703 L 29.724609 26.753906 L 27.435547 20.648438 A 1.0001 1.0001 0 0 0 25.566406 20.640625 L 21.845703 30.3125 L 18.484375 11.820312 A 1.0001 1.0001 0 0 0 17.490234 11 z"/></svg>