<svg xmlns="http://www.w3.org/2000/svg" viewBox="0 0 50 50" width="50" height="50" fill="#666"><path d="M 1.8125 8 C 1.335938 8.089844 0.992188 8.511719 1 9 L 1 24.6875 C 0.941406 24.882813 0.941406 25.085938 1 25.28125 L 1 41 C 1 41.550781 1.449219 42 2 42 L 48 42 C 48.550781 42 49 41.550781 49 41 L 49 25.1875 C 49.027344 25.054688 49.027344 24.914063 49 24.78125 L 49 9 C 49 8.449219 48.550781 8 48 8 L 2 8 C 1.96875 8 1.9375 8 1.90625 8 C 1.875 8 1.84375 8 1.8125 8 Z M 3 10 L 47 10 L 47 24 L 33.9375 24 C 33.429688 19.515625 29.617188 16 25 16 C 20.382813 16 16.570313 19.515625 16.0625 24 L 3 24 Z M 25 18 C 28.78125 18 31.851563 20.972656 32 24.71875 C 31.945313 24.902344 31.945313 25.097656 32 25.28125 C 31.851563 29.027344 28.78125 32 25 32 C 21.183594 32 18.097656 28.976563 18 25.1875 C 18.027344 25.054688 18.027344 24.914063 18 24.78125 C 18.117188 21.007813 21.195313 18 25 18 Z M 3 26 L 16.0625 26 C 16.570313 30.484375 20.382813 34 25 34 C 29.617188 34 33.429688 30.484375 33.9375 26 L 47 26 L 47 40 L 3 40 Z"/></svg>