<svg xmlns="http://www.w3.org/2000/svg" viewBox="0 0 50 50" width="50" height="50" fill="#666"><path d="M 5 5 C 3.355469 5 2 6.355469 2 8 L 2 36 C 2 37.644531 3.355469 39 5 39 L 20 39 L 20 42 L 18 42 C 16.355469 42 15 43.355469 15 45 L 15 47 L 35 47 L 35 45 C 35 43.355469 33.644531 42 32 42 L 30 42 L 30 39 L 45 39 C 46.644531 39 48 37.644531 48 36 L 48 8 C 48 6.355469 46.644531 5 45 5 Z M 5 7 L 45 7 C 45.566406 7 46 7.433594 46 8 L 46 36 C 46 36.566406 45.566406 37 45 37 L 5 37 C 4.433594 37 4 36.566406 4 36 L 4 8 C 4 7.859375 4.011719 7.714844 4.0625 7.59375 C 4.210938 7.234375 4.578125 7 5 7 Z M 9 13 C 7.90625 13 7 13.90625 7 15 L 7 28 C 7 29.09375 7.90625 30 9 30 L 15 30 C 16.09375 30 17 29.09375 17 28 L 17 15 C 17 13.90625 16.09375 13 15 13 Z M 23 13 C 21.90625 13 21 13.90625 21 15 L 21 28 C 21 29.09375 21.90625 30 23 30 L 41 30 C 42.09375 30 43 29.09375 43 28 L 43 15 C 43 13.90625 42.09375 13 41 13 Z M 9 15 L 15 15 L 15 28 L 9 28 Z M 23 15 L 41 15 L 41 28 L 23 28 Z M 12 25 C 11.449219 25 11 25.449219 11 26 C 11 26.550781 11.449219 27 12 27 C 12.550781 27 13 26.550781 13 26 C 13 25.449219 12.550781 25 12 25 Z M 32 25 C 31.449219 25 31 25.449219 31 26 C 31 26.550781 31.449219 27 32 27 C 32.550781 27 33 26.550781 33 26 C 33 25.449219 32.550781 25 32 25 Z M 25 34 C 24.449219 34 24 34.449219 24 35 C 24 35.550781 24.449219 36 25 36 C 25.550781 36 26 35.550781 26 35 C 26 34.449219 25.550781 34 25 34 Z M 22 39 L 28 39 L 28 42 L 22 42 Z M 18 44 L 32 44 C 32.566406 44 33 44.433594 33 45 L 17 45 C 17 44.433594 17.433594 44 18 44 Z"/></svg>