<svg xmlns="http://www.w3.org/2000/svg" viewBox="0 0 50 50" width="50" height="50" fill="#666"><path d="M 30.171875 2.0390625 C 29.772308 2.0096943 29.362201 2.0810982 28.982422 2.2636719 L 25 4.1582031 L 21.015625 2.2617188 L 21.013672 2.2617188 C 20.002382 1.7791224 18.778851 2.0829241 18.105469 2.9746094 L 18.105469 2.9765625 L 15.457031 6.5097656 L 11.044922 6.6835938 L 11.042969 6.6835938 C 9.9255354 6.7290366 8.9829928 7.5667188 8.8046875 8.671875 L 8.0996094 13.029297 L 4.2753906 15.236328 C 3.3056554 15.794558 2.8566519 16.972299 3.2109375 18.035156 L 4.6152344 22.224609 L 2.2519531 25.953125 C 1.653025 26.897913 1.8025001 28.150398 2.6132812 28.925781 L 5.7988281 31.980469 L 5.4394531 36.380859 C 5.3485071 37.497478 6.0657317 38.532982 7.1367188 38.845703 L 7.1386719 38.845703 L 11.380859 40.068359 L 13.107422 44.132812 L 13.107422 44.134766 C 13.546532 45.160473 14.661112 45.762119 15.767578 45.523438 L 20.087891 44.638672 L 23.501953 47.433594 L 23.501953 47.431641 C 23.93523 47.787366 24.471731 47.96875 25.001953 47.96875 C 25.534225 47.96875 26.067883 47.786414 26.5 47.431641 L 29.914062 44.636719 L 34.234375 45.521484 C 35.338687 45.758366 36.455946 45.160945 36.894531 44.130859 L 38.621094 40.068359 L 42.861328 38.845703 L 42.863281 38.845703 C 43.937226 38.53478 44.653174 37.495811 44.5625 36.380859 L 44.203125 31.978516 L 47.388672 28.923828 C 48.198308 28.148325 48.351272 26.896576 47.751953 25.951172 L 45.388672 22.222656 L 46.792969 18.033203 L 46.792969 18.03125 C 47.143072 16.970842 46.699089 15.79309 45.728516 15.234375 L 41.902344 13.027344 L 41.199219 8.6679688 L 41.199219 8.6660156 C 41.016296 7.5654307 40.074551 6.7290351 38.957031 6.6835938 L 34.544922 6.5097656 L 31.896484 2.9785156 C 31.559851 2.5296706 31.083761 2.2289026 30.566406 2.1015625 C 30.437068 2.0697275 30.305064 2.0488519 30.171875 2.0390625 z M 20.037109 3.96875 C 20.085171 3.9736939 20.133612 3.9877294 20.179688 4.0097656 L 25 6.3027344 L 29.820312 4.0097656 L 29.822266 4.0097656 C 30.003522 3.9226286 30.220971 3.9743156 30.345703 4.140625 L 33.546875 8.4101562 L 38.878906 8.6191406 C 39.089387 8.6277006 39.251988 8.7730047 39.287109 8.984375 L 40.136719 14.246094 L 44.761719 16.914062 C 44.940541 17.017003 45.019788 17.222902 44.955078 17.421875 L 43.259766 22.480469 L 46.115234 26.988281 C 46.225587 27.162358 46.200028 27.380795 46.048828 27.525391 L 42.197266 31.21875 L 42.630859 36.537109 C 42.648189 36.750158 42.528274 36.925298 42.324219 36.984375 L 37.197266 38.462891 L 35.113281 43.373047 C 35.029861 43.568961 34.832313 43.670024 34.640625 43.628906 L 34.636719 43.626953 L 29.400391 42.554688 L 25.271484 45.933594 C 25.189604 46.000824 25.099681 46.03125 25.001953 46.03125 C 24.902173 46.03125 24.811192 46.001817 24.730469 45.935547 L 20.601562 42.556641 L 15.365234 43.628906 L 15.359375 43.628906 C 15.167841 43.670226 14.973562 43.569386 14.888672 43.371094 L 14.888672 43.375 L 12.804688 38.462891 L 7.6796875 36.986328 C 7.4766676 36.927096 7.3540401 36.748444 7.3710938 36.539062 L 7.8046875 31.21875 L 3.953125 27.527344 L 3.953125 27.525391 C 3.8019062 27.380821 3.7756468 27.165446 3.8867188 26.990234 L 6.7441406 22.482422 L 5.046875 17.421875 C 4.981161 17.224732 5.05997 17.019785 5.2402344 16.916016 L 5.2421875 16.916016 L 9.8652344 14.248047 L 10.716797 8.9804688 C 10.750397 8.7721855 10.911399 8.6283981 11.121094 8.6191406 L 16.453125 8.4101562 L 19.652344 4.1425781 C 19.748498 4.0152511 19.892925 3.9539185 20.037109 3.96875 z M 24 11 C 24 12 23 13 21 13 L 21 15 L 24 15 L 24 24 L 24.099609 24 L 26 24 L 26 11 L 24 11 z M 12 27 L 12 34 L 13.599609 34 L 13.599609 31.099609 L 16.599609 31.099609 L 16.599609 29.900391 L 13.599609 29.900391 L 13.599609 28.300781 L 17 28.300781 L 17 27 L 12 27 z M 18.199219 27 L 18.199219 34 L 19.699219 34 L 19.699219 31.199219 L 21.199219 31.199219 C 22.399219 31.199219 22.4 32.099219 22.5 33.199219 C 22.6 33.499219 22.599219 33.8 22.699219 34 L 24.199219 34 C 23.899219 33.6 23.900391 32.899219 23.900391 32.699219 C 23.900391 30.999219 23.100391 30.799219 22.900391 30.699219 C 23.300391 30.499219 24 30.100391 24 28.900391 C 24 27.400391 22.600391 27 21.900391 27 L 18.199219 27 z M 25.599609 27 L 25.599609 34 L 30.900391 34 L 30.900391 32.699219 L 27.099609 32.699219 L 27.099609 31 L 30.5 31 L 30.5 29.800781 L 27.099609 29.800781 L 27.099609 28.300781 L 30.800781 28.300781 L 30.800781 27 L 25.599609 27 z M 32.699219 27 L 32.699219 34 L 38 34 L 38 32.699219 L 34.199219 32.699219 L 34.199219 31 L 37.599609 31 L 37.599609 29.800781 L 34.199219 29.800781 L 34.199219 28.300781 L 37.900391 28.300781 L 37.900391 27 L 32.699219 27 z M 19.699219 28.199219 L 21.400391 28.199219 C 21.800391 28.199219 22.5 28.299219 22.5 29.199219 C 22.5 30.099219 21.800391 30.199219 21.400391 30.199219 L 19.699219 30.199219 L 19.699219 28.199219 z"/></svg>