<svg xmlns="http://www.w3.org/2000/svg" viewBox="0 0 50 50" width="50" height="50" fill="#666"><path d="M 12.3125 1 C 10.382813 1 8.945313 1.644531 8.09375 2.65625 C 7.242188 3.667969 7 4.925781 7 6 C 7 8.554688 8.382813 10.628906 10.28125 11.96875 C 10.867188 12.382813 11.488281 12.710938 12.15625 13 L 1 13 L 1 24 L 3 24 L 3 49 L 47 49 L 47 24 L 49 24 L 49 13 L 37.84375 13 C 38.511719 12.710938 39.132813 12.382813 39.71875 11.96875 C 41.617188 10.628906 43 8.554688 43 6 C 43 4.925781 42.757813 3.667969 41.90625 2.65625 C 41.054688 1.644531 39.617188 1 37.6875 1 C 35.691406 1 34.078125 1.84375 32.875 3 C 31.671875 4.15625 30.808594 5.613281 30 7 C 29.191406 8.386719 28.429688 9.71875 27.625 10.625 C 26.820313 11.53125 26.085938 12 25 12 C 23.914063 12 23.179688 11.53125 22.375 10.625 C 21.570313 9.71875 20.808594 8.386719 20 7 C 19.191406 5.613281 18.328125 4.15625 17.125 3 C 15.921875 1.84375 14.308594 1 12.3125 1 Z M 12.3125 3 C 13.777344 3 14.777344 3.53125 15.71875 4.4375 C 16.660156 5.34375 17.488281 6.636719 18.28125 8 C 19.074219 9.363281 19.851563 10.78125 20.875 11.9375 C 20.894531 11.960938 20.917969 11.976563 20.9375 12 L 17 12 C 14.984375 12 12.902344 11.398438 11.40625 10.34375 C 9.910156 9.289063 9 7.863281 9 6 C 9 5.246094 9.179688 4.5 9.625 3.96875 C 10.070313 3.4375 10.800781 3 12.3125 3 Z M 37.6875 3 C 39.199219 3 39.929688 3.4375 40.375 3.96875 C 40.820313 4.5 41 5.246094 41 6 C 41 7.863281 40.089844 9.289063 38.59375 10.34375 C 37.097656 11.398438 35.015625 12 33 12 L 29.0625 12 C 29.082031 11.976563 29.105469 11.960938 29.125 11.9375 C 30.148438 10.78125 30.925781 9.363281 31.71875 8 C 32.511719 6.636719 33.339844 5.34375 34.28125 4.4375 C 35.222656 3.53125 36.222656 3 37.6875 3 Z M 3 15 L 19 15 L 19 22 L 3 22 Z M 21 15 L 29 15 L 29 22.8125 C 29 22.84375 29 22.875 29 22.90625 C 29 22.9375 29 22.96875 29 23 C 28.992188 23.074219 28.992188 23.144531 29 23.21875 L 29 47 L 21 47 L 21 23.1875 C 21.007813 23.125 21.007813 23.0625 21 23 C 21.003906 22.957031 21.003906 22.917969 21 22.875 C 21 22.84375 21 22.8125 21 22.78125 Z M 31 15 L 47 15 L 47 22 L 31 22 Z M 5 24 L 19 24 L 19 47 L 5 47 Z M 31 24 L 45 24 L 45 47 L 31 47 Z"/></svg>