<svg xmlns="http://www.w3.org/2000/svg" viewBox="0 0 50 50" width="50" height="50" fill="#666"><path d="M 37.03125 1.988281 C 36.667969 1.980469 36.324219 2.171875 36.140625 2.484375 C 36.140625 2.484375 33.523438 7 27 7 C 26.640625 6.996094 26.304688 7.183594 26.121094 7.496094 C 25.941406 7.808594 25.941406 8.191406 26.121094 8.503906 C 26.304688 8.816406 26.640625 9.003906 27 9 C 34.476563 9 37.859375 3.515625 37.859375 3.515625 C 38.046875 3.210938 38.054688 2.828125 37.886719 2.511719 C 37.714844 2.199219 37.390625 1.996094 37.03125 1.988281 Z M 28 2 C 24.085938 2 21.554688 4.214844 20.859375 4.863281 C 20.207031 4.566406 18.824219 4 17 4 C 13.554688 4 11.292969 6.292969 11.292969 6.292969 C 11.03125 6.542969 10.925781 6.917969 11.019531 7.265625 C 11.109375 7.617188 11.382813 7.890625 11.734375 7.980469 C 12.082031 8.074219 12.457031 7.96875 12.707031 7.707031 C 12.707031 7.707031 14.445313 6 17 6 C 18.667969 6 20.550781 6.894531 20.550781 6.894531 L 21.199219 7.21875 L 21.707031 6.707031 C 21.707031 6.707031 24.5 4 28 4 C 28.359375 4.003906 28.695313 3.816406 28.878906 3.503906 C 29.058594 3.191406 29.058594 2.808594 28.878906 2.496094 C 28.695313 2.183594 28.359375 1.996094 28 2 Z M 38 9.734375 L 37.386719 10.210938 L 28 17.511719 L 28 25 L 15.9375 25 L 14.9375 10 L 8.0625 10 L 7.0625 25 L 2 25 L 2 48 L 48 48 L 48 17.511719 Z M 9.9375 12 L 13.0625 12 L 13.933594 25 L 11 25 L 11 27 L 30 27 L 30 18.488281 L 38 12.265625 L 46 18.488281 L 46 46 L 4 46 L 4 27 L 8.9375 27 Z M 33 23 L 33 27 L 35 27 L 35 23 Z M 37 23 L 37 27 L 39 27 L 39 23 Z M 41 23 L 41 27 L 43 27 L 43 23 Z M 7 30 L 7 32 L 11 32 L 11 30 Z M 13 30 L 13 32 L 17 32 L 17 30 Z M 19 30 L 19 32 L 23 32 L 23 30 Z M 25 30 L 25 32 L 29 32 L 29 30 Z M 33 30 L 33 34 L 35 34 L 35 30 Z M 37 30 L 37 34 L 39 34 L 39 30 Z M 41 30 L 41 34 L 43 34 L 43 30 Z M 33 37 L 33 41 L 35 41 L 35 37 Z M 37 37 L 37 41 L 39 41 L 39 37 Z M 41 37 L 41 41 L 43 41 L 43 37 Z"/></svg>