<svg xmlns="http://www.w3.org/2000/svg" viewBox="0 0 50 50" width="50" height="50" fill="#666"><path style="line-height:normal;text-indent:0;text-align:start;text-decoration-line:none;text-decoration-style:solid;text-decoration-color:#000;text-transform:none;block-progression:tb;isolation:auto;mix-blend-mode:normal" d="M 7 2 L 7 48 L 43 48 L 43 47 L 43 15.410156 L 29.183594 2 L 7 2 z M 9 4 L 28 4 L 28 17 L 41 17 L 41 46 L 9 46 L 9 4 z M 30 5.5800781 L 39.707031 15 L 30 15 L 30 5.5800781 z M 24.101562 23.435547 C 21.866563 23.435547 20.771484 25.820078 20.771484 28.580078 C 20.771484 31.355078 21.671797 33.785156 23.966797 33.785156 C 25.886797 33.785156 27.236328 32.239688 27.236328 28.429688 C 27.236328 26.119688 26.547563 23.436547 24.101562 23.435547 z M 32.509766 23.464844 C 30.364766 23.464844 28.26375 24.994922 28.21875 28.669922 C 28.18875 30.409922 28.653437 31.91 29.523438 32.75 C 30.198438 33.425 31.069609 33.755859 32.224609 33.755859 C 32.959609 33.755859 33.889219 33.574531 34.324219 33.394531 C 34.323219 33.394531 34.323219 27.994141 34.324219 27.994141 L 31.609375 27.994141 L 31.609375 29.599609 L 32.509766 29.599609 L 32.509766 32.044922 C 32.433766 32.074922 32.297187 32.089844 32.117188 32.089844 C 31.202187 32.089844 30.259766 31.219062 30.259766 28.789062 C 30.259766 26.149063 31.323203 25.234375 32.658203 25.234375 C 33.153203 25.234375 33.5275 25.310938 33.8125 25.460938 L 34.158203 23.765625 C 33.844203 23.615625 33.274766 23.464844 32.509766 23.464844 z M 15.675781 23.556641 L 15.675781 33.666016 L 20.236328 33.666016 L 20.236328 32.001953 L 17.640625 32.001953 L 17.640625 23.556641 L 15.675781 23.556641 z M 24.027344 25.144531 C 24.911344 25.144531 25.183594 26.749531 25.183594 28.519531 C 25.183594 30.574531 24.866969 32.074219 24.042969 32.074219 C 23.248969 32.074219 22.8125 30.904375 22.8125 28.609375 C 22.8125 26.435375 23.246344 25.145531 24.027344 25.144531 z"/></svg>