<svg xmlns="http://www.w3.org/2000/svg" viewBox="0 0 50 50" width="50" height="50" fill="#666"><path d="M 5.953125 4 C 5.441406 4 4.921875 4.1875 4.554688 4.554688 C 4.1875 4.921875 4 5.441406 4 5.953125 L 4 44.046875 C 4 44.554688 4.1875 45.078125 4.554688 45.445313 C 4.921875 45.8125 5.441406 46 5.953125 46 L 44.046875 46 C 44.554688 46 45.078125 45.8125 45.445313 45.445313 C 45.8125 45.078125 46 44.558594 46 44.046875 L 46 5.953125 C 46 5.441406 45.8125 4.921875 45.445313 4.554688 C 45.078125 4.1875 44.558594 4 44.046875 4 Z M 6 6 L 44 6 L 44 44 L 6 44 Z M 27.9375 19.8125 C 25.824219 19.8125 24.746094 21.160156 24.746094 22.78125 C 24.746094 23.695313 25.269531 24.761719 26.652344 25.601563 C 27.503906 26.15625 27.953125 26.515625 27.953125 27.25 C 27.953125 27.910156 27.503906 28.390625 26.574219 28.390625 C 26.003906 28.390625 25.316406 28.226563 24.910156 28 L 24.625 29.695313 C 24.953125 29.890625 25.75 30.101563 26.5625 30.101563 C 28.539063 30.101563 29.90625 28.886719 29.90625 27.042969 C 29.90625 25.976563 29.410156 24.957031 28.074219 24.144531 C 26.980469 23.484375 26.679688 23.171875 26.679688 22.570313 C 26.679688 22.03125 27.085938 21.519531 27.925781 21.519531 C 28.496094 21.519531 28.929688 21.683594 29.214844 21.863281 L 29.53125 20.171875 C 29.230469 19.992188 28.597656 19.8125 27.9375 19.8125 Z M 21.550781 19.902344 L 21.550781 26.875 C 21.550781 28.179688 21.070313 28.40625 20.5 28.40625 C 20.246094 28.40625 20.050781 28.390625 19.855469 28.332031 L 19.6875 29.980469 C 19.914063 30.070313 20.273438 30.128906 20.679688 30.128906 C 22.121094 30.128906 23.53125 29.695313 23.53125 26.785156 L 23.53125 19.902344 Z"/></svg>