<svg xmlns="http://www.w3.org/2000/svg" viewBox="0 0 50 50" width="50" height="50" fill="#666"><path d="M 11.8125 0 C 11.335938 0.0898438 10.992188 0.511719 11 1 L 11 4.8125 C 11 5.578125 11.25 6.292969 11.65625 7 C 12.0625 7.707031 12.644531 8.378906 13.375 8.84375 C 13.386719 8.855469 13.394531 8.863281 13.40625 8.875 L 20.8125 13.1875 C 20.554688 13.378906 20.402344 13.679688 20.40625 14 L 20.40625 16 C 20.40625 17.542969 21.527344 18.929688 23.0625 19 C 23.050781 19.019531 23.042969 19.042969 23.03125 19.0625 C 23.023438 19.078125 23.007813 19.078125 23 19.09375 L 19.0625 27.0625 L 10.0625 28.40625 C 10.042969 28.40625 10.019531 28.40625 10 28.40625 C 9.277344 28.550781 8.566406 29.117188 8.3125 29.9375 L 8.28125 29.9375 C 8.273438 29.960938 8.289063 29.976563 8.28125 30 C 8.269531 30.039063 8.226563 30.054688 8.21875 30.09375 L 8.28125 30.09375 C 8.011719 30.964844 8.277344 31.808594 8.78125 32.3125 C 8.792969 32.3125 8.800781 32.3125 8.8125 32.3125 L 15.3125 38.5625 L 13.8125 47.3125 C 13.808594 47.324219 13.8125 47.332031 13.8125 47.34375 C 13.660156 48.152344 13.976563 49 14.71875 49.46875 L 14.6875 49.5 C 14.714844 49.519531 14.753906 49.511719 14.78125 49.53125 C 14.808594 49.546875 14.816406 49.578125 14.84375 49.59375 L 14.875 49.5625 C 15.566406 49.980469 16.40625 49.980469 17.0625 49.71875 C 17.09375 49.710938 17.125 49.699219 17.15625 49.6875 L 25.1875 45.53125 L 33.25 49.6875 C 33.6875 49.90625 34.113281 49.90625 34.3125 49.90625 C 34.835938 49.90625 35.167969 49.734375 35.40625 49.65625 C 35.507813 49.621094 35.601563 49.566406 35.6875 49.5 C 36.359375 48.996094 36.734375 48.199219 36.5625 47.34375 L 36.59375 47.34375 L 36.5625 47.25 L 35.09375 38.5625 L 41.59375 32.3125 C 41.707031 32.199219 41.792969 32.058594 41.84375 31.90625 C 41.984375 31.480469 42.171875 30.757813 41.84375 29.9375 C 41.523438 29.140625 40.859375 28.613281 40.15625 28.4375 C 40.117188 28.425781 40.074219 28.414063 40.03125 28.40625 L 31.03125 27.0625 L 27.125 19.09375 C 27.117188 19.078125 27.101563 19.078125 27.09375 19.0625 C 27.074219 19.019531 27.054688 18.976563 27.03125 18.9375 C 28.410156 18.710938 29.40625 17.4375 29.40625 16 L 29.40625 14 C 29.402344 13.726563 29.292969 13.46875 29.09375 13.28125 L 36.59375 8.875 C 36.625 8.855469 36.65625 8.835938 36.6875 8.8125 C 37.347656 8.351563 37.867188 7.726563 38.28125 7.03125 C 38.695313 6.335938 39 5.613281 39 4.8125 L 39 1 C 39 0.449219 38.550781 0 38 0 L 12 0 C 11.96875 0 11.9375 0 11.90625 0 C 11.875 0 11.84375 0 11.8125 0 Z M 13 2 L 37 2 L 37 4.8125 C 37 5.011719 36.847656 5.519531 36.5625 6 C 36.292969 6.453125 35.921875 6.878906 35.59375 7.125 L 35.5625 7.125 L 26.40625 12.53125 C 26.375 12.550781 26.34375 12.570313 26.3125 12.59375 C 25.75 12.988281 24.34375 12.988281 23.78125 12.59375 C 23.75 12.570313 23.71875 12.550781 23.6875 12.53125 L 14.4375 7.15625 C 14.425781 7.148438 14.417969 7.132813 14.40625 7.125 C 14.046875 6.886719 13.667969 6.457031 13.40625 6 C 13.136719 5.53125 13 5.046875 13 4.8125 Z M 22.40625 15 L 27.40625 15 L 27.40625 16 C 27.40625 16.613281 26.992188 17 26.59375 17 L 23.1875 17 C 22.789063 17 22.40625 16.613281 22.40625 16 Z M 25.0625 19.875 C 25.175781 19.875 25.269531 19.878906 25.28125 19.90625 C 25.292969 19.917969 25.300781 19.925781 25.3125 19.9375 L 29.5 28.4375 C 29.640625 28.738281 29.921875 28.949219 30.25 29 L 39.65625 30.375 C 39.75 30.398438 39.886719 30.453125 39.96875 30.65625 C 40.023438 30.792969 39.96875 30.96875 39.9375 31.125 L 33.3125 37.46875 C 33.0625 37.699219 32.941406 38.039063 33 38.375 L 34.625 47.65625 C 34.625 47.6875 34.625 47.71875 34.625 47.75 C 34.613281 47.707031 34.574219 47.78125 34.5625 47.8125 C 34.484375 47.839844 34.355469 47.90625 34.3125 47.90625 C 34.113281 47.90625 34.117188 47.886719 34.15625 47.90625 L 25.65625 43.5 C 25.371094 43.355469 25.035156 43.355469 24.75 43.5 L 16.34375 47.875 C 16.324219 47.882813 16.332031 47.867188 16.3125 47.875 C 16.074219 47.964844 15.980469 47.960938 15.90625 47.90625 C 15.867188 47.871094 15.824219 47.839844 15.78125 47.8125 C 15.777344 47.792969 15.769531 47.75 15.78125 47.6875 C 15.78125 47.675781 15.78125 47.667969 15.78125 47.65625 L 17.375 38.375 C 17.441406 38.042969 17.332031 37.703125 17.09375 37.46875 L 10.21875 30.90625 L 10.1875 30.875 C 10.140625 30.816406 10.101563 30.71875 10.125 30.65625 C 10.148438 30.605469 10.171875 30.554688 10.1875 30.5 C 10.203125 30.425781 10.183594 30.417969 10.40625 30.375 L 19.84375 29 C 20.171875 28.949219 20.453125 28.738281 20.59375 28.4375 L 24.78125 19.9375 C 24.792969 19.925781 24.800781 19.917969 24.8125 19.90625 C 24.824219 19.878906 24.949219 19.875 25.0625 19.875 Z"/></svg>