<svg xmlns="http://www.w3.org/2000/svg" viewBox="0 0 50 50" width="50" height="50" fill="#666"><path d="M 46 0 C 44.058594 0 42.144531 0.796875 40.59375 2.5 C 39.042969 4.203125 37.804688 6.734375 36.875 10.375 C 36.480469 11.914063 36.070313 13.878906 35.75 16 L 29 16 C 26.652344 16 24.238281 16.210938 22.28125 17.375 C 20.324219 18.539063 19 20.753906 19 24 C 19 24.03125 19 24.0625 19 24.09375 C 16.941406 24.144531 15.261719 24.289063 13.9375 24.71875 C 13.070313 25 12.316406 25.449219 11.78125 26.09375 C 11.246094 26.738281 11 27.574219 11 28.46875 C 11 30.285156 11.425781 31.875 12.28125 33.0625 C 13.125 34.234375 14.449219 34.949219 15.9375 34.96875 C 15.707031 39.085938 14.0625 41.203125 12.09375 42.4375 C 9.972656 43.765625 7.398438 44 6 44 L 1 44 C 0.640625 43.996094 0.304688 44.183594 0.121094 44.496094 C -0.0585938 44.808594 -0.0585938 45.191406 0.121094 45.503906 C 0.304688 45.816406 0.640625 46.003906 1 46 L 6 46 C 7.601563 46 10.527344 45.773438 13.15625 44.125 C 15.621094 42.578125 17.714844 39.695313 17.96875 34.96875 C 19.628906 34.96875 22.230469 34.964844 26 34.96875 L 26 44.1875 C 24.144531 44.402344 22.425781 44.785156 21 45.3125 C 19.914063 45.714844 18.988281 46.179688 18.28125 46.75 C 17.574219 47.320313 17 48.0625 17 49 L 17 50 L 41 50 L 41 49 C 41 48.0625 40.425781 47.320313 39.71875 46.75 C 39.011719 46.179688 38.085938 45.714844 37 45.3125 C 35.574219 44.785156 33.855469 44.402344 32 44.1875 L 32 35 C 34.027344 35.003906 37.277344 35 37.53125 35 C 38.847656 35 39.851563 34.128906 40.34375 33.1875 C 40.699219 32.511719 40.863281 31.78125 40.9375 31.09375 C 40.976563 31.023438 41.007813 30.953125 41.03125 30.875 C 41.335938 29.980469 49.011719 7.894531 49.5625 6.3125 C 50.003906 5.042969 50.207031 3.613281 49.71875 2.3125 C 49.230469 1.011719 47.851563 0 46 0 Z M 46 2 C 47.257813 2 47.605469 2.363281 47.84375 3 C 48.082031 3.636719 48.019531 4.703125 47.6875 5.65625 C 47.179688 7.113281 41.054688 24.703125 39.78125 28.375 C 39.347656 28.054688 38.855469 27.765625 38.28125 27.5 C 38.050781 27.390625 37.785156 27.292969 37.53125 27.1875 C 37.519531 27.175781 37.511719 27.167969 37.5 27.15625 C 36.628906 23.253906 37.742188 15.058594 38.8125 10.875 C 39.691406 7.433594 40.867188 5.191406 42.09375 3.84375 C 43.320313 2.496094 44.566406 2 46 2 Z M 29 18 L 35.5 18 C 35.15625 20.9375 35.007813 23.960938 35.34375 26.40625 C 34.589844 26.171875 33.804688 25.957031 32.96875 25.75 C 28.882813 24.742188 24.109375 24.0625 21 24.0625 C 21 24.042969 21 24.019531 21 24 C 21 21.246094 21.90625 19.960938 23.3125 19.125 C 24.71875 18.289063 26.800781 18 29 18 Z M 21 26.0625 C 23.808594 26.0625 28.535156 26.71875 32.46875 27.6875 C 34.433594 28.171875 36.222656 28.746094 37.4375 29.3125 C 38.046875 29.59375 38.527344 29.871094 38.78125 30.09375 C 38.972656 30.257813 39 30.347656 39 30.34375 C 38.996094 30.984375 38.859375 31.773438 38.59375 32.28125 C 38.324219 32.796875 38.082031 33 37.53125 33 C 37.25 33 33.695313 33.003906 31.1875 33 C 31.054688 32.972656 30.914063 32.972656 30.78125 33 C 29.300781 32.996094 28.859375 33.003906 27.15625 33 C 27.050781 32.984375 26.949219 32.984375 26.84375 33 C 22.257813 32.992188 18.566406 32.96875 17.09375 32.96875 C 17.066406 32.96875 16.933594 32.96875 16.90625 32.96875 C 16.78125 32.96875 16.066406 32.96875 16 32.96875 C 15.09375 32.96875 14.441406 32.617188 13.90625 31.875 C 13.371094 31.132813 13 29.96875 13 28.46875 C 13 27.921875 13.128906 27.605469 13.34375 27.34375 C 13.558594 27.082031 13.925781 26.832031 14.5625 26.625 C 15.832031 26.210938 18.035156 26.0625 21 26.0625 Z M 28 35 C 28.925781 35 29.140625 35 30 35 L 30 44.03125 C 29.667969 44.019531 29.335938 44 29 44 C 28.664063 44 28.332031 44.019531 28 44.03125 Z M 29 46 C 31.765625 46 34.421875 46.488281 36.3125 47.1875 C 36.996094 47.441406 37.433594 47.722656 37.875 48 L 20.125 48 C 20.566406 47.722656 21.003906 47.441406 21.6875 47.1875 C 23.578125 46.488281 26.234375 46 29 46 Z"/></svg>