<svg xmlns="http://www.w3.org/2000/svg" viewBox="0 0 50 50" width="50" height="50" fill="#666"><path style="line-height:normal;text-indent:0;text-align:start;text-decoration-line:none;text-decoration-style:solid;text-decoration-color:#000;text-transform:none;block-progression:tb;isolation:auto;mix-blend-mode:normal" d="M 25 2 C 12.354545 2 2 12.354545 2 25 C 2 37.645455 12.354545 48 25 48 C 37.645455 48 48 37.645455 48 25 C 48 12.354545 37.645455 2 25 2 z M 25 4 C 36.554545 4 46 13.445455 46 25 C 46 36.554545 36.554545 46 25 46 C 13.445455 46 4 36.554545 4 25 C 4 13.445455 13.445455 4 25 4 z M 24.208984 8.0019531 C 23.768682 8.0012949 23.297067 8.1218347 22.904297 8.4296875 C 22.380604 8.8401579 22.096166 9.4920216 22.007812 10.228516 A 1.0001 1.0001 0 0 0 22.005859 10.251953 C 21.757224 12.863081 20.761918 14.234435 19.519531 15.382812 C 18.277145 16.531191 16.718144 17.352369 15.546875 18.736328 A 1.0001 1.0001 0 0 0 15.541016 18.744141 C 14.602241 19.879631 13.955893 21.074845 13.375 21.890625 C 13.084554 22.298515 12.812889 22.603715 12.587891 22.775391 C 12.36298 22.947076 12.217476 23 12 23 L 12 25 C 12.686024 25 13.316498 24.734746 13.800781 24.365234 C 14.285064 23.995722 14.657228 23.537641 15.003906 23.050781 C 15.696447 22.078207 16.302178 20.965242 17.080078 20.023438 C 17.080995 20.022337 17.081031 20.020631 17.082031 20.019531 C 17.900043 19.057134 19.410105 18.207417 20.876953 16.851562 C 22.347067 15.492691 23.702729 13.522279 23.996094 10.441406 L 23.994141 10.466797 C 24.041291 10.073791 24.13999 10.002873 24.138672 10.003906 C 24.137372 10.004906 24.135172 9.9833826 24.28125 10.009766 C 24.573402 10.062446 25.191871 10.502834 25.386719 10.84375 A 1.0001 1.0001 0 0 0 25.392578 10.855469 C 25.79108 11.5297 25.830958 12.518107 25.583984 13.654297 C 25.337011 14.790487 24.822159 16.01123 24.339844 17.019531 A 1.0001 1.0001 0 0 0 24.330078 17.041016 C 24.073864 17.610484 23.94785 18.182251 24.023438 18.746094 C 24.099027 19.309937 24.406078 19.826996 24.808594 20.167969 C 25.613626 20.849915 26.653677 21.001953 27.777344 21.001953 L 33.001953 21.001953 C 33.682522 21.001953 34.141816 21.14969 34.353516 21.283203 C 34.565215 21.416716 34.554688 21.440964 34.554688 21.550781 C 34.554688 22.105653 34.384766 23.294922 34.384766 23.294922 A 1.0001 1.0001 0 0 0 35.058594 24.396484 C 35.058594 24.396484 36 24.655901 36 25.615234 C 36 26.52363 35.107422 26.980469 35.107422 26.980469 A 1.0001 1.0001 0 0 0 35.203125 28.810547 C 35.203125 28.810547 36 29.044729 36 29.953125 C 36 30.377236 35.761901 30.683845 35.421875 30.958984 C 35.081849 31.234124 34.748047 31.367187 34.748047 31.367188 A 1.0001 1.0001 0 0 0 34.302734 32.900391 C 34.302734 32.900391 34.644531 33.387093 34.644531 34.017578 C 34.644531 34.260171 34.63943 34.385057 34.59375 34.501953 C 34.54812 34.61885 34.475307 34.767131 34.101562 34.992188 C 33.35407 35.442258 31.363142 36 27.152344 36 C 21.518905 36 19.087013 35.516765 17.410156 35.039062 C 15.7333 34.56136 14.57614 34 12 34 L 12 36 C 14.30286 36 15.029888 36.43864 16.863281 36.960938 C 18.696675 37.483235 21.401782 38 27.152344 38 C 31.524546 38 33.779551 37.519966 35.132812 36.705078 C 35.809444 36.297634 36.251319 35.755494 36.457031 35.228516 C 36.662743 34.701537 36.644531 34.226985 36.644531 34.017578 C 36.644531 33.484317 36.492531 33.083387 36.353516 32.707031 C 36.505048 32.612391 36.517044 32.645281 36.679688 32.513672 C 37.288161 32.021312 38 31.155014 38 29.953125 C 38 28.991487 37.573114 28.325317 37.113281 27.841797 C 37.568652 27.325529 38 26.607825 38 25.615234 C 38 24.050864 37.107053 23.344962 36.423828 22.943359 C 36.480848 22.53803 36.554688 22.155148 36.554688 21.550781 C 36.554688 20.756598 36.080676 20.007284 35.421875 19.591797 C 34.763074 19.17631 33.947384 19.001953 33.001953 19.001953 L 27.777344 19.001953 C 26.90101 19.001953 26.267781 18.781429 26.101562 18.640625 C 26.018452 18.570225 26.017049 18.563975 26.005859 18.480469 C 25.994669 18.396969 26.004059 18.195359 26.154297 17.861328 C 26.663667 16.794931 27.236636 15.469426 27.539062 14.078125 C 27.842778 12.680901 27.889208 11.157827 27.117188 9.8457031 C 26.588646 8.9252954 25.71775 8.2363144 24.634766 8.0410156 C 24.499035 8.0165388 24.355752 8.0021725 24.208984 8.0019531 z"/></svg>