<svg xmlns="http://www.w3.org/2000/svg" viewBox="0 0 50 50" width="50" height="50" fill="#666"><path d="M 5.953125 4 C 5.441406 4 4.921875 4.1875 4.554688 4.554688 C 4.1875 4.921875 4 5.441406 4 5.953125 L 4 44.046875 C 4 44.554688 4.1875 45.078125 4.554688 45.445313 C 4.921875 45.8125 5.441406 46 5.953125 46 L 44.046875 46 C 44.554688 46 45.078125 45.8125 45.445313 45.445313 C 45.8125 45.078125 46 44.558594 46 44.046875 L 46 5.953125 C 46 5.441406 45.8125 4.921875 45.445313 4.554688 C 45.078125 4.1875 44.558594 4 44.046875 4 Z M 6 6 L 44 6 L 44 44 L 6 44 Z M 14.351563 19.890625 L 16.164063 24.824219 L 14.277344 30 L 16.222656 30 L 16.765625 28.171875 C 16.914063 27.601563 17.078125 26.984375 17.246094 26.339844 L 17.273438 26.339844 C 17.453125 26.984375 17.621094 27.554688 17.8125 28.140625 L 18.457031 30 L 20.484375 30 L 18.488281 24.914063 L 20.378906 19.890625 L 18.417969 19.890625 L 17.90625 21.734375 C 17.769531 22.289063 17.652344 22.769531 17.484375 23.386719 L 17.453125 23.386719 C 17.289063 22.816406 17.15625 22.289063 16.988281 21.765625 L 16.40625 19.890625 Z M 21.65625 19.890625 L 20.921875 30 L 22.613281 30 L 22.78125 26.488281 C 22.839844 25.484375 22.898438 24.207031 22.929688 23.113281 L 22.972656 23.113281 C 23.125 24.207031 23.394531 25.46875 23.589844 26.28125 L 24.429688 29.832031 L 25.824219 29.832031 L 26.691406 26.21875 C 26.890625 25.441406 27.160156 24.195313 27.339844 23.113281 L 27.386719 23.113281 C 27.355469 24.195313 27.429688 25.5 27.472656 26.460938 L 27.65625 30 L 29.40625 30 L 28.796875 19.890625 L 26.722656 19.890625 L 25.929688 23.550781 C 25.660156 24.824219 25.433594 25.964844 25.28125 27.089844 L 25.253906 27.089844 C 25.074219 25.949219 24.816406 24.824219 24.53125 23.550781 L 23.722656 19.890625 Z M 30.847656 19.890625 L 30.847656 30 L 35.410156 30 L 35.410156 28.335938 L 32.8125 28.335938 L 32.8125 19.890625 Z"/></svg>