<svg xmlns="http://www.w3.org/2000/svg" viewBox="0 0 50 50" width="50" height="50" fill="#666"><path d="M 13 3 C 10.25 3 8 5.25 8 8 C 8 10.40625 9.726563 12.4375 12 12.90625 L 12 37.09375 C 9.726563 37.5625 8 39.59375 8 42 C 8 44.75 10.25 47 13 47 C 15.75 47 18 44.75 18 42 C 18 39.605469 16.289063 37.574219 14.03125 37.09375 C 14.21875 33.695313 15.445313 31.957031 17.28125 30.78125 C 19.28125 29.503906 22.15625 28.964844 25.15625 28.46875 C 28.15625 27.972656 31.28125 27.503906 33.78125 25.90625 C 36.105469 24.421875 37.714844 21.859375 37.9375 17.90625 C 40.238281 17.460938 42 15.425781 42 13 C 42 10.25 39.75 8 37 8 C 34.25 8 32 10.25 32 13 C 32 15.394531 33.710938 17.425781 35.96875 17.90625 C 35.78125 21.300781 34.554688 23.046875 32.71875 24.21875 C 30.71875 25.492188 27.84375 26.003906 24.84375 26.5 C 21.84375 26.996094 18.71875 27.496094 16.21875 29.09375 C 15.375 29.632813 14.628906 30.324219 14 31.15625 L 14 12.90625 C 16.273438 12.4375 18 10.40625 18 8 C 18 5.25 15.75 3 13 3 Z M 13 5 C 14.667969 5 16 6.332031 16 8 C 16 9.667969 14.667969 11 13 11 C 11.332031 11 10 9.667969 10 8 C 10 6.332031 11.332031 5 13 5 Z M 37 10 C 38.667969 10 40 11.332031 40 13 C 40 14.667969 38.667969 16 37 16 C 35.332031 16 34 14.667969 34 13 C 34 11.332031 35.332031 10 37 10 Z M 13 39 C 14.667969 39 16 40.332031 16 42 C 16 43.667969 14.667969 45 13 45 C 11.332031 45 10 43.667969 10 42 C 10 40.332031 11.332031 39 13 39 Z"/></svg>