<svg xmlns="http://www.w3.org/2000/svg" viewBox="0 0 50 50" width="50" height="50" fill="#666"><path d="M 24.875 0 C 24.511719 0.0429688 24.199219 0.28125 24.0625 0.625 L 17.8125 16.125 L 1.15625 17.28125 C 0.757813 17.320313 0.421875 17.589844 0.296875 17.972656 C 0.175781 18.351563 0.292969 18.769531 0.59375 19.03125 L 13.40625 29.75 L 9.34375 45.96875 C 9.242188 46.363281 9.394531 46.78125 9.722656 47.023438 C 10.054688 47.261719 10.496094 47.277344 10.84375 47.0625 L 25 38.1875 L 39.15625 47.0625 C 39.503906 47.277344 39.945313 47.261719 40.277344 47.023438 C 40.605469 46.78125 40.757813 46.363281 40.65625 45.96875 L 36.59375 29.75 L 49.40625 19.03125 C 49.707031 18.769531 49.824219 18.351563 49.703125 17.972656 C 49.578125 17.589844 49.242188 17.320313 48.84375 17.28125 L 32.1875 16.125 L 25.9375 0.625 C 25.769531 0.195313 25.332031 -0.0625 24.875 0 Z M 25 3.71875 L 30.53125 17.46875 C 30.675781 17.828125 31.019531 18.074219 31.40625 18.09375 L 46.1875 19.09375 L 34.8125 28.625 C 34.515625 28.878906 34.394531 29.28125 34.5 29.65625 L 38.125 44.0625 L 25.53125 36.15625 C 25.207031 35.953125 24.792969 35.953125 24.46875 36.15625 L 11.875 44.0625 L 15.5 29.65625 C 15.605469 29.28125 15.484375 28.878906 15.1875 28.625 L 3.8125 19.09375 L 18.59375 18.09375 C 18.980469 18.074219 19.324219 17.828125 19.46875 17.46875 Z"/></svg>