<svg xmlns="http://www.w3.org/2000/svg" viewBox="0 0 50 50" width="50" height="50" fill="#666"><path style="line-height:normal;text-indent:0;text-align:start;text-decoration-line:none;text-decoration-style:solid;text-decoration-color:#000;text-transform:none;block-progression:tb;isolation:auto;mix-blend-mode:normal" d="M 9 4 C 6.2504839 4 4 6.2504839 4 9 L 4 41 C 4 43.749516 6.2504839 46 9 46 L 41 46 C 43.749516 46 46 43.749516 46 41 L 46 9 C 46 6.2504839 43.749516 4 41 4 L 9 4 z M 9 6 L 41 6 C 42.668484 6 44 7.3315161 44 9 L 44 41 C 44 42.668484 42.668484 44 41 44 L 9 44 C 7.3315161 44 6 42.668484 6 41 L 6 9 C 6 7.3315161 7.3315161 6 9 6 z M 26.173828 11 C 22.039828 11 22 21.271 22 21.375 C 22 22.583 21.999078 23.375 22.080078 24.375 C 21.511078 24.178 20.849953 24.052734 20.126953 24.052734 C 15.880953 24.052734 14 28.376875 14 32.046875 C 14 35.507875 16.055391 39 20.650391 39 C 22.817391 39 24.650047 37.659203 26.123047 35.658203 C 27.429047 36.938203 28.796312 36.980469 29.820312 36.980469 C 33.036312 36.980469 35.165641 31.17775 35.931641 28.84375 C 36.175641 28.09675 35.743844 27.300453 34.964844 27.064453 C 34.192844 26.832453 33.355328 27.243234 33.111328 27.990234 C 32.206328 30.746234 31.254 33.28 29.75 34 C 29.225 34.251 28.418 33.924 27.625 32.875 C 29.468 29.148 30 24.621 30 21.5 C 30 12.774 28.135828 11 26.173828 11 z M 26.291016 14.046875 C 26.757016 14.711875 27.044922 16.736047 27.044922 21.498047 C 27.043922 24.026047 26.924234 27.018797 25.990234 29.591797 C 25.374234 27.590797 24.957031 24.892047 24.957031 21.373047 C 24.957031 18.129047 25.682016 15.087875 26.291016 14.046875 z M 20.125 27 C 21.384 27 22.349609 27.808547 22.349609 27.810547 C 22.421609 27.882547 22.500031 27.945 22.582031 28 C 22.995031 29.973 23.630734 31.926734 24.302734 33.177734 C 23.200734 34.979734 21.896 36 20.625 36 C 17.29 36 17 33.362 17 32.125 C 17 31.93 16.939 27 20.125 27 z"/></svg>