<svg xmlns="http://www.w3.org/2000/svg" viewBox="0 0 50 50" width="50" height="50" fill="#666"><path style="line-height:normal;text-indent:0;text-align:start;text-decoration-line:none;text-decoration-style:solid;text-decoration-color:#000;text-transform:none;block-progression:tb;isolation:auto;mix-blend-mode:normal" d="M 6 4 C 4.9069372 4 4 4.9069372 4 6 L 4 44 C 4 45.093063 4.9069372 46 6 46 L 44 46 C 45.093063 46 46 45.093063 46 44 L 46 6 C 46 4.9069372 45.093063 4 44 4 L 6 4 z M 6 6 L 44 6 L 44 44 L 6 44 L 6 6 z M 17 14 L 17.035156 36 L 19.5 36 L 19.5 14 L 17 14 z M 31.5 14 L 31.5 21.867188 L 31.5 21.875 C 30.893 20.564 29.823125 20 28.703125 20 C 26.303125 20 24 22.372 24 27.875 C 24 32.996 25.856469 36.3125 28.480469 36.3125 C 30.111469 36.3125 31.02 35.463 31.5 34.375 L 31.5 36 L 34 36 C 33.968 35.104 34 33.681 34 32.625 L 34 14 L 31.5 14 z M 29.246094 22.111328 C 30.430094 22.111328 31.358328 23.525 31.486328 25.125 C 31.518328 25.476 31.486328 25.8685 31.486328 26.1875 L 31.486328 30.75 C 31.486328 30.75 31.457328 31.337 31.361328 31.625 C 30.817328 33.864 29.824641 34.263672 29.056641 34.263672 C 27.264641 34.263672 26.462891 31.139 26.462891 27.875 C 26.462891 24.772 27.198094 22.111328 29.246094 22.111328 z"/></svg>