<svg xmlns="http://www.w3.org/2000/svg" viewBox="0 0 50 50" width="50" height="50" fill="#666"><path d="M 4 6 L 4 12 C 3.9375 12.308594 3 16.839844 3 19.5 C 3 20.878906 3.269531 22.195313 4 23.25 L 4 48 L 46 48 L 46 23.25 C 46.730469 22.195313 47 20.878906 47 19.5 C 47 16.867188 46.082031 12.464844 46 12.0625 C 46 12.042969 46 12.019531 46 12 L 46 6 Z M 6 8 L 44 8 L 44 11 L 39.1875 11 C 39.054688 10.972656 38.914063 10.972656 38.78125 11 L 32.21875 11 C 32.117188 10.972656 32.011719 10.960938 31.90625 10.96875 C 31.875 10.976563 31.84375 10.988281 31.8125 11 L 25.21875 11 C 25.117188 10.972656 25.011719 10.960938 24.90625 10.96875 C 24.875 10.976563 24.84375 10.988281 24.8125 11 L 18.21875 11 C 18.117188 10.972656 18.011719 10.960938 17.90625 10.96875 C 17.875 10.976563 17.84375 10.988281 17.8125 11 L 11.21875 11 C 11.117188 10.972656 11.011719 10.960938 10.90625 10.96875 C 10.875 10.976563 10.84375 10.988281 10.8125 11 L 6 11 Z M 5.875 13 L 10 13 L 10 21.875 C 9.359375 22.550781 8.496094 23 7.5 23 C 6.726563 23 6.238281 22.804688 5.875 22.4375 C 5.8125 22.316406 5.730469 22.210938 5.625 22.125 C 5.226563 21.550781 5 20.605469 5 19.5 C 5 17.527344 5.703125 13.917969 5.875 13 Z M 12 13 L 17 13 L 17 21.875 C 16.359375 22.550781 15.496094 23 14.5 23 C 13.503906 23 12.640625 22.550781 12 21.875 Z M 19 13 L 24 13 L 24 21.875 C 23.359375 22.550781 22.496094 23 21.5 23 C 20.503906 23 19.640625 22.550781 19 21.875 Z M 26 13 L 31 13 L 31 21.90625 C 30.363281 22.574219 29.492188 23 28.5 23 C 27.503906 23 26.640625 22.550781 26 21.875 Z M 33 13 L 38 13 L 38 21.90625 C 37.363281 22.574219 36.492188 23 35.5 23 C 34.507813 23 33.636719 22.574219 33 21.90625 Z M 40 13 L 44.125 13 C 44.296875 13.917969 45 17.527344 45 19.5 C 45 20.484375 44.820313 21.324219 44.5 21.90625 C 44.265625 22.042969 44.097656 22.269531 44.03125 22.53125 C 43.679688 22.839844 43.207031 23 42.5 23 C 41.507813 23 40.636719 22.574219 40 21.90625 Z M 32 23.53125 C 32.960938 24.371094 34.121094 25 35.5 25 C 36.878906 25 38.039063 24.371094 39 23.53125 C 39.960938 24.371094 41.121094 25 42.5 25 C 43.03125 25 43.542969 24.90625 44 24.75 L 44 46 L 41 46 L 41 28 L 30 28 L 30 46 L 6 46 L 6 24.75 C 6.457031 24.90625 6.96875 25 7.5 25 C 8.875 25 10.039063 24.398438 11 23.5625 C 11.960938 24.398438 13.125 25 14.5 25 C 15.875 25 17.039063 24.398438 18 23.5625 C 18.960938 24.398438 20.125 25 21.5 25 C 22.875 25 24.039063 24.398438 25 23.5625 C 25.960938 24.398438 27.125 25 28.5 25 C 29.878906 25 31.039063 24.371094 32 23.53125 Z M 9 28 L 9 43 L 27 43 L 27 28 Z M 11 30 L 25 30 L 25 41 L 11 41 Z M 32 30 L 39 30 L 39 46 L 32 46 Z"/></svg>