<svg xmlns="http://www.w3.org/2000/svg" viewBox="0 0 50 50" width="50" height="50" fill="#666"><path d="M 39 6 C 37.210938 6 35.421875 6.671875 34.0625 8.03125 L 14.21875 27.90625 C 14.148438 27.960938 14.085938 28.023438 14.03125 28.09375 C 14.007813 28.113281 13.988281 28.132813 13.96875 28.15625 C 13.921875 28.195313 13.882813 28.234375 13.84375 28.28125 C 13.84375 28.292969 13.84375 28.300781 13.84375 28.3125 C 12.105469 30.265625 12.160156 33.285156 14.03125 35.15625 C 15.972656 37.097656 19.152344 37.097656 21.09375 35.15625 L 36.1875 20.03125 C 36.484375 19.746094 36.574219 19.304688 36.414063 18.925781 C 36.257813 18.546875 35.878906 18.304688 35.46875 18.3125 C 35.207031 18.324219 34.960938 18.433594 34.78125 18.625 L 19.6875 33.71875 C 18.511719 34.894531 16.613281 34.894531 15.4375 33.71875 C 14.300781 32.582031 14.28125 30.804688 15.34375 29.625 C 15.378906 29.585938 15.410156 29.542969 15.4375 29.5 C 15.460938 29.480469 15.480469 29.460938 15.5 29.4375 L 15.59375 29.375 C 15.59375 29.363281 15.59375 29.355469 15.59375 29.34375 L 35.5 9.46875 C 37.453125 7.515625 40.574219 7.511719 42.53125 9.46875 C 44.484375 11.421875 44.484375 14.546875 42.53125 16.5 L 17.90625 41.125 C 15.171875 43.859375 10.765625 43.859375 8.03125 41.125 C 5.296875 38.390625 5.296875 33.984375 8.03125 31.25 L 27.71875 11.5625 C 28.015625 11.320313 28.152344 10.933594 28.066406 10.558594 C 27.980469 10.1875 27.6875 9.894531 27.316406 9.808594 C 26.941406 9.722656 26.554688 9.859375 26.3125 10.15625 L 6.625 29.84375 C 3.128906 33.339844 3.125 39.066406 6.625 42.5625 C 10.125 46.058594 15.816406 46.058594 19.3125 42.5625 L 43.96875 17.9375 C 46.6875 15.21875 46.6875 10.75 43.96875 8.03125 C 42.609375 6.671875 40.789063 6 39 6 Z"/></svg>