<svg xmlns="http://www.w3.org/2000/svg" viewBox="0 0 50 50" width="50" height="50" fill="#666"><path d="M 2.8125 0 C 1.277344 0 0 1.277344 0 2.8125 L 0 7.8125 C -0.0078125 7.875 -0.0078125 7.9375 0 8 L 0 40 C 0 40.550781 0.449219 41 1 41 L 24 41 C 24.359375 41.003906 24.695313 40.816406 24.878906 40.503906 C 25.058594 40.191406 25.058594 39.808594 24.878906 39.496094 C 24.695313 39.183594 24.359375 38.996094 24 39 L 2 39 L 2 9 L 42 9 L 42 22 C 41.996094 22.359375 42.183594 22.695313 42.496094 22.878906 C 42.808594 23.058594 43.191406 23.058594 43.503906 22.878906 C 43.816406 22.695313 44.003906 22.359375 44 22 L 44 8 C 44.007813 7.9375 44.007813 7.875 44 7.8125 L 44 2.8125 C 44 1.277344 42.722656 0 41.1875 0 Z M 2.8125 2 L 41.1875 2 C 41.652344 2 42 2.347656 42 2.8125 L 42 7 L 2 7 L 2 2.8125 C 2 2.347656 2.347656 2 2.8125 2 Z M 7 15 L 7 17 L 11 17 L 11 15 Z M 14 15 L 14 17 L 37 17 L 37 15 Z M 7 20 L 7 22 L 11 22 L 11 20 Z M 14 20 L 14 22 L 37 22 L 37 20 Z M 45.90625 24.90625 C 44.855469 24.90625 43.800781 25.292969 43 26.09375 L 42.3125 26.8125 L 42.34375 26.84375 L 26.90625 42.28125 C 26.777344 42.398438 26.679688 42.550781 26.625 42.71875 L 24.9375 48.71875 C 24.835938 49.066406 24.925781 49.441406 25.179688 49.703125 C 25.433594 49.960938 25.804688 50.0625 26.15625 49.96875 L 32.15625 48.375 C 32.324219 48.320313 32.476563 48.222656 32.59375 48.09375 L 48.40625 32.40625 C 48.527344 32.304688 48.625 32.175781 48.6875 32.03125 C 48.6875 32.019531 48.6875 32.011719 48.6875 32 L 48.8125 31.90625 C 50.414063 30.304688 50.414063 27.695313 48.8125 26.09375 C 48.011719 25.292969 46.957031 24.90625 45.90625 24.90625 Z M 7 25 L 7 27 L 11 27 L 11 25 Z M 14 25 L 14 27 L 37 27 L 37 25 Z M 43.75 28.25 L 46.75 31.25 L 31.40625 46.5 L 28.46875 43.65625 L 28.5 43.53125 Z M 7 30 L 7 32 L 11 32 L 11 30 Z M 14 30 L 14 32 L 33 32 L 33 30 Z"/></svg>