<svg xmlns="http://www.w3.org/2000/svg" viewBox="0 0 50 50" width="50" height="50" fill="#666"><path d="M 2.84375 2 C 1.285156 2 0 3.285156 0 4.84375 L 0 9.8125 C -0.00390625 9.855469 -0.00390625 9.894531 0 9.9375 L 0 47 C 0 47.550781 0.449219 48 1 48 L 49 48 C 49.550781 48 50 47.550781 50 47 L 50 10 C 50 9.96875 50 9.9375 50 9.90625 L 50 4.84375 C 50 3.285156 48.714844 2 47.15625 2 Z M 2.84375 4 L 47.15625 4 C 47.636719 4 48 4.363281 48 4.84375 L 48 9 L 2 9 L 2 4.84375 C 2 4.363281 2.363281 4 2.84375 4 Z M 2 11 L 48 11 L 48 46 L 2 46 Z M 13.59375 17.59375 C 12.632813 17.59375 11.761719 17.765625 11 18.125 C 10.238281 18.484375 9.589844 18.980469 9.0625 19.59375 C 8.535156 20.207031 8.125 20.902344 7.84375 21.71875 C 7.5625 22.535156 7.4375 23.402344 7.4375 24.3125 C 7.4375 25.234375 7.5625 26.121094 7.84375 26.9375 C 8.125 27.753906 8.535156 28.449219 9.0625 29.0625 C 9.589844 29.675781 10.238281 30.175781 11 30.53125 C 11.761719 30.882813 12.632813 31.0625 13.59375 31.0625 C 14.375 31.0625 15.070313 30.941406 15.71875 30.6875 C 16.367188 30.433594 16.957031 30.054688 17.4375 29.59375 C 17.917969 29.132813 18.28125 28.605469 18.5625 27.96875 C 18.84375 27.332031 19.015625 26.613281 19.0625 25.84375 L 16.875 25.84375 C 16.828125 26.3125 16.71875 26.75 16.5625 27.15625 C 16.40625 27.5625 16.183594 27.941406 15.90625 28.25 C 15.628906 28.554688 15.320313 28.792969 14.9375 28.96875 C 14.554688 29.144531 14.097656 29.21875 13.59375 29.21875 C 12.910156 29.21875 12.308594 29.089844 11.8125 28.8125 C 11.316406 28.539063 10.90625 28.148438 10.59375 27.6875 C 10.28125 27.226563 10.054688 26.714844 9.90625 26.125 C 9.757813 25.535156 9.6875 24.921875 9.6875 24.3125 C 9.6875 23.699219 9.757813 23.121094 9.90625 22.53125 C 10.054688 21.941406 10.28125 21.398438 10.59375 20.9375 C 10.90625 20.476563 11.316406 20.121094 11.8125 19.84375 C 12.308594 19.570313 12.910156 19.4375 13.59375 19.4375 C 14.0625 19.4375 14.457031 19.5 14.8125 19.625 C 15.167969 19.75 15.484375 19.925781 15.75 20.15625 C 16.015625 20.382813 16.238281 20.65625 16.40625 20.96875 C 16.574219 21.28125 16.683594 21.597656 16.78125 21.96875 L 19.03125 21.96875 C 18.960938 21.273438 18.800781 20.664063 18.5 20.125 C 18.199219 19.585938 17.796875 19.128906 17.3125 18.75 C 16.828125 18.371094 16.261719 18.074219 15.625 17.875 C 14.988281 17.679688 14.3125 17.59375 13.59375 17.59375 Z M 24.34375 17.59375 L 29.53125 31.0625 L 31.46875 31.0625 L 26.3125 17.59375 Z M 21 21.65625 L 21 24.0625 L 23.5 24.0625 L 23.5 21.65625 Z M 21 28.3125 L 21 30.75 L 23.5 30.75 L 23.5 28.3125 Z"/></svg>