<svg xmlns="http://www.w3.org/2000/svg" viewBox="0 0 50 50" width="50" height="50" fill="#666"><path style="line-height:normal;text-indent:0;text-align:start;text-decoration-line:none;text-decoration-style:solid;text-decoration-color:#000;text-transform:none;block-progression:tb;isolation:auto;mix-blend-mode:normal" d="M 25 2 C 12.309295 2 2 12.309295 2 25 C 2 37.690705 12.309295 48 25 48 C 37.690705 48 48 37.690705 48 25 C 48 12.309295 37.690705 2 25 2 z M 25 4 C 36.609824 4 46 13.390176 46 25 C 46 36.609824 36.609824 46 25 46 C 13.390176 46 4 36.609824 4 25 C 4 13.390176 13.390176 4 25 4 z M 25.570312 11 C 17.925312 11 13 16.419438 13 21.648438 C 13 26.750438 15.824016 27.948016 16.416016 28.291016 C 17.007016 28.637016 17.426594 28.393828 17.558594 27.923828 L 17.914062 26.498047 C 17.914062 26.498047 18.078953 26.119609 17.751953 25.724609 C 17.348953 25.238609 16.478516 24.353438 16.478516 22.148438 C 16.478516 18.216438 19.582937 13.933594 25.210938 13.933594 C 30.734938 13.933594 32.626953 17.530812 32.626953 20.507812 C 32.626953 24.209812 30.853375 29.744141 27.109375 29.744141 C 24.784375 29.744141 24.115234 27.950266 24.115234 27.072266 C 24.100234 26.775266 24.168266 26.475984 24.197266 26.333984 C 24.226266 26.192984 25.171656 23.182375 25.472656 22.109375 C 26.148656 19.704375 25.570375 17.703125 23.359375 17.703125 C 20.242375 17.703125 19.120281 22.090484 20.488281 24.896484 L 18.263672 34.003906 C 18.263672 34.003906 17.956484 35.495 17.896484 36.375 C 17.804484 37.726 17.9965 39.724312 18.0625 40.320312 C 18.1105 40.752313 18.111594 40.959047 18.308594 40.998047 C 18.505594 41.036047 18.840328 40.702734 19.111328 40.302734 C 19.451328 39.798734 20.608125 38.165953 21.078125 37.126953 C 21.497125 36.199953 21.571859 36.176156 22.005859 34.535156 C 22.439859 32.893156 23.025391 30.585938 23.025391 30.585938 C 23.025391 30.585938 24.245969 32.722656 27.542969 32.722656 C 32.231969 32.722656 37 28.639859 37 21.005859 C 37 14.817859 31.639313 11 25.570312 11 z"/></svg>