<svg xmlns="http://www.w3.org/2000/svg" viewBox="0 0 50 50" width="50" height="50" fill="#666"><path d="M 7 2 L 7 48 L 43 48 L 43 14.59375 L 42.71875 14.28125 L 30.71875 2.28125 L 30.40625 2 Z M 9 4 L 29 4 L 29 16 L 41 16 L 41 46 L 9 46 Z M 31 5.4375 L 39.5625 14 L 31 14 Z M 14 10 L 14 12 L 27 12 L 27 10 Z M 14 14 L 14 16 L 27 16 L 27 14 Z M 14 18 L 14 20 L 37 20 L 37 18 Z M 14 22 L 14 24 L 37 24 L 37 22 Z M 14 26 L 14 28 L 37 28 L 37 26 Z M 20.15625 30.5625 C 19.019531 30.5625 18.09375 31.289063 17.46875 32.21875 C 16.84375 33.148438 16.46875 34.34375 16.46875 35.65625 C 16.46875 36.757813 16.8125 37.953125 17.46875 38.96875 C 17.554688 39.101563 17.710938 39.183594 17.8125 39.3125 C 17.488281 39.601563 16.875 40.21875 16.875 40.21875 C 16.554688 40.414063 16.367188 40.769531 16.394531 41.144531 C 16.417969 41.519531 16.652344 41.847656 17 41.996094 C 17.34375 42.144531 17.742188 42.085938 18.03125 41.84375 C 18.03125 41.84375 18.871094 41.027344 19.46875 40.5 C 19.835938 40.644531 20.167969 40.875 20.59375 40.875 C 23.117188 40.875 24.789063 39.515625 25.75 38.28125 C 26.03125 37.917969 26.183594 37.65625 26.375 37.34375 C 26.445313 37.558594 26.507813 37.761719 26.59375 37.96875 C 26.65625 38.117188 26.726563 38.265625 26.84375 38.4375 C 26.960938 38.609375 27.183594 39 27.8125 39 C 28.480469 39 28.890625 38.679688 29.28125 38.40625 C 29.671875 38.132813 30.023438 37.828125 30.40625 37.53125 C 31.171875 36.933594 31.941406 36.46875 32.5 36.46875 C 32.859375 36.472656 33.195313 36.285156 33.378906 35.972656 C 33.558594 35.660156 33.558594 35.277344 33.378906 34.964844 C 33.195313 34.652344 32.859375 34.464844 32.5 34.46875 C 31.09375 34.46875 30.027344 35.28125 29.1875 35.9375 C 28.828125 36.21875 28.539063 36.464844 28.28125 36.65625 C 28.25 36.5625 28.222656 36.507813 28.1875 36.40625 C 28.078125 36.085938 27.941406 35.761719 27.78125 35.4375 C 27.699219 35.273438 27.628906 35.085938 27.46875 34.90625 C 27.308594 34.726563 27.003906 34.46875 26.53125 34.46875 C 25.882813 34.46875 25.660156 34.863281 25.5 35.0625 C 25.339844 35.261719 25.21875 35.441406 25.09375 35.65625 C 24.839844 36.082031 24.558594 36.585938 24.1875 37.0625 C 23.515625 37.925781 22.554688 38.636719 21.03125 38.78125 C 22.058594 37.398438 22.96875 35.675781 22.96875 33.59375 C 22.96875 32.917969 22.84375 32.179688 22.375 31.5625 C 21.90625 30.945313 21.074219 30.5625 20.15625 30.5625 Z M 20.15625 32.5625 C 20.59375 32.5625 20.675781 32.644531 20.78125 32.78125 C 20.886719 32.917969 20.96875 33.214844 20.96875 33.59375 C 20.96875 35.1875 20.101563 36.683594 19.15625 37.875 C 18.738281 37.226563 18.46875 36.316406 18.46875 35.65625 C 18.46875 34.738281 18.746094 33.878906 19.125 33.3125 C 19.503906 32.746094 19.9375 32.5625 20.15625 32.5625 Z"/></svg>