<svg xmlns="http://www.w3.org/2000/svg" viewBox="0 0 50 50" width="50" height="50" fill="#666"><path d="M 20.09375 0.78125 C 19.148438 0.75 18.125 1.007813 17.625 1.90625 C 17.066406 2.886719 17.203125 4.09375 17.78125 4.90625 C 17.863281 5.019531 17.972656 5.113281 18.0625 5.21875 C 17.226563 5.203125 16.472656 5.292969 15.8125 5.5 C 15.355469 5.644531 14.941406 5.835938 14.59375 6.1875 C 14.246094 6.539063 14 7.070313 14 7.59375 C 14 8.621094 14.472656 9.53125 15.15625 10.15625 C 15.839844 10.78125 16.695313 11.195313 17.625 11.5625 C 19.484375 12.292969 21.707031 12.824219 23.59375 13.625 C 23.605469 13.625 23.613281 13.625 23.625 13.625 C 25.578125 14.4375 27.160156 15.292969 28.09375 15.8125 C 27.632813 17.210938 27.082031 17.828125 26.40625 18.15625 C 25.707031 18.496094 24.71875 18.546875 23.46875 18.46875 C 20.972656 18.3125 17.539063 17.648438 13.96875 19.40625 C 9.371094 21.679688 6.898438 25.296875 5.84375 28.84375 C 5.304688 30.660156 5.109375 32.441406 5.15625 34.0625 C 2.796875 34.367188 1 36.246094 1 38.5 C 1 40.960938 3.039063 43 5.5 43 C 6.570313 43 7.691406 42.640625 8.6875 42.0625 C 8.617188 42.625 8.457031 43.347656 8.15625 44.28125 C 7.976563 44.839844 7.929688 45.429688 8.09375 45.96875 C 8.257813 46.507813 8.628906 46.941406 9.0625 47.21875 C 9.925781 47.773438 10.980469 47.910156 12.1875 47.96875 C 14.59375 48.085938 17.714844 47.738281 20.59375 47.6875 L 20.625 47.6875 C 23.074219 47.6875 26.949219 47.886719 30.21875 47.9375 C 31.859375 47.960938 33.332031 47.976563 34.46875 47.875 C 35.035156 47.824219 35.507813 47.757813 35.9375 47.625 C 36.152344 47.558594 36.363281 47.457031 36.59375 47.28125 C 36.683594 47.210938 36.789063 47.121094 36.875 47 C 36.921875 47.050781 36.949219 47.105469 37 47.15625 C 37.5 47.644531 38.253906 47.90625 39.09375 47.90625 C 40.835938 47.90625 42.554688 47.921875 43.90625 47.84375 C 44.582031 47.804688 45.179688 47.765625 45.6875 47.625 C 45.941406 47.554688 46.175781 47.445313 46.4375 47.25 C 46.699219 47.054688 47 46.640625 47 46.1875 C 47 44.921875 46.59375 43.914063 45.9375 43.21875 C 45.28125 42.523438 44.449219 42.175781 43.6875 41.96875 C 42.925781 41.761719 42.21875 41.664063 41.6875 41.5625 C 41.289063 41.484375 41.054688 41.378906 41 41.375 C 40.964844 41.285156 40.878906 41.085938 40.8125 40.875 C 40.699219 40.503906 40.554688 40.019531 40.40625 39.4375 C 40.109375 38.273438 39.753906 36.789063 39.34375 35.40625 C 38.679688 33.191406 39.332031 32.425781 40.15625 31.125 C 40.902344 29.945313 41.773438 28.332031 41.3125 25.96875 C 41.488281 25.957031 41.667969 25.953125 41.84375 25.9375 C 43.367188 25.792969 44.796875 25.511719 46 25.03125 C 47.203125 24.550781 48.246094 23.882813 48.71875 22.78125 C 49.585938 20.644531 48.742188 18.046875 47.34375 15.6875 C 45.953125 13.34375 43.914063 11.210938 41.65625 10.125 C 41.652344 10.121094 41.660156 10.097656 41.65625 10.09375 C 41.648438 10.089844 41.632813 10.097656 41.625 10.09375 C 40.515625 9.542969 39.304688 9.21875 38.09375 9.09375 C 36.929688 8.972656 35.769531 9.082031 34.65625 9.34375 C 33.984375 8.570313 32.597656 7.097656 30.59375 5.59375 C 28.21875 3.839844 25.546875 2.34375 23.25 1.5 C 22.101563 1.078125 21.039063 0.8125 20.09375 0.78125 Z M 20.03125 2.78125 C 20.617188 2.800781 21.535156 2.996094 22.5625 3.375 C 24.613281 4.128906 27.179688 5.574219 29.40625 7.21875 L 29.40625 7.1875 C 30.804688 8.238281 31.914063 9.277344 32.625 10.03125 C 32.1875 10.246094 31.765625 10.496094 31.375 10.78125 C 30.335938 9.976563 28.96875 9.179688 27.53125 8.25 C 26.253906 7.46875 24.90625 6.851563 23.59375 6.375 C 22.730469 5.960938 21.902344 5.554688 21.21875 5.15625 C 20.332031 4.644531 19.703125 4.121094 19.4375 3.75 C 19.171875 3.378906 19.132813 3.328125 19.375 2.90625 C 19.375 2.894531 19.375 2.886719 19.375 2.875 C 19.375 2.871094 19.445313 2.761719 20.03125 2.78125 Z M 18.09375 7.21875 C 18.335938 7.222656 18.605469 7.253906 18.875 7.28125 C 20.125 7.410156 21.621094 7.789063 23.15625 8.375 C 24.414063 8.980469 25.679688 9.59375 26.78125 10.25 C 26.898438 10.316406 27.023438 10.359375 27.15625 10.375 C 28.21875 11.050781 29.21875 11.695313 29.90625 12.1875 C 29.574219 12.597656 29.277344 13.042969 29.03125 13.53125 C 29.027344 13.539063 29.035156 13.554688 29.03125 13.5625 C 28.960938 13.699219 28.90625 13.832031 28.84375 13.96875 C 27.855469 13.414063 26.335938 12.585938 24.40625 11.78125 C 24.394531 11.777344 24.386719 11.785156 24.375 11.78125 C 22.269531 10.890625 20.007813 10.359375 18.375 9.71875 C 17.554688 9.398438 16.910156 9.035156 16.53125 8.6875 C 16.152344 8.339844 16 8.066406 16 7.59375 C 16.03125 7.558594 16.160156 7.484375 16.40625 7.40625 C 16.773438 7.292969 17.363281 7.203125 18.09375 7.21875 Z M 36.84375 11.0625 C 37.207031 11.050781 37.570313 11.058594 37.9375 11.09375 C 38.910156 11.1875 39.867188 11.464844 40.75 11.90625 C 40.761719 11.90625 40.769531 11.90625 40.78125 11.90625 C 42.507813 12.726563 44.398438 14.652344 45.625 16.71875 C 46.84375 18.773438 47.292969 20.925781 46.875 22 C 46.746094 22.296875 46.230469 22.777344 45.28125 23.15625 C 44.332031 23.535156 43.035156 23.839844 41.65625 23.96875 C 38.898438 24.230469 35.753906 23.84375 34.0625 23 C 30.960938 21.449219 29.488281 18.621094 30.25 15.8125 C 30.261719 15.773438 30.273438 15.730469 30.28125 15.6875 C 30.289063 15.667969 30.304688 15.644531 30.3125 15.625 C 30.324219 15.585938 30.335938 15.542969 30.34375 15.5 C 30.457031 15.152344 30.597656 14.808594 30.78125 14.46875 C 30.78125 14.457031 30.78125 14.449219 30.78125 14.4375 C 31.832031 12.339844 34.289063 11.140625 36.84375 11.0625 Z M 40.5 17 C 39.671875 17 39 17.671875 39 18.5 C 39 19.328125 39.671875 20 40.5 20 C 41.328125 20 42 19.328125 42 18.5 C 42 17.671875 41.328125 17 40.5 17 Z M 28.375 19.15625 C 28.996094 21.476563 30.6875 23.546875 33.15625 24.78125 C 34.835938 25.621094 37.058594 25.996094 39.3125 26.03125 C 39.851563 28.050781 39.261719 28.816406 38.46875 30.0625 C 37.648438 31.355469 36.621094 33.203125 37.4375 35.96875 C 37.441406 35.976563 37.433594 35.992188 37.4375 36 C 37.824219 37.308594 38.167969 38.761719 38.46875 39.9375 C 38.621094 40.53125 38.769531 41.03125 38.90625 41.46875 C 39.039063 41.894531 39.089844 42.1875 39.40625 42.59375 L 39.4375 42.59375 C 39.972656 43.289063 40.648438 43.40625 41.28125 43.53125 C 41.921875 43.65625 42.613281 43.75 43.1875 43.90625 C 43.761719 44.0625 44.210938 44.285156 44.5 44.59375 C 44.703125 44.8125 44.761719 45.265625 44.84375 45.71875 C 44.574219 45.769531 44.28125 45.816406 43.8125 45.84375 C 42.589844 45.914063 40.851563 45.90625 39.09375 45.90625 C 38.585938 45.90625 38.503906 45.816406 38.40625 45.71875 C 38.308594 45.621094 38.164063 45.375 38 44.90625 C 37.675781 43.976563 37.222656 42.371094 35.71875 40.90625 C 35.710938 40.898438 35.695313 40.882813 35.6875 40.875 C 34.828125 40.007813 33.816406 38.449219 32.9375 36.96875 C 32.109375 35.582031 31.441406 34.296875 30.84375 33.46875 C 30.683594 32.996094 30.441406 32.511719 30.125 32.0625 C 28.851563 30.269531 26.289063 29 22.09375 29 C 21.734375 28.996094 21.398438 29.183594 21.214844 29.496094 C 21.035156 29.808594 21.035156 30.191406 21.214844 30.503906 C 21.398438 30.816406 21.734375 31.003906 22.09375 31 C 25.898438 31 27.699219 32.089844 28.5 33.21875 C 28.660156 33.441406 28.78125 33.667969 28.875 33.90625 C 28.882813 33.9375 28.894531 33.96875 28.90625 34 C 28.910156 34.007813 28.902344 34.023438 28.90625 34.03125 C 28.925781 34.152344 28.96875 34.269531 29.03125 34.375 C 29.222656 35.1875 29.082031 36 28.8125 36.5625 C 28.800781 36.5625 28.792969 36.5625 28.78125 36.5625 C 27.164063 39.96875 23.378906 40.589844 21.09375 41 C 21.042969 41.007813 20.957031 41.023438 20.90625 41.03125 C 20.425781 41.152344 20.105469 41.605469 20.152344 42.097656 C 20.199219 42.589844 20.601563 42.972656 21.09375 43 C 29.082031 43 32.773438 43.820313 34.1875 44.5625 C 34.894531 44.933594 34.996094 45.167969 35.0625 45.375 C 35.089844 45.457031 35.058594 45.644531 35.0625 45.75 C 34.859375 45.792969 34.644531 45.84375 34.28125 45.875 C 33.292969 45.960938 31.859375 45.960938 30.25 45.9375 C 27.027344 45.886719 23.148438 45.6875 20.59375 45.6875 C 17.582031 45.738281 14.414063 46.074219 12.28125 45.96875 C 11.214844 45.914063 10.421875 45.703125 10.15625 45.53125 C 10.023438 45.445313 10.015625 45.421875 10 45.375 C 9.984375 45.328125 9.96875 45.199219 10.0625 44.90625 C 10.609375 43.207031 10.808594 41.972656 10.71875 40.96875 C 10.699219 40.761719 10.671875 40.5625 10.625 40.375 C 10.722656 40.109375 10.703125 39.816406 10.570313 39.566406 C 10.441406 39.316406 10.210938 39.132813 9.9375 39.0625 C 9.832031 38.9375 9.738281 38.816406 9.625 38.71875 C 9.078125 38.253906 8.519531 38.050781 8.1875 37.875 C 7.855469 37.699219 7.796875 37.648438 7.75 37.5 C 7.75 37.488281 7.75 37.480469 7.75 37.46875 C 7.128906 35.652344 6.859375 32.507813 7.78125 29.40625 C 8.703125 26.304688 10.742188 23.214844 14.84375 21.1875 C 17.773438 19.746094 20.640625 20.300781 23.34375 20.46875 C 24.695313 20.554688 26.042969 20.535156 27.28125 19.9375 C 27.675781 19.746094 28.039063 19.46875 28.375 19.15625 Z M 5.34375 36.03125 C 5.464844 36.789063 5.636719 37.480469 5.84375 38.09375 C 5.847656 38.109375 5.871094 38.109375 5.875 38.125 C 6.136719 38.898438 6.773438 39.371094 7.25 39.625 C 7.578125 39.800781 7.824219 39.933594 8.03125 40.0625 C 7.171875 40.609375 6.148438 41 5.5 41 C 4.160156 41 3 39.839844 3 38.5 C 3 37.285156 3.898438 36.21875 5.34375 36.03125 Z M 30.71875 37.125 C 30.894531 37.421875 31.035156 37.691406 31.21875 38 C 32.132813 39.53125 33.144531 41.175781 34.28125 42.3125 C 34.292969 42.3125 34.300781 42.3125 34.3125 42.3125 C 34.375 42.371094 34.410156 42.441406 34.46875 42.5 C 32.886719 41.898438 30.207031 41.519531 26.6875 41.28125 C 28.210938 40.480469 29.675781 39.367188 30.59375 37.4375 C 30.640625 37.335938 30.675781 37.234375 30.71875 37.125 Z"/></svg>