<svg xmlns="http://www.w3.org/2000/svg" viewBox="0 0 50 50" width="50" height="50" fill="#666"><path d="M 23.90625 0.96875 C 23.863281 0.976563 23.820313 0.988281 23.78125 1 C 23.316406 1.105469 22.988281 1.523438 23 2 C 23 5.054688 21.835938 5.976563 20.34375 7.3125 C 18.851563 8.648438 17.03125 10.410156 17.03125 14 C 17.027344 14.359375 17.214844 14.695313 17.527344 14.878906 C 17.839844 15.058594 18.222656 15.058594 18.535156 14.878906 C 18.847656 14.695313 19.035156 14.359375 19.03125 14 C 19.03125 11.015625 20.1875 10.125 21.6875 8.78125 C 23.1875 7.4375 25 5.648438 25 2 C 25.011719 1.710938 24.894531 1.433594 24.6875 1.238281 C 24.476563 1.039063 24.191406 0.941406 23.90625 0.96875 Z M 28.90625 5.96875 C 28.863281 5.976563 28.820313 5.988281 28.78125 6 C 28.316406 6.105469 27.988281 6.523438 28 7 C 28 8.953125 27.339844 9.425781 26.34375 10.3125 C 25.347656 11.199219 24 12.511719 24 15 C 23.996094 15.359375 24.183594 15.695313 24.496094 15.878906 C 24.808594 16.058594 25.191406 16.058594 25.503906 15.878906 C 25.816406 15.695313 26.003906 15.359375 26 15 C 26 13.125 26.648438 12.707031 27.65625 11.8125 C 28.664063 10.917969 30 9.546875 30 7 C 30.011719 6.710938 29.894531 6.433594 29.6875 6.238281 C 29.476563 6.039063 29.191406 5.941406 28.90625 5.96875 Z M 9.8125 18 C 9.519531 18.054688 9.265625 18.234375 9.121094 18.496094 C 8.976563 18.753906 8.957031 19.066406 9.0625 19.34375 C 9.546875 20.738281 12.300781 29.125 13.53125 47.3125 C 13.625 48.710938 14.71875 50 16.25 50 L 29.75 50 C 31.28125 50 32.375 48.710938 32.46875 47.3125 C 32.679688 44.21875 32.941406 41.507813 33.21875 38.96875 C 35.953125 38.703125 38.519531 38.128906 40.53125 36.9375 C 42.566406 35.730469 44 33.722656 44 31.0625 C 44 29.453125 43.484375 27.851563 42.21875 26.71875 C 40.953125 25.585938 39.058594 25 36.46875 25 L 35.40625 25 C 36.121094 21.792969 36.734375 19.925781 36.9375 19.34375 C 37.050781 19.039063 37.003906 18.695313 36.820313 18.429688 C 36.632813 18.160156 36.328125 18 36 18 L 10 18 C 9.96875 18 9.9375 18 9.90625 18 C 9.875 18 9.84375 18 9.8125 18 Z M 11.28125 20 L 34.71875 20 C 33.90625 22.511719 31.605469 30.355469 30.46875 47.15625 C 30.4375 47.625 30.113281 48 29.75 48 L 16.25 48 C 15.886719 48 15.5625 47.625 15.53125 47.15625 C 14.394531 30.355469 12.09375 22.511719 11.28125 20 Z M 34.96875 27 L 36.46875 27 C 38.753906 27 40.125 27.519531 40.90625 28.21875 C 41.6875 28.917969 42 29.84375 42 31.0625 C 42 33.066406 41.140625 34.265625 39.53125 35.21875 C 38.035156 36.105469 35.867188 36.636719 33.46875 36.90625 C 33.957031 32.910156 34.457031 29.574219 34.96875 27 Z"/></svg>