<svg xmlns="http://www.w3.org/2000/svg" viewBox="0 0 50 50" width="50" height="50" fill="#666"><path d="M 7 2 L 7 48 L 43 48 L 43 15.410156 L 29.183594 2 Z M 9 4 L 28 4 L 28 17 L 41 17 L 41 46 L 9 46 Z M 30 5.578125 L 39.707031 15 L 30 15 Z M 33.386719 21.871094 C 32.5 21.835938 31.246094 22.371094 30.6875 23.695313 C 30.144531 24.984375 29.777344 27.207031 29.433594 29.378906 C 29.257813 30.464844 29.109375 31.515625 28.988281 32.34375 C 28.867188 33.175781 28.765625 33.84375 28.742188 33.964844 C 28.742188 33.96875 28.738281 33.976563 28.738281 33.984375 C 28.671875 34.328125 28.53125 34.605469 28.375 34.765625 C 28.21875 34.929688 28.085938 35 27.832031 35 C 27.261719 35 26.996094 34.765625 26.9375 34.078125 C 26.9375 34.058594 26.9375 34.039063 26.933594 34.019531 C 26.859375 33.511719 25.992188 26.707031 25.992188 26.707031 C 25.929688 26.203125 25.5 25.828125 24.992188 25.832031 C 24.484375 25.835938 24.0625 26.21875 24.003906 26.722656 C 24.003906 26.722656 23.792969 28.625 23.570313 30.605469 C 23.347656 32.585938 23.09375 34.753906 23.066406 34.9375 C 23.0625 34.957031 23.0625 34.976563 23.058594 34.996094 C 23 35.679688 22.734375 35.917969 22.167969 35.917969 C 21.910156 35.917969 21.78125 35.847656 21.625 35.6875 C 21.46875 35.523438 21.324219 35.242188 21.261719 34.898438 C 21.257813 34.894531 21.257813 34.886719 21.253906 34.882813 C 21.058594 33.914063 20.691406 32.492188 20.316406 30.328125 C 20.316406 30.328125 20.316406 30.324219 20.316406 30.324219 C 20.128906 29.289063 19.84375 28.554688 19.265625 28.054688 C 18.691406 27.554688 17.851563 27.53125 17.324219 27.726563 C 16.265625 28.113281 15.714844 28.964844 15.714844 28.964844 C 15.371094 29.398438 15.445313 30.027344 15.878906 30.367188 C 16.3125 30.710938 16.941406 30.636719 17.285156 30.203125 C 17.285156 30.203125 17.765625 29.738281 17.980469 29.632813 C 18.019531 29.679688 18.214844 29.925781 18.347656 30.675781 C 18.734375 32.90625 19.121094 34.421875 19.296875 35.28125 L 19.296875 35.265625 C 19.417969 35.929688 19.699219 36.566406 20.183594 37.070313 C 20.664063 37.574219 21.382813 37.917969 22.167969 37.917969 C 23.675781 37.917969 24.921875 36.683594 25.050781 35.171875 L 25.046875 35.230469 C 25.054688 35.164063 25.101563 34.730469 25.117188 34.609375 C 25.414063 35.929688 26.460938 37 27.832031 37 C 28.617188 37 29.335938 36.65625 29.816406 36.152344 C 30.300781 35.648438 30.578125 35.015625 30.703125 34.355469 C 30.773438 34.015625 30.847656 33.453125 30.96875 32.628906 C 31.085938 31.796875 31.238281 30.761719 31.40625 29.691406 C 31.746094 27.558594 32.226563 25.199219 32.53125 24.46875 C 32.824219 23.777344 32.988281 23.855469 33.308594 23.867188 C 33.628906 23.878906 33.957031 24.042969 33.957031 24.042969 C 34.441406 24.308594 35.050781 24.132813 35.320313 23.652344 C 35.585938 23.167969 35.414063 22.558594 34.929688 22.292969 C 34.929688 22.292969 34.269531 21.902344 33.386719 21.871094 Z"/></svg>