<svg xmlns="http://www.w3.org/2000/svg" viewBox="0 0 50 50" width="50" height="50" fill="#666"><path d="M 3 5 C 1.355469 5 0 6.355469 0 8 L 0 17.8125 C 0 17.84375 0 17.875 0 17.90625 L 0 42 C 0 43.644531 1.355469 45 3 45 L 47 45 C 48.644531 45 50 43.644531 50 42 L 50 18 C 50 17.96875 50 17.9375 50 17.90625 L 50 8 C 50 6.355469 48.644531 5 47 5 Z M 3 7 L 47 7 C 47.554688 7 48 7.445313 48 8 L 48 17 L 2 17 L 2 8 C 2 7.445313 2.445313 7 3 7 Z M 7 9 C 5.355469 9 4 10.355469 4 12 C 4 13.644531 5.355469 15 7 15 C 8.644531 15 10 13.644531 10 12 C 10 10.355469 8.644531 9 7 9 Z M 14 9 C 12.355469 9 11 10.355469 11 12 C 11 13.644531 12.355469 15 14 15 C 15.644531 15 17 13.644531 17 12 C 17 10.355469 15.644531 9 14 9 Z M 19.8125 9 C 19.335938 9.089844 18.992188 9.511719 19 10 L 19 14 C 19 14.550781 19.449219 15 20 15 L 45 15 C 45.550781 15 46 14.550781 46 14 L 46 10 C 46 9.449219 45.550781 9 45 9 L 20 9 C 19.96875 9 19.9375 9 19.90625 9 C 19.875 9 19.84375 9 19.8125 9 Z M 7 11 C 7.5625 11 8 11.4375 8 12 C 8 12.5625 7.5625 13 7 13 C 6.4375 13 6 12.5625 6 12 C 6 11.4375 6.4375 11 7 11 Z M 14 11 C 14.5625 11 15 11.4375 15 12 C 15 12.5625 14.5625 13 14 13 C 13.4375 13 13 12.5625 13 12 C 13 11.4375 13.4375 11 14 11 Z M 21 11 L 44 11 L 44 13 L 21 13 Z M 2 19 L 48 19 L 48 42 C 48 42.554688 47.554688 43 47 43 L 3 43 C 2.445313 43 2 42.554688 2 42 Z"/></svg>