<svg xmlns="http://www.w3.org/2000/svg" viewBox="0 0 50 50" width="50" height="50" fill="#666"><path d="M 17.1875 0 C 15.773438 0 14.46875 0.492188 13.40625 1.3125 C 13.398438 1.316406 13.382813 1.308594 13.375 1.3125 L 13.375 1.34375 C 12.507813 2.011719 11.914063 2.824219 11.5 3.6875 C 10.710938 3.105469 9.703125 2.613281 8.5625 2.1875 C 6.671875 1.480469 4.382813 1 2 1 C 1.96875 1 1.9375 1 1.90625 1 C 1.519531 1.027344 1.183594 1.273438 1.042969 1.636719 C 0.902344 1.996094 0.984375 2.40625 1.25 2.6875 C 3.8125 5.476563 5.167969 8.867188 5.625 10.15625 C 5.550781 10.207031 5.476563 10.257813 5.40625 10.3125 C 5.398438 10.316406 5.382813 10.308594 5.375 10.3125 L 5.375 10.34375 C 3.933594 11.453125 3.1875 12.964844 2.90625 14.4375 C 2.664063 15.695313 2.742188 16.882813 2.9375 17.9375 C 0.765625 19.859375 -0.613281 22.820313 0.4375 26.1875 C 0.4375 26.199219 0.4375 26.207031 0.4375 26.21875 C 1.390625 29.082031 3.828125 30.878906 6.9375 31.28125 C 7.429688 32.371094 8.082031 33.464844 9.0625 34.34375 C 10.203125 35.367188 11.742188 36.09375 13.59375 36.09375 C 13.773438 36.09375 13.953125 36.074219 14.125 36.0625 C 17.515625 36.839844 21.625 41.316406 22 49.0625 C 22.003906 49.125 22.015625 49.1875 22.03125 49.25 C 22.039063 49.269531 22.050781 49.292969 22.0625 49.3125 C 22.0625 49.324219 22.0625 49.332031 22.0625 49.34375 C 22.070313 49.363281 22.082031 49.386719 22.09375 49.40625 C 22.09375 49.417969 22.09375 49.425781 22.09375 49.4375 C 22.113281 49.460938 22.132813 49.480469 22.15625 49.5 C 22.15625 49.511719 22.15625 49.519531 22.15625 49.53125 C 22.175781 49.554688 22.195313 49.574219 22.21875 49.59375 C 22.21875 49.605469 22.21875 49.613281 22.21875 49.625 C 22.238281 49.636719 22.261719 49.648438 22.28125 49.65625 C 22.28125 49.667969 22.28125 49.675781 22.28125 49.6875 C 22.320313 49.734375 22.359375 49.773438 22.40625 49.8125 C 22.417969 49.8125 22.425781 49.8125 22.4375 49.8125 C 22.488281 49.847656 22.539063 49.878906 22.59375 49.90625 C 22.691406 49.953125 22.796875 49.984375 22.90625 50 C 22.925781 50 22.949219 50 22.96875 50 C 22.980469 50 22.988281 50 23 50 C 23.019531 50 23.042969 50 23.0625 50 C 23.0625 50 27.210938 49.726563 31.78125 47.5 C 36.351563 45.273438 41.457031 40.988281 43.28125 33.21875 C 44.632813 27.210938 45.476563 23.117188 46.375 20.28125 C 47.273438 17.445313 48.164063 15.933594 49.625 14.78125 C 49.941406 14.535156 50.082031 14.125 49.980469 13.734375 C 49.878906 13.347656 49.554688 13.058594 49.15625 13 C 48.027344 12.8125 47.027344 12.800781 46.125 12.90625 C 43.46875 13.21875 41.648438 14.589844 39.96875 15.90625 C 39.765625 15.671875 39.558594 15.460938 39.34375 15.25 C 39.542969 14 39.613281 12.660156 39.3125 11.3125 C 38.96875 9.78125 38.117188 8.28125 36.5625 7.1875 C 35.390625 6.367188 34.09375 6 32.8125 6 C 32.683594 6 32.5625 6.023438 32.4375 6.03125 C 32.214844 4.238281 31.394531 2.441406 29.5625 1.1875 C 28.390625 0.367188 27.054688 0 25.6875 0 C 23.957031 0 22.550781 0.648438 21.40625 1.3125 C 20.28125 0.632813 18.828125 0 17.1875 0 Z M 17.1875 2 C 18.496094 2 19.964844 2.625 20.8125 3.21875 C 21.144531 3.460938 21.589844 3.472656 21.9375 3.25 C 22.945313 2.609375 24.261719 2 25.6875 2 C 26.722656 2 27.609375 2.234375 28.4375 2.8125 C 29.820313 3.761719 30.347656 5 30.46875 6.40625 C 29.738281 6.652344 29.082031 6.976563 28.5 7.3125 C 27.328125 6.640625 25.847656 6 24.1875 6 C 22.773438 6 21.46875 6.492188 20.40625 7.3125 C 20.398438 7.316406 20.382813 7.308594 20.375 7.3125 L 20.375 7.34375 C 19.710938 7.855469 19.203125 8.453125 18.8125 9.09375 C 18.503906 9.042969 18.167969 9 17.8125 9 C 16.082031 9 14.644531 9.648438 13.5 10.3125 C 13.277344 10.183594 13.027344 10.058594 12.78125 9.9375 C 12.976563 9.691406 13.046875 9.367188 12.96875 9.0625 C 12.761719 8.183594 12.652344 7.082031 12.8125 6.03125 C 12.914063 5.851563 12.957031 5.644531 12.9375 5.4375 C 13.1875 4.472656 13.679688 3.601563 14.59375 2.90625 C 14.605469 2.894531 14.613281 2.886719 14.625 2.875 C 15.359375 2.304688 16.210938 2 17.1875 2 Z M 4.15625 3.1875 C 5.492188 3.363281 6.792969 3.660156 7.875 4.0625 C 9.320313 4.601563 10.375 5.3125 10.84375 5.8125 C 10.6875 6.914063 10.769531 7.96875 10.9375 8.90625 C 10.832031 9 10.734375 9.089844 10.625 9.1875 C 10.164063 9.089844 9.683594 9 9.1875 9 C 8.570313 9 7.972656 9.105469 7.40625 9.28125 C 6.925781 8.019531 5.90625 5.621094 4.15625 3.1875 Z M 24.1875 8 C 25.496094 8 26.984375 8.625 27.96875 9.25 C 28.292969 9.453125 28.707031 9.453125 29.03125 9.25 C 29.78125 8.773438 30.703125 8.296875 31.71875 8.09375 C 31.730469 8.09375 31.738281 8.09375 31.75 8.09375 C 32.09375 8.027344 32.457031 8 32.8125 8 C 33.730469 8 34.609375 8.234375 35.4375 8.8125 C 36.582031 9.617188 37.117188 10.605469 37.375 11.75 C 37.632813 12.894531 37.546875 14.191406 37.3125 15.40625 C 37.246094 15.753906 37.363281 16.109375 37.625 16.34375 C 39.273438 17.808594 40.632813 19.78125 39.9375 22.5625 C 39.34375 24.851563 37.511719 26.316406 34.5625 26.40625 C 34.164063 26.414063 33.804688 26.660156 33.65625 27.03125 C 33.25 28.070313 32.617188 29.125 31.78125 29.875 C 31.753906 29.902344 31.714844 29.914063 31.6875 29.9375 C 31.484375 30.007813 31.308594 30.136719 31.1875 30.3125 C 30.472656 30.789063 29.640625 31.09375 28.59375 31.09375 C 27.242188 31.09375 26.242188 30.625 25.40625 29.875 C 25.132813 29.628906 24.886719 29.332031 24.65625 29.03125 C 24.617188 28.714844 24.433594 28.4375 24.15625 28.28125 C 23.917969 27.875 23.695313 27.453125 23.53125 27.03125 C 23.386719 26.671875 23.042969 26.425781 22.65625 26.40625 C 20.5 26.265625 18.976563 25.472656 18.03125 24.03125 C 18.023438 24.011719 18.011719 23.988281 18 23.96875 C 17.996094 23.960938 18.003906 23.945313 18 23.9375 C 17.957031 23.773438 17.871094 23.621094 17.75 23.5 C 17.742188 23.488281 17.726563 23.480469 17.71875 23.46875 C 17.707031 23.457031 17.699219 23.449219 17.6875 23.4375 C 17.558594 23.175781 17.441406 22.886719 17.34375 22.59375 C 17.015625 21.546875 16.96875 20.59375 17.15625 19.71875 C 17.167969 19.707031 17.175781 19.699219 17.1875 19.6875 C 17.191406 19.679688 17.183594 19.664063 17.1875 19.65625 C 17.40625 19.433594 17.511719 19.121094 17.46875 18.8125 C 17.910156 17.753906 18.667969 16.835938 19.625 16.09375 C 19.933594 15.847656 20.066406 15.445313 19.96875 15.0625 C 19.746094 14.125 19.628906 12.929688 19.84375 11.8125 C 20.058594 10.695313 20.558594 9.691406 21.59375 8.90625 C 21.605469 8.894531 21.613281 8.886719 21.625 8.875 C 22.359375 8.304688 23.210938 8 24.1875 8 Z M 9.1875 11 C 10.496094 11 11.984375 11.625 12.96875 12.25 C 13.292969 12.453125 13.707031 12.453125 14.03125 12.25 C 15.039063 11.609375 16.386719 11 17.8125 11 C 17.878906 11 17.960938 11.027344 18.03125 11.03125 C 17.996094 11.167969 17.933594 11.300781 17.90625 11.4375 C 17.664063 12.695313 17.742188 13.882813 17.9375 14.9375 C 17.132813 15.648438 16.441406 16.503906 15.9375 17.46875 C 15.289063 17.171875 14.601563 17 13.90625 17 C 11.234375 17 9.09375 19.285156 9.09375 22 C 9.09375 24.714844 11.234375 27 13.90625 27 C 15.101563 27 16.152344 26.53125 16.96875 25.8125 C 18.199219 27.15625 19.921875 28.019531 21.9375 28.28125 C 22.011719 28.449219 22.105469 28.613281 22.1875 28.78125 C 22.097656 28.820313 22 28.839844 21.90625 28.875 C 21.863281 28.871094 21.824219 28.871094 21.78125 28.875 C 21.523438 28.878906 21.277344 28.976563 21.09375 29.15625 C 20.617188 29.273438 20.105469 29.371094 19.53125 29.40625 C 19.144531 29.425781 18.800781 29.671875 18.65625 30.03125 C 18.25 31.070313 17.617188 32.125 16.78125 32.875 C 16.089844 33.496094 15.269531 33.902344 14.25 34.03125 C 14.21875 34.023438 14.1875 34.003906 14.15625 34 C 14.0625 33.988281 13.96875 33.988281 13.875 34 C 13.722656 33.996094 13.574219 34.03125 13.4375 34.09375 C 12.171875 34.058594 11.207031 33.59375 10.40625 32.875 C 9.570313 32.125 8.9375 31.070313 8.53125 30.03125 C 8.386719 29.671875 8.042969 29.425781 7.65625 29.40625 C 4.867188 29.226563 3.125 27.941406 2.34375 25.59375 C 1.472656 22.800781 2.667969 20.605469 4.625 19.09375 C 4.933594 18.847656 5.066406 18.445313 4.96875 18.0625 C 4.746094 17.125 4.628906 15.929688 4.84375 14.8125 C 5.058594 13.695313 5.558594 12.691406 6.59375 11.90625 C 6.605469 11.894531 6.613281 11.886719 6.625 11.875 C 6.785156 11.75 6.953125 11.660156 7.125 11.5625 C 7.289063 11.519531 7.441406 11.433594 7.5625 11.3125 C 8.058594 11.105469 8.605469 11 9.1875 11 Z M 28.8125 14 C 26.144531 14 24 16.277344 24 19 C 24 21.722656 26.144531 24 28.8125 24 C 31.480469 24 33.59375 21.722656 33.59375 19 C 33.59375 16.277344 31.480469 14 28.8125 14 Z M 46.90625 14.90625 C 45.933594 16.160156 45.113281 17.644531 44.46875 19.6875 C 43.515625 22.699219 42.660156 26.789063 41.3125 32.78125 C 39.636719 39.910156 35.113281 43.640625 30.90625 45.6875 C 29.355469 46.441406 28.074219 46.777344 26.8125 47.125 C 27.746094 46.117188 28.679688 44.972656 29.53125 43.53125 C 31.355469 40.4375 32.773438 36.34375 32.96875 31.46875 C 33.019531 31.425781 33.078125 31.386719 33.125 31.34375 C 34.097656 30.46875 34.757813 29.394531 35.25 28.3125 C 38.574219 27.980469 41.117188 25.984375 41.875 23.0625 C 41.875 23.050781 41.875 23.042969 41.875 23.03125 C 42.402344 20.921875 41.984375 19.09375 41.15625 17.59375 C 43.019531 16.132813 44.410156 14.976563 46.90625 14.90625 Z M 28.8125 16 C 30.34375 16 31.59375 17.304688 31.59375 19 C 31.59375 20.695313 30.34375 22 28.8125 22 C 27.28125 22 26 20.695313 26 19 C 26 17.304688 27.28125 16 28.8125 16 Z M 13.90625 19 C 14.378906 19 14.839844 19.128906 15.25 19.34375 C 14.988281 20.53125 15.011719 21.828125 15.4375 23.1875 C 15.4375 23.199219 15.4375 23.207031 15.4375 23.21875 C 15.542969 23.53125 15.671875 23.835938 15.8125 24.125 C 15.300781 24.65625 14.664063 25 13.90625 25 C 12.378906 25 11.09375 23.683594 11.09375 22 C 11.09375 20.316406 12.378906 19 13.90625 19 Z M 23.65625 30.9375 C 23.789063 31.074219 23.917969 31.214844 24.0625 31.34375 C 25.203125 32.367188 26.742188 33.09375 28.59375 33.09375 C 29.433594 33.09375 30.203125 32.945313 30.90625 32.6875 C 30.550781 36.652344 29.320313 39.972656 27.8125 42.53125 C 27.25 43.484375 26.644531 44.324219 26.03125 45.0625 C 26.058594 43.820313 26.050781 42.277344 25.9375 40.5625 C 25.726563 37.363281 25.171875 33.726563 23.65625 30.9375 Z M 21.4375 31.09375 C 22.964844 33.367188 23.710938 37.265625 23.9375 40.6875 C 24.160156 44.082031 23.976563 46.6875 23.9375 47.15625 C 23.910156 47.179688 23.871094 47.195313 23.84375 47.21875 C 23.140625 41.289063 20.371094 37.078125 17.09375 35.125 C 17.464844 34.898438 17.8125 34.625 18.125 34.34375 C 19.097656 33.46875 19.757813 32.394531 20.25 31.3125 C 20.664063 31.265625 21.050781 31.179688 21.4375 31.09375 Z"/></svg>