<svg xmlns="http://www.w3.org/2000/svg" viewBox="0 0 50 50" width="50" height="50" fill="#666"><path d="M 7 2 L 7 48 L 43 48 L 43 15.410156 L 29.183594 2 Z M 9 4 L 28 4 L 28 17 L 41 17 L 41 46 L 9 46 Z M 30 5.578125 L 39.707031 15 L 30 15 Z M 22.011719 23.554688 L 23.824219 28.488281 L 21.933594 33.664063 L 23.882813 33.664063 L 24.421875 31.835938 C 24.574219 31.265625 24.738281 30.652344 24.902344 30.003906 L 24.933594 30.003906 C 25.113281 30.652344 25.277344 31.222656 25.472656 31.808594 L 26.117188 33.664063 L 28.144531 33.664063 L 26.152344 28.578125 L 28.039063 23.554688 L 26.074219 23.554688 L 25.5625 25.402344 C 25.429688 25.957031 25.308594 26.4375 25.144531 27.050781 L 25.113281 27.050781 C 24.949219 26.480469 24.816406 25.953125 24.652344 25.429688 L 24.0625 23.554688 Z M 15.949219 23.558594 L 15.949219 25.371094 L 17.734375 25.371094 L 17.734375 33.664063 L 19.699219 33.664063 L 19.699219 25.371094 L 21.5 25.371094 L 21.5 23.558594 Z M 28.519531 23.558594 L 28.519531 25.371094 L 30.300781 25.371094 L 30.300781 33.664063 L 32.265625 33.664063 L 32.265625 25.371094 L 34.066406 25.371094 L 34.066406 23.558594 Z"/></svg>