<svg xmlns="http://www.w3.org/2000/svg" viewBox="0 0 50 50" width="50" height="50" fill="#666"><path d="M 25 1.96875 C 24.5 1.96875 23.996094 2.097656 23.550781 2.359375 C 23.542969 2.359375 23.539063 2.363281 23.53125 2.367188 C 23.53125 2.367188 18.269531 5.570313 13 8.847656 C 10.367188 10.488281 7.734375 12.144531 5.742188 13.4375 C 4.75 14.085938 3.917969 14.640625 3.320313 15.0625 C 3.019531 15.277344 2.777344 15.453125 2.585938 15.609375 C 2.492188 15.6875 2.410156 15.757813 2.320313 15.851563 C 2.273438 15.898438 2.226563 15.949219 2.164063 16.039063 C 2.105469 16.128906 1.988281 16.242188 1.96875 16.601563 C 1.933594 17.226563 2.117188 17.257813 2.210938 17.40625 C 2.300781 17.554688 2.40625 17.6875 2.527344 17.84375 C 2.773438 18.148438 3.09375 18.511719 3.476563 18.925781 C 3.613281 19.070313 3.816406 19.273438 3.96875 19.433594 C 3.96875 22.507813 3.976563 26.914063 3.980469 28.28125 C 3.375 28.640625 3 29.292969 3 30 C 3 30.230469 3.042969 30.460938 3.121094 30.679688 C 2.445313 31.226563 2 32.042969 2 32.96875 C 2 34.148438 2.613281 35.152344 3.144531 36.035156 C 3.675781 36.921875 4.207031 37.609375 4.207031 37.609375 C 4.394531 37.855469 4.6875 38 4.996094 38 C 5.304688 38 5.597656 37.859375 5.789063 37.617188 C 5.789063 37.617188 6.320313 36.9375 6.855469 36.058594 C 7.390625 35.175781 8 34.160156 8 32.96875 C 8 32.042969 7.554688 31.226563 6.878906 30.679688 C 6.957031 30.460938 7 30.230469 7 30 C 7 29.304688 6.636719 28.660156 6.046875 28.296875 C 6.042969 27.273438 6.039063 24.484375 6.039063 21.566406 C 6.117188 21.644531 6.175781 21.714844 6.257813 21.792969 C 7.765625 23.304688 8.613281 24.113281 9.273438 24.753906 C 8.820313 25.082031 8.410156 25.480469 8.039063 25.929688 C 8.042969 26.464844 8.046875 26.980469 8.046875 27.4375 C 8.347656 27.792969 8.585938 28.203125 8.75 28.644531 C 9.359375 27.433594 10.140625 26.484375 11.128906 26.0625 C 11.304688 26.046875 11.476563 25.988281 11.621094 25.886719 C 12.292969 25.652344 17.171875 24.046875 24.925781 24.035156 C 23.183594 25.972656 19.644531 28.285156 14.375 28.335938 C 14.113281 28.265625 13.5625 28.148438 12.820313 28.40625 C 12.34375 28.574219 11.832031 28.941406 11.5 29.511719 C 11.167969 30.078125 11.003906 30.796875 11.003906 31.699219 C 11.003906 33.578125 12.1875 35.164063 13.84375 35.683594 C 14.855469 38.542969 16.105469 41.414063 17.78125 43.6875 C 14.09375 43.101563 10.042969 43 7 43 L 7 39.1875 C 6.449219 39.699219 5.769531 40 5 40 L 5 44 C 5 44.285156 5.085938 44.558594 5.292969 44.75 C 5.5 44.945313 5.71875 45.011719 6 45 C 6.085938 44.992188 14.773438 44.523438 20.296875 46.308594 C 21.660156 47.347656 23.226563 48 25.007813 48 C 26.792969 48 28.367188 47.34375 29.734375 46.296875 C 35.15625 44.558594 43.9375 45.03125 43.9375 45.03125 C 44.222656 45.046875 44.5 44.949219 44.707031 44.753906 C 44.914063 44.558594 45.035156 44.285156 45.03125 44 L 45.03125 37 C 45.03125 35.042969 44.75 32.304688 43.9375 29.785156 C 43.292969 27.800781 42.304688 25.886719 40.722656 24.753906 C 41.382813 24.117188 42.234375 23.304688 43.746094 21.792969 C 44.75 20.785156 45.757813 19.753906 46.523438 18.925781 C 46.90625 18.511719 47.226563 18.148438 47.472656 17.84375 C 47.59375 17.6875 47.699219 17.554688 47.792969 17.40625 C 47.882813 17.257813 48.066406 17.226563 48.03125 16.601563 C 48.011719 16.238281 47.894531 16.125 47.832031 16.035156 C 47.773438 15.949219 47.726563 15.898438 47.679688 15.851563 C 47.589844 15.757813 47.507813 15.6875 47.410156 15.609375 C 47.222656 15.453125 46.980469 15.277344 46.679688 15.0625 C 46.082031 14.640625 45.25 14.085938 44.253906 13.4375 C 42.265625 12.144531 39.632813 10.488281 37 8.847656 C 31.730469 5.570313 26.46875 2.367188 26.46875 2.367188 C 26.460938 2.363281 26.457031 2.359375 26.449219 2.359375 C 26.003906 2.097656 25.5 1.96875 25 1.96875 Z M 25 4.03125 C 25.140625 4.03125 25.28125 4.070313 25.410156 4.144531 C 25.429688 4.15625 30.660156 7.335938 35.90625 10.601563 C 38.535156 12.238281 41.164063 13.894531 43.128906 15.171875 C 44.113281 15.8125 44.929688 16.359375 45.488281 16.75 C 45.542969 16.789063 45.558594 16.804688 45.605469 16.839844 C 45.429688 17.046875 45.261719 17.246094 45.003906 17.523438 C 44.273438 18.316406 43.28125 19.332031 42.28125 20.332031 C 41.160156 21.457031 40.800781 21.792969 40.03125 22.542969 L 40.03125 19 C 40.03125 18.628906 39.832031 18.285156 39.511719 18.101563 C 39.511719 18.101563 33.945313 14.96875 25 14.96875 C 16.054688 14.96875 10.488281 18.101563 10.488281 18.101563 C 10.167969 18.285156 9.96875 18.628906 9.96875 19 L 9.96875 22.542969 C 9.199219 21.792969 8.839844 21.457031 7.71875 20.332031 C 7.039063 19.65625 6.460938 19.046875 5.867188 18.425781 C 5.796875 18.3125 5.699219 18.214844 5.589844 18.140625 C 5.40625 17.945313 5.152344 17.699219 4.992188 17.527344 C 4.738281 17.246094 4.570313 17.042969 4.390625 16.839844 C 4.441406 16.800781 4.457031 16.789063 4.511719 16.75 C 5.070313 16.355469 5.886719 15.808594 6.871094 15.171875 C 8.835938 13.890625 11.464844 12.238281 14.09375 10.601563 C 19.339844 7.335938 24.570313 4.15625 24.589844 4.144531 C 24.71875 4.070313 24.859375 4.03125 25 4.03125 Z M 25 17.03125 C 32.847656 17.03125 37.292969 19.328125 37.96875 19.6875 L 37.96875 23.664063 C 36.382813 23.167969 32.160156 21.96875 25 21.96875 C 17.839844 21.96875 13.617188 23.167969 12.03125 23.664063 L 12.03125 19.6875 C 12.707031 19.328125 17.152344 17.03125 25 17.03125 Z M 27.410156 24.101563 C 28.671875 24.160156 29.847656 24.246094 30.921875 24.371094 C 31.398438 25.832031 32.359375 27.050781 33.21875 27.972656 C 34.203125 29.027344 35.113281 29.703125 35.113281 29.703125 C 35.339844 29.871094 35.621094 29.9375 35.894531 29.886719 C 35.894531 29.886719 36.15625 29.851563 36.402344 29.980469 C 36.644531 30.105469 37.003906 30.320313 37.003906 31.699219 C 37.003906 32.917969 36.199219 33.800781 35.296875 33.90625 C 34.914063 33.949219 34.589844 34.210938 34.464844 34.574219 C 33.445313 37.53125 32.144531 40.480469 30.550781 42.609375 C 30.03125 43.304688 29.488281 43.898438 28.917969 44.394531 C 28.75 44.472656 28.609375 44.589844 28.5 44.738281 C 27.445313 45.546875 26.296875 46 25.007813 46 C 23.6875 46 22.511719 45.527344 21.433594 44.683594 C 21.359375 44.589844 21.273438 44.519531 21.167969 44.457031 C 20.574219 43.949219 20.003906 43.335938 19.464844 42.609375 C 17.871094 40.480469 16.570313 37.53125 15.550781 34.574219 C 15.425781 34.207031 15.101563 33.949219 14.71875 33.90625 C 13.8125 33.800781 13.003906 32.917969 13.003906 31.699219 C 13.003906 31.042969 13.125 30.6875 13.222656 30.519531 C 13.324219 30.355469 13.382813 30.328125 13.480469 30.296875 C 13.671875 30.226563 13.984375 30.289063 13.984375 30.289063 C 14.089844 30.324219 14.195313 30.339844 14.300781 30.339844 C 21.238281 30.300781 25.679688 26.917969 27.410156 24.101563 Z M 33.277344 24.699219 C 36.292969 25.195313 37.996094 25.753906 38.378906 25.886719 C 38.519531 25.984375 38.679688 26.042969 38.847656 26.0625 C 40.203125 26.628906 41.28125 28.289063 41.96875 30.421875 C 42.6875 32.648438 42.96875 35.253906 42.96875 37 L 42.96875 42.957031 C 41.710938 42.890625 36.988281 42.699219 32.332031 43.554688 C 33.957031 41.300781 35.179688 38.488281 36.171875 35.683594 C 37.824219 35.164063 39.003906 33.578125 39.003906 31.699219 C 39.003906 29.847656 38.21875 28.667969 37.316406 28.203125 C 36.769531 27.917969 36.574219 28.023438 36.234375 28.03125 C 36.167969 27.980469 35.496094 27.484375 34.683594 26.609375 C 34.167969 26.058594 33.664063 25.390625 33.277344 24.699219 Z M 5 32 C 5.574219 32 6 32.433594 6 32.96875 C 6 33.253906 5.609375 34.25 5.144531 35.015625 C 5.074219 35.132813 5.074219 35.117188 5.003906 35.222656 C 4.933594 35.109375 4.929688 35.125 4.855469 35.003906 C 4.386719 34.230469 4 33.214844 4 32.96875 C 4 32.433594 4.425781 32 5 32 Z"/></svg>