<svg xmlns="http://www.w3.org/2000/svg" viewBox="0 0 50 50" width="50" height="50" fill="#666"><path d="M 14 2 C 11.25 2 9 4.25 9 7 C 9 9.75 11.25 12 14 12 C 16.75 12 19 9.75 19 7 C 19 4.25 16.75 2 14 2 Z M 35 2 C 32.25 2 30 4.25 30 7 C 30 9.75 32.25 12 35 12 C 37.75 12 40 9.75 40 7 C 40 4.25 37.75 2 35 2 Z M 14 4 C 15.667969 4 17 5.332031 17 7 C 17 8.667969 15.667969 10 14 10 C 12.332031 10 11 8.667969 11 7 C 11 5.332031 12.332031 4 14 4 Z M 35 4 C 36.667969 4 38 5.332031 38 7 C 38 8.667969 36.667969 10 35 10 C 33.332031 10 32 8.667969 32 7 C 32 5.332031 33.332031 4 35 4 Z M 9.5 13 C 6.476563 13 4 15.476563 4 18.5 L 4 30.8125 C 3.992188 30.875 3.992188 30.9375 4 31 C 3.996094 31.09375 4.007813 31.191406 4.03125 31.28125 C 4.179688 32.792969 5.453125 34 7 34 C 7.351563 34 7.683594 33.925781 8 33.8125 L 8 45.34375 C 8 46.804688 9.195313 48 10.65625 48 L 12.34375 48 C 12.988281 48 13.535156 47.699219 14 47.3125 C 14.464844 47.699219 15.011719 48 15.65625 48 L 17.34375 48 C 18.804688 48 20 46.804688 20 45.34375 L 20 38.8125 C 20.316406 38.925781 20.648438 39 21 39 L 21 45.5 C 21 46.867188 22.132813 48 23.5 48 L 26.5 48 C 27.867188 48 29 46.867188 29 45.5 L 29 39 C 29.351563 39 29.683594 38.925781 30 38.8125 L 30 45 C 30 46.644531 31.355469 48 33 48 C 33.765625 48 34.46875 47.699219 35 47.21875 C 35.53125 47.699219 36.234375 48 37 48 C 38.644531 48 40 46.644531 40 45 L 40 37 L 42.59375 37 C 43.25 37 43.871094 36.660156 44.21875 36.125 C 44.21875 36.113281 44.21875 36.105469 44.21875 36.09375 C 44.566406 35.554688 44.644531 34.910156 44.46875 34.3125 C 44.46875 34.300781 44.46875 34.292969 44.46875 34.28125 L 44.0625 33 C 45.074219 33 45.988281 32.507813 46.46875 31.71875 C 46.949219 30.929688 47.023438 29.945313 46.71875 29 C 45.800781 26.164063 42.6875 16.6875 42.6875 16.6875 C 42.5 16.109375 42.148438 15.253906 41.40625 14.46875 C 40.664063 13.683594 39.492188 13 38 13 L 36.0625 13 C 36.042969 13 36.019531 13 36 13 L 32 13 C 30.503906 13 29.335938 13.683594 28.59375 14.46875 C 28.214844 14.875 28.234375 15.511719 28.640625 15.890625 C 29.046875 16.269531 29.683594 16.25 30.0625 15.84375 C 30.515625 15.359375 31.074219 15 32 15 L 36 15 C 36.03125 15 36.0625 15 36.09375 15 L 38 15 C 38.921875 15 39.484375 15.363281 39.9375 15.84375 C 40.390625 16.324219 40.699219 16.957031 40.8125 17.3125 C 40.8125 17.3125 43.894531 26.765625 44.8125 29.59375 C 44.972656 30.085938 44.90625 30.453125 44.78125 30.65625 C 44.65625 30.859375 44.492188 31 44.0625 31 C 43.648438 31 43.289063 30.730469 43.15625 30.375 C 43.152344 30.367188 43.160156 30.351563 43.15625 30.34375 C 43.140625 30.246094 43.109375 30.152344 43.0625 30.0625 L 40.28125 21.6875 C 40.132813 21.222656 39.671875 20.929688 39.1875 21 C 38.890625 21.039063 38.628906 21.210938 38.472656 21.464844 C 38.3125 21.71875 38.277344 22.03125 38.375 22.3125 L 41.1875 30.75 C 41.207031 30.835938 41.238281 30.921875 41.28125 31 L 42.5625 34.90625 L 42.5625 34.9375 C 42.566406 34.96875 42.535156 34.984375 42.53125 35 L 35.0625 35 C 35.042969 35 35.019531 35 35 35 L 32 35 L 32 29 C 32 26.800781 30.199219 25 28 25 L 22 25 C 19.800781 25 18 26.800781 18 29 L 18 30.84375 C 18 30.875 18 30.90625 18 30.9375 L 18 45.34375 C 18 45.726563 17.722656 46 17.34375 46 L 15.65625 46 C 15.273438 46 15 45.726563 15 45.34375 L 15 32.65625 C 15.003906 32.367188 14.878906 32.09375 14.664063 31.902344 C 14.449219 31.710938 14.160156 31.621094 13.875 31.65625 C 13.371094 31.71875 12.996094 32.148438 13 32.65625 L 13 45.34375 C 13 45.726563 12.722656 46 12.34375 46 L 10.65625 46 C 10.273438 46 10 45.726563 10 45.34375 L 10 21 C 10.011719 20.710938 9.894531 20.433594 9.6875 20.238281 C 9.476563 20.039063 9.191406 19.941406 8.90625 19.96875 C 8.863281 19.976563 8.820313 19.988281 8.78125 20 C 8.316406 20.105469 7.988281 20.523438 8 21 L 8 30.84375 C 8 30.875 8 30.90625 8 30.9375 L 8 31 C 8 31.566406 7.566406 32 7 32 C 6.457031 32 6.03125 31.597656 6 31.0625 C 6 31.042969 6 31.019531 6 31 C 6.007813 30.9375 6.007813 30.875 6 30.8125 L 6 18.5 C 6 16.5625 7.558594 15 9.5 15 L 18.5 15 C 19.25 15 19.933594 15.226563 20.5 15.625 C 20.789063 15.867188 21.1875 15.925781 21.53125 15.777344 C 21.878906 15.628906 22.113281 15.300781 22.136719 14.925781 C 22.164063 14.550781 21.976563 14.195313 21.65625 14 C 20.765625 13.375 19.667969 13 18.5 13 Z M 25 16 C 22.800781 16 21 17.800781 21 20 C 21 22.199219 22.800781 24 25 24 C 27.199219 24 29 22.199219 29 20 C 29 17.800781 27.199219 16 25 16 Z M 25 18 C 26.117188 18 27 18.882813 27 20 C 27 21.117188 26.117188 22 25 22 C 23.882813 22 23 21.117188 23 20 C 23 18.882813 23.882813 18 25 18 Z M 22 27 L 28 27 C 29.117188 27 30 27.882813 30 29 L 30 35.8125 C 30 35.84375 30 35.875 30 35.90625 L 30 36 C 30 36.566406 29.566406 37 29 37 L 28 37 C 27.449219 37 27 37.449219 27 38 L 27 45.5 C 27 45.785156 26.785156 46 26.5 46 L 23.5 46 C 23.214844 46 23 45.785156 23 45.5 L 23 38 C 23 37.449219 22.550781 37 22 37 L 21 37 C 20.433594 37 20 36.566406 20 36 L 20 29 C 20 27.882813 20.882813 27 22 27 Z M 32 37 L 34 37 L 34 45 C 34 45.566406 33.566406 46 33 46 C 32.433594 46 32 45.566406 32 45 Z M 36 37 L 38 37 L 38 45 C 38 45.566406 37.566406 46 37 46 C 36.433594 46 36 45.566406 36 45 Z"/></svg>