<svg xmlns="http://www.w3.org/2000/svg" viewBox="0 0 50 50" width="50" height="50" fill="#666"><path d="M 8 2 L 8 48 L 44 48 L 44 15.410156 L 30.183594 2 Z M 10 4 L 29 4 L 29 16.917969 L 42 16.917969 L 42 46 L 10 46 Z M 31 5.578125 L 40.621094 14.917969 L 31 14.917969 Z M 22.3125 22.445313 L 20.121094 32.554688 L 22.027344 32.554688 L 22.476563 30.246094 L 24.289063 30.246094 L 24.722656 32.554688 L 26.628906 32.554688 L 24.664063 22.445313 Z M 27.738281 22.445313 L 27.738281 32.554688 L 29.703125 32.554688 L 29.703125 22.445313 Z M 23.40625 24.304688 L 23.449219 24.304688 C 23.539063 24.980469 23.675781 25.984375 23.78125 26.597656 L 24.109375 28.714844 L 22.671875 28.714844 L 23.046875 26.613281 C 23.148438 26.03125 23.300781 24.980469 23.40625 24.304688 Z"/></svg>