<svg xmlns="http://www.w3.org/2000/svg" viewBox="0 0 50 50" width="50" height="50" fill="#666"><path d="M 7 2 L 7 48 L 43 48 L 43 15.585938 L 29.414063 2 Z M 9 4 L 28 4 L 28 17 L 41 17 L 41 46 L 9 46 Z M 30 5.414063 L 39.585938 15 L 30 15 Z M 25 20.417969 C 24.4375 20.417969 24.058594 20.785156 24.058594 21.332031 L 24.058594 30.316406 C 24.058594 31.417969 23.679688 32.332031 21.601563 32.332031 C 18.671875 32.332031 17.445313 32.976563 17.445313 34.808594 C 17.445313 36 17.730469 37.832031 21.601563 37.832031 C 25.191406 37.832031 25.945313 35.175781 25.945313 33.800781 L 25.945313 25.183594 C 29.34375 25.183594 28.96875 26.46875 31.515625 26.742188 C 32.082031 26.832031 32.558594 26.46875 32.558594 25.917969 L 32.558594 23.167969 C 32.558594 22.707031 32.175781 22.25 31.703125 22.25 C 28.871094 21.976563 29.4375 20.417969 25.945313 20.417969 Z"/></svg>