<svg xmlns="http://www.w3.org/2000/svg" viewBox="0 0 50 50" width="50" height="50" fill="#666"><path d="M 25 0 C 23.359375 0 21.867188 0.808594 20.625 2.125 C 19.382813 3.441406 18.324219 5.273438 17.46875 7.5 C 17.125 8.390625 16.8125 9.359375 16.53125 10.375 C 15.527344 10.121094 14.554688 9.894531 13.625 9.75 C 12.445313 9.5625 11.320313 9.46875 10.28125 9.46875 C 9.242188 9.46875 8.285156 9.574219 7.40625 9.78125 C 5.644531 10.195313 4.164063 11.078125 3.34375 12.5 C 2.523438 13.921875 2.480469 15.640625 3 17.375 C 3.519531 19.109375 4.59375 20.925781 6.09375 22.78125 C 6.6875 23.515625 7.367188 24.257813 8.09375 25 C 7.367188 25.742188 6.6875 26.484375 6.09375 27.21875 C 4.59375 29.074219 3.519531 30.890625 3 32.625 C 2.480469 34.359375 2.523438 36.078125 3.34375 37.5 C 4.164063 38.921875 5.644531 39.804688 7.40625 40.21875 C 9.167969 40.632813 11.265625 40.621094 13.625 40.25 C 14.554688 40.105469 15.527344 39.882813 16.53125 39.625 C 16.8125 40.640625 17.125 41.609375 17.46875 42.5 C 18.324219 44.726563 19.382813 46.558594 20.625 47.875 C 21.867188 49.191406 23.359375 50 25 50 C 26.640625 50 28.132813 49.191406 29.375 47.875 C 30.617188 46.558594 31.675781 44.726563 32.53125 42.5 C 32.875 41.609375 33.1875 40.640625 33.46875 39.625 C 34.472656 39.882813 35.445313 40.105469 36.375 40.25 C 38.734375 40.621094 40.832031 40.632813 42.59375 40.21875 C 44.355469 39.804688 45.835938 38.921875 46.65625 37.5 C 47.476563 36.078125 47.519531 34.359375 47 32.625 C 46.480469 30.890625 45.40625 29.074219 43.90625 27.21875 C 43.3125 26.484375 42.632813 25.742188 41.90625 25 C 42.632813 24.257813 43.3125 23.515625 43.90625 22.78125 C 45.40625 20.925781 46.480469 19.109375 47 17.375 C 47.519531 15.640625 47.476563 13.921875 46.65625 12.5 C 45.835938 11.078125 44.355469 10.195313 42.59375 9.78125 C 41.714844 9.574219 40.757813 9.46875 39.71875 9.46875 C 38.679688 9.46875 37.554688 9.5625 36.375 9.75 C 35.445313 9.894531 34.472656 10.121094 33.46875 10.375 C 33.1875 9.359375 32.875 8.390625 32.53125 7.5 C 31.675781 5.273438 30.617188 3.441406 29.375 2.125 C 28.132813 0.808594 26.640625 0 25 0 Z M 25 2 C 25.988281 2 26.953125 2.457031 27.9375 3.5 C 28.921875 4.542969 29.863281 6.15625 30.65625 8.21875 C 30.972656 9.042969 31.265625 9.945313 31.53125 10.90625 C 29.457031 11.546875 27.265625 12.414063 25 13.46875 C 22.734375 12.414063 20.542969 11.546875 18.46875 10.90625 C 18.734375 9.945313 19.027344 9.042969 19.34375 8.21875 C 20.136719 6.15625 21.078125 4.542969 22.0625 3.5 C 23.046875 2.457031 24.011719 2 25 2 Z M 10.28125 11.46875 C 11.195313 11.46875 12.222656 11.546875 13.3125 11.71875 C 14.179688 11.855469 15.105469 12.066406 16.0625 12.3125 C 15.59375 14.417969 15.242188 16.742188 15.03125 19.21875 C 12.972656 20.65625 11.132813 22.117188 9.53125 23.59375 C 8.839844 22.886719 8.207031 22.183594 7.65625 21.5 C 6.265625 19.78125 5.351563 18.15625 4.9375 16.78125 C 4.523438 15.40625 4.597656 14.355469 5.09375 13.5 C 5.589844 12.644531 6.449219 12.046875 7.84375 11.71875 C 8.542969 11.554688 9.367188 11.46875 10.28125 11.46875 Z M 39.71875 11.46875 C 40.632813 11.46875 41.457031 11.554688 42.15625 11.71875 C 43.550781 12.046875 44.410156 12.644531 44.90625 13.5 C 45.398438 14.355469 45.476563 15.40625 45.0625 16.78125 C 44.648438 18.15625 43.734375 19.78125 42.34375 21.5 C 41.792969 22.183594 41.160156 22.886719 40.46875 23.59375 C 38.867188 22.117188 37.027344 20.65625 34.96875 19.21875 C 34.757813 16.742188 34.40625 14.417969 33.9375 12.3125 C 34.894531 12.066406 35.820313 11.855469 36.6875 11.71875 C 37.777344 11.546875 38.804688 11.46875 39.71875 11.46875 Z M 18 12.875 C 19.480469 13.34375 21.046875 13.898438 22.65625 14.59375 C 21.734375 15.070313 20.8125 15.585938 19.875 16.125 C 18.945313 16.660156 18.054688 17.195313 17.1875 17.75 C 17.386719 16.011719 17.667969 14.386719 18 12.875 Z M 32 12.875 C 32.332031 14.386719 32.613281 16.011719 32.8125 17.75 C 31.945313 17.195313 31.050781 16.660156 30.125 16.125 C 29.1875 15.585938 28.265625 15.070313 27.34375 14.59375 C 28.953125 13.898438 30.519531 13.34375 32 12.875 Z M 25 15.6875 C 26.355469 16.347656 27.730469 17.070313 29.125 17.875 C 30.507813 18.671875 31.792969 19.507813 33.03125 20.34375 C 33.136719 21.84375 33.21875 23.390625 33.21875 25 C 33.21875 26.609375 33.136719 28.15625 33.03125 29.65625 C 31.792969 30.492188 30.507813 31.328125 29.125 32.125 C 27.730469 32.929688 26.355469 33.652344 25 34.3125 C 23.644531 33.652344 22.269531 32.929688 20.875 32.125 C 19.492188 31.328125 18.207031 30.492188 16.96875 29.65625 C 16.863281 28.15625 16.78125 26.609375 16.78125 25 C 16.78125 23.390625 16.863281 21.84375 16.96875 20.34375 C 18.207031 19.507813 19.492188 18.675781 20.875 17.875 C 22.269531 17.070313 23.644531 16.347656 25 15.6875 Z M 25 19 C 21.699219 19 19 21.699219 19 25 C 19 28.300781 21.699219 31 25 31 C 28.300781 31 31 28.300781 31 25 C 31 21.699219 28.300781 19 25 19 Z M 25 21 C 27.222656 21 29 22.777344 29 25 C 29 27.222656 27.222656 29 25 29 C 22.777344 29 21 27.222656 21 25 C 21 22.777344 22.777344 21 25 21 Z M 14.84375 21.8125 C 14.796875 22.855469 14.78125 23.914063 14.78125 25 C 14.78125 26.085938 14.796875 27.144531 14.84375 28.1875 C 13.429688 27.136719 12.179688 26.054688 11.03125 25 C 12.179688 23.945313 13.429688 22.863281 14.84375 21.8125 Z M 35.15625 21.8125 C 36.570313 22.863281 37.820313 23.945313 38.96875 25 C 37.820313 26.054688 36.570313 27.136719 35.15625 28.1875 C 35.203125 27.144531 35.21875 26.085938 35.21875 25 C 35.21875 23.914063 35.203125 22.855469 35.15625 21.8125 Z M 9.53125 26.40625 C 11.132813 27.878906 12.972656 29.347656 15.03125 30.78125 C 15.242188 33.257813 15.59375 35.582031 16.0625 37.6875 C 15.105469 37.933594 14.179688 38.144531 13.3125 38.28125 C 11.128906 38.625 9.238281 38.609375 7.84375 38.28125 C 6.449219 37.953125 5.589844 37.355469 5.09375 36.5 C 4.601563 35.644531 4.523438 34.5625 4.9375 33.1875 C 5.351563 31.8125 6.265625 30.21875 7.65625 28.5 C 8.207031 27.816406 8.839844 27.113281 9.53125 26.40625 Z M 40.46875 26.40625 C 41.160156 27.113281 41.792969 27.816406 42.34375 28.5 C 43.734375 30.21875 44.648438 31.8125 45.0625 33.1875 C 45.476563 34.5625 45.402344 35.644531 44.90625 36.5 C 44.410156 37.355469 43.550781 37.953125 42.15625 38.28125 C 40.761719 38.609375 38.871094 38.625 36.6875 38.28125 C 35.820313 38.144531 34.894531 37.933594 33.9375 37.6875 C 34.40625 35.582031 34.757813 33.257813 34.96875 30.78125 C 37.027344 29.347656 38.867188 27.878906 40.46875 26.40625 Z M 17.1875 32.21875 C 18.054688 32.773438 18.945313 33.308594 19.875 33.84375 C 20.816406 34.386719 21.757813 34.894531 22.6875 35.375 C 21.0625 36.078125 19.492188 36.652344 18 37.125 C 17.664063 35.601563 17.386719 33.96875 17.1875 32.21875 Z M 32.8125 32.21875 C 32.613281 33.96875 32.335938 35.601563 32 37.125 C 30.507813 36.652344 28.9375 36.078125 27.3125 35.375 C 28.242188 34.894531 29.183594 34.386719 30.125 33.84375 C 31.054688 33.308594 31.945313 32.773438 32.8125 32.21875 Z M 25 36.53125 C 27.265625 37.589844 29.457031 38.449219 31.53125 39.09375 C 31.265625 40.054688 30.972656 40.957031 30.65625 41.78125 C 29.863281 43.84375 28.921875 45.457031 27.9375 46.5 C 26.953125 47.542969 25.988281 48 25 48 C 24.011719 48 23.046875 47.542969 22.0625 46.5 C 21.078125 45.457031 20.136719 43.84375 19.34375 41.78125 C 19.027344 40.957031 18.734375 40.054688 18.46875 39.09375 C 20.542969 38.449219 22.734375 37.589844 25 36.53125 Z"/></svg>