<svg xmlns="http://www.w3.org/2000/svg" viewBox="0 0 50 50" width="50" height="50" fill="#666"><path d="M 5 2 L 5 48 L 23 48 L 23 2 Z M 27 2 L 27 48 L 45 48 L 45 2 Z M 7 4 L 21 4 L 21 46 L 7 46 Z M 29 4 L 43 4 L 43 46 L 29 46 Z M 12 7 C 10.90625 7 10 7.90625 10 9 L 10 30 C 10 31.09375 10.90625 32 12 32 L 16 32 C 17.09375 32 18 31.09375 18 30 L 18 9 C 18 7.90625 17.09375 7 16 7 Z M 34 7 C 32.90625 7 32 7.90625 32 9 L 32 30 C 32 31.09375 32.90625 32 34 32 L 38 32 C 39.09375 32 40 31.09375 40 30 L 40 9 C 40 7.90625 39.09375 7 38 7 Z M 12 9 L 16 9 L 16 30 L 12 30 Z M 34 9 L 38 9 L 38 30 L 34 30 Z M 14 35 C 11.800781 35 10 36.800781 10 39 C 10 41.199219 11.800781 43 14 43 C 16.199219 43 18 41.199219 18 39 C 18 36.800781 16.199219 35 14 35 Z M 36 35 C 33.800781 35 32 36.800781 32 39 C 32 41.199219 33.800781 43 36 43 C 38.199219 43 40 41.199219 40 39 C 40 36.800781 38.199219 35 36 35 Z M 14 37 C 15.117188 37 16 37.882813 16 39 C 16 40.117188 15.117188 41 14 41 C 12.882813 41 12 40.117188 12 39 C 12 37.882813 12.882813 37 14 37 Z M 36 37 C 37.117188 37 38 37.882813 38 39 C 38 40.117188 37.117188 41 36 41 C 34.882813 41 34 40.117188 34 39 C 34 37.882813 34.882813 37 36 37 Z"/></svg>