<svg xmlns="http://www.w3.org/2000/svg" viewBox="0 0 50 50" width="50" height="50" fill="#666"><path style="line-height:normal;text-indent:0;text-align:start;text-decoration-line:none;text-decoration-style:solid;text-decoration-color:#000;text-transform:none;block-progression:tb;isolation:auto;mix-blend-mode:normal" d="M 5.9511719 4.0058594 C 4.8995605 4.0058594 4.0058594 4.8668605 4.0058594 5.9316406 L 4.0058594 31.011719 C 4.0058594 31.369856 4.1015109 31.695661 4.2578125 31.980469 C 4.1925211 32.093579 4.1334738 32.21502 4.0898438 32.353516 A 0.89558955 0.89558955 0 0 0 4.0878906 32.355469 L 1.265625 41.351562 A 0.97959795 0.97959795 0 0 0 1.0195312 42 L 1.0195312 45 C 1.0195314 46.059495 1.875018 46.980469 2.9570312 46.980469 L 47.041016 46.980469 C 48.122985 46.980469 48.980469 46.059495 48.980469 45 L 48.980469 42 A 0.97959795 0.97959795 0 0 0 48.734375 41.351562 L 45.912109 32.355469 C 45.868237 32.214915 45.808345 32.092899 45.742188 31.978516 C 45.89797 31.69405 45.994141 31.36922 45.994141 31.011719 L 45.994141 5.9316406 C 45.994141 4.8668605 45.10044 4.0058594 44.048828 4.0058594 L 5.9511719 4.0058594 z M 5.9941406 5.9941406 L 44.005859 5.9941406 L 44.005859 31.011719 C 44.005859 30.914319 43.92732 31.005859 44 31.005859 L 39.101562 31.005859 A 1.0001 1.0001 0 0 0 39 31 L 11 31 A 1.0001 1.0001 0 0 0 10.900391 31.005859 L 6 31.005859 C 6.072717 31.005859 5.9941406 30.914279 5.9941406 31.011719 L 5.9941406 5.9941406 z M 5.7714844 32.972656 C 5.7759897 32.973142 5.7806407 32.972199 5.7851562 32.972656 C 5.7874153 32.98035 5.7947074 32.976965 5.8027344 32.974609 C 5.8686964 32.980738 5.9320382 32.994141 6 32.994141 L 9.7207031 32.994141 L 9.0292969 35.757812 A 1.0001 1.0001 0 0 0 10 37 L 40 37 A 1.0001 1.0001 0 0 0 40.970703 35.757812 L 40.279297 32.994141 L 44 32.994141 C 44.066565 32.994141 44.12871 32.982444 44.193359 32.976562 C 44.203873 32.980915 44.214134 32.981971 44.216797 32.972656 C 44.220666 32.972261 44.224654 32.973072 44.228516 32.972656 L 46.753906 41.019531 L 3.2460938 41.019531 L 5.7714844 32.972656 z M 11.78125 33 L 38.21875 33 L 38.71875 35 L 11.28125 35 L 11.78125 33 z M 21 38 L 20 40 L 30 40 L 29 38 L 21 38 z M 2.9804688 42.980469 L 47.019531 42.980469 L 47.019531 45 C 47.019531 45.04451 47.019051 45.019531 47.041016 45.019531 L 2.9785156 45.019531 C 2.9795216 45.017072 2.9804684 45.015925 2.9804688 45 L 2.9804688 42.980469 z"/></svg>