<svg xmlns="http://www.w3.org/2000/svg" viewBox="0 0 50 50" width="50" height="50" fill="#666"><path d="M 14.3125 2 L 14.0625 2.65625 C 14.0625 2.65625 11 10.75 11 19 C 11 26.226563 16.957031 31.503906 24 31.96875 L 24 38.09375 C 24 39.042969 23.554688 39.839844 22.75 40.59375 C 21.945313 41.347656 20.777344 41.996094 19.59375 42.5 C 17.226563 43.507813 14.84375 43.90625 14.84375 43.90625 C 14.832031 43.90625 14.824219 43.90625 14.8125 43.90625 C 14.09375 44.050781 13.421875 44.421875 12.90625 44.9375 C 12.390625 45.453125 12 46.167969 12 47 C 12 47.550781 12.449219 48 13 48 L 37 48 C 37.550781 48 38 47.550781 38 47 C 38 46.167969 37.609375 45.453125 37.09375 44.9375 C 36.578125 44.421875 35.90625 44.050781 35.1875 43.90625 C 35.175781 43.90625 35.167969 43.90625 35.15625 43.90625 C 35.15625 43.90625 32.773438 43.507813 30.40625 42.5 C 29.222656 41.996094 28.054688 41.347656 27.25 40.59375 C 26.445313 39.839844 26 39.042969 26 38.09375 L 26 31.96875 C 33.042969 31.503906 39 26.226563 39 19 C 39 10.75 35.9375 2.65625 35.9375 2.65625 L 35.6875 2 Z M 15.75 4 L 34.25 4 C 34.457031 4.574219 35.425781 7.316406 36.15625 11 C 36.136719 11 36.113281 11 36.09375 11 L 13.84375 11 C 14.574219 7.316406 15.542969 4.574219 15.75 4 Z M 36.46875 12.9375 C 36.480469 12.9375 36.488281 12.9375 36.5 12.9375 C 36.796875 14.839844 37 16.890625 37 19 C 37 25.429688 31.523438 30 25 30 C 18.476563 30 13 25.429688 13 19 C 13 16.914063 13.207031 14.886719 13.5 13 C 13.5625 13.007813 13.625 13.007813 13.6875 13 L 36.09375 13 C 36.222656 13.003906 36.347656 12.980469 36.46875 12.9375 Z M 25 40.90625 C 25.273438 41.304688 25.527344 41.703125 25.875 42.03125 C 26.945313 43.03125 28.277344 43.785156 29.59375 44.34375 C 32.210938 45.457031 34.785156 45.871094 34.8125 45.875 C 34.8125 45.875 34.84375 45.875 34.84375 45.875 C 34.910156 45.890625 34.960938 45.972656 35.03125 46 L 14.96875 46 C 15.039063 45.972656 15.089844 45.890625 15.15625 45.875 C 15.15625 45.875 15.1875 45.875 15.1875 45.875 C 15.214844 45.871094 17.789063 45.457031 20.40625 44.34375 C 21.722656 43.785156 23.054688 43.03125 24.125 42.03125 C 24.472656 41.703125 24.726563 41.304688 25 40.90625 Z"/></svg>