<svg xmlns="http://www.w3.org/2000/svg" viewBox="0 0 50 50" width="50" height="50" fill="#666"><path d="M 28.992188 8.546875 C 23.777344 8.546875 19.382813 11.660156 17.261719 16.070313 C 16.128906 15.289063 14.832031 14.722656 13.355469 14.722656 C 9.640625 14.722656 6.652344 17.664063 6.429688 21.324219 C 2.707031 22.671875 0 26.152344 0 30.328125 C 0 35.660156 4.339844 40 9.671875 40 L 41.097656 40 C 46.003906 40 50 36.003906 50 31.097656 C 50 26.546875 46.511719 22.917969 42.09375 22.398438 C 42.109375 22.164063 42.140625 21.9375 42.140625 21.695313 C 42.140625 14.445313 36.242188 8.546875 28.992188 8.546875 Z M 28.992188 10.546875 C 35.164063 10.546875 40.140625 15.527344 40.140625 21.695313 C 40.140625 22.152344 40.105469 22.609375 40.046875 23.078125 L 39.90625 24.199219 L 41.039063 24.199219 C 41.160156 24.199219 41.175781 24.199219 41.097656 24.199219 C 44.921875 24.199219 48 27.277344 48 31.097656 C 48 34.921875 44.921875 38 41.097656 38 L 9.671875 38 C 5.421875 38 2 34.578125 2 30.328125 C 2 26.792969 4.386719 23.839844 7.625 22.945313 L 8.386719 22.734375 L 8.359375 21.949219 C 8.355469 21.808594 8.347656 21.738281 8.347656 21.730469 C 8.347656 18.953125 10.578125 16.722656 13.355469 16.722656 C 14.746094 16.722656 15.992188 17.285156 16.898438 18.191406 L 18 19.296875 L 18.546875 17.832031 C 20.117188 13.585938 24.183594 10.546875 28.992188 10.546875 Z M 26 19 C 22.042969 19 18.640625 21.949219 18.078125 25.859375 C 18.074219 25.90625 18.078125 25.953125 18.070313 26 L 20.09375 26 C 20.578125 23.140625 23.082031 21 26 21 C 27.613281 21 29.121094 21.648438 30.234375 22.765625 L 28 25 L 34 25 L 34 19 L 31.648438 21.351563 C 30.164063 19.863281 28.148438 19 26 19 Z M 31.910156 28 C 31.433594 30.832031 28.96875 33 26 33 C 24.332031 33 22.757813 32.386719 21.640625 31.359375 L 24 29 L 18 29 L 18 35 L 20.226563 32.773438 C 21.714844 34.167969 23.800781 35 26 35 C 30.070313 35 33.4375 31.941406 33.933594 28 Z"/></svg>