<svg xmlns="http://www.w3.org/2000/svg" viewBox="0 0 50 50" width="50" height="50" fill="#666"><path style="line-height:normal;text-indent:0;text-align:start;text-decoration-line:none;text-decoration-style:solid;text-decoration-color:#000;text-transform:none;block-progression:tb;isolation:auto;mix-blend-mode:normal" d="M 5 4 C 3.3550302 4 2 5.3550302 2 7 L 2 16 L 2 26 L 2 43 C 2 44.64497 3.3550302 46 5 46 L 45 46 C 46.64497 46 48 44.64497 48 43 L 48 11 C 48 9.3550302 46.64497 8 45 8 L 18 8 C 18.08657 8 17.96899 8.000364 17.724609 7.71875 C 17.480227 7.437136 17.179419 6.9699412 16.865234 6.46875 C 16.55105 5.9675588 16.221777 5.4327899 15.806641 4.9628906 C 15.391504 4.4929914 14.818754 4 14 4 L 5 4 z M 5 6 L 14 6 C 13.93925 6 14.06114 6.00701 14.308594 6.2871094 C 14.556051 6.5672101 14.857231 7.0324412 15.169922 7.53125 C 15.482613 8.0300588 15.806429 8.562864 16.212891 9.03125 C 16.619352 9.499636 17.178927 10 18 10 L 45 10 C 45.56503 10 46 10.43497 46 11 L 46 13.1875 C 45.685108 13.07394 45.351843 13 45 13 L 5 13 C 4.6481575 13 4.3148915 13.07394 4 13.1875 L 4 7 C 4 6.4349698 4.4349698 6 5 6 z M 5 15 L 45 15 C 45.56503 15 46 15.43497 46 16 L 46 43 C 46 43.56503 45.56503 44 45 44 L 5 44 C 4.4349698 44 4 43.56503 4 43 L 4 16 C 4 15.43497 4.4349698 15 5 15 z M 20.714844 20 C 17.061376 20 14 22.772122 14 26.267578 C 14 29.498825 16.727445 32.678611 19.287109 35.275391 C 21.846774 37.87217 24.396484 39.796875 24.396484 39.796875 L 24.996094 40.25 L 25.597656 39.800781 C 25.597656 39.800781 28.149759 37.898778 30.710938 35.3125 C 33.272115 32.726222 36 29.534329 36 26.267578 C 36 22.772122 32.938624 20 29.285156 20 C 27.564735 20 26.144769 20.796614 25 21.769531 C 23.855231 20.796614 22.435265 20 20.714844 20 z M 20.714844 22 C 22.084338 22 23.373807 22.738033 24.273438 23.6875 L 25 24.453125 L 25.726562 23.6875 C 26.626193 22.738033 27.915662 22 29.285156 22 C 31.941688 22 34 23.945034 34 26.267578 C 34 28.268827 31.727884 31.443528 29.289062 33.90625 C 27.150185 36.066089 25.499548 37.292977 25.003906 37.671875 C 24.50904 37.289107 22.853941 36.045143 20.712891 33.873047 C 18.272555 31.397326 16 28.210331 16 26.267578 C 16 23.945034 18.058312 22 20.714844 22 z"/></svg>