<svg xmlns="http://www.w3.org/2000/svg" viewBox="0 0 50 50" width="50" height="50" fill="#666"><path d="M 5 4 C 3.355469 4 2 5.355469 2 7 L 2 43 C 2 44.644531 3.355469 46 5 46 L 45 46 C 46.644531 46 48 44.644531 48 43 L 48 11 C 48 9.355469 46.644531 8 45 8 L 18 8 C 18.085938 8 17.96875 8 17.722656 7.71875 C 17.480469 7.4375 17.179688 6.96875 16.863281 6.46875 C 16.550781 5.96875 16.222656 5.433594 15.808594 4.960938 C 15.390625 4.492188 14.820313 4 14 4 Z M 5 6 L 14 6 C 13.9375 6 14.0625 6.007813 14.308594 6.289063 C 14.554688 6.566406 14.855469 7.03125 15.171875 7.53125 C 15.265625 7.683594 15.367188 7.84375 15.46875 8 L 5 8 C 4.648438 8 4.316406 8.074219 4 8.1875 L 4 7 C 4 6.4375 4.4375 6 5 6 Z M 5 10 L 22 10 L 22 23.28125 C 21.40625 23.632813 21 24.269531 21 25 L 21 27 C 21 27.832031 21.527344 28.554688 22.261719 28.851563 C 22.117188 29.410156 22.019531 29.773438 21.777344 30.796875 C 21.589844 31.597656 21.398438 32.4375 21.253906 33.167969 C 21.109375 33.894531 21 34.453125 21 34.960938 C 21 37.171875 22.796875 39 25 39 C 27.203125 39 29 37.171875 29 34.960938 C 29 34.453125 28.890625 33.894531 28.746094 33.167969 C 28.601563 32.4375 28.410156 31.597656 28.222656 30.796875 C 27.980469 29.773438 27.882813 29.410156 27.738281 28.851563 C 28.472656 28.554688 29 27.832031 29 27 L 29 25 C 29 24.269531 28.59375 23.632813 28 23.28125 L 28 10 L 45 10 C 45.5625 10 46 10.4375 46 11 L 46 43 C 46 43.5625 45.5625 44 45 44 L 5 44 C 4.4375 44 4 43.5625 4 43 L 4 11 C 4 10.433594 4.433594 10 5 10 Z M 24 10 L 26 10 L 26 14 L 25 14 L 25 16 L 26 16 L 26 20 L 25 20 L 25 22 L 26 22 L 26 23 L 24 23 L 24 19 L 25 19 L 25 17 L 24 17 L 24 13 L 25 13 L 25 11 L 24 11 Z M 23 25 L 27 25 L 27 27 L 23 27 Z M 24.28125 29 L 25.71875 29 C 25.839844 29.472656 26 30.070313 26.277344 31.253906 C 26.464844 32.042969 26.648438 32.863281 26.785156 33.554688 C 26.921875 34.246094 27 34.863281 27 34.960938 C 27 36.09375 26.097656 37 25 37 C 23.902344 37 23 36.09375 23 34.960938 C 23 34.863281 23.078125 34.246094 23.214844 33.554688 C 23.351563 32.863281 23.535156 32.042969 23.722656 31.253906 C 24 30.070313 24.160156 29.472656 24.28125 29 Z M 25 34 C 24.457031 34 24.011719 34.449219 24.015625 35 C 24.011719 35.550781 24.457031 36 25 36 C 25.542969 36 25.988281 35.550781 25.984375 35 C 25.988281 34.449219 25.542969 34 25 34 Z"/></svg>