<svg xmlns="http://www.w3.org/2000/svg" viewBox="0 0 50 50" width="50" height="50" fill="#666"><path d="M 18.90625 2 C 12.890625 2 8 6.921875 8 12.96875 C 8 14.671875 8.738281 16.632813 9.875 18.75 C 11.011719 20.867188 12.566406 23.109375 14.28125 25.1875 C 15.996094 27.265625 17.863281 29.175781 19.6875 30.59375 C 20.914063 31.546875 22.101563 32.292969 23.28125 32.6875 L 22.5 35 L 23.9375 35 C 23.859375 35.476563 23.714844 35.84375 23.5625 36.21875 C 23.328125 36.804688 23 37.503906 23 38.5 C 23 39.773438 23.652344 40.746094 24.15625 41.5625 C 24.660156 42.378906 25 43.042969 25 43.5 C 25 45.472656 24.21875 46.375 24.21875 46.375 C 23.875 46.804688 23.941406 47.4375 24.375 47.78125 C 24.804688 48.125 25.4375 48.058594 25.78125 47.625 C 25.78125 47.625 27 46.058594 27 43.5 C 27 42.257813 26.339844 41.335938 25.84375 40.53125 C 25.347656 39.726563 25 39.039063 25 38.5 C 25 37.929688 25.175781 37.59375 25.4375 36.9375 C 25.632813 36.453125 25.839844 35.824219 25.9375 35 L 27.5 35 L 26.71875 32.6875 C 27.898438 32.292969 29.085938 31.546875 30.3125 30.59375 C 32.136719 29.175781 34.003906 27.265625 35.71875 25.1875 C 37.433594 23.109375 38.988281 20.867188 40.125 18.75 C 41.261719 16.632813 42 14.671875 42 12.96875 C 42 6.925781 37.109375 2 31.09375 2 C 28.816406 2 26.746094 2.796875 25 4 C 23.253906 2.796875 21.183594 2 18.90625 2 Z M 18.90625 4 C 20.976563 4 22.859375 4.710938 24.375 5.90625 C 24.742188 6.199219 25.257813 6.199219 25.625 5.90625 C 27.140625 4.710938 29.023438 4 31.09375 4 C 36.019531 4 40 7.996094 40 12.96875 C 40 14.019531 39.398438 15.84375 38.34375 17.8125 C 37.289063 19.78125 35.792969 21.917969 34.15625 23.90625 C 32.519531 25.894531 30.722656 27.710938 29.0625 29 C 27.402344 30.289063 25.859375 31 25 31 C 24.140625 31 22.597656 30.289063 20.9375 29 C 19.277344 27.710938 17.480469 25.894531 15.84375 23.90625 C 14.207031 21.917969 12.710938 19.78125 11.65625 17.8125 C 10.601563 15.84375 10 14.019531 10 12.96875 C 10 7.996094 13.980469 4 18.90625 4 Z"/></svg>