<svg xmlns="http://www.w3.org/2000/svg" viewBox="0 0 50 50" width="50" height="50" fill="#666"><path d="M 25 2 C 16.175781 2 9 9.175781 9 18 C 9 24.34375 12.863281 31.664063 16.65625 37.5 C 20.449219 43.335938 24.25 47.65625 24.25 47.65625 C 24.441406 47.871094 24.714844 47.996094 25 47.996094 C 25.285156 47.996094 25.558594 47.871094 25.75 47.65625 C 25.75 47.65625 29.550781 43.328125 33.34375 37.5 C 37.136719 31.671875 41 24.375 41 18 C 41 9.175781 33.824219 2 25 2 Z M 25 4 C 32.742188 4 39 10.257813 39 18 C 39 23.539063 35.363281 30.742188 31.65625 36.4375 C 28.546875 41.210938 25.921875 44.355469 25 45.4375 C 24.082031 44.355469 21.457031 41.195313 18.34375 36.40625 C 14.636719 30.703125 11 23.5 11 18 C 11 10.257813 17.257813 4 25 4 Z M 25 11.84375 L 24.5 12.15625 L 17 16.65625 L 18 18.34375 L 18 26 L 32 26 L 32 18.34375 L 33 16.65625 L 25.5 12.15625 Z M 25 14.15625 L 30 17.15625 L 30 24 L 27 24 L 27 19 L 23 19 L 23 24 L 20 24 L 20 17.15625 Z"/></svg>