<svg xmlns="http://www.w3.org/2000/svg" viewBox="0 0 50 50" width="50" height="50" fill="#666"><path d="M 6 0 L 6 50 L 44 50 L 44 14.585938 L 29.414063 0 Z M 8 2 L 28 2 L 28 16 L 42 16 L 42 48 L 8 48 Z M 30 3.414063 L 40.585938 14 L 30 14 Z M 10.515625 24.542969 L 10.515625 36 L 12.335938 36 L 12.335938 30.953125 L 15.054688 30.953125 L 15.054688 36 L 16.875 36 L 16.875 24.542969 L 15.054688 24.542969 L 15.054688 29.285156 L 12.335938 29.285156 L 12.335938 24.542969 Z M 17.925781 24.542969 L 17.925781 26.207031 L 19.984375 26.207031 L 19.984375 36 L 21.800781 36 L 21.800781 26.207031 L 23.859375 26.207031 L 23.859375 24.542969 Z M 25.339844 24.542969 L 24.574219 36 L 26.15625 36 L 26.359375 31.632813 C 26.425781 30.273438 26.496094 28.757813 26.515625 27.46875 L 26.5625 27.46875 C 26.769531 28.742188 27.074219 30.167969 27.378906 31.324219 L 28.5 35.863281 L 29.742188 35.863281 L 30.933594 31.203125 C 31.203125 30.101563 31.507813 28.726563 31.730469 27.46875 L 31.78125 27.46875 C 31.765625 28.726563 31.832031 30.289063 31.902344 31.578125 L 32.125 36 L 33.769531 36 L 33.089844 24.542969 L 31.136719 24.542969 L 30.0625 29.183594 C 29.722656 30.679688 29.46875 31.871094 29.265625 33.160156 L 29.234375 33.160156 C 29.011719 31.871094 28.722656 30.664063 28.363281 29.183594 L 27.261719 24.542969 Z M 35.300781 24.542969 L 35.300781 36 L 40.179688 36 L 40.179688 34.46875 L 37.121094 34.46875 L 37.121094 24.542969 Z"/></svg>