<svg xmlns="http://www.w3.org/2000/svg" viewBox="0 0 50 50" width="50" height="50" fill="#666"><path d="M 20 16 C 17.15625 16 13.644531 17.308594 10.125 18.6875 C 6.667969 20.042969 3.234375 21.5 0.9375 22 C 0.929688 22.003906 0.914063 21.996094 0.90625 22 C 0.875 22 0.84375 22 0.8125 22 C 0.675781 22.035156 0.546875 22.097656 0.4375 22.1875 C 0.417969 22.195313 0.394531 22.207031 0.375 22.21875 C 0.339844 22.246094 0.308594 22.277344 0.28125 22.3125 C 0.261719 22.320313 0.238281 22.332031 0.21875 22.34375 C 0.21875 22.355469 0.21875 22.363281 0.21875 22.375 C 0.195313 22.394531 0.175781 22.414063 0.15625 22.4375 C 0.15625 22.449219 0.15625 22.457031 0.15625 22.46875 C 0.117188 22.527344 0.0859375 22.589844 0.0625 22.65625 C 0.0507813 22.667969 0.0429688 22.675781 0.03125 22.6875 C 0.03125 22.707031 0.03125 22.730469 0.03125 22.75 C 0.015625 22.800781 0.0078125 22.851563 0 22.90625 C 0 22.917969 0 22.925781 0 22.9375 C 0 22.957031 0 22.980469 0 23 C 0 23.011719 0 23.019531 0 23.03125 C 0 23.050781 0 23.074219 0 23.09375 C 0 23.105469 0 23.113281 0 23.125 C 0 23.144531 0 23.167969 0 23.1875 C 0.0117188 23.199219 0.0195313 23.207031 0.03125 23.21875 C 0.03125 23.238281 0.03125 23.261719 0.03125 23.28125 C 0.0390625 23.300781 0.0507813 23.324219 0.0625 23.34375 C 0.0703125 23.363281 0.0820313 23.386719 0.09375 23.40625 C 0.09375 23.417969 0.09375 23.425781 0.09375 23.4375 C 0.105469 23.449219 0.113281 23.457031 0.125 23.46875 C 0.132813 23.488281 0.144531 23.511719 0.15625 23.53125 C 0.15625 23.542969 0.15625 23.550781 0.15625 23.5625 C 0.167969 23.574219 0.175781 23.582031 0.1875 23.59375 C 0.199219 23.605469 0.207031 23.613281 0.21875 23.625 C 0.226563 23.644531 0.238281 23.667969 0.25 23.6875 C 0.269531 23.699219 0.292969 23.710938 0.3125 23.71875 C 0.3125 23.730469 0.3125 23.738281 0.3125 23.75 C 0.332031 23.761719 0.355469 23.773438 0.375 23.78125 C 0.386719 23.792969 0.394531 23.800781 0.40625 23.8125 C 0.425781 23.824219 0.449219 23.835938 0.46875 23.84375 C 0.480469 23.855469 0.488281 23.863281 0.5 23.875 C 0.511719 23.875 0.519531 23.875 0.53125 23.875 C 0.542969 23.886719 0.550781 23.894531 0.5625 23.90625 C 0.582031 23.917969 0.605469 23.929688 0.625 23.9375 C 2.6875 24.769531 5.78125 27.972656 9.71875 31.03125 C 13.65625 34.089844 18.625 37 25 37 C 31.375 37 36.375 34.09375 40.3125 31.03125 C 44.25 27.96875 47.324219 24.765625 49.375 23.9375 C 49.417969 23.917969 49.460938 23.898438 49.5 23.875 C 49.53125 23.867188 49.5625 23.855469 49.59375 23.84375 C 50.050781 23.621094 50.265625 23.09375 50.097656 22.613281 C 49.933594 22.136719 49.433594 21.859375 48.9375 21.96875 C 46.660156 21.476563 43.277344 20.058594 39.875 18.71875 C 36.351563 17.332031 32.835938 16 30 16 C 28.667969 16 27.371094 16.5625 26.3125 17.09375 C 25.570313 17.464844 25.300781 17.652344 25 17.84375 C 24.699219 17.652344 24.429688 17.464844 23.6875 17.09375 C 22.628906 16.5625 21.332031 16 20 16 Z M 20 18 C 20.664063 18 21.871094 18.4375 22.8125 18.90625 C 23.753906 19.375 24.4375 19.84375 24.4375 19.84375 C 24.777344 20.074219 25.222656 20.074219 25.5625 19.84375 C 25.5625 19.84375 26.246094 19.375 27.1875 18.90625 C 28.128906 18.4375 29.335938 18 30 18 C 32.160156 18 35.671875 19.191406 39.15625 20.5625 C 41.417969 21.453125 43.574219 22.292969 45.59375 22.96875 C 41.347656 24.128906 33.261719 26 25 26 C 16.699219 26 8.574219 24.128906 4.34375 22.96875 C 6.382813 22.28125 8.566406 21.425781 10.84375 20.53125 C 14.324219 19.167969 17.816406 18 20 18 Z M 6.28125 25.5 C 10.921875 26.644531 17.847656 28 25 28 C 32.183594 28 39.140625 26.648438 43.78125 25.5 C 42.339844 26.75 40.789063 28.125 39.0625 29.46875 C 35.285156 32.40625 30.773438 35 25 35 C 19.226563 35 14.714844 32.402344 10.9375 29.46875 C 9.222656 28.136719 7.710938 26.746094 6.28125 25.5 Z"/></svg>