<svg xmlns="http://www.w3.org/2000/svg" viewBox="0 0 50 50" width="50" height="50" fill="#666"><path d="M 16.40625 4 C 16.132813 4.058594 15.894531 4.226563 15.75 4.46875 L 0.15625 29.46875 C -0.03125 29.757813 -0.0546875 30.125 0.09375 30.4375 L 7.90625 46.4375 C 8.074219 46.785156 8.425781 47.003906 8.8125 47 L 40.3125 47 C 40.679688 46.996094 41.015625 46.792969 41.1875 46.46875 L 49.875 30.46875 C 50.042969 30.152344 50.03125 29.773438 49.84375 29.46875 L 34.25 4.46875 C 34.066406 4.175781 33.75 4 33.40625 4 L 16.59375 4 C 16.5625 4 16.53125 4 16.5 4 C 16.46875 4 16.4375 4 16.40625 4 Z M 17.28125 6 L 32.84375 6 L 47.53125 29.5625 L 29.40625 24 Z M 16.9375 6.375 L 21.09375 23.40625 L 9.375 44.9375 L 2.15625 30.0625 Z M 24.8125 21.40625 L 29.6875 29 L 20.3125 29 Z M 47.8125 30.0625 L 39.71875 45 L 9.9375 45 L 25 31.5 Z"/></svg>