<svg xmlns="http://www.w3.org/2000/svg" viewBox="0 0 50 50" width="50" height="50" fill="#666"><path d="M 25 2 C 12.309295 2 2 12.309295 2 25 C 2 37.690705 12.309295 48 25 48 C 37.690705 48 48 37.690705 48 25 C 48 12.309295 37.690705 2 25 2 z M 25 4 C 36.609824 4 46 13.390176 46 25 C 46 36.609824 36.609824 46 25 46 C 13.390176 46 4 36.609824 4 25 C 4 13.390176 13.390176 4 25 4 z M 18 13 L 18 30 L 15 30 L 15 32 L 18 32 L 18 37 L 20.300781 37 L 20.300781 32 L 26 32 L 26 30 L 20.300781 30 L 20.300781 25.5 L 31.800781 25.5 L 31.800781 23.599609 L 20.300781 23.599609 L 20.300781 14.900391 L 33.199219 14.900391 L 33.199219 13 L 18 13 z"/></svg>