<svg xmlns="http://www.w3.org/2000/svg" viewBox="0 0 50 50" width="50" height="50" fill="#666"><path d="M 40 12 C 35.007813 12 14.957031 12 9.921875 12 C 8.074219 12.003906 6.363281 13.214844 5.785156 14.972656 C 5.457031 15.972656 2.675781 25.09375 1.511719 28.832031 C 1.167969 29.9375 0.855469 31.175781 1.070313 32.535156 C 1.507813 35.273438 3.730469 37.507813 6.5 37.910156 C 9.523438 38.347656 12.277344 36.949219 13.496094 34.441406 C 14.015625 33.371094 14.460938 32.117188 14.828125 31 C 16.6875 31 20.777344 31 25 31 C 29.191406 31 33.226563 31 35.109375 31 C 35.320313 31.722656 35.539063 32.53125 35.769531 33.265625 L 35.773438 33.265625 C 36.910156 36.820313 40.664063 38.710938 44.230469 37.746094 C 47.609375 36.828125 49.695313 33.328125 48.785156 29.929688 C 48.25 27.933594 45.214844 18.261719 44.289063 15.21875 C 43.71875 13.34375 41.980469 12 40 12 Z M 40 14 C 41.046875 14 42.066406 14.777344 42.375 15.800781 C 43.3125 18.878906 46.398438 28.742188 46.855469 30.449219 C 47.476563 32.777344 46.050781 35.179688 43.703125 35.8125 C 41.09375 36.519531 38.492188 35.210938 37.675781 32.65625 C 37.433594 31.890625 37.179688 30.925781 36.933594 30.09375 C 36.855469 29.835938 36.695313 29.503906 36.378906 29.277344 C 36.066406 29.046875 35.714844 29 35.453125 29 C 33.675781 29 29.335938 29 25 29 C 20.660156 29 16.324219 29.003906 14.546875 29 C 14.257813 29 13.871094 29.066406 13.558594 29.3125 C 13.242188 29.558594 13.101563 29.878906 13.023438 30.125 L 13.023438 30.128906 C 12.664063 31.25 12.183594 32.566406 11.699219 33.566406 C 10.851563 35.304688 9.078125 36.261719 6.789063 35.933594 C 4.9375 35.664063 3.339844 34.058594 3.046875 32.222656 C 2.90625 31.347656 3.101563 30.449219 3.421875 29.425781 C 4.589844 25.671875 7.449219 16.320313 7.6875 15.597656 C 7.9375 14.835938 9.097656 14 9.921875 14 C 14.957031 14 35.007813 14 40 14 Z M 12 16 L 12 18 L 10 18 L 10 20 L 12 20 L 12 22 L 14 22 L 14 20 L 16 20 L 16 18 L 14 18 L 14 16 Z M 36.980469 16 C 36.445313 16.007813 36 16.464844 36 17 C 36 17.558594 36.460938 18.007813 37.019531 18 C 37.558594 17.988281 38 17.539063 38 16.996094 C 38 16.441406 37.542969 15.992188 36.980469 16 Z M 38.96875 18 C 38.433594 18.007813 37.992188 18.460938 38 19.007813 C 38.007813 19.554688 38.457031 20.007813 38.984375 20 C 39.558594 19.992188 40.003906 19.546875 40 18.988281 C 39.996094 18.433594 39.535156 17.992188 38.96875 18 Z M 34.996094 18 C 34.449219 18.003906 34.003906 18.445313 34 18.988281 C 33.996094 19.550781 34.4375 19.988281 35.019531 20 C 35.574219 20.011719 35.992188 19.585938 36 19.011719 C 36.007813 18.441406 35.566406 18 34.996094 18 Z M 36.988281 20 C 36.453125 20.007813 36.003906 20.460938 36 20.996094 C 35.996094 21.550781 36.453125 22.007813 37.011719 22 C 37.546875 21.992188 37.996094 21.542969 38 21.007813 C 38.003906 20.449219 37.542969 19.992188 36.988281 20 Z M 20.042969 21 C 18.382813 20.976563 17 22.335938 17 24 C 16.996094 25.652344 18.355469 27.007813 20.003906 27 C 21.640625 26.992188 22.996094 25.652344 23 24.015625 C 23.003906 22.382813 21.675781 21.023438 20.042969 21 Z M 29.984375 21 C 28.351563 21.007813 27.007813 22.355469 27 23.988281 C 26.992188 25.640625 28.359375 27.003906 30.011719 27 C 31.660156 26.996094 33.003906 25.632813 33 23.984375 C 32.996094 22.339844 31.632813 20.992188 29.984375 21 Z M 20.015625 23 C 20.613281 23.007813 21 23.402344 21 24.011719 C 21 24.597656 20.601563 24.996094 20 25 C 19.484375 25 19 24.515625 19 24 C 19 23.457031 19.472656 22.992188 20.015625 23 Z M 29.996094 23 C 30.53125 22.996094 31 23.460938 31 23.992188 C 31 24.519531 30.523438 25 30.007813 25 C 29.410156 25 28.996094 24.585938 29 24 C 29.003906 23.402344 29.402344 23.003906 29.996094 23 Z"/></svg>