<svg xmlns="http://www.w3.org/2000/svg" viewBox="0 0 50 50" width="50" height="50" fill="#666"><path style="line-height:normal;text-indent:0;text-align:start;text-decoration-line:none;text-decoration-style:solid;text-decoration-color:#000;text-transform:none;block-progression:tb;isolation:auto;mix-blend-mode:normal" d="M 24.962891 1.0546875 A 1.0001 1.0001 0 0 0 24.384766 1.2636719 L 1.3847656 19.210938 A 1.0005659 1.0005659 0 0 0 2.6152344 20.789062 L 4 19.708984 L 4 46 A 1.0001 1.0001 0 0 0 5 47 L 18.832031 47 A 1.0001 1.0001 0 0 0 19.158203 47 L 30.832031 47 A 1.0001 1.0001 0 0 0 31.158203 47 L 45 47 A 1.0001 1.0001 0 0 0 46 46 L 46 19.708984 L 47.384766 20.789062 A 1.0005657 1.0005657 0 1 0 48.615234 19.210938 L 41 13.269531 C 40.999922 13.061489 41.00006 12.820623 41 12.507812 C 40.999859 11.776319 41.000062 10.809744 41 9.8457031 C 40.999875 7.9176211 41 6 41 6 A 1.0001 1.0001 0 0 0 40 5 L 36 5 A 1.0001 1.0001 0 0 0 35 6 C 35 6 35.000625 7.1570629 35 8.3144531 C 34.999946 8.4138611 35.000063 8.4892153 35 8.5878906 L 25.615234 1.2636719 A 1.0001 1.0001 0 0 0 24.962891 1.0546875 z M 25 3.3222656 L 35.378906 11.419922 A 1.0001 1.0001 0 0 0 36.367188 11.560547 C 36.367188 11.560547 36.986309 10.761867 36.986328 10.761719 C 36.986348 10.76157 36.991388 10.708386 36.992188 10.697266 C 36.993688 10.675006 36.993841 10.668839 36.994141 10.662109 C 36.994592 10.648659 36.995894 10.642016 36.996094 10.634766 C 36.996335 10.620266 36.995945 10.606331 36.996094 10.587891 C 36.996392 10.551011 36.995852 10.499661 36.996094 10.435547 C 36.996578 10.307318 36.997647 10.125735 36.998047 9.9082031 C 36.99857 9.4731324 36.999687 8.8954613 37 8.3164062 C 37.000355 7.6582563 36.999934 7.4454733 37 7 L 39 7 C 39.000006 7.6422969 38.999908 8.4189176 39 9.8457031 C 39.000063 10.809787 38.999859 11.77615 39 12.507812 C 39.00007 12.873644 38.999904 13.179924 39 13.398438 C 39.000096 13.61695 39.000933 13.681016 39.001953 13.769531 A 1.0001 1.0001 0 0 0 39.386719 14.546875 L 44 18.146484 L 44 45 L 32 45 L 32 26 L 18 26 L 18 45 L 6 45 L 6 18.148438 L 25 3.3222656 z M 20 28 L 30 28 L 30 45 L 20 45 L 20 28 z M 27 35 A 1 1 0 0 0 26 36 A 1 1 0 0 0 27 37 A 1 1 0 0 0 28 36 A 1 1 0 0 0 27 35 z"/></svg>