<svg xmlns="http://www.w3.org/2000/svg" viewBox="0 0 50 50" width="50" height="50" fill="#666"><path d="M 10.3125 0.09375 C 8.804688 0.0546875 7.25 0.59375 5.96875 1.875 C 3.621094 4.222656 2.75 6.742188 3.15625 9.03125 C 3.5625 11.320313 5.105469 13.246094 7.09375 14.84375 C 8.667969 16.109375 10.53125 17.167969 12.46875 18 L 4 18 C 1.800781 18 0 19.800781 0 22 L 0 30.8125 C -0.0078125 30.875 -0.0078125 30.9375 0 31 L 0 37 C 0 37.03125 0 37.0625 0 37.09375 L 0 46 C 0 48.199219 1.800781 50 4 50 L 46 50 C 48.199219 50 50 48.199219 50 46 L 50 37.15625 C 50.003906 37.105469 50.003906 37.050781 50 37 L 50 31 C 50 30.96875 50 30.9375 50 30.90625 L 50 22 C 50 19.800781 48.199219 18 46 18 L 37.53125 18 C 39.46875 17.167969 41.332031 16.109375 42.90625 14.84375 C 44.894531 13.246094 46.4375 11.320313 46.84375 9.03125 C 47.25 6.742188 46.378906 4.222656 44.03125 1.875 C 42.570313 0.410156 40.726563 -0.0703125 39.03125 0.15625 C 37.335938 0.382813 35.796875 1.34375 34.9375 2.75 C 32.929688 6.03125 30.269531 10.003906 28.1875 12.28125 C 27.820313 12.117188 27.425781 12 27 12 L 23 12 C 22.574219 12 22.179688 12.117188 21.8125 12.28125 C 19.730469 10.003906 17.070313 6.03125 15.0625 2.75 C 14.203125 1.34375 12.664063 0.382813 10.96875 0.15625 C 10.757813 0.128906 10.527344 0.0976563 10.3125 0.09375 Z M 9.875 2.09375 C 11.332031 2 12.738281 2.742188 13.375 3.78125 C 15.410156 7.109375 18.03125 11.105469 20.34375 13.625 C 20.203125 13.894531 20.117188 14.191406 20.0625 14.5 C 18.300781 13.210938 16.621094 11.195313 15.125 9.46875 C 14.1875 8.386719 13.328125 7.441406 12.375 6.84375 C 11.898438 6.546875 11.371094 6.335938 10.75 6.375 C 10.128906 6.414063 9.535156 6.757813 9.125 7.25 C 8.710938 7.746094 8.492188 8.390625 8.53125 9 C 8.570313 9.609375 8.8125 10.140625 9.15625 10.625 C 9.839844 11.589844 10.917969 12.414063 12.1875 13.21875 C 14.523438 14.699219 17.523438 16.019531 20 16.9375 L 20 17 C 20 17.332031 20.085938 17.636719 20.1875 17.9375 C 16.703125 17.683594 11.59375 15.925781 8.34375 13.3125 C 6.585938 11.898438 5.410156 10.296875 5.125 8.6875 C 4.839844 7.078125 5.308594 5.316406 7.34375 3.28125 C 8.113281 2.507813 9 2.148438 9.875 2.09375 Z M 40.125 2.09375 C 41 2.148438 41.886719 2.507813 42.65625 3.28125 C 44.691406 5.316406 45.160156 7.078125 44.875 8.6875 C 44.589844 10.296875 43.414063 11.898438 41.65625 13.3125 C 38.40625 15.925781 33.296875 17.683594 29.8125 17.9375 C 29.914063 17.636719 30 17.332031 30 17 L 30 16.9375 C 32.476563 16.019531 35.476563 14.699219 37.8125 13.21875 C 39.082031 12.414063 40.160156 11.589844 40.84375 10.625 C 41.1875 10.140625 41.429688 9.609375 41.46875 9 C 41.507813 8.390625 41.289063 7.746094 40.875 7.25 C 40.464844 6.757813 39.871094 6.414063 39.25 6.375 C 38.628906 6.335938 38.101563 6.546875 37.625 6.84375 C 36.671875 7.441406 35.8125 8.386719 34.875 9.46875 C 33.378906 11.195313 31.699219 13.210938 29.9375 14.5 C 29.882813 14.191406 29.796875 13.894531 29.65625 13.625 C 31.96875 11.105469 34.589844 7.109375 36.625 3.78125 C 37.261719 2.742188 38.667969 2 40.125 2.09375 Z M 10.875 8.34375 C 10.914063 8.339844 11.074219 8.363281 11.34375 8.53125 C 11.882813 8.867188 12.710938 9.726563 13.625 10.78125 C 14.109375 11.339844 14.703125 11.996094 15.25 12.625 C 14.570313 12.269531 13.832031 11.933594 13.25 11.5625 C 12.09375 10.828125 11.183594 10.070313 10.78125 9.5 C 10.578125 9.214844 10.507813 8.992188 10.5 8.875 C 10.492188 8.757813 10.484375 8.699219 10.625 8.53125 C 10.789063 8.335938 10.835938 8.347656 10.875 8.34375 Z M 39.125 8.34375 C 39.164063 8.347656 39.210938 8.335938 39.375 8.53125 C 39.515625 8.699219 39.507813 8.757813 39.5 8.875 C 39.492188 8.992188 39.421875 9.214844 39.21875 9.5 C 38.816406 10.070313 37.90625 10.828125 36.75 11.5625 C 36.167969 11.933594 35.429688 12.269531 34.75 12.625 C 35.296875 11.996094 35.890625 11.339844 36.375 10.78125 C 37.289063 9.726563 38.117188 8.867188 38.65625 8.53125 C 38.925781 8.363281 39.085938 8.339844 39.125 8.34375 Z M 23 14 L 27 14 C 27.238281 14 27.453125 14.082031 27.625 14.21875 C 27.644531 14.242188 27.664063 14.261719 27.6875 14.28125 C 27.695313 14.289063 27.710938 14.273438 27.71875 14.28125 C 27.738281 14.3125 27.757813 14.34375 27.78125 14.375 C 27.917969 14.546875 28 14.761719 28 15 L 28 16.125 C 28 16.15625 28 16.1875 28 16.21875 C 28 16.25 28 16.28125 28 16.3125 C 28 16.34375 28 16.375 28 16.40625 L 28 17 C 28 17.558594 27.558594 18 27 18 L 23 18 C 22.441406 18 22 17.558594 22 17 L 22 16.46875 C 22 16.4375 22 16.40625 22 16.375 C 22 16.34375 22 16.3125 22 16.28125 C 22 16.25 22 16.21875 22 16.1875 C 22 16.15625 22 16.125 22 16.09375 L 22 15 C 22 14.679688 22.144531 14.402344 22.375 14.21875 C 22.398438 14.199219 22.417969 14.179688 22.4375 14.15625 C 22.59375 14.050781 22.792969 14 23 14 Z M 4 20 L 21 20 L 21 30 L 2 30 L 2 22 C 2 20.882813 2.882813 20 4 20 Z M 23 20 L 27 20 L 27 37 C 27 37.03125 27 37.0625 27 37.09375 L 27 48 L 23 48 L 23 37.15625 C 23.003906 37.105469 23.003906 37.050781 23 37 L 23 31 C 23 30.96875 23 30.9375 23 30.90625 Z M 29 20 L 46 20 C 47.117188 20 48 20.882813 48 22 L 48 30 L 29 30 Z M 2 32 L 21 32 L 21 36 L 2 36 Z M 29 32 L 48 32 L 48 36 L 29 36 Z M 2 38 L 21 38 L 21 48 L 4 48 C 2.882813 48 2 47.117188 2 46 Z M 29 38 L 48 38 L 48 46 C 48 47.117188 47.117188 48 46 48 L 29 48 Z"/></svg>