<svg xmlns="http://www.w3.org/2000/svg" viewBox="0 0 50 50" width="50" height="50" fill="#666"><path d="M 5 3 C 3.71875 3 2.46875 3.230469 1.5 4.03125 C 0.53125 4.832031 0 6.167969 0 7.8125 C 0 16.703125 0.453125 22.074219 2.875 25.46875 C 4.085938 27.167969 5.789063 28.253906 7.96875 28.875 C 8.425781 29.003906 9 29.0625 9.5 29.15625 C 8.203125 29.824219 7.148438 30.652344 6.4375 31.59375 C 4.816406 33.742188 4.585938 36.152344 5.28125 37.78125 C 5.285156 37.789063 5.277344 37.804688 5.28125 37.8125 C 6.238281 40.191406 7.738281 42.40625 9.46875 44.09375 C 11.203125 45.789063 13.160156 47 15.1875 47 C 15.972656 47 16.546875 46.707031 17.40625 46.21875 C 18.265625 45.730469 19.257813 44.992188 20.3125 44.03125 C 22.011719 42.480469 23.707031 40.101563 25 37.21875 C 26.292969 40.101563 27.988281 42.480469 29.6875 44.03125 C 30.742188 44.992188 31.734375 45.730469 32.59375 46.21875 C 33.453125 46.707031 34.027344 47 34.8125 47 C 36.839844 47 38.796875 45.789063 40.53125 44.09375 C 42.265625 42.398438 43.761719 40.171875 44.71875 37.78125 C 44.71875 37.769531 44.71875 37.761719 44.71875 37.75 C 45.347656 36.144531 45.117188 33.753906 43.5 31.59375 C 42.792969 30.652344 41.761719 29.828125 40.46875 29.15625 C 40.980469 29.058594 41.566406 29.007813 42.03125 28.875 C 44.210938 28.253906 45.914063 27.167969 47.125 25.46875 C 49.546875 22.074219 50 16.703125 50 7.8125 C 50 6.125 49.480469 4.789063 48.5 4 C 47.519531 3.210938 46.265625 3 45 3 C 43.46875 3 41.753906 3.707031 39.84375 4.84375 C 37.933594 5.980469 35.882813 7.570313 33.84375 9.46875 C 30.332031 12.738281 27.011719 16.933594 25 21.28125 C 22.988281 16.933594 19.667969 12.738281 16.15625 9.46875 C 14.117188 7.570313 12.066406 5.980469 10.15625 4.84375 C 8.246094 3.707031 6.53125 3 5 3 Z M 5 5 C 5.820313 5 7.375 5.519531 9.125 6.5625 C 10.875 7.605469 12.863281 9.121094 14.8125 10.9375 C 18.710938 14.566406 22.449219 19.421875 24.0625 24.03125 C 24.207031 24.421875 24.582031 24.683594 25 24.683594 C 25.417969 24.683594 25.792969 24.421875 25.9375 24.03125 C 27.550781 19.421875 31.289063 14.566406 35.1875 10.9375 C 37.136719 9.121094 39.125 7.605469 40.875 6.5625 C 42.625 5.519531 44.179688 5 45 5 C 46.035156 5 46.804688 5.203125 47.25 5.5625 C 47.695313 5.921875 48 6.5 48 7.8125 C 48 16.621094 47.378906 21.683594 45.5 24.3125 C 44.5625 25.628906 43.339844 26.4375 41.46875 26.96875 C 39.597656 27.5 37.113281 27.6875 33.90625 27.6875 C 33.359375 27.695313 32.921875 28.140625 32.921875 28.6875 C 32.921875 29.234375 33.359375 29.679688 33.90625 29.6875 C 38.378906 29.6875 40.699219 31.167969 41.90625 32.78125 C 43.113281 34.394531 43.144531 36.339844 42.875 37.03125 C 42.03125 39.140625 40.640625 41.207031 39.125 42.6875 C 37.621094 44.15625 36.015625 44.984375 34.84375 45 C 34.828125 44.96875 34.21875 44.824219 33.59375 44.46875 C 32.878906 44.0625 31.976563 43.425781 31.03125 42.5625 C 29.140625 40.835938 27.109375 38.199219 25.96875 34.59375 C 25.855469 34.152344 25.457031 33.84375 25 33.84375 C 24.542969 33.84375 24.144531 34.152344 24.03125 34.59375 C 22.890625 38.199219 20.859375 40.835938 18.96875 42.5625 C 18.023438 43.425781 17.121094 44.0625 16.40625 44.46875 C 15.824219 44.796875 15.277344 44.957031 15.1875 45 C 14.015625 45 12.390625 44.167969 10.875 42.6875 C 9.359375 41.207031 7.96875 39.140625 7.125 37.03125 C 7.125 37.019531 7.125 37.011719 7.125 37 C 6.832031 36.328125 6.84375 34.394531 8.0625 32.78125 C 9.28125 31.167969 11.621094 29.6875 16.09375 29.6875 C 16.640625 29.679688 17.078125 29.234375 17.078125 28.6875 C 17.078125 28.140625 16.640625 27.695313 16.09375 27.6875 C 12.886719 27.6875 10.402344 27.5 8.53125 26.96875 C 6.660156 26.4375 5.4375 25.628906 4.5 24.3125 C 2.621094 21.683594 2 16.621094 2 7.8125 C 2 6.558594 2.328125 5.96875 2.78125 5.59375 C 3.234375 5.21875 3.980469 5 5 5 Z"/></svg>