<svg xmlns="http://www.w3.org/2000/svg" viewBox="0 0 50 50" width="50" height="50" fill="#666"><path d="M 16.5 2 C 14.578125 2 13 3.578125 13 5.5 C 13 6.046875 13.148438 6.539063 13.375 7 L 13 7 C 10.800781 7 9 8.800781 9 11 C 9 11.734375 9.214844 12.40625 9.5625 13 L 9 13 C 6.800781 13 5 14.800781 5 17 C 5 17.757813 5.222656 18.457031 5.59375 19.0625 C 3.585938 19.269531 2 20.941406 2 23 C 2 25.058594 3.585938 26.730469 5.59375 26.9375 C 5.222656 27.542969 5 28.242188 5 29 C 5 31.199219 6.800781 33 9 33 L 9.5625 33 C 9.214844 33.59375 9 34.265625 9 35 C 9 37.199219 10.800781 39 13 39 L 13.375 39 C 13.148438 39.460938 13 39.953125 13 40.5 C 13 42.421875 14.578125 44 16.5 44 L 17.1875 44 C 17.074219 44.316406 17 44.648438 17 45 C 17 46.644531 18.355469 48 20 48 L 30 48 C 31.644531 48 33 46.644531 33 45 C 33 44.648438 32.925781 44.316406 32.8125 44 L 33.5 44 C 35.421875 44 37 42.421875 37 40.5 C 37 39.953125 36.851563 39.460938 36.625 39 L 37 39 C 39.199219 39 41 37.199219 41 35 C 41 34.265625 40.785156 33.59375 40.4375 33 L 41 33 C 43.199219 33 45 31.199219 45 29 C 45 28.242188 44.777344 27.542969 44.40625 26.9375 C 46.414063 26.730469 48 25.058594 48 23 C 48 20.941406 46.414063 19.269531 44.40625 19.0625 C 44.777344 18.457031 45 17.757813 45 17 C 45 14.800781 43.199219 13 41 13 L 40.4375 13 C 40.785156 12.40625 41 11.734375 41 11 C 41 8.800781 39.199219 7 37 7 L 36.625 7 C 36.851563 6.539063 37 6.046875 37 5.5 C 37 3.578125 35.421875 2 33.5 2 Z M 16.5 4 L 33.5 4 C 34.339844 4 35 4.660156 35 5.5 C 35 6.339844 34.339844 7 33.5 7 L 30 7 C 29.96875 7 29.9375 7 29.90625 7 C 29.875 7 29.84375 7 29.8125 7 C 29.261719 7.050781 28.855469 7.542969 28.90625 8.09375 C 28.957031 8.644531 29.449219 9.050781 30 9 L 37 9 C 38.117188 9 39 9.882813 39 11 C 39 12.117188 38.117188 13 37 13 L 21 13 C 20.96875 13 20.9375 13 20.90625 13 C 20.566406 13.019531 20.261719 13.207031 20.09375 13.5 C 20.09375 13.511719 20.09375 13.519531 20.09375 13.53125 C 19.964844 13.757813 19.933594 14.027344 20 14.28125 C 20.011719 14.292969 20.019531 14.300781 20.03125 14.3125 C 20.03125 14.332031 20.03125 14.355469 20.03125 14.375 C 20.042969 14.386719 20.050781 14.394531 20.0625 14.40625 C 20.09375 14.484375 20.136719 14.558594 20.1875 14.625 C 20.199219 14.636719 20.207031 14.644531 20.21875 14.65625 C 20.289063 14.742188 20.375 14.816406 20.46875 14.875 C 20.488281 14.886719 20.511719 14.898438 20.53125 14.90625 C 20.542969 14.917969 20.550781 14.925781 20.5625 14.9375 C 20.582031 14.9375 20.605469 14.9375 20.625 14.9375 C 20.636719 14.949219 20.644531 14.957031 20.65625 14.96875 C 20.675781 14.96875 20.699219 14.96875 20.71875 14.96875 C 20.730469 14.96875 20.738281 14.96875 20.75 14.96875 C 20.8125 14.984375 20.875 14.996094 20.9375 15 C 20.949219 15 20.957031 15 20.96875 15 C 20.980469 15 20.988281 15 21 15 L 41 15 C 42.117188 15 43 15.882813 43 17 C 43 18.117188 42.117188 19 41 19 L 27 19 C 26.640625 18.996094 26.304688 19.183594 26.121094 19.496094 C 25.941406 19.808594 25.941406 20.191406 26.121094 20.503906 C 26.304688 20.816406 26.640625 21.003906 27 21 L 44 21 C 45.117188 21 46 21.882813 46 23 C 46 24.117188 45.117188 25 44 25 L 35 25 C 34.96875 25 34.9375 25 34.90625 25 C 34.875 25 34.84375 25 34.8125 25 C 34.261719 25.050781 33.855469 25.542969 33.90625 26.09375 C 33.957031 26.644531 34.449219 27.050781 35 27 L 41 27 C 42.117188 27 43 27.882813 43 29 C 43 30.117188 42.117188 31 41 31 L 32 31 C 31.96875 31 31.9375 31 31.90625 31 C 31.875 31 31.84375 31 31.8125 31 C 31.371094 31.0625 31.023438 31.40625 30.960938 31.847656 C 30.894531 32.289063 31.128906 32.71875 31.53125 32.90625 C 31.542969 32.917969 31.550781 32.925781 31.5625 32.9375 C 31.582031 32.9375 31.605469 32.9375 31.625 32.9375 C 31.636719 32.949219 31.644531 32.957031 31.65625 32.96875 C 31.675781 32.96875 31.699219 32.96875 31.71875 32.96875 C 31.757813 32.980469 31.800781 32.992188 31.84375 33 C 31.875 33 31.90625 33 31.9375 33 C 31.949219 33 31.957031 33 31.96875 33 C 31.980469 33 31.988281 33 32 33 L 37 33 C 38.117188 33 39 33.882813 39 35 C 39 36.117188 38.117188 37 37 37 L 32 37 C 31.96875 37 31.9375 37 31.90625 37 C 31.84375 37.003906 31.78125 37.015625 31.71875 37.03125 C 31.6875 37.039063 31.65625 37.050781 31.625 37.0625 C 31.558594 37.085938 31.496094 37.117188 31.4375 37.15625 C 31.40625 37.175781 31.375 37.195313 31.34375 37.21875 C 31.324219 37.226563 31.300781 37.238281 31.28125 37.25 C 31.28125 37.261719 31.28125 37.269531 31.28125 37.28125 C 31.234375 37.320313 31.195313 37.359375 31.15625 37.40625 C 31.15625 37.417969 31.15625 37.425781 31.15625 37.4375 C 31.132813 37.457031 31.113281 37.476563 31.09375 37.5 C 31.09375 37.511719 31.09375 37.519531 31.09375 37.53125 C 30.980469 37.742188 30.949219 37.984375 31 38.21875 C 31.007813 38.273438 31.015625 38.324219 31.03125 38.375 C 31.042969 38.386719 31.050781 38.394531 31.0625 38.40625 C 31.082031 38.4375 31.101563 38.46875 31.125 38.5 C 31.125 38.511719 31.125 38.519531 31.125 38.53125 C 31.136719 38.542969 31.144531 38.550781 31.15625 38.5625 C 31.164063 38.582031 31.175781 38.605469 31.1875 38.625 C 31.199219 38.636719 31.207031 38.644531 31.21875 38.65625 C 31.230469 38.667969 31.238281 38.675781 31.25 38.6875 C 31.3125 38.761719 31.386719 38.824219 31.46875 38.875 C 31.5 38.898438 31.53125 38.917969 31.5625 38.9375 C 31.582031 38.9375 31.605469 38.9375 31.625 38.9375 C 31.636719 38.949219 31.644531 38.957031 31.65625 38.96875 C 31.675781 38.96875 31.699219 38.96875 31.71875 38.96875 C 31.730469 38.96875 31.738281 38.96875 31.75 38.96875 C 31.78125 38.980469 31.8125 38.992188 31.84375 39 C 31.886719 39.003906 31.925781 39.003906 31.96875 39 C 31.980469 39 31.988281 39 32 39 L 33.5 39 C 34.339844 39 35 39.660156 35 40.5 C 35 41.339844 34.339844 42 33.5 42 L 25 42 C 24.835938 42.003906 24.675781 42.046875 24.53125 42.125 C 24.441406 42.164063 24.355469 42.21875 24.28125 42.28125 C 24.257813 42.3125 24.238281 42.34375 24.21875 42.375 C 24.195313 42.394531 24.175781 42.414063 24.15625 42.4375 C 24.066406 42.578125 24.011719 42.738281 24 42.90625 C 24 42.9375 24 42.96875 24 43 C 23.996094 43.175781 24.039063 43.347656 24.125 43.5 C 24.132813 43.519531 24.144531 43.542969 24.15625 43.5625 C 24.175781 43.59375 24.195313 43.625 24.21875 43.65625 C 24.292969 43.730469 24.375 43.792969 24.46875 43.84375 C 24.488281 43.867188 24.507813 43.886719 24.53125 43.90625 C 24.628906 43.953125 24.734375 43.984375 24.84375 44 C 24.894531 44.003906 24.949219 44.003906 25 44 L 30 44 C 30.566406 44 31 44.433594 31 45 C 31 45.566406 30.566406 46 30 46 L 20 46 C 19.433594 46 19 45.566406 19 45 C 19 44.433594 19.433594 44 20 44 L 21 44 C 21.09375 44.003906 21.191406 43.992188 21.28125 43.96875 C 21.3125 43.960938 21.34375 43.949219 21.375 43.9375 C 21.441406 43.914063 21.503906 43.882813 21.5625 43.84375 C 21.59375 43.824219 21.625 43.804688 21.65625 43.78125 C 21.917969 43.558594 22.050781 43.214844 22 42.875 C 22 42.84375 22 42.8125 22 42.78125 C 21.972656 42.679688 21.929688 42.585938 21.875 42.5 C 21.867188 42.480469 21.855469 42.457031 21.84375 42.4375 C 21.730469 42.265625 21.566406 42.136719 21.375 42.0625 C 21.34375 42.050781 21.3125 42.039063 21.28125 42.03125 C 21.191406 42.007813 21.09375 41.996094 21 42 L 16.5 42 C 15.660156 42 15 41.339844 15 40.5 C 15 39.660156 15.660156 39 16.5 39 L 18 39 C 18.09375 39.003906 18.191406 38.992188 18.28125 38.96875 C 18.3125 38.960938 18.34375 38.949219 18.375 38.9375 C 18.566406 38.863281 18.730469 38.734375 18.84375 38.5625 C 18.867188 38.53125 18.886719 38.5 18.90625 38.46875 C 19.050781 38.199219 19.0625 37.875 18.9375 37.59375 C 18.917969 37.5625 18.898438 37.53125 18.875 37.5 C 18.824219 37.417969 18.761719 37.34375 18.6875 37.28125 C 18.667969 37.257813 18.648438 37.238281 18.625 37.21875 C 18.449219 37.078125 18.226563 37 18 37 L 13 37 C 11.882813 37 11 36.117188 11 35 C 11 33.882813 11.882813 33 13 33 L 18 33 C 18.09375 33.003906 18.191406 32.992188 18.28125 32.96875 C 18.3125 32.960938 18.34375 32.949219 18.375 32.9375 C 18.476563 32.902344 18.570313 32.847656 18.65625 32.78125 C 18.679688 32.761719 18.699219 32.742188 18.71875 32.71875 C 18.863281 32.574219 18.964844 32.390625 19 32.1875 C 19 32.15625 19 32.125 19 32.09375 C 19.015625 31.957031 19.007813 31.820313 18.96875 31.6875 C 18.960938 31.65625 18.949219 31.625 18.9375 31.59375 C 18.84375 31.378906 18.679688 31.199219 18.46875 31.09375 C 18.4375 31.082031 18.40625 31.070313 18.375 31.0625 C 18.253906 31.019531 18.128906 30.996094 18 31 L 9 31 C 7.882813 31 7 30.117188 7 29 C 7 27.882813 7.882813 27 9 27 L 31 27 C 31.359375 27.003906 31.695313 26.816406 31.878906 26.503906 C 32.058594 26.191406 32.058594 25.808594 31.878906 25.496094 C 31.695313 25.183594 31.359375 24.996094 31 25 L 6 25 C 4.882813 25 4 24.117188 4 23 C 4 21.882813 4.882813 21 6 21 L 23 21 C 23.359375 21.003906 23.695313 20.816406 23.878906 20.503906 C 24.058594 20.191406 24.058594 19.808594 23.878906 19.496094 C 23.695313 19.183594 23.359375 18.996094 23 19 L 9 19 C 7.882813 19 7 18.117188 7 17 C 7 15.882813 7.882813 15 9 15 L 17 15 C 17.09375 15.003906 17.191406 14.992188 17.28125 14.96875 C 17.3125 14.960938 17.34375 14.949219 17.375 14.9375 C 17.710938 14.804688 17.945313 14.507813 18 14.152344 C 18.050781 13.796875 17.90625 13.441406 17.625 13.21875 C 17.59375 13.195313 17.5625 13.175781 17.53125 13.15625 C 17.371094 13.054688 17.1875 13 17 13 L 13 13 C 11.882813 13 11 12.117188 11 11 C 11 9.882813 11.882813 9 13 9 L 26 9 C 26.359375 9.003906 26.695313 8.816406 26.878906 8.503906 C 27.058594 8.191406 27.058594 7.808594 26.878906 7.496094 C 26.695313 7.183594 26.359375 6.996094 26 7 L 16.5 7 C 15.660156 7 15 6.339844 15 5.5 C 15 4.660156 15.660156 4 16.5 4 Z M 25 31 C 22.789063 31 21 32.789063 21 35 C 21 37.210938 22.789063 39 25 39 C 27.210938 39 29 37.210938 29 35 C 29 32.789063 27.210938 31 25 31 Z"/></svg>