<svg xmlns="http://www.w3.org/2000/svg" viewBox="0 0 50 50" width="50" height="50" fill="#666"><path d="M 7 2 L 7 48 L 43 48 L 43 15.410156 L 29.183594 2 Z M 9 4 L 28 4 L 28 17 L 41 17 L 41 46 L 9 46 Z M 30 5.578125 L 39.707031 15 L 30 15 Z M 18.125 23.511719 C 17.375 23.511719 16.625 23.585938 16.066406 23.703125 L 16.066406 33.667969 L 18.03125 33.667969 L 18.03125 29.902344 L 18.421875 29.902344 C 19.234375 29.902344 20.253906 29.601563 20.882813 28.941406 C 21.40625 28.371094 21.738281 27.605469 21.738281 26.511719 C 21.738281 25.65625 21.46875 24.816406 20.867188 24.292969 C 20.207031 23.675781 19.292969 23.511719 18.125 23.511719 Z M 24.980469 23.511719 C 24.230469 23.511719 23.480469 23.585938 22.921875 23.703125 L 22.921875 33.667969 L 24.890625 33.667969 L 24.890625 29.902344 L 25.28125 29.902344 C 26.089844 29.902344 27.109375 29.601563 27.738281 28.941406 C 28.261719 28.371094 28.59375 27.605469 28.59375 26.511719 C 28.59375 25.65625 28.324219 24.816406 27.722656 24.292969 C 27.0625 23.675781 26.148438 23.511719 24.980469 23.511719 Z M 29.089844 23.558594 L 29.089844 25.371094 L 30.875 25.371094 L 30.875 33.664063 L 32.839844 33.664063 L 32.839844 25.371094 L 34.640625 25.371094 L 34.640625 23.558594 Z M 18.515625 25.097656 C 19.429688 25.097656 19.785156 25.789063 19.785156 26.675781 C 19.785156 27.621094 19.335938 28.324219 18.347656 28.324219 C 18.226563 28.324219 18.125 28.324219 18.03125 28.296875 L 18.03125 25.175781 C 18.152344 25.128906 18.332031 25.097656 18.515625 25.097656 Z M 25.367188 25.097656 C 26.28125 25.097656 26.640625 25.789063 26.640625 26.675781 C 26.640625 27.621094 26.191406 28.324219 25.203125 28.324219 C 25.082031 28.324219 24.980469 28.324219 24.890625 28.296875 L 24.890625 25.175781 C 25.007813 25.128906 25.1875 25.097656 25.367188 25.097656 Z"/></svg>