<svg xmlns="http://www.w3.org/2000/svg" viewBox="0 0 50 50" width="50" height="50" fill="#666"><path style="line-height:normal;text-indent:0;text-align:start;text-decoration-line:none;text-decoration-style:solid;text-decoration-color:#000;text-transform:none;block-progression:tb;isolation:auto;mix-blend-mode:normal" d="M 25 2 C 12.354545 2 2 12.354545 2 25 C 2 37.645455 12.354545 48 25 48 C 37.645455 48 48 37.645455 48 25 C 48 12.354545 37.645455 2 25 2 z M 25 4 C 36.554545 4 46 13.445455 46 25 C 46 36.554545 36.554545 46 25 46 C 13.445455 46 4 36.554545 4 25 C 4 13.445455 13.445455 4 25 4 z M 27.152344 11.998047 C 21.401779 11.998552 18.696648 12.516644 16.863281 13.039062 C 15.029915 13.561483 14.30286 14 12 14 L 12 16 C 14.57614 16 15.733273 15.438767 17.410156 14.960938 C 19.08704 14.483106 21.518908 13.998542 27.152344 13.998047 C 31.363142 13.998047 33.354075 14.557701 34.101562 15.007812 C 34.475307 15.232869 34.548118 15.38115 34.59375 15.498047 C 34.63938 15.614943 34.644531 15.737876 34.644531 15.980469 C 34.644531 16.610954 34.302734 17.097656 34.302734 17.097656 A 1.0001 1.0001 0 0 0 34.746094 18.632812 C 34.746094 18.632812 35.081745 18.763659 35.421875 19.039062 C 35.762006 19.314466 36 19.622764 36 20.046875 C 36 20.955271 35.203125 21.189453 35.203125 21.189453 A 1.0001 1.0001 0 0 0 35.107422 23.019531 C 35.107422 23.019531 36 23.47637 36 24.384766 C 36 25.343689 35.056641 25.603516 35.056641 25.603516 A 1.0001 1.0001 0 0 0 34.384766 26.705078 C 34.384766 26.705078 34.554687 27.893116 34.554688 28.449219 C 34.554688 28.558157 34.565368 28.585082 34.353516 28.71875 C 34.141665 28.852418 33.680364 29 33 29 L 27.777344 29 C 26.653677 29 25.611826 29.152291 24.806641 29.833984 C 24.404048 30.174831 24.097037 30.691911 24.021484 31.255859 C 23.945934 31.819808 24.073484 32.389695 24.330078 32.958984 A 1.0001 1.0001 0 0 0 24.339844 32.980469 C 24.822159 33.98877 25.337011 35.209513 25.583984 36.345703 C 25.830958 37.481893 25.79108 38.4703 25.392578 39.144531 A 1.0001 1.0001 0 0 0 25.384766 39.15625 C 25.189918 39.497166 24.571449 39.937549 24.279297 39.990234 C 24.133221 40.016574 24.137354 39.994994 24.138672 39.996094 C 24.139969 39.997091 24.039476 39.923694 23.992188 39.533203 C 23.693573 36.467579 22.342833 34.503395 20.876953 33.148438 C 19.407656 31.790319 17.893225 30.938989 17.076172 29.974609 C 17.076172 29.974609 17.074219 29.972656 17.074219 29.972656 C 16.29842 29.03173 15.695323 27.920404 15.003906 26.949219 C 14.657277 26.462333 14.28506 26.004291 13.800781 25.634766 C 13.316502 25.26524 12.686024 25 12 25 L 12 27 C 12.217476 27 12.36292 27.05295 12.587891 27.224609 C 12.812862 27.396272 13.084629 27.701511 13.375 28.109375 C 13.955742 28.925103 14.600853 30.12039 15.539062 31.255859 A 1.0001 1.0001 0 0 0 15.546875 31.263672 C 16.718144 32.647631 18.275192 33.468809 19.517578 34.617188 C 20.759965 35.765564 21.755271 37.136919 22.003906 39.748047 A 1.0001 1.0001 0 0 0 22.007812 39.771484 C 22.096162 40.507978 22.380604 41.159842 22.904297 41.570312 C 23.42799 41.980784 24.091842 42.056892 24.634766 41.958984 C 25.717748 41.763686 26.586663 41.074706 27.115234 40.154297 C 27.887256 38.842173 27.840824 37.319099 27.537109 35.921875 C 27.234543 34.529929 26.661891 33.203368 26.152344 32.136719 C 26.001934 31.803008 25.992771 31.604599 26.003906 31.521484 C 26.015036 31.438374 26.016459 31.429774 26.099609 31.359375 C 26.265912 31.218579 26.90101 31 27.777344 31 L 33 31 C 33.945636 31 34.76127 30.825739 35.419922 30.410156 C 36.078574 29.994574 36.554687 29.243281 36.554688 28.449219 C 36.554688 27.845224 36.480858 27.464144 36.423828 27.058594 C 37.10721 26.657016 38 25.94996 38 24.384766 C 38 23.392175 37.568652 22.674471 37.113281 22.158203 C 37.573114 21.674683 38 21.008513 38 20.046875 C 38 18.844986 37.290011 17.978925 36.681641 17.486328 C 36.518073 17.353887 36.505778 17.386063 36.353516 17.291016 C 36.492531 16.91466 36.644531 16.51373 36.644531 15.980469 C 36.644531 15.771062 36.662741 15.29651 36.457031 14.769531 C 36.251319 14.242553 35.809444 13.702366 35.132812 13.294922 C 33.779551 12.480034 31.524546 11.998047 27.152344 11.998047 z"/></svg>