<svg xmlns="http://www.w3.org/2000/svg" viewBox="0 0 50 50" width="50" height="50" fill="#666"><path style="line-height:normal;text-indent:0;text-align:start;text-decoration-line:none;text-decoration-style:solid;text-decoration-color:#000;text-transform:none;block-progression:tb;isolation:auto;mix-blend-mode:normal" d="M 24.984375 -0.013671875 A 1.0001 1.0001 0 0 0 24 1 L 24 8.5859375 L 19.707031 4.2929688 A 1.0001 1.0001 0 0 0 18.990234 3.9902344 A 1.0001 1.0001 0 0 0 18.292969 5.7070312 L 24 11.414062 L 24 23.269531 L 13.734375 17.341797 L 11.646484 9.5449219 A 1.0001 1.0001 0 0 0 10.699219 8.7910156 A 1.0001 1.0001 0 0 0 9.7148438 10.0625 L 11.285156 15.927734 L 4.7148438 12.134766 A 1.0001 1.0001 0 0 0 4.2402344 11.992188 A 1.0001 1.0001 0 0 0 4.140625 11.994141 A 1.0001 1.0001 0 0 0 3.7148438 13.865234 L 10.285156 17.658203 L 4.421875 19.230469 A 1.0001 1.0001 0 1 0 4.9394531 21.162109 L 12.736328 19.074219 L 23.001953 25 L 12.736328 30.925781 L 4.9394531 28.837891 A 1.0001 1.0001 0 0 0 4.6425781 28.800781 A 1.0001 1.0001 0 0 0 4.421875 30.769531 L 10.285156 32.341797 L 3.7148438 36.134766 A 1.0001 1.0001 0 1 0 4.7148438 37.865234 L 11.285156 34.072266 L 9.7148438 39.9375 A 1.0001 1.0001 0 1 0 11.646484 40.455078 L 13.734375 32.658203 L 24 26.730469 L 24 38.585938 L 18.292969 44.292969 A 1.0001 1.0001 0 1 0 19.707031 45.707031 L 24 41.414062 L 24 49 A 1.0001 1.0001 0 1 0 26 49 L 26 41.414062 L 30.292969 45.707031 A 1.0001 1.0001 0 1 0 31.707031 44.292969 L 26 38.585938 L 26 26.730469 L 36.265625 32.658203 L 38.353516 40.455078 A 1.0001 1.0001 0 1 0 40.285156 39.9375 L 38.714844 34.072266 L 45.285156 37.865234 A 1.0001 1.0001 0 1 0 46.285156 36.134766 L 39.714844 32.341797 L 45.578125 30.769531 A 1.0001 1.0001 0 0 0 45.328125 28.800781 A 1.0001 1.0001 0 0 0 45.060547 28.837891 L 37.263672 30.925781 L 26.998047 25 L 37.263672 19.074219 L 45.060547 21.162109 A 1.0001 1.0001 0 1 0 45.578125 19.230469 L 39.714844 17.658203 L 46.285156 13.865234 A 1.0001 1.0001 0 0 0 45.830078 11.994141 A 1.0001 1.0001 0 0 0 45.285156 12.134766 L 38.714844 15.927734 L 40.285156 10.0625 A 1.0001 1.0001 0 0 0 39.269531 8.7910156 A 1.0001 1.0001 0 0 0 38.353516 9.5449219 L 36.265625 17.341797 L 26 23.269531 L 26 11.414062 L 31.707031 5.7070312 A 1.0001 1.0001 0 1 0 30.292969 4.2929688 L 26 8.5859375 L 26 1 A 1.0001 1.0001 0 0 0 24.984375 -0.013671875 z"/></svg>