<svg xmlns="http://www.w3.org/2000/svg" viewBox="0 0 50 50" width="50" height="50" fill="#666"><path d="M 5.953125 4 C 5.441406 4 4.921875 4.1875 4.554688 4.554688 C 4.1875 4.921875 4 5.441406 4 5.953125 L 4 44.046875 C 4 44.554688 4.1875 45.078125 4.554688 45.445313 C 4.921875 45.8125 5.441406 46 5.953125 46 L 44.046875 46 C 44.554688 46 45.078125 45.8125 45.445313 45.445313 C 45.8125 45.078125 46 44.558594 46 44.046875 L 46 5.953125 C 46 5.441406 45.8125 4.921875 45.445313 4.554688 C 45.078125 4.1875 44.558594 4 44.046875 4 Z M 6 6 L 44 6 L 44 44 L 6 44 Z M 20.453125 19.355469 C 18.488281 19.355469 16.375 20.839844 16.375 24.652344 C 16.375 27.515625 17.605469 29.644531 20.1875 29.644531 C 20.875 29.644531 21.429688 29.539063 21.714844 29.40625 L 21.519531 27.753906 C 21.28125 27.832031 20.902344 27.90625 20.574219 27.90625 C 19.375 27.90625 18.460938 26.960938 18.460938 24.546875 C 18.460938 22.039063 19.464844 21.078125 20.574219 21.078125 C 21.007813 21.078125 21.265625 21.171875 21.488281 21.277344 L 21.820313 19.625 C 21.625 19.488281 21.144531 19.355469 20.453125 19.355469 Z M 25.597656 19.355469 C 23.484375 19.355469 22.40625 20.703125 22.40625 22.324219 C 22.40625 23.238281 22.929688 24.304688 24.3125 25.144531 C 25.164063 25.699219 25.613281 26.058594 25.613281 26.796875 C 25.613281 27.453125 25.164063 27.9375 24.234375 27.9375 C 23.664063 27.9375 22.976563 27.769531 22.570313 27.546875 L 22.285156 29.238281 C 22.613281 29.433594 23.410156 29.644531 24.21875 29.644531 C 26.199219 29.644531 27.5625 28.429688 27.5625 26.585938 C 27.5625 25.519531 27.070313 24.5 25.734375 23.6875 C 24.640625 23.03125 24.339844 22.714844 24.339844 22.113281 C 24.339844 21.574219 24.746094 21.0625 25.585938 21.0625 C 26.15625 21.0625 26.589844 21.230469 26.875 21.410156 L 27.1875 19.714844 C 26.890625 19.535156 26.257813 19.355469 25.597656 19.355469 Z M 31.511719 19.355469 C 29.394531 19.355469 28.3125 20.703125 28.3125 22.324219 C 28.3125 23.238281 28.839844 24.304688 30.21875 25.144531 C 31.074219 25.699219 31.527344 26.058594 31.527344 26.796875 C 31.527344 27.453125 31.074219 27.9375 30.144531 27.9375 C 29.574219 27.9375 28.886719 27.769531 28.480469 27.546875 L 28.195313 29.238281 C 28.523438 29.433594 29.320313 29.644531 30.128906 29.644531 C 32.109375 29.644531 33.472656 28.429688 33.472656 26.585938 C 33.472656 25.519531 32.980469 24.5 31.644531 23.6875 C 30.550781 23.03125 30.25 22.714844 30.25 22.113281 C 30.25 21.574219 30.652344 21.0625 31.496094 21.0625 C 32.0625 21.0625 32.5 21.230469 32.785156 21.410156 L 33.097656 19.714844 C 32.800781 19.535156 32.167969 19.355469 31.511719 19.355469 Z"/></svg>