<svg xmlns="http://www.w3.org/2000/svg" viewBox="0 0 50 50" width="50" height="50" fill="#666"><path d="M 25.90625 -0.03125 C 25.863281 -0.0234375 25.820313 -0.0117188 25.78125 0 C 25.316406 0.105469 24.988281 0.523438 25 1 L 25 3 C 24.996094 3.359375 25.183594 3.695313 25.496094 3.878906 C 25.808594 4.058594 26.191406 4.058594 26.503906 3.878906 C 26.816406 3.695313 27.003906 3.359375 27 3 L 27 1 C 27.011719 0.710938 26.894531 0.433594 26.6875 0.238281 C 26.476563 0.0390625 26.191406 -0.0585938 25.90625 -0.03125 Z M 18.71875 2.90625 C 18.34375 2.972656 18.042969 3.246094 17.9375 3.609375 C 17.832031 3.976563 17.941406 4.367188 18.21875 4.625 L 19.625 6.0625 C 20.023438 6.460938 20.664063 6.460938 21.0625 6.0625 C 21.460938 5.664063 21.460938 5.023438 21.0625 4.625 L 19.625 3.21875 C 19.4375 3.019531 19.179688 2.910156 18.90625 2.90625 C 18.875 2.90625 18.84375 2.90625 18.8125 2.90625 C 18.78125 2.90625 18.75 2.90625 18.71875 2.90625 Z M 32.96875 2.90625 C 32.742188 2.9375 32.53125 3.050781 32.375 3.21875 L 30.9375 4.625 C 30.539063 5.023438 30.539063 5.664063 30.9375 6.0625 C 31.335938 6.460938 31.976563 6.460938 32.375 6.0625 L 33.78125 4.625 C 34.078125 4.339844 34.167969 3.898438 34.007813 3.519531 C 33.851563 3.140625 33.472656 2.898438 33.0625 2.90625 C 33.03125 2.90625 33 2.90625 32.96875 2.90625 Z M 26 6 C 23.800781 6 22 7.800781 22 10 L 22 13 L 2.78125 13 C 1.269531 13 0 14.234375 0 15.75 L 0 40.25 C 0 41.765625 1.269531 43 2.78125 43 L 7 43 C 7 46.300781 9.699219 49 13 49 C 16.300781 49 19 46.300781 19 43 L 33 43 C 33 46.300781 35.699219 49 39 49 C 42.300781 49 45 46.300781 45 43 L 47.21875 43 C 48.730469 43 50 41.765625 50 40.25 L 50 33.25 C 50 32.148438 49.59375 31.15625 49.21875 30.40625 C 48.859375 29.691406 48.535156 29.234375 48.5 29.1875 L 48.46875 29.125 L 39.46875 15.21875 C 39.441406 15.175781 39.410156 15.132813 39.375 15.09375 C 38.984375 14.628906 38.628906 14.144531 38.09375 13.71875 C 37.558594 13.292969 36.820313 13 35.96875 13 L 30 13 L 30 10 C 30 7.800781 28.195313 6 26 6 Z M 26 8 C 27.117188 8 28 8.882813 28 10 L 28 13 L 24 13 L 24 10 C 24 8.882813 24.882813 8 26 8 Z M 15.71875 9 C 15.167969 9.078125 14.78125 9.589844 14.859375 10.140625 C 14.9375 10.691406 15.449219 11.078125 16 11 L 18 11 C 18.359375 11.003906 18.695313 10.816406 18.878906 10.503906 C 19.058594 10.191406 19.058594 9.808594 18.878906 9.496094 C 18.695313 9.183594 18.359375 8.996094 18 9 L 16 9 C 15.96875 9 15.9375 9 15.90625 9 C 15.875 9 15.84375 9 15.8125 9 C 15.78125 9 15.75 9 15.71875 9 Z M 33.71875 9 C 33.167969 9.078125 32.78125 9.589844 32.859375 10.140625 C 32.9375 10.691406 33.449219 11.078125 34 11 L 36 11 C 36.359375 11.003906 36.695313 10.816406 36.878906 10.503906 C 37.058594 10.191406 37.058594 9.808594 36.878906 9.496094 C 36.695313 9.183594 36.359375 8.996094 36 9 L 34 9 C 33.96875 9 33.9375 9 33.90625 9 C 33.875 9 33.84375 9 33.8125 9 C 33.78125 9 33.75 9 33.71875 9 Z M 2.78125 15 L 35.96875 15 C 36.417969 15 36.578125 15.101563 36.84375 15.3125 C 37.109375 15.523438 37.425781 15.90625 37.84375 16.40625 L 38.21875 17 L 32 17 C 31.96875 17 31.9375 17 31.90625 17 C 31.875 17 31.84375 17 31.8125 17 C 31.335938 17.089844 30.992188 17.511719 31 18 L 31 29 C 31 29.550781 31.449219 30 32 30 L 46.15625 30 C 46.308594 30.003906 46.457031 29.96875 46.59375 29.90625 L 46.8125 30.25 C 46.820313 30.269531 46.832031 30.292969 46.84375 30.3125 C 46.84375 30.3125 47.136719 30.710938 47.4375 31.3125 C 47.738281 31.914063 48 32.691406 48 33.25 L 48 40.25 C 48 40.664063 47.65625 41 47.21875 41 L 44.65625 41 C 43.832031 38.671875 41.605469 37 39 37 C 36.394531 37 34.167969 38.671875 33.34375 41 L 18.65625 41 C 17.832031 38.671875 15.605469 37 13 37 C 10.394531 37 8.167969 38.671875 7.34375 41 L 2.78125 41 C 2.34375 41 2 40.664063 2 40.25 L 2 15.75 C 2 15.335938 2.34375 15 2.78125 15 Z M 33 19 L 39.53125 19 L 45.34375 28 L 33 28 Z M 14 21 L 14 25 L 10 25 L 10 27 L 14 27 L 14 31 L 16 31 L 16 27 L 20 27 L 20 25 L 16 25 L 16 21 Z M 13 39 C 15.222656 39 17 40.777344 17 43 C 17 45.222656 15.222656 47 13 47 C 10.777344 47 9 45.222656 9 43 C 9 40.777344 10.777344 39 13 39 Z M 39 39 C 41.222656 39 43 40.777344 43 43 C 43 45.222656 41.222656 47 39 47 C 36.777344 47 35 45.222656 35 43 C 35 40.777344 36.777344 39 39 39 Z"/></svg>