<svg xmlns="http://www.w3.org/2000/svg" viewBox="0 0 50 50" width="50" height="50" fill="#666"><path d="M 25.0625 0 C 22.5 0 20.589844 0.0898438 19.15625 0.40625 C 18.4375 0.566406 17.824219 0.792969 17.3125 1.15625 C 16.800781 1.519531 16.394531 2.082031 16.3125 2.71875 C 16.261719 3.097656 16.253906 3.085938 16.15625 3.375 C 16.058594 3.664063 15.9375 4.128906 15.78125 5.0625 C 15.304688 7.925781 13.804688 7.621094 12.5 9.15625 C 10.996094 10.25 10 12.007813 10 14 L 10 36 C 10 37.992188 10.996094 39.75 12.5 40.84375 C 12.511719 40.855469 12.519531 40.863281 12.53125 40.875 C 12.574219 40.90625 12.613281 40.941406 12.65625 40.96875 C 13.90625 42.3125 15.261719 42.203125 15.78125 44.96875 C 15.9375 45.808594 16.070313 46.230469 16.15625 46.5 C 16.242188 46.769531 16.253906 46.839844 16.3125 47.28125 C 16.390625 47.898438 16.785156 48.449219 17.28125 48.8125 C 17.777344 49.175781 18.359375 49.398438 19.0625 49.5625 C 20.46875 49.890625 22.371094 50 24.9375 50 C 27.5 50 29.410156 49.910156 30.84375 49.59375 C 31.5625 49.433594 32.175781 49.207031 32.6875 48.84375 C 33.199219 48.480469 33.605469 47.917969 33.6875 47.28125 C 33.738281 46.902344 33.746094 46.914063 33.84375 46.625 C 33.941406 46.335938 34.0625 45.871094 34.21875 44.9375 C 34.675781 42.175781 36.070313 42.332031 37.34375 40.96875 C 37.386719 40.941406 37.425781 40.90625 37.46875 40.875 C 37.480469 40.863281 37.488281 40.855469 37.5 40.84375 C 39.003906 39.75 40 37.992188 40 36 L 40 34 C 40.550781 34 41 33.550781 41 33 L 41 27 C 41 26.449219 40.550781 26 40 26 L 40 23 C 41.113281 22.917969 42 21.976563 42 20.84375 L 42 17.15625 C 42 16.023438 41.113281 15.082031 40 15 L 40 14 C 40 12.007813 39.003906 10.25 37.5 9.15625 C 37.488281 9.144531 37.480469 9.136719 37.46875 9.125 C 37.425781 9.09375 37.386719 9.058594 37.34375 9.03125 C 36.09375 7.6875 34.738281 7.796875 34.21875 5.03125 C 34.0625 4.191406 33.929688 3.769531 33.84375 3.5 C 33.757813 3.230469 33.746094 3.160156 33.6875 2.71875 C 33.609375 2.101563 33.214844 1.550781 32.71875 1.1875 C 32.222656 0.824219 31.640625 0.601563 30.9375 0.4375 C 29.53125 0.109375 27.628906 0 25.0625 0 Z M 25.0625 2 C 27.566406 2 29.40625 2.121094 30.5 2.375 C 31.046875 2.503906 31.371094 2.664063 31.53125 2.78125 C 31.691406 2.898438 31.675781 2.921875 31.6875 3 C 31.757813 3.535156 31.855469 3.835938 31.9375 4.09375 C 32.019531 4.351563 32.105469 4.628906 32.25 5.40625 C 32.457031 6.511719 32.863281 7.328125 33.3125 8 L 16.71875 8 C 17.167969 7.324219 17.566406 6.488281 17.75 5.375 C 17.894531 4.507813 17.988281 4.21875 18.0625 4 C 18.136719 3.78125 18.246094 3.503906 18.3125 3 C 18.324219 2.914063 18.300781 2.902344 18.46875 2.78125 C 18.636719 2.660156 18.996094 2.5 19.5625 2.375 C 20.691406 2.125 22.554688 2 25.0625 2 Z M 16 10 L 34 10 C 36.21875 10 38 11.78125 38 14 L 38 16.15625 C 37.667969 16.773438 37.4375 17.664063 37.4375 19 C 37.4375 20.332031 37.671875 21.222656 38 21.84375 L 38 36 C 38 38.21875 36.21875 40 34 40 L 16 40 C 13.78125 40 12 38.21875 12 36 L 12 14 C 12 11.78125 13.78125 10 16 10 Z M 39.84375 17 C 39.945313 17 40 17.054688 40 17.15625 L 40 20.84375 C 40 20.945313 39.945313 21 39.84375 21 L 39.8125 21 C 39.800781 20.984375 39.796875 20.992188 39.78125 20.96875 C 39.648438 20.753906 39.4375 20.207031 39.4375 19 C 39.4375 17.792969 39.679688 17.242188 39.8125 17.03125 C 39.832031 17 39.828125 17.019531 39.84375 17 Z M 16.6875 42 L 33.28125 42 C 32.832031 42.675781 32.433594 43.511719 32.25 44.625 C 32.105469 45.492188 32.011719 45.78125 31.9375 46 C 31.863281 46.21875 31.753906 46.496094 31.6875 47 C 31.675781 47.085938 31.699219 47.097656 31.53125 47.21875 C 31.363281 47.339844 31.003906 47.5 30.4375 47.625 C 29.308594 47.875 27.445313 48 24.9375 48 C 22.433594 48 20.59375 47.878906 19.5 47.625 C 18.953125 47.496094 18.628906 47.335938 18.46875 47.21875 C 18.308594 47.101563 18.324219 47.078125 18.3125 47 C 18.242188 46.464844 18.144531 46.164063 18.0625 45.90625 C 17.980469 45.648438 17.894531 45.371094 17.75 44.59375 C 17.542969 43.488281 17.136719 42.671875 16.6875 42 Z"/></svg>