<svg xmlns="http://www.w3.org/2000/svg" viewBox="0 0 50 50" width="50" height="50" fill="#666"><path d="M 25 2 C 12.309295 2 2 12.309295 2 25 C 2 37.690705 12.309295 48 25 48 C 37.690705 48 48 37.690705 48 25 C 48 12.309295 37.690705 2 25 2 z M 25 4 C 36.609824 4 46 13.390176 46 25 C 46 36.609824 36.609824 46 25 46 C 13.390176 46 4 36.609824 4 25 C 4 13.390176 13.390176 4 25 4 z M 26.400391 12.699219 C 23.700391 12.699219 18.299219 13.899609 16.699219 22.099609 L 15 22.099609 L 14.400391 23.599609 L 16.599609 23.599609 C 16.499609 23.899609 16.5 24.700391 16.5 24.900391 L 16.5 25.599609 L 15 25.599609 L 14.400391 27.099609 L 16.599609 27.099609 C 17.799609 36.099609 23.399219 37.199219 26.199219 37.199219 C 28.499219 37.199219 30.400781 36.5 32.300781 35 L 32.300781 32.400391 C 29.500781 35.300391 27.600391 35.300781 26.400391 35.300781 C 24.200391 35.300781 19.900391 34.399609 18.900391 27.099609 L 28.400391 27.099609 L 29 25.599609 L 18.699219 25.599609 L 18.699219 25.099609 C 18.699219 24.599609 18.700781 24.199609 18.800781 23.599609 L 29.599609 23.599609 L 30.199219 22.099609 L 19 22.099609 C 20.3 15.499609 24.300391 14.699219 26.400391 14.699219 C 28.500391 14.699219 30.300781 15.500781 31.800781 17.300781 L 32.699219 15.300781 C 31.299219 13.600781 29.200391 12.699219 26.400391 12.699219 z"/></svg>