<svg xmlns="http://www.w3.org/2000/svg" viewBox="0 0 50 50" width="50" height="50" fill="#666"><path d="M 15 7 C 7.855469 7 2 12.855469 2 20 C 2 34.761719 18.695313 42.046875 24.375 46.78125 C 24.742188 47.074219 25.257813 47.074219 25.625 46.78125 C 31.304688 42.046875 48 34.761719 48 20 C 48 12.855469 42.144531 7 35 7 C 32.742188 7 30.679688 7.558594 28.84375 8.53125 C 28.578125 8.660156 28.382813 8.902344 28.3125 9.1875 L 27.03125 14.78125 C 26.964844 15.078125 27.035156 15.386719 27.222656 15.621094 C 27.414063 15.859375 27.699219 15.996094 28 16 L 30.21875 16 L 27.15625 23.625 C 27.03125 23.933594 27.070313 24.285156 27.257813 24.5625 C 27.445313 24.839844 27.757813 25.003906 28.09375 25 L 28.90625 25 L 24.75 31.71875 L 25.96875 26.21875 C 26.035156 25.921875 25.964844 25.613281 25.777344 25.378906 C 25.585938 25.140625 25.300781 25.003906 25 25 L 23.09375 25 L 25.75 17.3125 C 25.847656 17.011719 25.800781 16.679688 25.613281 16.417969 C 25.429688 16.160156 25.132813 16.003906 24.8125 16 L 21.8125 16 L 22.875 10.375 C 22.941406 10.007813 22.796875 9.632813 22.5 9.40625 C 20.421875 7.875 17.804688 7 15 7 Z M 15 9 C 17.175781 9 19.140625 9.65625 20.78125 10.71875 L 19.625 16.8125 C 19.570313 17.101563 19.644531 17.402344 19.832031 17.632813 C 20.019531 17.859375 20.296875 17.996094 20.59375 18 L 23.40625 18 L 20.75 25.6875 C 20.652344 25.988281 20.699219 26.320313 20.886719 26.582031 C 21.070313 26.839844 21.367188 26.996094 21.6875 27 L 23.75 27 L 21.53125 36.96875 C 21.4375 37.4375 21.6875 37.90625 22.128906 38.085938 C 22.570313 38.269531 23.078125 38.113281 23.34375 37.71875 L 31.5625 24.53125 C 31.757813 24.21875 31.765625 23.824219 31.582031 23.503906 C 31.402344 23.183594 31.054688 22.988281 30.6875 23 L 29.59375 23 L 32.625 15.375 C 32.75 15.066406 32.710938 14.714844 32.523438 14.4375 C 32.335938 14.160156 32.023438 13.996094 31.6875 14 L 29.25 14 L 30.15625 10.125 C 31.621094 9.414063 33.207031 9 35 9 C 41.054688 9 46 13.945313 46 20 C 46 32.898438 31.59375 39.574219 25 44.78125 C 18.40625 39.574219 4 32.898438 4 20 C 4 13.945313 8.945313 9 15 9 Z"/></svg>