<svg xmlns="http://www.w3.org/2000/svg" viewBox="0 0 50 50" width="50" height="50" fill="#666"><path d="M 7 2 L 7 48 L 43 48 L 43 15.410156 L 29.183594 2 Z M 9 4 L 27 4 L 27 17 L 40 17 C 40.464844 17.007813 40.871094 16.691406 40.984375 16.238281 L 41 16.253906 L 41 46 L 9 46 Z M 29 4.609375 L 39.707031 15 L 29 15 Z M 34.832031 23.46875 C 32.6875 23.46875 30.589844 24.996094 30.542969 28.671875 C 30.511719 30.410156 30.976563 31.910156 31.847656 32.75 C 32.523438 33.429688 33.390625 33.757813 34.546875 33.757813 C 35.28125 33.757813 36.210938 33.578125 36.644531 33.394531 L 36.644531 28 L 33.933594 28 L 33.933594 29.601563 L 34.832031 29.601563 L 34.832031 32.046875 C 34.757813 32.078125 34.621094 32.09375 34.441406 32.09375 C 33.527344 32.09375 32.582031 31.222656 32.582031 28.792969 C 32.582031 26.152344 33.648438 25.234375 34.984375 25.234375 C 35.476563 25.234375 35.851563 25.3125 36.136719 25.464844 L 36.484375 23.765625 C 36.167969 23.617188 35.597656 23.46875 34.832031 23.46875 Z M 16.113281 23.515625 C 15.332031 23.515625 14.613281 23.585938 14.117188 23.707031 L 14.117188 33.640625 C 14.507813 33.683594 15.125 33.742188 15.738281 33.742188 C 17.148438 33.742188 18.152344 33.425781 18.828125 32.765625 C 19.714844 31.988281 20.238281 30.53125 20.238281 28.492188 C 20.238281 26.527344 19.789063 25.191406 18.917969 24.410156 C 18.273438 23.8125 17.386719 23.515625 16.113281 23.515625 Z M 21.84375 23.558594 L 21.109375 33.667969 L 22.800781 33.667969 L 22.96875 30.15625 C 23.027344 29.148438 23.085938 27.875 23.117188 26.78125 L 23.160156 26.78125 C 23.3125 27.875 23.582031 29.136719 23.777344 29.945313 L 24.617188 33.5 L 26.015625 33.5 L 26.882813 29.886719 C 27.078125 29.105469 27.347656 27.863281 27.527344 26.78125 L 27.574219 26.78125 C 27.542969 27.863281 27.617188 29.167969 27.660156 30.125 L 27.84375 33.667969 L 29.597656 33.667969 L 28.984375 23.558594 L 26.910156 23.558594 L 26.117188 27.21875 C 25.847656 28.492188 25.621094 29.632813 25.472656 30.757813 L 25.441406 30.757813 C 25.261719 29.617188 25.007813 28.492188 24.722656 27.21875 L 23.910156 23.558594 Z M 16.472656 25.089844 C 17.65625 25.089844 18.199219 26.347656 18.199219 28.417969 C 18.199219 31.207031 17.371094 32.136719 16.425781 32.136719 C 16.324219 32.136719 16.171875 32.136719 16.082031 32.109375 L 16.082031 25.132813 C 16.203125 25.085938 16.335938 25.089844 16.472656 25.089844 Z"/></svg>