<svg xmlns="http://www.w3.org/2000/svg" viewBox="0 0 50 50" width="50" height="50" fill="#666"><path d="M 18 4 C 17.476563 4 16.941406 4.183594 16.5625 4.5625 C 16.183594 4.941406 16 5.476563 16 6 L 16 8 L 3 8 C 1.355469 8 0 9.355469 0 11 L 0 12.46875 C -0.203125 12.792969 -0.203125 13.207031 0 13.53125 L 0 40 C 0 41.644531 1.355469 43 3 43 L 44 43 C 45.644531 43 47 41.644531 47 40 L 47 26.84375 C 48.722656 26.398438 50 24.863281 50 23 L 50 17 C 50 15.136719 48.722656 13.601563 47 13.15625 L 47 11 C 47 9.355469 45.644531 8 44 8 L 32 8 L 32 6 C 32 5.476563 31.816406 4.941406 31.4375 4.5625 C 31.058594 4.183594 30.523438 4 30 4 Z M 18 6 L 30 6 L 30 8 L 18 8 Z M 3 10 L 44 10 C 44.554688 10 45 10.445313 45 11 L 45 13.6875 C 44.941406 13.882813 44.941406 14.085938 45 14.28125 L 45 17.84375 L 2 12.125 L 2 11 C 2 10.445313 2.445313 10 3 10 Z M 2 14.15625 L 45 19.875 L 45 25.8125 C 44.972656 25.945313 44.972656 26.085938 45 26.21875 L 45 40 C 45 40.554688 44.554688 41 44 41 L 3 41 C 2.445313 41 2 40.554688 2 40 Z M 47 15.25 C 47.613281 15.570313 48 16.191406 48 17 L 48 23 C 48 23.808594 47.613281 24.429688 47 24.75 L 47 19.1875 C 47.027344 19.054688 47.027344 18.914063 47 18.78125 Z"/></svg>