<svg xmlns="http://www.w3.org/2000/svg" viewBox="0 0 50 50" width="50" height="50" fill="#666"><path d="M 25 2 C 12.309295 2 2 12.309295 2 25 C 2 37.690705 12.309295 48 25 48 C 37.690705 48 48 37.690705 48 25 C 48 12.309295 37.690705 2 25 2 z M 25 4 C 36.609824 4 46 13.390176 46 25 C 46 36.609824 36.609824 46 25 46 C 13.390176 46 4 36.609824 4 25 C 4 13.390176 13.390176 4 25 4 z M 24 10 L 24 12.800781 C 18.4 13.100781 17.449219 17.299219 17.449219 19.199219 C 17.449219 28.599219 31.150391 23.599219 31.150391 30.699219 C 31.150391 31.599219 30.950781 35.599609 25.050781 35.599609 C 24.850781 35.599609 18.749219 35.600781 18.949219 29.300781 L 16.849609 29.300781 C 17.049609 36.000781 21.3 36.899219 24 37.199219 L 24 40 L 26 40 L 26 37.199219 C 32.7 36.699219 33.150391 31.699219 33.150391 30.699219 C 33.150391 21.699219 19.449219 26.300391 19.449219 19.400391 C 19.449219 17.100391 20.350781 14.400391 25.050781 14.400391 C 29.850781 14.400391 30.450781 18.200391 30.550781 19.900391 L 32.650391 19.900391 C 32.850391 17.100391 30.850781 13.000781 26.050781 12.800781 L 26.050781 10 L 24 10 z"/></svg>