<svg xmlns="http://www.w3.org/2000/svg" viewBox="0 0 50 50" width="50" height="50" fill="#666"><path d="M 15 4 C 14.734375 4 14.480469 4.105469 14.292969 4.292969 C 14.105469 4.480469 14 4.734375 14 5 L 14.007813 21.976563 C 14.007813 22.453125 14.34375 22.863281 14.8125 22.957031 C 15.277344 23.050781 15.746094 22.800781 15.933594 22.363281 C 17.808594 17.890625 22.152344 15 27 15 C 33.617188 15 39 20.382813 39 27 C 39 33.617188 33.617188 39 27 39 C 24.425781 39 21.996094 38.175781 20 36.734375 L 20 27 C 20 23.140625 23.140625 20 27 20 C 30.859375 20 34 23.140625 34 27 C 34 30.859375 30.859375 34 27 34 C 26.132813 34 25.273438 33.835938 24.453125 33.515625 C 23.9375 33.3125 23.355469 33.566406 23.15625 34.078125 C 22.953125 34.59375 23.207031 35.171875 23.71875 35.375 C 24.777344 35.789063 25.882813 36 27 36 C 31.960938 36 36 31.960938 36 27 C 36 22.039063 31.960938 18 27 18 C 22.039063 18 18 22.039063 18 27 L 18 34.917969 C 17.152344 33.953125 16.445313 32.84375 15.933594 31.609375 C 15.71875 31.101563 15.132813 30.859375 14.625 31.074219 C 14.113281 31.285156 13.875 31.871094 14.085938 32.378906 C 16.269531 37.617188 21.339844 41 27 41 C 34.71875 41 41 34.71875 41 27 C 41 19.28125 34.71875 13 27 13 C 22.632813 13 18.617188 15.007813 16.003906 18.324219 L 16 6 L 36 6 C 36.550781 6 37 5.550781 37 5 C 37 4.449219 36.550781 4 36 4 Z M 27 8 C 24.824219 8 22.691406 8.367188 20.65625 9.085938 C 20.136719 9.269531 19.863281 9.839844 20.046875 10.359375 C 20.230469 10.882813 20.804688 11.152344 21.324219 10.96875 C 23.140625 10.328125 25.050781 10 27 10 C 31.679688 10 36.042969 11.859375 39.28125 15.242188 C 39.476563 15.449219 39.738281 15.550781 40 15.550781 C 40.25 15.550781 40.5 15.460938 40.691406 15.273438 C 41.089844 14.890625 41.105469 14.257813 40.722656 13.859375 C 37.105469 10.082031 32.230469 8 27 8 Z M 25 24 C 24.746094 24 24.488281 24.097656 24.292969 24.292969 C 23.902344 24.683594 23.902344 25.316406 24.292969 25.707031 L 25.585938 27 L 24.292969 28.292969 C 23.902344 28.683594 23.902344 29.316406 24.292969 29.707031 C 24.488281 29.902344 24.742188 30 25 30 C 25.257813 30 25.511719 29.902344 25.707031 29.707031 L 27 28.414063 L 28.292969 29.707031 C 28.488281 29.902344 28.742188 30 29 30 C 29.257813 30 29.511719 29.902344 29.707031 29.707031 C 30.097656 29.316406 30.097656 28.683594 29.707031 28.292969 L 28.414063 27 L 29.707031 25.707031 C 30.097656 25.316406 30.097656 24.683594 29.707031 24.292969 C 29.316406 23.902344 28.683594 23.902344 28.292969 24.292969 L 27 25.585938 L 25.707031 24.292969 C 25.511719 24.097656 25.253906 24 25 24 Z M 8.976563 26.5625 C 8.425781 26.578125 7.992188 27.042969 8.007813 27.59375 C 8.328125 37.914063 16.667969 46 27 46 C 32.761719 46 38.144531 43.421875 41.777344 38.933594 C 42.125 38.5 42.058594 37.871094 41.628906 37.523438 C 41.199219 37.175781 40.570313 37.246094 40.222656 37.671875 C 36.972656 41.695313 32.152344 44 27 44 C 17.753906 44 10.292969 36.765625 10.007813 27.53125 C 9.992188 26.980469 9.53125 26.527344 8.976563 26.5625 Z"/></svg>