<svg xmlns="http://www.w3.org/2000/svg" viewBox="0 0 50 50" width="50" height="50" fill="#666"><path d="M 24.714844 2 C 22.644531 2.023438 20.546875 2.347656 18.472656 2.960938 C 18.320313 2.96875 18.175781 3.007813 18.042969 3.082031 C 17.992188 3.097656 17.941406 3.109375 17.890625 3.125 C 13.191406 4.652344 9.324219 7.558594 6.578125 11.25 C 6.550781 11.285156 6.523438 11.320313 6.496094 11.359375 C 6.441406 11.433594 6.386719 11.511719 6.328125 11.589844 C 6.210938 11.695313 6.121094 11.824219 6.0625 11.96875 C 6.039063 12 6.015625 12.035156 5.992188 12.066406 C 5.925781 12.164063 5.863281 12.261719 5.796875 12.359375 C 5.6875 12.527344 5.578125 12.695313 5.472656 12.867188 C 5.355469 13.058594 5.238281 13.25 5.125 13.441406 C 5.070313 13.539063 5.011719 13.640625 4.957031 13.738281 C 4.824219 13.972656 4.695313 14.210938 4.570313 14.453125 C 4.535156 14.519531 4.5 14.585938 4.46875 14.65625 C 4.316406 14.953125 4.171875 15.253906 4.035156 15.558594 C 3.882813 15.890625 3.742188 16.230469 3.605469 16.574219 C 3.46875 16.917969 3.34375 17.261719 3.226563 17.609375 C 3.105469 17.960938 2.996094 18.3125 2.890625 18.667969 C 2.796875 19.003906 2.707031 19.34375 2.625 19.6875 C 2.613281 19.738281 2.601563 19.789063 2.589844 19.839844 C 2.527344 20.113281 2.46875 20.390625 2.414063 20.671875 C 2.386719 20.820313 2.359375 20.96875 2.335938 21.121094 C 2.296875 21.328125 2.265625 21.535156 2.234375 21.746094 C 2.207031 21.929688 2.183594 22.117188 2.164063 22.304688 C 2.140625 22.472656 2.121094 22.640625 2.105469 22.8125 C 2.078125 23.078125 2.0625 23.347656 2.046875 23.613281 C 2.039063 23.710938 2.03125 23.808594 2.027344 23.90625 C 2.019531 24.097656 2.015625 24.285156 2.015625 24.476563 C 1.996094 24.570313 1.996094 24.667969 2.007813 24.761719 C 2.003906 24.800781 2.003906 24.839844 2.003906 24.878906 C 2.003906 24.921875 2 24.960938 2 25 C 2 25.015625 2 25.027344 2 25.042969 C 2.003906 25.386719 2.011719 25.738281 2.027344 26.085938 C 2.027344 26.125 2.027344 26.167969 2.03125 26.207031 C 2.050781 26.550781 2.078125 26.894531 2.109375 27.234375 C 2.117188 27.285156 2.117188 27.332031 2.125 27.378906 C 2.152344 27.644531 2.1875 27.90625 2.222656 28.167969 C 2.242188 28.3125 2.261719 28.453125 2.28125 28.59375 C 2.3125 28.777344 2.347656 28.957031 2.378906 29.136719 C 2.414063 29.339844 2.453125 29.542969 2.492188 29.746094 C 2.519531 29.871094 2.550781 29.996094 2.578125 30.121094 C 2.644531 30.398438 2.710938 30.675781 2.78125 30.949219 C 2.792969 30.988281 2.804688 31.027344 2.816406 31.066406 C 2.90625 31.402344 3.003906 31.734375 3.109375 32.0625 C 3.117188 32.074219 3.121094 32.09375 3.125 32.109375 C 3.140625 32.148438 3.15625 32.191406 3.171875 32.234375 C 3.273438 32.542969 3.378906 32.851563 3.496094 33.15625 C 3.527344 33.234375 3.558594 33.3125 3.585938 33.390625 C 3.691406 33.652344 3.796875 33.914063 3.910156 34.171875 C 3.96875 34.3125 4.035156 34.449219 4.097656 34.585938 C 4.183594 34.769531 4.265625 34.953125 4.355469 35.132813 C 4.46875 35.363281 4.585938 35.589844 4.707031 35.8125 C 4.746094 35.886719 4.785156 35.964844 4.824219 36.035156 C 4.96875 36.296875 5.117188 36.554688 5.265625 36.808594 C 5.304688 36.871094 5.339844 36.933594 5.378906 36.996094 C 5.558594 37.289063 5.742188 37.570313 5.929688 37.855469 C 6.113281 38.125 6.304688 38.390625 6.496094 38.652344 C 6.496094 38.652344 6.496094 38.652344 6.5 38.652344 C 6.558594 38.773438 6.640625 38.882813 6.742188 38.972656 C 6.910156 39.191406 7.078125 39.410156 7.257813 39.625 C 7.726563 40.195313 8.222656 40.742188 8.742188 41.261719 C 8.988281 41.503906 9.238281 41.742188 9.492188 41.976563 C 9.53125 42.011719 9.570313 42.046875 9.609375 42.078125 C 9.824219 42.273438 10.046875 42.464844 10.269531 42.652344 C 10.351563 42.722656 10.4375 42.789063 10.519531 42.859375 C 10.703125 43.007813 10.890625 43.15625 11.078125 43.296875 C 11.203125 43.394531 11.335938 43.492188 11.46875 43.585938 C 11.621094 43.699219 11.777344 43.8125 11.9375 43.921875 C 12.105469 44.035156 12.273438 44.148438 12.441406 44.257813 C 12.554688 44.332031 12.667969 44.40625 12.78125 44.476563 C 13.019531 44.628906 13.261719 44.773438 13.507813 44.914063 C 13.558594 44.941406 13.605469 44.96875 13.65625 45 C 13.953125 45.167969 14.253906 45.332031 14.5625 45.484375 C 15.449219 45.941406 16.375 46.335938 17.324219 46.671875 C 17.464844 46.765625 17.625 46.820313 17.796875 46.832031 C 18.085938 46.929688 18.375 47.023438 18.667969 47.109375 C 19.011719 47.207031 19.355469 47.296875 19.703125 47.378906 C 19.734375 47.386719 19.761719 47.394531 19.792969 47.402344 C 20.109375 47.472656 20.433594 47.539063 20.753906 47.601563 C 20.828125 47.613281 20.898438 47.628906 20.972656 47.640625 C 21.230469 47.6875 21.488281 47.730469 21.75 47.765625 C 21.929688 47.792969 22.113281 47.8125 22.292969 47.835938 C 22.46875 47.855469 22.648438 47.878906 22.828125 47.894531 C 23.066406 47.917969 23.308594 47.933594 23.550781 47.949219 C 23.671875 47.957031 23.796875 47.96875 23.917969 47.972656 C 24.238281 47.988281 24.558594 47.996094 24.878906 47.996094 C 24.917969 47.996094 24.960938 48 25 48 C 25.015625 48 25.027344 48 25.042969 48 C 25.386719 47.996094 25.734375 47.988281 26.082031 47.972656 C 26.125 47.96875 26.167969 47.972656 26.207031 47.96875 C 26.546875 47.949219 26.890625 47.925781 27.230469 47.890625 C 27.28125 47.886719 27.332031 47.882813 27.378906 47.875 C 27.644531 47.847656 27.90625 47.8125 28.167969 47.777344 C 28.3125 47.757813 28.457031 47.738281 28.597656 47.71875 C 28.75 47.691406 28.902344 47.664063 29.050781 47.636719 C 29.292969 47.59375 29.535156 47.550781 29.777344 47.5 C 29.863281 47.480469 29.953125 47.457031 30.042969 47.4375 C 30.347656 47.367188 30.65625 47.296875 30.957031 47.214844 C 30.960938 47.214844 30.96875 47.210938 30.972656 47.210938 C 30.992188 47.207031 31.011719 47.199219 31.03125 47.191406 C 31.375 47.101563 31.710938 47 32.046875 46.890625 C 32.066406 46.886719 32.085938 46.882813 32.109375 46.875 C 32.148438 46.863281 32.1875 46.847656 32.230469 46.832031 C 32.382813 46.816406 32.535156 46.761719 32.667969 46.675781 C 32.824219 46.621094 32.988281 46.566406 33.144531 46.507813 C 33.234375 46.472656 33.324219 46.4375 33.410156 46.402344 C 33.652344 46.308594 33.894531 46.210938 34.132813 46.109375 C 34.3125 46.03125 34.492188 45.949219 34.671875 45.863281 C 34.8125 45.796875 34.957031 45.730469 35.097656 45.660156 C 35.347656 45.539063 35.59375 45.410156 35.839844 45.28125 C 35.898438 45.25 35.957031 45.21875 36.015625 45.1875 C 36.300781 45.03125 36.578125 44.871094 36.851563 44.707031 C 36.886719 44.683594 36.925781 44.664063 36.964844 44.640625 C 37.265625 44.457031 37.5625 44.265625 37.855469 44.066406 C 38.160156 43.863281 38.460938 43.648438 38.753906 43.425781 C 39.050781 43.207031 39.339844 42.976563 39.625 42.746094 C 39.90625 42.511719 40.179688 42.273438 40.449219 42.03125 C 40.449219 42.027344 40.457031 42.023438 40.457031 42.019531 C 40.460938 42.019531 40.464844 42.015625 40.46875 42.011719 C 40.71875 41.785156 40.960938 41.554688 41.199219 41.316406 C 41.238281 41.277344 41.277344 41.234375 41.316406 41.195313 C 41.523438 40.988281 41.722656 40.777344 41.921875 40.5625 C 41.988281 40.488281 42.058594 40.414063 42.125 40.335938 C 42.269531 40.171875 42.414063 40.011719 42.554688 39.84375 C 42.691406 39.683594 42.824219 39.519531 42.957031 39.355469 C 43.027344 39.269531 43.097656 39.179688 43.164063 39.09375 C 43.195313 39.050781 43.226563 39.007813 43.257813 38.964844 C 43.363281 38.871094 43.449219 38.757813 43.503906 38.632813 C 43.570313 38.542969 43.636719 38.457031 43.703125 38.371094 C 43.710938 38.355469 43.71875 38.347656 43.730469 38.332031 C 43.738281 38.324219 43.742188 38.308594 43.75 38.296875 C 46.421875 34.542969 48 29.953125 48 25 C 48 24.925781 47.992188 24.851563 47.988281 24.777344 C 48.003906 24.664063 48 24.546875 47.980469 24.4375 C 47.921875 22.175781 47.550781 19.996094 46.890625 17.945313 C 46.882813 17.925781 46.878906 17.910156 46.875 17.890625 C 46.859375 17.84375 46.839844 17.800781 46.824219 17.75 C 46.671875 17.300781 46.511719 16.855469 46.332031 16.417969 C 46.300781 16.332031 46.269531 16.246094 46.234375 16.160156 C 46.050781 15.726563 45.855469 15.300781 45.648438 14.878906 C 45.554688 14.6875 45.457031 14.5 45.359375 14.3125 C 45.242188 14.09375 45.125 13.878906 45 13.667969 C 44.769531 13.253906 44.519531 12.851563 44.265625 12.453125 C 44.191406 12.347656 44.125 12.238281 44.050781 12.128906 C 44.011719 12.074219 43.972656 12.019531 43.9375 11.96875 C 43.878906 11.820313 43.785156 11.691406 43.667969 11.589844 C 43.601563 11.496094 43.539063 11.402344 43.46875 11.3125 C 43.46875 11.308594 43.464844 11.300781 43.464844 11.296875 C 43.453125 11.289063 43.445313 11.277344 43.4375 11.265625 C 43.003906 10.6875 42.546875 10.128906 42.066406 9.601563 C 41.367188 8.824219 40.617188 8.105469 39.824219 7.4375 C 39.75 7.375 39.675781 7.3125 39.601563 7.25 C 39.347656 7.042969 39.09375 6.839844 38.832031 6.640625 L 38.824219 6.636719 C 38.789063 6.609375 38.753906 6.585938 38.71875 6.5625 C 38.277344 6.234375 37.824219 5.921875 37.359375 5.625 C 37.164063 5.5 36.96875 5.378906 36.765625 5.257813 C 36.5625 5.136719 36.355469 5.015625 36.148438 4.898438 C 35.839844 4.730469 35.527344 4.566406 35.210938 4.40625 C 35.160156 4.382813 35.113281 4.355469 35.0625 4.328125 C 34.882813 4.246094 34.703125 4.167969 34.527344 4.085938 C 34.273438 3.972656 34.019531 3.859375 33.761719 3.75 C 33.566406 3.671875 33.375 3.59375 33.175781 3.515625 C 32.847656 3.390625 32.511719 3.273438 32.175781 3.164063 C 32.148438 3.15625 32.117188 3.148438 32.089844 3.140625 C 31.925781 3.015625 31.726563 2.949219 31.519531 2.945313 C 31.5 2.945313 31.484375 2.945313 31.46875 2.945313 C 31.425781 2.933594 31.386719 2.921875 31.34375 2.910156 C 31.125 2.847656 30.90625 2.785156 30.683594 2.726563 C 30.402344 2.65625 30.121094 2.589844 29.835938 2.527344 C 29.742188 2.507813 29.648438 2.492188 29.554688 2.472656 C 28.875 2.335938 28.1875 2.226563 27.496094 2.148438 C 27.316406 2.128906 27.140625 2.097656 26.960938 2.082031 C 26.332031 2.027344 25.695313 2.003906 25.0625 2 L 25.058594 2 C 25.039063 2 25.019531 2 25 2 C 24.992188 2 24.988281 2 24.984375 2 C 24.890625 2.003906 24.804688 1.996094 24.714844 2 Z M 25 4 C 25.695313 4 26.382813 4.035156 27.0625 4.101563 C 27.402344 4.136719 27.738281 4.175781 28.074219 4.226563 C 28.117188 4.234375 28.160156 4.234375 28.203125 4.242188 C 28.355469 4.265625 28.507813 4.296875 28.660156 4.324219 C 28.75 4.339844 28.835938 4.359375 28.921875 4.375 L 25 6.820313 L 21.078125 4.375 C 21.148438 4.363281 21.222656 4.34375 21.296875 4.332031 C 21.445313 4.304688 21.59375 4.277344 21.746094 4.25 C 21.828125 4.238281 21.910156 4.230469 21.988281 4.21875 C 22.273438 4.175781 22.5625 4.136719 22.847656 4.109375 C 22.851563 4.105469 22.855469 4.109375 22.859375 4.109375 C 23.5625 4.035156 24.277344 4 25 4 Z M 18.40625 5.0625 L 24.027344 8.570313 L 24.027344 14.472656 L 15.355469 20.769531 L 9.660156 18.9375 L 8.082031 12.585938 C 8.257813 12.34375 8.433594 12.097656 8.617188 11.863281 C 8.832031 11.597656 9.0625 11.34375 9.289063 11.089844 C 9.511719 10.835938 9.738281 10.578125 9.976563 10.332031 C 10.199219 10.105469 10.433594 9.890625 10.667969 9.671875 C 10.960938 9.398438 11.25 9.121094 11.558594 8.863281 C 11.613281 8.816406 11.667969 8.773438 11.722656 8.726563 C 12.183594 8.351563 12.664063 7.992188 13.15625 7.65625 C 13.230469 7.605469 13.300781 7.558594 13.375 7.507813 C 13.847656 7.195313 14.339844 6.898438 14.839844 6.625 C 14.953125 6.558594 15.070313 6.5 15.1875 6.4375 C 15.652344 6.191406 16.128906 5.960938 16.613281 5.75 C 17.195313 5.496094 17.792969 5.265625 18.40625 5.0625 Z M 31.59375 5.0625 C 31.921875 5.175781 32.25 5.285156 32.574219 5.410156 C 32.652344 5.441406 32.734375 5.472656 32.816406 5.507813 C 33.054688 5.601563 33.289063 5.710938 33.519531 5.8125 C 33.917969 5.992188 34.308594 6.179688 34.691406 6.378906 C 34.855469 6.464844 35.019531 6.542969 35.175781 6.632813 C 35.710938 6.929688 36.230469 7.238281 36.734375 7.578125 C 36.738281 7.578125 36.742188 7.582031 36.746094 7.585938 C 36.769531 7.601563 36.789063 7.617188 36.8125 7.632813 C 37.289063 7.957031 37.75 8.304688 38.195313 8.664063 C 38.328125 8.773438 38.457031 8.886719 38.589844 9 C 38.953125 9.308594 39.308594 9.628906 39.652344 9.960938 C 39.753906 10.058594 39.855469 10.160156 39.953125 10.261719 C 40.390625 10.699219 40.8125 11.15625 41.207031 11.632813 C 41.207031 11.632813 41.207031 11.636719 41.207031 11.636719 C 41.460938 11.941406 41.6875 12.265625 41.917969 12.585938 L 40.328125 18.988281 L 34.644531 20.769531 L 26.027344 14.511719 L 26.027344 8.539063 Z M 43.402344 14.902344 C 43.472656 15.027344 43.542969 15.152344 43.609375 15.277344 C 43.769531 15.585938 43.914063 15.90625 44.0625 16.222656 C 44.402344 16.960938 44.714844 17.71875 44.972656 18.511719 C 45.195313 19.203125 45.382813 19.894531 45.53125 20.589844 C 45.585938 20.828125 45.625 21.070313 45.671875 21.308594 C 45.695313 21.453125 45.726563 21.597656 45.75 21.746094 C 45.761719 21.828125 45.769531 21.90625 45.78125 21.988281 C 45.800781 22.109375 45.8125 22.234375 45.828125 22.355469 L 42.289063 19.378906 Z M 6.601563 14.910156 L 7.710938 19.382813 L 4.1875 22.34375 C 4.226563 22.035156 4.257813 21.722656 4.3125 21.417969 C 4.332031 21.28125 4.355469 21.148438 4.382813 21.015625 C 4.492188 20.449219 4.621094 19.886719 4.777344 19.332031 C 4.796875 19.257813 4.820313 19.183594 4.84375 19.109375 C 5.015625 18.511719 5.214844 17.929688 5.4375 17.355469 C 5.453125 17.320313 5.464844 17.285156 5.476563 17.25 C 5.640625 16.847656 5.828125 16.457031 6.015625 16.0625 C 6.140625 15.789063 6.265625 15.515625 6.40625 15.25 C 6.464844 15.132813 6.535156 15.023438 6.601563 14.910156 Z M 25 16.234375 L 33.285156 22.257813 L 30.125 32 L 19.875 32 L 16.714844 22.257813 Z M 9.074219 20.847656 L 14.746094 22.671875 L 18.042969 32.828125 L 14.496094 37.714844 L 7.960938 37.253906 C 7.867188 37.121094 7.757813 36.992188 7.664063 36.855469 C 7.613281 36.777344 7.558594 36.695313 7.503906 36.613281 C 7.195313 36.148438 6.902344 35.667969 6.632813 35.175781 C 6.5625 35.050781 6.496094 34.921875 6.429688 34.796875 C 6.1875 34.339844 5.960938 33.875 5.753906 33.398438 C 5.484375 32.78125 5.242188 32.144531 5.027344 31.488281 C 4.804688 30.796875 4.617188 30.105469 4.46875 29.410156 C 4.414063 29.171875 4.375 28.929688 4.328125 28.691406 C 4.304688 28.546875 4.273438 28.40625 4.25 28.261719 C 4.234375 28.152344 4.222656 28.042969 4.210938 27.933594 C 4.175781 27.6875 4.140625 27.441406 4.113281 27.191406 C 4.105469 27.132813 4.101563 27.078125 4.097656 27.019531 C 4.039063 26.390625 4.007813 25.753906 4.007813 25.109375 Z M 40.96875 20.882813 L 45.996094 25.109375 C 45.992188 25.75 45.960938 26.382813 45.902344 27.011719 C 45.851563 27.539063 45.78125 28.0625 45.6875 28.582031 C 45.667969 28.71875 45.644531 28.851563 45.621094 28.984375 C 45.507813 29.550781 45.378906 30.113281 45.222656 30.667969 C 45.203125 30.742188 45.179688 30.820313 45.15625 30.894531 C 44.988281 31.472656 44.796875 32.042969 44.578125 32.597656 C 44.554688 32.664063 44.527344 32.730469 44.5 32.796875 C 44.351563 33.171875 44.171875 33.539063 44 33.90625 C 43.867188 34.191406 43.738281 34.476563 43.59375 34.753906 C 43.429688 35.066406 43.246094 35.367188 43.066406 35.671875 C 42.902344 35.953125 42.738281 36.234375 42.558594 36.511719 C 42.390625 36.761719 42.210938 37.007813 42.03125 37.253906 L 35.453125 37.71875 L 31.957031 32.820313 L 35.253906 22.675781 Z M 19.664063 34 L 30.34375 34 L 33.847656 38.914063 L 31.382813 45.003906 C 30.726563 45.210938 30.070313 45.390625 29.410156 45.53125 C 29.183594 45.582031 28.953125 45.625 28.722656 45.667969 C 28.566406 45.695313 28.410156 45.722656 28.253906 45.75 C 28.15625 45.761719 28.0625 45.773438 27.964844 45.789063 C 27.707031 45.824219 27.449219 45.859375 27.1875 45.886719 C 27.136719 45.890625 27.085938 45.894531 27.03125 45.902344 C 26.363281 45.964844 25.6875 46 25 46 C 24.320313 46 23.652344 45.964844 22.988281 45.902344 C 22.460938 45.851563 21.933594 45.78125 21.414063 45.6875 C 21.28125 45.667969 21.148438 45.644531 21.015625 45.621094 C 20.449219 45.507813 19.890625 45.378906 19.339844 45.222656 C 19.257813 45.199219 19.179688 45.179688 19.097656 45.15625 C 18.933594 45.109375 18.773438 45.042969 18.609375 44.988281 L 16.128906 38.863281 Z M 9.71875 39.382813 L 14.3125 39.707031 L 16.042969 43.976563 C 15.78125 43.851563 15.511719 43.734375 15.253906 43.597656 C 14.933594 43.429688 14.625 43.242188 14.3125 43.058594 C 14.039063 42.894531 13.765625 42.738281 13.5 42.566406 C 13.207031 42.375 12.921875 42.164063 12.640625 41.957031 C 12.378906 41.765625 12.117188 41.582031 11.863281 41.378906 C 11.597656 41.167969 11.34375 40.9375 11.089844 40.714844 C 10.835938 40.488281 10.578125 40.261719 10.332031 40.023438 C 10.121094 39.816406 9.921875 39.597656 9.71875 39.382813 Z M 40.28125 39.382813 C 40.191406 39.480469 40.105469 39.585938 40.011719 39.679688 C 39.796875 39.898438 39.570313 40.101563 39.347656 40.3125 C 39.050781 40.589844 38.753906 40.875 38.441406 41.136719 C 38.386719 41.183594 38.332031 41.226563 38.277344 41.273438 C 37.8125 41.652344 37.328125 42.011719 36.828125 42.355469 C 36.769531 42.394531 36.710938 42.433594 36.65625 42.46875 C 36.167969 42.796875 35.664063 43.101563 35.144531 43.386719 C 35.042969 43.445313 34.9375 43.496094 34.832031 43.550781 C 34.546875 43.703125 34.25 43.835938 33.957031 43.976563 L 35.6875 39.707031 Z"/></svg>