<svg xmlns="http://www.w3.org/2000/svg" viewBox="0 0 50 50" width="50" height="50" fill="#666"><path d="M 25 2 C 12.309295 2 2 12.309295 2 25 C 2 37.690705 12.309295 48 25 48 C 37.690705 48 48 37.690705 48 25 C 48 12.309295 37.690705 2 25 2 z M 25 4 C 36.609824 4 46 13.390176 46 25 C 46 36.609824 36.609824 46 25 46 C 13.390176 46 4 36.609824 4 25 C 4 13.390176 13.390176 4 25 4 z M 15.900391 13 L 23 25.300781 L 19.5 25.300781 L 19.5 26.800781 L 23.800781 26.800781 L 24 27.099609 L 24 29.599609 L 19.5 29.599609 L 19.5 31.099609 L 24 31.099609 L 24 37 L 26.099609 37 L 26.099609 31.099609 L 30.699219 31.099609 L 30.699219 29.599609 L 26.099609 29.599609 L 26.099609 27.099609 L 26.300781 26.800781 L 30.699219 26.800781 L 30.699219 25.300781 L 27 25.300781 L 34.099609 13 L 31.800781 13 L 25 25.300781 L 18.300781 13 L 15.900391 13 z"/></svg>