<svg xmlns="http://www.w3.org/2000/svg" viewBox="0 0 50 50" width="50" height="50" fill="#666"><path d="M 25 2 C 19.488281 2 15 6.488281 15 12 C 15 15.277344 16.394531 17.539063 17.65625 19.4375 C 18.917969 21.335938 20 22.863281 20 25.0625 L 20 31.1875 L 4.8125 34.03125 C 4.347656 34.121094 4.007813 34.523438 4 35 L 4 43 C 4 43.550781 4.449219 44 5 44 L 5 45 C 5 46.644531 6.355469 48 8 48 L 42 48 C 43.644531 48 45 46.644531 45 45 L 45 44 C 45.550781 44 46 43.550781 46 43 L 46 35 C 45.992188 34.523438 45.652344 34.121094 45.1875 34.03125 L 30 31.1875 L 30 25.0625 C 30 22.863281 31.082031 21.335938 32.34375 19.4375 C 33.605469 17.539063 35 15.277344 35 12 C 35 6.488281 30.511719 2 25 2 Z M 25 4 C 29.429688 4 33 7.570313 33 12 C 33 14.71875 31.894531 16.445313 30.65625 18.3125 C 29.417969 20.179688 28 22.203125 28 25.0625 L 28 31 L 22 31 L 22 25.0625 C 22 22.203125 20.582031 20.179688 19.34375 18.3125 C 18.105469 16.445313 17 14.71875 17 12 C 17 7.570313 20.570313 4 25 4 Z M 20.9375 33 C 20.957031 33 20.980469 33 21 33 L 29.09375 33 L 44 35.8125 L 44 42 L 6 42 L 6 35.8125 Z M 7 44 L 43 44 L 43 45 C 43 45.566406 42.566406 46 42 46 L 8 46 C 7.433594 46 7 45.566406 7 45 Z"/></svg>