<svg xmlns="http://www.w3.org/2000/svg" viewBox="0 0 50 50" width="50" height="50" fill="#666"><path d="M 36.984375 1.984375 C 36.9375 1.988281 36.886719 1.992188 36.839844 2 L 20 2 L 20 7.757813 L 22 9.757813 L 22 4 L 36 4 L 36 14 L 46 14 L 46 38 L 32 38 L 32 40 L 48 40 L 48 13.167969 C 48.019531 13.058594 48.019531 12.949219 48 12.84375 L 48 12.585938 L 47.808594 12.390625 C 47.753906 12.324219 47.691406 12.261719 47.625 12.207031 C 47.621094 12.207031 47.621094 12.203125 47.617188 12.203125 L 37.792969 2.375 C 37.738281 2.304688 37.675781 2.242188 37.605469 2.1875 L 37.414063 2 L 37.15625 2 C 37.097656 1.992188 37.042969 1.984375 36.984375 1.984375 Z M 38 5.414063 L 44.585938 12 L 38 12 Z M 18.984375 9.984375 C 18.9375 9.988281 18.886719 9.992188 18.839844 10 L 2 10 L 2 48 L 30 48 L 30 21.167969 C 30.019531 21.058594 30.019531 20.949219 30 20.84375 L 30 20.585938 L 29.808594 20.390625 C 29.753906 20.320313 29.6875 20.257813 29.617188 20.203125 L 19.792969 10.375 C 19.738281 10.304688 19.675781 10.242188 19.605469 10.1875 L 19.414063 10 L 19.15625 10 C 19.097656 9.992188 19.042969 9.984375 18.984375 9.984375 Z M 4 12 L 18 12 L 18 22 L 28 22 L 28 46 L 4 46 Z M 20 13.414063 L 26.585938 20 L 20 20 Z M 30.242188 18 L 32.242188 20 L 42 20 L 42 18 Z M 32 24 L 32 26 L 38 26 L 38 24 Z M 8 26 L 8 28 L 24 28 L 24 26 Z M 32 30 L 32 32 L 42 32 L 42 30 Z M 8 32 L 8 34 L 20 34 L 20 32 Z M 8 38 L 8 40 L 24 40 L 24 38 Z"/></svg>