<svg xmlns="http://www.w3.org/2000/svg" viewBox="0 0 50 50" width="50" height="50" fill="#666"><path d="M 21 3 L 21 13 L 19 13 C 17.355469 13 16 14.355469 16 16 L 16 38 C 16 39.644531 17.355469 41 19 41 L 20.96875 41 C 20.707031 44.320313 17.878906 47 14.5 47 C 11.121094 47 8.292969 44.320313 8.03125 41 L 11 41 C 12.644531 41 14 39.644531 14 38 L 14 10 C 14 8.355469 12.644531 7 11 7 L 3 7 C 1.355469 7 0 8.355469 0 10 L 0 38 C 0 39.644531 1.355469 41 3 41 L 6.03125 41 C 6.292969 45.425781 10.011719 49 14.5 49 C 18.988281 49 22.707031 45.425781 22.96875 41 L 47 41 C 48.644531 41 50 39.644531 50 38 L 50 16 C 50 14.355469 48.644531 13 47 13 L 45 13 L 45 3 Z M 23 5 L 43 5 L 43 17 L 23 17 Z M 3 9 L 11 9 C 11.554688 9 12 9.445313 12 10 L 12 38 C 12 38.554688 11.554688 39 11 39 L 3 39 C 2.445313 39 2 38.554688 2 38 L 2 10 C 2 9.445313 2.445313 9 3 9 Z M 19 15 L 21 15 L 21 19 L 45 19 L 45 15 L 47 15 C 47.554688 15 48 15.445313 48 16 L 48 38 C 48 38.554688 47.554688 39 47 39 L 19 39 C 18.445313 39 18 38.554688 18 38 L 18 16 C 18 15.445313 18.445313 15 19 15 Z M 27 21 C 25.894531 21 25 21.894531 25 23 C 25 24.105469 25.894531 25 27 25 C 28.105469 25 29 24.105469 29 23 C 29 21.894531 28.105469 21 27 21 Z M 33 21 C 31.894531 21 31 21.894531 31 23 C 31 24.105469 31.894531 25 33 25 C 34.105469 25 35 24.105469 35 23 C 35 21.894531 34.105469 21 33 21 Z M 39 21 C 37.894531 21 37 21.894531 37 23 C 37 24.105469 37.894531 25 39 25 C 40.105469 25 41 24.105469 41 23 C 41 21.894531 40.105469 21 39 21 Z M 27 27 C 25.894531 27 25 27.894531 25 29 C 25 30.105469 25.894531 31 27 31 C 28.105469 31 29 30.105469 29 29 C 29 27.894531 28.105469 27 27 27 Z M 33 27 C 31.894531 27 31 27.894531 31 29 C 31 30.105469 31.894531 31 33 31 C 34.105469 31 35 30.105469 35 29 C 35 27.894531 34.105469 27 33 27 Z M 39 27 C 37.894531 27 37 27.894531 37 29 C 37 30.105469 37.894531 31 39 31 C 40.105469 31 41 30.105469 41 29 C 41 27.894531 40.105469 27 39 27 Z M 27 33 C 25.894531 33 25 33.894531 25 35 C 25 36.105469 25.894531 37 27 37 C 28.105469 37 29 36.105469 29 35 C 29 33.894531 28.105469 33 27 33 Z M 33 33 C 31.894531 33 31 33.894531 31 35 C 31 36.105469 31.894531 37 33 37 C 34.105469 37 35 36.105469 35 35 C 35 33.894531 34.105469 33 33 33 Z M 39 33 C 37.894531 33 37 33.894531 37 35 C 37 36.105469 37.894531 37 39 37 C 40.105469 37 41 36.105469 41 35 C 41 33.894531 40.105469 33 39 33 Z"/></svg>