<svg xmlns="http://www.w3.org/2000/svg" viewBox="0 0 50 50" width="50" height="50" fill="#666"><path d="M 30.375 -0.09375 C 25.332031 -0.0390625 22.175781 2.304688 20.40625 4.96875 C 18.855469 7.304688 18.378906 9.695313 18.15625 11.25 C 13.453125 11.890625 10.632813 13.765625 9.46875 16.21875 C 8.3125 18.65625 8.8125 21.339844 9.875 23.53125 C 9.78125 24.109375 9.78125 24.632813 9.75 25.15625 C 8.246094 25.328125 6.785156 25.8125 5.625 26.875 C 4.320313 28.070313 3.539063 29.925781 3.5625 32.1875 C 1.683594 34.5625 0.558594 37.894531 1.46875 42.59375 C 1.164063 42.90625 0.851563 43.207031 0.625 43.59375 C 0.28125 44.175781 0 44.765625 0 45.5 C 0 46.78125 0.246094 47.832031 0.84375 48.625 C 1.441406 49.417969 2.386719 49.84375 3.34375 49.90625 C 5.691406 50.007813 9.59375 50 11.09375 50 C 12.089844 50 12.9375 49.464844 13.25 48.8125 C 13.5625 48.160156 13.5 47.589844 13.5 47.40625 C 13.5 46.058594 12.585938 45.035156 11.5 44.15625 C 12.058594 43.617188 12.515625 42.992188 12.8125 42.34375 C 13.042969 41.84375 13.179688 41.339844 13.28125 40.875 C 13.675781 40.949219 14.089844 41.023438 14.53125 41.0625 C 15.203125 41.125 15.777344 41.019531 16.375 40.96875 C 16.8125 41.988281 17.433594 43.105469 18.28125 44.21875 C 18.019531 44.390625 17.773438 44.574219 17.59375 44.8125 C 17.117188 45.441406 16.910156 46.222656 17 47 C 17.183594 48.554688 18.691406 50 21 50 L 27.1875 50 C 28.234375 50 29.144531 49.757813 29.8125 49.1875 C 30.480469 48.617188 30.8125 47.761719 30.8125 46.90625 C 30.8125 45.199219 30.183594 43.535156 29 42.34375 C 29.101563 41.550781 28.992188 40.515625 28.96875 39.53125 C 31.332031 38.195313 33.175781 36.9375 34.65625 35.75 C 34.722656 35.902344 34.742188 36.199219 34.8125 36.3125 C 35.058594 36.714844 35.125 36.757813 35.125 36.71875 C 35.125 36.71875 35.125 36.753906 35.125 36.75 C 34.832031 38.285156 35.09375 39.960938 35.8125 41.5625 C 36.207031 42.445313 36.726563 43.292969 37.34375 44.0625 C 36.375 44.792969 35.867188 45.964844 36.0625 47.09375 C 36.339844 48.671875 37.894531 50 40.1875 50 L 46.40625 50 C 47.453125 50 48.363281 49.757813 49.03125 49.1875 C 49.699219 48.617188 50 47.761719 50 46.90625 C 50 45.1875 49.347656 43.46875 48.0625 42.28125 C 47.488281 38.769531 46.777344 37.464844 45.71875 35.53125 C 46.160156 33.238281 46.039063 31.003906 45.53125 29.09375 C 45.050781 27.285156 44.261719 25.828125 43.3125 24.78125 C 43.910156 22.238281 43.480469 20.019531 42.15625 18.46875 C 40.988281 17.101563 39.265625 16.253906 37.4375 15.5625 C 37.65625 15.066406 37.796875 14.519531 37.8125 14 C 37.839844 13.148438 37.589844 12.34375 37.1875 11.625 C 37.242188 11.132813 37.207031 10.691406 37.09375 10.3125 C 37.316406 9.949219 37.4375 9.566406 37.46875 9.1875 C 37.519531 8.582031 37.433594 7.964844 37.25 7.40625 C 37.246094 7.398438 37.253906 7.382813 37.25 7.375 C 36.648438 5.480469 35.59375 3.707031 34.40625 2.34375 C 33.210938 0.972656 31.933594 -0.09375 30.40625 -0.09375 C 30.394531 -0.09375 30.386719 -0.09375 30.375 -0.09375 Z M 30.40625 1.90625 C 30.777344 1.90625 31.902344 2.503906 32.90625 3.65625 C 33.910156 4.808594 34.84375 6.402344 35.34375 8 C 35.34375 8.011719 35.34375 8.019531 35.34375 8.03125 C 35.457031 8.367188 35.523438 8.738281 35.5 9 C 35.488281 9.117188 35.484375 9.082031 35.46875 9.125 C 34.992188 9.191406 34.351563 9.246094 33.625 9.15625 C 32.789063 9.054688 32.050781 8.882813 31.59375 8.8125 C 31.578125 8.808594 31.542969 8.8125 31.53125 8.8125 C 30.976563 8.71875 30.390625 8.769531 29.875 9 C 29.339844 9.238281 28.847656 9.71875 28.6875 10.375 C 28.527344 11.03125 28.707031 11.722656 29.09375 12.375 C 29.398438 12.886719 29.960938 13.402344 30.5625 13.9375 C 30.542969 14.105469 30.378906 14.269531 30.375 14.4375 C 30.363281 14.949219 30.425781 15.484375 30.59375 16.03125 C 30.761719 16.578125 31.015625 17.125 31.4375 17.59375 C 31.859375 18.0625 32.507813 18.457031 33.25 18.5 C 33.269531 18.5 33.292969 18.5 33.3125 18.5 C 34.328125 18.5 35.078125 17.996094 35.65625 17.5625 C 35.921875 17.363281 35.925781 17.3125 36.09375 17.15625 C 38.015625 17.8125 39.675781 18.667969 40.625 19.78125 C 41.660156 20.996094 42.070313 22.453125 41.34375 24.8125 C 41.242188 25.171875 41.351563 25.558594 41.625 25.8125 C 42.320313 26.46875 43.132813 27.859375 43.59375 29.59375 C 44.054688 31.328125 44.179688 33.394531 43.71875 35.46875 C 43.660156 35.710938 43.691406 35.96875 43.8125 36.1875 C 45.023438 38.410156 45.539063 39.027344 46.125 42.75 C 46.160156 43.027344 46.304688 43.273438 46.53125 43.4375 C 47.464844 44.085938 48 45.441406 48 46.90625 C 48 47.351563 47.898438 47.535156 47.71875 47.6875 C 47.539063 47.839844 47.15625 48 46.40625 48 L 40.1875 48 C 38.578125 48 38.128906 47.320313 38.03125 46.75 C 37.945313 46.257813 38.214844 45.792969 38.875 45.53125 C 39.070313 45.6875 39.230469 45.890625 39.4375 46.03125 C 39.894531 46.34375 40.515625 46.222656 40.828125 45.765625 C 41.140625 45.308594 41.019531 44.6875 40.5625 44.375 C 39.355469 43.558594 38.300781 42.183594 37.65625 40.75 C 37.011719 39.316406 36.804688 37.839844 37.0625 36.875 C 37.105469 36.734375 37.117188 36.582031 37.09375 36.4375 C 36.984375 35.78125 36.640625 35.476563 36.5 35.25 C 36.378906 35.054688 36.273438 34.753906 36.21875 34.28125 C 36.71875 33.792969 37.40625 33.277344 37.78125 32.8125 C 39.464844 30.722656 39.964844 28.773438 39.90625 27.15625 C 39.847656 25.21875 39.003906 23.121094 38.21875 21.40625 C 37.433594 19.691406 36.65625 18.375 36.65625 18.375 C 36.371094 17.898438 35.753906 17.746094 35.28125 18.03125 C 34.804688 18.316406 34.652344 18.929688 34.9375 19.40625 C 34.9375 19.40625 35.667969 20.609375 36.40625 22.21875 C 37.144531 23.828125 37.863281 25.855469 37.90625 27.21875 C 37.90625 27.230469 37.90625 27.238281 37.90625 27.25 C 37.949219 28.433594 37.660156 29.777344 36.21875 31.5625 C 34.945313 33.140625 32.519531 35.074219 28.90625 37.21875 C 28.574219 35.425781 27.839844 33.542969 26.53125 31.78125 C 27.425781 27.09375 26.535156 23.351563 23.75 20.15625 C 23.527344 19.851563 23.152344 19.699219 22.777344 19.761719 C 22.40625 19.824219 22.101563 20.09375 21.988281 20.453125 C 21.878906 20.8125 21.980469 21.207031 22.25 21.46875 C 24.777344 24.371094 25.488281 27.285156 24.53125 31.78125 C 24.460938 32.078125 24.53125 32.386719 24.71875 32.625 C 27.375 35.921875 27.378906 39.921875 27 42.46875 C 26.953125 42.832031 27.109375 43.191406 27.40625 43.40625 C 28.25 44.039063 28.8125 45.441406 28.8125 46.90625 C 28.8125 47.351563 28.710938 47.535156 28.53125 47.6875 C 28.351563 47.839844 27.9375 48 27.1875 48 L 21 48 C 19.410156 48 19.066406 47.351563 19 46.78125 C 18.964844 46.496094 19.046875 46.21875 19.1875 46.03125 C 19.292969 45.890625 19.484375 45.828125 19.6875 45.78125 C 19.75 45.824219 19.78125 45.894531 19.84375 45.9375 C 20.308594 46.238281 20.933594 46.105469 21.234375 45.640625 C 21.535156 45.175781 21.402344 44.550781 20.9375 44.25 C 19.644531 43.414063 18.613281 41.210938 17.90625 39.59375 C 17.878906 39.539063 17.847656 39.488281 17.8125 39.4375 C 17.792969 39.40625 17.773438 39.375 17.75 39.34375 C 17.710938 39.296875 17.671875 39.257813 17.625 39.21875 C 17.535156 39.125 17.429688 39.050781 17.3125 39 C 15.941406 38.355469 15.246094 37.113281 14.90625 35.78125 C 14.566406 34.449219 14.71875 32.976563 14.84375 32.625 C 14.964844 32.261719 14.867188 31.859375 14.59375 31.59375 C 13.195313 30.246094 12.402344 29.171875 12 28.03125 C 11.816406 27.507813 11.71875 26.914063 11.6875 26.28125 C 11.730469 26.117188 11.730469 25.945313 11.6875 25.78125 C 11.695313 25.152344 11.730469 24.507813 11.875 23.6875 C 11.917969 23.464844 11.886719 23.234375 11.78125 23.03125 C 10.792969 21.1875 10.410156 18.894531 11.28125 17.0625 C 12.152344 15.230469 14.300781 13.574219 19.09375 13.09375 C 19.566406 13.054688 19.941406 12.6875 20 12.21875 C 20.140625 10.949219 20.613281 8.296875 22.09375 6.0625 C 23.574219 3.828125 25.949219 1.953125 30.40625 1.90625 Z M 30.90625 10.78125 C 31 10.773438 31.105469 10.761719 31.21875 10.78125 C 31.230469 10.78125 31.238281 10.78125 31.25 10.78125 C 31.382813 10.800781 31.722656 10.863281 32.15625 10.9375 C 32.128906 10.980469 32.105469 11.03125 32.09375 11.09375 C 31.992188 11.492188 32.605469 12.101563 33.40625 12.5 C 33.40625 12.5 33.695313 12 34.59375 12 C 34.863281 11.960938 35.074219 11.992188 35.25 12.03125 C 35.28125 12.15625 35.332031 12.269531 35.40625 12.375 C 35.476563 12.46875 35.535156 12.601563 35.59375 12.75 C 35.398438 12.777344 35.226563 13 35 13 C 34.601563 13 34.492188 12.8125 34.09375 12.8125 C 33.695313 12.8125 33.59375 13.011719 33.59375 13.3125 C 33.59375 13.613281 34.3125 13.90625 34.3125 13.90625 L 35.6875 13.6875 C 35.710938 13.644531 35.753906 13.566406 35.78125 13.5 C 35.800781 13.648438 35.816406 13.789063 35.8125 13.9375 C 35.8125 13.984375 35.785156 14.019531 35.78125 14.0625 C 34.96875 14.066406 33.542969 14.269531 32.5 15.40625 C 32.402344 15.074219 32.335938 14.71875 32.34375 14.46875 C 32.347656 14.339844 32.386719 14.253906 32.40625 14.21875 C 32.570313 14.007813 32.640625 13.742188 32.605469 13.476563 C 32.570313 13.210938 32.429688 12.972656 32.21875 12.8125 C 31.460938 12.214844 31.019531 11.695313 30.8125 11.34375 C 30.605469 10.992188 30.625 10.851563 30.625 10.84375 C 30.625 10.835938 30.59375 10.851563 30.6875 10.8125 C 30.734375 10.792969 30.8125 10.789063 30.90625 10.78125 Z M 35.1875 11.09375 C 35.195313 11.1875 35.28125 11.378906 35.25 11.46875 C 35.234375 11.53125 35.222656 11.59375 35.21875 11.65625 C 35.179688 11.671875 35.148438 11.6875 35.09375 11.6875 C 34.894531 11.6875 34.8125 11.605469 34.8125 11.40625 C 34.8125 11.304688 34.804688 11.289063 34.90625 11.1875 C 34.707031 11.289063 34.507813 11.1875 34.40625 11.1875 C 34.304688 11.1875 34.101563 11.289063 34 11.1875 L 34.09375 11.3125 C 34.09375 11.511719 34.011719 11.59375 33.8125 11.59375 C 33.613281 11.59375 33.5 11.511719 33.5 11.3125 C 33.5 11.246094 33.535156 11.164063 33.59375 11.125 C 34.113281 11.160156 34.648438 11.113281 35.1875 11.09375 Z M 35.78125 14.21875 C 35.714844 14.664063 35.542969 15.015625 35.3125 15.1875 C 35.292969 15.195313 35.269531 15.207031 35.25 15.21875 C 35.238281 15.230469 35.230469 15.238281 35.21875 15.25 C 35.21875 15.261719 35.21875 15.269531 35.21875 15.28125 C 35.199219 15.289063 35.175781 15.300781 35.15625 15.3125 C 35.15625 15.3125 34.859375 15.621094 34.4375 15.9375 C 34.023438 16.246094 33.539063 16.488281 33.34375 16.5 C 33.335938 16.5 33.320313 16.5 33.3125 16.5 C 33.191406 16.488281 33.109375 16.425781 33 16.3125 C 33.207031 15.789063 33.875 14.625 35.78125 14.21875 Z M 9.8125 27.15625 C 9.882813 27.675781 9.921875 28.203125 10.09375 28.6875 C 10.589844 30.101563 11.589844 31.328125 12.875 32.625 C 12.660156 33.625 12.605469 34.859375 12.96875 36.28125 C 13.210938 37.230469 13.699219 38.171875 14.375 39.03125 C 14.0625 38.992188 13.75 38.957031 13.5 38.90625 C 13.152344 38.835938 12.859375 38.691406 12.90625 38.71875 C 12.5625 38.523438 12.132813 38.550781 11.816406 38.785156 C 11.496094 39.023438 11.347656 39.425781 11.4375 39.8125 C 11.429688 39.769531 11.441406 40.046875 11.375 40.375 C 11.308594 40.703125 11.179688 41.109375 11 41.5 C 10.640625 42.285156 10.050781 42.953125 9.53125 43.15625 C 9.164063 43.289063 8.90625 43.621094 8.871094 44.011719 C 8.835938 44.402344 9.035156 44.777344 9.375 44.96875 C 10.722656 45.777344 11.5 46.816406 11.5 47.40625 C 11.5 47.722656 11.480469 47.945313 11.46875 47.96875 C 11.457031 47.992188 11.597656 48 11.09375 48 C 9.601563 48 5.722656 48.003906 3.46875 47.90625 C 3.457031 47.90625 3.449219 47.90625 3.4375 47.90625 C 2.921875 47.867188 2.660156 47.734375 2.4375 47.4375 C 2.207031 47.132813 2 46.519531 2 45.5 C 2 45.433594 2.113281 44.984375 2.34375 44.59375 C 2.574219 44.203125 2.929688 43.835938 3.09375 43.71875 C 3.414063 43.480469 3.558594 43.074219 3.46875 42.6875 C 2.421875 38.027344 3.53125 35.371094 5.28125 33.25 C 5.445313 33.046875 5.523438 32.789063 5.5 32.53125 C 5.367188 30.535156 6 29.234375 6.96875 28.34375 C 7.726563 27.648438 8.746094 27.3125 9.8125 27.15625 Z"/></svg>