<svg xmlns="http://www.w3.org/2000/svg" viewBox="0 0 50 50" width="50" height="50" fill="#666"><path d="M 15 2.96875 C 14.96875 2.976563 14.9375 2.988281 14.90625 3 L 14.5625 3 L 14.4375 3.15625 C 14.414063 3.175781 14.394531 3.195313 14.375 3.21875 L 14.34375 3.25 C 14.324219 3.257813 14.300781 3.269531 14.28125 3.28125 L 14.28125 3.3125 C 14.234375 3.351563 14.195313 3.390625 14.15625 3.4375 L 0.96875 17.3125 L 0.375 17.9375 L 0.90625 18.625 L 23.96875 48.3125 C 24.035156 48.636719 24.257813 48.902344 24.5625 49.03125 L 25 49.625 L 25.46875 49 C 25.761719 48.863281 25.96875 48.597656 26.03125 48.28125 C 26.03125 48.269531 26.03125 48.261719 26.03125 48.25 L 49.09375 18.625 L 49.625 17.9375 L 49.03125 17.3125 L 35.875 3.5 C 35.855469 3.476563 35.835938 3.457031 35.8125 3.4375 L 35.8125 3.40625 C 35.785156 3.371094 35.753906 3.339844 35.71875 3.3125 L 35.6875 3.25 C 35.640625 3.203125 35.585938 3.160156 35.53125 3.125 L 35.4375 3 L 35.15625 3 C 35.09375 2.984375 35.03125 2.972656 34.96875 2.96875 C 34.90625 2.972656 34.84375 2.984375 34.78125 3 L 15.09375 3 C 15.0625 2.988281 15.03125 2.976563 15 2.96875 Z M 15.8125 5 L 22.71875 5 L 13.71875 14.71875 Z M 27.28125 5 L 34.1875 5 L 36.28125 14.6875 Z M 25 5.46875 L 35.71875 17 L 14.25 17 Z M 36.71875 7.25 L 45.96875 17 L 38.78125 17 Z M 13.28125 7.28125 L 11.1875 17 L 4.03125 17 Z M 3.75 19 L 11.34375 19 L 20.96875 41.1875 Z M 13.5 19 L 36.5 19 L 25 45.5 Z M 38.625 19 L 46.25 19 L 29.03125 41.1875 Z"/></svg>