<svg xmlns="http://www.w3.org/2000/svg" viewBox="0 0 50 50" width="50" height="50" fill="#666"><path d="M 10 4 C 8.355469 4 7 5.355469 7 7 L 7 8 L 7.414063 8 C 7.589844 8.433594 7.835938 8.832031 8.140625 9.15625 C 4.335938 13.28125 2 18.800781 2 24.863281 C 2 33.394531 6.597656 40.855469 13.4375 44.863281 L 13.671875 45 L 36.328125 45 L 36.5625 44.863281 C 43.402344 40.855469 48 33.394531 48 24.863281 C 48 18.800781 45.664063 13.28125 41.859375 9.15625 C 42.164063 8.832031 42.410156 8.433594 42.582031 8 L 43 8 L 43 7 C 43 5.355469 41.644531 4 40 4 Z M 10 6 L 40 6 C 40.554688 6 41 6.445313 41 7 C 41 7.554688 40.554688 8 40 8 L 10 8 C 9.445313 8 9 7.554688 9 7 C 9 6.445313 9.445313 6 10 6 Z M 10.144531 10 L 39.855469 10 C 41.0625 11.222656 42.105469 12.601563 42.996094 14.082031 C 42.476563 14.023438 41.980469 13.984375 41.566406 14.003906 C 33.992188 14.015625 26.242188 18 19.601563 18 C 14.140625 18 10.019531 16.984375 6.335938 15.277344 C 7.335938 13.328125 8.621094 11.542969 10.144531 10 Z M 41.65625 16 C 41.894531 15.984375 42.628906 16.03125 43.265625 16.128906 C 43.582031 16.179688 43.886719 16.238281 44.113281 16.296875 C 44.136719 16.304688 44.148438 16.308594 44.167969 16.316406 C 45.335938 18.925781 46 21.808594 46 24.863281 C 46 32.59375 41.867188 39.3125 35.726563 43 L 14.273438 43 C 8.132813 39.3125 4 32.59375 4 24.863281 C 4 22.109375 4.535156 19.492188 5.492188 17.09375 C 9.429688 18.910156 13.890625 20 19.601563 20 C 27.011719 20 34.753906 16 41.601563 16 Z M 34.5 19 C 33.671875 19 33 19.671875 33 20.5 C 33 21.328125 33.671875 22 34.5 22 C 35.328125 22 36 21.328125 36 20.5 C 36 19.671875 35.328125 19 34.5 19 Z M 31.5 23 C 30.671875 23 30 23.671875 30 24.5 C 30 25.328125 30.671875 26 31.5 26 C 32.328125 26 33 25.328125 33 24.5 C 33 23.671875 32.328125 23 31.5 23 Z M 14 27 C 14.492188 27.625 15 30.542969 15 32 C 15 33.445313 14.492188 36.375 14 37 C 15.472656 36.375 17.046875 34.332031 17.421875 33.328125 C 17.425781 33.328125 17.457031 33.246094 17.464844 33.234375 C 19.355469 34.824219 21.699219 37 24.972656 37 C 28.277344 37 33 33.109375 33 31.445313 C 33 29.777344 28.277344 27 24.972656 27 C 20.828125 27 17.632813 30.644531 17.472656 30.828125 L 17.4375 30.75 C 17.4375 30.75 16.457031 28.25 14 27 Z M 35 27 C 34.449219 27 34 27.449219 34 28 C 34 28.550781 34.449219 29 35 29 C 35.550781 29 36 28.550781 36 28 C 36 27.449219 35.550781 27 35 27 Z M 24.972656 29 C 27.175781 29 30.019531 30.621094 30.859375 31.511719 C 30.054688 32.65625 27.003906 35 24.972656 35 C 22.644531 35 20.773438 33.414063 19.121094 32.015625 L 19.109375 32.003906 C 19.753906 31.332031 22.191406 29 24.972656 29 Z M 26 30 C 25.449219 30 25 30.449219 25 31 C 25 31.550781 25.449219 32 26 32 C 26.550781 32 27 31.550781 27 31 C 27 30.449219 26.550781 30 26 30 Z"/></svg>