<svg xmlns="http://www.w3.org/2000/svg" viewBox="0 0 50 50" width="50" height="50" fill="#666"><path style="line-height:normal;text-indent:0;text-align:start;text-decoration-line:none;text-decoration-style:solid;text-decoration-color:#000;text-transform:none;block-progression:tb;isolation:auto;mix-blend-mode:normal" d="M 25 2 C 12.309295 2 2 12.309295 2 25 C 2 37.690705 12.309295 48 25 48 C 37.690705 48 48 37.690705 48 25 C 48 12.309295 37.690705 2 25 2 z M 25 4 C 36.609824 4 46 13.390176 46 25 C 46 36.609824 36.609824 46 25 46 C 13.390176 46 4 36.609824 4 25 C 4 13.390176 13.390176 4 25 4 z M 25 11 C 17.27961 11 11 17.27961 11 25 C 11 32.72039 17.27961 39 25 39 C 31.218645 39 36.499726 34.933644 38.318359 29.308594 A 1.0001 1.0001 0 0 0 37.365234 28 L 33.052734 28 A 1.0001 1.0001 0 0 0 32.158203 28.554688 C 30.847674 31.187304 28.146029 33 25 33 C 20.569334 33 17 29.430666 17 25 C 17 20.569334 20.569334 17 25 17 C 28.147138 17 30.848684 18.812939 32.158203 21.445312 A 1.0001 1.0001 0 0 0 33.052734 22 L 37.365234 22 A 1.0001 1.0001 0 0 0 38.318359 20.691406 C 36.499726 15.066356 31.218645 11 25 11 z M 25 13 C 29.822438 13 33.843102 15.909534 35.751953 20 L 33.570312 20 C 31.835876 17.035349 28.67599 15 25 15 C 19.488666 15 15 19.488666 15 25 C 15 30.511334 19.488666 35 25 35 C 28.675057 35 31.833099 32.96432 33.568359 30 L 35.751953 30 C 33.843102 34.090466 29.822438 37 25 37 C 18.36039 37 13 31.63961 13 25 C 13 18.36039 18.36039 13 25 13 z"/></svg>