<svg xmlns="http://www.w3.org/2000/svg" viewBox="0 0 50 50" width="50" height="50" fill="#666"><path d="M 25.984375 1.984375 C 25.433594 1.996094 24.992188 2.449219 25 3 C 25 6.054688 23.832031 6.964844 22.339844 8.304688 C 20.847656 9.640625 19.015625 11.410156 19.015625 15 C 19.011719 15.359375 19.199219 15.695313 19.511719 15.878906 C 19.824219 16.058594 20.207031 16.058594 20.519531 15.878906 C 20.832031 15.695313 21.019531 15.359375 21.015625 15 C 21.015625 12.015625 22.175781 11.136719 23.675781 9.792969 C 25.175781 8.449219 27 6.648438 27 3 C 27.003906 2.730469 26.898438 2.46875 26.707031 2.277344 C 26.515625 2.085938 26.253906 1.980469 25.984375 1.984375 Z M 30.992188 6.984375 C 30.441406 6.996094 30 7.449219 30.007813 8 C 30.007813 9.953125 29.335938 10.417969 28.339844 11.304688 C 27.34375 12.191406 26 13.511719 26 16 C 25.996094 16.359375 26.183594 16.695313 26.496094 16.878906 C 26.808594 17.058594 27.191406 17.058594 27.503906 16.878906 C 27.816406 16.695313 28.003906 16.359375 28 16 C 28 14.125 28.660156 13.695313 29.667969 12.796875 C 30.675781 11.902344 32.007813 10.546875 32.007813 8 C 32.011719 7.730469 31.90625 7.46875 31.714844 7.277344 C 31.523438 7.085938 31.261719 6.980469 30.992188 6.984375 Z M 11 19 C 10.449219 19 10 19.449219 10 20 L 10 33 C 10 36.273438 11.589844 39.175781 14.027344 41 L 7 41 C 6.449219 41 6 41.449219 6 42 C 6 43.773438 7.019531 45.28125 8.347656 46.324219 C 9.675781 47.363281 11.347656 48 13 48 L 35 48 C 36.652344 48 38.324219 47.363281 39.652344 46.324219 C 40.980469 45.28125 42 43.773438 42 42 C 42 41.449219 41.550781 41 41 41 L 33.972656 41 C 36.171875 39.351563 37.679688 36.832031 37.953125 33.953125 C 40.15625 33.734375 41.769531 32.742188 42.699219 31.246094 C 43.726563 29.582031 43.972656 27.46875 43.984375 25.171875 C 43.988281 25.164063 43.988281 25.15625 43.988281 25.148438 C 43.996094 25.097656 44 25.050781 44 25 C 44 23.355469 42.644531 22 41 22 L 38 22 L 38 20 C 38 19.449219 37.550781 19 37 19 Z M 12 21 L 36 21 L 36 32.832031 C 35.984375 32.929688 35.980469 33.027344 35.996094 33.125 C 35.925781 37.496094 32.386719 41 28 41 L 20 41 C 15.570313 41 12 37.429688 12 33 Z M 38 24 L 41 24 C 41.566406 24 42 24.433594 42 25 C 42 27.214844 41.710938 29.042969 41 30.191406 C 40.402344 31.152344 39.558594 31.761719 38 31.9375 Z M 8.289063 43 L 39.710938 43 C 39.457031 43.632813 39.0625 44.242188 38.417969 44.75 C 37.4375 45.515625 36.109375 46 35 46 L 13 46 C 11.890625 46 10.5625 45.515625 9.582031 44.75 C 8.9375 44.242188 8.542969 43.632813 8.289063 43 Z"/></svg>