<svg xmlns="http://www.w3.org/2000/svg" viewBox="0 0 50 50" width="50" height="50" fill="#666"><path d="M 25 0 C 20.59375 0 17 3.59375 17 8 C 17 10.414063 18.082031 12.5625 19.78125 14.03125 C 18.347656 14.199219 17.449219 14.871094 16.53125 15.53125 C 15.777344 16.074219 6.6875 22.75 6.6875 22.75 C 6.542969 22.84375 6.425781 22.972656 6.34375 23.125 C 6.34375 23.136719 6.34375 23.144531 6.34375 23.15625 C 5.5625 23.886719 5 24.851563 5 26 C 5 28.199219 6.800781 30 9 30 C 9.675781 30 10.230469 29.667969 10.78125 29.375 C 10.789063 29.371094 10.804688 29.378906 10.8125 29.375 C 11.023438 29.378906 11.234375 29.3125 11.40625 29.1875 L 11.4375 29.15625 L 17 25.15625 L 17 27.8125 L 15.25 31.3125 C 15.214844 31.351563 15.183594 31.394531 15.15625 31.4375 C 15.15625 31.4375 12.476563 35.53125 12 36.25 C 11.511719 36.984375 11.050781 37.609375 11 38.5 C 10.949219 39.390625 11.382813 40.179688 12.09375 41.125 C 12.640625 41.847656 13.871094 43.464844 15.0625 45 C 15.65625 45.769531 16.246094 46.53125 16.71875 47.125 C 17.191406 47.71875 17.511719 48.105469 17.78125 48.375 C 18.121094 48.714844 18.675781 49.257813 19.46875 49.625 C 20.261719 49.992188 21.40625 50.136719 22.40625 49.5 C 23.402344 48.867188 23.859375 47.835938 23.875 46.96875 C 23.890625 46.101563 23.601563 45.398438 23.34375 44.90625 C 23.132813 44.503906 22.835938 44.15625 22.40625 43.59375 C 21.976563 43.03125 21.457031 42.339844 20.9375 41.6875 C 20.214844 40.777344 19.886719 40.378906 19.53125 39.9375 L 22.90625 36.96875 C 22.941406 36.941406 22.972656 36.910156 23 36.875 C 23.335938 36.933594 23.664063 37 24 37 L 26 37 C 26.332031 37 26.664063 36.964844 27 36.90625 C 27.03125 36.929688 27.0625 36.949219 27.09375 36.96875 L 30.46875 39.9375 C 30.113281 40.378906 29.785156 40.777344 29.0625 41.6875 C 28.542969 42.339844 28.023438 43.03125 27.59375 43.59375 C 27.164063 44.15625 26.867188 44.503906 26.65625 44.90625 C 26.398438 45.398438 26.109375 46.101563 26.125 46.96875 C 26.140625 47.835938 26.597656 48.867188 27.59375 49.5 C 28.59375 50.136719 29.738281 49.992188 30.53125 49.625 C 31.324219 49.257813 31.878906 48.714844 32.21875 48.375 C 32.488281 48.105469 32.808594 47.71875 33.28125 47.125 C 33.753906 46.53125 34.34375 45.769531 34.9375 45 C 36.128906 43.464844 37.359375 41.847656 37.90625 41.125 C 38.617188 40.179688 39.050781 39.390625 39 38.5 C 38.949219 37.609375 38.488281 36.984375 38 36.25 C 37.523438 35.53125 34.84375 31.4375 34.84375 31.4375 C 34.824219 31.40625 34.804688 31.375 34.78125 31.34375 L 34.75 31.3125 C 34.738281 31.300781 34.730469 31.292969 34.71875 31.28125 L 33 27.8125 L 33 25.15625 L 38.5625 29.15625 L 38.59375 29.1875 C 38.757813 29.304688 38.953125 29.371094 39.15625 29.375 C 39.183594 29.390625 39.222656 29.363281 39.25 29.375 C 39.796875 29.660156 40.335938 30 41 30 C 43.199219 30 45 28.199219 45 26 C 45 24.867188 44.449219 23.914063 43.6875 23.1875 C 43.679688 23.167969 43.667969 23.144531 43.65625 23.125 C 43.644531 23.113281 43.636719 23.105469 43.625 23.09375 C 43.550781 22.957031 43.441406 22.839844 43.3125 22.75 C 43.3125 22.75 34.222656 16.074219 33.46875 15.53125 C 32.550781 14.871094 31.652344 14.199219 30.21875 14.03125 C 31.917969 12.5625 33 10.414063 33 8 C 33 3.59375 29.40625 0 25 0 Z M 25 2 C 28.324219 2 31 4.675781 31 8 C 31 11.324219 28.324219 14 25 14 C 21.675781 14 19 11.324219 19 8 C 19 4.675781 21.675781 2 25 2 Z M 20.5 16 L 29.5 16 C 30.945313 16 31.1875 16.347656 32.3125 17.15625 C 32.902344 17.578125 41.640625 23.976563 41.96875 24.21875 C 41.980469 24.230469 41.988281 24.238281 42 24.25 C 42.046875 24.296875 42.101563 24.339844 42.15625 24.375 C 42.671875 24.738281 43 25.320313 43 26 C 43 27.117188 42.117188 28 41 28 C 40.546875 28 40.132813 27.832031 39.78125 27.5625 C 39.769531 27.5625 39.761719 27.5625 39.75 27.5625 L 39.71875 27.53125 C 39.6875 27.507813 39.65625 27.488281 39.625 27.46875 L 32.59375 22.375 C 32.289063 22.148438 31.882813 22.117188 31.546875 22.289063 C 31.207031 22.460938 30.996094 22.808594 31 23.1875 L 31 27 L 19 27 L 19 23.1875 C 19.003906 22.808594 18.792969 22.460938 18.453125 22.289063 C 18.117188 22.117188 17.710938 22.148438 17.40625 22.375 L 10.375 27.46875 C 10.332031 27.496094 10.289063 27.527344 10.25 27.5625 C 10.238281 27.5625 10.230469 27.5625 10.21875 27.5625 C 9.867188 27.832031 9.453125 28 9 28 C 7.882813 28 7 27.117188 7 26 C 7 25.320313 7.328125 24.738281 7.84375 24.375 C 7.898438 24.339844 7.953125 24.296875 8 24.25 C 8.011719 24.238281 8.019531 24.230469 8.03125 24.21875 C 8.359375 23.976563 17.097656 17.578125 17.6875 17.15625 C 18.8125 16.347656 19.054688 16 20.5 16 Z M 18.59375 29 L 31.40625 29 L 32.75 31.65625 C 32.363281 31.953125 31.808594 32.410156 30.59375 33.15625 C 29.027344 34.121094 27.058594 35 26 35 L 24 35 C 22.941406 35 20.972656 34.121094 19.40625 33.15625 C 18.191406 32.410156 17.636719 31.953125 17.25 31.65625 Z M 16.25 33.46875 C 16.78125 33.851563 17.519531 34.335938 18.34375 34.84375 C 19.101563 35.3125 19.921875 35.796875 20.78125 36.1875 L 17.46875 39.0625 C 17.078125 39.421875 17.035156 40.027344 17.375 40.4375 C 17.375 40.4375 18.347656 41.644531 19.375 42.9375 C 19.886719 43.582031 20.398438 44.269531 20.8125 44.8125 C 21.226563 45.355469 21.582031 45.882813 21.5625 45.84375 C 21.730469 46.160156 21.878906 46.601563 21.875 46.9375 C 21.871094 47.273438 21.847656 47.492188 21.34375 47.8125 C 20.957031 48.058594 20.71875 48 20.3125 47.8125 C 19.90625 47.625 19.46875 47.25 19.1875 46.96875 C 19.148438 46.929688 18.746094 46.457031 18.28125 45.875 C 17.816406 45.292969 17.214844 44.542969 16.625 43.78125 C 15.441406 42.253906 14.226563 40.617188 13.6875 39.90625 C 13.074219 39.09375 12.992188 38.757813 13 38.59375 C 13.007813 38.429688 13.175781 38.070313 13.65625 37.34375 C 14.042969 36.757813 15.5625 34.496094 16.25 33.46875 Z M 33.75 33.46875 C 34.4375 34.496094 35.957031 36.757813 36.34375 37.34375 C 36.824219 38.070313 36.992188 38.429688 37 38.59375 C 37.007813 38.757813 36.925781 39.09375 36.3125 39.90625 C 35.773438 40.617188 34.558594 42.253906 33.375 43.78125 C 32.785156 44.542969 32.183594 45.292969 31.71875 45.875 C 31.253906 46.457031 30.851563 46.929688 30.8125 46.96875 C 30.53125 47.25 30.09375 47.625 29.6875 47.8125 C 29.28125 48 29.042969 48.058594 28.65625 47.8125 C 28.152344 47.492188 28.128906 47.273438 28.125 46.9375 C 28.121094 46.601563 28.269531 46.160156 28.4375 45.84375 C 28.417969 45.882813 28.773438 45.355469 29.1875 44.8125 C 29.601563 44.269531 30.113281 43.582031 30.625 42.9375 C 31.652344 41.644531 32.625 40.4375 32.625 40.4375 C 32.964844 40.027344 32.921875 39.421875 32.53125 39.0625 L 29.21875 36.1875 C 30.078125 35.796875 30.898438 35.3125 31.65625 34.84375 C 32.480469 34.335938 33.21875 33.851563 33.75 33.46875 Z"/></svg>