<svg xmlns="http://www.w3.org/2000/svg" viewBox="0 0 50 50" width="50" height="50" fill="#666"><path d="M 30 4 C 20.113281 4 14.339844 18.746094 11.132813 32.59375 C 6.394531 33.90625 3 35.894531 3 38.5 C 3 43.398438 14.300781 46 25 46 C 35.699219 46 47 43.398438 47 38.5 C 47 35.804688 43.527344 33.8125 38.625 32.578125 C 35.722656 22.277344 31.5 13.089844 31.5 13 L 31.300781 12.597656 C 31.199219 12.300781 31.199219 11.699219 31.402344 11.402344 C 31.5 11.300781 31.601563 11 32 11 C 33.898438 11 34 14.199219 34 15.097656 C 34 16.199219 34.898438 17 36 17 C 36.800781 17 37.5 16.601563 37.800781 16 C 39.300781 13.398438 39.300781 9.800781 38.097656 7.800781 C 37.097656 6.101563 34.898438 4 30 4 Z M 30 6 C 33.101563 6 35.300781 7 36.402344 8.800781 C 37.5 10.800781 37 13.300781 36.097656 15 C 36.097656 11.300781 34.597656 9 32.097656 9 C 31.199219 9 30.402344 9.398438 29.902344 10.097656 C 29.199219 11.097656 29.300781 12.398438 29.597656 13.199219 C 29.699219 13.5 29.800781 13.699219 29.902344 13.800781 C 30.085938 14.265625 34.144531 23.304688 36.96875 33.410156 C 34.503906 34.167969 30.664063 35 25 35 C 19.425781 35 15.5 34.214844 13.007813 33.410156 C 17.015625 15.683594 23 6 30 6 Z M 10.597656 34.8125 C 10.378906 35.921875 10.148438 37.054688 10 37.800781 L 9.898438 38.5 C 9.898438 38.5 14.398438 41 25 41 C 35.398438 41 40.199219 38.5 40.199219 38.5 L 40 37.699219 C 39.777344 36.804688 39.539063 35.832031 39.269531 34.828125 C 42.929688 35.902344 45 37.320313 45 38.5 C 45 40.800781 37.398438 44 25 44 C 12.601563 44 5 40.800781 5 38.5 C 5 37.316406 7.003906 35.890625 10.597656 34.8125 Z M 12.597656 35.402344 C 15.199219 36.199219 19.300781 37 25 37 C 30.699219 37 34.699219 36.199219 37.300781 35.402344 C 37.5 36 37.699219 36.699219 37.800781 37.300781 C 35.101563 38.101563 30.898438 39 25 39 C 19.101563 39 14.898438 38.101563 12.199219 37.300781 C 12.300781 36.699219 12.398438 36.101563 12.597656 35.402344 Z"/></svg>