<svg xmlns="http://www.w3.org/2000/svg" viewBox="0 0 50 50" width="50" height="50" fill="#666"><path d="M 7 2 L 7 48 L 43 48 L 43 15.410156 L 29.183594 2 Z M 9 4 L 28 4 L 28 17 L 41 17 L 41 46 L 9 46 Z M 30 5.578125 L 39.707031 15 L 30 15 Z M 20.394531 23.46875 C 18.429688 23.46875 16.3125 24.953125 16.3125 28.761719 C 16.3125 31.625 17.546875 33.757813 20.125 33.757813 C 20.816406 33.757813 21.371094 33.652344 21.65625 33.515625 L 21.460938 31.867188 C 21.222656 31.941406 20.84375 32.015625 20.515625 32.015625 C 19.316406 32.015625 18.402344 31.070313 18.402344 28.65625 C 18.402344 26.152344 19.40625 25.191406 20.515625 25.191406 C 20.949219 25.191406 21.203125 25.28125 21.429688 25.386719 L 21.761719 23.734375 C 21.566406 23.601563 21.085938 23.46875 20.394531 23.46875 Z M 25.539063 23.46875 C 23.425781 23.46875 22.34375 24.816406 22.34375 26.4375 C 22.34375 27.351563 22.871094 28.417969 24.25 29.257813 C 25.105469 29.8125 25.554688 30.171875 25.554688 30.90625 C 25.554688 31.566406 25.105469 32.046875 24.175781 32.046875 C 23.605469 32.046875 22.914063 31.882813 22.511719 31.65625 L 22.222656 33.351563 C 22.554688 33.546875 23.351563 33.757813 24.160156 33.757813 C 26.140625 33.757813 27.503906 32.542969 27.503906 30.699219 C 27.503906 29.632813 27.011719 28.613281 25.675781 27.800781 C 24.582031 27.144531 24.28125 26.828125 24.28125 26.226563 C 24.28125 25.6875 24.683594 25.175781 25.527344 25.175781 C 26.09375 25.175781 26.53125 25.339844 26.8125 25.519531 L 27.128906 23.828125 C 26.832031 23.644531 26.199219 23.46875 25.539063 23.46875 Z M 31.449219 23.46875 C 29.335938 23.46875 28.253906 24.816406 28.253906 26.4375 C 28.253906 27.351563 28.78125 28.417969 30.160156 29.257813 C 31.015625 29.8125 31.464844 30.171875 31.464844 30.90625 C 31.464844 31.566406 31.015625 32.046875 30.085938 32.046875 C 29.515625 32.046875 28.824219 31.882813 28.421875 31.65625 L 28.136719 33.351563 C 28.464844 33.546875 29.261719 33.757813 30.070313 33.757813 C 32.050781 33.757813 33.414063 32.542969 33.414063 30.699219 C 33.414063 29.632813 32.921875 28.613281 31.585938 27.800781 C 30.492188 27.144531 30.1875 26.828125 30.1875 26.226563 C 30.1875 25.6875 30.59375 25.175781 31.4375 25.175781 C 32.003906 25.175781 32.441406 25.339844 32.722656 25.519531 L 33.039063 23.828125 C 32.738281 23.644531 32.109375 23.46875 31.449219 23.46875 Z"/></svg>