<svg xmlns="http://www.w3.org/2000/svg" viewBox="0 0 50 50" width="50" height="50" fill="#666"><path d="M 7 2 L 7 48 L 43 48 L 43 15.410156 L 29.183594 2 Z M 9 4 L 28 4 L 28 17 L 41 17 L 41 46 L 9 46 Z M 30 5.578125 L 39.707031 15 L 30 15 Z M 18.3125 23.445313 L 16.121094 33.554688 L 18.027344 33.554688 L 18.472656 31.246094 L 20.289063 31.246094 L 20.722656 33.554688 L 22.628906 33.554688 L 20.664063 23.445313 Z M 22.570313 23.445313 L 24.835938 33.554688 L 27.039063 33.554688 L 29.347656 23.445313 L 27.1875 23.445313 L 26.5 27.765625 C 26.320313 28.90625 26.15625 30.121094 26.019531 31.320313 L 25.988281 31.320313 C 25.855469 30.136719 25.644531 28.890625 25.464844 27.8125 L 24.746094 23.445313 Z M 30.203125 23.445313 L 30.203125 33.554688 L 32.171875 33.554688 L 32.171875 23.445313 Z M 19.40625 25.304688 L 19.449219 25.304688 C 19.539063 25.980469 19.675781 26.984375 19.78125 27.597656 L 20.109375 29.714844 L 18.671875 29.714844 L 19.046875 27.613281 C 19.148438 27.03125 19.300781 25.980469 19.40625 25.304688 Z"/></svg>