<svg xmlns="http://www.w3.org/2000/svg" viewBox="0 0 50 50" width="50" height="50" fill="#666"><path d="M 10 0 C 4.488281 0 0 4.488281 0 10 L 0 40 C 0 45.511719 4.488281 50 10 50 L 40 50 C 45.511719 50 50 45.511719 50 40 L 50 10 C 50 4.488281 45.511719 0 40 0 Z M 10 2 L 40 2 C 44.433594 2 48 5.566406 48 10 L 48 40 C 48 44.433594 44.433594 48 40 48 L 10 48 C 5.566406 48 2 44.433594 2 40 L 2 10 C 2 5.566406 5.566406 2 10 2 Z M 20.5 8 C 19.722656 8 19.0625 8.660156 19.0625 9.4375 C 19.0625 12.257813 17.582031 14.199219 16.03125 15.53125 C 15.257813 16.195313 14.46875 16.679688 13.875 17 C 13.578125 17.160156 13.359375 17.296875 13.1875 17.375 C 13.015625 17.453125 12.804688 17.515625 12.9375 17.46875 C 12.925781 17.46875 12.917969 17.46875 12.90625 17.46875 C 12.359375 17.683594 12 18.226563 12 18.8125 L 12 22.59375 C 12 23.371094 12.691406 24 13.4375 24 L 16 24 L 16 33.65625 C 16 34.214844 16.058594 36.652344 17.15625 39.09375 C 18.253906 41.535156 20.621094 44 24.75 44 C 31.265625 44 34.304688 41.484375 34.5 41.3125 C 34.511719 41.3125 34.519531 41.3125 34.53125 41.3125 C 34.835938 41.042969 35 40.660156 35 40.25 L 35 35.75 C 35 35.230469 34.703125 34.75 34.25 34.5 C 33.804688 34.25 33.257813 34.246094 32.8125 34.53125 C 32.929688 34.457031 32.808594 34.53125 32.75 34.5625 C 32.691406 34.59375 32.582031 34.660156 32.46875 34.71875 C 32.242188 34.835938 31.9375 35 31.53125 35.15625 C 30.71875 35.46875 29.59375 35.75 28.4375 35.75 C 27.148438 35.75 26.699219 35.273438 26.375 34.71875 C 26.214844 34.441406 26.117188 34.148438 26.0625 33.90625 C 26.007813 33.664063 26 33.410156 26 33.5 L 26 24 L 31.5625 24 C 32.386719 24 33 23.339844 33 22.5625 L 33 17.4375 C 33 16.660156 32.378906 16 31.5625 16 L 26 16 L 26 9.4375 C 26 8.660156 25.339844 8 24.5625 8 Z M 21 10 L 24 10 L 24 17 C 24 17.550781 24.449219 18 25 18 L 31 18 L 31 22 L 25 22 C 24.449219 22 24 22.449219 24 23 L 24 33.5 C 24 33.714844 24.035156 33.949219 24.125 34.34375 C 24.214844 34.738281 24.359375 35.210938 24.65625 35.71875 C 25.246094 36.734375 26.519531 37.75 28.4375 37.75 C 29.9375 37.75 31.28125 37.375 32.25 37 C 32.5625 36.878906 32.769531 36.796875 33 36.6875 L 33 39.90625 C 32.757813 40.113281 30.488281 42 24.75 42 C 21.363281 42 19.863281 40.269531 18.96875 38.28125 C 18.074219 36.292969 18 34.054688 18 33.65625 L 18 23 C 18 22.449219 17.550781 22 17 22 L 14 22 L 14 19.1875 C 14.210938 19.09375 14.5 18.9375 14.84375 18.75 C 15.53125 18.378906 16.429688 17.84375 17.34375 17.0625 C 19.0625 15.585938 20.800781 13.214844 21 10 Z"/></svg>