<svg xmlns="http://www.w3.org/2000/svg" viewBox="0 0 50 50" width="50" height="50" fill="#666"><path d="M 25 2 C 23.203125 2 21.539063 2.242188 20.125 2.5625 C 17.128906 3.242188 15 5.929688 15 9 L 15 16.96875 C 10.292969 20.601563 9 26.910156 9 33 L 9 48 L 11 48 L 11 33 C 11 27.8125 11.96875 22.792969 15 19.59375 L 15 35.4375 L 15.34375 35.75 C 15.34375 35.75 19.019531 39 25 39 C 30.980469 39 34.65625 35.75 34.65625 35.75 L 35 35.4375 L 35 19.3125 C 38.023438 22.332031 39 27.234375 39 33 L 39 48 L 41 48 L 41 33 C 41 26.285156 39.714844 20.132813 35 16.71875 L 35 9 C 35 5.933594 32.871094 3.242188 29.875 2.5625 C 28.460938 2.242188 26.796875 2 25 2 Z M 25 4 C 26.613281 4 28.136719 4.234375 29.4375 4.53125 C 31.53125 5.007813 33 6.851563 33 9 L 33 34.46875 C 32.558594 34.835938 29.855469 37 25 37 C 20.144531 37 17.441406 34.835938 17 34.46875 L 17 9 C 17 6.851563 18.46875 5.007813 20.5625 4.53125 C 21.863281 4.234375 23.386719 4 25 4 Z M 29 9 L 29 32.25 C 28.246094 32.574219 24.78125 33.992188 20.40625 32.09375 L 19.59375 33.90625 C 25.308594 36.382813 30.4375 33.90625 30.4375 33.90625 L 31 33.625 L 31 9 Z"/></svg>