<svg xmlns="http://www.w3.org/2000/svg" viewBox="0 0 50 50" width="50" height="50" fill="#666"><path d="M 27.40625 9.59375 C 25.695313 9.59375 24.105469 9.914063 22.65625 10.6875 L 22.65625 10.71875 C 22.648438 10.722656 22.632813 10.714844 22.625 10.71875 C 21.265625 11.40625 19.773438 12.558594 18.90625 13.78125 C 18.898438 13.792969 18.882813 13.800781 18.875 13.8125 C 18.417969 14.414063 18.230469 14.625 18.15625 14.71875 C 16.183594 13.976563 13.859375 13.738281 11.875 14.4375 C 8.351563 15.574219 5.800781 18.945313 5.6875 22.78125 C 5.6875 22.792969 5.6875 22.800781 5.6875 22.8125 C 5.6875 23.023438 5.675781 23.203125 5.65625 23.375 C 5.597656 23.40625 5.625 23.390625 5.5625 23.40625 C 5.550781 23.417969 5.542969 23.425781 5.53125 23.4375 C 3.449219 23.984375 1.6875 25.316406 0.71875 27.21875 L 0.6875 27.21875 C 0.667969 27.246094 0.675781 27.285156 0.65625 27.3125 C 0.644531 27.339844 0.605469 27.347656 0.59375 27.375 C 0.351563 27.742188 0.140625 28.148438 0.0625 28.59375 C -0.0234375 29.101563 0 29.605469 0 30.40625 C 0 31.257813 -0.0234375 31.769531 0.0625 32.28125 C 0.144531 32.769531 0.347656 33.171875 0.59375 33.625 C 0.601563 33.644531 0.613281 33.667969 0.625 33.6875 C 1.582031 35.671875 3.46875 37.285156 5.53125 37.78125 C 5.539063 37.785156 5.554688 37.777344 5.5625 37.78125 C 5.824219 37.851563 5.964844 37.855469 6.21875 37.875 C 6.484375 37.894531 6.824219 37.921875 7.1875 37.9375 C 7.910156 37.964844 8.796875 37.957031 9.65625 37.96875 C 11.378906 37.992188 13 38 13 38 C 13.011719 38 13.019531 38 13.03125 38 C 13.867188 38.875 14.941406 39.523438 16.21875 39.875 C 16.257813 39.886719 16.300781 39.898438 16.34375 39.90625 C 16.925781 39.988281 17.875 39.988281 20.21875 40 C 22.5625 40.011719 26.1875 40 31.6875 40 L 46 40 C 46.152344 40 46.300781 39.96875 46.4375 39.90625 L 47.0625 39.59375 C 48.839844 38.703125 49.777344 36.84375 50 34.71875 C 50 34.699219 50 34.675781 50 34.65625 C 50.109375 33.054688 49.832031 31.636719 49.09375 30.46875 C 48.355469 29.300781 47.179688 28.445313 45.71875 27.9375 L 45.4375 27.84375 L 45.40625 27.3125 C 45.082031 23.671875 42.335938 21.046875 38.96875 20.46875 C 38.878906 19.4375 38.585938 18.480469 38.25 17.46875 C 36.617188 12.789063 32.339844 9.59375 27.40625 9.59375 Z M 27.40625 11.59375 C 31.472656 11.59375 34.976563 14.207031 36.34375 18.125 C 36.636719 19 36.84375 19.699219 36.9375 20.375 C 36.191406 20.429688 35.441406 20.578125 34.6875 20.84375 C 34.675781 20.847656 34.667969 20.839844 34.65625 20.84375 L 34.375 20.9375 L 33.71875 20.3125 C 33.710938 20.304688 33.695313 20.320313 33.6875 20.3125 C 31.695313 18.222656 29.839844 17.40625 27 17.40625 C 25.027344 17.40625 23.910156 17.667969 22.25 18.5 C 22.238281 18.5 22.230469 18.5 22.21875 18.5 C 20.402344 19.46875 18.929688 21.460938 18.0625 23.9375 C 18.058594 23.945313 18.066406 23.960938 18.0625 23.96875 C 17.847656 24.511719 17.738281 24.90625 17.71875 25.375 C 17.65625 25.40625 17.425781 25.503906 17 25.625 C 16.96875 25.632813 16.972656 25.617188 16.9375 25.625 L 16.9375 25.65625 C 14.4375 26.21875 12.363281 27.632813 11.5 29.6875 C 11.496094 29.699219 11.472656 29.707031 11.46875 29.71875 C 11.140625 30.496094 11 31.257813 11 32.40625 C 11 33.738281 11.25 34.941406 11.71875 36 C 11.09375 35.996094 10.730469 35.984375 9.6875 35.96875 C 8.835938 35.957031 7.941406 35.933594 7.25 35.90625 C 6.902344 35.890625 6.597656 35.890625 6.375 35.875 C 6.152344 35.859375 5.953125 35.8125 6.0625 35.84375 C 6.050781 35.832031 6.042969 35.824219 6.03125 35.8125 C 4.722656 35.503906 3.054688 34.160156 2.40625 32.78125 C 2.398438 32.761719 2.386719 32.738281 2.375 32.71875 C 2.140625 32.296875 2.101563 32.175781 2.0625 31.9375 C 2.023438 31.699219 2 31.257813 2 30.40625 C 2 29.605469 2.023438 29.15625 2.0625 28.9375 C 2.101563 28.71875 2.101563 28.667969 2.3125 28.375 C 2.347656 28.324219 2.378906 28.273438 2.40625 28.21875 C 3.058594 26.832031 4.394531 25.8125 6.03125 25.375 C 6.042969 25.371094 6.050781 25.378906 6.0625 25.375 C 6.632813 25.230469 6.980469 25.050781 7.3125 24.71875 C 7.476563 24.550781 7.574219 24.328125 7.59375 24.09375 C 7.601563 24.085938 7.621094 24.035156 7.625 24 C 7.632813 23.933594 7.640625 23.835938 7.65625 23.71875 C 7.683594 23.492188 7.71875 23.183594 7.71875 22.84375 C 7.71875 22.832031 7.71875 22.824219 7.71875 22.8125 C 7.820313 19.863281 9.832031 17.234375 12.5 16.375 C 12.511719 16.363281 12.519531 16.355469 12.53125 16.34375 C 13.882813 15.867188 15.851563 16 17.4375 16.59375 C 17.46875 16.605469 17.5 16.613281 17.53125 16.625 C 17.667969 16.695313 17.804688 16.796875 18.09375 16.84375 C 18.429688 16.898438 18.898438 16.78125 19.15625 16.59375 C 19.671875 16.21875 19.898438 15.800781 20.5 15 C 20.511719 14.988281 20.519531 14.980469 20.53125 14.96875 C 21.058594 14.210938 22.542969 13.007813 23.5625 12.5 C 23.574219 12.5 23.582031 12.5 23.59375 12.5 C 24.734375 11.886719 25.933594 11.59375 27.40625 11.59375 Z M 27 19.40625 C 29.550781 19.40625 30.480469 19.792969 32.28125 21.6875 C 32.28125 21.699219 32.28125 21.707031 32.28125 21.71875 L 33.375 22.8125 C 33.644531 23.085938 34.042969 23.179688 34.40625 23.0625 L 35.3125 22.75 C 35.324219 22.75 35.332031 22.75 35.34375 22.75 C 39.296875 21.34375 43.042969 23.617188 43.40625 27.46875 L 43.40625 27.5 L 43.5 28.6875 C 43.53125 29.089844 43.804688 29.433594 44.1875 29.5625 L 45.0625 29.84375 L 45.09375 29.84375 C 46.214844 30.238281 46.949219 30.804688 47.40625 31.53125 C 47.863281 32.257813 48.082031 33.222656 48 34.5 C 48 34.511719 48 34.519531 48 34.53125 C 47.816406 36.1875 47.171875 37.304688 46.15625 37.8125 L 45.75 38 L 31.6875 38 C 26.1875 38 22.582031 37.980469 20.25 37.96875 C 17.957031 37.957031 16.867188 37.921875 16.71875 37.90625 C 14.253906 37.199219 13 35.460938 13 32.40625 C 13 31.367188 13.050781 31.113281 13.3125 30.5 C 13.324219 30.488281 13.332031 30.480469 13.34375 30.46875 C 13.878906 29.164063 15.355469 28.039063 17.40625 27.59375 C 17.425781 27.585938 17.449219 27.574219 17.46875 27.5625 C 18.042969 27.40625 18.492188 27.304688 18.9375 27 C 19.382813 26.695313 19.71875 26.023438 19.71875 25.5 C 19.71875 25.636719 19.78125 25.078125 19.9375 24.6875 C 19.9375 24.667969 19.9375 24.644531 19.9375 24.625 C 20.664063 22.535156 21.988281 20.953125 23.15625 20.3125 C 23.167969 20.304688 23.175781 20.285156 23.1875 20.28125 C 24.691406 19.53125 25.191406 19.40625 27 19.40625 Z"/></svg>