<svg xmlns="http://www.w3.org/2000/svg" viewBox="0 0 50 50" width="50" height="50" fill="#666"><path d="M 8 4 C 5.789063 4 4 5.789063 4 8 L 4 17 L 6 17 L 6 8 C 6 6.808594 6.808594 6 8 6 L 42 6 C 43.191406 6 44 6.808594 44 8 L 44 23 L 46 23 L 46 8 C 46 5.789063 44.210938 4 42 4 Z M 8.8125 8 C 8.335938 8.089844 7.992188 8.511719 8 9 L 8 17 L 10 17 L 10 10 L 40 10 L 40 23 L 42 23 L 42 9 C 42 8.449219 41.550781 8 41 8 L 9 8 C 8.96875 8 8.9375 8 8.90625 8 C 8.875 8 8.84375 8 8.8125 8 Z M 2 18 C 1.476563 18 0.941406 18.183594 0.5625 18.5625 C 0.183594 18.941406 0 19.476563 0 20 L 0 44 C 0 44.523438 0.183594 45.058594 0.5625 45.4375 C 0.941406 45.816406 1.476563 46 2 46 L 21 46 C 21.523438 46 22.058594 45.816406 22.4375 45.4375 C 22.816406 45.058594 23 44.523438 23 44 L 23 20 C 23 19.476563 22.816406 18.941406 22.4375 18.5625 C 22.058594 18.183594 21.523438 18 21 18 Z M 2 20 L 21 20 L 21 44 L 2 44 Z M 3.8125 21 C 3.335938 21.089844 2.992188 21.511719 3 22 L 3 40 C 3 40.550781 3.449219 41 4 41 L 19 41 C 19.550781 41 20 40.550781 20 40 L 20 22 C 20 21.449219 19.550781 21 19 21 L 4 21 C 3.96875 21 3.9375 21 3.90625 21 C 3.875 21 3.84375 21 3.8125 21 Z M 5 23 L 18 23 L 18 39 L 5 39 Z M 37 24 C 36.476563 24 35.941406 24.183594 35.5625 24.5625 C 35.183594 24.941406 35 25.476563 35 26 L 35 44 C 35 44.523438 35.183594 45.058594 35.5625 45.4375 C 35.941406 45.816406 36.476563 46 37 46 L 48 46 C 48.523438 46 49.058594 45.816406 49.4375 45.4375 C 49.816406 45.058594 50 44.523438 50 44 L 50 26 C 50 25.476563 49.816406 24.941406 49.4375 24.5625 C 49.058594 24.183594 48.523438 24 48 24 Z M 37 26 L 48 26 L 48 44 L 37 44 Z M 38.8125 27 C 38.335938 27.089844 37.992188 27.511719 38 28 L 38 40 C 38 40.550781 38.449219 41 39 41 L 46 41 C 46.550781 41 47 40.550781 47 40 L 47 28 C 47 27.449219 46.550781 27 46 27 L 39 27 C 38.96875 27 38.9375 27 38.90625 27 C 38.875 27 38.84375 27 38.8125 27 Z M 40 29 L 45 29 L 45 39 L 40 39 Z M 24 32 L 24 34 L 34 34 L 34 32 Z M 29 35 L 29 40 L 34 40 L 34 38 L 31 38 L 31 37 L 34 37 L 34 35 Z M 24 41 L 24 43 L 34 43 L 34 41 Z M 11.5 41.5 C 10.949219 41.5 10.5 41.949219 10.5 42.5 C 10.5 43.050781 10.949219 43.5 11.5 43.5 C 12.050781 43.5 12.5 43.050781 12.5 42.5 C 12.5 41.949219 12.050781 41.5 11.5 41.5 Z M 42.5 41.5 C 41.949219 41.5 41.5 41.949219 41.5 42.5 C 41.5 43.050781 41.949219 43.5 42.5 43.5 C 43.050781 43.5 43.5 43.050781 43.5 42.5 C 43.5 41.949219 43.050781 41.5 42.5 41.5 Z"/></svg>