<svg xmlns="http://www.w3.org/2000/svg" viewBox="0 0 50 50" width="50" height="50" fill="#666"><path d="M 3 8 C 1.355469 8 0 9.355469 0 11 L 0 35 C 0 36.644531 1.355469 38 3 38 L 7.09375 38 C 7.570313 40.835938 10.035156 43 13 43 C 15.964844 43 18.429688 40.835938 18.90625 38 L 28.1875 38 C 28.914063 38 29.558594 37.683594 30.0625 37.21875 C 30.578125 37.679688 31.238281 38 32 38 L 33.09375 38 C 33.570313 40.835938 36.035156 43 39 43 C 42.300781 43 45 40.300781 45 37 C 45 33.699219 42.300781 31 39 31 C 36.035156 31 33.570313 33.164063 33.09375 36 L 32 36 C 31.832031 36 31.5625 35.875 31.34375 35.65625 C 31.125 35.4375 31 35.167969 31 35 L 31 16 C 31 15.832031 31.125 15.5625 31.34375 15.34375 C 31.5625 15.125 31.832031 15 32 15 L 40 15 C 40.824219 15 41.972656 15.925781 42.6875 16.8125 L 42.8125 17 L 38 17 C 36.398438 17 35 18.292969 35 20 L 35 24 C 35 24.832031 35.375 25.5625 35.90625 26.09375 C 36.4375 26.625 37.167969 27 38 27 L 48 27 L 48 35 C 48 35.167969 47.875 35.4375 47.65625 35.65625 C 47.4375 35.875 47.167969 36 47 36 L 45 36 L 45 38 L 47 38 C 47.832031 38 48.5625 37.625 49.09375 37.09375 C 49.625 36.5625 50 35.832031 50 35 L 50 25.40625 C 50 24.28125 49.570313 23.25 49.1875 22.46875 C 48.804688 21.6875 48.40625 21.125 48.40625 21.125 L 48.40625 21.09375 L 44.3125 15.59375 L 44.28125 15.59375 L 44.28125 15.5625 C 43.394531 14.453125 41.972656 13 40 13 L 32 13 C 31.640625 13 31.3125 13.066406 31 13.1875 L 31 11 C 31 9.355469 29.644531 8 28 8 Z M 3 10 L 28 10 C 28.554688 10 29 10.445313 29 11 L 29 35.1875 C 29 35.652344 28.652344 36 28.1875 36 L 18.90625 36 C 18.429688 33.164063 15.964844 31 13 31 C 10.035156 31 7.570313 33.164063 7.09375 36 L 3 36 C 2.445313 36 2 35.554688 2 35 L 2 11 C 2 10.445313 2.445313 10 3 10 Z M 38 19 L 44.3125 19 L 46.78125 22.28125 L 46.8125 22.3125 C 46.832031 22.339844 47.101563 22.722656 47.40625 23.34375 C 47.660156 23.859375 47.792969 24.472656 47.875 25 L 38 25 C 37.832031 25 37.5625 24.875 37.34375 24.65625 C 37.125 24.4375 37 24.167969 37 24 L 37 20 C 37 19.507813 37.601563 19 38 19 Z M 5 20 L 5 25.8125 L 6.3125 25.8125 L 6.3125 23.40625 L 8.6875 23.40625 L 8.6875 22.40625 L 6.3125 22.40625 L 6.3125 21.09375 L 9 21.09375 L 9 20 Z M 10 20 L 10 25.59375 L 11.09375 25.59375 L 11.09375 23.40625 L 12.40625 23.40625 C 13.304688 23.40625 13.304688 24.101563 13.40625 25 C 13.40625 25.199219 13.398438 25.394531 13.5 25.59375 L 14.8125 25.59375 C 14.613281 25.394531 14.59375 24.695313 14.59375 24.59375 C 14.59375 23.195313 14.011719 23 13.8125 23 C 14.113281 22.898438 14.6875 22.492188 14.6875 21.59375 C 14.6875 20.292969 13.5 20 13 20 Z M 16 20 L 16 25.8125 L 20.3125 25.8125 L 20.3125 24.6875 L 17.1875 24.6875 L 17.1875 23.3125 L 20 23.3125 L 20 22.3125 L 17.1875 22.3125 L 17.1875 21.09375 L 20.1875 21.09375 L 20.1875 20 Z M 21.6875 20 L 21.6875 25.8125 L 26 25.8125 L 26 24.6875 L 22.90625 24.6875 L 22.90625 23.3125 L 25.6875 23.3125 L 25.6875 22.3125 L 22.90625 22.3125 L 22.90625 21.09375 L 25.90625 21.09375 L 25.90625 20 Z M 11.1875 21 L 12.59375 21 C 12.894531 21 13.5 21.113281 13.5 21.8125 C 13.5 22.613281 12.894531 22.59375 12.59375 22.59375 L 11.1875 22.59375 Z M 13 33 C 15.222656 33 17 34.777344 17 37 C 17 39.222656 15.222656 41 13 41 C 10.777344 41 9 39.222656 9 37 C 9 34.777344 10.777344 33 13 33 Z M 39 33 C 41.222656 33 43 34.777344 43 37 C 43 39.222656 41.222656 41 39 41 C 36.777344 41 35 39.222656 35 37 C 35 34.777344 36.777344 33 39 33 Z"/></svg>