<svg xmlns="http://www.w3.org/2000/svg" viewBox="0 0 50 50" width="50" height="50" fill="#666"><path d="M 5.8125 0 C 5.335938 0.0898438 4.992188 0.511719 5 1 L 5 45 C 5 45.550781 5.449219 46 6 46 L 9 46 L 9 49 C 9 49.550781 9.449219 50 10 50 L 44 50 C 44.550781 50 45 49.550781 45 49 L 45 5 C 45 4.449219 44.550781 4 44 4 L 41 4 L 41 1 C 41 0.449219 40.550781 0 40 0 L 6 0 C 5.96875 0 5.9375 0 5.90625 0 C 5.875 0 5.84375 0 5.8125 0 Z M 7 2 L 39 2 L 39 44 L 7 44 Z M 41 6 L 43 6 L 43 48 L 11 48 L 11 46 L 40 46 C 40.550781 46 41 45.550781 41 45 Z M 21.90625 10.5 C 21.707031 10.5 21.5 10.707031 21.5 10.90625 L 21.5 28.1875 C 21.5 28.386719 21.707031 28.59375 21.90625 28.59375 L 24.40625 28.59375 C 24.605469 28.59375 24.8125 28.386719 24.8125 28.1875 L 24.8125 10.90625 C 24.8125 10.707031 24.605469 10.5 24.40625 10.5 Z M 21.6875 31.59375 C 21.488281 31.59375 21.3125 31.800781 21.3125 32 L 21.3125 35 C 21.3125 35.199219 21.488281 35.40625 21.6875 35.40625 L 24.40625 35.40625 C 24.605469 35.40625 24.8125 35.199219 24.8125 35 L 24.8125 32.09375 C 24.8125 31.894531 24.605469 31.6875 24.40625 31.6875 L 24.40625 31.59375 Z"/></svg>