<svg xmlns="http://www.w3.org/2000/svg" viewBox="0 0 50 50" width="50" height="50" fill="#666"><path d="M 25 1.96875 C 24.5 1.96875 23.996094 2.097656 23.550781 2.359375 C 23.542969 2.359375 23.539063 2.363281 23.53125 2.367188 C 23.53125 2.367188 18.269531 5.570313 13 8.847656 C 10.367188 10.488281 7.734375 12.144531 5.742188 13.4375 C 4.75 14.085938 3.917969 14.640625 3.320313 15.0625 C 3.019531 15.277344 2.777344 15.453125 2.585938 15.609375 C 2.492188 15.6875 2.410156 15.757813 2.320313 15.851563 C 2.273438 15.898438 2.226563 15.949219 2.164063 16.039063 C 2.105469 16.128906 1.988281 16.242188 1.96875 16.601563 C 1.933594 17.226563 2.117188 17.257813 2.210938 17.40625 C 2.300781 17.554688 2.40625 17.6875 2.527344 17.84375 C 2.773438 18.148438 3.09375 18.511719 3.476563 18.925781 C 3.613281 19.070313 3.816406 19.273438 3.96875 19.433594 C 3.96875 22.75 3.976563 29.679688 3.980469 31.28125 C 3.375 31.640625 3 32.292969 3 33 C 3 33.230469 3.042969 33.460938 3.121094 33.679688 C 2.445313 34.226563 2 35.042969 2 35.96875 C 2 37.148438 2.613281 38.152344 3.144531 39.035156 C 3.675781 39.921875 4.207031 40.609375 4.207031 40.609375 C 4.394531 40.855469 4.6875 41 4.996094 41 C 5.304688 41 5.597656 40.859375 5.789063 40.617188 C 5.789063 40.617188 6.320313 39.9375 6.855469 39.058594 C 7.390625 38.175781 8 37.160156 8 35.96875 C 8 35.042969 7.554688 34.226563 6.878906 33.679688 C 6.957031 33.460938 7 33.230469 7 33 C 7 32.304688 6.636719 31.660156 6.046875 31.296875 C 6.046875 30 6.039063 25.398438 6.035156 21.566406 C 6.113281 21.644531 6.175781 21.714844 6.257813 21.792969 C 8.113281 23.652344 9.691406 25.167969 9.96875 25.4375 C 8.964844 25.96875 8 27.230469 8 29.222656 C 8 31.273438 9.269531 33.222656 11.253906 33.785156 C 12.53125 37.023438 14.15625 40.421875 16.308594 43.109375 C 18.519531 45.871094 21.363281 47.925781 24.832031 47.988281 C 24.886719 47.996094 24.9375 48 24.992188 48 C 24.992188 48 24.996094 48 24.996094 48 C 25 48 25 48 25.003906 48 C 25.007813 48 25.011719 48 25.015625 48 C 25.054688 48 25.097656 47.996094 25.140625 47.988281 C 28.621094 47.9375 31.472656 45.878906 33.691406 43.109375 C 35.84375 40.421875 37.46875 37.023438 38.746094 33.785156 C 40.730469 33.222656 42 31.273438 42 29.222656 C 42 27.230469 41.035156 25.96875 40.03125 25.4375 C 40.308594 25.167969 41.886719 23.652344 43.746094 21.792969 C 44.75 20.785156 45.757813 19.753906 46.523438 18.925781 C 46.90625 18.511719 47.226563 18.148438 47.472656 17.84375 C 47.59375 17.6875 47.699219 17.554688 47.792969 17.40625 C 47.882813 17.257813 48.066406 17.226563 48.03125 16.601563 C 48.011719 16.238281 47.894531 16.125 47.832031 16.035156 C 47.773438 15.949219 47.726563 15.898438 47.679688 15.851563 C 47.589844 15.757813 47.507813 15.6875 47.410156 15.609375 C 47.222656 15.453125 46.980469 15.277344 46.679688 15.0625 C 46.082031 14.640625 45.25 14.085938 44.253906 13.4375 C 42.265625 12.144531 39.632813 10.488281 37 8.847656 C 31.730469 5.570313 26.46875 2.367188 26.46875 2.367188 C 26.460938 2.363281 26.457031 2.359375 26.449219 2.359375 C 26.003906 2.097656 25.5 1.96875 25 1.96875 Z M 25 4.03125 C 25.140625 4.03125 25.28125 4.070313 25.410156 4.144531 C 25.429688 4.15625 30.660156 7.335938 35.90625 10.601563 C 38.535156 12.238281 41.164063 13.894531 43.128906 15.171875 C 44.113281 15.8125 44.929688 16.359375 45.488281 16.75 C 45.542969 16.789063 45.558594 16.804688 45.605469 16.839844 C 45.429688 17.046875 45.261719 17.246094 45.003906 17.523438 C 44.273438 18.316406 43.28125 19.332031 42.28125 20.332031 C 40.660156 21.957031 39.585938 22.988281 39.03125 23.519531 L 39.03125 19 C 39.03125 18.640625 38.847656 18.308594 38.539063 18.121094 C 38.539063 18.121094 33.339844 14.96875 25 14.96875 C 16.660156 14.96875 11.460938 18.121094 11.460938 18.121094 C 11.152344 18.308594 10.96875 18.640625 10.96875 19 L 10.96875 23.519531 C 10.414063 22.988281 9.339844 21.957031 7.71875 20.332031 C 7.039063 19.65625 6.460938 19.046875 5.867188 18.425781 C 5.796875 18.3125 5.699219 18.214844 5.589844 18.140625 C 5.40625 17.945313 5.152344 17.699219 4.992188 17.527344 C 4.738281 17.246094 4.570313 17.042969 4.390625 16.839844 C 4.441406 16.800781 4.457031 16.789063 4.511719 16.75 C 5.070313 16.355469 5.886719 15.808594 6.871094 15.171875 C 8.835938 13.890625 11.464844 12.238281 14.09375 10.601563 C 19.339844 7.335938 24.570313 4.15625 24.589844 4.144531 C 24.71875 4.070313 24.859375 4.03125 25 4.03125 Z M 25 17.03125 C 32.242188 17.03125 36.332031 19.300781 36.96875 19.667969 L 36.96875 23.640625 C 35.394531 23.117188 31.539063 21.96875 25 21.96875 C 18.460938 21.96875 14.605469 23.117188 13.03125 23.640625 L 13.03125 19.667969 C 13.667969 19.300781 17.757813 17.03125 25 17.03125 Z M 25 24.03125 C 31.390625 24.03125 35.636719 25.285156 37 25.75 L 37 27.113281 L 38.109375 26.996094 C 38.109375 26.996094 38.601563 26.957031 39.0625 27.183594 C 39.527344 27.40625 40 27.730469 40 29.222656 C 40 30.625 39.09375 31.882813 37.898438 32.003906 L 37.285156 32.066406 L 37.066406 32.640625 C 35.808594 35.898438 34.160156 39.320313 32.128906 41.859375 C 30.097656 44.394531 27.769531 46 25.003906 46 C 25 46 25 46 24.996094 46 C 22.230469 46 19.902344 44.394531 17.871094 41.859375 C 15.839844 39.320313 14.191406 35.898438 12.933594 32.640625 L 12.714844 32.066406 L 12.101563 32.003906 C 10.90625 31.882813 10 30.625 10 29.222656 C 10 27.730469 10.472656 27.40625 10.9375 27.183594 C 11.398438 26.957031 11.890625 26.996094 11.890625 26.996094 L 13 27.113281 L 13 25.75 C 14.363281 25.285156 18.609375 24.03125 25 24.03125 Z M 5 35 C 5.574219 35 6 35.433594 6 35.96875 C 6 36.253906 5.609375 37.25 5.144531 38.015625 C 5.074219 38.132813 5.074219 38.117188 5.003906 38.222656 C 4.933594 38.109375 4.929688 38.125 4.855469 38.003906 C 4.386719 37.230469 4 36.214844 4 35.96875 C 4 35.433594 4.425781 35 5 35 Z"/></svg>