<svg xmlns="http://www.w3.org/2000/svg" viewBox="0 0 50 50" width="50" height="50" fill="#666"><path d="M 6 0 C 4.914063 0 3.929688 0.421875 3.46875 1.21875 C 3.007813 2.015625 3 2.875 3 3.8125 C 3 6.449219 4.664063 10.703125 7.71875 14.375 C 10.558594 17.789063 14.789063 20.601563 20 20.15625 C 20.015625 20.460938 20.042969 20.761719 20.09375 21.0625 C 19.671875 21.023438 19.238281 21.027344 18.8125 21.0625 C 17.753906 21.148438 16.695313 21.5 15.71875 22.21875 C 14.011719 23.472656 12.648438 25.699219 11.75 29.34375 C 11.601563 29.5625 11.542969 29.832031 11.59375 30.09375 C 11.527344 30.394531 11.464844 30.683594 11.40625 31 C 11.03125 32.820313 10.910156 34.96875 11.09375 37.125 C 11.082031 37.25 11.089844 37.378906 11.125 37.5 C 11.125 37.511719 11.125 37.519531 11.125 37.53125 C 11.125 37.5625 11.125 37.59375 11.125 37.625 C 11.269531 38.96875 11.546875 40.304688 11.9375 41.5625 C 12.46875 43.277344 13.25 44.847656 14.375 46.03125 C 14.871094 46.554688 15.449219 47.011719 16.09375 47.34375 C 17.238281 49.03125 19 50 19 50 L 19 48 C 23.519531 47.894531 29.0625 43.832031 31.0625 37.40625 C 31.460938 36.15625 31.6875 35.035156 31.8125 34 C 32.03125 33.699219 32.066406 33.304688 31.90625 32.96875 C 31.96875 31.410156 31.722656 30.105469 31.28125 29 C 33.433594 29.0625 35.398438 28.523438 36.59375 27.03125 C 36.59375 27.019531 36.59375 27.011719 36.59375 27 C 38 25.191406 38.328125 22.523438 37.4375 19.8125 C 38.574219 19.972656 39.738281 20.007813 40.875 19.90625 C 43.269531 19.691406 45.609375 18.960938 46.59375 17.0625 C 47.464844 15.316406 47.054688 13.144531 45.96875 11.125 C 44.898438 9.132813 43.09375 7.222656 40.75 5.96875 C 41.089844 5.921875 41.445313 5.882813 41.78125 5.875 C 42.914063 5.851563 43.84375 6 43.84375 6 C 44.394531 6.085938 44.914063 5.707031 45 5.15625 C 45.085938 4.605469 44.707031 4.085938 44.15625 4 C 44.15625 4 43.066406 3.847656 41.75 3.875 C 40.433594 3.902344 38.832031 4.035156 37.59375 5 C 37.582031 5.011719 37.574219 5.019531 37.5625 5.03125 C 36.890625 4.984375 36.226563 5.015625 35.59375 5.15625 L 35.125 3.40625 C 35.785156 2.867188 36.796875 2.417969 37.8125 2.21875 C 38.996094 1.988281 40 2 40 2 C 40.359375 2.003906 40.695313 1.816406 40.878906 1.503906 C 41.058594 1.191406 41.058594 0.808594 40.878906 0.496094 C 40.695313 0.183594 40.359375 -0.00390625 40 0 C 40 0 38.828125 0.0117188 37.4375 0.28125 C 36.046875 0.550781 34.371094 1.027344 33.25 2.34375 C 33.03125 2.589844 32.949219 2.929688 33.03125 3.25 L 33.71875 5.875 C 32.589844 6.542969 31.65625 7.570313 31 8.84375 C 30.503906 9.804688 30.210938 10.835938 30.125 11.875 C 28.578125 7.984375 26.148438 5.082031 23.5625 3.125 C 20.804688 1.039063 17.910156 0 15.59375 0 C 14.214844 0 13.273438 0.398438 12.75 0.96875 C 12.695313 1.027344 12.667969 1.09375 12.625 1.15625 C 10.132813 0.359375 7.792969 0 6 0 Z M 6 2 C 8.375 2 12.421875 2.84375 16.09375 4.75 C 19.507813 6.523438 22.574219 9.171875 24.03125 12.84375 C 23.101563 13.324219 22.273438 13.992188 21.59375 14.875 C 21.59375 14.886719 21.59375 14.894531 21.59375 14.90625 C 20.878906 15.859375 20.402344 16.960938 20.15625 18.09375 C 15.535156 18.648438 11.894531 16.273438 9.25 13.09375 C 6.480469 9.765625 5 5.472656 5 3.8125 C 5 2.949219 5.097656 2.371094 5.1875 2.21875 C 5.277344 2.066406 5.285156 2 6 2 Z M 15.59375 2 C 17.277344 2 19.910156 2.855469 22.375 4.71875 C 24.554688 6.367188 26.625 8.796875 28.03125 12.03125 C 27.304688 11.984375 26.59375 12.011719 25.90625 12.15625 C 24.226563 7.882813 20.710938 4.898438 17 2.96875 C 16.328125 2.617188 15.648438 2.316406 14.96875 2.03125 C 15.136719 2.003906 15.339844 2 15.59375 2 Z M 37.09375 7 C 37.261719 7 37.421875 7.011719 37.59375 7.03125 C 37.917969 7.066406 38.253906 7.152344 38.59375 7.25 C 38.351563 7.394531 38.109375 7.566406 37.90625 7.78125 C 37.898438 7.789063 37.914063 7.804688 37.90625 7.8125 C 37.066406 8.667969 36.761719 9.855469 36.90625 10.9375 C 37.050781 12.027344 37.570313 13.070313 38.40625 13.84375 C 39.257813 14.632813 40.40625 15.070313 41.53125 15.21875 C 42.65625 15.367188 43.863281 15.261719 44.71875 14.40625 L 44.71875 14.375 L 44.75 14.375 C 44.828125 14.289063 44.902344 14.214844 44.96875 14.125 C 45.113281 14.933594 45.042969 15.644531 44.8125 16.125 C 44.398438 16.925781 42.773438 17.722656 40.71875 17.90625 C 38.664063 18.089844 36.292969 17.726563 34.84375 17 C 31.929688 15.542969 31.386719 12.449219 32.78125 9.75 C 33.476563 8.40625 34.472656 7.585938 35.65625 7.21875 C 36.097656 7.082031 36.589844 7 37.09375 7 Z M 40.21875 8.78125 C 40.339844 8.773438 40.453125 8.765625 40.59375 8.78125 C 41.152344 8.851563 41.808594 9.160156 42.3125 9.625 C 43.023438 10.296875 43.414063 11.0625 43.53125 11.6875 C 43.644531 12.296875 43.492188 12.71875 43.25 13 C 43.089844 13.144531 42.515625 13.316406 41.78125 13.21875 C 41.03125 13.117188 40.226563 12.789063 39.78125 12.375 C 39.316406 11.945313 38.988281 11.265625 38.90625 10.65625 C 38.824219 10.046875 38.96875 9.5625 39.3125 9.21875 L 39.3125 9.1875 L 39.34375 9.1875 C 39.574219 8.933594 39.859375 8.808594 40.21875 8.78125 Z M 27.4375 13.9375 C 28.382813 13.933594 29.40625 14.191406 30.4375 14.6875 C 30.960938 16.371094 32.101563 17.863281 33.9375 18.78125 C 34.285156 18.953125 34.648438 19.113281 35.03125 19.25 C 36.316406 21.871094 36.050781 24.433594 35 25.78125 C 34.175781 26.785156 32.160156 27.253906 29.75 26.84375 C 29.730469 26.832031 29.707031 26.820313 29.6875 26.8125 C 29.65625 26.808594 29.625 26.816406 29.59375 26.8125 C 28.828125 26.75 25.925781 25.695313 25.21875 25.21875 C 25.210938 25.210938 25.195313 25.195313 25.1875 25.1875 C 24.339844 24.5 22.84375 22.757813 22.5 22 C 22.453125 21.871094 22.378906 21.753906 22.28125 21.65625 C 22.003906 20.882813 21.902344 20.074219 21.96875 19.28125 C 22.003906 19.160156 22.011719 19.03125 22 18.90625 C 22.148438 17.917969 22.558594 16.972656 23.1875 16.125 C 23.769531 15.367188 24.484375 14.804688 25.28125 14.4375 C 25.546875 14.445313 25.808594 14.34375 26 14.15625 C 26.464844 14.019531 26.929688 13.941406 27.4375 13.9375 Z M 19.03125 23.03125 C 19.632813 22.988281 20.265625 23.109375 20.90625 23.28125 C 20.964844 23.328125 21.027344 23.371094 21.09375 23.40625 C 21.828125 24.671875 22.96875 25.980469 23.96875 26.78125 C 23.988281 26.792969 24.011719 26.804688 24.03125 26.8125 C 25.222656 27.648438 27.25 28.402344 28.84375 28.65625 C 29.46875 29.574219 29.902344 30.679688 29.9375 32.21875 C 21.210938 30.683594 17.671875 26.074219 16.6875 24 C 16.761719 23.9375 16.832031 23.867188 16.90625 23.8125 C 17.582031 23.316406 18.300781 23.085938 19.03125 23.03125 Z M 15.3125 25.6875 C 17.023438 28.542969 21.28125 32.765625 29.78125 34.21875 C 29.652344 34.984375 29.460938 35.820313 29.15625 36.78125 C 29.15625 36.792969 29.15625 36.800781 29.15625 36.8125 C 29.011719 37.277344 28.84375 37.722656 28.65625 38.15625 C 26.972656 37.996094 23.90625 37.183594 20.96875 35.75 C 18.019531 34.308594 15.1875 32.261719 13.71875 29.84375 C 14.167969 28.027344 14.710938 26.691406 15.3125 25.6875 Z M 13.1875 32.5 C 15.011719 34.648438 17.546875 36.316406 20.09375 37.5625 C 22.859375 38.914063 25.601563 39.71875 27.65625 40.03125 C 27.101563 40.90625 26.464844 41.675781 25.78125 42.375 C 22.234375 42.1875 19.328125 41.316406 17.15625 40.21875 C 15.058594 39.160156 13.699219 37.867188 13.125 37 C 12.992188 35.433594 13.007813 33.878906 13.1875 32.5 Z M 13.6875 40.4375 C 14.417969 40.988281 15.269531 41.503906 16.25 42 C 18.226563 43 20.707031 43.839844 23.625 44.21875 C 21.9375 45.367188 20.183594 46 18.8125 46 C 17.589844 46 16.640625 45.527344 15.8125 44.65625 C 14.984375 43.785156 14.3125 42.480469 13.84375 40.96875 C 13.789063 40.792969 13.734375 40.617188 13.6875 40.4375 Z"/></svg>