<svg xmlns="http://www.w3.org/2000/svg" viewBox="0 0 50 50" width="50" height="50" fill="#666"><path style="line-height:normal;text-indent:0;text-align:start;text-decoration-line:none;text-decoration-style:solid;text-decoration-color:#000;text-transform:none;block-progression:tb;isolation:auto;mix-blend-mode:normal" d="M 9 4 C 6.2504839 4 4 6.2504839 4 9 L 4 41 C 4 43.749516 6.2504839 46 9 46 L 41 46 C 43.749516 46 46 43.749516 46 41 L 46 9 C 46 6.2504839 43.749516 4 41 4 L 9 4 z M 9 6 L 41 6 C 42.668484 6 44 7.3315161 44 9 L 44 41 C 44 42.668484 42.668484 44 41 44 L 9 44 C 7.3315161 44 6 42.668484 6 41 L 6 9 C 6 7.3315161 7.3315161 6 9 6 z M 31.714844 12 C 24.640844 12 19.870844 15.102 18.464844 21 L 14 21 L 14 23 L 18.113281 23 L 18.070312 23.271484 C 18.017313 23.829484 18 24.406 18 25 C 18 25.611 18.018844 26.205672 18.089844 26.763672 L 18.123047 27 L 14 27 L 14 29 L 18.453125 29 C 19.859125 34.913 24.637844 38 31.714844 38 C 32.553844 38 33.482 37.929328 34 37.861328 L 34 35.677734 C 33.429 35.746734 32.697844 35.800781 31.714844 35.800781 C 26.227844 35.800781 22.4035 33.481 21.0625 29 L 31 29 L 31 27 L 20.634766 27 L 20.589844 26.765625 C 20.535844 26.206625 20.501953 25.613953 20.501953 25.001953 C 20.501953 24.390953 20.536844 23.830484 20.589844 23.271484 L 20.644531 23 L 31 23 L 31 21 L 21.09375 21 C 22.41475 16.521 26.214844 14.220703 31.714844 14.220703 C 32.679844 14.220703 33.393687 14.237219 33.929688 14.324219 L 33.929688 12.140625 C 33.429688 12.069625 32.518844 12 31.714844 12 z"/></svg>