<svg xmlns="http://www.w3.org/2000/svg" viewBox="0 0 50 50" width="50" height="50" fill="#666"><path d="M 25 2 C 12.308594 2 2 12.308594 2 25 C 2 37.691406 12.308594 48 25 48 C 37.691406 48 48 37.691406 48 25 C 48 12.308594 37.691406 2 25 2 Z M 25 4 C 36.609375 4 46 13.390625 46 25 C 46 36.609375 36.609375 46 25 46 C 21.257813 46 17.757813 45.023438 14.71875 43.3125 L 25.4375 32.5625 C 27.015625 33.40625 28.636719 33.996094 30.25 34 C 32.117188 34.003906 33.9375 33.28125 35.4375 31.78125 C 36.808594 30.410156 38.148438 28.257813 39.03125 25.90625 C 39.914063 23.554688 40.398438 21.011719 39.65625 18.875 C 39.542969 18.546875 39.269531 18.304688 38.933594 18.226563 C 38.59375 18.152344 38.242188 18.253906 38 18.5 L 32.71875 23.78125 C 32.371094 24.128906 31.847656 24.128906 31.5 23.78125 L 26.21875 18.5 C 25.875 18.15625 25.875 17.625 26.21875 17.28125 L 31.5 12 C 31.746094 11.757813 31.847656 11.40625 31.773438 11.066406 C 31.695313 10.730469 31.453125 10.457031 31.125 10.34375 C 30.058594 9.972656 28.878906 9.925781 27.6875 10.0625 C 26.496094 10.199219 25.269531 10.527344 24.09375 10.96875 C 21.742188 11.851563 19.589844 13.191406 18.21875 14.5625 C 16.722656 16.058594 15.996094 17.882813 16 19.75 C 16.003906 21.367188 16.589844 22.984375 17.4375 24.5625 L 6.6875 35.28125 C 4.976563 32.242188 4 28.742188 4 25 C 4 13.390625 13.390625 4 25 4 Z M 28.5625 12.125 L 24.8125 15.875 C 23.703125 16.984375 23.703125 18.796875 24.8125 19.90625 L 30.09375 25.1875 C 31.203125 26.300781 33.015625 26.300781 34.125 25.1875 L 37.875 21.4375 C 37.839844 22.601563 37.652344 23.867188 37.15625 25.1875 C 36.367188 27.289063 35.09375 29.3125 34.03125 30.375 C 32.867188 31.539063 31.632813 32.003906 30.25 32 C 28.867188 31.996094 27.332031 31.496094 25.75 30.53125 C 25.355469 30.273438 24.835938 30.324219 24.5 30.65625 L 13 42.21875 C 10.960938 40.796875 9.203125 39.039063 7.78125 37 L 19.34375 25.5 C 19.675781 25.164063 19.726563 24.644531 19.46875 24.25 C 18.507813 22.667969 18.003906 21.132813 18 19.75 C 17.996094 18.367188 18.460938 17.132813 19.625 15.96875 C 20.6875 14.90625 22.710938 13.632813 24.8125 12.84375 C 26.132813 12.347656 27.398438 12.160156 28.5625 12.125 Z"/></svg>