<svg xmlns="http://www.w3.org/2000/svg" viewBox="0 0 50 50" width="50" height="50" fill="#666"><path d="M 7 3 L 7 47 L 43 47 L 43 3 Z M 9 5 L 22 5 L 22 24.28125 C 21.40625 24.632813 21 25.269531 21 26 L 21 28 C 21 28.832031 21.527344 29.554688 22.261719 29.851563 C 22.117188 30.410156 22.019531 30.773438 21.777344 31.796875 C 21.589844 32.597656 21.398438 33.4375 21.253906 34.167969 C 21.109375 34.894531 21 35.453125 21 35.960938 C 21 38.171875 22.796875 40 25 40 C 27.203125 40 29 38.171875 29 35.960938 C 29 35.453125 28.890625 34.894531 28.746094 34.167969 C 28.601563 33.4375 28.410156 32.597656 28.222656 31.796875 C 27.980469 30.773438 27.882813 30.410156 27.738281 29.851563 C 28.472656 29.554688 29 28.832031 29 28 L 29 26 C 29 25.269531 28.59375 24.632813 28 24.28125 L 28 5 L 41 5 L 41 45 L 9 45 Z M 24 5 L 26 5 L 26 9 L 25 9 L 25 11 L 26 11 L 26 15 L 25 15 L 25 17 L 26 17 L 26 21 L 25 21 L 25 23 L 26 23 L 26 24 L 24 24 L 24 20 L 25 20 L 25 18 L 24 18 L 24 14 L 25 14 L 25 12 L 24 12 L 24 8 L 25 8 L 25 6 L 24 6 Z M 23 26 L 27 26 L 27 28 L 23 28 Z M 24.28125 30 L 25.71875 30 C 25.839844 30.472656 26 31.070313 26.277344 32.253906 C 26.464844 33.042969 26.648438 33.863281 26.785156 34.554688 C 26.921875 35.246094 27 35.863281 27 35.960938 C 27 37.09375 26.097656 38 25 38 C 23.902344 38 23 37.09375 23 35.960938 C 23 35.863281 23.078125 35.246094 23.214844 34.554688 C 23.351563 33.863281 23.535156 33.042969 23.722656 32.253906 C 24 31.070313 24.160156 30.472656 24.28125 30 Z M 25 35 C 24.457031 35 24.011719 35.449219 24.015625 36 C 24.011719 36.550781 24.457031 37 25 37 C 25.542969 37 25.988281 36.550781 25.984375 36 C 25.988281 35.449219 25.542969 35 25 35 Z"/></svg>