<svg xmlns="http://www.w3.org/2000/svg" viewBox="0 0 50 50" width="50" height="50" fill="#666"><path d="M 6.667969 4 C 5.207031 4 4 5.207031 4 6.667969 L 4 43.332031 C 4 44.792969 5.207031 46 6.667969 46 L 43.332031 46 C 44.792969 46 46 44.796875 46 43.332031 L 46 6.667969 C 46 5.207031 44.796875 4 43.332031 4 Z M 6.667969 6 L 43.332031 6 C 43.703125 6 44 6.296875 44 6.667969 L 44 43.332031 C 44 43.703125 43.703125 44 43.332031 44 L 6.667969 44 C 6.296875 44 6 43.703125 6 43.332031 L 6 6.667969 C 6 6.296875 6.296875 6 6.667969 6 Z M 32.179688 19.589844 C 30.046875 19.589844 29.011719 21.824219 29.011719 24.320313 C 29.011719 27.355469 30.148438 29.109375 32.011719 29.109375 C 32.097656 29.109375 32.25 29.191406 32.464844 29.300781 C 33.175781 29.714844 34.097656 30.183594 34.921875 30.515625 L 35.574219 29.148438 C 34.976563 28.925781 34.308594 28.71875 33.699219 28.457031 L 33.699219 28.390625 C 34.59375 27.917969 35.136719 26.484375 35.136719 24.183594 C 35.136719 22.058594 34.496094 19.589844 32.179688 19.589844 Z M 26.535156 19.613281 C 24.535156 19.613281 23.511719 20.859375 23.511719 22.347656 C 23.511719 23.191406 24.007813 24.167969 25.316406 24.9375 C 26.125 25.449219 26.550781 25.78125 26.550781 26.457031 C 26.550781 27.0625 26.125 27.503906 25.246094 27.503906 C 24.703125 27.503906 24.050781 27.351563 23.667969 27.144531 L 23.394531 28.703125 C 23.707031 28.886719 24.460938 29.078125 25.230469 29.078125 C 27.105469 29.078125 28.394531 27.960938 28.394531 26.265625 C 28.394531 25.285156 27.929688 24.347656 26.664063 23.605469 C 25.628906 22.996094 25.34375 22.707031 25.34375 22.15625 C 25.34375 21.65625 25.726563 21.1875 26.523438 21.1875 C 27.0625 21.1875 27.472656 21.339844 27.746094 21.503906 L 28.046875 19.949219 C 27.761719 19.78125 27.160156 19.613281 26.535156 19.613281 Z M 9.613281 19.699219 L 8.917969 28.996094 L 10.523438 28.996094 L 10.679688 25.765625 C 10.738281 24.84375 10.792969 23.671875 10.824219 22.664063 L 10.863281 22.664063 C 11.007813 23.671875 11.261719 24.828125 11.449219 25.574219 L 12.242188 28.84375 L 13.5625 28.84375 L 14.386719 25.519531 C 14.570313 24.800781 14.828125 23.65625 15 22.664063 L 15.042969 22.664063 C 15.011719 23.65625 15.082031 24.855469 15.125 25.738281 L 15.296875 28.996094 L 16.957031 28.996094 L 16.375 19.699219 L 14.414063 19.699219 L 13.660156 23.0625 C 13.40625 24.238281 13.195313 25.285156 13.050781 26.320313 L 13.023438 26.320313 C 12.851563 25.269531 12.613281 24.238281 12.34375 23.0625 L 11.574219 19.699219 Z M 36.3125 19.699219 L 36.3125 28.996094 L 40.632813 28.996094 L 40.632813 27.464844 L 38.175781 27.464844 L 38.175781 19.699219 Z M 32.09375 21.160156 C 32.917969 21.160156 33.1875 22.527344 33.1875 24.265625 C 33.1875 26.195313 32.875 27.53125 32.09375 27.53125 C 31.269531 27.53125 30.929688 26.195313 30.941406 24.308594 C 30.941406 22.554688 31.324219 21.160156 32.09375 21.160156 Z M 17.574219 22.246094 L 19.476563 28.496094 C 19.503906 28.578125 19.53125 28.660156 19.53125 28.746094 C 19.53125 28.839844 19.492188 28.910156 19.433594 29.035156 C 19.304688 29.324219 19.109375 29.601563 18.851563 29.835938 C 18.566406 30.085938 18.253906 30.289063 17.925781 30.402344 L 18.496094 31.960938 C 18.777344 31.878906 19.492188 31.558594 20.074219 30.898438 C 20.824219 30.03125 21.28125 28.71875 21.621094 27.449219 L 23.042969 22.25 L 21.222656 22.25 L 20.640625 25.78125 C 20.582031 26.152344 20.527344 26.539063 20.46875 26.886719 L 20.441406 26.886719 C 20.382813 26.527344 20.328125 26.152344 20.257813 25.753906 L 19.574219 22.25 L 19.574219 22.246094 Z"/></svg>