<svg xmlns="http://www.w3.org/2000/svg" viewBox="0 0 50 50" width="50" height="50" fill="#666"><path d="M 16.8125 0 C 16.335938 0.0898438 15.992188 0.511719 16 1 L 16 2 L 8 2 C 6.355469 2 5 3.355469 5 5 L 5 47 C 5 48.644531 6.355469 50 8 50 L 42 50 C 43.644531 50 45 48.644531 45 47 L 45 5 C 45 3.355469 43.644531 2 42 2 L 34 2 L 34 1 C 34 0.449219 33.550781 0 33 0 L 17 0 C 16.96875 0 16.9375 0 16.90625 0 C 16.875 0 16.84375 0 16.8125 0 Z M 18 2 L 32 2 L 32 8 L 18 8 Z M 8 4 L 16 4 L 16 6 L 9 6 L 9 46 L 41 46 L 41 6 L 34 6 L 34 4 L 42 4 C 42.554688 4 43 4.445313 43 5 L 43 47 C 43 47.554688 42.554688 48 42 48 L 8 48 C 7.445313 48 7 47.554688 7 47 L 7 5 C 7 4.445313 7.445313 4 8 4 Z M 11 8 L 16 8 L 16 9 C 16 9.550781 16.449219 10 17 10 L 33 10 C 33.550781 10 34 9.550781 34 9 L 34 8 L 39 8 L 39 44 L 11 44 Z M 32.71875 18.625 L 32.15625 19.46875 L 24.03125 32.0625 L 18.65625 27.25 L 17.9375 26.59375 L 16.59375 28.0625 L 17.34375 28.75 L 23.53125 34.34375 L 24.40625 35.125 L 25.03125 34.15625 L 33.84375 20.53125 L 34.375 19.71875 Z"/></svg>