<svg xmlns="http://www.w3.org/2000/svg" viewBox="0 0 50 50" width="50" height="50" fill="#666"><path d="M 14.550781 6 C 7.636719 6 2 11.554688 2 18.402344 C 2 21.925781 3.449219 25.035156 5.835938 27.269531 L 25 46.414063 L 44.515625 26.921875 C 46.691406 24.773438 48 21.703125 48 18.402344 C 48 16.347656 47.460938 14.40625 46.628906 12.714844 L 46.027344 11.480469 L 24.972656 31.800781 L 12.585938 19.414063 C 11.796875 18.625 11.796875 17.375 12.585938 16.585938 C 13.375 15.796875 14.625 15.796875 15.414063 16.585938 L 25.027344 26.199219 L 43.183594 8.664063 L 42.1875 7.96875 C 42.140625 7.933594 42.0625 7.875 41.941406 7.796875 L 41.910156 7.773438 L 41.875 7.753906 C 40 6.714844 37.847656 6 35.449219 6 C 31.023438 6 27.25 8.355469 25.003906 11.734375 C 22.757813 8.289063 18.96875 6 14.550781 6 Z M 14.550781 8 C 18.792969 8 22.390625 10.378906 24.097656 13.945313 L 24.988281 15.804688 L 25.894531 13.953125 C 27.601563 10.488281 31.222656 8 35.449219 8 C 37.058594 8 38.507813 8.449219 39.878906 9.070313 L 25.046875 23.390625 L 16.828125 15.171875 C 15.273438 13.617188 12.726563 13.617188 11.171875 15.171875 C 9.617188 16.726563 9.617188 19.273438 11.171875 20.828125 L 24.953125 34.609375 L 25.65625 33.925781 L 45.328125 14.933594 C 45.714844 16.039063 46 17.191406 46 18.402344 C 46 21.175781 44.890625 23.746094 43.109375 25.503906 L 43.105469 25.507813 L 25 43.585938 L 7.214844 25.824219 L 7.203125 25.8125 C 5.191406 23.925781 4 21.386719 4 18.402344 C 4 12.652344 8.703125 8 14.550781 8 Z"/></svg>