<svg xmlns="http://www.w3.org/2000/svg" viewBox="0 0 50 50" width="50" height="50" fill="#666"><path d="M 41.9375 7.03125 C 41.894531 7.039063 41.851563 7.050781 41.8125 7.0625 C 41.4375 7.128906 41.136719 7.402344 41.03125 7.765625 C 40.925781 8.132813 41.035156 8.523438 41.3125 8.78125 C 45.445313 12.9375 48 18.652344 48 25 C 48 31.328125 45.449219 37.058594 41.3125 41.21875 C 41.015625 41.460938 40.878906 41.847656 40.964844 42.222656 C 41.050781 42.59375 41.34375 42.886719 41.714844 42.972656 C 42.089844 43.058594 42.476563 42.921875 42.71875 42.625 C 47.214844 38.105469 50 31.867188 50 25 C 50 18.117188 47.242188 11.890625 42.75 7.375 C 42.546875 7.140625 42.246094 7.015625 41.9375 7.03125 Z M 7.875 7.0625 C 7.648438 7.09375 7.4375 7.207031 7.28125 7.375 C 2.785156 11.894531 0 18.132813 0 25 C 0 31.882813 2.757813 38.109375 7.25 42.625 C 7.636719 43.023438 8.273438 43.027344 8.671875 42.640625 C 9.070313 42.253906 9.074219 41.617188 8.6875 41.21875 C 4.554688 37.0625 2 31.347656 2 25 C 2 18.671875 4.550781 12.941406 8.6875 8.78125 C 9 8.484375 9.089844 8.019531 8.90625 7.628906 C 8.71875 7.234375 8.304688 7.007813 7.875 7.0625 Z M 16.1875 14.34375 C 15.964844 14.367188 15.753906 14.46875 15.59375 14.625 C 12.769531 17.1875 11 20.894531 11 25 C 11 29.113281 12.773438 32.820313 15.59375 35.375 C 15.847656 35.65625 16.242188 35.773438 16.609375 35.667969 C 16.972656 35.566406 17.25 35.265625 17.320313 34.890625 C 17.390625 34.515625 17.242188 34.132813 16.9375 33.90625 C 14.519531 31.714844 13 28.542969 13 25 C 13 21.46875 14.515625 18.292969 16.9375 16.09375 C 17.265625 15.808594 17.371094 15.34375 17.199219 14.945313 C 17.027344 14.546875 16.621094 14.304688 16.1875 14.34375 Z M 33.59375 14.34375 C 33.199219 14.390625 32.875 14.667969 32.757813 15.046875 C 32.644531 15.425781 32.761719 15.835938 33.0625 16.09375 C 35.480469 18.285156 37 21.457031 37 25 C 37 28.53125 35.488281 31.707031 33.0625 33.90625 C 32.757813 34.132813 32.609375 34.515625 32.679688 34.890625 C 32.75 35.265625 33.027344 35.566406 33.390625 35.667969 C 33.757813 35.773438 34.152344 35.65625 34.40625 35.375 C 37.230469 32.8125 39 29.105469 39 25 C 39 20.886719 37.226563 17.179688 34.40625 14.625 C 34.214844 14.4375 33.953125 14.335938 33.6875 14.34375 C 33.65625 14.34375 33.625 14.34375 33.59375 14.34375 Z M 25 20 C 22.25 20 20 22.246094 20 25 C 20 27.746094 22.246094 30 25 30 C 27.753906 30 30 27.746094 30 25 C 30 22.246094 27.75 20 25 20 Z M 25 22 C 26.675781 22 28 23.320313 28 25 C 28 26.667969 26.671875 28 25 28 C 23.328125 28 22 26.667969 22 25 C 22 23.320313 23.324219 22 25 22 Z"/></svg>