<svg xmlns="http://www.w3.org/2000/svg" viewBox="0 0 50 50" width="50" height="50" fill="#666"><path style="line-height:normal;text-indent:0;text-align:start;text-decoration-line:none;text-decoration-style:solid;text-decoration-color:#000;text-transform:none;block-progression:tb;isolation:auto;mix-blend-mode:normal" d="M 26.5 2 C 13.620178 2 3.1467413 12.390892 3.0058594 25.238281 L 3.0058594 25.25 L 3.0058594 25.261719 C 3.1468756 37.833052 13.39723 48 26 48 C 34.066476 48 41.175135 43.841108 45.279297 37.546875 A 1.0005662 1.0005662 0 1 0 43.603516 36.453125 C 39.855677 42.200892 33.379524 46 26 46 C 14.474822 46 5.1432193 36.743051 5.0078125 25.25 C 5.1433547 13.481 14.697874 4 26.5 4 C 36.47955 4 44.572118 11.877339 44.962891 21.759766 C 44.771089 26.159985 42.97012 29.909428 40.623047 32.591797 C 38.140496 35.428998 35.033333 37 33 37 C 31.88941 37 31.0154 36.123671 31.005859 35.015625 C 31.014959 34.91292 31.209823 32.788108 32.152344 30.314453 A 1.0002377 1.0002377 0 0 0 32.160156 30.287109 L 38.927734 13.371094 A 1.0001 1.0001 0 0 0 37.970703 11.988281 A 1.0001 1.0001 0 0 0 37.072266 12.628906 L 35.728516 15.988281 C 35.119789 14.627991 34.277167 13.550021 33.224609 12.761719 C 31.523744 11.487872 29.37075 11 27 11 C 24.197312 11 20.59129 12.748203 17.523438 15.896484 C 14.455584 19.044766 12 23.678612 12 29.5 C 12 34.734548 16.265452 39 21.5 39 C 24.550599 39 26.783894 37.719017 28.339844 36.162109 C 28.589942 35.911858 28.820419 35.654601 29.041016 35.394531 C 29.243949 37.406336 30.937685 39 33 39 C 35.966667 39 39.359504 37.071002 42.126953 33.908203 C 44.547404 31.141974 46.462332 27.369586 46.904297 22.943359 A 1.0001 1.0001 0 0 0 47 22.5 C 47 22.170115 46.990069 21.841727 46.974609 21.515625 C 46.979216 21.342188 47 21.1752 47 21 A 1.0001 1.0001 0 0 0 46.90625 20.568359 C 45.93029 10.162195 37.158622 2 26.5 2 z M 27 13 C 29.09725 13 30.777756 13.428878 32.025391 14.363281 C 33.226253 15.262656 34.106544 16.670043 34.556641 18.919922 L 30.298828 29.5625 A 1.0002377 1.0002377 0 0 0 30.283203 29.601562 L 29.923828 30.498047 A 1.0001 1.0001 0 0 0 29.873047 30.576172 C 29.087545 31.832347 28.214081 33.458954 26.925781 34.748047 C 25.637481 36.03714 24.012401 37 21.5 37 C 17.346548 37 14 33.653452 14 29.5 C 14 24.238388 16.196431 20.121984 18.955078 17.291016 C 21.713725 14.460047 25.108688 13 27 13 z"/></svg>