<svg xmlns="http://www.w3.org/2000/svg" viewBox="0 0 50 50" width="50" height="50" fill="#666"><path style="line-height:normal;text-indent:0;text-align:start;text-decoration-line:none;text-decoration-style:solid;text-decoration-color:#000;text-transform:none;block-progression:tb;isolation:auto;mix-blend-mode:normal" d="M 25 2 C 12.309295 2 2 12.309295 2 25 C 2 37.690705 12.309295 48 25 48 C 37.690705 48 48 37.690705 48 25 C 48 12.309295 37.690705 2 25 2 z M 25 4 C 36.609824 4 46 13.390176 46 25 C 46 36.609824 36.609824 46 25 46 C 13.390176 46 4 36.609824 4 25 C 4 13.390176 13.390176 4 25 4 z M 23.779297 12.904297 C 23.564297 12.904297 23.421875 13.048672 23.421875 13.263672 L 23.421875 15.882812 C 23.421875 16.097813 23.563297 16.240234 23.779297 16.240234 L 26.21875 16.240234 C 26.43275 16.240234 26.576172 16.097813 26.576172 15.882812 L 26.576172 13.263672 C 26.576172 13.048672 26.43375 12.904297 26.21875 12.904297 L 23.779297 12.904297 z M 23.851562 20.113281 C 23.637563 20.113281 23.494141 20.257656 23.494141 20.472656 L 23.494141 36.935547 C 23.494141 37.150547 23.636563 37.292969 23.851562 37.292969 L 26.146484 37.292969 C 26.361484 37.292969 26.505859 37.151547 26.505859 36.935547 L 26.505859 20.472656 C 26.505859 20.257656 26.362484 20.113281 26.146484 20.113281 L 23.851562 20.113281 z"/></svg>