<svg xmlns="http://www.w3.org/2000/svg" viewBox="0 0 50 50" width="50" height="50" fill="#666"><path d="M 28 3.59375 L 28 14.0625 C 13.863281 14.414063 6.625 21.742188 3.21875 29.0625 C -0.226563 36.460938 -0.0078125 43.710938 0 43.90625 C 0 43.90625 0 43.9375 0 43.9375 C 0 43.9375 0 44.03125 0 44.03125 L 2 44.0625 C 2 44.0625 2.320313 39.644531 5.8125 35.125 C 9.203125 30.738281 15.660156 26.347656 28 26.09375 L 28 36.40625 L 29.59375 35.1875 L 48.59375 20.8125 L 49.65625 20 L 48.59375 19.1875 L 29.59375 4.8125 Z M 30 7.625 L 46.34375 20 L 30 32.375 L 30 24 L 29 24 C 15.449219 24 8.070313 28.894531 4.21875 33.875 C 3.71875 34.519531 3.417969 35.144531 3.03125 35.78125 C 3.480469 33.917969 4.085938 31.96875 5.03125 29.9375 C 8.289063 22.9375 14.832031 16 29 16 L 30 16 Z"/></svg>