<svg xmlns="http://www.w3.org/2000/svg" viewBox="0 0 50 50" width="50" height="50" fill="#666"><path d="M 13.1875 2 C 10.960938 2 8.089844 3.640625 5.5625 6.84375 C 3.035156 10.046875 1 14.894531 1 21.5 C 1 24.570313 1.984375 28.09375 3.8125 30.9375 C 4.277344 31.660156 4.824219 32.320313 5.40625 32.9375 C 3.140625 35.832031 1.28125 38.03125 1.28125 38.03125 C 0.960938 38.269531 0.8125 38.679688 0.90625 39.066406 C 1 39.457031 1.316406 39.753906 1.710938 39.820313 C 2.105469 39.886719 2.503906 39.710938 2.71875 39.375 C 2.71875 39.375 4.601563 37.152344 6.90625 34.21875 C 8.347656 35.289063 10.003906 36 11.90625 36 C 15.011719 36 17.953125 34.472656 20.5 32.3125 C 20.964844 31.917969 21.339844 31.402344 21.78125 30.96875 C 22.5625 31.570313 23.464844 32 24.5 32 C 26.082031 32 27.476563 31.210938 28.6875 30.1875 C 29.898438 29.164063 30.980469 27.871094 31.9375 26.59375 C 32.894531 25.316406 33.738281 24.078125 34.4375 23.1875 C 34.738281 22.800781 35.003906 22.550781 35.21875 22.34375 C 35.285156 22.964844 35.25 23.949219 35.1875 24.9375 C 35.125 25.925781 35.027344 26.925781 35.03125 27.75 C 35.03125 28.164063 35.058594 28.527344 35.15625 28.90625 C 35.207031 29.097656 35.25 29.300781 35.4375 29.53125 C 35.625 29.761719 36.035156 30 36.40625 30 C 37.621094 30 38.554688 29.292969 39.375 28.46875 C 40.195313 27.644531 40.980469 26.628906 41.8125 25.65625 C 43.476563 23.710938 45.273438 22 48 22 C 48.359375 22.003906 48.695313 21.816406 48.878906 21.503906 C 49.058594 21.191406 49.058594 20.808594 48.878906 20.496094 C 48.695313 20.183594 48.359375 19.996094 48 20 C 44.425781 20 42.042969 22.289063 40.28125 24.34375 C 39.402344 25.371094 38.640625 26.355469 37.96875 27.03125 C 37.570313 27.433594 37.324219 27.449219 37.03125 27.59375 C 37.039063 26.925781 37.128906 26.015625 37.1875 25.0625 C 37.25 24.050781 37.277344 23.035156 37.1875 22.15625 C 37.140625 21.714844 37.089844 21.289063 36.875 20.875 C 36.660156 20.460938 36.105469 20 35.5 20 C 34.832031 20 34.394531 20.339844 34 20.6875 C 33.605469 21.035156 33.230469 21.445313 32.84375 21.9375 C 32.074219 22.921875 31.230469 24.183594 30.3125 25.40625 C 29.394531 26.628906 28.414063 27.835938 27.40625 28.6875 C 26.398438 29.539063 25.417969 30 24.5 30 C 23.996094 30 23.539063 29.871094 23.125 29.59375 C 24.542969 27.980469 25.847656 26.28125 26.875 24.5 C 28.511719 21.664063 29.582031 18.855469 29.84375 16.5625 C 29.972656 15.417969 29.933594 14.351563 29.46875 13.46875 C 29.003906 12.585938 28 12 26.90625 12 C 24.707031 12 22.6875 13.4375 21.25 15.5625 C 19.8125 17.6875 18.90625 20.570313 18.90625 23.8125 C 18.90625 25.917969 19.355469 27.859375 20.28125 29.375 C 20.320313 29.441406 20.394531 29.46875 20.4375 29.53125 C 20.019531 29.949219 19.625 30.441406 19.1875 30.8125 C 16.867188 32.777344 14.351563 34 11.90625 34 C 10.503906 34 9.253906 33.449219 8.125 32.625 C 9.050781 31.394531 9.859375 30.46875 10.84375 29 C 14.890625 22.964844 19 15.238281 19 8.1875 C 19 7.390625 18.917969 5.9375 18.125 4.5625 C 17.332031 3.1875 15.675781 2 13.1875 2 Z M 13.1875 4 C 15.101563 4 15.871094 4.6875 16.375 5.5625 C 16.878906 6.4375 17 7.582031 17 8.1875 C 17 14.4375 13.109375 21.984375 9.15625 27.875 C 8.265625 29.203125 7.5625 30.023438 6.71875 31.15625 C 6.316406 30.703125 5.847656 30.382813 5.5 29.84375 C 3.90625 27.363281 3 24.128906 3 21.5 C 3 15.304688 4.910156 10.910156 7.15625 8.0625 C 9.402344 5.214844 12.113281 4 13.1875 4 Z M 26.90625 14 C 27.4375 14 27.519531 14.085938 27.6875 14.40625 C 27.855469 14.726563 27.980469 15.394531 27.875 16.3125 C 27.667969 18.144531 26.664063 20.835938 25.125 23.5 C 24.214844 25.074219 23.101563 26.597656 21.875 28.03125 C 21.289063 26.9375 20.90625 25.46875 20.90625 23.8125 C 20.90625 20.953125 21.71875 18.4375 22.90625 16.6875 C 24.09375 14.9375 25.605469 14 26.90625 14 Z M 0 44 L 0 46 L 50 46 L 50 44 Z"/></svg>