<svg xmlns="http://www.w3.org/2000/svg" viewBox="0 0 50 50" width="50" height="50" fill="#666"><path d="M 22.3125 4.28125 C 21.929688 4.320313 21.601563 4.574219 21.46875 4.9375 L 6.46875 43.5 C 6.355469 43.804688 6.402344 44.148438 6.585938 44.414063 C 6.773438 44.683594 7.078125 44.84375 7.40625 44.84375 L 12.625 44.84375 C 13.042969 44.84375 13.417969 44.582031 13.5625 44.1875 L 17.65625 33.25 L 32.5625 33.25 L 36.53125 44.1875 C 36.675781 44.582031 37.050781 44.84375 37.46875 44.84375 L 43.15625 44.84375 C 43.484375 44.84375 43.789063 44.683594 43.976563 44.414063 C 44.160156 44.148438 44.207031 43.804688 44.09375 43.5 L 29 4.9375 C 28.859375 4.554688 28.5 4.292969 28.09375 4.28125 L 22.40625 4.28125 C 22.375 4.28125 22.34375 4.28125 22.3125 4.28125 Z M 23.09375 6.28125 L 27.40625 6.28125 L 41.6875 42.84375 L 38.15625 42.84375 L 34.21875 31.90625 C 34.074219 31.511719 33.699219 31.25 33.28125 31.25 L 16.96875 31.25 C 16.558594 31.246094 16.183594 31.492188 16.03125 31.875 L 11.9375 42.84375 L 8.875 42.84375 Z M 25 8.9375 C 24.628906 8.984375 24.3125 9.238281 24.1875 9.59375 L 17.65625 27.5625 C 17.542969 27.867188 17.589844 28.210938 17.773438 28.476563 C 17.960938 28.746094 18.265625 28.90625 18.59375 28.90625 L 31.65625 28.90625 C 31.976563 28.902344 32.273438 28.746094 32.457031 28.488281 C 32.644531 28.226563 32.691406 27.894531 32.59375 27.59375 L 26.15625 9.59375 C 26.011719 9.199219 25.636719 8.9375 25.21875 8.9375 L 25.125 8.9375 C 25.082031 8.933594 25.042969 8.933594 25 8.9375 Z M 25.15625 12.75 L 30.25 26.90625 L 20.03125 26.90625 Z"/></svg>