<svg xmlns="http://www.w3.org/2000/svg" viewBox="0 0 50 50" width="50" height="50" fill="#666"><path d="M 24.875 2 C 24.59375 2.042969 24.34375 2.199219 24.1875 2.4375 C 24.1875 2.4375 22.398438 5.003906 20.625 8.0625 C 19.738281 9.589844 18.867188 11.234375 18.1875 12.78125 C 17.507813 14.328125 17 15.730469 17 17 C 17 21.066406 20.066406 24.4375 24 24.9375 L 24 27 L 18 27 C 17.96875 27 17.9375 27 17.90625 27 C 17.832031 27.011719 17.757813 27.035156 17.6875 27.0625 L 5.6875 31.0625 C 5.28125 31.195313 5.003906 31.574219 5 32 L 5 47 C 5 47.550781 5.449219 48 6 48 L 44 48 C 44.550781 48 45 47.550781 45 47 L 45 32 C 44.996094 31.574219 44.71875 31.195313 44.3125 31.0625 L 32.3125 27.0625 C 32.210938 27.023438 32.105469 27.003906 32 27 L 26 27 L 26 24.9375 C 29.933594 24.4375 33 21.066406 33 17 C 33 15.730469 32.492188 14.328125 31.8125 12.78125 C 31.132813 11.234375 30.261719 9.589844 29.375 8.0625 C 27.601563 5.003906 25.8125 2.4375 25.8125 2.4375 C 25.605469 2.128906 25.246094 1.960938 24.875 2 Z M 25 4.875 C 25.554688 5.695313 26.308594 6.792969 27.625 9.0625 C 28.488281 10.550781 29.367188 12.15625 30 13.59375 C 30.632813 15.03125 31 16.335938 31 17 C 31 20.261719 28.425781 22.902344 25.1875 23 C 25.0625 22.976563 24.9375 22.976563 24.8125 23 C 21.574219 22.902344 19 20.261719 19 17 C 19 16.335938 19.367188 15.03125 20 13.59375 C 20.632813 12.15625 21.511719 10.550781 22.375 9.0625 C 23.691406 6.792969 24.445313 5.695313 25 4.875 Z M 25 13 C 25 13 22 17.34375 22 19 C 22 20.65625 23.34375 22 25 22 C 26.65625 22 28 20.65625 28 19 C 28 17.34375 25 13 25 13 Z M 18.125 29 L 31.875 29 L 43 32.71875 L 43 46 L 7 46 L 7 32.71875 Z"/></svg>