<svg xmlns="http://www.w3.org/2000/svg" viewBox="0 0 50 50" width="50" height="50" fill="#666"><path d="M 25 0 C 23.9375 0 22.867188 0.382813 22.03125 1.15625 C 22.019531 1.167969 22.011719 1.175781 22 1.1875 L 1.1875 22.09375 C -0.40625 23.6875 -0.390625 26.292969 1.15625 27.96875 C 1.167969 27.980469 1.175781 27.988281 1.1875 28 L 22 48.8125 C 23.59375 50.40625 26.199219 50.390625 27.875 48.84375 C 27.886719 48.832031 27.894531 48.824219 27.90625 48.8125 L 48.71875 28 C 50.382813 26.335938 50.40625 23.6875 48.8125 22.09375 L 27.90625 1.1875 C 27.109375 0.390625 26.0625 0 25 0 Z M 24.96875 2 C 25.53125 2 26.097656 2.191406 26.5 2.59375 L 47.40625 23.5 C 48.214844 24.308594 48.21875 25.65625 47.28125 26.59375 L 26.53125 47.375 C 26.519531 47.386719 26.511719 47.398438 26.5 47.40625 C 25.574219 48.230469 24.203125 48.203125 23.40625 47.40625 L 2.625 26.625 C 2.613281 26.613281 2.605469 26.605469 2.59375 26.59375 C 2.183594 26.132813 1.996094 25.558594 2 25 C 2 24.859375 2.003906 24.730469 2.03125 24.59375 C 2.109375 24.1875 2.292969 23.800781 2.59375 23.5 L 23.375 2.625 L 23.40625 2.59375 C 23.863281 2.1875 24.417969 2 24.96875 2 Z M 23.8125 14 C 23.511719 14 23.40625 14.207031 23.40625 14.40625 L 23.40625 28.90625 C 23.40625 29.207031 23.613281 29.3125 23.8125 29.3125 L 26.09375 29.3125 C 26.394531 29.3125 26.5 29.105469 26.5 28.90625 L 26.5 14.40625 C 26.5 14.105469 26.292969 14 26.09375 14 Z M 23.8125 32.59375 C 23.511719 32.59375 23.40625 32.800781 23.40625 33 L 23.40625 35.6875 C 23.40625 35.988281 23.613281 36.09375 23.8125 36.09375 L 26.1875 36.09375 C 26.488281 36.09375 26.59375 35.886719 26.59375 35.6875 L 26.59375 33.09375 C 26.59375 32.792969 26.386719 32.6875 26.1875 32.6875 L 26.1875 32.59375 Z"/></svg>