<svg xmlns="http://www.w3.org/2000/svg" viewBox="0 0 50 50" width="50" height="50" fill="#666"><path style="line-height:normal;text-indent:0;text-align:start;text-decoration-line:none;text-decoration-style:solid;text-decoration-color:#000;text-transform:none;block-progression:tb;isolation:auto;mix-blend-mode:normal" d="M 7 4 C 5.3550302 4 4 5.3550302 4 7 L 4 12 L 4 45 A 1.0001 1.0001 0 0 0 5 46 L 45 46 A 1.0001 1.0001 0 0 0 46 45 L 46 11 L 46 7 C 46 5.3550302 44.64497 4 43 4 L 7 4 z M 7 6 L 43 6 C 43.56503 6 44 6.4349698 44 7 L 44 10 L 6 10 L 6 7 C 6 6.4349698 6.4349698 6 7 6 z M 6 12 L 44 12 L 44 44 L 6 44 L 6 12 z M 17.755859 21 C 15.457859 21 14 22.450109 14 24.287109 C 14 25.564109 15.112516 26.738172 16.478516 27.576172 C 17.480516 28.242172 18.082031 28.784516 18.082031 29.728516 C 18.082031 30.709516 17.428609 31.373047 16.224609 31.373047 C 15.586609 31.373047 14.782172 31.164344 14.326172 30.902344 L 14 32.509766 C 14.382 32.755766 15.312609 32.998047 16.224609 32.998047 C 18.432609 32.998047 20 31.652156 20 29.535156 C 20 28.276156 19.380078 27.138156 17.830078 26.160156 C 16.572078 25.391156 15.916016 24.9725 15.916016 24.0625 C 15.916016 23.3435 16.607703 22.626953 17.720703 22.626953 C 18.376703 22.626953 19.305344 23.022422 19.652344 23.232422 L 20 21.623047 C 19.671 21.431047 18.539859 21 17.755859 21 z M 29 21 L 29 33 L 31 33 L 31 28 L 34 28 L 34 33 L 36 33 L 36 21 L 34 21 L 34 26 L 31 26 L 31 21 L 29 21 z M 24.755859 21.001953 C 22.457859 21.001953 21 22.452063 21 24.289062 C 21 25.566063 22.112516 26.738172 23.478516 27.576172 C 24.480516 28.242172 25.082031 28.784516 25.082031 29.728516 C 25.082031 30.709516 24.428609 31.375 23.224609 31.375 C 22.586609 31.375 21.782172 31.164344 21.326172 30.902344 L 21 32.509766 C 21.382 32.755766 22.312609 33 23.224609 33 C 25.432609 33 27 31.654109 27 29.537109 C 27 28.278109 26.380078 27.140109 24.830078 26.162109 C 23.572078 25.393109 22.916016 24.9725 22.916016 24.0625 C 22.916016 23.3435 23.607703 22.628906 24.720703 22.628906 C 25.376703 22.628906 26.305344 23.024375 26.652344 23.234375 L 27 21.625 C 26.671 21.433 25.539859 21.001953 24.755859 21.001953 z"/></svg>