<svg xmlns="http://www.w3.org/2000/svg" viewBox="0 0 50 50" width="50" height="50" fill="#666"><path d="M 25 0 C 22.546875 0 20.476563 1.355469 17.40625 2.9375 C 14.335938 4.519531 10.214844 6.429688 3.78125 7.84375 L 3 8.03125 L 3 8.8125 C 3 24.132813 8.371094 34.371094 13.75 40.71875 C 19.128906 47.066406 24.59375 49.59375 24.59375 49.59375 L 25.03125 49.8125 L 25.46875 49.59375 C 25.46875 49.59375 47 38.46875 47 8.8125 L 47 8.03125 L 46.21875 7.84375 C 39.785156 6.429688 35.664063 4.519531 32.59375 2.9375 C 29.523438 1.355469 27.453125 0 25 0 Z M 25 2 C 26.644531 2 28.550781 3.105469 31.6875 4.71875 C 34.667969 6.25 38.859375 8.128906 44.9375 9.5625 C 44.570313 36.679688 26.253906 46.851563 24.96875 47.53125 C 24.347656 47.230469 20.019531 45.066406 15.25 39.4375 C 10.222656 33.503906 5.246094 23.960938 5.0625 9.5625 C 11.140625 8.128906 15.332031 6.25 18.3125 4.71875 C 21.449219 3.105469 23.355469 2 25 2 Z M 19.40625 17.4375 C 17.265625 17.4375 16.0625 18.839844 16.0625 20.625 C 16.0625 21.867188 16.945313 23.027344 18.21875 23.84375 C 19.152344 24.492188 19.71875 25.019531 19.71875 25.9375 C 19.71875 26.890625 19.089844 27.53125 17.96875 27.53125 C 17.375 27.53125 16.644531 27.316406 16.21875 27.0625 L 15.90625 28.625 C 16.261719 28.863281 17.117188 29.09375 17.96875 29.09375 C 20.027344 29.09375 21.5 27.808594 21.5 25.75 C 21.5 24.527344 20.914063 23.417969 19.46875 22.46875 C 18.296875 21.722656 17.84375 21.289063 17.84375 20.40625 C 17.84375 19.707031 18.339844 19.03125 19.375 19.03125 C 19.988281 19.03125 20.457031 19.203125 20.78125 19.40625 L 21.09375 17.84375 C 20.789063 17.65625 20.136719 17.4375 19.40625 17.4375 Z M 25.84375 17.4375 C 23.703125 17.4375 22.5 18.839844 22.5 20.625 C 22.5 21.867188 23.382813 23.027344 24.65625 23.84375 C 25.589844 24.492188 26.15625 25.019531 26.15625 25.9375 C 26.15625 26.890625 25.558594 27.53125 24.4375 27.53125 C 23.84375 27.53125 23.082031 27.316406 22.65625 27.0625 L 22.34375 28.625 C 22.699219 28.863281 23.554688 29.09375 24.40625 29.09375 C 26.464844 29.09375 27.9375 27.808594 27.9375 25.75 C 27.9375 24.527344 27.351563 23.417969 25.90625 22.46875 C 24.734375 21.722656 24.28125 21.289063 24.28125 20.40625 C 24.28125 19.707031 24.777344 19.03125 25.8125 19.03125 C 26.425781 19.03125 26.894531 19.203125 27.21875 19.40625 L 27.5625 17.84375 C 27.257813 17.65625 26.574219 17.4375 25.84375 17.4375 Z M 29.34375 17.53125 L 29.34375 29 L 34.21875 29 L 34.21875 27.46875 L 31.15625 27.46875 L 31.15625 17.53125 Z"/></svg>