<svg xmlns="http://www.w3.org/2000/svg" viewBox="0 0 50 50" width="50" height="50" fill="#666"><path d="M 24.90625 -0.03125 C 24.863281 -0.0234375 24.820313 -0.0117188 24.78125 0 C 24.316406 0.105469 23.988281 0.523438 24 1 L 24 4.03125 C 11.3125 4.472656 1 13.210938 1 26 C 1.003906 26.445313 1.296875 26.832031 1.722656 26.957031 C 2.148438 27.078125 2.605469 26.90625 2.84375 26.53125 C 2.84375 26.53125 5.035156 23 10 23 C 12.777344 23 15.21875 24.417969 16.65625 26.5625 C 16.839844 26.832031 17.144531 26.996094 17.46875 27 L 17.53125 27 C 17.855469 26.996094 18.160156 26.832031 18.34375 26.5625 C 19.605469 24.679688 21.636719 23.355469 24 23.0625 L 24 43 C 24 45.773438 21.773438 48 19 48 C 16.226563 48 14 45.773438 14 43 C 14.003906 42.640625 13.816406 42.304688 13.503906 42.121094 C 13.191406 41.941406 12.808594 41.941406 12.496094 42.121094 C 12.183594 42.304688 11.996094 42.640625 12 43 C 12 46.855469 15.148438 50 19 50 C 22.851563 50 26 46.855469 26 43 L 26 23.0625 C 28.363281 23.355469 30.394531 24.679688 31.65625 26.5625 C 31.839844 26.832031 32.144531 26.996094 32.46875 27 L 32.53125 27 C 32.855469 26.996094 33.160156 26.832031 33.34375 26.5625 C 34.78125 24.417969 37.21875 23 40 23 C 43.960938 23 47.25 26.65625 47.25 26.65625 C 47.523438 26.96875 47.960938 27.078125 48.351563 26.929688 C 48.738281 26.785156 48.996094 26.414063 49 26 C 48.996094 13.210938 38.6875 4.472656 26 4.03125 L 26 1 C 26.011719 0.710938 25.894531 0.433594 25.6875 0.238281 C 25.476563 0.0390625 25.191406 -0.0585938 24.90625 -0.03125 Z M 25 6 C 36.40625 6 45.515625 12.945313 46.75 23.59375 C 45.207031 22.351563 43.039063 21 40 21 C 36.988281 21 34.332031 22.386719 32.5 24.5 C 30.667969 22.386719 28.011719 21 25 21 C 21.988281 21 19.332031 22.386719 17.5 24.5 C 15.667969 22.386719 13.011719 21 10 21 C 6.945313 21 4.746094 22.136719 3.28125 23.28125 C 4.652344 12.808594 13.707031 6 25 6 Z"/></svg>