<svg xmlns="http://www.w3.org/2000/svg" viewBox="0 0 50 50" width="50" height="50" fill="#666"><path d="M 24.84375 0 C 24.558594 0.0507813 24.304688 0.21875 24.15625 0.46875 C 24.15625 0.46875 22.9375 2.390625 20.03125 7.5 C 20.03125 7.511719 20.03125 7.519531 20.03125 7.53125 C 19.914063 7.753906 19.921875 7.71875 19.90625 7.75 C 19.398438 7.539063 18.019531 6.667969 15.5 5.15625 C 15.183594 4.972656 14.792969 4.976563 14.480469 5.164063 C 14.171875 5.355469 13.984375 5.699219 14 6.0625 L 14.875 18.125 L 9.25 15.3125 C 9.003906 15.1875 8.714844 15.167969 8.453125 15.261719 C 8.191406 15.359375 7.984375 15.558594 7.875 15.8125 C 7.386719 16.929688 7.308594 17.894531 7.28125 18.59375 C 7.253906 19.269531 7.1875 19.597656 7.21875 19.5625 C 7.121094 19.597656 6.855469 19.667969 6.4375 19.6875 C 5.605469 19.730469 4.167969 19.628906 1.90625 19.40625 C 1.546875 19.363281 1.191406 19.515625 0.980469 19.808594 C 0.765625 20.097656 0.726563 20.484375 0.875 20.8125 C 2.617188 24.648438 3.230469 26.597656 3.15625 27.09375 C 3.121094 27.339844 3.097656 27.351563 2.71875 27.5625 C 2.339844 27.773438 1.648438 28.015625 0.6875 28.34375 C 0.339844 28.453125 0.078125 28.742188 0.0078125 29.101563 C -0.0625 29.460938 0.0664063 29.828125 0.34375 30.0625 C 2.90625 32.257813 6.46875 34.394531 8.84375 36.78125 C 10.03125 37.976563 10.917969 39.210938 11.28125 40.46875 C 11.644531 41.726563 11.570313 43.015625 10.71875 44.625 C 10.546875 44.949219 10.5625 45.339844 10.765625 45.648438 C 10.96875 45.953125 11.320313 46.125 11.6875 46.09375 C 11.6875 46.09375 14.757813 45.804688 17.96875 45.53125 C 19.574219 45.394531 21.226563 45.257813 22.53125 45.15625 C 23.308594 45.09375 23.546875 45.085938 24 45.0625 L 24 50 L 26 50 L 26 45.0625 C 26.453125 45.085938 26.691406 45.09375 27.46875 45.15625 C 28.773438 45.257813 30.425781 45.394531 32.03125 45.53125 C 35.242188 45.804688 38.3125 46.09375 38.3125 46.09375 C 38.679688 46.125 39.03125 45.953125 39.234375 45.648438 C 39.4375 45.339844 39.453125 44.949219 39.28125 44.625 C 38.433594 43.042969 38.355469 41.753906 38.71875 40.5 C 39.082031 39.246094 39.96875 38.011719 41.15625 36.8125 C 43.535156 34.410156 47.097656 32.253906 49.65625 30.0625 C 49.933594 29.828125 50.0625 29.460938 49.992188 29.101563 C 49.921875 28.742188 49.660156 28.453125 49.3125 28.34375 C 48.359375 28.019531 47.589844 27.757813 47.125 27.5 C 46.660156 27.242188 46.5625 27.109375 46.5 26.84375 C 46.4375 26.578125 46.484375 26.007813 46.875 25.03125 C 47.265625 24.054688 47.976563 22.683594 49.0625 20.90625 C 49.25 20.585938 49.242188 20.1875 49.046875 19.875 C 48.847656 19.558594 48.496094 19.378906 48.125 19.40625 C 45.734375 19.605469 44.210938 19.695313 43.34375 19.65625 C 42.945313 19.636719 42.730469 19.5625 42.625 19.53125 C 42.667969 19.566406 42.640625 19.328125 42.65625 18.6875 C 42.671875 17.972656 42.613281 16.964844 42.125 15.8125 C 42.015625 15.558594 41.808594 15.359375 41.546875 15.261719 C 41.285156 15.167969 40.996094 15.1875 40.75 15.3125 L 35.125 18.1875 L 36 6.0625 C 36.015625 5.699219 35.828125 5.355469 35.519531 5.164063 C 35.207031 4.976563 34.816406 4.972656 34.5 5.15625 C 31.980469 6.667969 30.601563 7.539063 30.09375 7.75 C 30.078125 7.71875 30.085938 7.753906 29.96875 7.53125 C 29.96875 7.519531 29.96875 7.511719 29.96875 7.5 C 26.96875 2.402344 25.875 0.5 25.875 0.5 C 25.671875 0.132813 25.257813 -0.0664063 24.84375 0 Z M 25 2.96875 C 25.390625 3.640625 25.878906 4.492188 28.21875 8.46875 C 28.226563 8.480469 28.242188 8.488281 28.25 8.5 C 28.457031 8.890625 28.632813 9.289063 29.15625 9.59375 C 29.695313 9.910156 30.378906 9.832031 30.875 9.625 C 31.519531 9.355469 32.765625 8.503906 33.875 7.8125 L 33 19.84375 C 32.980469 20.203125 33.15625 20.546875 33.460938 20.742188 C 33.765625 20.9375 34.148438 20.949219 34.46875 20.78125 L 40.5 17.6875 C 40.542969 17.988281 40.660156 18.359375 40.65625 18.625 C 40.644531 19.199219 40.433594 19.773438 40.84375 20.5625 C 41.050781 20.957031 41.46875 21.257813 41.875 21.40625 C 42.28125 21.554688 42.710938 21.632813 43.25 21.65625 C 43.941406 21.6875 45.292969 21.578125 46.46875 21.5 C 45.925781 22.46875 45.292969 23.546875 45 24.28125 C 44.535156 25.445313 44.351563 26.382813 44.5625 27.28125 C 44.773438 28.179688 45.425781 28.84375 46.15625 29.25 C 46.390625 29.378906 46.714844 29.453125 46.96875 29.5625 C 44.707031 31.296875 41.933594 33.167969 39.71875 35.40625 C 38.394531 36.742188 37.3125 38.21875 36.8125 39.9375 C 36.449219 41.1875 36.609375 42.5625 37.03125 43.96875 C 36.054688 43.882813 34.65625 43.773438 32.1875 43.5625 C 30.578125 43.425781 28.9375 43.289063 27.625 43.1875 C 26.3125 43.085938 25.441406 43 25 43 C 24.558594 43 23.6875 43.085938 22.375 43.1875 C 21.0625 43.289063 19.421875 43.425781 17.8125 43.5625 C 15.363281 43.773438 13.988281 43.882813 13 43.96875 C 13.425781 42.546875 13.550781 41.164063 13.1875 39.90625 C 12.6875 38.183594 11.605469 36.707031 10.28125 35.375 C 8.070313 33.152344 5.289063 31.320313 3.03125 29.59375 C 3.242188 29.503906 3.523438 29.421875 3.71875 29.3125 C 4.394531 28.933594 5 28.257813 5.125 27.40625 C 5.335938 25.988281 4.59375 24.199219 3.375 21.5 C 4.53125 21.589844 5.835938 21.691406 6.53125 21.65625 C 7.0625 21.628906 7.5 21.589844 7.90625 21.4375 C 8.3125 21.285156 8.71875 20.996094 8.9375 20.625 C 9.375 19.886719 9.257813 19.25 9.28125 18.65625 C 9.292969 18.367188 9.441406 17.984375 9.5 17.65625 L 15.5625 20.6875 C 15.882813 20.84375 16.265625 20.820313 16.5625 20.617188 C 16.859375 20.417969 17.023438 20.074219 17 19.71875 L 16.125 7.84375 C 17.226563 8.53125 18.484375 9.359375 19.125 9.625 C 19.621094 9.832031 20.304688 9.910156 20.84375 9.59375 C 21.367188 9.289063 21.542969 8.890625 21.75 8.5 L 21.78125 8.5 C 21.785156 8.492188 21.777344 8.476563 21.78125 8.46875 C 24.058594 4.464844 24.597656 3.625 25 2.96875 Z M 24 16 L 24 19.09375 C 19.101563 19.492188 19 23.6875 19 24.1875 C 19 28.1875 22.199219 28.992188 25 29.59375 C 27.398438 30.195313 29.5 30.601563 29.5 33 C 29.5 34 29.09375 36.5 25.09375 36.5 C 24.894531 36.5 23.011719 36.488281 21.8125 35.1875 C 21.011719 34.386719 20.6875 33.300781 20.6875 32 L 20.6875 31.6875 L 18.59375 31.6875 L 18.59375 32 C 18.695313 36.898438 21.695313 37.886719 24.09375 38.1875 L 24.09375 40.40625 L 26.09375 40.40625 L 26.09375 38.1875 C 31.292969 37.6875 31.59375 33.800781 31.59375 33 C 31.492188 29.101563 28.300781 28.289063 25.5 27.6875 C 23.101563 27.085938 21 26.605469 21 24.40625 C 21 22.105469 22.300781 20.90625 25 20.90625 C 28.5 20.90625 28.90625 23.613281 28.90625 24.8125 L 28.90625 25 L 31 25 L 31 24.8125 C 31.101563 23.511719 30.59375 21.90625 29.59375 20.90625 C 28.695313 19.90625 27.398438 19.292969 26 19.09375 L 26 16 Z"/></svg>