<svg xmlns="http://www.w3.org/2000/svg" viewBox="0 0 50 50" width="50" height="50" fill="#666"><path d="M 42.011719 1.984375 C 37.714844 1.984375 33.097656 2.359375 29.410156 4.054688 C 25.726563 5.746094 23 8.980469 23 14.0625 C 23 17.546875 24.792969 20.195313 25.324219 20.914063 C 24.921875 22.132813 24.601563 23.363281 24.390625 24.585938 C 23.671875 23.554688 22.757813 22.558594 21.730469 21.617188 C 21.730469 21.589844 21.730469 21.5625 21.734375 21.535156 C 21.734375 21.535156 21.761719 19.007813 20.777344 16.421875 C 20.28125 15.128906 19.527344 13.792969 18.332031 12.753906 C 17.136719 11.71875 15.488281 11.027344 13.4375 11.027344 C 8.253906 11.027344 3.554688 14.105469 3.554688 14.105469 C 3.183594 14.34375 3.011719 14.796875 3.132813 15.21875 C 3.132813 15.21875 3.808594 17.605469 5.335938 20.011719 C 6.863281 22.414063 9.367188 25 13 25 C 15.492188 25 17.46875 23.886719 17.46875 23.886719 C 17.796875 23.722656 18.007813 23.390625 18.019531 23.027344 C 18.027344 22.660156 17.839844 22.320313 17.527344 22.132813 C 17.210938 21.949219 16.820313 21.949219 16.507813 22.136719 C 16.507813 22.136719 14.890625 23 13 23 C 10.320313 23 8.375 21.0625 7.023438 18.9375 C 6.066406 17.425781 5.59375 16.191406 5.332031 15.441406 C 6.246094 14.910156 9.621094 13.027344 13.4375 13.027344 C 15.058594 13.027344 16.160156 13.519531 17.023438 14.265625 C 17.886719 15.015625 18.492188 16.050781 18.90625 17.136719 C 19.277344 18.105469 19.464844 19.066406 19.578125 19.855469 C 16.972656 17.9375 13.953125 16.460938 11.15625 16.011719 C 11.09375 16 11.027344 15.996094 10.957031 16 C 10.4375 16.007813 10.011719 16.417969 9.984375 16.9375 C 9.953125 17.460938 10.324219 17.914063 10.84375 17.988281 C 13.566406 18.425781 16.976563 20.203125 19.609375 22.410156 C 21.773438 24.230469 23.328125 26.351563 23.820313 28 L 3 28 C 2.449219 28 2 28.449219 2 29 C 2 36.605469 6.527344 43.105469 13 46.140625 L 13 47 C 13 48.09375 13.90625 49 15 49 L 35 49 C 36.09375 49 37 48.09375 37 47 L 37 46.140625 C 43.472656 43.105469 48 36.605469 48 29 C 48 28.449219 47.550781 28 47 28 L 26.03125 28 C 26.328125 21.085938 29.75 13.304688 37.496094 8.867188 C 37.90625 8.640625 38.101563 8.160156 37.972656 7.710938 C 37.839844 7.261719 37.414063 6.964844 36.949219 6.992188 C 36.789063 7.003906 36.640625 7.050781 36.503906 7.132813 C 31.535156 9.976563 28.195313 14.09375 26.226563 18.542969 C 25.648438 17.445313 25 15.839844 25 14.0625 C 25 9.648438 27.046875 7.339844 30.246094 5.867188 C 33.097656 4.558594 36.898438 4.15625 40.644531 4.070313 C 40.363281 5.195313 40.28125 6.292969 40.421875 7.320313 C 40.628906 8.8125 41 10.234375 41 11.910156 C 41 16.507813 38.136719 18.894531 35.078125 20.320313 C 32.019531 21.746094 28.921875 22.003906 28.921875 22.003906 C 28.554688 22.019531 28.222656 22.234375 28.0625 22.5625 C 27.902344 22.890625 27.933594 23.28125 28.144531 23.582031 C 28.355469 23.882813 28.714844 24.039063 29.078125 23.996094 C 29.078125 23.996094 32.480469 23.738281 35.921875 22.132813 C 39.363281 20.527344 43 17.371094 43 11.910156 C 43 9.945313 42.585938 8.367188 42.402344 7.042969 C 42.21875 5.71875 42.21875 4.703125 42.890625 3.457031 C 43.058594 3.148438 43.050781 2.773438 42.871094 2.46875 C 42.691406 2.167969 42.363281 1.980469 42.011719 1.984375 Z M 4.148438 30 L 24.832031 30 C 24.941406 30.019531 25.050781 30.019531 25.15625 30 L 45.847656 30 C 45.453125 36.601563 41.414063 42.214844 35.609375 44.667969 C 35.242188 44.824219 35 45.1875 35 45.589844 L 35 47 L 15 47 L 15 45.589844 C 15 45.1875 14.757813 44.824219 14.390625 44.667969 C 8.585938 42.214844 4.546875 36.601563 4.148438 30 Z"/></svg>