<svg xmlns="http://www.w3.org/2000/svg" viewBox="0 0 50 50" width="50" height="50" fill="#666"><path d="M 46.0625 2.65625 C 45.894531 2.675781 45.730469 2.742188 45.59375 2.84375 L 34.25 10.5 C 33.722656 10.066406 33.144531 9.601563 32.90625 9.40625 L 34.3125 4.6875 C 34.402344 4.378906 34.339844 4.042969 34.140625 3.789063 C 33.941406 3.535156 33.632813 3.394531 33.3125 3.40625 C 33.3125 3.40625 28.308594 3.445313 25.96875 7.34375 C 25.90625 7.417969 25.851563 7.503906 25.8125 7.59375 C 21.472656 7.855469 17.1875 5.84375 17.1875 5.84375 C 17.003906 5.753906 16.796875 5.71875 16.59375 5.75 C 16.078125 5.828125 15.710938 6.292969 15.75 6.8125 C 15.75 6.8125 15.808594 7.972656 16.375 9.1875 C 16.5 9.457031 16.804688 9.699219 17 9.96875 C 16.332031 10.027344 15.242188 10.007813 14.75 10.0625 C 13.527344 10.195313 12.753906 10.234375 11.28125 9.78125 C 10.917969 9.671875 10.523438 9.78125 10.265625 10.058594 C 10.007813 10.339844 9.929688 10.738281 10.0625 11.09375 C 10.398438 11.984375 11.109375 12.792969 11.9375 13.5 C 11.453125 13.585938 10.480469 13.59375 10.125 13.6875 C 9.035156 13.976563 8.613281 14.179688 7.5 14.125 C 7.125 14.101563 6.769531 14.292969 6.578125 14.613281 C 6.386719 14.9375 6.394531 15.339844 6.59375 15.65625 C 7.058594 16.394531 7.605469 16.894531 8.1875 17.25 C 7.789063 17.429688 7.3125 17.617188 7.03125 17.78125 C 6.554688 18.058594 6.242188 18.246094 6.0625 18.3125 C 5.882813 18.378906 5.847656 18.402344 5.5625 18.3125 C 5.171875 18.183594 4.738281 18.308594 4.476563 18.625 C 4.214844 18.941406 4.171875 19.390625 4.375 19.75 C 4.757813 20.421875 5.308594 20.851563 5.90625 21.1875 C 5.601563 21.308594 5.242188 21.414063 5 21.53125 C 4.039063 22 3.53125 22.269531 3.3125 22.28125 C 2.921875 22.296875 2.574219 22.539063 2.425781 22.902344 C 2.277344 23.265625 2.355469 23.683594 2.625 23.96875 C 3.007813 24.394531 3.4375 24.695313 3.84375 24.90625 C 3.617188 25.003906 3.46875 25.132813 3.25 25.21875 C 2.367188 25.5625 1.65625 25.78125 1.65625 25.78125 C 1.277344 25.847656 0.972656 26.125 0.867188 26.496094 C 0.761719 26.867188 0.878906 27.261719 1.167969 27.515625 C 1.457031 27.769531 1.863281 27.835938 2.21875 27.6875 C 2.21875 27.6875 3.007813 27.464844 3.96875 27.09375 C 4.929688 26.722656 6.054688 26.230469 6.90625 25.5625 C 7.238281 25.304688 7.375 24.871094 7.25 24.46875 C 7.144531 24.152344 6.90625 23.902344 6.71875 23.78125 C 6.53125 23.660156 6.359375 23.636719 6.21875 23.59375 C 6.011719 23.527344 5.839844 23.480469 5.65625 23.4375 C 5.726563 23.398438 5.800781 23.378906 5.875 23.34375 C 6.707031 22.9375 7.796875 22.496094 9.6875 22.28125 C 10.234375 22.273438 10.671875 21.828125 10.671875 21.28125 C 10.671875 20.734375 10.234375 20.289063 9.6875 20.28125 C 9.6875 20.28125 8.917969 20.207031 8.0625 19.9375 C 7.882813 19.882813 7.828125 19.761719 7.65625 19.6875 C 7.773438 19.617188 7.910156 19.570313 8.03125 19.5 C 8.882813 19.003906 10.03125 18.425781 12.5625 18.15625 C 13.113281 18.183594 13.582031 17.753906 13.609375 17.203125 C 13.636719 16.652344 13.207031 16.183594 12.65625 16.15625 C 11.492188 15.914063 10.546875 16.097656 9.6875 15.78125 C 9.976563 15.707031 10.359375 15.703125 10.65625 15.625 C 11.644531 15.363281 12.921875 15.09375 15.6875 15.09375 C 16.234375 15.085938 16.671875 14.640625 16.671875 14.09375 C 16.671875 13.546875 16.234375 13.101563 15.6875 13.09375 C 14.914063 13.09375 14.078125 12.765625 13.375 12.21875 C 13.335938 12.1875 13.320313 12.15625 13.28125 12.125 C 13.855469 12.140625 14.414063 12.121094 14.96875 12.0625 C 16.261719 11.921875 17.664063 11.710938 20.25 11.8125 C 20.261719 11.8125 20.269531 11.8125 20.28125 11.8125 C 20.832031 11.828125 21.296875 11.394531 21.3125 10.84375 C 21.328125 10.292969 20.894531 9.828125 20.34375 9.8125 C 20.3125 9.8125 20.3125 9.8125 20.28125 9.8125 C 19.039063 9.8125 18.566406 9.15625 18.1875 8.34375 C 18.179688 8.328125 18.195313 8.328125 18.1875 8.3125 C 20.179688 9.113281 23.929688 10.394531 28.40625 9.21875 C 28.832031 9.117188 29.140625 8.75 29.171875 8.3125 C 29.199219 7.875 28.941406 7.46875 28.53125 7.3125 C 29.589844 6.300781 30.890625 5.890625 31.90625 5.6875 L 30.8125 9.5 C 30.707031 9.875 30.828125 10.277344 31.125 10.53125 C 31.125 10.53125 32.304688 11.480469 33.5625 12.53125 C 34.820313 13.582031 36.21875 14.816406 36.5 15.09375 C 36.546875 15.140625 36.894531 15.863281 37.03125 16.53125 C 37.167969 17.199219 37.21875 17.78125 37.21875 17.78125 C 37.226563 17.878906 37.246094 17.972656 37.28125 18.0625 C 37.28125 18.0625 38.894531 22.269531 44.375 27.5625 C 44.429688 27.621094 44.492188 27.675781 44.5625 27.71875 C 45.660156 28.375 45.890625 29.085938 45.96875 29.71875 C 46.042969 30.351563 45.90625 30.78125 45.90625 30.78125 C 45.847656 30.929688 45.828125 31.089844 45.84375 31.25 C 45.84375 31.261719 45.84375 31.269531 45.84375 31.28125 C 45.828125 31.402344 45.789063 31.574219 45.75 31.78125 C 45.675781 32.199219 45.578125 32.753906 45.46875 33.28125 C 45.308594 34.0625 45.230469 34.472656 45.15625 34.8125 C 44.710938 35.035156 43.042969 35.804688 40.96875 35.125 C 38.074219 34.175781 37.34375 31.78125 37.34375 31.78125 C 37.179688 31.269531 36.640625 30.980469 36.125 31.125 C 36.125 31.125 34.417969 31.589844 32.40625 31.3125 C 30.394531 31.035156 28.214844 30.125 26.9375 27.125 C 26.8125 26.84375 26.5625 26.636719 26.261719 26.5625 C 25.964844 26.492188 25.648438 26.558594 25.40625 26.75 C 23.101563 28.597656 21.855469 30.324219 21.3125 32.03125 C 20.769531 33.738281 20.945313 35.335938 21.25 36.75 C 21.554688 38.164063 21.96875 39.445313 22.03125 40.65625 C 22.09375 41.867188 21.875 43 20.875 44.40625 C 20.546875 44.863281 20.652344 45.5 21.109375 45.828125 C 21.566406 46.15625 22.203125 46.050781 22.53125 45.59375 C 23.773438 43.847656 24.113281 42.117188 24.03125 40.5625 C 23.949219 39.007813 23.496094 37.628906 23.21875 36.34375 C 22.941406 35.058594 22.824219 33.902344 23.21875 32.65625 C 23.546875 31.625 24.429688 30.441406 25.84375 29.125 C 27.496094 31.8125 30.011719 32.984375 32.15625 33.28125 C 33.886719 33.519531 35.117188 33.335938 35.875 33.1875 C 36.308594 34.136719 37.375 36.058594 40.34375 37.03125 C 43.632813 38.109375 46.5 36.40625 46.5 36.40625 C 46.734375 36.269531 46.902344 36.042969 46.96875 35.78125 C 46.96875 35.78125 47.1875 34.757813 47.40625 33.6875 C 47.515625 33.152344 47.636719 32.601563 47.71875 32.15625 C 47.757813 31.933594 47.789063 31.730469 47.8125 31.5625 C 47.835938 31.394531 47.890625 31.367188 47.84375 31 L 47.8125 31 C 47.890625 30.710938 48.070313 30.3125 47.96875 29.46875 C 47.84375 28.417969 47.195313 27.109375 45.75 26.15625 L 45.78125 26.125 C 40.597656 21.121094 39.222656 17.527344 39.1875 17.4375 C 39.175781 17.292969 39.144531 16.828125 39 16.125 C 38.945313 15.863281 38.886719 15.589844 38.8125 15.3125 L 46.96875 4.25 C 47.195313 3.945313 47.226563 3.539063 47.054688 3.203125 C 46.882813 2.863281 46.535156 2.652344 46.15625 2.65625 C 46.125 2.65625 46.09375 2.65625 46.0625 2.65625 Z M 41.875 7.78125 L 37.6875 13.46875 C 37.277344 13.082031 36.621094 12.5 35.84375 11.84375 Z M 34.5 19 C 33.671875 19 33 19.671875 33 20.5 C 33 21.328125 33.671875 22 34.5 22 C 35.328125 22 36 21.328125 36 20.5 C 36 19.671875 35.328125 19 34.5 19 Z"/></svg>