<svg xmlns="http://www.w3.org/2000/svg" viewBox="0 0 50 50" width="50" height="50" fill="#666"><path style="line-height:normal;text-indent:0;text-align:start;text-decoration-line:none;text-decoration-style:solid;text-decoration-color:#000;text-transform:none;block-progression:tb;isolation:auto;mix-blend-mode:normal" d="M 25 2 C 22.152887 2 20 4.3838269 20 7.1699219 L 20 9.8945312 C 19.258688 10.139322 18.543894 10.436748 17.853516 10.783203 L 15.927734 8.8574219 C 13.957907 6.8875942 10.749484 6.7231725 8.7363281 8.7363281 C 6.7231725 10.749484 6.8875942 13.957907 8.8574219 15.927734 L 10.783203 17.853516 C 10.436765 18.543462 10.139207 19.258656 9.8945312 20 L 7.1699219 20 C 4.3838269 20 2 22.152887 2 25 C 2 27.847113 4.3838269 30 7.1699219 30 L 9.8945312 30 C 10.139322 30.741312 10.436748 31.456106 10.783203 32.146484 L 8.8574219 34.072266 C 6.8875942 36.042093 6.7231725 39.250516 8.7363281 41.263672 C 10.749484 43.276827 13.957907 43.112406 15.927734 41.142578 L 17.853516 39.216797 C 18.543894 39.563252 19.258688 39.860678 20 40.105469 L 20 42.830078 C 20 45.616173 22.152887 48 25 48 C 27.847113 48 30 45.616173 30 42.830078 L 30 40.105469 C 30.741312 39.860678 31.456106 39.563252 32.146484 39.216797 L 34.072266 41.142578 C 36.042093 43.112406 39.250516 43.276827 41.263672 41.263672 C 43.276827 39.250516 43.112406 36.042093 41.142578 34.072266 L 39.216797 32.146484 C 39.563252 31.456106 39.860678 30.741312 40.105469 30 L 42.830078 30 C 45.616173 30 48 27.847113 48 25 C 48 22.152887 45.616173 20 42.830078 20 L 40.105469 20 C 39.860678 19.258688 39.563252 18.543894 39.216797 17.853516 L 41.142578 15.927734 C 43.112406 13.957907 43.276827 10.749484 41.263672 8.7363281 C 39.250516 6.7231725 36.042093 6.8875942 34.072266 8.8574219 L 32.146484 10.783203 C 31.456106 10.436748 30.741312 10.139322 30 9.8945312 L 30 7.1699219 C 30 4.3838269 27.847113 2 25 2 z M 25 4 C 26.760887 4 28 5.3700168 28 7.1699219 L 28 11.316406 L 28.732422 11.519531 C 29.851274 11.82918 30.911392 12.266548 31.894531 12.824219 L 32.556641 13.201172 L 35.486328 10.271484 C 36.7585 8.9993125 38.604765 8.9055458 39.849609 10.150391 C 41.094454 11.395235 41.000688 13.2415 39.728516 14.513672 L 36.798828 17.443359 L 37.175781 18.105469 C 37.733452 19.088608 38.17082 20.148726 38.480469 21.267578 L 38.683594 22 L 42.830078 22 C 44.629983 22 46 23.239113 46 25 C 46 26.760887 44.629983 28 42.830078 28 L 38.683594 28 L 38.480469 28.732422 C 38.17082 29.851274 37.733452 30.911392 37.175781 31.894531 L 36.798828 32.556641 L 39.728516 35.486328 C 41.000688 36.7585 41.094454 38.604765 39.849609 39.849609 C 38.604765 41.094454 36.7585 41.000688 35.486328 39.728516 L 32.556641 36.798828 L 31.894531 37.175781 C 30.911392 37.733452 29.851274 38.17082 28.732422 38.480469 L 28 38.683594 L 28 42.830078 C 28 44.629983 26.760887 46 25 46 C 23.239113 46 22 44.629983 22 42.830078 L 22 38.683594 L 21.267578 38.480469 C 20.148726 38.17082 19.088608 37.733452 18.105469 37.175781 L 17.443359 36.798828 L 14.513672 39.728516 C 13.2415 41.000688 11.395235 41.094454 10.150391 39.849609 C 8.9055458 38.604765 8.9993125 36.7585 10.271484 35.486328 L 13.201172 32.556641 L 12.824219 31.894531 C 12.266548 30.911392 11.82918 29.851274 11.519531 28.732422 L 11.316406 28 L 7.1699219 28 C 5.3700168 28 4 26.760887 4 25 C 4 23.239113 5.3700168 22 7.1699219 22 L 11.318359 22 L 11.519531 21.265625 C 11.827962 20.147796 12.266312 19.089023 12.824219 18.105469 L 13.201172 17.443359 L 10.271484 14.513672 C 8.9993125 13.2415 8.9055458 11.395235 10.150391 10.150391 C 11.395235 8.9055458 13.2415 8.9993125 14.513672 10.271484 L 17.443359 13.201172 L 18.105469 12.824219 C 19.088608 12.266548 20.148726 11.82918 21.267578 11.519531 L 22 11.316406 L 22 7.1699219 C 22 5.3700168 23.239113 4 25 4 z M 25 15 C 19.488997 15 15 19.488997 15 25 C 15 30.511003 19.488997 35 25 35 C 30.511003 35 35 30.511003 35 25 C 35 19.488997 30.511003 15 25 15 z M 25 17 C 29.090654 17 32.441154 20.045772 32.931641 24 L 29.898438 24 C 29.43156 21.725392 27.407209 20 25 20 C 22.592791 20 20.56844 21.725392 20.101562 24 L 17.068359 24 C 17.558846 20.045772 20.909346 17 25 17 z M 25 22 C 26.668699 22 28 23.331301 28 25 C 28 26.668699 26.668699 28 25 28 C 23.331301 28 22 26.668699 22 25 C 22 23.331301 23.331301 22 25 22 z M 17.068359 26 L 20.101562 26 C 20.56844 28.274608 22.592791 30 25 30 C 27.407209 30 29.43156 28.274608 29.898438 26 L 32.931641 26 C 32.441154 29.954228 29.090654 33 25 33 C 20.909346 33 17.558846 29.954228 17.068359 26 z"/></svg>