<svg xmlns="http://www.w3.org/2000/svg" viewBox="0 0 50 50" width="50" height="50" fill="#666"><path d="M 25 0 C 21.5 0 18.195313 1.292969 15.59375 3.59375 C 12.695313 6.195313 11 10 11 14 C 11 15.101563 11.898438 16 13 16 L 15 16 C 16.101563 16 17 15.101563 17 14 C 17 11.699219 17.988281 9.601563 19.6875 8 C 21.1875 6.699219 23 6 25 6 C 25.300781 6 25.605469 5.992188 25.90625 6.09375 C 29.605469 6.492188 32.507813 9.492188 32.90625 13.09375 C 33.304688 16.394531 31.585938 19.492188 28.6875 21.09375 C 24.488281 23.292969 21.90625 27.492188 21.90625 32.09375 L 21.90625 38 C 21.90625 39.101563 22.804688 40 23.90625 40 L 25.90625 40 C 27.007813 40 27.90625 39.101563 27.90625 38 L 27.90625 32.09375 C 27.90625 29.792969 29.300781 27.605469 31.5 26.40625 C 36.601563 23.707031 39.511719 18.199219 38.8125 12.5 C 38.210938 6 32.992188 0.792969 26.59375 0.09375 C 26.09375 -0.0078125 25.5 0 25 0 Z M 25 2 C 25.398438 2 25.914063 1.992188 26.3125 2.09375 C 31.8125 2.695313 36.304688 7.1875 36.90625 12.6875 C 37.40625 17.585938 34.992188 22.289063 30.59375 24.6875 C 27.792969 26.085938 26 28.992188 26 32.09375 L 26 38 L 24 38 L 24 32.09375 C 24 28.292969 26.1875 24.707031 29.6875 22.90625 C 33.289063 21.007813 35.40625 17.007813 34.90625 12.90625 C 34.40625 8.304688 30.695313 4.59375 26.09375 4.09375 C 25.792969 3.992188 25.398438 4 25 4 C 22.5 4 20.210938 4.898438 18.3125 6.5 C 16.210938 8.398438 15 11.199219 15 14 L 13 14 C 13 10.601563 14.5 7.292969 17 5.09375 C 19.199219 3.09375 22.101563 2 25 2 Z M 22.8125 44 C 22.335938 44.089844 21.992188 44.511719 22 45 L 22 49 C 22 49.550781 22.449219 50 23 50 L 27 50 C 27.550781 50 28 49.550781 28 49 L 28 45 C 28 44.449219 27.550781 44 27 44 L 23 44 C 22.96875 44 22.9375 44 22.90625 44 C 22.875 44 22.84375 44 22.8125 44 Z M 24 46 L 26 46 L 26 48 L 24 48 Z"/></svg>