<svg xmlns="http://www.w3.org/2000/svg" viewBox="0 0 50 50" width="50" height="50" fill="#666"><path d="M 5.8125 0 C 5.335938 0.0898438 4.992188 0.511719 5 1 L 5 45 C 5 45.550781 5.449219 46 6 46 L 9 46 L 9 49 C 9 49.550781 9.449219 50 10 50 L 44 50 C 44.550781 50 45 49.550781 45 49 L 45 5 C 45 4.449219 44.550781 4 44 4 L 41 4 L 41 1 C 41 0.449219 40.550781 0 40 0 L 6 0 C 5.96875 0 5.9375 0 5.90625 0 C 5.875 0 5.84375 0 5.8125 0 Z M 7 2 L 39 2 L 39 44 L 7 44 Z M 41 6 L 43 6 L 43 48 L 11 48 L 11 46 L 40 46 C 40.550781 46 41 45.550781 41 45 Z M 23.1875 10.5 C 19.488281 10.5 17 12.789063 16.5 16.1875 C 16.5 16.386719 16.613281 16.59375 16.8125 16.59375 L 19.09375 17 C 19.292969 17 19.5 16.886719 19.5 16.6875 C 19.898438 14.488281 21.1875 13.3125 23.1875 13.3125 C 25.289063 13.3125 26.6875 14.59375 26.6875 16.59375 C 26.6875 17.894531 26.300781 18.707031 25 20.40625 L 22.59375 23.6875 C 21.792969 24.6875 21.5 25.507813 21.5 26.90625 L 21.5 28.40625 C 21.5 28.605469 21.710938 28.8125 21.8125 28.8125 L 24.1875 28.8125 C 24.488281 28.8125 24.59375 28.605469 24.59375 28.40625 L 24.59375 27.3125 C 24.59375 26.113281 24.800781 25.59375 25.5 24.59375 L 27.90625 21.3125 C 29.105469 19.613281 29.6875 18.292969 29.6875 16.59375 C 29.6875 12.992188 27.085938 10.5 23.1875 10.5 Z M 21.8125 31.5 C 21.511719 31.5 21.40625 31.707031 21.40625 31.90625 L 21.40625 35 C 21.40625 35.300781 21.613281 35.40625 21.8125 35.40625 L 24.5 35.40625 C 24.800781 35.40625 24.90625 35.199219 24.90625 35 L 24.90625 31.90625 C 24.90625 31.605469 24.699219 31.5 24.5 31.5 Z"/></svg>